%TF.GenerationSoftware,Altium Limited,Altium Designer,26.6.0 (10)*%
G04 Layer_Color=16711935*
G04 Board_Origin=29350000|14702756*
%FSLAX45Y45*%
%MOMM*%
%TF.SameCoordinates,FF19D583-8477-4E59-B826-EB9FC0F50DB0*%
%TF.FilePolarity,Positive*%
%TF.FileFunction,Other,Mechanical_13*%
%TF.Part,Single*%
G01*
G75*
%TA.AperFunction,NonConductor*%
%ADD56C,0.20000*%
%ADD89C,0.10000*%
%ADD90R,0.61466X2.92000*%
D56*
X6095000Y2920000D02*
X6205000D01*
X6095000Y2980000D02*
X6205000D01*
X6095000Y2920000D02*
Y2980000D01*
X6205000Y2920000D02*
Y2980000D01*
X970000Y3110000D02*
Y4110000D01*
X1970000Y3110000D02*
Y4110000D01*
X970000Y3110000D02*
X1970000D01*
X970000Y4110000D02*
X1970000D01*
X1682500Y1705000D02*
X1817500D01*
X1682500Y1495000D02*
X1817500D01*
Y1705000D01*
X1682500Y1495000D02*
Y1705000D01*
X1017500Y4595000D02*
Y4655000D01*
X907500Y4595000D02*
Y4655000D01*
X1017500D01*
X907500Y4595000D02*
X1017500D01*
X4865000Y2556500D02*
Y3431500D01*
X5265000Y2556500D02*
Y3431500D01*
X4865000D02*
X5265000D01*
X4865000Y2556500D02*
X5265000D01*
X2247500Y4062500D02*
Y4237500D01*
X2152500Y4062500D02*
Y4237500D01*
X2247500D01*
X2152500Y4062500D02*
X2247500D01*
X96500Y4696000D02*
X553500D01*
X96500Y4404000D02*
X553500D01*
Y4696000D01*
X96500Y4404000D02*
Y4696000D01*
X2697500Y1897500D02*
X2872500D01*
X2697500Y1802500D02*
X2872500D01*
X2697500D02*
Y1897500D01*
X2872500Y1802500D02*
Y1897500D01*
X2934750Y4747250D02*
X3029750D01*
X2934750Y4572250D02*
X3029750D01*
Y4747250D01*
X2934750Y4572250D02*
Y4747250D01*
X2932500Y4387500D02*
X3027500D01*
X2932500Y4212500D02*
X3027500D01*
Y4387500D01*
X2932500Y4212500D02*
Y4387500D01*
X5762500Y4002500D02*
X5937500D01*
X5762500Y4097500D02*
X5937500D01*
X5762500Y4002500D02*
Y4097500D01*
X5937500Y4002500D02*
Y4097500D01*
X2942500Y3842500D02*
X3037500D01*
X2942500Y4017500D02*
X3037500D01*
X2942500Y3842500D02*
Y4017500D01*
X3037500Y3842500D02*
Y4017500D01*
X3387500Y3757500D02*
X3562500D01*
X3387500Y3662500D02*
X3562500D01*
X3387500D02*
Y3757500D01*
X3562500Y3662500D02*
Y3757500D01*
X5787500Y3177500D02*
X5962500D01*
X5787500Y3272500D02*
X5962500D01*
X5787500Y3177500D02*
Y3272500D01*
X5962500Y3177500D02*
Y3272500D01*
Y2327500D02*
Y2422500D01*
X5787500Y2327500D02*
Y2422500D01*
X5962500D01*
X5787500Y2327500D02*
X5962500D01*
X5787500Y1502500D02*
X5962500D01*
X5787500Y1597500D02*
X5962500D01*
X5787500Y1502500D02*
Y1597500D01*
X5962500Y1502500D02*
Y1597500D01*
X4362500Y4572500D02*
X4457500D01*
X4362500Y4747500D02*
X4457500D01*
X4362500Y4572500D02*
Y4747500D01*
X4457500Y4572500D02*
Y4747500D01*
X4362500Y4182500D02*
Y4357500D01*
X4457500Y4182500D02*
Y4357500D01*
X4362500Y4182500D02*
X4457500D01*
X4362500Y4357500D02*
X4457500D01*
X4372500Y3797500D02*
Y3972500D01*
X4467500Y3797500D02*
Y3972500D01*
X4372500Y3797500D02*
X4467500D01*
X4372500Y3972500D02*
X4467500D01*
X5687500Y752500D02*
X5862500D01*
X5687500Y847500D02*
X5862500D01*
X5687500Y752500D02*
Y847500D01*
X5862500Y752500D02*
Y847500D01*
X5027500Y3767500D02*
X5202500D01*
X5027500Y3672500D02*
X5202500D01*
X5027500D02*
Y3767500D01*
X5202500Y3672500D02*
Y3767500D01*
X4087500Y4002500D02*
X4262500D01*
X4087500Y4097500D02*
X4262500D01*
X4087500Y4002500D02*
Y4097500D01*
X4262500Y4002500D02*
Y4097500D01*
X4112500Y3177500D02*
X4287500D01*
X4112500Y3272500D02*
X4287500D01*
X4112500Y3177500D02*
Y3272500D01*
X4287500Y3177500D02*
Y3272500D01*
X3987500Y2327500D02*
X4162500D01*
X3987500Y2422500D02*
X4162500D01*
X3987500Y2327500D02*
Y2422500D01*
X4162500Y2327500D02*
Y2422500D01*
X3057500Y3227500D02*
Y3402500D01*
X2962500Y3227500D02*
Y3402500D01*
X3057500D01*
X2962500Y3227500D02*
X3057500D01*
Y2832500D02*
Y3007500D01*
X2962500Y2832500D02*
Y3007500D01*
X3057500D01*
X2962500Y2832500D02*
X3057500D01*
X3047500Y2452500D02*
Y2627500D01*
X2952500Y2452500D02*
Y2627500D01*
X3047500D01*
X2952500Y2452500D02*
X3047500D01*
X3687500Y1477500D02*
X3862500D01*
X3687500Y1572500D02*
X3862500D01*
X3687500Y1477500D02*
Y1572500D01*
X3862500Y1477500D02*
Y1572500D01*
X3470000Y2332500D02*
X3645000D01*
X3470000Y2237500D02*
X3645000D01*
X3470000D02*
Y2332500D01*
X3645000Y2237500D02*
Y2332500D01*
X3697500Y627500D02*
X3872500D01*
X3697500Y722500D02*
X3872500D01*
X3697500Y627500D02*
Y722500D01*
X3872500Y627500D02*
Y722500D01*
X2387500Y4002500D02*
X2562500D01*
X2387500Y4097500D02*
X2562500D01*
X2387500Y4002500D02*
Y4097500D01*
X2562500Y4002500D02*
Y4097500D01*
X2362500Y3177500D02*
X2537500D01*
X2362500Y3272500D02*
X2537500D01*
X2362500Y3177500D02*
Y3272500D01*
X2537500Y3177500D02*
Y3272500D01*
X4547500Y3127500D02*
Y3302500D01*
X4452500Y3127500D02*
Y3302500D01*
X4547500D01*
X4452500Y3127500D02*
X4547500D01*
X4565000Y2747500D02*
Y2922500D01*
X4470000Y2747500D02*
Y2922500D01*
X4565000D01*
X4470000Y2747500D02*
X4565000D01*
X4557500Y2357500D02*
Y2532500D01*
X4462500Y2357500D02*
Y2532500D01*
X4557500D01*
X4462500Y2357500D02*
X4557500D01*
X2257500Y2322500D02*
X2432500D01*
X2257500Y2417500D02*
X2432500D01*
X2257500Y2322500D02*
Y2417500D01*
X2432500Y2322500D02*
Y2417500D01*
X5132500Y2412500D02*
X5307500D01*
X5132500Y2507500D02*
X5307500D01*
Y2412500D02*
Y2507500D01*
X5132500Y2412500D02*
Y2507500D01*
X2012500Y1472500D02*
X2187500D01*
X2012500Y1567500D02*
X2187500D01*
X2012500Y1472500D02*
Y1567500D01*
X2187500Y1472500D02*
Y1567500D01*
X1887500Y627500D02*
X2062500D01*
X1887500Y722500D02*
X2062500D01*
X1887500Y627500D02*
Y722500D01*
X2062500Y627500D02*
Y722500D01*
X652500Y3752500D02*
X827500D01*
X652500Y3847500D02*
X827500D01*
X652500Y3752500D02*
Y3847500D01*
X827500Y3752500D02*
Y3847500D01*
X1480000Y2765000D02*
Y2860000D01*
X1655000Y2765000D02*
Y2860000D01*
X1480000D02*
X1655000D01*
X1480000Y2765000D02*
X1655000D01*
X1492500Y4437500D02*
X1667500D01*
X1492500Y4342500D02*
X1667500D01*
X1492500D02*
Y4437500D01*
X1667500Y4342500D02*
Y4437500D01*
X2267500Y2972500D02*
Y3147500D01*
X2172500Y2972500D02*
Y3147500D01*
X2267500D01*
X2172500Y2972500D02*
X2267500D01*
X2300000Y3765000D02*
Y3940000D01*
X2205000Y3765000D02*
Y3940000D01*
X2300000D01*
X2205000Y3765000D02*
X2300000D01*
X4921500Y4404000D02*
Y4696000D01*
X5378500Y4404000D02*
Y4696000D01*
X4921500Y4404000D02*
X5378500D01*
X4921500Y4696000D02*
X5378500D01*
X4896500Y3579000D02*
Y3871000D01*
X5353500Y3579000D02*
Y3871000D01*
X4896500Y3579000D02*
X5353500D01*
X4896500Y3871000D02*
X5353500D01*
X4896500Y2729000D02*
Y3021000D01*
X5353500Y2729000D02*
Y3021000D01*
X4896500Y2729000D02*
X5353500D01*
X4896500Y3021000D02*
X5353500D01*
X4921500Y2171000D02*
X5378500D01*
X4921500Y1879000D02*
X5378500D01*
Y2171000D01*
X4921500Y1879000D02*
Y2171000D01*
Y1371000D02*
X5378500D01*
X4921500Y1079000D02*
X5378500D01*
Y1371000D01*
X4921500Y1079000D02*
Y1371000D01*
X3221500Y4379000D02*
Y4671000D01*
X3678500Y4379000D02*
Y4671000D01*
X3221500Y4379000D02*
X3678500D01*
X3221500Y4671000D02*
X3678500D01*
X3220000Y3554000D02*
Y3846000D01*
X3677000Y3554000D02*
Y3846000D01*
X3220000Y3554000D02*
X3677000D01*
X3220000Y3846000D02*
X3677000D01*
X3221500Y2704000D02*
Y2996000D01*
X3678500Y2704000D02*
Y2996000D01*
X3221500Y2704000D02*
X3678500D01*
X3221500Y2996000D02*
X3678500D01*
X2796500Y1854000D02*
Y2146000D01*
X3253500Y1854000D02*
Y2146000D01*
X2796500Y1854000D02*
X3253500D01*
X2796500Y2146000D02*
X3253500D01*
X2821500Y1029000D02*
Y1321000D01*
X3278500Y1029000D02*
Y1321000D01*
X2821500Y1029000D02*
X3278500D01*
X2821500Y1321000D02*
X3278500D01*
X1521500Y4401500D02*
Y4693500D01*
X1978500Y4401500D02*
Y4693500D01*
X1521500Y4401500D02*
X1978500D01*
X1521500Y4693500D02*
X1978500D01*
X1534000Y3579000D02*
Y3871000D01*
X1991000Y3579000D02*
Y3871000D01*
X1534000Y3579000D02*
X1991000D01*
X1534000Y3871000D02*
X1991000D01*
X1521500Y3006000D02*
X1978500D01*
X1521500Y2714000D02*
X1978500D01*
Y3006000D01*
X1521500Y2714000D02*
Y3006000D01*
X1171500Y2171000D02*
X1628500D01*
X1171500Y1879000D02*
X1628500D01*
Y2171000D01*
X1171500Y1879000D02*
Y2171000D01*
Y1296000D02*
X1628500D01*
X1171500Y1004000D02*
X1628500D01*
Y1296000D01*
X1171500Y1004000D02*
Y1296000D01*
X6267500Y4595000D02*
Y4655000D01*
X6157500Y4595000D02*
Y4655000D01*
X6267500D01*
X6157500Y4595000D02*
X6267500D01*
X6230000Y3770000D02*
Y3830000D01*
X6120000Y3770000D02*
Y3830000D01*
X6230000D01*
X6120000Y3770000D02*
X6230000D01*
X6120000Y2095000D02*
Y2155000D01*
X6230000Y2095000D02*
Y2155000D01*
X6120000Y2095000D02*
X6230000D01*
X6120000Y2155000D02*
X6230000D01*
X6205000Y1270000D02*
Y1330000D01*
X6095000Y1270000D02*
Y1330000D01*
X6205000D01*
X6095000Y1270000D02*
X6205000D01*
X4385000Y4630000D02*
X4495000D01*
X4385000Y4690000D02*
X4495000D01*
X4385000Y4630000D02*
Y4690000D01*
X4495000Y4630000D02*
Y4690000D01*
X4517500Y3770000D02*
Y3830000D01*
X4407500Y3770000D02*
Y3830000D01*
X4517500D01*
X4407500Y3770000D02*
X4517500D01*
X4542500Y2920000D02*
Y2980000D01*
X4432500Y2920000D02*
Y2980000D01*
X4542500D01*
X4432500Y2920000D02*
X4542500D01*
X4142500Y2070000D02*
Y2130000D01*
X4032500Y2070000D02*
Y2130000D01*
X4142500D01*
X4032500Y2070000D02*
X4142500D01*
X4255000Y1270000D02*
Y1330000D01*
X4145000Y1270000D02*
Y1330000D01*
X4255000D01*
X4145000Y1270000D02*
X4255000D01*
X2817500Y4595000D02*
Y4655000D01*
X2707500Y4595000D02*
Y4655000D01*
X2817500D01*
X2707500Y4595000D02*
X2817500D01*
X2742500Y3770000D02*
Y3830000D01*
X2632500Y3770000D02*
Y3830000D01*
X2742500D01*
X2632500Y3770000D02*
X2742500D01*
X2765000Y2920000D02*
Y2980000D01*
X2655000Y2920000D02*
Y2980000D01*
X2765000D01*
X2655000Y2920000D02*
X2765000D01*
X2342500Y2080000D02*
Y2140000D01*
X2232500Y2080000D02*
Y2140000D01*
X2342500D01*
X2232500Y2080000D02*
X2342500D01*
X2330000Y1220000D02*
Y1280000D01*
X2220000Y1220000D02*
Y1280000D01*
X2330000D01*
X2220000Y1220000D02*
X2330000D01*
X3250000Y3942500D02*
Y4817500D01*
X3650000Y3942500D02*
Y4817500D01*
X3250000D02*
X3650000D01*
X3250000Y3942500D02*
X3650000D01*
X4880000Y3972500D02*
Y4847500D01*
X5280000Y3972500D02*
Y4847500D01*
X4880000D02*
X5280000D01*
X4880000Y3972500D02*
X5280000D01*
X3330000Y2492500D02*
X3730000D01*
X3330000Y3367500D02*
X3730000D01*
Y2492500D02*
Y3367500D01*
X3330000Y2492500D02*
Y3367500D01*
D89*
X1930000Y4020000D02*
G03*
X1930000Y4020000I-50000J0D01*
G01*
X5005000Y3344000D02*
G03*
X5005000Y3344000I-50000J0D01*
G01*
X3390000Y4730000D02*
G03*
X3390000Y4730000I-50000J0D01*
G01*
X5020000Y4760000D02*
G03*
X5020000Y4760000I-50000J0D01*
G01*
X3470000Y3280000D02*
G03*
X3470000Y3280000I-50000J0D01*
G01*
D90*
X522768Y4550001D02*
D03*
X5347767Y4549995D02*
D03*
X5322768Y3724996D02*
D03*
X5322766Y2875016D02*
D03*
X5347767Y2025001D02*
D03*
X5347767Y1225006D02*
D03*
X3647767Y4524996D02*
D03*
X3646268Y3700000D02*
D03*
X3647768Y2850011D02*
D03*
X3222766Y2000040D02*
D03*
X3247761Y1175026D02*
D03*
X1947769Y4547520D02*
D03*
X1960268Y3724998D02*
D03*
X1947765Y2860006D02*
D03*
X1597758Y2024968D02*
D03*
X1597768Y1150000D02*
D03*
%TF.MD5,605e68722c6c122243dbe7327bfb0fab*%
M02*
