%TF.GenerationSoftware,Altium Limited,Altium Designer,26.6.0 (10)*%
G04 Layer_Color=2752767*
G04 Board_Origin=29350000|14702756*
%FSLAX45Y45*%
%MOMM*%
%TF.SameCoordinates,FF19D583-8477-4E59-B826-EB9FC0F50DB0*%
%TF.FilePolarity,Positive*%
%TF.FileFunction,Drawing*%
%TF.Part,Single*%
G01*
G75*
%TA.AperFunction,NonConductor*%
%ADD84C,0.12700*%
%ADD103C,0.16933*%
D84*
X783200Y5095200D02*
X808600Y5146000D01*
X783200Y5196800D01*
X834000Y5171400D01*
X884800Y5196800D01*
X859400Y5146000D01*
X884800Y5095200D01*
X834000Y5120600D01*
X783200Y5095200D01*
X1037200D02*
X1062600Y5146000D01*
X1037200Y5196800D01*
X1088000Y5171400D01*
X1138800Y5196800D01*
X1113400Y5146000D01*
X1138800Y5095200D01*
X1088000Y5120600D01*
X1037200Y5095200D01*
X1291200D02*
X1316600Y5146000D01*
X1291200Y5196800D01*
X1342000Y5171400D01*
X1392800Y5196800D01*
X1367400Y5146000D01*
X1392800Y5095200D01*
X1342000Y5120600D01*
X1291200Y5095200D01*
X1545200D02*
X1570600Y5146000D01*
X1545200Y5196800D01*
X1596000Y5171400D01*
X1646800Y5196800D01*
X1621400Y5146000D01*
X1646800Y5095200D01*
X1596000Y5120600D01*
X1545200Y5095200D01*
X1799200D02*
X1824600Y5146000D01*
X1799200Y5196800D01*
X1850000Y5171400D01*
X1900800Y5196800D01*
X1875400Y5146000D01*
X1900800Y5095200D01*
X1850000Y5120600D01*
X1799200Y5095200D01*
X2053200D02*
X2078600Y5146000D01*
X2053200Y5196800D01*
X2104000Y5171400D01*
X2154800Y5196800D01*
X2129400Y5146000D01*
X2154800Y5095200D01*
X2104000Y5120600D01*
X2053200Y5095200D01*
X2307200D02*
X2332600Y5146000D01*
X2307200Y5196800D01*
X2358000Y5171400D01*
X2408800Y5196800D01*
X2383400Y5146000D01*
X2408800Y5095200D01*
X2358000Y5120600D01*
X2307200Y5095200D01*
X2815200D02*
X2840600Y5146000D01*
X2815200Y5196800D01*
X2866000Y5171400D01*
X2916800Y5196800D01*
X2891400Y5146000D01*
X2916800Y5095200D01*
X2866000Y5120600D01*
X2815200Y5095200D01*
X4085200D02*
X4110600Y5146000D01*
X4085200Y5196800D01*
X4136000Y5171400D01*
X4186800Y5196800D01*
X4161400Y5146000D01*
X4186800Y5095200D01*
X4136000Y5120600D01*
X4085200Y5095200D01*
X4339200D02*
X4364600Y5146000D01*
X4339200Y5196800D01*
X4390000Y5171400D01*
X4440800Y5196800D01*
X4415400Y5146000D01*
X4440800Y5095200D01*
X4390000Y5120600D01*
X4339200Y5095200D01*
X4593200D02*
X4618600Y5146000D01*
X4593200Y5196800D01*
X4644000Y5171400D01*
X4694800Y5196800D01*
X4669400Y5146000D01*
X4694800Y5095200D01*
X4644000Y5120600D01*
X4593200Y5095200D01*
X4847200D02*
X4872600Y5146000D01*
X4847200Y5196800D01*
X4898000Y5171400D01*
X4948800Y5196800D01*
X4923400Y5146000D01*
X4948800Y5095200D01*
X4898000Y5120600D01*
X4847200Y5095200D01*
X5101200D02*
X5126600Y5146000D01*
X5101200Y5196800D01*
X5152000Y5171400D01*
X5202800Y5196800D01*
X5177400Y5146000D01*
X5202800Y5095200D01*
X5152000Y5120600D01*
X5101200Y5095200D01*
X5355200D02*
X5380600Y5146000D01*
X5355200Y5196800D01*
X5406000Y5171400D01*
X5456800Y5196800D01*
X5431400Y5146000D01*
X5456800Y5095200D01*
X5406000Y5120600D01*
X5355200Y5095200D01*
X783200Y5349200D02*
X808600Y5400000D01*
X783200Y5450800D01*
X834000Y5425400D01*
X884800Y5450800D01*
X859400Y5400000D01*
X884800Y5349200D01*
X834000Y5374600D01*
X783200Y5349200D01*
X1037200D02*
X1062600Y5400000D01*
X1037200Y5450800D01*
X1088000Y5425400D01*
X1138800Y5450800D01*
X1113400Y5400000D01*
X1138800Y5349200D01*
X1088000Y5374600D01*
X1037200Y5349200D01*
X1545200D02*
X1570600Y5400000D01*
X1545200Y5450800D01*
X1596000Y5425400D01*
X1646800Y5450800D01*
X1621400Y5400000D01*
X1646800Y5349200D01*
X1596000Y5374600D01*
X1545200Y5349200D01*
X1799200D02*
X1824600Y5400000D01*
X1799200Y5450800D01*
X1850000Y5425400D01*
X1900800Y5450800D01*
X1875400Y5400000D01*
X1900800Y5349200D01*
X1850000Y5374600D01*
X1799200Y5349200D01*
X2053200D02*
X2078600Y5400000D01*
X2053200Y5450800D01*
X2104000Y5425400D01*
X2154800Y5450800D01*
X2129400Y5400000D01*
X2154800Y5349200D01*
X2104000Y5374600D01*
X2053200Y5349200D01*
X3831200D02*
X3856600Y5400000D01*
X3831200Y5450800D01*
X3882000Y5425400D01*
X3932800Y5450800D01*
X3907400Y5400000D01*
X3932800Y5349200D01*
X3882000Y5374600D01*
X3831200Y5349200D01*
X4085200D02*
X4110600Y5400000D01*
X4085200Y5450800D01*
X4136000Y5425400D01*
X4186800Y5450800D01*
X4161400Y5400000D01*
X4186800Y5349200D01*
X4136000Y5374600D01*
X4085200Y5349200D01*
X4593200D02*
X4618600Y5400000D01*
X4593200Y5450800D01*
X4644000Y5425400D01*
X4694800Y5450800D01*
X4669400Y5400000D01*
X4694800Y5349200D01*
X4644000Y5374600D01*
X4593200Y5349200D01*
X5101200D02*
X5126600Y5400000D01*
X5101200Y5450800D01*
X5152000Y5425400D01*
X5202800Y5450800D01*
X5177400Y5400000D01*
X5202800Y5349200D01*
X5152000Y5374600D01*
X5101200Y5349200D01*
X5355200D02*
X5380600Y5400000D01*
X5355200Y5450800D01*
X5406000Y5425400D01*
X5456800Y5450800D01*
X5431400Y5400000D01*
X5456800Y5349200D01*
X5406000Y5374600D01*
X5355200Y5349200D01*
X5609200D02*
X5634600Y5400000D01*
X5609200Y5450800D01*
X5660000Y5425400D01*
X5710800Y5450800D01*
X5685400Y5400000D01*
X5710800Y5349200D01*
X5660000Y5374600D01*
X5609200Y5349200D01*
X2561200Y5095200D02*
X2586600Y5146000D01*
X2561200Y5196800D01*
X2612000Y5171400D01*
X2662800Y5196800D01*
X2637400Y5146000D01*
X2662800Y5095200D01*
X2612000Y5120600D01*
X2561200Y5095200D01*
X3577200D02*
X3602600Y5146000D01*
X3577200Y5196800D01*
X3628000Y5171400D01*
X3678800Y5196800D01*
X3653400Y5146000D01*
X3678800Y5095200D01*
X3628000Y5120600D01*
X3577200Y5095200D01*
X2815200Y5349200D02*
X2840600Y5400000D01*
X2815200Y5450800D01*
X2866000Y5425400D01*
X2916800Y5450800D01*
X2891400Y5400000D01*
X2916800Y5349200D01*
X2866000Y5374600D01*
X2815200Y5349200D01*
X3323200D02*
X3348600Y5400000D01*
X3323200Y5450800D01*
X3374000Y5425400D01*
X3424800Y5450800D01*
X3399400Y5400000D01*
X3424800Y5349200D01*
X3374000Y5374600D01*
X3323200Y5349200D01*
X3069200Y5095200D02*
X3094600Y5146000D01*
X3069200Y5196800D01*
X3120000Y5171400D01*
X3170800Y5196800D01*
X3145400Y5146000D01*
X3170800Y5095200D01*
X3120000Y5120600D01*
X3069200Y5095200D01*
X2561200Y5349200D02*
X2586600Y5400000D01*
X2561200Y5450800D01*
X2612000Y5425400D01*
X2662800Y5450800D01*
X2637400Y5400000D01*
X2662800Y5349200D01*
X2612000Y5374600D01*
X2561200Y5349200D01*
X3577200D02*
X3602600Y5400000D01*
X3577200Y5450800D01*
X3628000Y5425400D01*
X3678800Y5450800D01*
X3653400Y5400000D01*
X3678800Y5349200D01*
X3628000Y5374600D01*
X3577200Y5349200D01*
X3323200Y5095200D02*
X3348600Y5146000D01*
X3323200Y5196800D01*
X3374000Y5171400D01*
X3424800Y5196800D01*
X3399400Y5146000D01*
X3424800Y5095200D01*
X3374000Y5120600D01*
X3323200Y5095200D01*
X1291200Y5349200D02*
X1316600Y5400000D01*
X1291200Y5450800D01*
X1342000Y5425400D01*
X1392800Y5450800D01*
X1367400Y5400000D01*
X1392800Y5349200D01*
X1342000Y5374600D01*
X1291200Y5349200D01*
X2307200D02*
X2332600Y5400000D01*
X2307200Y5450800D01*
X2358000Y5425400D01*
X2408800Y5450800D01*
X2383400Y5400000D01*
X2408800Y5349200D01*
X2358000Y5374600D01*
X2307200Y5349200D01*
X3069200D02*
X3094600Y5400000D01*
X3069200Y5450800D01*
X3120000Y5425400D01*
X3170800Y5450800D01*
X3145400Y5400000D01*
X3170800Y5349200D01*
X3120000Y5374600D01*
X3069200Y5349200D01*
X3831200Y5095200D02*
X3856600Y5146000D01*
X3831200Y5196800D01*
X3882000Y5171400D01*
X3932800Y5196800D01*
X3907400Y5146000D01*
X3932800Y5095200D01*
X3882000Y5120600D01*
X3831200Y5095200D01*
X4339200Y5349200D02*
X4364600Y5400000D01*
X4339200Y5450800D01*
X4390000Y5425400D01*
X4440800Y5450800D01*
X4415400Y5400000D01*
X4440800Y5349200D01*
X4390000Y5374600D01*
X4339200Y5349200D01*
X4847200D02*
X4872600Y5400000D01*
X4847200Y5450800D01*
X4898000Y5425400D01*
X4948800Y5450800D01*
X4923400Y5400000D01*
X4948800Y5349200D01*
X4898000Y5374600D01*
X4847200Y5349200D01*
X5609200Y5095200D02*
X5634600Y5146000D01*
X5609200Y5196800D01*
X5660000Y5171400D01*
X5710800Y5196800D01*
X5685400Y5146000D01*
X5710800Y5095200D01*
X5660000Y5120600D01*
X5609200Y5095200D01*
X900000Y1449200D02*
X925400Y1474600D01*
X950800D01*
X925400Y1500000D01*
X950800Y1525400D01*
X925400D01*
X900000Y1550800D01*
X874600Y1525400D01*
X849200D01*
X874600Y1500000D01*
X849200Y1474600D01*
X874600D01*
X900000Y1449200D01*
Y1068200D02*
X925400Y1093600D01*
X950800D01*
X925400Y1119000D01*
X950800Y1144400D01*
X925400D01*
X900000Y1169800D01*
X874600Y1144400D01*
X849200D01*
X874600Y1119000D01*
X849200Y1093600D01*
X874600D01*
X900000Y1068200D01*
X6152500Y4683522D02*
X6101700Y4785122D01*
X6203300D01*
X6152500Y4683522D01*
X1709349Y3906130D02*
X1658549Y4007730D01*
X1760149D01*
X1709349Y3906130D01*
X1779349D02*
X1728549Y4007730D01*
X1830149D01*
X1779349Y3906130D01*
X1672500Y3763887D02*
X1621700Y3865487D01*
X1723300D01*
X1672500Y3763887D01*
X1311022Y3183704D02*
X1260222Y3285304D01*
X1361822D01*
X1311022Y3183704D01*
X1457433Y3179133D02*
X1406633Y3280733D01*
X1508233D01*
X1457433Y3179133D01*
X2401110Y1900310D02*
X2350310Y2001910D01*
X2451910D01*
X2401110Y1900310D01*
X328615Y4037279D02*
X277815Y4138879D01*
X379415D01*
X328615Y4037279D01*
X582493Y3696693D02*
X531693Y3798293D01*
X633293D01*
X582493Y3696693D01*
X4545000Y4484200D02*
X4494200Y4585800D01*
X4595800D01*
X4545000Y4484200D01*
X1363679Y3374556D02*
X1312879Y3476156D01*
X1414479D01*
X1363679Y3374556D01*
X1376893Y3604807D02*
X1326093Y3706407D01*
X1427693D01*
X1376893Y3604807D01*
X849546Y3090737D02*
X798746Y3192337D01*
X900346D01*
X849546Y3090737D01*
X796390Y3191772D02*
X745590Y3293372D01*
X847190D01*
X796390Y3191772D01*
X6580000Y2179200D02*
X6529200Y2280800D01*
X6630800D01*
X6580000Y2179200D01*
X6353234Y3049200D02*
X6302434Y3150800D01*
X6404034D01*
X6353234Y3049200D01*
X6550000Y2991700D02*
X6499200Y3093300D01*
X6600800D01*
X6550000Y2991700D01*
X3741160Y5010759D02*
X3690360Y5112359D01*
X3791960D01*
X3741160Y5010759D01*
X6140000Y2496700D02*
X6089200Y2598300D01*
X6190800D01*
X6140000Y2496700D01*
X6486463Y4783124D02*
X6435663Y4884724D01*
X6537263D01*
X6486463Y4783124D01*
X7483924Y3643124D02*
X7433124Y3744724D01*
X7534724D01*
X7483924Y3643124D01*
X6189881Y1174153D02*
X6139081Y1275753D01*
X6240681D01*
X6189881Y1174153D01*
X8142500Y4464200D02*
X8091700Y4565800D01*
X8193300D01*
X8142500Y4464200D01*
X7693924Y4458124D02*
X7643124Y4559724D01*
X7744724D01*
X7693924Y4458124D01*
X6277500Y4459200D02*
X6226700Y4560800D01*
X6328300D01*
X6277500Y4459200D01*
X6963924Y1873124D02*
X6913124Y1974724D01*
X7014724D01*
X6963924Y1873124D01*
X6736999Y1869317D02*
X6686199Y1970917D01*
X6787799D01*
X6736999Y1869317D01*
X5836424Y1868124D02*
X5785624Y1969724D01*
X5887224D01*
X5836424Y1868124D01*
X7910000Y4679200D02*
X7859200Y4780800D01*
X7960800D01*
X7910000Y4679200D01*
X7542500Y4681700D02*
X7491700Y4783300D01*
X7593300D01*
X7542500Y4681700D01*
X5767933Y371852D02*
X5717133Y473452D01*
X5818733D01*
X5767933Y371852D01*
X5590000Y271700D02*
X5539200Y373300D01*
X5640800D01*
X5590000Y271700D01*
X5780000Y881700D02*
X5729200Y983300D01*
X5830800D01*
X5780000Y881700D01*
X5781424Y1045624D02*
X5730624Y1147224D01*
X5832224D01*
X5781424Y1045624D01*
X6065824Y2483724D02*
X6015024Y2585324D01*
X6116624D01*
X6065824Y2483724D01*
X7592500Y2804200D02*
X7541700Y2905800D01*
X7643300D01*
X7592500Y2804200D01*
X7206905Y3032296D02*
X7156105Y3133896D01*
X7257705D01*
X7206905Y3032296D01*
X7335000Y3114200D02*
X7284200Y3215800D01*
X7385800D01*
X7335000Y3114200D01*
X7555000Y3209200D02*
X7504200Y3310800D01*
X7605800D01*
X7555000Y3209200D01*
X5730000Y4784200D02*
X5679200Y4885800D01*
X5780800D01*
X5730000Y4784200D01*
X5560000Y3954711D02*
X5509200Y4056311D01*
X5610800D01*
X5560000Y3954711D01*
Y3844711D02*
X5509200Y3946311D01*
X5610800D01*
X5560000Y3844711D01*
X7190000Y3731700D02*
X7139200Y3833300D01*
X7240800D01*
X7190000Y3731700D01*
X7587500Y3001700D02*
X7536700Y3103300D01*
X7638300D01*
X7587500Y3001700D01*
X7347641Y3494341D02*
X7296841Y3595941D01*
X7398441D01*
X7347641Y3494341D01*
X7277500Y3561700D02*
X7226700Y3663300D01*
X7328300D01*
X7277500Y3561700D01*
X7555000Y3314200D02*
X7504200Y3415800D01*
X7605800D01*
X7555000Y3314200D01*
X7545000Y3399200D02*
X7494200Y3500800D01*
X7595800D01*
X7545000Y3399200D01*
X5720211Y3604288D02*
X5669411Y3705888D01*
X5771011D01*
X5720211Y3604288D01*
X5605000Y3511700D02*
X5554200Y3613300D01*
X5655800D01*
X5605000Y3511700D01*
X5595000Y3599200D02*
X5544200Y3700800D01*
X5645800D01*
X5595000Y3599200D01*
X5178253Y3399200D02*
X5127453Y3500800D01*
X5229053D01*
X5178253Y3399200D01*
X5687500Y3681700D02*
X5636700Y3783300D01*
X5738300D01*
X5687500Y3681700D01*
X5689741Y3758444D02*
X5638941Y3860044D01*
X5740541D01*
X5689741Y3758444D01*
X5397500Y3542288D02*
X5346700Y3643888D01*
X5448300D01*
X5397500Y3542288D01*
X5700083Y3924200D02*
X5649283Y4025800D01*
X5750883D01*
X5700083Y3924200D01*
X5747564Y4410739D02*
X5696764Y4512339D01*
X5798364D01*
X5747564Y4410739D01*
X6235000Y4009200D02*
X6184200Y4110800D01*
X6285800D01*
X6235000Y4009200D01*
X5472500Y4299200D02*
X5421700Y4400800D01*
X5523300D01*
X5472500Y4299200D01*
X6242700Y3276779D02*
X6191900Y3378379D01*
X6293500D01*
X6242700Y3276779D01*
X6197533Y2435774D02*
X6146733Y2537374D01*
X6248333D01*
X6197533Y2435774D01*
X6250000Y897285D02*
X6199200Y998885D01*
X6300800D01*
X6250000Y897285D01*
X6387500Y4914200D02*
X6336700Y5015800D01*
X6438300D01*
X6387500Y4914200D01*
X8179936Y2766352D02*
X8129136Y2867952D01*
X8230736D01*
X8179936Y2766352D01*
X884380Y24641D02*
X833580Y126241D01*
X935180D01*
X884380Y24641D01*
X1050000Y196700D02*
X999200Y298300D01*
X1100800D01*
X1050000Y196700D01*
X950000Y199200D02*
X899200Y300800D01*
X1000800D01*
X950000Y199200D01*
X415000Y1061700D02*
X364200Y1163300D01*
X465800D01*
X415000Y1061700D01*
X772500Y2198930D02*
X721700Y2300530D01*
X823300D01*
X772500Y2198930D01*
X1185000Y141700D02*
X1134200Y243300D01*
X1235800D01*
X1185000Y141700D01*
X4277500Y4543145D02*
X4226700Y4644745D01*
X4328300D01*
X4277500Y4543145D01*
X4677500Y4659200D02*
X4626700Y4760800D01*
X4728300D01*
X4677500Y4659200D01*
X3105000Y3186454D02*
X3054200Y3288054D01*
X3155800D01*
X3105000Y3186454D01*
Y2950960D02*
X3054200Y3052560D01*
X3155800D01*
X3105000Y2950960D01*
X2784923Y736482D02*
X2734123Y838082D01*
X2835723D01*
X2784923Y736482D01*
X3084571Y751700D02*
X3033771Y853300D01*
X3135371D01*
X3084571Y751700D01*
X3149179Y765021D02*
X3098379Y866621D01*
X3199979D01*
X3149179Y765021D01*
X3117500Y2819508D02*
X3066700Y2921108D01*
X3168300D01*
X3117500Y2819508D01*
X3120000Y2461700D02*
X3069200Y2563300D01*
X3170800D01*
X3120000Y2461700D01*
X2978230Y2251895D02*
X2927430Y2353495D01*
X3029030D01*
X2978230Y2251895D01*
X3682089Y1711700D02*
X3631289Y1813300D01*
X3732889D01*
X3682089Y1711700D01*
X3820000Y1091700D02*
X3769200Y1193300D01*
X3870800D01*
X3820000Y1091700D01*
X5102640Y4548302D02*
X5051840Y4649902D01*
X5153440D01*
X5102640Y4548302D01*
X5102500Y4426700D02*
X5051700Y4528300D01*
X5153300D01*
X5102500Y4426700D01*
X5196980Y3957641D02*
X5146180Y4059241D01*
X5247780D01*
X5196980Y3957641D01*
X5150740Y4159940D02*
X5099940Y4261540D01*
X5201540D01*
X5150740Y4159940D01*
X5051571Y3534200D02*
X5000771Y3635800D01*
X5102371D01*
X5051571Y3534200D01*
X5012275Y3426738D02*
X4961475Y3528338D01*
X5063075D01*
X5012275Y3426738D01*
X5143815Y3263550D02*
X5093015Y3365150D01*
X5194615D01*
X5143815Y3263550D01*
X4284505Y4623704D02*
X4233705Y4725304D01*
X4335305D01*
X4284505Y4623704D01*
X4297700Y4383854D02*
X4246900Y4485454D01*
X4348500D01*
X4297700Y4383854D01*
X3448724Y4996257D02*
X3397924Y5097857D01*
X3499524D01*
X3448724Y4996257D01*
X3380000Y4429200D02*
X3329200Y4530800D01*
X3430800D01*
X3380000Y4429200D01*
X3880000Y4211824D02*
X3829200Y4313424D01*
X3930800D01*
X3880000Y4211824D01*
X4309025Y3810163D02*
X4258225Y3911763D01*
X4359825D01*
X4309025Y3810163D01*
X4619800Y3354200D02*
X4569000Y3455800D01*
X4670600D01*
X4619800Y3354200D01*
X4240000Y3604200D02*
X4189200Y3705800D01*
X4290800D01*
X4240000Y3604200D01*
X3380000Y4129200D02*
X3329200Y4230800D01*
X3430800D01*
X3380000Y4129200D01*
X3475000Y3551700D02*
X3424200Y3653300D01*
X3525800D01*
X3475000Y3551700D01*
X5052175Y2899000D02*
X5001375Y3000600D01*
X5102975D01*
X5052175Y2899000D01*
X5454430Y2284399D02*
X5403630Y2385999D01*
X5505230D01*
X5454430Y2284399D01*
X5092500Y2021700D02*
X5041700Y2123300D01*
X5143300D01*
X5092500Y2021700D01*
X4626109Y2483091D02*
X4575309Y2584691D01*
X4676909D01*
X4626109Y2483091D01*
X4785000Y1865241D02*
X4734200Y1966841D01*
X4835800D01*
X4785000Y1865241D01*
X5070000Y1566500D02*
X5019200Y1668100D01*
X5120800D01*
X5070000Y1566500D01*
X5057913Y1057951D02*
X5007113Y1159551D01*
X5108713D01*
X5057913Y1057951D01*
X5073549Y796927D02*
X5022749Y898527D01*
X5124349D01*
X5073549Y796927D01*
X4907500Y1526700D02*
X4856700Y1628300D01*
X4958300D01*
X4907500Y1526700D01*
X4358986Y2927727D02*
X4308186Y3029327D01*
X4409786D01*
X4358986Y2927727D01*
X4410000Y2679200D02*
X4359200Y2780800D01*
X4460800D01*
X4410000Y2679200D01*
X4318001Y2799600D02*
X4267201Y2901200D01*
X4368801D01*
X4318001Y2799600D01*
X3515000Y2869200D02*
X3464200Y2970800D01*
X3565800D01*
X3515000Y2869200D01*
X3470000Y2664200D02*
X3419200Y2765800D01*
X3520800D01*
X3470000Y2664200D01*
X4005000Y1066700D02*
X3954200Y1168300D01*
X4055800D01*
X4005000Y1066700D01*
X3385000Y2289200D02*
X3334200Y2390800D01*
X3435800D01*
X3385000Y2289200D01*
X3750000Y299200D02*
X3699200Y400800D01*
X3800800D01*
X3750000Y299200D01*
X2462500Y4354200D02*
X2411700Y4455800D01*
X2513300D01*
X2462500Y4354200D01*
X2336545Y4716431D02*
X2285745Y4818031D01*
X2387345D01*
X2336545Y4716431D01*
X2097500Y4704319D02*
X2046700Y4805919D01*
X2148300D01*
X2097500Y4704319D01*
X2069879Y4046925D02*
X2019079Y4148525D01*
X2120679D01*
X2069879Y4046925D01*
X1854809Y3793430D02*
X1804009Y3895030D01*
X1905609D01*
X1854809Y3793430D01*
X3170000Y3489200D02*
X3119200Y3590800D01*
X3220800D01*
X3170000Y3489200D01*
X2124200Y3609200D02*
X2149600D01*
X2175000Y3634600D01*
X2200400Y3609200D01*
X2225800D01*
Y3634600D01*
X2200400Y3660000D01*
X2225800Y3685400D01*
Y3710800D01*
X2200400D01*
X2175000Y3685400D01*
X2149600Y3710800D01*
X2124200D01*
Y3685400D01*
X2149600Y3660000D01*
X2124200Y3634600D01*
Y3609200D01*
X2164200Y3406624D02*
X2189600D01*
X2215000Y3432024D01*
X2240400Y3406624D01*
X2265800D01*
Y3432024D01*
X2240400Y3457424D01*
X2265800Y3482824D01*
Y3508224D01*
X2240400D01*
X2215000Y3482824D01*
X2189600Y3508224D01*
X2164200D01*
Y3482824D01*
X2189600Y3457424D01*
X2164200Y3432024D01*
Y3406624D01*
X1844600Y3205457D02*
X1793800Y3307057D01*
X1895400D01*
X1844600Y3205457D01*
X1682500Y4514200D02*
X1631700Y4615800D01*
X1733300D01*
X1682500Y4514200D01*
X1170953Y4905785D02*
X1120153Y5007385D01*
X1221753D01*
X1170953Y4905785D01*
X847500Y4621100D02*
X796700Y4722700D01*
X898300D01*
X847500Y4621100D01*
X757500Y4747300D02*
X706700Y4848900D01*
X808300D01*
X757500Y4747300D01*
X877500Y4401700D02*
X826700Y4503300D01*
X928300D01*
X877500Y4401700D01*
X227500Y4436700D02*
X176700Y4538300D01*
X278300D01*
X227500Y4436700D01*
X1270000Y3809200D02*
X1219200Y3910800D01*
X1320800D01*
X1270000Y3809200D01*
X1380000Y3759200D02*
X1329200Y3860800D01*
X1430800D01*
X1380000Y3759200D01*
X1345262Y3498570D02*
X1294462Y3600170D01*
X1396062D01*
X1345262Y3498570D01*
X1110000Y3924200D02*
X1059200Y4025800D01*
X1160800D01*
X1110000Y3924200D01*
X1080000Y3734891D02*
X1029200Y3836491D01*
X1130800D01*
X1080000Y3734891D01*
X2870000Y2799200D02*
X2819200Y2900800D01*
X2920800D01*
X2870000Y2799200D01*
X2627781Y2781418D02*
X2576981Y2883018D01*
X2678581D01*
X2627781Y2781418D01*
X2979343Y1227539D02*
X2928543Y1329139D01*
X3030143D01*
X2979343Y1227539D01*
X2944474Y1925912D02*
X2893674Y2027512D01*
X2995274D01*
X2944474Y1925912D01*
X2898937Y463271D02*
X2848137Y564871D01*
X2949737D01*
X2898937Y463271D01*
X2662366Y226700D02*
X2611566Y328300D01*
X2713166D01*
X2662366Y226700D01*
X2090000Y2869200D02*
X2039200Y2970800D01*
X2140800D01*
X2090000Y2869200D01*
X1645189Y2871973D02*
X1594389Y2973573D01*
X1695989D01*
X1645189Y2871973D01*
X1300000Y2841700D02*
X1249200Y2943300D01*
X1350800D01*
X1300000Y2841700D01*
X750000Y2789200D02*
X699200Y2890800D01*
X800800D01*
X750000Y2789200D01*
X2455800Y2101701D02*
X2405000Y2203301D01*
X2506600D01*
X2455800Y2101701D01*
X2300000Y1899200D02*
X2249200Y2000800D01*
X2350800D01*
X2300000Y1899200D01*
X2073702Y2497997D02*
X2022902Y2599597D01*
X2124502D01*
X2073702Y2497997D01*
X860554Y2540859D02*
X809754Y2642459D01*
X911354D01*
X860554Y2540859D01*
X1290141Y574340D02*
X1239341Y675940D01*
X1340941D01*
X1290141Y574340D01*
X4375295Y2161345D02*
X4324495Y2262945D01*
X4426095D01*
X4375295Y2161345D01*
X3337316Y899523D02*
X3286516Y1001123D01*
X3388116D01*
X3337316Y899523D01*
X2953999Y927129D02*
X2903199Y1028729D01*
X3004799D01*
X2953999Y927129D01*
X2625000Y849200D02*
X2574200Y950800D01*
X2675800D01*
X2625000Y849200D01*
X2684554Y645009D02*
X2633754Y746609D01*
X2735354D01*
X2684554Y645009D01*
X3062500Y569200D02*
X3011700Y670800D01*
X3113300D01*
X3062500Y569200D01*
X2633157Y3099651D02*
X2582357Y3201251D01*
X2683957D01*
X2633157Y3099651D01*
X3767500Y1341700D02*
X3716700Y1443300D01*
X3818300D01*
X3767500Y1341700D01*
X3740343Y801295D02*
X3689543Y902895D01*
X3791143D01*
X3740343Y801295D01*
X4050029Y3445028D02*
X3999229Y3546628D01*
X4100829D01*
X4050029Y3445028D01*
X4152500Y326700D02*
X4101700Y428300D01*
X4203300D01*
X4152500Y326700D01*
X2429525Y2626700D02*
X2378725Y2728300D01*
X2480325D01*
X2429525Y2626700D01*
X597929Y2356271D02*
X547129Y2457871D01*
X648729D01*
X597929Y2356271D01*
X792601Y2354261D02*
X741801Y2455861D01*
X843401D01*
X792601Y2354261D01*
X740000Y2400446D02*
X689200Y2502046D01*
X790800D01*
X740000Y2400446D01*
X698608Y3452808D02*
X647808Y3554408D01*
X749408D01*
X698608Y3452808D01*
X767500Y3594201D02*
X716700Y3695801D01*
X818300D01*
X767500Y3594201D01*
X2090000Y4281700D02*
X2039200Y4383300D01*
X2140800D01*
X2090000Y4281700D01*
X2092500Y4391700D02*
X2041700Y4493300D01*
X2143300D01*
X2092500Y4391700D01*
X5090000Y4101700D02*
X5039200Y4203300D01*
X5140800D01*
X5090000Y4101700D01*
X1385414Y3683504D02*
X1334614Y3785104D01*
X1436214D01*
X1385414Y3683504D01*
X1357500Y3274200D02*
X1306700Y3375800D01*
X1408300D01*
X1357500Y3274200D01*
X1065000Y4809200D02*
X1014200Y4910800D01*
X1115800D01*
X1065000Y4809200D01*
X4678565Y4570265D02*
X4627765Y4671865D01*
X4729365D01*
X4678565Y4570265D01*
X2930000Y3574200D02*
X2879200Y3675800D01*
X2980800D01*
X2930000Y3574200D01*
X5037500Y2676700D02*
X4986700Y2778300D01*
X5088300D01*
X5037500Y2676700D01*
X3082500Y1901700D02*
X3031700Y2003300D01*
X3133300D01*
X3082500Y1901700D01*
X3482500Y2774200D02*
X3431700Y2875800D01*
X3533300D01*
X3482500Y2774200D01*
X4972500Y4014200D02*
X4921700Y4115800D01*
X5023300D01*
X4972500Y4014200D01*
X4450000Y3651700D02*
X4399200Y3753300D01*
X4500800D01*
X4450000Y3651700D01*
X4301846Y4086539D02*
X4251046Y4188139D01*
X4352646D01*
X4301846Y4086539D01*
X2759600Y1729600D02*
Y1704200D01*
X2810400D01*
Y1729600D01*
X2835800D01*
Y1780400D01*
X2810400D01*
Y1805800D01*
X2759600D01*
Y1780400D01*
X2734200D01*
Y1729600D01*
X2759600D01*
X2659600Y1714600D02*
Y1689200D01*
X2710400D01*
Y1714600D01*
X2735800D01*
Y1765400D01*
X2710400D01*
Y1790800D01*
X2659600D01*
Y1765400D01*
X2634200D01*
Y1714600D01*
X2659600D01*
X2837500Y2474200D02*
X2786700Y2575800D01*
X2888300D01*
X2837500Y2474200D01*
X4240000Y324200D02*
X4189200Y425800D01*
X4290800D01*
X4240000Y324200D01*
X3850000Y299200D02*
X3799200Y400800D01*
X3900800D01*
X3850000Y299200D01*
X4087500Y399200D02*
X4036700Y500800D01*
X4138300D01*
X4087500Y399200D01*
X4610800Y4129200D02*
X4560000Y4230800D01*
X4661600D01*
X4610800Y4129200D01*
X4405000Y2824408D02*
X4354200Y2926008D01*
X4455800D01*
X4405000Y2824408D01*
X3807500Y3444200D02*
X3756700Y3545800D01*
X3858300D01*
X3807500Y3444200D01*
X4355000Y3039200D02*
X4304200Y3140800D01*
X4405800D01*
X4355000Y3039200D01*
X4050000Y3041700D02*
X3999200Y3143300D01*
X4100800D01*
X4050000Y3041700D01*
X4375000Y2614819D02*
X4324200Y2716419D01*
X4425800D01*
X4375000Y2614819D01*
X4360000Y2504819D02*
X4309200Y2606419D01*
X4410800D01*
X4360000Y2504819D01*
X4520000Y2174200D02*
X4469200Y2275800D01*
X4570800D01*
X4520000Y2174200D01*
X5395000Y449200D02*
X5344200Y550800D01*
X5445800D01*
X5395000Y449200D01*
X4022300Y1543952D02*
X3971500Y1645552D01*
X4073100D01*
X4022300Y1543952D01*
X2872500Y4179587D02*
X2821700Y4281187D01*
X2923300D01*
X2872500Y4179587D01*
X2637500Y3563071D02*
X2586700Y3664671D01*
X2688300D01*
X2637500Y3563071D01*
X2484159Y3837165D02*
X2433359Y3938765D01*
X2534959D01*
X2484159Y3837165D01*
X2265000Y2431700D02*
X2214200Y2533300D01*
X2315800D01*
X2265000Y2431700D01*
X2317500Y1600859D02*
X2266700Y1702459D01*
X2368300D01*
X2317500Y1600859D01*
X2200000Y549200D02*
X2149200Y650800D01*
X2250800D01*
X2200000Y549200D01*
X4945000Y3041700D02*
X4894200Y3143300D01*
X4995800D01*
X4945000Y3041700D01*
X4880000Y3489200D02*
X4829200Y3590800D01*
X4930800D01*
X4880000Y3489200D01*
X367707Y4146646D02*
X316907Y4248246D01*
X418507D01*
X367707Y4146646D01*
X562500Y4161700D02*
X511700Y4263300D01*
X613300D01*
X562500Y4161700D01*
X477500Y4174200D02*
X426700Y4275800D01*
X528300D01*
X477500Y4174200D01*
X310281Y4509481D02*
X259481Y4611081D01*
X361081D01*
X310281Y4509481D01*
X1390000Y3869200D02*
X1339200Y3970800D01*
X1440800D01*
X1390000Y3869200D01*
X1302500Y4306700D02*
X1251700Y4408300D01*
X1353300D01*
X1302500Y4306700D01*
X2835000Y2324200D02*
X2784200Y2425800D01*
X2885800D01*
X2835000Y2324200D01*
X1682500Y3584200D02*
X1631700Y3685800D01*
X1733300D01*
X1682500Y3584200D01*
X1765000Y3291700D02*
X1714200Y3393300D01*
X1815800D01*
X1765000Y3291700D01*
X3907500Y3341700D02*
X3856700Y3443300D01*
X3958300D01*
X3907500Y3341700D01*
X3492500Y3141700D02*
X3441700Y3243300D01*
X3543300D01*
X3492500Y3141700D01*
X752500Y3339200D02*
X701700Y3440800D01*
X803300D01*
X752500Y3339200D01*
X1387500Y2784200D02*
X1336700Y2885800D01*
X1438300D01*
X1387500Y2784200D01*
X3241882Y1274200D02*
X3191082Y1375800D01*
X3292682D01*
X3241882Y1274200D01*
X2620000Y1256700D02*
X2569200Y1358300D01*
X2670800D01*
X2620000Y1256700D01*
X956066Y2305266D02*
X905266Y2406866D01*
X1006866D01*
X956066Y2305266D01*
X1163003Y3374395D02*
X1112203Y3475995D01*
X1213803D01*
X1163003Y3374395D01*
X722500Y2869201D02*
X671700Y2970801D01*
X773300D01*
X722500Y2869201D01*
X1191952Y3497847D02*
X1141152Y3599447D01*
X1242752D01*
X1191952Y3497847D01*
X855663Y2859368D02*
X804862Y2960968D01*
X906462D01*
X855663Y2859368D01*
X2351934Y2979723D02*
X2301134Y3081323D01*
X2402734D01*
X2351934Y2979723D01*
X1802500Y2856700D02*
X1751700Y2958300D01*
X1853300D01*
X1802500Y2856700D01*
X3565000Y3996700D02*
X3514200Y4098300D01*
X3615800D01*
X3565000Y3996700D01*
X2728467Y3627667D02*
X2677667Y3729267D01*
X2779267D01*
X2728467Y3627667D01*
X3939600Y4667100D02*
Y4641700D01*
X3990400D01*
Y4667100D01*
X4015800D01*
Y4717900D01*
X3990400D01*
Y4743300D01*
X3939600D01*
Y4717900D01*
X3914200D01*
Y4667100D01*
X3939600D01*
X2000000Y4159200D02*
X1949200Y4260800D01*
X2050800D01*
X2000000Y4159200D01*
X907800Y4061051D02*
X857000Y4162651D01*
X958600D01*
X907800Y4061051D01*
X1530000Y4808200D02*
X1479200Y4909800D01*
X1580800D01*
X1530000Y4808200D01*
X1770000Y4549200D02*
X1719200Y4650800D01*
X1820800D01*
X1770000Y4549200D01*
X2260000Y4507228D02*
X2209200Y4608828D01*
X2310800D01*
X2260000Y4507228D01*
X2290000Y4616752D02*
X2239200Y4718352D01*
X2340800D01*
X2290000Y4616752D01*
X1157297Y4837130D02*
X1106497Y4938730D01*
X1208097D01*
X1157297Y4837130D01*
X2342500Y4111700D02*
X2291700Y4213300D01*
X2393300D01*
X2342500Y4111700D01*
X2367500Y4369200D02*
X2316700Y4470800D01*
X2418300D01*
X2367500Y4369200D01*
X1080145Y3576500D02*
X1029345Y3678100D01*
X1130945D01*
X1080145Y3576500D01*
X870000Y2351700D02*
X819200Y2453300D01*
X920800D01*
X870000Y2351700D01*
X2510291Y4592349D02*
X2459491Y4693949D01*
X2561091D01*
X2510291Y4592349D01*
X2626049Y4599200D02*
X2575249Y4700800D01*
X2676849D01*
X2626049Y4599200D01*
X5162175Y2902025D02*
X5111375Y3003625D01*
X5212975D01*
X5162175Y2902025D01*
X5186003Y3152296D02*
X5135203Y3253896D01*
X5236803D01*
X5186003Y3152296D01*
X5186618Y2678236D02*
X5135818Y2779836D01*
X5237418D01*
X5186618Y2678236D01*
X3417500Y2581700D02*
X3366700Y2683300D01*
X3468300D01*
X3417500Y2581700D01*
X3952500Y2596700D02*
X3901700Y2698300D01*
X4003300D01*
X3952500Y2596700D01*
X4652500Y2809200D02*
X4601700Y2910800D01*
X4703300D01*
X4652500Y2809200D01*
X4700000Y1999200D02*
X4649200Y2100800D01*
X4750800D01*
X4700000Y1999200D01*
X5220000Y2016700D02*
X5169200Y2118300D01*
X5270800D01*
X5220000Y2016700D01*
X5062500Y2409200D02*
X5011700Y2510800D01*
X5113300D01*
X5062500Y2409200D01*
X3415004Y3956704D02*
X3364204Y4058304D01*
X3465804D01*
X3415004Y3956704D01*
X1500000Y2186700D02*
X1449200Y2288300D01*
X1550800D01*
X1500000Y2186700D01*
X3400000Y2854200D02*
X3349200Y2955800D01*
X3450800D01*
X3400000Y2854200D01*
X3602500Y3149200D02*
X3551700Y3250800D01*
X3653300D01*
X3602500Y3149200D01*
X3865000Y4109200D02*
X3814200Y4210800D01*
X3915800D01*
X3865000Y4109200D01*
X900000Y2149200D02*
X849200Y2250800D01*
X950800D01*
X900000Y2149200D01*
X3505000Y4556700D02*
X3454200Y4658300D01*
X3555800D01*
X3505000Y4556700D01*
X3507500Y4459200D02*
X3456700Y4560800D01*
X3558300D01*
X3507500Y4459200D01*
X2397500Y1648610D02*
X2346700Y1750210D01*
X2448300D01*
X2397500Y1648610D01*
X5442165Y322035D02*
X5391365Y423635D01*
X5492965D01*
X5442165Y322035D01*
X1390000Y1045300D02*
X1339200Y1146900D01*
X1440800D01*
X1390000Y1045300D01*
X5160000Y1189200D02*
X5109200Y1290800D01*
X5210800D01*
X5160000Y1189200D01*
X990306Y4660782D02*
X939506Y4762382D01*
X1041106D01*
X990306Y4660782D01*
X717500Y3904200D02*
X666700Y4005800D01*
X768300D01*
X717500Y3904200D01*
D103*
X400800Y5250000D02*
G03*
X400800Y5250000I-50800J0D01*
G01*
X6200800D02*
G03*
X6200800Y5250000I-50800J0D01*
G01*
Y350000D02*
G03*
X6200800Y350000I-50800J0D01*
G01*
X400800D02*
G03*
X400800Y350000I-50800J0D01*
G01*
%TF.MD5,72b86b2b80de9c5ff64b5b89030f63bd*%
M02*
