%TF.GenerationSoftware,Altium Limited,Altium Designer,26.6.0 (10)*%
G04 Layer_Color=32768*
G04 Board_Origin=29350000|14702756*
%FSLAX45Y45*%
%MOMM*%
%TF.SameCoordinates,FF19D583-8477-4E59-B826-EB9FC0F50DB0*%
%TF.FilePolarity,Positive*%
%TF.FileFunction,Other,Bottom_3D_Body*%
%TF.Part,Single*%
G01*
G75*
%TA.AperFunction,NonConductor*%
%ADD56C,0.20000*%
D56*
X664500Y5537000D02*
X5829500D01*
Y5009000D02*
Y5537000D01*
X664500Y5009000D02*
X5829500D01*
X664500D02*
Y5537000D01*
X990000Y4375000D02*
Y4525000D01*
X760000Y4375000D02*
X990000D01*
X760000D02*
Y4525000D01*
X990000D01*
X947500Y3862500D02*
Y4037500D01*
Y3862500D02*
X1252500D01*
Y4037500D01*
X947500D02*
X1252500D01*
X5865000Y4525000D02*
Y4675000D01*
X5635000Y4525000D02*
X5865000D01*
X5635000D02*
Y4675000D01*
X5865000D01*
X5790000Y3700000D02*
Y3850000D01*
X5560000Y3700000D02*
X5790000D01*
X5560000D02*
Y3850000D01*
X5790000D01*
X5560000Y3000000D02*
X5790000D01*
X5560000Y2850000D02*
Y3000000D01*
Y2850000D02*
X5790000D01*
Y3000000D01*
Y2025000D02*
Y2175000D01*
X5560000Y2025000D02*
X5790000D01*
X5560000D02*
Y2175000D01*
X5790000D01*
Y1200000D02*
Y1350000D01*
X5560000Y1200000D02*
X5790000D01*
X5560000D02*
Y1350000D01*
X5790000D01*
X3862500Y4627500D02*
X4092500D01*
X3862500Y4477500D02*
Y4627500D01*
Y4477500D02*
X4092500D01*
Y4627500D01*
X4115000Y3675000D02*
Y3825000D01*
X3885000Y3675000D02*
X4115000D01*
X3885000D02*
Y3825000D01*
X4115000D01*
X4140000Y2825000D02*
Y2975000D01*
X3910000Y2825000D02*
X4140000D01*
X3910000D02*
Y2975000D01*
X4140000D01*
X3700000Y2000000D02*
Y2150000D01*
X3470000Y2000000D02*
X3700000D01*
X3470000D02*
Y2150000D01*
X3700000D01*
X3690000Y1150000D02*
Y1300000D01*
X3460000Y1150000D02*
X3690000D01*
X3460000D02*
Y1300000D01*
X3690000D01*
X2390000Y4525000D02*
Y4675000D01*
X2160000Y4525000D02*
X2390000D01*
X2160000D02*
Y4675000D01*
X2390000D01*
X2415000Y3700000D02*
Y3850000D01*
X2185000Y3700000D02*
X2415000D01*
X2185000D02*
Y3850000D01*
X2415000D01*
X2440000Y2850000D02*
Y3000000D01*
X2210000Y2850000D02*
X2440000D01*
X2210000D02*
Y3000000D01*
X2440000D01*
X2095000Y1995000D02*
Y2145000D01*
X1865000Y1995000D02*
X2095000D01*
X1865000D02*
Y2145000D01*
X2095000D01*
X2090000Y1125000D02*
Y1275000D01*
X1860000Y1125000D02*
X2090000D01*
X1860000D02*
Y1275000D01*
X2090000D01*
X6097500Y1032500D02*
X6402500D01*
Y857500D02*
Y1032500D01*
X6097500Y857500D02*
X6402500D01*
X6097500D02*
Y1032500D01*
X4397500Y4112500D02*
Y4287500D01*
Y4112500D02*
X4702500D01*
Y4287500D01*
X4397500D02*
X4702500D01*
X6072500D02*
X6377500D01*
Y4112500D02*
Y4287500D01*
X6072500Y4112500D02*
X6377500D01*
X6072500D02*
Y4287500D01*
Y3262500D02*
Y3437500D01*
Y3262500D02*
X6377500D01*
Y3437500D01*
X6072500D02*
X6377500D01*
X6077500Y2617500D02*
X6382500D01*
Y2442500D02*
Y2617500D01*
X6077500Y2442500D02*
X6382500D01*
X6077500D02*
Y2617500D01*
X6100167Y1776557D02*
X6405167D01*
Y1601557D02*
Y1776557D01*
X6100167Y1601557D02*
X6405167D01*
X6100167D02*
Y1776557D01*
X4397500Y3462500D02*
X4702500D01*
Y3287500D02*
Y3462500D01*
X4397500Y3287500D02*
X4702500D01*
X4397500D02*
Y3462500D01*
X4392500Y2417500D02*
Y2592500D01*
Y2417500D02*
X4697500D01*
Y2592500D01*
X4392500D02*
X4697500D01*
X3972500Y1557500D02*
Y1732500D01*
Y1557500D02*
X4277500D01*
Y1732500D01*
X3972500D02*
X4277500D01*
X3972500Y887500D02*
X4277500D01*
Y712500D02*
Y887500D01*
X3972500Y712500D02*
X4277500D01*
X3972500D02*
Y887500D01*
X2672500Y4107500D02*
Y4282500D01*
Y4107500D02*
X2977500D01*
Y4282500D01*
X2672500D02*
X2977500D01*
X2672500Y3287500D02*
Y3462500D01*
Y3287500D02*
X2977500D01*
Y3462500D01*
X2672500D02*
X2977500D01*
X2672500Y2432500D02*
Y2607500D01*
Y2432500D02*
X2977500D01*
Y2607500D01*
X2672500D02*
X2977500D01*
X2292500Y1757500D02*
X2597500D01*
Y1582500D02*
Y1757500D01*
X2292500Y1582500D02*
X2597500D01*
X2292500D02*
Y1757500D01*
X2272500Y907500D02*
X2577500D01*
Y732500D02*
Y907500D01*
X2272500Y732500D02*
X2577500D01*
X2272500D02*
Y907500D01*
%TF.MD5,7a7c670029d57c4134cfff0d1e499fe1*%
M02*
