%TF.GenerationSoftware,Altium Limited,Altium Designer,26.6.0 (10)*%
G04 Layer_Color=32896*
G04 Board_Origin=29350000|14702756*
%FSLAX45Y45*%
%MOMM*%
%TF.SameCoordinates,FF19D583-8477-4E59-B826-EB9FC0F50DB0*%
%TF.FilePolarity,Positive*%
%TF.FileFunction,Other,Top_Designator*%
%TF.Part,Single*%
G01*
G75*
G36*
X4172700Y4222459D02*
X4142744D01*
X4142799Y4222404D01*
X4143021Y4222127D01*
X4143353Y4221795D01*
X4143741Y4221241D01*
X4144239Y4220632D01*
X4144793Y4219857D01*
X4145402Y4218971D01*
X4146011Y4217974D01*
Y4217919D01*
X4146066Y4217864D01*
X4146288Y4217531D01*
X4146564Y4216978D01*
X4146897Y4216313D01*
X4147284Y4215538D01*
X4147672Y4214707D01*
X4148060Y4213877D01*
X4148392Y4213046D01*
X4143851D01*
Y4213102D01*
X4143741Y4213212D01*
X4143685Y4213434D01*
X4143519Y4213711D01*
X4143353Y4214043D01*
X4143131Y4214430D01*
X4142578Y4215372D01*
X4141969Y4216479D01*
X4141193Y4217587D01*
X4140307Y4218749D01*
X4139366Y4219912D01*
X4139311Y4219968D01*
X4139255Y4220023D01*
X4139089Y4220189D01*
X4138923Y4220411D01*
X4138369Y4220909D01*
X4137705Y4221573D01*
X4136930Y4222238D01*
X4136044Y4222958D01*
X4135158Y4223567D01*
X4134217Y4224121D01*
Y4227166D01*
X4172700D01*
Y4222459D01*
D02*
G37*
G36*
X4162235Y4204740D02*
X4162678Y4204685D01*
X4163176Y4204574D01*
X4163730Y4204464D01*
X4164339Y4204353D01*
X4165668Y4203910D01*
X4166388Y4203578D01*
X4167052Y4203245D01*
X4167772Y4202802D01*
X4168492Y4202304D01*
X4169212Y4201750D01*
X4169876Y4201086D01*
X4169931Y4201030D01*
X4170042Y4200920D01*
X4170208Y4200698D01*
X4170430Y4200421D01*
X4170707Y4200089D01*
X4170984Y4199646D01*
X4171316Y4199148D01*
X4171593Y4198539D01*
X4171925Y4197930D01*
X4172257Y4197210D01*
X4172534Y4196490D01*
X4172811Y4195659D01*
X4173032Y4194773D01*
X4173198Y4193832D01*
X4173309Y4192891D01*
X4173365Y4191839D01*
Y4191340D01*
X4173309Y4191008D01*
X4173254Y4190565D01*
X4173198Y4190067D01*
X4173088Y4189513D01*
X4172977Y4188904D01*
X4172645Y4187575D01*
X4172091Y4186191D01*
X4171759Y4185471D01*
X4171371Y4184806D01*
X4170873Y4184142D01*
X4170374Y4183478D01*
X4170319Y4183422D01*
X4170208Y4183311D01*
X4170042Y4183145D01*
X4169821Y4182979D01*
X4169544Y4182702D01*
X4169156Y4182425D01*
X4168769Y4182093D01*
X4168270Y4181761D01*
X4167717Y4181429D01*
X4167163Y4181097D01*
X4165834Y4180487D01*
X4164284Y4179989D01*
X4163453Y4179823D01*
X4162567Y4179712D01*
X4161958Y4184419D01*
X4162013D01*
X4162124Y4184474D01*
X4162345Y4184530D01*
X4162622Y4184585D01*
X4162955Y4184640D01*
X4163342Y4184751D01*
X4164173Y4185028D01*
X4165169Y4185416D01*
X4166111Y4185914D01*
X4166997Y4186468D01*
X4167772Y4187132D01*
X4167827Y4187243D01*
X4168049Y4187464D01*
X4168326Y4187907D01*
X4168603Y4188461D01*
X4168935Y4189125D01*
X4169212Y4189956D01*
X4169433Y4190897D01*
X4169488Y4191894D01*
Y4192226D01*
X4169433Y4192448D01*
X4169378Y4193057D01*
X4169212Y4193832D01*
X4168935Y4194718D01*
X4168547Y4195659D01*
X4167993Y4196601D01*
X4167218Y4197487D01*
X4167107Y4197597D01*
X4166775Y4197874D01*
X4166277Y4198206D01*
X4165612Y4198649D01*
X4164782Y4199092D01*
X4163841Y4199425D01*
X4162733Y4199702D01*
X4161515Y4199812D01*
X4161460D01*
X4161349D01*
X4161183D01*
X4160961Y4199757D01*
X4160352Y4199702D01*
X4159632Y4199535D01*
X4158746Y4199314D01*
X4157860Y4198926D01*
X4156974Y4198373D01*
X4156144Y4197653D01*
X4156033Y4197542D01*
X4155812Y4197265D01*
X4155479Y4196822D01*
X4155092Y4196213D01*
X4154704Y4195438D01*
X4154372Y4194497D01*
X4154150Y4193444D01*
X4154040Y4192282D01*
Y4191783D01*
X4154095Y4191396D01*
X4154150Y4190897D01*
X4154261Y4190344D01*
X4154372Y4189679D01*
X4154538Y4188959D01*
X4150385Y4189513D01*
Y4189790D01*
X4150441Y4190011D01*
Y4190731D01*
X4150330Y4191340D01*
X4150219Y4192060D01*
X4150053Y4192891D01*
X4149776Y4193832D01*
X4149388Y4194718D01*
X4148890Y4195659D01*
Y4195715D01*
X4148835Y4195770D01*
X4148613Y4196047D01*
X4148226Y4196435D01*
X4147727Y4196878D01*
X4147007Y4197321D01*
X4146177Y4197708D01*
X4145236Y4197985D01*
X4144682Y4198096D01*
X4144073D01*
X4144017D01*
X4143962D01*
X4143630D01*
X4143187Y4197985D01*
X4142578Y4197874D01*
X4141913Y4197653D01*
X4141193Y4197376D01*
X4140474Y4196933D01*
X4139809Y4196324D01*
X4139754Y4196268D01*
X4139532Y4195992D01*
X4139255Y4195604D01*
X4138923Y4195106D01*
X4138646Y4194441D01*
X4138369Y4193666D01*
X4138148Y4192780D01*
X4138093Y4191783D01*
Y4191340D01*
X4138203Y4190842D01*
X4138314Y4190178D01*
X4138536Y4189458D01*
X4138812Y4188738D01*
X4139255Y4187963D01*
X4139809Y4187243D01*
X4139864Y4187187D01*
X4140141Y4186966D01*
X4140529Y4186634D01*
X4141083Y4186246D01*
X4141802Y4185859D01*
X4142688Y4185471D01*
X4143741Y4185139D01*
X4144959Y4184917D01*
X4144128Y4180211D01*
X4144073D01*
X4143907Y4180266D01*
X4143685Y4180321D01*
X4143353Y4180377D01*
X4142965Y4180487D01*
X4142522Y4180654D01*
X4141470Y4180986D01*
X4140252Y4181540D01*
X4139034Y4182204D01*
X4137871Y4183035D01*
X4136819Y4184087D01*
X4136764Y4184142D01*
X4136708Y4184253D01*
X4136598Y4184419D01*
X4136431Y4184640D01*
X4136210Y4184917D01*
X4135988Y4185305D01*
X4135767Y4185692D01*
X4135490Y4186191D01*
X4135047Y4187298D01*
X4134604Y4188572D01*
X4134327Y4190067D01*
X4134217Y4190842D01*
Y4192226D01*
X4134272Y4192835D01*
X4134383Y4193555D01*
X4134549Y4194441D01*
X4134826Y4195438D01*
X4135158Y4196435D01*
X4135601Y4197431D01*
Y4197487D01*
X4135656Y4197542D01*
X4135822Y4197874D01*
X4136155Y4198373D01*
X4136542Y4198926D01*
X4137096Y4199591D01*
X4137705Y4200255D01*
X4138425Y4200920D01*
X4139255Y4201473D01*
X4139366Y4201529D01*
X4139643Y4201695D01*
X4140141Y4201916D01*
X4140750Y4202193D01*
X4141470Y4202470D01*
X4142301Y4202692D01*
X4143242Y4202858D01*
X4144183Y4202913D01*
X4144294D01*
X4144626D01*
X4145069Y4202858D01*
X4145679Y4202747D01*
X4146398Y4202581D01*
X4147174Y4202304D01*
X4147949Y4201972D01*
X4148724Y4201529D01*
X4148835Y4201473D01*
X4149056Y4201307D01*
X4149444Y4200975D01*
X4149887Y4200532D01*
X4150385Y4199978D01*
X4150939Y4199314D01*
X4151437Y4198539D01*
X4151936Y4197597D01*
Y4197653D01*
X4151991Y4197764D01*
X4152046Y4197930D01*
X4152102Y4198151D01*
X4152323Y4198760D01*
X4152655Y4199535D01*
X4153098Y4200421D01*
X4153652Y4201307D01*
X4154372Y4202138D01*
X4155203Y4202913D01*
X4155313Y4202968D01*
X4155645Y4203190D01*
X4156199Y4203522D01*
X4156919Y4203854D01*
X4157805Y4204187D01*
X4158857Y4204519D01*
X4160075Y4204740D01*
X4161404Y4204796D01*
X4161460D01*
X4161626D01*
X4161903D01*
X4162235Y4204740D01*
D02*
G37*
G36*
X4172700Y4170354D02*
X4164726Y4165316D01*
X4164671D01*
X4164560Y4165205D01*
X4164394Y4165094D01*
X4164173Y4164928D01*
X4163564Y4164540D01*
X4162788Y4164042D01*
X4161958Y4163433D01*
X4161072Y4162824D01*
X4160241Y4162215D01*
X4159466Y4161661D01*
X4159411Y4161606D01*
X4159189Y4161439D01*
X4158857Y4161163D01*
X4158469Y4160775D01*
X4157639Y4159944D01*
X4157251Y4159501D01*
X4156919Y4159058D01*
X4156864Y4159003D01*
X4156808Y4158892D01*
X4156698Y4158671D01*
X4156531Y4158339D01*
X4156365Y4158006D01*
X4156199Y4157619D01*
X4155922Y4156733D01*
Y4156677D01*
X4155867Y4156567D01*
Y4156345D01*
X4155812Y4156068D01*
X4155756Y4155681D01*
Y4155238D01*
X4155701Y4154629D01*
Y4148095D01*
X4172700D01*
Y4143001D01*
X4134383D01*
Y4160775D01*
X4134438Y4161218D01*
Y4161716D01*
X4134493Y4162879D01*
X4134659Y4164097D01*
X4134826Y4165426D01*
X4135102Y4166644D01*
X4135269Y4167254D01*
X4135435Y4167752D01*
Y4167807D01*
X4135490Y4167863D01*
X4135656Y4168195D01*
X4135878Y4168693D01*
X4136265Y4169302D01*
X4136764Y4169967D01*
X4137428Y4170687D01*
X4138203Y4171351D01*
X4139089Y4172016D01*
X4139145D01*
X4139200Y4172071D01*
X4139532Y4172292D01*
X4140086Y4172514D01*
X4140806Y4172846D01*
X4141636Y4173123D01*
X4142633Y4173400D01*
X4143685Y4173566D01*
X4144848Y4173621D01*
X4144903D01*
X4145014D01*
X4145236D01*
X4145512Y4173566D01*
X4145900D01*
X4146288Y4173511D01*
X4147229Y4173289D01*
X4148336Y4172957D01*
X4149499Y4172514D01*
X4150662Y4171849D01*
X4151216Y4171406D01*
X4151769Y4170963D01*
X4151825Y4170908D01*
X4151880Y4170853D01*
X4152046Y4170687D01*
X4152212Y4170465D01*
X4152434Y4170188D01*
X4152655Y4169856D01*
X4152932Y4169413D01*
X4153264Y4168970D01*
X4153541Y4168416D01*
X4153818Y4167807D01*
X4154150Y4167143D01*
X4154427Y4166423D01*
X4154649Y4165592D01*
X4154926Y4164762D01*
X4155092Y4163820D01*
X4155258Y4162824D01*
X4155313Y4162935D01*
X4155424Y4163156D01*
X4155645Y4163488D01*
X4155867Y4163931D01*
X4156476Y4164928D01*
X4156864Y4165426D01*
X4157196Y4165869D01*
X4157307Y4165980D01*
X4157584Y4166257D01*
X4158026Y4166700D01*
X4158580Y4167254D01*
X4159355Y4167863D01*
X4160186Y4168582D01*
X4161183Y4169302D01*
X4162290Y4170078D01*
X4172700Y4176667D01*
Y4170354D01*
D02*
G37*
G36*
X2775362Y4795652D02*
X2775307Y4795209D01*
Y4794711D01*
X2775252Y4793548D01*
X2775086Y4792330D01*
X2774920Y4791001D01*
X2774643Y4789782D01*
X2774477Y4789173D01*
X2774310Y4788675D01*
Y4788620D01*
X2774255Y4788564D01*
X2774089Y4788232D01*
X2773867Y4787734D01*
X2773480Y4787125D01*
X2772981Y4786460D01*
X2772317Y4785740D01*
X2771542Y4785076D01*
X2770656Y4784411D01*
X2770601D01*
X2770545Y4784356D01*
X2770213Y4784134D01*
X2769659Y4783913D01*
X2768939Y4783581D01*
X2768109Y4783304D01*
X2767112Y4783027D01*
X2766060Y4782861D01*
X2764897Y4782806D01*
X2764842D01*
X2764731D01*
X2764510D01*
X2764233Y4782861D01*
X2763845D01*
X2763458Y4782916D01*
X2762516Y4783138D01*
X2761409Y4783470D01*
X2760246Y4783913D01*
X2759083Y4784577D01*
X2758529Y4785020D01*
X2757976Y4785463D01*
X2757920Y4785519D01*
X2757865Y4785574D01*
X2757699Y4785740D01*
X2757533Y4785962D01*
X2757311Y4786239D01*
X2757090Y4786571D01*
X2756813Y4787014D01*
X2756481Y4787457D01*
X2756204Y4788010D01*
X2755927Y4788620D01*
X2755595Y4789284D01*
X2755318Y4790004D01*
X2755096Y4790834D01*
X2754819Y4791665D01*
X2754653Y4792606D01*
X2754487Y4793603D01*
X2754432Y4793492D01*
X2754321Y4793271D01*
X2754100Y4792939D01*
X2753878Y4792496D01*
X2753269Y4791499D01*
X2752881Y4791001D01*
X2752549Y4790558D01*
X2752438Y4790447D01*
X2752162Y4790170D01*
X2751719Y4789727D01*
X2751165Y4789173D01*
X2750390Y4788564D01*
X2749559Y4787844D01*
X2748562Y4787125D01*
X2747455Y4786349D01*
X2737045Y4779760D01*
Y4786072D01*
X2745019Y4791111D01*
X2745074D01*
X2745185Y4791222D01*
X2745351Y4791333D01*
X2745572Y4791499D01*
X2746181Y4791887D01*
X2746957Y4792385D01*
X2747787Y4792994D01*
X2748673Y4793603D01*
X2749504Y4794212D01*
X2750279Y4794766D01*
X2750334Y4794821D01*
X2750556Y4794987D01*
X2750888Y4795264D01*
X2751276Y4795652D01*
X2752106Y4796482D01*
X2752494Y4796925D01*
X2752826Y4797368D01*
X2752881Y4797424D01*
X2752937Y4797534D01*
X2753048Y4797756D01*
X2753214Y4798088D01*
X2753380Y4798420D01*
X2753546Y4798808D01*
X2753823Y4799694D01*
Y4799749D01*
X2753878Y4799860D01*
Y4800082D01*
X2753934Y4800358D01*
X2753989Y4800746D01*
Y4801189D01*
X2754044Y4801798D01*
Y4808332D01*
X2737045D01*
Y4813426D01*
X2775362D01*
Y4795652D01*
D02*
G37*
G36*
X2738097Y4777379D02*
X2738595Y4777324D01*
X2739149Y4777213D01*
X2739703Y4777102D01*
X2740312Y4776881D01*
X2740367D01*
X2740423Y4776825D01*
X2740755Y4776715D01*
X2741253Y4776493D01*
X2741918Y4776161D01*
X2742693Y4775718D01*
X2743579Y4775164D01*
X2744465Y4774555D01*
X2745406Y4773780D01*
X2745462D01*
X2745517Y4773669D01*
X2745849Y4773392D01*
X2746348Y4772894D01*
X2747067Y4772174D01*
X2747898Y4771344D01*
X2748895Y4770291D01*
X2750002Y4769018D01*
X2751165Y4767634D01*
X2751220Y4767578D01*
X2751386Y4767357D01*
X2751663Y4767025D01*
X2751996Y4766637D01*
X2752438Y4766139D01*
X2752937Y4765529D01*
X2753491Y4764920D01*
X2754100Y4764201D01*
X2755429Y4762816D01*
X2756758Y4761432D01*
X2757422Y4760767D01*
X2758086Y4760158D01*
X2758696Y4759605D01*
X2759305Y4759162D01*
X2759360D01*
X2759415Y4759051D01*
X2759581Y4758940D01*
X2759803Y4758829D01*
X2760412Y4758442D01*
X2761132Y4757999D01*
X2762018Y4757611D01*
X2762959Y4757224D01*
X2764011Y4757002D01*
X2765008Y4756891D01*
X2765063D01*
X2765119D01*
X2765451Y4756947D01*
X2766005Y4757002D01*
X2766614Y4757168D01*
X2767389Y4757390D01*
X2768164Y4757777D01*
X2768939Y4758276D01*
X2769715Y4758940D01*
X2769825Y4759051D01*
X2770047Y4759328D01*
X2770324Y4759715D01*
X2770711Y4760324D01*
X2771043Y4761100D01*
X2771376Y4761986D01*
X2771597Y4763038D01*
X2771653Y4764201D01*
Y4764533D01*
X2771597Y4764754D01*
X2771542Y4765419D01*
X2771376Y4766194D01*
X2771154Y4767025D01*
X2770767Y4767966D01*
X2770268Y4768852D01*
X2769604Y4769682D01*
X2769493Y4769793D01*
X2769216Y4770015D01*
X2768773Y4770347D01*
X2768109Y4770679D01*
X2767334Y4771067D01*
X2766337Y4771399D01*
X2765229Y4771620D01*
X2763956Y4771731D01*
X2764454Y4776548D01*
X2764510D01*
X2764676Y4776493D01*
X2764953D01*
X2765340Y4776438D01*
X2765783Y4776327D01*
X2766281Y4776216D01*
X2766891Y4776050D01*
X2767500Y4775884D01*
X2768829Y4775441D01*
X2770158Y4774777D01*
X2770822Y4774389D01*
X2771486Y4773891D01*
X2772096Y4773392D01*
X2772649Y4772839D01*
X2772705Y4772783D01*
X2772760Y4772672D01*
X2772926Y4772506D01*
X2773092Y4772229D01*
X2773314Y4771897D01*
X2773535Y4771510D01*
X2773812Y4771067D01*
X2774089Y4770513D01*
X2774366Y4769904D01*
X2774643Y4769239D01*
X2774864Y4768520D01*
X2775086Y4767744D01*
X2775252Y4766914D01*
X2775418Y4766028D01*
X2775473Y4765086D01*
X2775529Y4764090D01*
Y4763536D01*
X2775473Y4763148D01*
X2775418Y4762705D01*
X2775362Y4762152D01*
X2775252Y4761543D01*
X2775141Y4760934D01*
X2774753Y4759494D01*
X2774200Y4758054D01*
X2773867Y4757334D01*
X2773480Y4756615D01*
X2772981Y4755950D01*
X2772428Y4755341D01*
X2772372Y4755286D01*
X2772317Y4755175D01*
X2772096Y4755064D01*
X2771874Y4754843D01*
X2771597Y4754566D01*
X2771210Y4754289D01*
X2770822Y4754012D01*
X2770324Y4753680D01*
X2769272Y4753126D01*
X2767943Y4752572D01*
X2767278Y4752351D01*
X2766503Y4752240D01*
X2765728Y4752129D01*
X2764897Y4752074D01*
X2764786D01*
X2764510D01*
X2764067Y4752129D01*
X2763458Y4752185D01*
X2762793Y4752296D01*
X2762018Y4752517D01*
X2761187Y4752739D01*
X2760357Y4753071D01*
X2760246Y4753126D01*
X2759969Y4753237D01*
X2759526Y4753458D01*
X2758917Y4753791D01*
X2758253Y4754234D01*
X2757422Y4754787D01*
X2756591Y4755452D01*
X2755650Y4756227D01*
X2755539Y4756338D01*
X2755207Y4756615D01*
X2754930Y4756891D01*
X2754653Y4757168D01*
X2754321Y4757501D01*
X2753878Y4757943D01*
X2753435Y4758386D01*
X2752937Y4758940D01*
X2752383Y4759494D01*
X2751774Y4760158D01*
X2751165Y4760878D01*
X2750445Y4761653D01*
X2749725Y4762539D01*
X2748950Y4763425D01*
X2748895Y4763481D01*
X2748784Y4763591D01*
X2748618Y4763813D01*
X2748396Y4764090D01*
X2748064Y4764422D01*
X2747732Y4764810D01*
X2747012Y4765696D01*
X2746181Y4766637D01*
X2745351Y4767523D01*
X2744631Y4768298D01*
X2744354Y4768630D01*
X2744077Y4768907D01*
X2744022Y4768963D01*
X2743856Y4769129D01*
X2743634Y4769350D01*
X2743302Y4769627D01*
X2742915Y4769904D01*
X2742527Y4770236D01*
X2741586Y4770901D01*
Y4752019D01*
X2737045D01*
Y4777434D01*
X2737100D01*
X2737322D01*
X2737654D01*
X2738097Y4777379D01*
D02*
G37*
G36*
X2765894Y4743325D02*
X2766005Y4743215D01*
X2766060Y4742993D01*
X2766226Y4742716D01*
X2766392Y4742384D01*
X2766614Y4741996D01*
X2767167Y4741055D01*
X2767777Y4739948D01*
X2768552Y4738840D01*
X2769438Y4737677D01*
X2770379Y4736515D01*
X2770434Y4736459D01*
X2770490Y4736404D01*
X2770656Y4736238D01*
X2770822Y4736016D01*
X2771376Y4735518D01*
X2772040Y4734853D01*
X2772815Y4734189D01*
X2773701Y4733469D01*
X2774587Y4732860D01*
X2775529Y4732306D01*
Y4729261D01*
X2737045D01*
Y4733967D01*
X2767001D01*
X2766946Y4734023D01*
X2766724Y4734300D01*
X2766392Y4734632D01*
X2766005Y4735186D01*
X2765506Y4735795D01*
X2764953Y4736570D01*
X2764343Y4737456D01*
X2763734Y4738453D01*
Y4738508D01*
X2763679Y4738563D01*
X2763458Y4738896D01*
X2763181Y4739449D01*
X2762848Y4740114D01*
X2762461Y4740889D01*
X2762073Y4741719D01*
X2761686Y4742550D01*
X2761353Y4743381D01*
X2765894D01*
Y4743325D01*
D02*
G37*
G36*
X2755617Y4039225D02*
X2755562Y4038782D01*
Y4038284D01*
X2755507Y4037121D01*
X2755340Y4035903D01*
X2755174Y4034574D01*
X2754897Y4033356D01*
X2754731Y4032747D01*
X2754565Y4032248D01*
Y4032193D01*
X2754510Y4032137D01*
X2754344Y4031805D01*
X2754122Y4031307D01*
X2753735Y4030698D01*
X2753236Y4030033D01*
X2752572Y4029314D01*
X2751797Y4028649D01*
X2750911Y4027985D01*
X2750855D01*
X2750800Y4027929D01*
X2750468Y4027708D01*
X2749914Y4027486D01*
X2749194Y4027154D01*
X2748364Y4026877D01*
X2747367Y4026600D01*
X2746315Y4026434D01*
X2745152Y4026379D01*
X2745097D01*
X2744986D01*
X2744764D01*
X2744488Y4026434D01*
X2744100D01*
X2743712Y4026490D01*
X2742771Y4026711D01*
X2741664Y4027043D01*
X2740501Y4027486D01*
X2739338Y4028151D01*
X2738784Y4028594D01*
X2738230Y4029037D01*
X2738175Y4029092D01*
X2738120Y4029147D01*
X2737954Y4029314D01*
X2737788Y4029535D01*
X2737566Y4029812D01*
X2737345Y4030144D01*
X2737068Y4030587D01*
X2736735Y4031030D01*
X2736459Y4031584D01*
X2736182Y4032193D01*
X2735849Y4032857D01*
X2735573Y4033577D01*
X2735351Y4034408D01*
X2735074Y4035238D01*
X2734908Y4036180D01*
X2734742Y4037176D01*
X2734687Y4037066D01*
X2734576Y4036844D01*
X2734354Y4036512D01*
X2734133Y4036069D01*
X2733524Y4035072D01*
X2733136Y4034574D01*
X2732804Y4034131D01*
X2732693Y4034020D01*
X2732416Y4033743D01*
X2731973Y4033300D01*
X2731420Y4032747D01*
X2730645Y4032137D01*
X2729814Y4031418D01*
X2728817Y4030698D01*
X2727710Y4029923D01*
X2717300Y4023333D01*
Y4029646D01*
X2725273Y4034685D01*
X2725329D01*
X2725440Y4034795D01*
X2725606Y4034906D01*
X2725827Y4035072D01*
X2726436Y4035460D01*
X2727211Y4035958D01*
X2728042Y4036567D01*
X2728928Y4037176D01*
X2729759Y4037785D01*
X2730534Y4038339D01*
X2730589Y4038395D01*
X2730811Y4038561D01*
X2731143Y4038837D01*
X2731530Y4039225D01*
X2732361Y4040056D01*
X2732749Y4040499D01*
X2733081Y4040942D01*
X2733136Y4040997D01*
X2733192Y4041108D01*
X2733302Y4041329D01*
X2733468Y4041661D01*
X2733635Y4041994D01*
X2733801Y4042381D01*
X2734078Y4043267D01*
Y4043323D01*
X2734133Y4043433D01*
Y4043655D01*
X2734188Y4043932D01*
X2734244Y4044319D01*
Y4044762D01*
X2734299Y4045371D01*
Y4051905D01*
X2717300D01*
Y4057000D01*
X2755617D01*
Y4039225D01*
D02*
G37*
G36*
X2718352Y4020952D02*
X2718850Y4020897D01*
X2719404Y4020786D01*
X2719958Y4020675D01*
X2720567Y4020454D01*
X2720622D01*
X2720678Y4020399D01*
X2721010Y4020288D01*
X2721508Y4020066D01*
X2722173Y4019734D01*
X2722948Y4019291D01*
X2723834Y4018737D01*
X2724720Y4018128D01*
X2725661Y4017353D01*
X2725716D01*
X2725772Y4017242D01*
X2726104Y4016966D01*
X2726602Y4016467D01*
X2727322Y4015747D01*
X2728153Y4014917D01*
X2729149Y4013865D01*
X2730257Y4012591D01*
X2731420Y4011207D01*
X2731475Y4011151D01*
X2731641Y4010930D01*
X2731918Y4010598D01*
X2732250Y4010210D01*
X2732693Y4009712D01*
X2733192Y4009103D01*
X2733745Y4008494D01*
X2734354Y4007774D01*
X2735683Y4006389D01*
X2737012Y4005005D01*
X2737677Y4004341D01*
X2738341Y4003732D01*
X2738950Y4003178D01*
X2739559Y4002735D01*
X2739615D01*
X2739670Y4002624D01*
X2739836Y4002513D01*
X2740058Y4002403D01*
X2740667Y4002015D01*
X2741387Y4001572D01*
X2742273Y4001185D01*
X2743214Y4000797D01*
X2744266Y4000575D01*
X2745263Y4000465D01*
X2745318D01*
X2745373D01*
X2745706Y4000520D01*
X2746259Y4000575D01*
X2746869Y4000742D01*
X2747644Y4000963D01*
X2748419Y4001351D01*
X2749194Y4001849D01*
X2749969Y4002513D01*
X2750080Y4002624D01*
X2750302Y4002901D01*
X2750578Y4003289D01*
X2750966Y4003898D01*
X2751298Y4004673D01*
X2751631Y4005559D01*
X2751852Y4006611D01*
X2751907Y4007774D01*
Y4008106D01*
X2751852Y4008328D01*
X2751797Y4008992D01*
X2751631Y4009767D01*
X2751409Y4010598D01*
X2751021Y4011539D01*
X2750523Y4012425D01*
X2749859Y4013256D01*
X2749748Y4013366D01*
X2749471Y4013588D01*
X2749028Y4013920D01*
X2748364Y4014252D01*
X2747588Y4014640D01*
X2746592Y4014972D01*
X2745484Y4015194D01*
X2744211Y4015304D01*
X2744709Y4020122D01*
X2744764D01*
X2744931Y4020066D01*
X2745207D01*
X2745595Y4020011D01*
X2746038Y4019900D01*
X2746536Y4019790D01*
X2747145Y4019623D01*
X2747754Y4019457D01*
X2749083Y4019014D01*
X2750412Y4018350D01*
X2751077Y4017962D01*
X2751741Y4017464D01*
X2752350Y4016966D01*
X2752904Y4016412D01*
X2752959Y4016356D01*
X2753015Y4016246D01*
X2753181Y4016080D01*
X2753347Y4015803D01*
X2753569Y4015471D01*
X2753790Y4015083D01*
X2754067Y4014640D01*
X2754344Y4014086D01*
X2754621Y4013477D01*
X2754897Y4012813D01*
X2755119Y4012093D01*
X2755340Y4011318D01*
X2755507Y4010487D01*
X2755673Y4009601D01*
X2755728Y4008660D01*
X2755783Y4007663D01*
Y4007109D01*
X2755728Y4006722D01*
X2755673Y4006279D01*
X2755617Y4005725D01*
X2755507Y4005116D01*
X2755396Y4004507D01*
X2755008Y4003067D01*
X2754454Y4001628D01*
X2754122Y4000908D01*
X2753735Y4000188D01*
X2753236Y3999523D01*
X2752683Y3998914D01*
X2752627Y3998859D01*
X2752572Y3998748D01*
X2752350Y3998637D01*
X2752129Y3998416D01*
X2751852Y3998139D01*
X2751464Y3997862D01*
X2751077Y3997585D01*
X2750578Y3997253D01*
X2749526Y3996699D01*
X2748197Y3996146D01*
X2747533Y3995924D01*
X2746758Y3995813D01*
X2745983Y3995703D01*
X2745152Y3995647D01*
X2745041D01*
X2744764D01*
X2744321Y3995703D01*
X2743712Y3995758D01*
X2743048Y3995869D01*
X2742273Y3996090D01*
X2741442Y3996312D01*
X2740611Y3996644D01*
X2740501Y3996699D01*
X2740224Y3996810D01*
X2739781Y3997032D01*
X2739172Y3997364D01*
X2738507Y3997807D01*
X2737677Y3998361D01*
X2736846Y3999025D01*
X2735905Y3999800D01*
X2735794Y3999911D01*
X2735462Y4000188D01*
X2735185Y4000465D01*
X2734908Y4000742D01*
X2734576Y4001074D01*
X2734133Y4001517D01*
X2733690Y4001960D01*
X2733192Y4002513D01*
X2732638Y4003067D01*
X2732029Y4003732D01*
X2731420Y4004451D01*
X2730700Y4005227D01*
X2729980Y4006113D01*
X2729205Y4006999D01*
X2729149Y4007054D01*
X2729039Y4007165D01*
X2728873Y4007386D01*
X2728651Y4007663D01*
X2728319Y4007995D01*
X2727987Y4008383D01*
X2727267Y4009269D01*
X2726436Y4010210D01*
X2725606Y4011096D01*
X2724886Y4011871D01*
X2724609Y4012204D01*
X2724332Y4012480D01*
X2724277Y4012536D01*
X2724111Y4012702D01*
X2723889Y4012923D01*
X2723557Y4013200D01*
X2723169Y4013477D01*
X2722782Y4013809D01*
X2721840Y4014474D01*
Y3995592D01*
X2717300D01*
Y4021008D01*
X2717355D01*
X2717577D01*
X2717909D01*
X2718352Y4020952D01*
D02*
G37*
G36*
X2755617Y3974606D02*
Y3970785D01*
X2730811D01*
Y3965580D01*
X2726492D01*
Y3970785D01*
X2717300D01*
Y3975492D01*
X2726492D01*
Y3992159D01*
X2730811D01*
X2755617Y3974606D01*
D02*
G37*
G36*
X3443035Y3870634D02*
X3427697D01*
X3425648Y3860279D01*
X3425704Y3860335D01*
X3425815Y3860390D01*
X3425981Y3860501D01*
X3426258Y3860667D01*
X3426590Y3860833D01*
X3426977Y3861055D01*
X3427863Y3861497D01*
X3428971Y3861940D01*
X3430189Y3862328D01*
X3431518Y3862605D01*
X3432182Y3862716D01*
X3433401D01*
X3433733Y3862660D01*
X3434176Y3862605D01*
X3434674Y3862550D01*
X3435228Y3862439D01*
X3435837Y3862273D01*
X3437166Y3861885D01*
X3437886Y3861608D01*
X3438606Y3861221D01*
X3439325Y3860833D01*
X3440045Y3860390D01*
X3440710Y3859836D01*
X3441374Y3859227D01*
X3441429Y3859172D01*
X3441540Y3859061D01*
X3441706Y3858895D01*
X3441928Y3858618D01*
X3442205Y3858231D01*
X3442482Y3857843D01*
X3442814Y3857345D01*
X3443146Y3856791D01*
X3443423Y3856182D01*
X3443755Y3855517D01*
X3444032Y3854742D01*
X3444309Y3853967D01*
X3444530Y3853136D01*
X3444696Y3852195D01*
X3444807Y3851254D01*
X3444863Y3850257D01*
Y3850202D01*
Y3850035D01*
Y3849759D01*
X3444807Y3849371D01*
X3444752Y3848928D01*
X3444696Y3848430D01*
X3444586Y3847821D01*
X3444475Y3847212D01*
X3444143Y3845772D01*
X3443589Y3844277D01*
X3443257Y3843502D01*
X3442814Y3842782D01*
X3442371Y3842007D01*
X3441817Y3841287D01*
X3441762Y3841231D01*
X3441651Y3841065D01*
X3441429Y3840844D01*
X3441153Y3840567D01*
X3440765Y3840235D01*
X3440322Y3839792D01*
X3439768Y3839404D01*
X3439159Y3838961D01*
X3438495Y3838518D01*
X3437720Y3838130D01*
X3436889Y3837743D01*
X3436003Y3837355D01*
X3435062Y3837078D01*
X3434010Y3836857D01*
X3432902Y3836691D01*
X3431739Y3836635D01*
X3431241D01*
X3430853Y3836691D01*
X3430410Y3836746D01*
X3429912Y3836802D01*
X3429303Y3836857D01*
X3428694Y3837023D01*
X3427310Y3837355D01*
X3425925Y3837854D01*
X3425205Y3838186D01*
X3424486Y3838573D01*
X3423821Y3839016D01*
X3423157Y3839515D01*
X3423101Y3839570D01*
X3422991Y3839626D01*
X3422880Y3839847D01*
X3422658Y3840069D01*
X3422382Y3840345D01*
X3422105Y3840678D01*
X3421772Y3841121D01*
X3421496Y3841619D01*
X3421163Y3842117D01*
X3420831Y3842726D01*
X3420222Y3844055D01*
X3419724Y3845606D01*
X3419558Y3846436D01*
X3419447Y3847322D01*
X3424375Y3847710D01*
Y3847654D01*
Y3847544D01*
X3424430Y3847378D01*
X3424486Y3847101D01*
X3424652Y3846492D01*
X3424873Y3845661D01*
X3425205Y3844831D01*
X3425648Y3843889D01*
X3426202Y3843059D01*
X3426867Y3842283D01*
X3426977Y3842228D01*
X3427199Y3842007D01*
X3427642Y3841730D01*
X3428251Y3841397D01*
X3428915Y3841065D01*
X3429746Y3840788D01*
X3430687Y3840567D01*
X3431739Y3840511D01*
X3432072D01*
X3432293Y3840567D01*
X3432958Y3840622D01*
X3433733Y3840844D01*
X3434674Y3841121D01*
X3435615Y3841564D01*
X3436612Y3842228D01*
X3437055Y3842616D01*
X3437498Y3843059D01*
X3437553Y3843114D01*
X3437609Y3843169D01*
X3437720Y3843335D01*
X3437886Y3843502D01*
X3438273Y3844111D01*
X3438716Y3844886D01*
X3439104Y3845827D01*
X3439491Y3846990D01*
X3439768Y3848374D01*
X3439879Y3849094D01*
Y3849869D01*
Y3849925D01*
Y3850035D01*
Y3850257D01*
X3439824Y3850534D01*
Y3850866D01*
X3439768Y3851254D01*
X3439602Y3852140D01*
X3439325Y3853192D01*
X3438938Y3854244D01*
X3438384Y3855240D01*
X3437609Y3856182D01*
Y3856237D01*
X3437498Y3856293D01*
X3437221Y3856569D01*
X3436723Y3856957D01*
X3436058Y3857400D01*
X3435172Y3857788D01*
X3434176Y3858175D01*
X3433013Y3858452D01*
X3432348Y3858563D01*
X3431296D01*
X3430853Y3858507D01*
X3430300Y3858452D01*
X3429635Y3858286D01*
X3428971Y3858120D01*
X3428251Y3857843D01*
X3427531Y3857511D01*
X3427476Y3857455D01*
X3427254Y3857345D01*
X3426922Y3857068D01*
X3426479Y3856791D01*
X3426036Y3856403D01*
X3425593Y3855905D01*
X3425095Y3855407D01*
X3424707Y3854797D01*
X3420277Y3855407D01*
X3423987Y3875119D01*
X3443035D01*
Y3870634D01*
D02*
G37*
G36*
X3403278Y3875728D02*
X3403721Y3875673D01*
X3404275Y3875617D01*
X3404884Y3875507D01*
X3405493Y3875396D01*
X3406933Y3875008D01*
X3408372Y3874455D01*
X3409092Y3874122D01*
X3409812Y3873735D01*
X3410477Y3873236D01*
X3411086Y3872683D01*
X3411141Y3872627D01*
X3411252Y3872572D01*
X3411362Y3872350D01*
X3411584Y3872129D01*
X3411861Y3871852D01*
X3412138Y3871464D01*
X3412415Y3871077D01*
X3412747Y3870578D01*
X3413301Y3869526D01*
X3413854Y3868197D01*
X3414076Y3867533D01*
X3414186Y3866758D01*
X3414297Y3865983D01*
X3414353Y3865152D01*
Y3865041D01*
Y3864764D01*
X3414297Y3864321D01*
X3414242Y3863712D01*
X3414131Y3863048D01*
X3413910Y3862273D01*
X3413688Y3861442D01*
X3413356Y3860612D01*
X3413301Y3860501D01*
X3413190Y3860224D01*
X3412968Y3859781D01*
X3412636Y3859172D01*
X3412193Y3858507D01*
X3411639Y3857677D01*
X3410975Y3856846D01*
X3410200Y3855905D01*
X3410089Y3855794D01*
X3409812Y3855462D01*
X3409535Y3855185D01*
X3409258Y3854908D01*
X3408926Y3854576D01*
X3408483Y3854133D01*
X3408040Y3853690D01*
X3407486Y3853192D01*
X3406933Y3852638D01*
X3406268Y3852029D01*
X3405548Y3851420D01*
X3404773Y3850700D01*
X3403887Y3849980D01*
X3403001Y3849205D01*
X3402946Y3849150D01*
X3402835Y3849039D01*
X3402614Y3848873D01*
X3402337Y3848651D01*
X3402005Y3848319D01*
X3401617Y3847987D01*
X3400731Y3847267D01*
X3399790Y3846436D01*
X3398904Y3845606D01*
X3398129Y3844886D01*
X3397796Y3844609D01*
X3397519Y3844332D01*
X3397464Y3844277D01*
X3397298Y3844111D01*
X3397077Y3843889D01*
X3396800Y3843557D01*
X3396523Y3843169D01*
X3396191Y3842782D01*
X3395526Y3841840D01*
X3414408D01*
Y3837300D01*
X3388992D01*
Y3837355D01*
Y3837577D01*
Y3837909D01*
X3389048Y3838352D01*
X3389103Y3838850D01*
X3389214Y3839404D01*
X3389324Y3839958D01*
X3389546Y3840567D01*
Y3840622D01*
X3389601Y3840678D01*
X3389712Y3841010D01*
X3389934Y3841508D01*
X3390266Y3842173D01*
X3390709Y3842948D01*
X3391262Y3843834D01*
X3391872Y3844720D01*
X3392647Y3845661D01*
Y3845716D01*
X3392758Y3845772D01*
X3393034Y3846104D01*
X3393533Y3846602D01*
X3394253Y3847322D01*
X3395083Y3848153D01*
X3396135Y3849150D01*
X3397409Y3850257D01*
X3398793Y3851420D01*
X3398848Y3851475D01*
X3399070Y3851641D01*
X3399402Y3851918D01*
X3399790Y3852250D01*
X3400288Y3852693D01*
X3400897Y3853192D01*
X3401506Y3853745D01*
X3402226Y3854354D01*
X3403610Y3855683D01*
X3404995Y3857012D01*
X3405659Y3857677D01*
X3406268Y3858341D01*
X3406822Y3858950D01*
X3407265Y3859559D01*
Y3859615D01*
X3407376Y3859670D01*
X3407486Y3859836D01*
X3407597Y3860058D01*
X3407985Y3860667D01*
X3408428Y3861387D01*
X3408815Y3862273D01*
X3409203Y3863214D01*
X3409424Y3864266D01*
X3409535Y3865263D01*
Y3865318D01*
Y3865374D01*
X3409480Y3865706D01*
X3409424Y3866259D01*
X3409258Y3866869D01*
X3409037Y3867644D01*
X3408649Y3868419D01*
X3408151Y3869194D01*
X3407486Y3869969D01*
X3407376Y3870080D01*
X3407099Y3870302D01*
X3406711Y3870578D01*
X3406102Y3870966D01*
X3405327Y3871298D01*
X3404441Y3871631D01*
X3403389Y3871852D01*
X3402226Y3871907D01*
X3401894D01*
X3401672Y3871852D01*
X3401008Y3871797D01*
X3400233Y3871631D01*
X3399402Y3871409D01*
X3398461Y3871021D01*
X3397575Y3870523D01*
X3396744Y3869859D01*
X3396634Y3869748D01*
X3396412Y3869471D01*
X3396080Y3869028D01*
X3395748Y3868364D01*
X3395360Y3867588D01*
X3395028Y3866592D01*
X3394806Y3865484D01*
X3394696Y3864211D01*
X3389878Y3864709D01*
Y3864764D01*
X3389934Y3864931D01*
Y3865207D01*
X3389989Y3865595D01*
X3390100Y3866038D01*
X3390210Y3866536D01*
X3390377Y3867145D01*
X3390543Y3867755D01*
X3390986Y3869083D01*
X3391650Y3870412D01*
X3392038Y3871077D01*
X3392536Y3871741D01*
X3393034Y3872350D01*
X3393588Y3872904D01*
X3393643Y3872959D01*
X3393754Y3873015D01*
X3393920Y3873181D01*
X3394197Y3873347D01*
X3394529Y3873569D01*
X3394917Y3873790D01*
X3395360Y3874067D01*
X3395914Y3874344D01*
X3396523Y3874621D01*
X3397187Y3874898D01*
X3397907Y3875119D01*
X3398682Y3875340D01*
X3399513Y3875507D01*
X3400399Y3875673D01*
X3401340Y3875728D01*
X3402337Y3875783D01*
X3402891D01*
X3403278Y3875728D01*
D02*
G37*
G36*
X3371218Y3875562D02*
X3371716D01*
X3372879Y3875507D01*
X3374097Y3875340D01*
X3375426Y3875174D01*
X3376644Y3874898D01*
X3377253Y3874731D01*
X3377752Y3874565D01*
X3377807D01*
X3377862Y3874510D01*
X3378195Y3874344D01*
X3378693Y3874122D01*
X3379302Y3873735D01*
X3379967Y3873236D01*
X3380686Y3872572D01*
X3381351Y3871797D01*
X3382015Y3870911D01*
Y3870855D01*
X3382071Y3870800D01*
X3382292Y3870468D01*
X3382514Y3869914D01*
X3382846Y3869194D01*
X3383123Y3868364D01*
X3383400Y3867367D01*
X3383566Y3866315D01*
X3383621Y3865152D01*
Y3865097D01*
Y3864986D01*
Y3864764D01*
X3383566Y3864488D01*
Y3864100D01*
X3383510Y3863712D01*
X3383289Y3862771D01*
X3382957Y3861664D01*
X3382514Y3860501D01*
X3381849Y3859338D01*
X3381406Y3858784D01*
X3380963Y3858231D01*
X3380908Y3858175D01*
X3380853Y3858120D01*
X3380686Y3857954D01*
X3380465Y3857788D01*
X3380188Y3857566D01*
X3379856Y3857345D01*
X3379413Y3857068D01*
X3378970Y3856735D01*
X3378416Y3856459D01*
X3377807Y3856182D01*
X3377143Y3855850D01*
X3376423Y3855573D01*
X3375592Y3855351D01*
X3374762Y3855074D01*
X3373820Y3854908D01*
X3372824Y3854742D01*
X3372934Y3854687D01*
X3373156Y3854576D01*
X3373488Y3854354D01*
X3373931Y3854133D01*
X3374928Y3853524D01*
X3375426Y3853136D01*
X3375869Y3852804D01*
X3375980Y3852693D01*
X3376257Y3852416D01*
X3376700Y3851973D01*
X3377253Y3851420D01*
X3377862Y3850645D01*
X3378582Y3849814D01*
X3379302Y3848817D01*
X3380077Y3847710D01*
X3386667Y3837300D01*
X3380354D01*
X3375315Y3845273D01*
Y3845329D01*
X3375205Y3845440D01*
X3375094Y3845606D01*
X3374928Y3845827D01*
X3374540Y3846436D01*
X3374042Y3847212D01*
X3373433Y3848042D01*
X3372824Y3848928D01*
X3372214Y3849759D01*
X3371661Y3850534D01*
X3371605Y3850589D01*
X3371439Y3850811D01*
X3371162Y3851143D01*
X3370775Y3851531D01*
X3369944Y3852361D01*
X3369501Y3852749D01*
X3369058Y3853081D01*
X3369003Y3853136D01*
X3368892Y3853192D01*
X3368671Y3853302D01*
X3368338Y3853469D01*
X3368006Y3853635D01*
X3367619Y3853801D01*
X3366733Y3854078D01*
X3366677D01*
X3366567Y3854133D01*
X3366345D01*
X3366068Y3854188D01*
X3365681Y3854244D01*
X3365238D01*
X3364629Y3854299D01*
X3358095D01*
Y3837300D01*
X3353000D01*
Y3875617D01*
X3370775D01*
X3371218Y3875562D01*
D02*
G37*
G36*
X4185617Y4759225D02*
X4185562Y4758782D01*
Y4758284D01*
X4185507Y4757121D01*
X4185341Y4755903D01*
X4185175Y4754574D01*
X4184898Y4753356D01*
X4184732Y4752747D01*
X4184565Y4752248D01*
Y4752193D01*
X4184510Y4752138D01*
X4184344Y4751805D01*
X4184122Y4751307D01*
X4183735Y4750698D01*
X4183236Y4750033D01*
X4182572Y4749314D01*
X4181797Y4748649D01*
X4180911Y4747985D01*
X4180855D01*
X4180800Y4747929D01*
X4180468Y4747708D01*
X4179914Y4747486D01*
X4179194Y4747154D01*
X4178364Y4746877D01*
X4177367Y4746600D01*
X4176315Y4746434D01*
X4175152Y4746379D01*
X4175097D01*
X4174986D01*
X4174765D01*
X4174488Y4746434D01*
X4174100D01*
X4173713Y4746490D01*
X4172771Y4746711D01*
X4171664Y4747043D01*
X4170501Y4747486D01*
X4169338Y4748151D01*
X4168784Y4748594D01*
X4168231Y4749037D01*
X4168175Y4749092D01*
X4168120Y4749147D01*
X4167954Y4749314D01*
X4167788Y4749535D01*
X4167566Y4749812D01*
X4167345Y4750144D01*
X4167068Y4750587D01*
X4166736Y4751030D01*
X4166459Y4751584D01*
X4166182Y4752193D01*
X4165850Y4752857D01*
X4165573Y4753577D01*
X4165351Y4754408D01*
X4165074Y4755238D01*
X4164908Y4756180D01*
X4164742Y4757176D01*
X4164687Y4757066D01*
X4164576Y4756844D01*
X4164355Y4756512D01*
X4164133Y4756069D01*
X4163524Y4755072D01*
X4163136Y4754574D01*
X4162804Y4754131D01*
X4162693Y4754020D01*
X4162417Y4753743D01*
X4161974Y4753300D01*
X4161420Y4752747D01*
X4160645Y4752138D01*
X4159814Y4751418D01*
X4158817Y4750698D01*
X4157710Y4749923D01*
X4147300Y4743333D01*
Y4749646D01*
X4155274Y4754685D01*
X4155329D01*
X4155440Y4754795D01*
X4155606Y4754906D01*
X4155827Y4755072D01*
X4156436Y4755460D01*
X4157212Y4755958D01*
X4158042Y4756567D01*
X4158928Y4757176D01*
X4159759Y4757786D01*
X4160534Y4758339D01*
X4160589Y4758395D01*
X4160811Y4758561D01*
X4161143Y4758838D01*
X4161531Y4759225D01*
X4162361Y4760056D01*
X4162749Y4760499D01*
X4163081Y4760942D01*
X4163136Y4760997D01*
X4163192Y4761108D01*
X4163303Y4761329D01*
X4163469Y4761662D01*
X4163635Y4761994D01*
X4163801Y4762381D01*
X4164078Y4763267D01*
Y4763323D01*
X4164133Y4763433D01*
Y4763655D01*
X4164189Y4763932D01*
X4164244Y4764319D01*
Y4764762D01*
X4164299Y4765371D01*
Y4771905D01*
X4147300D01*
Y4777000D01*
X4185617D01*
Y4759225D01*
D02*
G37*
G36*
X4148352Y4740952D02*
X4148850Y4740897D01*
X4149404Y4740786D01*
X4149958Y4740676D01*
X4150567Y4740454D01*
X4150622D01*
X4150678Y4740399D01*
X4151010Y4740288D01*
X4151508Y4740066D01*
X4152173Y4739734D01*
X4152948Y4739291D01*
X4153834Y4738738D01*
X4154720Y4738128D01*
X4155661Y4737353D01*
X4155717D01*
X4155772Y4737242D01*
X4156104Y4736966D01*
X4156603Y4736467D01*
X4157322Y4735747D01*
X4158153Y4734917D01*
X4159150Y4733865D01*
X4160257Y4732591D01*
X4161420Y4731207D01*
X4161475Y4731152D01*
X4161641Y4730930D01*
X4161918Y4730598D01*
X4162251Y4730210D01*
X4162693Y4729712D01*
X4163192Y4729103D01*
X4163746Y4728494D01*
X4164355Y4727774D01*
X4165684Y4726390D01*
X4167012Y4725005D01*
X4167677Y4724341D01*
X4168341Y4723732D01*
X4168951Y4723178D01*
X4169560Y4722735D01*
X4169615D01*
X4169670Y4722624D01*
X4169836Y4722514D01*
X4170058Y4722403D01*
X4170667Y4722015D01*
X4171387Y4721572D01*
X4172273Y4721185D01*
X4173214Y4720797D01*
X4174266Y4720576D01*
X4175263Y4720465D01*
X4175318D01*
X4175374D01*
X4175706Y4720520D01*
X4176260Y4720576D01*
X4176869Y4720742D01*
X4177644Y4720963D01*
X4178419Y4721351D01*
X4179194Y4721849D01*
X4179970Y4722514D01*
X4180080Y4722624D01*
X4180302Y4722901D01*
X4180579Y4723289D01*
X4180966Y4723898D01*
X4181298Y4724673D01*
X4181631Y4725559D01*
X4181852Y4726611D01*
X4181908Y4727774D01*
Y4728106D01*
X4181852Y4728328D01*
X4181797Y4728992D01*
X4181631Y4729767D01*
X4181409Y4730598D01*
X4181022Y4731539D01*
X4180523Y4732425D01*
X4179859Y4733256D01*
X4179748Y4733366D01*
X4179471Y4733588D01*
X4179028Y4733920D01*
X4178364Y4734252D01*
X4177589Y4734640D01*
X4176592Y4734972D01*
X4175484Y4735194D01*
X4174211Y4735304D01*
X4174709Y4740122D01*
X4174765D01*
X4174931Y4740066D01*
X4175208D01*
X4175595Y4740011D01*
X4176038Y4739900D01*
X4176536Y4739790D01*
X4177146Y4739623D01*
X4177755Y4739457D01*
X4179084Y4739014D01*
X4180413Y4738350D01*
X4181077Y4737962D01*
X4181741Y4737464D01*
X4182351Y4736966D01*
X4182904Y4736412D01*
X4182960Y4736357D01*
X4183015Y4736246D01*
X4183181Y4736080D01*
X4183347Y4735803D01*
X4183569Y4735471D01*
X4183790Y4735083D01*
X4184067Y4734640D01*
X4184344Y4734086D01*
X4184621Y4733477D01*
X4184898Y4732813D01*
X4185119Y4732093D01*
X4185341Y4731318D01*
X4185507Y4730487D01*
X4185673Y4729601D01*
X4185728Y4728660D01*
X4185784Y4727663D01*
Y4727109D01*
X4185728Y4726722D01*
X4185673Y4726279D01*
X4185617Y4725725D01*
X4185507Y4725116D01*
X4185396Y4724507D01*
X4185008Y4723067D01*
X4184455Y4721628D01*
X4184122Y4720908D01*
X4183735Y4720188D01*
X4183236Y4719523D01*
X4182683Y4718914D01*
X4182627Y4718859D01*
X4182572Y4718748D01*
X4182351Y4718638D01*
X4182129Y4718416D01*
X4181852Y4718139D01*
X4181465Y4717862D01*
X4181077Y4717585D01*
X4180579Y4717253D01*
X4179527Y4716699D01*
X4178198Y4716146D01*
X4177533Y4715924D01*
X4176758Y4715814D01*
X4175983Y4715703D01*
X4175152Y4715647D01*
X4175041D01*
X4174765D01*
X4174322Y4715703D01*
X4173713Y4715758D01*
X4173048Y4715869D01*
X4172273Y4716090D01*
X4171442Y4716312D01*
X4170612Y4716644D01*
X4170501Y4716699D01*
X4170224Y4716810D01*
X4169781Y4717032D01*
X4169172Y4717364D01*
X4168508Y4717807D01*
X4167677Y4718361D01*
X4166846Y4719025D01*
X4165905Y4719800D01*
X4165794Y4719911D01*
X4165462Y4720188D01*
X4165185Y4720465D01*
X4164908Y4720742D01*
X4164576Y4721074D01*
X4164133Y4721517D01*
X4163690Y4721960D01*
X4163192Y4722514D01*
X4162638Y4723067D01*
X4162029Y4723732D01*
X4161420Y4724452D01*
X4160700Y4725227D01*
X4159980Y4726113D01*
X4159205Y4726999D01*
X4159150Y4727054D01*
X4159039Y4727165D01*
X4158873Y4727386D01*
X4158651Y4727663D01*
X4158319Y4727995D01*
X4157987Y4728383D01*
X4157267Y4729269D01*
X4156436Y4730210D01*
X4155606Y4731096D01*
X4154886Y4731871D01*
X4154609Y4732204D01*
X4154332Y4732481D01*
X4154277Y4732536D01*
X4154111Y4732702D01*
X4153889Y4732923D01*
X4153557Y4733200D01*
X4153169Y4733477D01*
X4152782Y4733809D01*
X4151841Y4734474D01*
Y4715592D01*
X4147300D01*
Y4741008D01*
X4147355D01*
X4147577D01*
X4147909D01*
X4148352Y4740952D01*
D02*
G37*
G36*
X4173768Y4710498D02*
X4174266Y4710442D01*
X4174875Y4710387D01*
X4175484Y4710276D01*
X4176204Y4710110D01*
X4177644Y4709723D01*
X4178419Y4709446D01*
X4179250Y4709114D01*
X4180025Y4708726D01*
X4180745Y4708228D01*
X4181520Y4707729D01*
X4182184Y4707120D01*
X4182240Y4707065D01*
X4182351Y4706954D01*
X4182517Y4706788D01*
X4182738Y4706511D01*
X4183015Y4706179D01*
X4183347Y4705736D01*
X4183624Y4705293D01*
X4184012Y4704739D01*
X4184344Y4704185D01*
X4184621Y4703521D01*
X4185230Y4702026D01*
X4185451Y4701251D01*
X4185617Y4700365D01*
X4185728Y4699479D01*
X4185784Y4698537D01*
Y4698150D01*
X4185728Y4697873D01*
Y4697596D01*
X4185673Y4697209D01*
X4185507Y4696267D01*
X4185285Y4695215D01*
X4184898Y4694052D01*
X4184399Y4692890D01*
X4183735Y4691727D01*
Y4691671D01*
X4183624Y4691616D01*
X4183513Y4691450D01*
X4183347Y4691228D01*
X4182904Y4690675D01*
X4182295Y4689955D01*
X4181465Y4689235D01*
X4180468Y4688404D01*
X4179305Y4687685D01*
X4177976Y4687020D01*
X4177921D01*
X4177810Y4686965D01*
X4177589Y4686854D01*
X4177312Y4686743D01*
X4176924Y4686632D01*
X4176426Y4686466D01*
X4175872Y4686356D01*
X4175263Y4686190D01*
X4174543Y4686023D01*
X4173713Y4685857D01*
X4172827Y4685747D01*
X4171885Y4685636D01*
X4170833Y4685525D01*
X4169726Y4685414D01*
X4168508Y4685359D01*
X4167234D01*
X4167179D01*
X4166902D01*
X4166514D01*
X4166016D01*
X4165407Y4685414D01*
X4164687D01*
X4163856Y4685470D01*
X4163026Y4685580D01*
X4161143Y4685747D01*
X4159150Y4686023D01*
X4157267Y4686411D01*
X4156326Y4686688D01*
X4155495Y4686965D01*
X4155440D01*
X4155329Y4687020D01*
X4155108Y4687131D01*
X4154775Y4687242D01*
X4154443Y4687408D01*
X4154000Y4687629D01*
X4153059Y4688183D01*
X4152007Y4688847D01*
X4150899Y4689623D01*
X4149847Y4690619D01*
X4148906Y4691727D01*
Y4691782D01*
X4148795Y4691893D01*
X4148684Y4692059D01*
X4148574Y4692280D01*
X4148408Y4692613D01*
X4148186Y4692945D01*
X4147965Y4693388D01*
X4147798Y4693831D01*
X4147355Y4694883D01*
X4146968Y4696156D01*
X4146746Y4697541D01*
X4146636Y4699091D01*
Y4699534D01*
X4146691Y4699811D01*
Y4700199D01*
X4146746Y4700642D01*
X4146968Y4701694D01*
X4147245Y4702856D01*
X4147688Y4704075D01*
X4148297Y4705293D01*
X4148684Y4705902D01*
X4149127Y4706456D01*
X4149183Y4706511D01*
X4149238Y4706566D01*
X4149404Y4706733D01*
X4149570Y4706899D01*
X4149847Y4707120D01*
X4150179Y4707397D01*
X4150955Y4707951D01*
X4151951Y4708504D01*
X4153169Y4709058D01*
X4154554Y4709501D01*
X4156160Y4709833D01*
X4156547Y4705293D01*
X4156492D01*
X4156381Y4705237D01*
X4156270D01*
X4156049Y4705182D01*
X4155440Y4705016D01*
X4154775Y4704795D01*
X4154000Y4704518D01*
X4153225Y4704130D01*
X4152505Y4703687D01*
X4151896Y4703133D01*
X4151841Y4703078D01*
X4151674Y4702856D01*
X4151453Y4702469D01*
X4151231Y4702026D01*
X4150955Y4701417D01*
X4150733Y4700697D01*
X4150567Y4699866D01*
X4150512Y4698980D01*
Y4698593D01*
X4150567Y4698205D01*
X4150622Y4697707D01*
X4150733Y4697098D01*
X4150899Y4696489D01*
X4151121Y4695824D01*
X4151453Y4695215D01*
X4151508Y4695160D01*
X4151619Y4694938D01*
X4151841Y4694606D01*
X4152173Y4694274D01*
X4152560Y4693831D01*
X4153003Y4693388D01*
X4153502Y4692945D01*
X4154111Y4692502D01*
X4154166Y4692447D01*
X4154443Y4692336D01*
X4154831Y4692114D01*
X4155329Y4691893D01*
X4155993Y4691616D01*
X4156769Y4691339D01*
X4157655Y4691062D01*
X4158651Y4690785D01*
X4158707D01*
X4158762Y4690730D01*
X4158928D01*
X4159150Y4690675D01*
X4159703Y4690564D01*
X4160423Y4690398D01*
X4161309Y4690287D01*
X4162251Y4690176D01*
X4163303Y4690121D01*
X4164410Y4690066D01*
X4164465D01*
X4164631D01*
X4164908D01*
X4165351D01*
X4165241Y4690121D01*
X4164964Y4690342D01*
X4164576Y4690675D01*
X4164022Y4691062D01*
X4163469Y4691616D01*
X4162860Y4692280D01*
X4162251Y4693056D01*
X4161697Y4693942D01*
X4161641Y4694052D01*
X4161475Y4694385D01*
X4161254Y4694883D01*
X4161032Y4695492D01*
X4160755Y4696323D01*
X4160534Y4697209D01*
X4160368Y4698205D01*
X4160312Y4699257D01*
Y4699700D01*
X4160368Y4700033D01*
X4160423Y4700475D01*
X4160479Y4700918D01*
X4160589Y4701472D01*
X4160755Y4702026D01*
X4161143Y4703299D01*
X4161420Y4703964D01*
X4161752Y4704628D01*
X4162140Y4705348D01*
X4162638Y4706013D01*
X4163136Y4706677D01*
X4163746Y4707286D01*
X4163801Y4707342D01*
X4163912Y4707452D01*
X4164078Y4707563D01*
X4164355Y4707785D01*
X4164742Y4708061D01*
X4165130Y4708338D01*
X4165628Y4708615D01*
X4166182Y4708892D01*
X4166791Y4709224D01*
X4167455Y4709501D01*
X4168231Y4709778D01*
X4169006Y4710055D01*
X4169892Y4710276D01*
X4170833Y4710387D01*
X4171774Y4710498D01*
X4172827Y4710553D01*
X4172882D01*
X4173103D01*
X4173380D01*
X4173768Y4710498D01*
D02*
G37*
G36*
X4172700Y3828783D02*
X4172645D01*
X4172423D01*
X4172091D01*
X4171648Y3828838D01*
X4171150Y3828893D01*
X4170596Y3829004D01*
X4170042Y3829115D01*
X4169433Y3829336D01*
X4169378D01*
X4169322Y3829392D01*
X4168990Y3829502D01*
X4168492Y3829724D01*
X4167827Y3830056D01*
X4167052Y3830499D01*
X4166166Y3831053D01*
X4165280Y3831662D01*
X4164339Y3832437D01*
X4164284D01*
X4164228Y3832548D01*
X4163896Y3832825D01*
X4163398Y3833323D01*
X4162678Y3834043D01*
X4161847Y3834873D01*
X4160850Y3835926D01*
X4159743Y3837199D01*
X4158580Y3838583D01*
X4158525Y3838639D01*
X4158359Y3838860D01*
X4158082Y3839192D01*
X4157750Y3839580D01*
X4157307Y3840078D01*
X4156808Y3840688D01*
X4156255Y3841297D01*
X4155645Y3842016D01*
X4154317Y3843401D01*
X4152988Y3844785D01*
X4152323Y3845450D01*
X4151659Y3846059D01*
X4151050Y3846612D01*
X4150441Y3847055D01*
X4150385D01*
X4150330Y3847166D01*
X4150164Y3847277D01*
X4149942Y3847388D01*
X4149333Y3847775D01*
X4148613Y3848218D01*
X4147727Y3848606D01*
X4146786Y3848993D01*
X4145734Y3849215D01*
X4144737Y3849326D01*
X4144682D01*
X4144626D01*
X4144294Y3849270D01*
X4143741Y3849215D01*
X4143131Y3849049D01*
X4142356Y3848827D01*
X4141581Y3848440D01*
X4140806Y3847941D01*
X4140031Y3847277D01*
X4139920Y3847166D01*
X4139698Y3846889D01*
X4139421Y3846502D01*
X4139034Y3845892D01*
X4138702Y3845117D01*
X4138369Y3844231D01*
X4138148Y3843179D01*
X4138093Y3842016D01*
Y3841684D01*
X4138148Y3841463D01*
X4138203Y3840798D01*
X4138369Y3840023D01*
X4138591Y3839192D01*
X4138979Y3838251D01*
X4139477Y3837365D01*
X4140141Y3836535D01*
X4140252Y3836424D01*
X4140529Y3836202D01*
X4140972Y3835870D01*
X4141636Y3835538D01*
X4142412Y3835150D01*
X4143408Y3834818D01*
X4144516Y3834597D01*
X4145789Y3834486D01*
X4145291Y3829668D01*
X4145236D01*
X4145069Y3829724D01*
X4144793D01*
X4144405Y3829779D01*
X4143962Y3829890D01*
X4143464Y3830001D01*
X4142855Y3830167D01*
X4142245Y3830333D01*
X4140917Y3830776D01*
X4139588Y3831440D01*
X4138923Y3831828D01*
X4138259Y3832326D01*
X4137650Y3832825D01*
X4137096Y3833378D01*
X4137040Y3833434D01*
X4136985Y3833545D01*
X4136819Y3833711D01*
X4136653Y3833988D01*
X4136431Y3834320D01*
X4136210Y3834707D01*
X4135933Y3835150D01*
X4135656Y3835704D01*
X4135379Y3836313D01*
X4135102Y3836978D01*
X4134881Y3837697D01*
X4134659Y3838473D01*
X4134493Y3839303D01*
X4134327Y3840189D01*
X4134272Y3841130D01*
X4134217Y3842127D01*
Y3842681D01*
X4134272Y3843069D01*
X4134327Y3843511D01*
X4134383Y3844065D01*
X4134493Y3844674D01*
X4134604Y3845283D01*
X4134992Y3846723D01*
X4135545Y3848163D01*
X4135878Y3848883D01*
X4136265Y3849602D01*
X4136764Y3850267D01*
X4137317Y3850876D01*
X4137373Y3850931D01*
X4137428Y3851042D01*
X4137650Y3851153D01*
X4137871Y3851374D01*
X4138148Y3851651D01*
X4138536Y3851928D01*
X4138923Y3852205D01*
X4139421Y3852537D01*
X4140474Y3853091D01*
X4141802Y3853645D01*
X4142467Y3853866D01*
X4143242Y3853977D01*
X4144017Y3854088D01*
X4144848Y3854143D01*
X4144959D01*
X4145236D01*
X4145679Y3854088D01*
X4146288Y3854032D01*
X4146952Y3853921D01*
X4147727Y3853700D01*
X4148558Y3853478D01*
X4149388Y3853146D01*
X4149499Y3853091D01*
X4149776Y3852980D01*
X4150219Y3852759D01*
X4150828Y3852426D01*
X4151493Y3851983D01*
X4152323Y3851430D01*
X4153154Y3850765D01*
X4154095Y3849990D01*
X4154206Y3849879D01*
X4154538Y3849602D01*
X4154815Y3849326D01*
X4155092Y3849049D01*
X4155424Y3848716D01*
X4155867Y3848273D01*
X4156310Y3847831D01*
X4156808Y3847277D01*
X4157362Y3846723D01*
X4157971Y3846059D01*
X4158580Y3845339D01*
X4159300Y3844564D01*
X4160020Y3843678D01*
X4160795Y3842792D01*
X4160850Y3842736D01*
X4160961Y3842626D01*
X4161127Y3842404D01*
X4161349Y3842127D01*
X4161681Y3841795D01*
X4162013Y3841407D01*
X4162733Y3840521D01*
X4163564Y3839580D01*
X4164394Y3838694D01*
X4165114Y3837919D01*
X4165391Y3837587D01*
X4165668Y3837310D01*
X4165723Y3837254D01*
X4165889Y3837088D01*
X4166111Y3836867D01*
X4166443Y3836590D01*
X4166831Y3836313D01*
X4167218Y3835981D01*
X4168160Y3835316D01*
Y3854198D01*
X4172700D01*
Y3828783D01*
D02*
G37*
G36*
X4162235Y3824740D02*
X4162678Y3824685D01*
X4163176Y3824574D01*
X4163730Y3824464D01*
X4164339Y3824353D01*
X4165668Y3823910D01*
X4166388Y3823578D01*
X4167052Y3823245D01*
X4167772Y3822802D01*
X4168492Y3822304D01*
X4169212Y3821750D01*
X4169876Y3821086D01*
X4169931Y3821030D01*
X4170042Y3820920D01*
X4170208Y3820698D01*
X4170430Y3820421D01*
X4170707Y3820089D01*
X4170984Y3819646D01*
X4171316Y3819148D01*
X4171593Y3818539D01*
X4171925Y3817930D01*
X4172257Y3817210D01*
X4172534Y3816490D01*
X4172811Y3815659D01*
X4173032Y3814773D01*
X4173198Y3813832D01*
X4173309Y3812891D01*
X4173365Y3811839D01*
Y3811340D01*
X4173309Y3811008D01*
X4173254Y3810565D01*
X4173198Y3810067D01*
X4173088Y3809513D01*
X4172977Y3808904D01*
X4172645Y3807575D01*
X4172091Y3806191D01*
X4171759Y3805471D01*
X4171371Y3804806D01*
X4170873Y3804142D01*
X4170374Y3803478D01*
X4170319Y3803422D01*
X4170208Y3803311D01*
X4170042Y3803145D01*
X4169821Y3802979D01*
X4169544Y3802702D01*
X4169156Y3802425D01*
X4168769Y3802093D01*
X4168270Y3801761D01*
X4167717Y3801429D01*
X4167163Y3801097D01*
X4165834Y3800487D01*
X4164284Y3799989D01*
X4163453Y3799823D01*
X4162567Y3799712D01*
X4161958Y3804419D01*
X4162013D01*
X4162124Y3804474D01*
X4162345Y3804530D01*
X4162622Y3804585D01*
X4162955Y3804640D01*
X4163342Y3804751D01*
X4164173Y3805028D01*
X4165169Y3805416D01*
X4166111Y3805914D01*
X4166997Y3806468D01*
X4167772Y3807132D01*
X4167827Y3807243D01*
X4168049Y3807464D01*
X4168326Y3807907D01*
X4168603Y3808461D01*
X4168935Y3809125D01*
X4169212Y3809956D01*
X4169433Y3810897D01*
X4169488Y3811894D01*
Y3812226D01*
X4169433Y3812448D01*
X4169378Y3813057D01*
X4169212Y3813832D01*
X4168935Y3814718D01*
X4168547Y3815659D01*
X4167993Y3816601D01*
X4167218Y3817487D01*
X4167107Y3817597D01*
X4166775Y3817874D01*
X4166277Y3818206D01*
X4165612Y3818649D01*
X4164782Y3819092D01*
X4163841Y3819425D01*
X4162733Y3819702D01*
X4161515Y3819812D01*
X4161460D01*
X4161349D01*
X4161183D01*
X4160961Y3819757D01*
X4160352Y3819702D01*
X4159632Y3819535D01*
X4158746Y3819314D01*
X4157860Y3818926D01*
X4156974Y3818373D01*
X4156144Y3817653D01*
X4156033Y3817542D01*
X4155812Y3817265D01*
X4155479Y3816822D01*
X4155092Y3816213D01*
X4154704Y3815438D01*
X4154372Y3814497D01*
X4154150Y3813444D01*
X4154040Y3812282D01*
Y3811783D01*
X4154095Y3811396D01*
X4154150Y3810897D01*
X4154261Y3810344D01*
X4154372Y3809679D01*
X4154538Y3808959D01*
X4150385Y3809513D01*
Y3809790D01*
X4150441Y3810011D01*
Y3810731D01*
X4150330Y3811340D01*
X4150219Y3812060D01*
X4150053Y3812891D01*
X4149776Y3813832D01*
X4149388Y3814718D01*
X4148890Y3815659D01*
Y3815715D01*
X4148835Y3815770D01*
X4148613Y3816047D01*
X4148226Y3816435D01*
X4147727Y3816878D01*
X4147007Y3817321D01*
X4146177Y3817708D01*
X4145236Y3817985D01*
X4144682Y3818096D01*
X4144073D01*
X4144017D01*
X4143962D01*
X4143630D01*
X4143187Y3817985D01*
X4142578Y3817874D01*
X4141913Y3817653D01*
X4141193Y3817376D01*
X4140474Y3816933D01*
X4139809Y3816324D01*
X4139754Y3816268D01*
X4139532Y3815992D01*
X4139255Y3815604D01*
X4138923Y3815106D01*
X4138646Y3814441D01*
X4138369Y3813666D01*
X4138148Y3812780D01*
X4138093Y3811783D01*
Y3811340D01*
X4138203Y3810842D01*
X4138314Y3810178D01*
X4138536Y3809458D01*
X4138812Y3808738D01*
X4139255Y3807963D01*
X4139809Y3807243D01*
X4139864Y3807187D01*
X4140141Y3806966D01*
X4140529Y3806634D01*
X4141083Y3806246D01*
X4141802Y3805859D01*
X4142688Y3805471D01*
X4143741Y3805139D01*
X4144959Y3804917D01*
X4144128Y3800211D01*
X4144073D01*
X4143907Y3800266D01*
X4143685Y3800321D01*
X4143353Y3800377D01*
X4142965Y3800487D01*
X4142522Y3800654D01*
X4141470Y3800986D01*
X4140252Y3801540D01*
X4139034Y3802204D01*
X4137871Y3803035D01*
X4136819Y3804087D01*
X4136764Y3804142D01*
X4136708Y3804253D01*
X4136598Y3804419D01*
X4136431Y3804640D01*
X4136210Y3804917D01*
X4135988Y3805305D01*
X4135767Y3805692D01*
X4135490Y3806191D01*
X4135047Y3807298D01*
X4134604Y3808572D01*
X4134327Y3810067D01*
X4134217Y3810842D01*
Y3812226D01*
X4134272Y3812835D01*
X4134383Y3813555D01*
X4134549Y3814441D01*
X4134826Y3815438D01*
X4135158Y3816435D01*
X4135601Y3817431D01*
Y3817487D01*
X4135656Y3817542D01*
X4135822Y3817874D01*
X4136155Y3818373D01*
X4136542Y3818926D01*
X4137096Y3819591D01*
X4137705Y3820255D01*
X4138425Y3820920D01*
X4139255Y3821473D01*
X4139366Y3821529D01*
X4139643Y3821695D01*
X4140141Y3821916D01*
X4140750Y3822193D01*
X4141470Y3822470D01*
X4142301Y3822692D01*
X4143242Y3822858D01*
X4144183Y3822913D01*
X4144294D01*
X4144626D01*
X4145069Y3822858D01*
X4145679Y3822747D01*
X4146398Y3822581D01*
X4147174Y3822304D01*
X4147949Y3821972D01*
X4148724Y3821529D01*
X4148835Y3821473D01*
X4149056Y3821307D01*
X4149444Y3820975D01*
X4149887Y3820532D01*
X4150385Y3819978D01*
X4150939Y3819314D01*
X4151437Y3818539D01*
X4151936Y3817597D01*
Y3817653D01*
X4151991Y3817764D01*
X4152046Y3817930D01*
X4152102Y3818151D01*
X4152323Y3818760D01*
X4152655Y3819535D01*
X4153098Y3820421D01*
X4153652Y3821307D01*
X4154372Y3822138D01*
X4155203Y3822913D01*
X4155313Y3822968D01*
X4155645Y3823190D01*
X4156199Y3823522D01*
X4156919Y3823854D01*
X4157805Y3824187D01*
X4158857Y3824519D01*
X4160075Y3824740D01*
X4161404Y3824796D01*
X4161460D01*
X4161626D01*
X4161903D01*
X4162235Y3824740D01*
D02*
G37*
G36*
X4172700Y3790354D02*
X4164726Y3785316D01*
X4164671D01*
X4164560Y3785205D01*
X4164394Y3785094D01*
X4164173Y3784928D01*
X4163564Y3784540D01*
X4162788Y3784042D01*
X4161958Y3783433D01*
X4161072Y3782824D01*
X4160241Y3782215D01*
X4159466Y3781661D01*
X4159411Y3781606D01*
X4159189Y3781439D01*
X4158857Y3781163D01*
X4158469Y3780775D01*
X4157639Y3779944D01*
X4157251Y3779501D01*
X4156919Y3779058D01*
X4156864Y3779003D01*
X4156808Y3778892D01*
X4156698Y3778671D01*
X4156531Y3778339D01*
X4156365Y3778006D01*
X4156199Y3777619D01*
X4155922Y3776733D01*
Y3776677D01*
X4155867Y3776567D01*
Y3776345D01*
X4155812Y3776068D01*
X4155756Y3775681D01*
Y3775238D01*
X4155701Y3774629D01*
Y3768095D01*
X4172700D01*
Y3763001D01*
X4134383D01*
Y3780775D01*
X4134438Y3781218D01*
Y3781716D01*
X4134493Y3782879D01*
X4134659Y3784097D01*
X4134826Y3785426D01*
X4135102Y3786644D01*
X4135269Y3787254D01*
X4135435Y3787752D01*
Y3787807D01*
X4135490Y3787863D01*
X4135656Y3788195D01*
X4135878Y3788693D01*
X4136265Y3789302D01*
X4136764Y3789967D01*
X4137428Y3790687D01*
X4138203Y3791351D01*
X4139089Y3792016D01*
X4139145D01*
X4139200Y3792071D01*
X4139532Y3792292D01*
X4140086Y3792514D01*
X4140806Y3792846D01*
X4141636Y3793123D01*
X4142633Y3793400D01*
X4143685Y3793566D01*
X4144848Y3793621D01*
X4144903D01*
X4145014D01*
X4145236D01*
X4145512Y3793566D01*
X4145900D01*
X4146288Y3793511D01*
X4147229Y3793289D01*
X4148336Y3792957D01*
X4149499Y3792514D01*
X4150662Y3791849D01*
X4151216Y3791406D01*
X4151769Y3790963D01*
X4151825Y3790908D01*
X4151880Y3790853D01*
X4152046Y3790687D01*
X4152212Y3790465D01*
X4152434Y3790188D01*
X4152655Y3789856D01*
X4152932Y3789413D01*
X4153264Y3788970D01*
X4153541Y3788416D01*
X4153818Y3787807D01*
X4154150Y3787143D01*
X4154427Y3786423D01*
X4154649Y3785592D01*
X4154926Y3784762D01*
X4155092Y3783820D01*
X4155258Y3782824D01*
X4155313Y3782935D01*
X4155424Y3783156D01*
X4155645Y3783488D01*
X4155867Y3783931D01*
X4156476Y3784928D01*
X4156864Y3785426D01*
X4157196Y3785869D01*
X4157307Y3785980D01*
X4157584Y3786257D01*
X4158026Y3786700D01*
X4158580Y3787254D01*
X4159355Y3787863D01*
X4160186Y3788582D01*
X4161183Y3789302D01*
X4162290Y3790078D01*
X4172700Y3796667D01*
Y3790354D01*
D02*
G37*
G36*
X5062625Y3885728D02*
X5063345Y3885617D01*
X5064231Y3885451D01*
X5065228Y3885174D01*
X5066225Y3884842D01*
X5067221Y3884399D01*
X5067277D01*
X5067332Y3884344D01*
X5067664Y3884178D01*
X5068163Y3883845D01*
X5068716Y3883458D01*
X5069381Y3882904D01*
X5070045Y3882295D01*
X5070710Y3881575D01*
X5071263Y3880745D01*
X5071319Y3880634D01*
X5071485Y3880357D01*
X5071706Y3879859D01*
X5071983Y3879250D01*
X5072260Y3878530D01*
X5072482Y3877699D01*
X5072648Y3876758D01*
X5072703Y3875816D01*
Y3875706D01*
Y3875374D01*
X5072648Y3874931D01*
X5072537Y3874321D01*
X5072371Y3873602D01*
X5072094Y3872826D01*
X5071762Y3872051D01*
X5071319Y3871276D01*
X5071263Y3871165D01*
X5071097Y3870944D01*
X5070765Y3870556D01*
X5070322Y3870113D01*
X5069768Y3869615D01*
X5069104Y3869061D01*
X5068329Y3868563D01*
X5067387Y3868064D01*
X5067443D01*
X5067553Y3868009D01*
X5067720Y3867954D01*
X5067941Y3867898D01*
X5068550Y3867677D01*
X5069325Y3867345D01*
X5070211Y3866902D01*
X5071097Y3866348D01*
X5071928Y3865628D01*
X5072703Y3864797D01*
X5072758Y3864687D01*
X5072980Y3864354D01*
X5073312Y3863801D01*
X5073644Y3863081D01*
X5073977Y3862195D01*
X5074309Y3861143D01*
X5074530Y3859925D01*
X5074586Y3858596D01*
Y3858540D01*
Y3858374D01*
Y3858097D01*
X5074530Y3857765D01*
X5074475Y3857322D01*
X5074364Y3856824D01*
X5074254Y3856270D01*
X5074143Y3855661D01*
X5073700Y3854332D01*
X5073368Y3853612D01*
X5073035Y3852948D01*
X5072592Y3852228D01*
X5072094Y3851508D01*
X5071540Y3850788D01*
X5070876Y3850124D01*
X5070820Y3850068D01*
X5070710Y3849958D01*
X5070488Y3849792D01*
X5070211Y3849570D01*
X5069879Y3849293D01*
X5069436Y3849016D01*
X5068938Y3848684D01*
X5068329Y3848407D01*
X5067720Y3848075D01*
X5067000Y3847743D01*
X5066280Y3847466D01*
X5065449Y3847189D01*
X5064563Y3846968D01*
X5063622Y3846802D01*
X5062681Y3846691D01*
X5061629Y3846635D01*
X5061130D01*
X5060798Y3846691D01*
X5060355Y3846746D01*
X5059857Y3846802D01*
X5059303Y3846912D01*
X5058694Y3847023D01*
X5057365Y3847355D01*
X5055981Y3847909D01*
X5055261Y3848241D01*
X5054596Y3848629D01*
X5053932Y3849127D01*
X5053268Y3849626D01*
X5053212Y3849681D01*
X5053101Y3849792D01*
X5052935Y3849958D01*
X5052769Y3850179D01*
X5052492Y3850456D01*
X5052215Y3850844D01*
X5051883Y3851231D01*
X5051551Y3851730D01*
X5051219Y3852283D01*
X5050887Y3852837D01*
X5050277Y3854166D01*
X5049779Y3855716D01*
X5049613Y3856547D01*
X5049502Y3857433D01*
X5054209Y3858042D01*
Y3857987D01*
X5054264Y3857876D01*
X5054320Y3857654D01*
X5054375Y3857378D01*
X5054430Y3857045D01*
X5054541Y3856658D01*
X5054818Y3855827D01*
X5055206Y3854830D01*
X5055704Y3853889D01*
X5056258Y3853003D01*
X5056922Y3852228D01*
X5057033Y3852173D01*
X5057254Y3851951D01*
X5057697Y3851674D01*
X5058251Y3851397D01*
X5058915Y3851065D01*
X5059746Y3850788D01*
X5060687Y3850567D01*
X5061684Y3850511D01*
X5062016D01*
X5062238Y3850567D01*
X5062847Y3850622D01*
X5063622Y3850788D01*
X5064508Y3851065D01*
X5065449Y3851453D01*
X5066391Y3852007D01*
X5067277Y3852782D01*
X5067387Y3852892D01*
X5067664Y3853225D01*
X5067996Y3853723D01*
X5068439Y3854388D01*
X5068882Y3855218D01*
X5069215Y3856159D01*
X5069492Y3857267D01*
X5069602Y3858485D01*
Y3858540D01*
Y3858651D01*
Y3858817D01*
X5069547Y3859039D01*
X5069492Y3859648D01*
X5069325Y3860368D01*
X5069104Y3861254D01*
X5068716Y3862140D01*
X5068163Y3863026D01*
X5067443Y3863856D01*
X5067332Y3863967D01*
X5067055Y3864188D01*
X5066612Y3864521D01*
X5066003Y3864908D01*
X5065228Y3865296D01*
X5064287Y3865628D01*
X5063234Y3865850D01*
X5062072Y3865960D01*
X5061573D01*
X5061186Y3865905D01*
X5060687Y3865850D01*
X5060134Y3865739D01*
X5059469Y3865628D01*
X5058749Y3865462D01*
X5059303Y3869615D01*
X5059580D01*
X5059801Y3869559D01*
X5060521D01*
X5061130Y3869670D01*
X5061850Y3869781D01*
X5062681Y3869947D01*
X5063622Y3870224D01*
X5064508Y3870612D01*
X5065449Y3871110D01*
X5065505D01*
X5065560Y3871165D01*
X5065837Y3871387D01*
X5066225Y3871774D01*
X5066668Y3872273D01*
X5067111Y3872993D01*
X5067498Y3873823D01*
X5067775Y3874764D01*
X5067886Y3875318D01*
Y3875927D01*
Y3875983D01*
Y3876038D01*
Y3876370D01*
X5067775Y3876813D01*
X5067664Y3877422D01*
X5067443Y3878087D01*
X5067166Y3878807D01*
X5066723Y3879526D01*
X5066114Y3880191D01*
X5066058Y3880246D01*
X5065782Y3880468D01*
X5065394Y3880745D01*
X5064896Y3881077D01*
X5064231Y3881354D01*
X5063456Y3881631D01*
X5062570Y3881852D01*
X5061573Y3881907D01*
X5061130D01*
X5060632Y3881797D01*
X5059968Y3881686D01*
X5059248Y3881464D01*
X5058528Y3881188D01*
X5057753Y3880745D01*
X5057033Y3880191D01*
X5056977Y3880135D01*
X5056756Y3879859D01*
X5056424Y3879471D01*
X5056036Y3878917D01*
X5055649Y3878197D01*
X5055261Y3877312D01*
X5054929Y3876259D01*
X5054707Y3875041D01*
X5050001Y3875872D01*
Y3875927D01*
X5050056Y3876093D01*
X5050111Y3876315D01*
X5050167Y3876647D01*
X5050277Y3877035D01*
X5050444Y3877478D01*
X5050776Y3878530D01*
X5051329Y3879748D01*
X5051994Y3880966D01*
X5052825Y3882129D01*
X5053877Y3883181D01*
X5053932Y3883236D01*
X5054043Y3883292D01*
X5054209Y3883402D01*
X5054430Y3883569D01*
X5054707Y3883790D01*
X5055095Y3884012D01*
X5055482Y3884233D01*
X5055981Y3884510D01*
X5057088Y3884953D01*
X5058362Y3885396D01*
X5059857Y3885673D01*
X5060632Y3885783D01*
X5062016D01*
X5062625Y3885728D01*
D02*
G37*
G36*
X5032835D02*
X5033555Y3885617D01*
X5034441Y3885451D01*
X5035438Y3885174D01*
X5036434Y3884842D01*
X5037431Y3884399D01*
X5037486D01*
X5037542Y3884344D01*
X5037874Y3884178D01*
X5038372Y3883845D01*
X5038926Y3883458D01*
X5039591Y3882904D01*
X5040255Y3882295D01*
X5040920Y3881575D01*
X5041473Y3880745D01*
X5041529Y3880634D01*
X5041695Y3880357D01*
X5041916Y3879859D01*
X5042193Y3879250D01*
X5042470Y3878530D01*
X5042691Y3877699D01*
X5042858Y3876758D01*
X5042913Y3875816D01*
Y3875706D01*
Y3875374D01*
X5042858Y3874931D01*
X5042747Y3874321D01*
X5042581Y3873602D01*
X5042304Y3872826D01*
X5041972Y3872051D01*
X5041529Y3871276D01*
X5041473Y3871165D01*
X5041307Y3870944D01*
X5040975Y3870556D01*
X5040532Y3870113D01*
X5039978Y3869615D01*
X5039314Y3869061D01*
X5038539Y3868563D01*
X5037597Y3868064D01*
X5037653D01*
X5037763Y3868009D01*
X5037929Y3867954D01*
X5038151Y3867898D01*
X5038760Y3867677D01*
X5039535Y3867345D01*
X5040421Y3866902D01*
X5041307Y3866348D01*
X5042138Y3865628D01*
X5042913Y3864797D01*
X5042968Y3864687D01*
X5043190Y3864354D01*
X5043522Y3863801D01*
X5043854Y3863081D01*
X5044187Y3862195D01*
X5044519Y3861143D01*
X5044740Y3859925D01*
X5044796Y3858596D01*
Y3858540D01*
Y3858374D01*
Y3858097D01*
X5044740Y3857765D01*
X5044685Y3857322D01*
X5044574Y3856824D01*
X5044463Y3856270D01*
X5044353Y3855661D01*
X5043910Y3854332D01*
X5043577Y3853612D01*
X5043245Y3852948D01*
X5042802Y3852228D01*
X5042304Y3851508D01*
X5041750Y3850788D01*
X5041086Y3850124D01*
X5041030Y3850068D01*
X5040920Y3849958D01*
X5040698Y3849792D01*
X5040421Y3849570D01*
X5040089Y3849293D01*
X5039646Y3849016D01*
X5039148Y3848684D01*
X5038539Y3848407D01*
X5037929Y3848075D01*
X5037210Y3847743D01*
X5036490Y3847466D01*
X5035659Y3847189D01*
X5034773Y3846968D01*
X5033832Y3846802D01*
X5032891Y3846691D01*
X5031839Y3846635D01*
X5031340D01*
X5031008Y3846691D01*
X5030565Y3846746D01*
X5030067Y3846802D01*
X5029513Y3846912D01*
X5028904Y3847023D01*
X5027575Y3847355D01*
X5026191Y3847909D01*
X5025471Y3848241D01*
X5024806Y3848629D01*
X5024142Y3849127D01*
X5023477Y3849626D01*
X5023422Y3849681D01*
X5023311Y3849792D01*
X5023145Y3849958D01*
X5022979Y3850179D01*
X5022702Y3850456D01*
X5022425Y3850844D01*
X5022093Y3851231D01*
X5021761Y3851730D01*
X5021429Y3852283D01*
X5021096Y3852837D01*
X5020487Y3854166D01*
X5019989Y3855716D01*
X5019823Y3856547D01*
X5019712Y3857433D01*
X5024419Y3858042D01*
Y3857987D01*
X5024474Y3857876D01*
X5024529Y3857654D01*
X5024585Y3857378D01*
X5024640Y3857045D01*
X5024751Y3856658D01*
X5025028Y3855827D01*
X5025415Y3854830D01*
X5025914Y3853889D01*
X5026467Y3853003D01*
X5027132Y3852228D01*
X5027243Y3852173D01*
X5027464Y3851951D01*
X5027907Y3851674D01*
X5028461Y3851397D01*
X5029125Y3851065D01*
X5029956Y3850788D01*
X5030897Y3850567D01*
X5031894Y3850511D01*
X5032226D01*
X5032448Y3850567D01*
X5033057Y3850622D01*
X5033832Y3850788D01*
X5034718Y3851065D01*
X5035659Y3851453D01*
X5036601Y3852007D01*
X5037486Y3852782D01*
X5037597Y3852892D01*
X5037874Y3853225D01*
X5038206Y3853723D01*
X5038649Y3854388D01*
X5039092Y3855218D01*
X5039425Y3856159D01*
X5039701Y3857267D01*
X5039812Y3858485D01*
Y3858540D01*
Y3858651D01*
Y3858817D01*
X5039757Y3859039D01*
X5039701Y3859648D01*
X5039535Y3860368D01*
X5039314Y3861254D01*
X5038926Y3862140D01*
X5038372Y3863026D01*
X5037653Y3863856D01*
X5037542Y3863967D01*
X5037265Y3864188D01*
X5036822Y3864521D01*
X5036213Y3864908D01*
X5035438Y3865296D01*
X5034496Y3865628D01*
X5033444Y3865850D01*
X5032282Y3865960D01*
X5031783D01*
X5031396Y3865905D01*
X5030897Y3865850D01*
X5030344Y3865739D01*
X5029679Y3865628D01*
X5028959Y3865462D01*
X5029513Y3869615D01*
X5029790D01*
X5030011Y3869559D01*
X5030731D01*
X5031340Y3869670D01*
X5032060Y3869781D01*
X5032891Y3869947D01*
X5033832Y3870224D01*
X5034718Y3870612D01*
X5035659Y3871110D01*
X5035715D01*
X5035770Y3871165D01*
X5036047Y3871387D01*
X5036434Y3871774D01*
X5036877Y3872273D01*
X5037320Y3872993D01*
X5037708Y3873823D01*
X5037985Y3874764D01*
X5038096Y3875318D01*
Y3875927D01*
Y3875983D01*
Y3876038D01*
Y3876370D01*
X5037985Y3876813D01*
X5037874Y3877422D01*
X5037653Y3878087D01*
X5037376Y3878807D01*
X5036933Y3879526D01*
X5036324Y3880191D01*
X5036268Y3880246D01*
X5035991Y3880468D01*
X5035604Y3880745D01*
X5035106Y3881077D01*
X5034441Y3881354D01*
X5033666Y3881631D01*
X5032780Y3881852D01*
X5031783Y3881907D01*
X5031340D01*
X5030842Y3881797D01*
X5030177Y3881686D01*
X5029458Y3881464D01*
X5028738Y3881188D01*
X5027963Y3880745D01*
X5027243Y3880191D01*
X5027187Y3880135D01*
X5026966Y3879859D01*
X5026634Y3879471D01*
X5026246Y3878917D01*
X5025858Y3878197D01*
X5025471Y3877312D01*
X5025139Y3876259D01*
X5024917Y3875041D01*
X5020210Y3875872D01*
Y3875927D01*
X5020266Y3876093D01*
X5020321Y3876315D01*
X5020377Y3876647D01*
X5020487Y3877035D01*
X5020653Y3877478D01*
X5020986Y3878530D01*
X5021539Y3879748D01*
X5022204Y3880966D01*
X5023034Y3882129D01*
X5024086Y3883181D01*
X5024142Y3883236D01*
X5024253Y3883292D01*
X5024419Y3883402D01*
X5024640Y3883569D01*
X5024917Y3883790D01*
X5025305Y3884012D01*
X5025692Y3884233D01*
X5026191Y3884510D01*
X5027298Y3884953D01*
X5028572Y3885396D01*
X5030067Y3885673D01*
X5030842Y3885783D01*
X5032226D01*
X5032835Y3885728D01*
D02*
G37*
G36*
X5001218Y3885562D02*
X5001716D01*
X5002879Y3885507D01*
X5004097Y3885340D01*
X5005426Y3885174D01*
X5006644Y3884897D01*
X5007253Y3884731D01*
X5007752Y3884565D01*
X5007807D01*
X5007862Y3884510D01*
X5008195Y3884344D01*
X5008693Y3884122D01*
X5009302Y3883735D01*
X5009967Y3883236D01*
X5010686Y3882572D01*
X5011351Y3881797D01*
X5012015Y3880911D01*
Y3880855D01*
X5012071Y3880800D01*
X5012292Y3880468D01*
X5012514Y3879914D01*
X5012846Y3879194D01*
X5013123Y3878364D01*
X5013400Y3877367D01*
X5013566Y3876315D01*
X5013621Y3875152D01*
Y3875097D01*
Y3874986D01*
Y3874764D01*
X5013566Y3874488D01*
Y3874100D01*
X5013510Y3873712D01*
X5013289Y3872771D01*
X5012957Y3871664D01*
X5012514Y3870501D01*
X5011849Y3869338D01*
X5011406Y3868784D01*
X5010963Y3868231D01*
X5010908Y3868175D01*
X5010853Y3868120D01*
X5010686Y3867954D01*
X5010465Y3867788D01*
X5010188Y3867566D01*
X5009856Y3867345D01*
X5009413Y3867068D01*
X5008970Y3866735D01*
X5008416Y3866459D01*
X5007807Y3866182D01*
X5007143Y3865850D01*
X5006423Y3865573D01*
X5005592Y3865351D01*
X5004762Y3865074D01*
X5003820Y3864908D01*
X5002824Y3864742D01*
X5002934Y3864687D01*
X5003156Y3864576D01*
X5003488Y3864354D01*
X5003931Y3864133D01*
X5004928Y3863524D01*
X5005426Y3863136D01*
X5005869Y3862804D01*
X5005980Y3862693D01*
X5006257Y3862416D01*
X5006700Y3861973D01*
X5007253Y3861420D01*
X5007862Y3860645D01*
X5008582Y3859814D01*
X5009302Y3858817D01*
X5010077Y3857710D01*
X5016667Y3847300D01*
X5010354D01*
X5005315Y3855273D01*
Y3855329D01*
X5005205Y3855440D01*
X5005094Y3855606D01*
X5004928Y3855827D01*
X5004540Y3856436D01*
X5004042Y3857211D01*
X5003433Y3858042D01*
X5002824Y3858928D01*
X5002215Y3859759D01*
X5001661Y3860534D01*
X5001605Y3860589D01*
X5001439Y3860811D01*
X5001162Y3861143D01*
X5000775Y3861531D01*
X4999944Y3862361D01*
X4999501Y3862749D01*
X4999058Y3863081D01*
X4999003Y3863136D01*
X4998892Y3863192D01*
X4998671Y3863302D01*
X4998338Y3863469D01*
X4998006Y3863635D01*
X4997619Y3863801D01*
X4996733Y3864078D01*
X4996677D01*
X4996567Y3864133D01*
X4996345D01*
X4996068Y3864188D01*
X4995681Y3864244D01*
X4995238D01*
X4994629Y3864299D01*
X4988095D01*
Y3847300D01*
X4983000D01*
Y3885617D01*
X5000775D01*
X5001218Y3885562D01*
D02*
G37*
G36*
X2755617Y3419225D02*
X2755562Y3418782D01*
Y3418284D01*
X2755507Y3417121D01*
X2755340Y3415903D01*
X2755174Y3414574D01*
X2754897Y3413356D01*
X2754731Y3412747D01*
X2754565Y3412248D01*
Y3412193D01*
X2754510Y3412137D01*
X2754344Y3411805D01*
X2754122Y3411307D01*
X2753735Y3410698D01*
X2753236Y3410033D01*
X2752572Y3409313D01*
X2751797Y3408649D01*
X2750911Y3407985D01*
X2750855D01*
X2750800Y3407929D01*
X2750468Y3407708D01*
X2749914Y3407486D01*
X2749194Y3407154D01*
X2748364Y3406877D01*
X2747367Y3406600D01*
X2746315Y3406434D01*
X2745152Y3406379D01*
X2745097D01*
X2744986D01*
X2744764D01*
X2744488Y3406434D01*
X2744100D01*
X2743712Y3406490D01*
X2742771Y3406711D01*
X2741664Y3407043D01*
X2740501Y3407486D01*
X2739338Y3408151D01*
X2738784Y3408594D01*
X2738230Y3409037D01*
X2738175Y3409092D01*
X2738120Y3409147D01*
X2737954Y3409313D01*
X2737788Y3409535D01*
X2737566Y3409812D01*
X2737345Y3410144D01*
X2737068Y3410587D01*
X2736735Y3411030D01*
X2736459Y3411584D01*
X2736182Y3412193D01*
X2735849Y3412857D01*
X2735573Y3413577D01*
X2735351Y3414408D01*
X2735074Y3415238D01*
X2734908Y3416180D01*
X2734742Y3417176D01*
X2734687Y3417066D01*
X2734576Y3416844D01*
X2734354Y3416512D01*
X2734133Y3416069D01*
X2733524Y3415072D01*
X2733136Y3414574D01*
X2732804Y3414131D01*
X2732693Y3414020D01*
X2732416Y3413743D01*
X2731973Y3413300D01*
X2731420Y3412747D01*
X2730645Y3412137D01*
X2729814Y3411418D01*
X2728817Y3410698D01*
X2727710Y3409923D01*
X2717300Y3403333D01*
Y3409646D01*
X2725273Y3414685D01*
X2725329D01*
X2725440Y3414795D01*
X2725606Y3414906D01*
X2725827Y3415072D01*
X2726436Y3415460D01*
X2727211Y3415958D01*
X2728042Y3416567D01*
X2728928Y3417176D01*
X2729759Y3417785D01*
X2730534Y3418339D01*
X2730589Y3418394D01*
X2730811Y3418561D01*
X2731143Y3418837D01*
X2731530Y3419225D01*
X2732361Y3420056D01*
X2732749Y3420499D01*
X2733081Y3420942D01*
X2733136Y3420997D01*
X2733192Y3421108D01*
X2733302Y3421329D01*
X2733468Y3421661D01*
X2733635Y3421994D01*
X2733801Y3422381D01*
X2734078Y3423267D01*
Y3423323D01*
X2734133Y3423433D01*
Y3423655D01*
X2734188Y3423932D01*
X2734244Y3424319D01*
Y3424762D01*
X2734299Y3425371D01*
Y3431905D01*
X2717300D01*
Y3436999D01*
X2755617D01*
Y3419225D01*
D02*
G37*
G36*
X2728042Y3395581D02*
X2727987D01*
X2727876Y3395526D01*
X2727654Y3395470D01*
X2727378Y3395415D01*
X2727045Y3395360D01*
X2726658Y3395249D01*
X2725827Y3394972D01*
X2724830Y3394585D01*
X2723889Y3394086D01*
X2723003Y3393532D01*
X2722228Y3392868D01*
X2722173Y3392757D01*
X2721951Y3392536D01*
X2721674Y3392093D01*
X2721397Y3391539D01*
X2721065Y3390875D01*
X2720788Y3390044D01*
X2720567Y3389103D01*
X2720511Y3388106D01*
Y3387774D01*
X2720567Y3387552D01*
X2720622Y3386943D01*
X2720788Y3386168D01*
X2721065Y3385282D01*
X2721453Y3384341D01*
X2722006Y3383399D01*
X2722782Y3382513D01*
X2722892Y3382403D01*
X2723225Y3382126D01*
X2723723Y3381794D01*
X2724387Y3381351D01*
X2725218Y3380908D01*
X2726159Y3380575D01*
X2727267Y3380299D01*
X2728485Y3380188D01*
X2728540D01*
X2728651D01*
X2728817D01*
X2729039Y3380243D01*
X2729648Y3380299D01*
X2730368Y3380465D01*
X2731254Y3380686D01*
X2732140Y3381074D01*
X2733026Y3381627D01*
X2733856Y3382347D01*
X2733967Y3382458D01*
X2734188Y3382735D01*
X2734521Y3383178D01*
X2734908Y3383787D01*
X2735296Y3384562D01*
X2735628Y3385504D01*
X2735849Y3386556D01*
X2735960Y3387718D01*
Y3388217D01*
X2735905Y3388604D01*
X2735849Y3389103D01*
X2735739Y3389656D01*
X2735628Y3390321D01*
X2735462Y3391041D01*
X2739615Y3390487D01*
Y3390210D01*
X2739559Y3389989D01*
Y3389269D01*
X2739670Y3388660D01*
X2739781Y3387940D01*
X2739947Y3387109D01*
X2740224Y3386168D01*
X2740611Y3385282D01*
X2741110Y3384341D01*
Y3384285D01*
X2741165Y3384230D01*
X2741387Y3383953D01*
X2741774Y3383565D01*
X2742273Y3383123D01*
X2742992Y3382680D01*
X2743823Y3382292D01*
X2744764Y3382015D01*
X2745318Y3381904D01*
X2745927D01*
X2745983D01*
X2746038D01*
X2746370D01*
X2746813Y3382015D01*
X2747422Y3382126D01*
X2748087Y3382347D01*
X2748807Y3382624D01*
X2749526Y3383067D01*
X2750191Y3383676D01*
X2750246Y3383732D01*
X2750468Y3384008D01*
X2750745Y3384396D01*
X2751077Y3384894D01*
X2751354Y3385559D01*
X2751631Y3386334D01*
X2751852Y3387220D01*
X2751907Y3388217D01*
Y3388660D01*
X2751797Y3389158D01*
X2751686Y3389823D01*
X2751464Y3390542D01*
X2751188Y3391262D01*
X2750745Y3392037D01*
X2750191Y3392757D01*
X2750135Y3392813D01*
X2749859Y3393034D01*
X2749471Y3393366D01*
X2748917Y3393754D01*
X2748197Y3394142D01*
X2747311Y3394529D01*
X2746259Y3394861D01*
X2745041Y3395083D01*
X2745872Y3399789D01*
X2745927D01*
X2746093Y3399734D01*
X2746315Y3399679D01*
X2746647Y3399623D01*
X2747035Y3399513D01*
X2747478Y3399347D01*
X2748530Y3399014D01*
X2749748Y3398461D01*
X2750966Y3397796D01*
X2752129Y3396966D01*
X2753181Y3395913D01*
X2753236Y3395858D01*
X2753292Y3395747D01*
X2753402Y3395581D01*
X2753569Y3395360D01*
X2753790Y3395083D01*
X2754012Y3394695D01*
X2754233Y3394308D01*
X2754510Y3393809D01*
X2754953Y3392702D01*
X2755396Y3391428D01*
X2755673Y3389933D01*
X2755783Y3389158D01*
Y3387774D01*
X2755728Y3387165D01*
X2755617Y3386445D01*
X2755451Y3385559D01*
X2755174Y3384562D01*
X2754842Y3383565D01*
X2754399Y3382569D01*
Y3382513D01*
X2754344Y3382458D01*
X2754178Y3382126D01*
X2753845Y3381627D01*
X2753458Y3381074D01*
X2752904Y3380409D01*
X2752295Y3379745D01*
X2751575Y3379080D01*
X2750745Y3378527D01*
X2750634Y3378471D01*
X2750357Y3378305D01*
X2749859Y3378084D01*
X2749250Y3377807D01*
X2748530Y3377530D01*
X2747699Y3377308D01*
X2746758Y3377142D01*
X2745816Y3377087D01*
X2745706D01*
X2745373D01*
X2744931Y3377142D01*
X2744321Y3377253D01*
X2743602Y3377419D01*
X2742826Y3377696D01*
X2742051Y3378028D01*
X2741276Y3378471D01*
X2741165Y3378527D01*
X2740944Y3378693D01*
X2740556Y3379025D01*
X2740113Y3379468D01*
X2739615Y3380022D01*
X2739061Y3380686D01*
X2738563Y3381461D01*
X2738064Y3382403D01*
Y3382347D01*
X2738009Y3382237D01*
X2737954Y3382070D01*
X2737898Y3381849D01*
X2737677Y3381240D01*
X2737345Y3380465D01*
X2736902Y3379579D01*
X2736348Y3378693D01*
X2735628Y3377862D01*
X2734797Y3377087D01*
X2734687Y3377032D01*
X2734354Y3376810D01*
X2733801Y3376478D01*
X2733081Y3376146D01*
X2732195Y3375813D01*
X2731143Y3375481D01*
X2729925Y3375260D01*
X2728596Y3375204D01*
X2728540D01*
X2728374D01*
X2728097D01*
X2727765Y3375260D01*
X2727322Y3375315D01*
X2726824Y3375426D01*
X2726270Y3375537D01*
X2725661Y3375647D01*
X2724332Y3376090D01*
X2723612Y3376423D01*
X2722948Y3376755D01*
X2722228Y3377198D01*
X2721508Y3377696D01*
X2720788Y3378250D01*
X2720124Y3378914D01*
X2720068Y3378970D01*
X2719958Y3379080D01*
X2719792Y3379302D01*
X2719570Y3379579D01*
X2719293Y3379911D01*
X2719016Y3380354D01*
X2718684Y3380852D01*
X2718407Y3381461D01*
X2718075Y3382070D01*
X2717743Y3382790D01*
X2717466Y3383510D01*
X2717189Y3384341D01*
X2716968Y3385227D01*
X2716802Y3386168D01*
X2716691Y3387109D01*
X2716635Y3388161D01*
Y3388660D01*
X2716691Y3388992D01*
X2716746Y3389435D01*
X2716802Y3389933D01*
X2716912Y3390487D01*
X2717023Y3391096D01*
X2717355Y3392425D01*
X2717909Y3393809D01*
X2718241Y3394529D01*
X2718629Y3395194D01*
X2719127Y3395858D01*
X2719625Y3396523D01*
X2719681Y3396578D01*
X2719792Y3396689D01*
X2719958Y3396855D01*
X2720179Y3397021D01*
X2720456Y3397298D01*
X2720844Y3397575D01*
X2721231Y3397907D01*
X2721730Y3398239D01*
X2722283Y3398571D01*
X2722837Y3398904D01*
X2724166Y3399513D01*
X2725716Y3400011D01*
X2726547Y3400177D01*
X2727433Y3400288D01*
X2728042Y3395581D01*
D02*
G37*
G36*
X2755119Y3345414D02*
X2751409D01*
X2751354Y3345470D01*
X2751243Y3345580D01*
X2751021Y3345802D01*
X2750689Y3346023D01*
X2750302Y3346356D01*
X2749859Y3346798D01*
X2749305Y3347241D01*
X2748640Y3347740D01*
X2747976Y3348238D01*
X2747201Y3348847D01*
X2746315Y3349456D01*
X2745429Y3350065D01*
X2744432Y3350730D01*
X2743380Y3351394D01*
X2742217Y3352059D01*
X2741054Y3352723D01*
X2740999Y3352779D01*
X2740778Y3352889D01*
X2740445Y3353056D01*
X2739947Y3353332D01*
X2739338Y3353609D01*
X2738673Y3353941D01*
X2737898Y3354329D01*
X2737012Y3354717D01*
X2736016Y3355160D01*
X2735019Y3355658D01*
X2733911Y3356101D01*
X2732749Y3356544D01*
X2730368Y3357430D01*
X2727821Y3358260D01*
X2727765D01*
X2727599Y3358316D01*
X2727322Y3358371D01*
X2726990Y3358482D01*
X2726547Y3358593D01*
X2725993Y3358703D01*
X2725384Y3358870D01*
X2724720Y3358980D01*
X2723945Y3359146D01*
X2723114Y3359313D01*
X2721342Y3359589D01*
X2719404Y3359866D01*
X2717300Y3360032D01*
Y3364850D01*
X2717355D01*
X2717521D01*
X2717743D01*
X2718075Y3364794D01*
X2718518D01*
X2719072Y3364739D01*
X2719681Y3364684D01*
X2720345Y3364628D01*
X2721121Y3364518D01*
X2721896Y3364407D01*
X2722837Y3364241D01*
X2723778Y3364075D01*
X2724775Y3363908D01*
X2725883Y3363687D01*
X2728153Y3363133D01*
X2728208D01*
X2728430Y3363078D01*
X2728762Y3362967D01*
X2729260Y3362801D01*
X2729814Y3362635D01*
X2730478Y3362413D01*
X2731254Y3362192D01*
X2732084Y3361860D01*
X2733026Y3361527D01*
X2733967Y3361195D01*
X2736071Y3360365D01*
X2738286Y3359368D01*
X2740501Y3358260D01*
X2740556Y3358205D01*
X2740778Y3358094D01*
X2741054Y3357928D01*
X2741497Y3357707D01*
X2741996Y3357430D01*
X2742605Y3357042D01*
X2743269Y3356655D01*
X2743989Y3356212D01*
X2745595Y3355160D01*
X2747256Y3354052D01*
X2748973Y3352779D01*
X2750578Y3351450D01*
Y3370221D01*
X2755119D01*
Y3345414D01*
D02*
G37*
G36*
X2755617Y3029225D02*
X2755562Y3028782D01*
Y3028284D01*
X2755507Y3027121D01*
X2755340Y3025903D01*
X2755174Y3024574D01*
X2754897Y3023356D01*
X2754731Y3022747D01*
X2754565Y3022248D01*
Y3022193D01*
X2754510Y3022137D01*
X2754344Y3021805D01*
X2754122Y3021307D01*
X2753735Y3020698D01*
X2753236Y3020033D01*
X2752572Y3019313D01*
X2751797Y3018649D01*
X2750911Y3017985D01*
X2750855D01*
X2750800Y3017929D01*
X2750468Y3017708D01*
X2749914Y3017486D01*
X2749194Y3017154D01*
X2748364Y3016877D01*
X2747367Y3016600D01*
X2746315Y3016434D01*
X2745152Y3016379D01*
X2745097D01*
X2744986D01*
X2744764D01*
X2744488Y3016434D01*
X2744100D01*
X2743712Y3016490D01*
X2742771Y3016711D01*
X2741664Y3017043D01*
X2740501Y3017486D01*
X2739338Y3018151D01*
X2738784Y3018594D01*
X2738230Y3019037D01*
X2738175Y3019092D01*
X2738120Y3019147D01*
X2737954Y3019313D01*
X2737788Y3019535D01*
X2737566Y3019812D01*
X2737345Y3020144D01*
X2737068Y3020587D01*
X2736735Y3021030D01*
X2736459Y3021584D01*
X2736182Y3022193D01*
X2735849Y3022857D01*
X2735573Y3023577D01*
X2735351Y3024408D01*
X2735074Y3025238D01*
X2734908Y3026180D01*
X2734742Y3027176D01*
X2734687Y3027066D01*
X2734576Y3026844D01*
X2734354Y3026512D01*
X2734133Y3026069D01*
X2733524Y3025072D01*
X2733136Y3024574D01*
X2732804Y3024131D01*
X2732693Y3024020D01*
X2732416Y3023743D01*
X2731973Y3023300D01*
X2731420Y3022747D01*
X2730645Y3022137D01*
X2729814Y3021418D01*
X2728817Y3020698D01*
X2727710Y3019923D01*
X2717300Y3013333D01*
Y3019646D01*
X2725273Y3024685D01*
X2725329D01*
X2725440Y3024795D01*
X2725606Y3024906D01*
X2725827Y3025072D01*
X2726436Y3025460D01*
X2727211Y3025958D01*
X2728042Y3026567D01*
X2728928Y3027176D01*
X2729759Y3027785D01*
X2730534Y3028339D01*
X2730589Y3028395D01*
X2730811Y3028561D01*
X2731143Y3028837D01*
X2731530Y3029225D01*
X2732361Y3030056D01*
X2732749Y3030499D01*
X2733081Y3030942D01*
X2733136Y3030997D01*
X2733192Y3031108D01*
X2733302Y3031329D01*
X2733468Y3031661D01*
X2733635Y3031994D01*
X2733801Y3032381D01*
X2734078Y3033267D01*
Y3033323D01*
X2734133Y3033433D01*
Y3033655D01*
X2734188Y3033932D01*
X2734244Y3034319D01*
Y3034762D01*
X2734299Y3035371D01*
Y3041905D01*
X2717300D01*
Y3046999D01*
X2755617D01*
Y3029225D01*
D02*
G37*
G36*
X2728042Y3005581D02*
X2727987D01*
X2727876Y3005526D01*
X2727654Y3005470D01*
X2727378Y3005415D01*
X2727045Y3005360D01*
X2726658Y3005249D01*
X2725827Y3004972D01*
X2724830Y3004585D01*
X2723889Y3004086D01*
X2723003Y3003532D01*
X2722228Y3002868D01*
X2722173Y3002757D01*
X2721951Y3002536D01*
X2721674Y3002093D01*
X2721397Y3001539D01*
X2721065Y3000875D01*
X2720788Y3000044D01*
X2720567Y2999103D01*
X2720511Y2998106D01*
Y2997774D01*
X2720567Y2997552D01*
X2720622Y2996943D01*
X2720788Y2996168D01*
X2721065Y2995282D01*
X2721453Y2994341D01*
X2722006Y2993399D01*
X2722782Y2992513D01*
X2722892Y2992403D01*
X2723225Y2992126D01*
X2723723Y2991794D01*
X2724387Y2991351D01*
X2725218Y2990908D01*
X2726159Y2990575D01*
X2727267Y2990299D01*
X2728485Y2990188D01*
X2728540D01*
X2728651D01*
X2728817D01*
X2729039Y2990243D01*
X2729648Y2990299D01*
X2730368Y2990465D01*
X2731254Y2990686D01*
X2732140Y2991074D01*
X2733026Y2991627D01*
X2733856Y2992347D01*
X2733967Y2992458D01*
X2734188Y2992735D01*
X2734521Y2993178D01*
X2734908Y2993787D01*
X2735296Y2994562D01*
X2735628Y2995504D01*
X2735849Y2996556D01*
X2735960Y2997718D01*
Y2998217D01*
X2735905Y2998604D01*
X2735849Y2999103D01*
X2735739Y2999656D01*
X2735628Y3000321D01*
X2735462Y3001041D01*
X2739615Y3000487D01*
Y3000210D01*
X2739559Y2999989D01*
Y2999269D01*
X2739670Y2998660D01*
X2739781Y2997940D01*
X2739947Y2997109D01*
X2740224Y2996168D01*
X2740611Y2995282D01*
X2741110Y2994341D01*
Y2994285D01*
X2741165Y2994230D01*
X2741387Y2993953D01*
X2741774Y2993566D01*
X2742273Y2993123D01*
X2742992Y2992680D01*
X2743823Y2992292D01*
X2744764Y2992015D01*
X2745318Y2991904D01*
X2745927D01*
X2745983D01*
X2746038D01*
X2746370D01*
X2746813Y2992015D01*
X2747422Y2992126D01*
X2748087Y2992347D01*
X2748807Y2992624D01*
X2749526Y2993067D01*
X2750191Y2993676D01*
X2750246Y2993732D01*
X2750468Y2994008D01*
X2750745Y2994396D01*
X2751077Y2994894D01*
X2751354Y2995559D01*
X2751631Y2996334D01*
X2751852Y2997220D01*
X2751907Y2998217D01*
Y2998660D01*
X2751797Y2999158D01*
X2751686Y2999823D01*
X2751464Y3000542D01*
X2751188Y3001262D01*
X2750745Y3002037D01*
X2750191Y3002757D01*
X2750135Y3002813D01*
X2749859Y3003034D01*
X2749471Y3003366D01*
X2748917Y3003754D01*
X2748197Y3004142D01*
X2747311Y3004529D01*
X2746259Y3004861D01*
X2745041Y3005083D01*
X2745872Y3009790D01*
X2745927D01*
X2746093Y3009734D01*
X2746315Y3009679D01*
X2746647Y3009623D01*
X2747035Y3009513D01*
X2747478Y3009347D01*
X2748530Y3009014D01*
X2749748Y3008461D01*
X2750966Y3007796D01*
X2752129Y3006966D01*
X2753181Y3005913D01*
X2753236Y3005858D01*
X2753292Y3005747D01*
X2753402Y3005581D01*
X2753569Y3005360D01*
X2753790Y3005083D01*
X2754012Y3004695D01*
X2754233Y3004308D01*
X2754510Y3003809D01*
X2754953Y3002702D01*
X2755396Y3001428D01*
X2755673Y2999933D01*
X2755783Y2999158D01*
Y2997774D01*
X2755728Y2997165D01*
X2755617Y2996445D01*
X2755451Y2995559D01*
X2755174Y2994562D01*
X2754842Y2993566D01*
X2754399Y2992569D01*
Y2992513D01*
X2754344Y2992458D01*
X2754178Y2992126D01*
X2753845Y2991627D01*
X2753458Y2991074D01*
X2752904Y2990409D01*
X2752295Y2989745D01*
X2751575Y2989080D01*
X2750745Y2988527D01*
X2750634Y2988471D01*
X2750357Y2988305D01*
X2749859Y2988084D01*
X2749250Y2987807D01*
X2748530Y2987530D01*
X2747699Y2987308D01*
X2746758Y2987142D01*
X2745816Y2987087D01*
X2745706D01*
X2745373D01*
X2744931Y2987142D01*
X2744321Y2987253D01*
X2743602Y2987419D01*
X2742826Y2987696D01*
X2742051Y2988028D01*
X2741276Y2988471D01*
X2741165Y2988527D01*
X2740944Y2988693D01*
X2740556Y2989025D01*
X2740113Y2989468D01*
X2739615Y2990022D01*
X2739061Y2990686D01*
X2738563Y2991461D01*
X2738064Y2992403D01*
Y2992347D01*
X2738009Y2992237D01*
X2737954Y2992070D01*
X2737898Y2991849D01*
X2737677Y2991240D01*
X2737345Y2990465D01*
X2736902Y2989579D01*
X2736348Y2988693D01*
X2735628Y2987862D01*
X2734797Y2987087D01*
X2734687Y2987032D01*
X2734354Y2986810D01*
X2733801Y2986478D01*
X2733081Y2986146D01*
X2732195Y2985813D01*
X2731143Y2985481D01*
X2729925Y2985260D01*
X2728596Y2985204D01*
X2728540D01*
X2728374D01*
X2728097D01*
X2727765Y2985260D01*
X2727322Y2985315D01*
X2726824Y2985426D01*
X2726270Y2985537D01*
X2725661Y2985647D01*
X2724332Y2986090D01*
X2723612Y2986423D01*
X2722948Y2986755D01*
X2722228Y2987198D01*
X2721508Y2987696D01*
X2720788Y2988250D01*
X2720124Y2988914D01*
X2720068Y2988970D01*
X2719958Y2989080D01*
X2719792Y2989302D01*
X2719570Y2989579D01*
X2719293Y2989911D01*
X2719016Y2990354D01*
X2718684Y2990852D01*
X2718407Y2991461D01*
X2718075Y2992070D01*
X2717743Y2992790D01*
X2717466Y2993510D01*
X2717189Y2994341D01*
X2716968Y2995227D01*
X2716802Y2996168D01*
X2716691Y2997109D01*
X2716635Y2998161D01*
Y2998660D01*
X2716691Y2998992D01*
X2716746Y2999435D01*
X2716802Y2999933D01*
X2716912Y3000487D01*
X2717023Y3001096D01*
X2717355Y3002425D01*
X2717909Y3003809D01*
X2718241Y3004529D01*
X2718629Y3005194D01*
X2719127Y3005858D01*
X2719625Y3006523D01*
X2719681Y3006578D01*
X2719792Y3006689D01*
X2719958Y3006855D01*
X2720179Y3007021D01*
X2720456Y3007298D01*
X2720844Y3007575D01*
X2721231Y3007907D01*
X2721730Y3008239D01*
X2722283Y3008571D01*
X2722837Y3008904D01*
X2724166Y3009513D01*
X2725716Y3010011D01*
X2726547Y3010177D01*
X2727433Y3010288D01*
X2728042Y3005581D01*
D02*
G37*
G36*
X2743768Y2980498D02*
X2744266Y2980442D01*
X2744875Y2980387D01*
X2745484Y2980276D01*
X2746204Y2980110D01*
X2747644Y2979723D01*
X2748419Y2979446D01*
X2749250Y2979113D01*
X2750025Y2978726D01*
X2750745Y2978227D01*
X2751520Y2977729D01*
X2752184Y2977120D01*
X2752240Y2977065D01*
X2752350Y2976954D01*
X2752516Y2976788D01*
X2752738Y2976511D01*
X2753015Y2976179D01*
X2753347Y2975736D01*
X2753624Y2975293D01*
X2754012Y2974739D01*
X2754344Y2974185D01*
X2754621Y2973521D01*
X2755230Y2972026D01*
X2755451Y2971251D01*
X2755617Y2970365D01*
X2755728Y2969479D01*
X2755783Y2968537D01*
Y2968150D01*
X2755728Y2967873D01*
Y2967596D01*
X2755673Y2967208D01*
X2755507Y2966267D01*
X2755285Y2965215D01*
X2754897Y2964052D01*
X2754399Y2962889D01*
X2753735Y2961727D01*
Y2961671D01*
X2753624Y2961616D01*
X2753513Y2961450D01*
X2753347Y2961228D01*
X2752904Y2960675D01*
X2752295Y2959955D01*
X2751464Y2959235D01*
X2750468Y2958404D01*
X2749305Y2957684D01*
X2747976Y2957020D01*
X2747921D01*
X2747810Y2956965D01*
X2747588Y2956854D01*
X2747311Y2956743D01*
X2746924Y2956632D01*
X2746426Y2956466D01*
X2745872Y2956356D01*
X2745263Y2956189D01*
X2744543Y2956023D01*
X2743712Y2955857D01*
X2742826Y2955746D01*
X2741885Y2955636D01*
X2740833Y2955525D01*
X2739726Y2955414D01*
X2738507Y2955359D01*
X2737234D01*
X2737178D01*
X2736902D01*
X2736514D01*
X2736016D01*
X2735407Y2955414D01*
X2734687D01*
X2733856Y2955470D01*
X2733026Y2955580D01*
X2731143Y2955746D01*
X2729149Y2956023D01*
X2727267Y2956411D01*
X2726326Y2956688D01*
X2725495Y2956965D01*
X2725440D01*
X2725329Y2957020D01*
X2725107Y2957131D01*
X2724775Y2957241D01*
X2724443Y2957408D01*
X2724000Y2957629D01*
X2723059Y2958183D01*
X2722006Y2958847D01*
X2720899Y2959622D01*
X2719847Y2960619D01*
X2718906Y2961727D01*
Y2961782D01*
X2718795Y2961893D01*
X2718684Y2962059D01*
X2718573Y2962280D01*
X2718407Y2962613D01*
X2718186Y2962945D01*
X2717964Y2963388D01*
X2717798Y2963831D01*
X2717355Y2964883D01*
X2716968Y2966156D01*
X2716746Y2967541D01*
X2716635Y2969091D01*
Y2969534D01*
X2716691Y2969811D01*
Y2970199D01*
X2716746Y2970642D01*
X2716968Y2971694D01*
X2717245Y2972856D01*
X2717687Y2974075D01*
X2718297Y2975293D01*
X2718684Y2975902D01*
X2719127Y2976456D01*
X2719183Y2976511D01*
X2719238Y2976566D01*
X2719404Y2976732D01*
X2719570Y2976899D01*
X2719847Y2977120D01*
X2720179Y2977397D01*
X2720954Y2977951D01*
X2721951Y2978504D01*
X2723169Y2979058D01*
X2724554Y2979501D01*
X2726159Y2979833D01*
X2726547Y2975293D01*
X2726492D01*
X2726381Y2975237D01*
X2726270D01*
X2726049Y2975182D01*
X2725440Y2975016D01*
X2724775Y2974794D01*
X2724000Y2974518D01*
X2723225Y2974130D01*
X2722505Y2973687D01*
X2721896Y2973133D01*
X2721840Y2973078D01*
X2721674Y2972856D01*
X2721453Y2972469D01*
X2721231Y2972026D01*
X2720954Y2971417D01*
X2720733Y2970697D01*
X2720567Y2969866D01*
X2720511Y2968980D01*
Y2968593D01*
X2720567Y2968205D01*
X2720622Y2967707D01*
X2720733Y2967098D01*
X2720899Y2966489D01*
X2721121Y2965824D01*
X2721453Y2965215D01*
X2721508Y2965160D01*
X2721619Y2964938D01*
X2721840Y2964606D01*
X2722173Y2964274D01*
X2722560Y2963831D01*
X2723003Y2963388D01*
X2723502Y2962945D01*
X2724111Y2962502D01*
X2724166Y2962446D01*
X2724443Y2962336D01*
X2724830Y2962114D01*
X2725329Y2961893D01*
X2725993Y2961616D01*
X2726768Y2961339D01*
X2727654Y2961062D01*
X2728651Y2960785D01*
X2728707D01*
X2728762Y2960730D01*
X2728928D01*
X2729149Y2960675D01*
X2729703Y2960564D01*
X2730423Y2960398D01*
X2731309Y2960287D01*
X2732250Y2960176D01*
X2733302Y2960121D01*
X2734410Y2960065D01*
X2734465D01*
X2734631D01*
X2734908D01*
X2735351D01*
X2735240Y2960121D01*
X2734964Y2960342D01*
X2734576Y2960675D01*
X2734022Y2961062D01*
X2733468Y2961616D01*
X2732859Y2962280D01*
X2732250Y2963056D01*
X2731697Y2963941D01*
X2731641Y2964052D01*
X2731475Y2964384D01*
X2731254Y2964883D01*
X2731032Y2965492D01*
X2730755Y2966322D01*
X2730534Y2967208D01*
X2730368Y2968205D01*
X2730312Y2969257D01*
Y2969700D01*
X2730368Y2970032D01*
X2730423Y2970475D01*
X2730478Y2970918D01*
X2730589Y2971472D01*
X2730755Y2972026D01*
X2731143Y2973299D01*
X2731420Y2973964D01*
X2731752Y2974628D01*
X2732140Y2975348D01*
X2732638Y2976013D01*
X2733136Y2976677D01*
X2733745Y2977286D01*
X2733801Y2977342D01*
X2733911Y2977452D01*
X2734078Y2977563D01*
X2734354Y2977784D01*
X2734742Y2978061D01*
X2735130Y2978338D01*
X2735628Y2978615D01*
X2736182Y2978892D01*
X2736791Y2979224D01*
X2737455Y2979501D01*
X2738230Y2979778D01*
X2739006Y2980055D01*
X2739892Y2980276D01*
X2740833Y2980387D01*
X2741774Y2980498D01*
X2742826Y2980553D01*
X2742882D01*
X2743103D01*
X2743380D01*
X2743768Y2980498D01*
D02*
G37*
G36*
X2755617Y2649225D02*
X2755562Y2648782D01*
Y2648284D01*
X2755506Y2647121D01*
X2755340Y2645903D01*
X2755174Y2644574D01*
X2754897Y2643356D01*
X2754731Y2642747D01*
X2754565Y2642248D01*
Y2642193D01*
X2754510Y2642138D01*
X2754343Y2641805D01*
X2754122Y2641307D01*
X2753734Y2640698D01*
X2753236Y2640034D01*
X2752572Y2639314D01*
X2751796Y2638649D01*
X2750910Y2637985D01*
X2750855D01*
X2750800Y2637929D01*
X2750467Y2637708D01*
X2749914Y2637486D01*
X2749194Y2637154D01*
X2748363Y2636877D01*
X2747367Y2636601D01*
X2746315Y2636434D01*
X2745152Y2636379D01*
X2745096D01*
X2744986D01*
X2744764D01*
X2744487Y2636434D01*
X2744100D01*
X2743712Y2636490D01*
X2742771Y2636711D01*
X2741663Y2637043D01*
X2740500Y2637486D01*
X2739338Y2638151D01*
X2738784Y2638594D01*
X2738230Y2639037D01*
X2738175Y2639092D01*
X2738119Y2639148D01*
X2737953Y2639314D01*
X2737787Y2639535D01*
X2737566Y2639812D01*
X2737344Y2640144D01*
X2737067Y2640587D01*
X2736735Y2641030D01*
X2736458Y2641584D01*
X2736181Y2642193D01*
X2735849Y2642858D01*
X2735572Y2643577D01*
X2735351Y2644408D01*
X2735074Y2645239D01*
X2734908Y2646180D01*
X2734742Y2647177D01*
X2734686Y2647066D01*
X2734576Y2646844D01*
X2734354Y2646512D01*
X2734133Y2646069D01*
X2733524Y2645072D01*
X2733136Y2644574D01*
X2732804Y2644131D01*
X2732693Y2644020D01*
X2732416Y2643744D01*
X2731973Y2643301D01*
X2731419Y2642747D01*
X2730644Y2642138D01*
X2729814Y2641418D01*
X2728817Y2640698D01*
X2727710Y2639923D01*
X2717300Y2633334D01*
Y2639646D01*
X2725273Y2644685D01*
X2725329D01*
X2725439Y2644796D01*
X2725605Y2644906D01*
X2725827Y2645072D01*
X2726436Y2645460D01*
X2727211Y2645958D01*
X2728042Y2646567D01*
X2728928Y2647177D01*
X2729758Y2647786D01*
X2730534Y2648339D01*
X2730589Y2648395D01*
X2730810Y2648561D01*
X2731143Y2648838D01*
X2731530Y2649225D01*
X2732361Y2650056D01*
X2732748Y2650499D01*
X2733081Y2650942D01*
X2733136Y2650997D01*
X2733191Y2651108D01*
X2733302Y2651329D01*
X2733468Y2651662D01*
X2733634Y2651994D01*
X2733800Y2652382D01*
X2734077Y2653267D01*
Y2653323D01*
X2734133Y2653434D01*
Y2653655D01*
X2734188Y2653932D01*
X2734243Y2654320D01*
Y2654763D01*
X2734299Y2655372D01*
Y2661906D01*
X2717300D01*
Y2667000D01*
X2755617D01*
Y2649225D01*
D02*
G37*
G36*
Y2614396D02*
Y2610576D01*
X2730810D01*
Y2605371D01*
X2726491D01*
Y2610576D01*
X2717300D01*
Y2615282D01*
X2726491D01*
Y2631949D01*
X2730810D01*
X2755617Y2614396D01*
D02*
G37*
G36*
X2737898Y2600498D02*
X2738562D01*
X2739282Y2600443D01*
X2740113Y2600387D01*
X2741829Y2600221D01*
X2743657Y2599944D01*
X2745484Y2599612D01*
X2746315Y2599391D01*
X2747145Y2599169D01*
X2747200D01*
X2747311Y2599114D01*
X2747533Y2599003D01*
X2747810Y2598892D01*
X2748197Y2598781D01*
X2748585Y2598560D01*
X2749526Y2598117D01*
X2750523Y2597563D01*
X2751575Y2596843D01*
X2752627Y2596013D01*
X2753513Y2595016D01*
Y2594961D01*
X2753624Y2594905D01*
X2753734Y2594739D01*
X2753845Y2594518D01*
X2754067Y2594241D01*
X2754233Y2593909D01*
X2754676Y2593078D01*
X2755063Y2592081D01*
X2755451Y2590919D01*
X2755672Y2589534D01*
X2755783Y2588039D01*
Y2587541D01*
X2755728Y2586932D01*
X2755617Y2586212D01*
X2755451Y2585381D01*
X2755229Y2584495D01*
X2754953Y2583554D01*
X2754510Y2582668D01*
Y2582613D01*
X2754454Y2582557D01*
X2754288Y2582281D01*
X2754011Y2581838D01*
X2753624Y2581284D01*
X2753070Y2580675D01*
X2752461Y2580010D01*
X2751741Y2579401D01*
X2750910Y2578792D01*
X2750800Y2578737D01*
X2750523Y2578515D01*
X2750024Y2578294D01*
X2749305Y2577906D01*
X2748474Y2577574D01*
X2747533Y2577131D01*
X2746425Y2576743D01*
X2745207Y2576411D01*
X2745152D01*
X2745041Y2576356D01*
X2744875Y2576300D01*
X2744598Y2576245D01*
X2744266Y2576190D01*
X2743878Y2576134D01*
X2743380Y2576024D01*
X2742826Y2575968D01*
X2742217Y2575857D01*
X2741553Y2575802D01*
X2740777Y2575747D01*
X2740002Y2575636D01*
X2739116Y2575581D01*
X2738230D01*
X2737234Y2575525D01*
X2736181D01*
X2736126D01*
X2735905D01*
X2735517D01*
X2735074D01*
X2734465Y2575581D01*
X2733800D01*
X2733081Y2575636D01*
X2732305Y2575691D01*
X2730534Y2575857D01*
X2728706Y2576134D01*
X2726934Y2576467D01*
X2726104Y2576688D01*
X2725273Y2576965D01*
X2725218D01*
X2725107Y2577020D01*
X2724886Y2577131D01*
X2724609Y2577242D01*
X2724221Y2577352D01*
X2723834Y2577574D01*
X2722892Y2578017D01*
X2721895Y2578571D01*
X2720788Y2579290D01*
X2719791Y2580121D01*
X2718850Y2581118D01*
Y2581173D01*
X2718739Y2581229D01*
X2718629Y2581395D01*
X2718518Y2581616D01*
X2718352Y2581893D01*
X2718130Y2582170D01*
X2717743Y2583000D01*
X2717355Y2583997D01*
X2716967Y2585160D01*
X2716746Y2586544D01*
X2716635Y2588039D01*
Y2588593D01*
X2716691Y2588981D01*
X2716746Y2589424D01*
X2716857Y2589977D01*
X2716967Y2590586D01*
X2717134Y2591251D01*
X2717355Y2591915D01*
X2717576Y2592635D01*
X2717909Y2593355D01*
X2718296Y2594075D01*
X2718739Y2594795D01*
X2719293Y2595514D01*
X2719902Y2596179D01*
X2720567Y2596788D01*
X2720622Y2596843D01*
X2720788Y2596954D01*
X2721065Y2597120D01*
X2721508Y2597397D01*
X2722006Y2597674D01*
X2722671Y2597951D01*
X2723446Y2598338D01*
X2724332Y2598671D01*
X2725329Y2599003D01*
X2726491Y2599335D01*
X2727765Y2599667D01*
X2729205Y2599944D01*
X2730755Y2600221D01*
X2732416Y2600387D01*
X2734243Y2600498D01*
X2736181Y2600553D01*
X2736237D01*
X2736458D01*
X2736846D01*
X2737289D01*
X2737898Y2600498D01*
D02*
G37*
G36*
X3514666Y2404800D02*
X3509959D01*
Y2434756D01*
X3509904Y2434701D01*
X3509627Y2434479D01*
X3509295Y2434147D01*
X3508741Y2433759D01*
X3508132Y2433261D01*
X3507357Y2432707D01*
X3506471Y2432098D01*
X3505474Y2431489D01*
X3505419D01*
X3505363Y2431434D01*
X3505031Y2431212D01*
X3504477Y2430935D01*
X3503813Y2430603D01*
X3503038Y2430216D01*
X3502207Y2429828D01*
X3501377Y2429440D01*
X3500546Y2429108D01*
Y2433649D01*
X3500601D01*
X3500712Y2433759D01*
X3500934Y2433815D01*
X3501210Y2433981D01*
X3501543Y2434147D01*
X3501930Y2434369D01*
X3502872Y2434922D01*
X3503979Y2435531D01*
X3505086Y2436307D01*
X3506249Y2437192D01*
X3507412Y2438134D01*
X3507467Y2438189D01*
X3507523Y2438245D01*
X3507689Y2438411D01*
X3507910Y2438577D01*
X3508409Y2439131D01*
X3509073Y2439795D01*
X3509738Y2440570D01*
X3510458Y2441456D01*
X3511067Y2442342D01*
X3511620Y2443283D01*
X3514666D01*
Y2404800D01*
D02*
G37*
G36*
X3486924Y2418311D02*
X3492129D01*
Y2413992D01*
X3486924D01*
Y2404800D01*
X3482218D01*
Y2413992D01*
X3465551D01*
Y2418311D01*
X3483104Y2443117D01*
X3486924D01*
Y2418311D01*
D02*
G37*
G36*
X3448718Y2443062D02*
X3449216D01*
X3450379Y2443007D01*
X3451597Y2442840D01*
X3452926Y2442674D01*
X3454144Y2442397D01*
X3454753Y2442231D01*
X3455252Y2442065D01*
X3455307D01*
X3455362Y2442010D01*
X3455695Y2441844D01*
X3456193Y2441622D01*
X3456802Y2441235D01*
X3457467Y2440736D01*
X3458186Y2440072D01*
X3458851Y2439297D01*
X3459515Y2438411D01*
Y2438355D01*
X3459571Y2438300D01*
X3459792Y2437968D01*
X3460014Y2437414D01*
X3460346Y2436694D01*
X3460623Y2435864D01*
X3460900Y2434867D01*
X3461066Y2433815D01*
X3461121Y2432652D01*
Y2432597D01*
Y2432486D01*
Y2432264D01*
X3461066Y2431988D01*
Y2431600D01*
X3461010Y2431212D01*
X3460789Y2430271D01*
X3460457Y2429164D01*
X3460014Y2428001D01*
X3459349Y2426838D01*
X3458906Y2426284D01*
X3458463Y2425730D01*
X3458408Y2425675D01*
X3458352Y2425620D01*
X3458186Y2425454D01*
X3457965Y2425288D01*
X3457688Y2425066D01*
X3457356Y2424845D01*
X3456913Y2424568D01*
X3456470Y2424235D01*
X3455916Y2423959D01*
X3455307Y2423682D01*
X3454643Y2423349D01*
X3453923Y2423073D01*
X3453092Y2422851D01*
X3452262Y2422574D01*
X3451320Y2422408D01*
X3450324Y2422242D01*
X3450434Y2422187D01*
X3450656Y2422076D01*
X3450988Y2421854D01*
X3451431Y2421633D01*
X3452428Y2421024D01*
X3452926Y2420636D01*
X3453369Y2420304D01*
X3453480Y2420193D01*
X3453757Y2419916D01*
X3454200Y2419473D01*
X3454753Y2418920D01*
X3455362Y2418145D01*
X3456082Y2417314D01*
X3456802Y2416317D01*
X3457577Y2415210D01*
X3464167Y2404800D01*
X3457854D01*
X3452815Y2412773D01*
Y2412829D01*
X3452705Y2412940D01*
X3452594Y2413106D01*
X3452428Y2413327D01*
X3452040Y2413936D01*
X3451542Y2414711D01*
X3450933Y2415542D01*
X3450324Y2416428D01*
X3449714Y2417259D01*
X3449161Y2418034D01*
X3449105Y2418089D01*
X3448939Y2418311D01*
X3448662Y2418643D01*
X3448275Y2419030D01*
X3447444Y2419861D01*
X3447001Y2420249D01*
X3446558Y2420581D01*
X3446503Y2420636D01*
X3446392Y2420692D01*
X3446171Y2420802D01*
X3445838Y2420968D01*
X3445506Y2421135D01*
X3445119Y2421301D01*
X3444233Y2421578D01*
X3444177D01*
X3444067Y2421633D01*
X3443845D01*
X3443568Y2421688D01*
X3443181Y2421744D01*
X3442738D01*
X3442128Y2421799D01*
X3435595D01*
Y2404800D01*
X3430500D01*
Y2443117D01*
X3448275D01*
X3448718Y2443062D01*
D02*
G37*
G36*
X4265617Y3329225D02*
X4265562Y3328782D01*
Y3328284D01*
X4265507Y3327121D01*
X4265340Y3325903D01*
X4265174Y3324574D01*
X4264897Y3323356D01*
X4264731Y3322747D01*
X4264565Y3322248D01*
Y3322193D01*
X4264510Y3322138D01*
X4264344Y3321805D01*
X4264122Y3321307D01*
X4263735Y3320698D01*
X4263236Y3320033D01*
X4262572Y3319314D01*
X4261797Y3318649D01*
X4260911Y3317985D01*
X4260855D01*
X4260800Y3317929D01*
X4260468Y3317708D01*
X4259914Y3317486D01*
X4259194Y3317154D01*
X4258364Y3316877D01*
X4257367Y3316600D01*
X4256315Y3316434D01*
X4255152Y3316379D01*
X4255097D01*
X4254986D01*
X4254764D01*
X4254488Y3316434D01*
X4254100D01*
X4253712Y3316490D01*
X4252771Y3316711D01*
X4251664Y3317043D01*
X4250501Y3317486D01*
X4249338Y3318151D01*
X4248784Y3318594D01*
X4248231Y3319037D01*
X4248175Y3319092D01*
X4248120Y3319148D01*
X4247954Y3319314D01*
X4247788Y3319535D01*
X4247566Y3319812D01*
X4247345Y3320144D01*
X4247068Y3320587D01*
X4246735Y3321030D01*
X4246459Y3321584D01*
X4246182Y3322193D01*
X4245850Y3322857D01*
X4245573Y3323577D01*
X4245351Y3324408D01*
X4245074Y3325238D01*
X4244908Y3326180D01*
X4244742Y3327176D01*
X4244687Y3327066D01*
X4244576Y3326844D01*
X4244354Y3326512D01*
X4244133Y3326069D01*
X4243524Y3325072D01*
X4243136Y3324574D01*
X4242804Y3324131D01*
X4242693Y3324020D01*
X4242416Y3323743D01*
X4241973Y3323300D01*
X4241420Y3322747D01*
X4240645Y3322138D01*
X4239814Y3321418D01*
X4238817Y3320698D01*
X4237710Y3319923D01*
X4227300Y3313333D01*
Y3319646D01*
X4235273Y3324685D01*
X4235329D01*
X4235440Y3324795D01*
X4235606Y3324906D01*
X4235827Y3325072D01*
X4236436Y3325460D01*
X4237211Y3325958D01*
X4238042Y3326567D01*
X4238928Y3327176D01*
X4239759Y3327786D01*
X4240534Y3328339D01*
X4240589Y3328395D01*
X4240811Y3328561D01*
X4241143Y3328838D01*
X4241531Y3329225D01*
X4242361Y3330056D01*
X4242749Y3330499D01*
X4243081Y3330942D01*
X4243136Y3330997D01*
X4243192Y3331108D01*
X4243302Y3331329D01*
X4243469Y3331662D01*
X4243635Y3331994D01*
X4243801Y3332381D01*
X4244078Y3333267D01*
Y3333323D01*
X4244133Y3333434D01*
Y3333655D01*
X4244188Y3333932D01*
X4244244Y3334319D01*
Y3334762D01*
X4244299Y3335372D01*
Y3341905D01*
X4227300D01*
Y3347000D01*
X4265617D01*
Y3329225D01*
D02*
G37*
G36*
Y3294396D02*
Y3290576D01*
X4240811D01*
Y3285371D01*
X4236492D01*
Y3290576D01*
X4227300D01*
Y3295282D01*
X4236492D01*
Y3311949D01*
X4240811D01*
X4265617Y3294396D01*
D02*
G37*
G36*
X4237710Y3275625D02*
X4237654D01*
X4237544D01*
X4237378Y3275570D01*
X4237101Y3275514D01*
X4236492Y3275348D01*
X4235661Y3275127D01*
X4234830Y3274795D01*
X4233889Y3274352D01*
X4233059Y3273798D01*
X4232283Y3273133D01*
X4232228Y3273023D01*
X4232007Y3272801D01*
X4231730Y3272358D01*
X4231397Y3271749D01*
X4231065Y3271085D01*
X4230788Y3270254D01*
X4230567Y3269313D01*
X4230511Y3268261D01*
Y3267928D01*
X4230567Y3267707D01*
X4230622Y3267042D01*
X4230844Y3266267D01*
X4231121Y3265326D01*
X4231564Y3264385D01*
X4232228Y3263388D01*
X4232616Y3262945D01*
X4233059Y3262502D01*
X4233114Y3262447D01*
X4233169Y3262391D01*
X4233335Y3262280D01*
X4233502Y3262114D01*
X4234111Y3261727D01*
X4234886Y3261284D01*
X4235827Y3260896D01*
X4236990Y3260509D01*
X4238374Y3260232D01*
X4239094Y3260121D01*
X4239869D01*
X4239925D01*
X4240035D01*
X4240257D01*
X4240534Y3260176D01*
X4240866D01*
X4241254Y3260232D01*
X4242140Y3260398D01*
X4243192Y3260675D01*
X4244244Y3261062D01*
X4245240Y3261616D01*
X4246182Y3262391D01*
X4246237D01*
X4246292Y3262502D01*
X4246569Y3262779D01*
X4246957Y3263277D01*
X4247400Y3263942D01*
X4247788Y3264828D01*
X4248175Y3265824D01*
X4248452Y3266987D01*
X4248563Y3267652D01*
Y3268704D01*
X4248507Y3269147D01*
X4248452Y3269700D01*
X4248286Y3270365D01*
X4248120Y3271029D01*
X4247843Y3271749D01*
X4247511Y3272469D01*
X4247455Y3272524D01*
X4247345Y3272746D01*
X4247068Y3273078D01*
X4246791Y3273521D01*
X4246403Y3273964D01*
X4245905Y3274407D01*
X4245407Y3274905D01*
X4244797Y3275293D01*
X4245407Y3279723D01*
X4265119Y3276013D01*
Y3256965D01*
X4260634D01*
Y3272303D01*
X4250279Y3274352D01*
X4250335Y3274296D01*
X4250390Y3274185D01*
X4250501Y3274019D01*
X4250667Y3273743D01*
X4250833Y3273410D01*
X4251054Y3273023D01*
X4251497Y3272137D01*
X4251940Y3271029D01*
X4252328Y3269811D01*
X4252605Y3268482D01*
X4252716Y3267818D01*
Y3266600D01*
X4252660Y3266267D01*
X4252605Y3265824D01*
X4252550Y3265326D01*
X4252439Y3264772D01*
X4252273Y3264163D01*
X4251885Y3262834D01*
X4251608Y3262114D01*
X4251221Y3261395D01*
X4250833Y3260675D01*
X4250390Y3259955D01*
X4249836Y3259290D01*
X4249227Y3258626D01*
X4249172Y3258571D01*
X4249061Y3258460D01*
X4248895Y3258294D01*
X4248618Y3258072D01*
X4248231Y3257795D01*
X4247843Y3257519D01*
X4247345Y3257186D01*
X4246791Y3256854D01*
X4246182Y3256577D01*
X4245517Y3256245D01*
X4244742Y3255968D01*
X4243967Y3255691D01*
X4243136Y3255470D01*
X4242195Y3255304D01*
X4241254Y3255193D01*
X4240257Y3255138D01*
X4240202D01*
X4240035D01*
X4239759D01*
X4239371Y3255193D01*
X4238928Y3255248D01*
X4238430Y3255304D01*
X4237821Y3255414D01*
X4237211Y3255525D01*
X4235772Y3255857D01*
X4234277Y3256411D01*
X4233502Y3256743D01*
X4232782Y3257186D01*
X4232007Y3257629D01*
X4231287Y3258183D01*
X4231231Y3258238D01*
X4231065Y3258349D01*
X4230844Y3258571D01*
X4230567Y3258847D01*
X4230235Y3259235D01*
X4229792Y3259678D01*
X4229404Y3260232D01*
X4228961Y3260841D01*
X4228518Y3261505D01*
X4228130Y3262280D01*
X4227743Y3263111D01*
X4227355Y3263997D01*
X4227078Y3264938D01*
X4226857Y3265990D01*
X4226691Y3267098D01*
X4226635Y3268261D01*
Y3268759D01*
X4226691Y3269147D01*
X4226746Y3269590D01*
X4226802Y3270088D01*
X4226857Y3270697D01*
X4227023Y3271306D01*
X4227355Y3272690D01*
X4227854Y3274075D01*
X4228186Y3274795D01*
X4228573Y3275514D01*
X4229016Y3276179D01*
X4229515Y3276843D01*
X4229570Y3276899D01*
X4229626Y3277009D01*
X4229847Y3277120D01*
X4230069Y3277342D01*
X4230345Y3277619D01*
X4230678Y3277895D01*
X4231121Y3278228D01*
X4231619Y3278504D01*
X4232117Y3278837D01*
X4232726Y3279169D01*
X4234055Y3279778D01*
X4235606Y3280276D01*
X4236436Y3280443D01*
X4237322Y3280553D01*
X4237710Y3275625D01*
D02*
G37*
G36*
X4275618Y2959225D02*
X4275562Y2958782D01*
Y2958284D01*
X4275507Y2957121D01*
X4275341Y2955903D01*
X4275175Y2954574D01*
X4274898Y2953356D01*
X4274732Y2952747D01*
X4274565Y2952248D01*
Y2952193D01*
X4274510Y2952138D01*
X4274344Y2951805D01*
X4274123Y2951307D01*
X4273735Y2950698D01*
X4273237Y2950033D01*
X4272572Y2949314D01*
X4271797Y2948649D01*
X4270911Y2947985D01*
X4270856D01*
X4270800Y2947929D01*
X4270468Y2947708D01*
X4269914Y2947486D01*
X4269194Y2947154D01*
X4268364Y2946877D01*
X4267367Y2946600D01*
X4266315Y2946434D01*
X4265152Y2946379D01*
X4265097D01*
X4264986D01*
X4264765D01*
X4264488Y2946434D01*
X4264100D01*
X4263713Y2946490D01*
X4262771Y2946711D01*
X4261664Y2947043D01*
X4260501Y2947486D01*
X4259338Y2948151D01*
X4258784Y2948594D01*
X4258231Y2949037D01*
X4258175Y2949092D01*
X4258120Y2949148D01*
X4257954Y2949314D01*
X4257788Y2949535D01*
X4257566Y2949812D01*
X4257345Y2950144D01*
X4257068Y2950587D01*
X4256736Y2951030D01*
X4256459Y2951584D01*
X4256182Y2952193D01*
X4255850Y2952857D01*
X4255573Y2953577D01*
X4255351Y2954408D01*
X4255075Y2955238D01*
X4254908Y2956180D01*
X4254742Y2957176D01*
X4254687Y2957066D01*
X4254576Y2956844D01*
X4254355Y2956512D01*
X4254133Y2956069D01*
X4253524Y2955072D01*
X4253137Y2954574D01*
X4252804Y2954131D01*
X4252694Y2954020D01*
X4252417Y2953743D01*
X4251974Y2953300D01*
X4251420Y2952747D01*
X4250645Y2952138D01*
X4249814Y2951418D01*
X4248818Y2950698D01*
X4247710Y2949923D01*
X4237300Y2943333D01*
Y2949646D01*
X4245274Y2954685D01*
X4245329D01*
X4245440Y2954795D01*
X4245606Y2954906D01*
X4245827Y2955072D01*
X4246437Y2955460D01*
X4247212Y2955958D01*
X4248042Y2956567D01*
X4248928Y2957176D01*
X4249759Y2957786D01*
X4250534Y2958339D01*
X4250589Y2958395D01*
X4250811Y2958561D01*
X4251143Y2958838D01*
X4251531Y2959225D01*
X4252361Y2960056D01*
X4252749Y2960499D01*
X4253081Y2960942D01*
X4253137Y2960997D01*
X4253192Y2961108D01*
X4253303Y2961329D01*
X4253469Y2961662D01*
X4253635Y2961994D01*
X4253801Y2962381D01*
X4254078Y2963267D01*
Y2963323D01*
X4254133Y2963433D01*
Y2963655D01*
X4254189Y2963932D01*
X4254244Y2964319D01*
Y2964762D01*
X4254299Y2965372D01*
Y2971905D01*
X4237300D01*
Y2977000D01*
X4275618D01*
Y2959225D01*
D02*
G37*
G36*
Y2924396D02*
Y2920576D01*
X4250811D01*
Y2915371D01*
X4246492D01*
Y2920576D01*
X4237300D01*
Y2925282D01*
X4246492D01*
Y2941949D01*
X4250811D01*
X4275618Y2924396D01*
D02*
G37*
G36*
X4275119Y2885414D02*
X4271409D01*
X4271354Y2885470D01*
X4271243Y2885580D01*
X4271022Y2885802D01*
X4270689Y2886023D01*
X4270302Y2886356D01*
X4269859Y2886799D01*
X4269305Y2887242D01*
X4268641Y2887740D01*
X4267976Y2888238D01*
X4267201Y2888847D01*
X4266315Y2889457D01*
X4265429Y2890066D01*
X4264432Y2890730D01*
X4263380Y2891395D01*
X4262218Y2892059D01*
X4261055Y2892723D01*
X4260999Y2892779D01*
X4260778Y2892890D01*
X4260446Y2893056D01*
X4259947Y2893333D01*
X4259338Y2893609D01*
X4258674Y2893942D01*
X4257899Y2894329D01*
X4257013Y2894717D01*
X4256016Y2895160D01*
X4255019Y2895658D01*
X4253912Y2896101D01*
X4252749Y2896544D01*
X4250368Y2897430D01*
X4247821Y2898261D01*
X4247765D01*
X4247599Y2898316D01*
X4247322Y2898371D01*
X4246990Y2898482D01*
X4246547Y2898593D01*
X4245994Y2898704D01*
X4245384Y2898870D01*
X4244720Y2898980D01*
X4243945Y2899147D01*
X4243114Y2899313D01*
X4241342Y2899590D01*
X4239404Y2899866D01*
X4237300Y2900033D01*
Y2904850D01*
X4237356D01*
X4237522D01*
X4237743D01*
X4238075Y2904795D01*
X4238518D01*
X4239072Y2904739D01*
X4239681Y2904684D01*
X4240346Y2904628D01*
X4241121Y2904518D01*
X4241896Y2904407D01*
X4242837Y2904241D01*
X4243779Y2904075D01*
X4244775Y2903909D01*
X4245883Y2903687D01*
X4248153Y2903133D01*
X4248208D01*
X4248430Y2903078D01*
X4248762Y2902967D01*
X4249260Y2902801D01*
X4249814Y2902635D01*
X4250479Y2902414D01*
X4251254Y2902192D01*
X4252084Y2901860D01*
X4253026Y2901528D01*
X4253967Y2901195D01*
X4256071Y2900365D01*
X4258286Y2899368D01*
X4260501Y2898261D01*
X4260556Y2898205D01*
X4260778Y2898095D01*
X4261055Y2897928D01*
X4261498Y2897707D01*
X4261996Y2897430D01*
X4262605Y2897042D01*
X4263270Y2896655D01*
X4263989Y2896212D01*
X4265595Y2895160D01*
X4267256Y2894052D01*
X4268973Y2892779D01*
X4270579Y2891450D01*
Y2910221D01*
X4275119D01*
Y2885414D01*
D02*
G37*
G36*
X4285618Y2549225D02*
X4285562Y2548782D01*
Y2548284D01*
X4285507Y2547121D01*
X4285341Y2545903D01*
X4285175Y2544574D01*
X4284898Y2543356D01*
X4284732Y2542747D01*
X4284565Y2542248D01*
Y2542193D01*
X4284510Y2542138D01*
X4284344Y2541805D01*
X4284122Y2541307D01*
X4283735Y2540698D01*
X4283237Y2540034D01*
X4282572Y2539314D01*
X4281797Y2538649D01*
X4280911Y2537985D01*
X4280856D01*
X4280800Y2537929D01*
X4280468Y2537708D01*
X4279914Y2537486D01*
X4279194Y2537154D01*
X4278364Y2536877D01*
X4277367Y2536600D01*
X4276315Y2536434D01*
X4275152Y2536379D01*
X4275097D01*
X4274986D01*
X4274765D01*
X4274488Y2536434D01*
X4274100D01*
X4273713Y2536490D01*
X4272771Y2536711D01*
X4271664Y2537043D01*
X4270501Y2537486D01*
X4269338Y2538151D01*
X4268784Y2538594D01*
X4268231Y2539037D01*
X4268175Y2539092D01*
X4268120Y2539148D01*
X4267954Y2539314D01*
X4267788Y2539535D01*
X4267566Y2539812D01*
X4267345Y2540144D01*
X4267068Y2540587D01*
X4266736Y2541030D01*
X4266459Y2541584D01*
X4266182Y2542193D01*
X4265850Y2542857D01*
X4265573Y2543577D01*
X4265351Y2544408D01*
X4265075Y2545238D01*
X4264908Y2546180D01*
X4264742Y2547177D01*
X4264687Y2547066D01*
X4264576Y2546844D01*
X4264355Y2546512D01*
X4264133Y2546069D01*
X4263524Y2545072D01*
X4263137Y2544574D01*
X4262804Y2544131D01*
X4262694Y2544020D01*
X4262417Y2543743D01*
X4261974Y2543300D01*
X4261420Y2542747D01*
X4260645Y2542138D01*
X4259814Y2541418D01*
X4258817Y2540698D01*
X4257710Y2539923D01*
X4247300Y2533334D01*
Y2539646D01*
X4255274Y2544685D01*
X4255329D01*
X4255440Y2544796D01*
X4255606Y2544906D01*
X4255827Y2545072D01*
X4256436Y2545460D01*
X4257212Y2545958D01*
X4258042Y2546567D01*
X4258928Y2547177D01*
X4259759Y2547786D01*
X4260534Y2548339D01*
X4260589Y2548395D01*
X4260811Y2548561D01*
X4261143Y2548838D01*
X4261531Y2549225D01*
X4262361Y2550056D01*
X4262749Y2550499D01*
X4263081Y2550942D01*
X4263137Y2550997D01*
X4263192Y2551108D01*
X4263303Y2551329D01*
X4263469Y2551662D01*
X4263635Y2551994D01*
X4263801Y2552381D01*
X4264078Y2553267D01*
Y2553323D01*
X4264133Y2553434D01*
Y2553655D01*
X4264189Y2553932D01*
X4264244Y2554320D01*
Y2554762D01*
X4264299Y2555372D01*
Y2561905D01*
X4247300D01*
Y2567000D01*
X4285618D01*
Y2549225D01*
D02*
G37*
G36*
Y2514396D02*
Y2510576D01*
X4260811D01*
Y2505371D01*
X4256492D01*
Y2510576D01*
X4247300D01*
Y2515282D01*
X4256492D01*
Y2531949D01*
X4260811D01*
X4285618Y2514396D01*
D02*
G37*
G36*
X4258928Y2500553D02*
X4259260D01*
X4259648Y2500498D01*
X4260534Y2500387D01*
X4261531Y2500166D01*
X4262527Y2499833D01*
X4263579Y2499335D01*
X4264576Y2498726D01*
X4264632D01*
X4264687Y2498615D01*
X4264964Y2498394D01*
X4265407Y2497951D01*
X4265960Y2497342D01*
X4266514Y2496567D01*
X4267123Y2495625D01*
X4267622Y2494573D01*
X4268009Y2493300D01*
Y2493355D01*
X4268065Y2493410D01*
X4268120Y2493576D01*
X4268231Y2493798D01*
X4268452Y2494296D01*
X4268784Y2494961D01*
X4269227Y2495681D01*
X4269781Y2496400D01*
X4270390Y2497065D01*
X4271055Y2497674D01*
X4271165Y2497729D01*
X4271387Y2497895D01*
X4271830Y2498117D01*
X4272384Y2498338D01*
X4273103Y2498615D01*
X4273934Y2498837D01*
X4274875Y2499003D01*
X4275872Y2499058D01*
X4275927D01*
X4276038D01*
X4276260D01*
X4276592Y2499003D01*
X4276924Y2498948D01*
X4277367Y2498892D01*
X4278308Y2498671D01*
X4279416Y2498338D01*
X4280579Y2497785D01*
X4281188Y2497452D01*
X4281797Y2497065D01*
X4282351Y2496567D01*
X4282904Y2496068D01*
X4282960Y2496013D01*
X4283015Y2495902D01*
X4283181Y2495736D01*
X4283347Y2495514D01*
X4283569Y2495238D01*
X4283790Y2494850D01*
X4284067Y2494407D01*
X4284344Y2493964D01*
X4284621Y2493410D01*
X4284898Y2492801D01*
X4285119Y2492137D01*
X4285341Y2491417D01*
X4285673Y2489866D01*
X4285728Y2488981D01*
X4285784Y2488095D01*
Y2487596D01*
X4285728Y2487264D01*
X4285673Y2486821D01*
X4285618Y2486323D01*
X4285562Y2485769D01*
X4285396Y2485215D01*
X4285064Y2483886D01*
X4284565Y2482557D01*
X4284233Y2481893D01*
X4283846Y2481228D01*
X4283347Y2480619D01*
X4282849Y2480010D01*
X4282794Y2479955D01*
X4282738Y2479900D01*
X4282572Y2479733D01*
X4282351Y2479512D01*
X4282018Y2479290D01*
X4281686Y2479014D01*
X4280856Y2478460D01*
X4279803Y2477906D01*
X4278585Y2477408D01*
X4277201Y2477020D01*
X4276481Y2476965D01*
X4275706Y2476909D01*
X4275651D01*
X4275595D01*
X4275263D01*
X4274765Y2476965D01*
X4274156Y2477076D01*
X4273380Y2477242D01*
X4272605Y2477519D01*
X4271830Y2477851D01*
X4271055Y2478349D01*
X4270944Y2478404D01*
X4270722Y2478626D01*
X4270390Y2478958D01*
X4269947Y2479401D01*
X4269449Y2480010D01*
X4268951Y2480730D01*
X4268452Y2481561D01*
X4268009Y2482557D01*
Y2482502D01*
X4267954Y2482391D01*
X4267898Y2482225D01*
X4267788Y2482004D01*
X4267511Y2481339D01*
X4267123Y2480564D01*
X4266570Y2479733D01*
X4265960Y2478847D01*
X4265185Y2478017D01*
X4264299Y2477242D01*
X4264244D01*
X4264189Y2477186D01*
X4263856Y2476965D01*
X4263303Y2476633D01*
X4262583Y2476300D01*
X4261697Y2475968D01*
X4260645Y2475636D01*
X4259482Y2475414D01*
X4258208Y2475359D01*
X4258153D01*
X4257987D01*
X4257710D01*
X4257378Y2475414D01*
X4256990Y2475470D01*
X4256492Y2475525D01*
X4255938Y2475636D01*
X4255329Y2475802D01*
X4254055Y2476190D01*
X4253336Y2476466D01*
X4252671Y2476854D01*
X4251951Y2477242D01*
X4251287Y2477685D01*
X4250622Y2478238D01*
X4249958Y2478847D01*
X4249903Y2478903D01*
X4249792Y2479014D01*
X4249626Y2479180D01*
X4249460Y2479457D01*
X4249183Y2479844D01*
X4248906Y2480232D01*
X4248629Y2480730D01*
X4248297Y2481284D01*
X4247965Y2481893D01*
X4247688Y2482613D01*
X4247411Y2483388D01*
X4247134Y2484163D01*
X4246968Y2485049D01*
X4246802Y2485990D01*
X4246691Y2486932D01*
X4246636Y2487984D01*
Y2488538D01*
X4246691Y2488925D01*
X4246746Y2489424D01*
X4246802Y2489977D01*
X4246913Y2490586D01*
X4247079Y2491251D01*
X4247466Y2492746D01*
X4247743Y2493521D01*
X4248020Y2494241D01*
X4248408Y2495016D01*
X4248851Y2495791D01*
X4249349Y2496511D01*
X4249958Y2497176D01*
X4250013Y2497231D01*
X4250124Y2497342D01*
X4250290Y2497508D01*
X4250567Y2497729D01*
X4250899Y2497951D01*
X4251287Y2498283D01*
X4251730Y2498560D01*
X4252284Y2498892D01*
X4252837Y2499224D01*
X4253502Y2499501D01*
X4254886Y2500055D01*
X4255717Y2500276D01*
X4256547Y2500443D01*
X4257433Y2500553D01*
X4258319Y2500609D01*
X4258375D01*
X4258485D01*
X4258707D01*
X4258928Y2500553D01*
D02*
G37*
G36*
X4762127Y2485728D02*
X4762403D01*
X4762791Y2485672D01*
X4763732Y2485506D01*
X4764784Y2485285D01*
X4765947Y2484897D01*
X4767110Y2484399D01*
X4768273Y2483734D01*
X4768328D01*
X4768384Y2483624D01*
X4768550Y2483513D01*
X4768771Y2483347D01*
X4769325Y2482904D01*
X4770045Y2482295D01*
X4770765Y2481464D01*
X4771595Y2480467D01*
X4772315Y2479305D01*
X4772980Y2477976D01*
Y2477920D01*
X4773035Y2477810D01*
X4773146Y2477588D01*
X4773256Y2477311D01*
X4773367Y2476924D01*
X4773533Y2476425D01*
X4773644Y2475872D01*
X4773810Y2475263D01*
X4773976Y2474543D01*
X4774142Y2473712D01*
X4774253Y2472826D01*
X4774364Y2471885D01*
X4774475Y2470833D01*
X4774585Y2469725D01*
X4774641Y2468507D01*
Y2467234D01*
Y2467178D01*
Y2466901D01*
Y2466514D01*
Y2466015D01*
X4774585Y2465406D01*
Y2464686D01*
X4774530Y2463856D01*
X4774419Y2463025D01*
X4774253Y2461143D01*
X4773976Y2459149D01*
X4773589Y2457267D01*
X4773312Y2456325D01*
X4773035Y2455495D01*
Y2455439D01*
X4772980Y2455329D01*
X4772869Y2455107D01*
X4772758Y2454775D01*
X4772592Y2454443D01*
X4772370Y2454000D01*
X4771817Y2453058D01*
X4771152Y2452006D01*
X4770377Y2450899D01*
X4769380Y2449847D01*
X4768273Y2448905D01*
X4768218D01*
X4768107Y2448795D01*
X4767941Y2448684D01*
X4767719Y2448573D01*
X4767387Y2448407D01*
X4767055Y2448186D01*
X4766612Y2447964D01*
X4766169Y2447798D01*
X4765117Y2447355D01*
X4763843Y2446967D01*
X4762459Y2446746D01*
X4760908Y2446635D01*
X4760465D01*
X4760189Y2446691D01*
X4759801D01*
X4759358Y2446746D01*
X4758306Y2446967D01*
X4757143Y2447244D01*
X4755925Y2447687D01*
X4754707Y2448296D01*
X4754098Y2448684D01*
X4753544Y2449127D01*
X4753489Y2449182D01*
X4753433Y2449238D01*
X4753267Y2449404D01*
X4753101Y2449570D01*
X4752879Y2449847D01*
X4752603Y2450179D01*
X4752049Y2450954D01*
X4751495Y2451951D01*
X4750941Y2453169D01*
X4750498Y2454553D01*
X4750166Y2456159D01*
X4754707Y2456547D01*
Y2456491D01*
X4754762Y2456381D01*
Y2456270D01*
X4754818Y2456048D01*
X4754984Y2455439D01*
X4755205Y2454775D01*
X4755482Y2454000D01*
X4755870Y2453224D01*
X4756313Y2452505D01*
X4756866Y2451896D01*
X4756922Y2451840D01*
X4757143Y2451674D01*
X4757531Y2451453D01*
X4757974Y2451231D01*
X4758583Y2450954D01*
X4759303Y2450733D01*
X4760133Y2450567D01*
X4761019Y2450511D01*
X4761407D01*
X4761794Y2450567D01*
X4762293Y2450622D01*
X4762902Y2450733D01*
X4763511Y2450899D01*
X4764175Y2451120D01*
X4764784Y2451453D01*
X4764840Y2451508D01*
X4765061Y2451619D01*
X4765394Y2451840D01*
X4765726Y2452172D01*
X4766169Y2452560D01*
X4766612Y2453003D01*
X4767055Y2453501D01*
X4767498Y2454110D01*
X4767553Y2454166D01*
X4767664Y2454443D01*
X4767885Y2454830D01*
X4768107Y2455329D01*
X4768384Y2455993D01*
X4768661Y2456768D01*
X4768937Y2457654D01*
X4769214Y2458651D01*
Y2458706D01*
X4769270Y2458762D01*
Y2458928D01*
X4769325Y2459149D01*
X4769436Y2459703D01*
X4769602Y2460423D01*
X4769713Y2461309D01*
X4769823Y2462250D01*
X4769879Y2463302D01*
X4769934Y2464410D01*
Y2464465D01*
Y2464631D01*
Y2464908D01*
Y2465351D01*
X4769879Y2465240D01*
X4769657Y2464963D01*
X4769325Y2464576D01*
X4768937Y2464022D01*
X4768384Y2463468D01*
X4767719Y2462859D01*
X4766944Y2462250D01*
X4766058Y2461696D01*
X4765947Y2461641D01*
X4765615Y2461475D01*
X4765117Y2461253D01*
X4764508Y2461032D01*
X4763677Y2460755D01*
X4762791Y2460534D01*
X4761794Y2460367D01*
X4760742Y2460312D01*
X4760299D01*
X4759967Y2460367D01*
X4759524Y2460423D01*
X4759081Y2460478D01*
X4758527Y2460589D01*
X4757974Y2460755D01*
X4756700Y2461143D01*
X4756036Y2461420D01*
X4755371Y2461752D01*
X4754651Y2462139D01*
X4753987Y2462638D01*
X4753322Y2463136D01*
X4752713Y2463745D01*
X4752658Y2463801D01*
X4752547Y2463911D01*
X4752437Y2464077D01*
X4752215Y2464354D01*
X4751938Y2464742D01*
X4751661Y2465129D01*
X4751384Y2465628D01*
X4751108Y2466182D01*
X4750775Y2466791D01*
X4750498Y2467455D01*
X4750222Y2468230D01*
X4749945Y2469005D01*
X4749723Y2469891D01*
X4749613Y2470833D01*
X4749502Y2471774D01*
X4749446Y2472826D01*
Y2472882D01*
Y2473103D01*
Y2473380D01*
X4749502Y2473767D01*
X4749557Y2474266D01*
X4749613Y2474875D01*
X4749723Y2475484D01*
X4749889Y2476204D01*
X4750277Y2477644D01*
X4750554Y2478419D01*
X4750886Y2479249D01*
X4751274Y2480025D01*
X4751772Y2480744D01*
X4752270Y2481520D01*
X4752879Y2482184D01*
X4752935Y2482239D01*
X4753046Y2482350D01*
X4753212Y2482516D01*
X4753489Y2482738D01*
X4753821Y2483015D01*
X4754264Y2483347D01*
X4754707Y2483624D01*
X4755260Y2484011D01*
X4755814Y2484344D01*
X4756479Y2484620D01*
X4757974Y2485229D01*
X4758749Y2485451D01*
X4759635Y2485617D01*
X4760521Y2485728D01*
X4761462Y2485783D01*
X4761850D01*
X4762127Y2485728D01*
D02*
G37*
G36*
X4739424Y2460810D02*
X4744629D01*
Y2456491D01*
X4739424D01*
Y2447300D01*
X4734717D01*
Y2456491D01*
X4718051D01*
Y2460810D01*
X4735603Y2485617D01*
X4739424D01*
Y2460810D01*
D02*
G37*
G36*
X4701217Y2485562D02*
X4701716D01*
X4702879Y2485506D01*
X4704097Y2485340D01*
X4705426Y2485174D01*
X4706644Y2484897D01*
X4707253Y2484731D01*
X4707751Y2484565D01*
X4707807D01*
X4707862Y2484510D01*
X4708194Y2484344D01*
X4708693Y2484122D01*
X4709302Y2483734D01*
X4709966Y2483236D01*
X4710686Y2482572D01*
X4711350Y2481796D01*
X4712015Y2480910D01*
Y2480855D01*
X4712070Y2480800D01*
X4712292Y2480467D01*
X4712513Y2479914D01*
X4712846Y2479194D01*
X4713122Y2478363D01*
X4713399Y2477367D01*
X4713565Y2476315D01*
X4713621Y2475152D01*
Y2475096D01*
Y2474986D01*
Y2474764D01*
X4713565Y2474487D01*
Y2474100D01*
X4713510Y2473712D01*
X4713289Y2472771D01*
X4712956Y2471663D01*
X4712513Y2470501D01*
X4711849Y2469338D01*
X4711406Y2468784D01*
X4710963Y2468230D01*
X4710908Y2468175D01*
X4710852Y2468120D01*
X4710686Y2467953D01*
X4710465Y2467787D01*
X4710188Y2467566D01*
X4709855Y2467344D01*
X4709412Y2467067D01*
X4708969Y2466735D01*
X4708416Y2466458D01*
X4707807Y2466182D01*
X4707142Y2465849D01*
X4706422Y2465572D01*
X4705592Y2465351D01*
X4704761Y2465074D01*
X4703820Y2464908D01*
X4702823Y2464742D01*
X4702934Y2464686D01*
X4703155Y2464576D01*
X4703488Y2464354D01*
X4703931Y2464133D01*
X4704927Y2463524D01*
X4705426Y2463136D01*
X4705869Y2462804D01*
X4705979Y2462693D01*
X4706256Y2462416D01*
X4706699Y2461973D01*
X4707253Y2461420D01*
X4707862Y2460644D01*
X4708582Y2459814D01*
X4709302Y2458817D01*
X4710077Y2457710D01*
X4716666Y2447300D01*
X4710354D01*
X4705315Y2455273D01*
Y2455329D01*
X4705204Y2455439D01*
X4705093Y2455605D01*
X4704927Y2455827D01*
X4704540Y2456436D01*
X4704041Y2457211D01*
X4703432Y2458042D01*
X4702823Y2458928D01*
X4702214Y2459758D01*
X4701660Y2460534D01*
X4701605Y2460589D01*
X4701439Y2460810D01*
X4701162Y2461143D01*
X4700774Y2461530D01*
X4699944Y2462361D01*
X4699501Y2462748D01*
X4699058Y2463081D01*
X4699003Y2463136D01*
X4698892Y2463191D01*
X4698670Y2463302D01*
X4698338Y2463468D01*
X4698006Y2463634D01*
X4697618Y2463801D01*
X4696732Y2464077D01*
X4696677D01*
X4696566Y2464133D01*
X4696345D01*
X4696068Y2464188D01*
X4695680Y2464243D01*
X4695237D01*
X4694628Y2464299D01*
X4688094D01*
Y2447300D01*
X4683000D01*
Y2485617D01*
X4700774D01*
X4701217Y2485562D01*
D02*
G37*
G36*
X2712235Y4279530D02*
X2712678Y4279475D01*
X2713176Y4279364D01*
X2713730Y4279254D01*
X2714339Y4279143D01*
X2715668Y4278700D01*
X2716388Y4278368D01*
X2717052Y4278035D01*
X2717772Y4277592D01*
X2718492Y4277094D01*
X2719211Y4276540D01*
X2719876Y4275876D01*
X2719931Y4275821D01*
X2720042Y4275710D01*
X2720208Y4275488D01*
X2720430Y4275211D01*
X2720707Y4274879D01*
X2720983Y4274436D01*
X2721316Y4273938D01*
X2721592Y4273329D01*
X2721925Y4272720D01*
X2722257Y4272000D01*
X2722534Y4271280D01*
X2722811Y4270449D01*
X2723032Y4269563D01*
X2723198Y4268622D01*
X2723309Y4267681D01*
X2723364Y4266629D01*
Y4266130D01*
X2723309Y4265798D01*
X2723254Y4265355D01*
X2723198Y4264857D01*
X2723088Y4264303D01*
X2722977Y4263694D01*
X2722645Y4262365D01*
X2722091Y4260981D01*
X2721759Y4260261D01*
X2721371Y4259597D01*
X2720873Y4258932D01*
X2720374Y4258268D01*
X2720319Y4258212D01*
X2720208Y4258101D01*
X2720042Y4257935D01*
X2719821Y4257769D01*
X2719544Y4257492D01*
X2719156Y4257216D01*
X2718769Y4256883D01*
X2718270Y4256551D01*
X2717716Y4256219D01*
X2717163Y4255887D01*
X2715834Y4255277D01*
X2714283Y4254779D01*
X2713453Y4254613D01*
X2712567Y4254502D01*
X2711958Y4259209D01*
X2712013D01*
X2712124Y4259264D01*
X2712345Y4259320D01*
X2712622Y4259375D01*
X2712954Y4259430D01*
X2713342Y4259541D01*
X2714173Y4259818D01*
X2715169Y4260206D01*
X2716111Y4260704D01*
X2716997Y4261258D01*
X2717772Y4261922D01*
X2717827Y4262033D01*
X2718049Y4262254D01*
X2718326Y4262697D01*
X2718602Y4263251D01*
X2718935Y4263916D01*
X2719211Y4264746D01*
X2719433Y4265687D01*
X2719488Y4266684D01*
Y4267016D01*
X2719433Y4267238D01*
X2719378Y4267847D01*
X2719211Y4268622D01*
X2718935Y4269508D01*
X2718547Y4270449D01*
X2717993Y4271391D01*
X2717218Y4272277D01*
X2717107Y4272387D01*
X2716775Y4272664D01*
X2716277Y4272997D01*
X2715612Y4273440D01*
X2714782Y4273882D01*
X2713840Y4274215D01*
X2712733Y4274492D01*
X2711515Y4274602D01*
X2711459D01*
X2711349D01*
X2711183D01*
X2710961Y4274547D01*
X2710352Y4274492D01*
X2709632Y4274325D01*
X2708746Y4274104D01*
X2707860Y4273716D01*
X2706974Y4273163D01*
X2706144Y4272443D01*
X2706033Y4272332D01*
X2705811Y4272055D01*
X2705479Y4271612D01*
X2705092Y4271003D01*
X2704704Y4270228D01*
X2704372Y4269287D01*
X2704150Y4268235D01*
X2704040Y4267072D01*
Y4266573D01*
X2704095Y4266186D01*
X2704150Y4265687D01*
X2704261Y4265134D01*
X2704372Y4264469D01*
X2704538Y4263749D01*
X2700385Y4264303D01*
Y4264580D01*
X2700440Y4264801D01*
Y4265521D01*
X2700330Y4266130D01*
X2700219Y4266850D01*
X2700053Y4267681D01*
X2699776Y4268622D01*
X2699388Y4269508D01*
X2698890Y4270449D01*
Y4270505D01*
X2698835Y4270560D01*
X2698613Y4270837D01*
X2698225Y4271225D01*
X2697727Y4271668D01*
X2697007Y4272111D01*
X2696177Y4272498D01*
X2695235Y4272775D01*
X2694682Y4272886D01*
X2694073D01*
X2694017D01*
X2693962D01*
X2693630D01*
X2693187Y4272775D01*
X2692578Y4272664D01*
X2691913Y4272443D01*
X2691193Y4272166D01*
X2690473Y4271723D01*
X2689809Y4271114D01*
X2689754Y4271059D01*
X2689532Y4270782D01*
X2689255Y4270394D01*
X2688923Y4269896D01*
X2688646Y4269231D01*
X2688369Y4268456D01*
X2688148Y4267570D01*
X2688092Y4266573D01*
Y4266130D01*
X2688203Y4265632D01*
X2688314Y4264968D01*
X2688535Y4264248D01*
X2688812Y4263528D01*
X2689255Y4262753D01*
X2689809Y4262033D01*
X2689864Y4261978D01*
X2690141Y4261756D01*
X2690529Y4261424D01*
X2691083Y4261036D01*
X2691802Y4260649D01*
X2692688Y4260261D01*
X2693740Y4259929D01*
X2694959Y4259707D01*
X2694128Y4255001D01*
X2694073D01*
X2693906Y4255056D01*
X2693685Y4255111D01*
X2693353Y4255167D01*
X2692965Y4255277D01*
X2692522Y4255444D01*
X2691470Y4255776D01*
X2690252Y4256330D01*
X2689034Y4256994D01*
X2687871Y4257825D01*
X2686819Y4258877D01*
X2686763Y4258932D01*
X2686708Y4259043D01*
X2686597Y4259209D01*
X2686431Y4259430D01*
X2686210Y4259707D01*
X2685988Y4260095D01*
X2685767Y4260482D01*
X2685490Y4260981D01*
X2685047Y4262088D01*
X2684604Y4263362D01*
X2684327Y4264857D01*
X2684216Y4265632D01*
Y4267016D01*
X2684272Y4267625D01*
X2684382Y4268345D01*
X2684549Y4269231D01*
X2684825Y4270228D01*
X2685158Y4271225D01*
X2685601Y4272221D01*
Y4272277D01*
X2685656Y4272332D01*
X2685822Y4272664D01*
X2686154Y4273163D01*
X2686542Y4273716D01*
X2687096Y4274381D01*
X2687705Y4275045D01*
X2688425Y4275710D01*
X2689255Y4276263D01*
X2689366Y4276319D01*
X2689643Y4276485D01*
X2690141Y4276706D01*
X2690750Y4276983D01*
X2691470Y4277260D01*
X2692301Y4277482D01*
X2693242Y4277648D01*
X2694183Y4277703D01*
X2694294D01*
X2694626D01*
X2695069Y4277648D01*
X2695678Y4277537D01*
X2696398Y4277371D01*
X2697173Y4277094D01*
X2697949Y4276762D01*
X2698724Y4276319D01*
X2698835Y4276263D01*
X2699056Y4276097D01*
X2699444Y4275765D01*
X2699887Y4275322D01*
X2700385Y4274768D01*
X2700939Y4274104D01*
X2701437Y4273329D01*
X2701935Y4272387D01*
Y4272443D01*
X2701991Y4272554D01*
X2702046Y4272720D01*
X2702102Y4272941D01*
X2702323Y4273550D01*
X2702655Y4274325D01*
X2703098Y4275211D01*
X2703652Y4276097D01*
X2704372Y4276928D01*
X2705202Y4277703D01*
X2705313Y4277759D01*
X2705645Y4277980D01*
X2706199Y4278312D01*
X2706919Y4278644D01*
X2707805Y4278977D01*
X2708857Y4279309D01*
X2710075Y4279530D01*
X2711404Y4279586D01*
X2711459D01*
X2711626D01*
X2711902D01*
X2712235Y4279530D01*
D02*
G37*
G36*
X2722700Y4223992D02*
X2722645D01*
X2722423D01*
X2722091D01*
X2721648Y4224048D01*
X2721149Y4224103D01*
X2720596Y4224214D01*
X2720042Y4224325D01*
X2719433Y4224546D01*
X2719378D01*
X2719322Y4224601D01*
X2718990Y4224712D01*
X2718492Y4224934D01*
X2717827Y4225266D01*
X2717052Y4225709D01*
X2716166Y4226263D01*
X2715280Y4226872D01*
X2714339Y4227647D01*
X2714283D01*
X2714228Y4227758D01*
X2713896Y4228034D01*
X2713397Y4228533D01*
X2712678Y4229253D01*
X2711847Y4230083D01*
X2710850Y4231135D01*
X2709743Y4232409D01*
X2708580Y4233793D01*
X2708525Y4233849D01*
X2708359Y4234070D01*
X2708082Y4234402D01*
X2707749Y4234790D01*
X2707306Y4235288D01*
X2706808Y4235897D01*
X2706254Y4236506D01*
X2705645Y4237226D01*
X2704316Y4238611D01*
X2702987Y4239995D01*
X2702323Y4240659D01*
X2701659Y4241268D01*
X2701049Y4241822D01*
X2700440Y4242265D01*
X2700385D01*
X2700330Y4242376D01*
X2700164Y4242487D01*
X2699942Y4242597D01*
X2699333Y4242985D01*
X2698613Y4243428D01*
X2697727Y4243815D01*
X2696786Y4244203D01*
X2695734Y4244425D01*
X2694737Y4244535D01*
X2694682D01*
X2694626D01*
X2694294Y4244480D01*
X2693740Y4244425D01*
X2693131Y4244258D01*
X2692356Y4244037D01*
X2691581Y4243649D01*
X2690806Y4243151D01*
X2690030Y4242487D01*
X2689920Y4242376D01*
X2689698Y4242099D01*
X2689421Y4241711D01*
X2689034Y4241102D01*
X2688702Y4240327D01*
X2688369Y4239441D01*
X2688148Y4238389D01*
X2688092Y4237226D01*
Y4236894D01*
X2688148Y4236673D01*
X2688203Y4236008D01*
X2688369Y4235233D01*
X2688591Y4234402D01*
X2688978Y4233461D01*
X2689477Y4232575D01*
X2690141Y4231744D01*
X2690252Y4231634D01*
X2690529Y4231412D01*
X2690972Y4231080D01*
X2691636Y4230748D01*
X2692411Y4230360D01*
X2693408Y4230028D01*
X2694516Y4229806D01*
X2695789Y4229696D01*
X2695291Y4224878D01*
X2695235D01*
X2695069Y4224934D01*
X2694792D01*
X2694405Y4224989D01*
X2693962Y4225100D01*
X2693463Y4225210D01*
X2692854Y4225377D01*
X2692245Y4225543D01*
X2690916Y4225986D01*
X2689587Y4226650D01*
X2688923Y4227038D01*
X2688259Y4227536D01*
X2687649Y4228034D01*
X2687096Y4228588D01*
X2687040Y4228644D01*
X2686985Y4228754D01*
X2686819Y4228920D01*
X2686653Y4229197D01*
X2686431Y4229530D01*
X2686210Y4229917D01*
X2685933Y4230360D01*
X2685656Y4230914D01*
X2685379Y4231523D01*
X2685102Y4232187D01*
X2684881Y4232907D01*
X2684659Y4233682D01*
X2684493Y4234513D01*
X2684327Y4235399D01*
X2684272Y4236340D01*
X2684216Y4237337D01*
Y4237891D01*
X2684272Y4238278D01*
X2684327Y4238721D01*
X2684382Y4239275D01*
X2684493Y4239884D01*
X2684604Y4240493D01*
X2684992Y4241933D01*
X2685545Y4243373D01*
X2685878Y4244092D01*
X2686265Y4244812D01*
X2686763Y4245477D01*
X2687317Y4246086D01*
X2687373Y4246141D01*
X2687428Y4246252D01*
X2687649Y4246363D01*
X2687871Y4246584D01*
X2688148Y4246861D01*
X2688535Y4247138D01*
X2688923Y4247415D01*
X2689421Y4247747D01*
X2690473Y4248301D01*
X2691802Y4248854D01*
X2692467Y4249076D01*
X2693242Y4249187D01*
X2694017Y4249297D01*
X2694848Y4249353D01*
X2694959D01*
X2695235D01*
X2695678Y4249297D01*
X2696287Y4249242D01*
X2696952Y4249131D01*
X2697727Y4248910D01*
X2698558Y4248688D01*
X2699388Y4248356D01*
X2699499Y4248301D01*
X2699776Y4248190D01*
X2700219Y4247968D01*
X2700828Y4247636D01*
X2701492Y4247193D01*
X2702323Y4246639D01*
X2703154Y4245975D01*
X2704095Y4245200D01*
X2704206Y4245089D01*
X2704538Y4244812D01*
X2704815Y4244535D01*
X2705092Y4244258D01*
X2705424Y4243926D01*
X2705867Y4243483D01*
X2706310Y4243040D01*
X2706808Y4242487D01*
X2707362Y4241933D01*
X2707971Y4241268D01*
X2708580Y4240549D01*
X2709300Y4239773D01*
X2710020Y4238887D01*
X2710795Y4238001D01*
X2710850Y4237946D01*
X2710961Y4237835D01*
X2711127Y4237614D01*
X2711349Y4237337D01*
X2711681Y4237005D01*
X2712013Y4236617D01*
X2712733Y4235731D01*
X2713564Y4234790D01*
X2714394Y4233904D01*
X2715114Y4233129D01*
X2715391Y4232796D01*
X2715668Y4232520D01*
X2715723Y4232464D01*
X2715889Y4232298D01*
X2716111Y4232077D01*
X2716443Y4231800D01*
X2716830Y4231523D01*
X2717218Y4231191D01*
X2718159Y4230526D01*
Y4249408D01*
X2722700D01*
Y4223992D01*
D02*
G37*
G36*
Y4215354D02*
X2714726Y4210315D01*
X2714671D01*
X2714560Y4210205D01*
X2714394Y4210094D01*
X2714173Y4209928D01*
X2713564Y4209540D01*
X2712788Y4209042D01*
X2711958Y4208433D01*
X2711072Y4207824D01*
X2710241Y4207215D01*
X2709466Y4206661D01*
X2709411Y4206606D01*
X2709189Y4206439D01*
X2708857Y4206163D01*
X2708469Y4205775D01*
X2707639Y4204944D01*
X2707251Y4204501D01*
X2706919Y4204058D01*
X2706864Y4204003D01*
X2706808Y4203892D01*
X2706697Y4203671D01*
X2706531Y4203339D01*
X2706365Y4203006D01*
X2706199Y4202619D01*
X2705922Y4201733D01*
Y4201677D01*
X2705867Y4201567D01*
Y4201345D01*
X2705811Y4201068D01*
X2705756Y4200681D01*
Y4200238D01*
X2705701Y4199629D01*
Y4193095D01*
X2722700D01*
Y4188001D01*
X2684382D01*
Y4205775D01*
X2684438Y4206218D01*
Y4206716D01*
X2684493Y4207879D01*
X2684659Y4209097D01*
X2684825Y4210426D01*
X2685102Y4211644D01*
X2685268Y4212253D01*
X2685435Y4212752D01*
Y4212807D01*
X2685490Y4212863D01*
X2685656Y4213195D01*
X2685878Y4213693D01*
X2686265Y4214302D01*
X2686763Y4214967D01*
X2687428Y4215687D01*
X2688203Y4216351D01*
X2689089Y4217015D01*
X2689144D01*
X2689200Y4217071D01*
X2689532Y4217292D01*
X2690086Y4217514D01*
X2690806Y4217846D01*
X2691636Y4218123D01*
X2692633Y4218400D01*
X2693685Y4218566D01*
X2694848Y4218621D01*
X2694903D01*
X2695014D01*
X2695235D01*
X2695512Y4218566D01*
X2695900D01*
X2696287Y4218510D01*
X2697229Y4218289D01*
X2698336Y4217957D01*
X2699499Y4217514D01*
X2700662Y4216849D01*
X2701216Y4216406D01*
X2701769Y4215963D01*
X2701825Y4215908D01*
X2701880Y4215853D01*
X2702046Y4215687D01*
X2702212Y4215465D01*
X2702434Y4215188D01*
X2702655Y4214856D01*
X2702932Y4214413D01*
X2703264Y4213970D01*
X2703541Y4213416D01*
X2703818Y4212807D01*
X2704150Y4212143D01*
X2704427Y4211423D01*
X2704649Y4210592D01*
X2704926Y4209762D01*
X2705092Y4208820D01*
X2705258Y4207824D01*
X2705313Y4207934D01*
X2705424Y4208156D01*
X2705645Y4208488D01*
X2705867Y4208931D01*
X2706476Y4209928D01*
X2706864Y4210426D01*
X2707196Y4210869D01*
X2707306Y4210980D01*
X2707583Y4211257D01*
X2708026Y4211700D01*
X2708580Y4212253D01*
X2709355Y4212863D01*
X2710186Y4213582D01*
X2711183Y4214302D01*
X2712290Y4215077D01*
X2722700Y4221667D01*
Y4215354D01*
D02*
G37*
%LPC*%
G36*
X4144903Y4168416D02*
X4144848D01*
X4144793D01*
X4144460Y4168361D01*
X4143962Y4168306D01*
X4143298Y4168195D01*
X4142633Y4167918D01*
X4141858Y4167586D01*
X4141138Y4167087D01*
X4140418Y4166423D01*
X4140363Y4166312D01*
X4140141Y4166035D01*
X4139864Y4165592D01*
X4139532Y4164873D01*
X4139200Y4164042D01*
X4138923Y4162935D01*
X4138702Y4161661D01*
X4138646Y4160166D01*
Y4148095D01*
X4151326D01*
Y4159501D01*
X4151271Y4160166D01*
X4151216Y4160941D01*
X4151160Y4161827D01*
X4151050Y4162713D01*
X4150883Y4163599D01*
X4150662Y4164374D01*
X4150607Y4164485D01*
X4150496Y4164706D01*
X4150330Y4165039D01*
X4150108Y4165482D01*
X4149776Y4165980D01*
X4149388Y4166478D01*
X4148890Y4166977D01*
X4148336Y4167364D01*
X4148281Y4167420D01*
X4148060Y4167530D01*
X4147727Y4167697D01*
X4147284Y4167918D01*
X4146786Y4168084D01*
X4146232Y4168250D01*
X4145568Y4168361D01*
X4144903Y4168416D01*
D02*
G37*
G36*
X2771099Y4808332D02*
X2758419D01*
Y4796925D01*
X2758474Y4796261D01*
X2758529Y4795486D01*
X2758585Y4794600D01*
X2758696Y4793714D01*
X2758862Y4792828D01*
X2759083Y4792053D01*
X2759138Y4791942D01*
X2759249Y4791720D01*
X2759415Y4791388D01*
X2759637Y4790945D01*
X2759969Y4790447D01*
X2760357Y4789949D01*
X2760855Y4789450D01*
X2761409Y4789063D01*
X2761464Y4789007D01*
X2761686Y4788896D01*
X2762018Y4788730D01*
X2762461Y4788509D01*
X2762959Y4788343D01*
X2763513Y4788177D01*
X2764177Y4788066D01*
X2764842Y4788010D01*
X2764897D01*
X2764953D01*
X2765285Y4788066D01*
X2765783Y4788121D01*
X2766448Y4788232D01*
X2767112Y4788509D01*
X2767887Y4788841D01*
X2768607Y4789339D01*
X2769327Y4790004D01*
X2769382Y4790115D01*
X2769604Y4790391D01*
X2769881Y4790834D01*
X2770213Y4791554D01*
X2770545Y4792385D01*
X2770822Y4793492D01*
X2771043Y4794766D01*
X2771099Y4796261D01*
Y4808332D01*
D02*
G37*
G36*
X2751354Y4051905D02*
X2738673D01*
Y4040499D01*
X2738729Y4039834D01*
X2738784Y4039059D01*
X2738840Y4038173D01*
X2738950Y4037287D01*
X2739116Y4036401D01*
X2739338Y4035626D01*
X2739393Y4035515D01*
X2739504Y4035294D01*
X2739670Y4034961D01*
X2739892Y4034518D01*
X2740224Y4034020D01*
X2740611Y4033522D01*
X2741110Y4033023D01*
X2741664Y4032636D01*
X2741719Y4032580D01*
X2741940Y4032470D01*
X2742273Y4032304D01*
X2742716Y4032082D01*
X2743214Y4031916D01*
X2743768Y4031750D01*
X2744432Y4031639D01*
X2745097Y4031584D01*
X2745152D01*
X2745207D01*
X2745540Y4031639D01*
X2746038Y4031695D01*
X2746702Y4031805D01*
X2747367Y4032082D01*
X2748142Y4032414D01*
X2748862Y4032913D01*
X2749582Y4033577D01*
X2749637Y4033688D01*
X2749859Y4033965D01*
X2750135Y4034408D01*
X2750468Y4035128D01*
X2750800Y4035958D01*
X2751077Y4037066D01*
X2751298Y4038339D01*
X2751354Y4039834D01*
Y4051905D01*
D02*
G37*
G36*
X2730811Y3987563D02*
Y3975492D01*
X2747976D01*
X2730811Y3987563D01*
D02*
G37*
G36*
X3370166Y3871354D02*
X3358095D01*
Y3858674D01*
X3369501D01*
X3370166Y3858729D01*
X3370941Y3858784D01*
X3371827Y3858840D01*
X3372713Y3858950D01*
X3373599Y3859116D01*
X3374374Y3859338D01*
X3374485Y3859393D01*
X3374706Y3859504D01*
X3375038Y3859670D01*
X3375481Y3859892D01*
X3375980Y3860224D01*
X3376478Y3860612D01*
X3376976Y3861110D01*
X3377364Y3861664D01*
X3377419Y3861719D01*
X3377530Y3861940D01*
X3377696Y3862273D01*
X3377918Y3862716D01*
X3378084Y3863214D01*
X3378250Y3863768D01*
X3378361Y3864432D01*
X3378416Y3865097D01*
Y3865152D01*
Y3865207D01*
X3378361Y3865540D01*
X3378305Y3866038D01*
X3378195Y3866702D01*
X3377918Y3867367D01*
X3377586Y3868142D01*
X3377087Y3868862D01*
X3376423Y3869582D01*
X3376312Y3869637D01*
X3376035Y3869859D01*
X3375592Y3870136D01*
X3374872Y3870468D01*
X3374042Y3870800D01*
X3372934Y3871077D01*
X3371661Y3871298D01*
X3370166Y3871354D01*
D02*
G37*
G36*
X4181354Y4771905D02*
X4168674D01*
Y4760499D01*
X4168729Y4759834D01*
X4168784Y4759059D01*
X4168840Y4758173D01*
X4168951Y4757287D01*
X4169117Y4756401D01*
X4169338Y4755626D01*
X4169393Y4755515D01*
X4169504Y4755294D01*
X4169670Y4754962D01*
X4169892Y4754519D01*
X4170224Y4754020D01*
X4170612Y4753522D01*
X4171110Y4753024D01*
X4171664Y4752636D01*
X4171719Y4752581D01*
X4171941Y4752470D01*
X4172273Y4752304D01*
X4172716Y4752082D01*
X4173214Y4751916D01*
X4173768Y4751750D01*
X4174432Y4751639D01*
X4175097Y4751584D01*
X4175152D01*
X4175208D01*
X4175540Y4751639D01*
X4176038Y4751695D01*
X4176703Y4751805D01*
X4177367Y4752082D01*
X4178142Y4752414D01*
X4178862Y4752913D01*
X4179582Y4753577D01*
X4179637Y4753688D01*
X4179859Y4753965D01*
X4180136Y4754408D01*
X4180468Y4755128D01*
X4180800Y4755958D01*
X4181077Y4757066D01*
X4181298Y4758339D01*
X4181354Y4759834D01*
Y4771905D01*
D02*
G37*
G36*
X4172660Y4705736D02*
X4172605D01*
X4172494D01*
X4172328D01*
X4172051Y4705680D01*
X4171719D01*
X4171387Y4705625D01*
X4170556Y4705459D01*
X4169615Y4705182D01*
X4168618Y4704850D01*
X4167622Y4704296D01*
X4166736Y4703576D01*
X4166625Y4703466D01*
X4166403Y4703189D01*
X4166016Y4702690D01*
X4165628Y4702081D01*
X4165185Y4701251D01*
X4164798Y4700309D01*
X4164576Y4699257D01*
X4164465Y4698094D01*
Y4697762D01*
X4164521Y4697541D01*
X4164576Y4696932D01*
X4164742Y4696212D01*
X4165019Y4695326D01*
X4165407Y4694440D01*
X4165960Y4693554D01*
X4166736Y4692723D01*
X4166846Y4692613D01*
X4167179Y4692391D01*
X4167677Y4692059D01*
X4168397Y4691616D01*
X4169283Y4691228D01*
X4170335Y4690896D01*
X4171608Y4690675D01*
X4173048Y4690564D01*
X4173103D01*
X4173214D01*
X4173436D01*
X4173713Y4690619D01*
X4174100D01*
X4174488Y4690675D01*
X4175374Y4690841D01*
X4176426Y4691062D01*
X4177533Y4691450D01*
X4178585Y4692004D01*
X4179527Y4692723D01*
X4179582D01*
X4179637Y4692834D01*
X4179914Y4693111D01*
X4180302Y4693554D01*
X4180745Y4694163D01*
X4181132Y4694938D01*
X4181520Y4695824D01*
X4181797Y4696821D01*
X4181908Y4697375D01*
Y4698261D01*
X4181852Y4698482D01*
X4181797Y4699091D01*
X4181575Y4699811D01*
X4181298Y4700697D01*
X4180800Y4701638D01*
X4180191Y4702580D01*
X4179748Y4703023D01*
X4179305Y4703466D01*
X4179250D01*
X4179194Y4703576D01*
X4179028Y4703687D01*
X4178862Y4703798D01*
X4178308Y4704185D01*
X4177533Y4704573D01*
X4176592Y4705016D01*
X4175429Y4705404D01*
X4174100Y4705625D01*
X4172660Y4705736D01*
D02*
G37*
G36*
X4144903Y3788416D02*
X4144848D01*
X4144793D01*
X4144460Y3788361D01*
X4143962Y3788306D01*
X4143298Y3788195D01*
X4142633Y3787918D01*
X4141858Y3787586D01*
X4141138Y3787087D01*
X4140418Y3786423D01*
X4140363Y3786312D01*
X4140141Y3786035D01*
X4139864Y3785592D01*
X4139532Y3784873D01*
X4139200Y3784042D01*
X4138923Y3782935D01*
X4138702Y3781661D01*
X4138646Y3780166D01*
Y3768095D01*
X4151326D01*
Y3779501D01*
X4151271Y3780166D01*
X4151216Y3780941D01*
X4151160Y3781827D01*
X4151050Y3782713D01*
X4150883Y3783599D01*
X4150662Y3784374D01*
X4150607Y3784485D01*
X4150496Y3784706D01*
X4150330Y3785039D01*
X4150108Y3785482D01*
X4149776Y3785980D01*
X4149388Y3786478D01*
X4148890Y3786977D01*
X4148336Y3787364D01*
X4148281Y3787420D01*
X4148060Y3787530D01*
X4147727Y3787697D01*
X4147284Y3787918D01*
X4146786Y3788084D01*
X4146232Y3788250D01*
X4145568Y3788361D01*
X4144903Y3788416D01*
D02*
G37*
G36*
X5000166Y3881354D02*
X4988095D01*
Y3868673D01*
X4999501D01*
X5000166Y3868729D01*
X5000941Y3868784D01*
X5001827Y3868840D01*
X5002713Y3868950D01*
X5003599Y3869116D01*
X5004374Y3869338D01*
X5004485Y3869393D01*
X5004706Y3869504D01*
X5005039Y3869670D01*
X5005481Y3869892D01*
X5005980Y3870224D01*
X5006478Y3870612D01*
X5006977Y3871110D01*
X5007364Y3871664D01*
X5007419Y3871719D01*
X5007530Y3871940D01*
X5007696Y3872273D01*
X5007918Y3872716D01*
X5008084Y3873214D01*
X5008250Y3873768D01*
X5008361Y3874432D01*
X5008416Y3875097D01*
Y3875152D01*
Y3875207D01*
X5008361Y3875540D01*
X5008305Y3876038D01*
X5008195Y3876702D01*
X5007918Y3877367D01*
X5007586Y3878142D01*
X5007087Y3878862D01*
X5006423Y3879582D01*
X5006312Y3879637D01*
X5006035Y3879859D01*
X5005592Y3880135D01*
X5004872Y3880468D01*
X5004042Y3880800D01*
X5002934Y3881077D01*
X5001661Y3881298D01*
X5000166Y3881354D01*
D02*
G37*
G36*
X2751354Y3431905D02*
X2738673D01*
Y3420499D01*
X2738729Y3419834D01*
X2738784Y3419059D01*
X2738840Y3418173D01*
X2738950Y3417287D01*
X2739116Y3416401D01*
X2739338Y3415626D01*
X2739393Y3415515D01*
X2739504Y3415294D01*
X2739670Y3414961D01*
X2739892Y3414518D01*
X2740224Y3414020D01*
X2740611Y3413522D01*
X2741110Y3413023D01*
X2741664Y3412636D01*
X2741719Y3412580D01*
X2741940Y3412470D01*
X2742273Y3412304D01*
X2742716Y3412082D01*
X2743214Y3411916D01*
X2743768Y3411750D01*
X2744432Y3411639D01*
X2745097Y3411584D01*
X2745152D01*
X2745207D01*
X2745540Y3411639D01*
X2746038Y3411694D01*
X2746702Y3411805D01*
X2747367Y3412082D01*
X2748142Y3412414D01*
X2748862Y3412913D01*
X2749582Y3413577D01*
X2749637Y3413688D01*
X2749859Y3413965D01*
X2750135Y3414408D01*
X2750468Y3415128D01*
X2750800Y3415958D01*
X2751077Y3417066D01*
X2751298Y3418339D01*
X2751354Y3419834D01*
Y3431905D01*
D02*
G37*
G36*
Y3041905D02*
X2738673D01*
Y3030499D01*
X2738729Y3029834D01*
X2738784Y3029059D01*
X2738840Y3028173D01*
X2738950Y3027287D01*
X2739116Y3026401D01*
X2739338Y3025626D01*
X2739393Y3025515D01*
X2739504Y3025294D01*
X2739670Y3024961D01*
X2739892Y3024518D01*
X2740224Y3024020D01*
X2740611Y3023522D01*
X2741110Y3023023D01*
X2741664Y3022636D01*
X2741719Y3022580D01*
X2741940Y3022470D01*
X2742273Y3022304D01*
X2742716Y3022082D01*
X2743214Y3021916D01*
X2743768Y3021750D01*
X2744432Y3021639D01*
X2745097Y3021584D01*
X2745152D01*
X2745207D01*
X2745540Y3021639D01*
X2746038Y3021694D01*
X2746702Y3021805D01*
X2747367Y3022082D01*
X2748142Y3022414D01*
X2748862Y3022913D01*
X2749582Y3023577D01*
X2749637Y3023688D01*
X2749859Y3023965D01*
X2750135Y3024408D01*
X2750468Y3025128D01*
X2750800Y3025958D01*
X2751077Y3027066D01*
X2751298Y3028339D01*
X2751354Y3029834D01*
Y3041905D01*
D02*
G37*
G36*
X2742660Y2975736D02*
X2742605D01*
X2742494D01*
X2742328D01*
X2742051Y2975680D01*
X2741719D01*
X2741387Y2975625D01*
X2740556Y2975459D01*
X2739615Y2975182D01*
X2738618Y2974850D01*
X2737621Y2974296D01*
X2736735Y2973576D01*
X2736625Y2973465D01*
X2736403Y2973189D01*
X2736016Y2972690D01*
X2735628Y2972081D01*
X2735185Y2971251D01*
X2734797Y2970309D01*
X2734576Y2969257D01*
X2734465Y2968094D01*
Y2967762D01*
X2734521Y2967541D01*
X2734576Y2966932D01*
X2734742Y2966212D01*
X2735019Y2965326D01*
X2735407Y2964440D01*
X2735960Y2963554D01*
X2736735Y2962723D01*
X2736846Y2962613D01*
X2737178Y2962391D01*
X2737677Y2962059D01*
X2738397Y2961616D01*
X2739283Y2961228D01*
X2740335Y2960896D01*
X2741608Y2960675D01*
X2743048Y2960564D01*
X2743103D01*
X2743214D01*
X2743435D01*
X2743712Y2960619D01*
X2744100D01*
X2744488Y2960675D01*
X2745373Y2960841D01*
X2746426Y2961062D01*
X2747533Y2961450D01*
X2748585Y2962003D01*
X2749526Y2962723D01*
X2749582D01*
X2749637Y2962834D01*
X2749914Y2963111D01*
X2750302Y2963554D01*
X2750745Y2964163D01*
X2751132Y2964938D01*
X2751520Y2965824D01*
X2751797Y2966821D01*
X2751907Y2967375D01*
Y2968261D01*
X2751852Y2968482D01*
X2751797Y2969091D01*
X2751575Y2969811D01*
X2751298Y2970697D01*
X2750800Y2971638D01*
X2750191Y2972580D01*
X2749748Y2973023D01*
X2749305Y2973465D01*
X2749250D01*
X2749194Y2973576D01*
X2749028Y2973687D01*
X2748862Y2973798D01*
X2748308Y2974185D01*
X2747533Y2974573D01*
X2746592Y2975016D01*
X2745429Y2975403D01*
X2744100Y2975625D01*
X2742660Y2975736D01*
D02*
G37*
G36*
X2751353Y2661906D02*
X2738673D01*
Y2650499D01*
X2738729Y2649834D01*
X2738784Y2649059D01*
X2738839Y2648173D01*
X2738950Y2647287D01*
X2739116Y2646401D01*
X2739338Y2645626D01*
X2739393Y2645515D01*
X2739504Y2645294D01*
X2739670Y2644962D01*
X2739891Y2644519D01*
X2740224Y2644020D01*
X2740611Y2643522D01*
X2741110Y2643024D01*
X2741663Y2642636D01*
X2741719Y2642581D01*
X2741940Y2642470D01*
X2742272Y2642304D01*
X2742715Y2642082D01*
X2743214Y2641916D01*
X2743767Y2641750D01*
X2744432Y2641639D01*
X2745096Y2641584D01*
X2745152D01*
X2745207D01*
X2745539Y2641639D01*
X2746038Y2641695D01*
X2746702Y2641805D01*
X2747367Y2642082D01*
X2748142Y2642415D01*
X2748862Y2642913D01*
X2749581Y2643577D01*
X2749637Y2643688D01*
X2749858Y2643965D01*
X2750135Y2644408D01*
X2750467Y2645128D01*
X2750800Y2645958D01*
X2751077Y2647066D01*
X2751298Y2648339D01*
X2751353Y2649834D01*
Y2661906D01*
D02*
G37*
G36*
X2730810Y2627353D02*
Y2615282D01*
X2747976D01*
X2730810Y2627353D01*
D02*
G37*
G36*
X2736181Y2595736D02*
X2736071D01*
X2735794D01*
X2735296D01*
X2734631Y2595681D01*
X2733911D01*
X2733025Y2595625D01*
X2732084Y2595570D01*
X2731087Y2595459D01*
X2728928Y2595182D01*
X2727876Y2595016D01*
X2726879Y2594795D01*
X2725938Y2594573D01*
X2725052Y2594241D01*
X2724276Y2593909D01*
X2723612Y2593521D01*
X2723557D01*
X2723501Y2593410D01*
X2723114Y2593133D01*
X2722615Y2592635D01*
X2722062Y2592026D01*
X2721508Y2591195D01*
X2721010Y2590254D01*
X2720622Y2589202D01*
X2720567Y2588648D01*
X2720511Y2588039D01*
Y2587707D01*
X2720567Y2587486D01*
X2720677Y2586932D01*
X2720899Y2586157D01*
X2721286Y2585326D01*
X2721840Y2584385D01*
X2722172Y2583942D01*
X2722615Y2583499D01*
X2723058Y2583056D01*
X2723612Y2582613D01*
X2723667D01*
X2723778Y2582502D01*
X2723944Y2582391D01*
X2724221Y2582281D01*
X2724609Y2582059D01*
X2725107Y2581893D01*
X2725661Y2581671D01*
X2726325Y2581450D01*
X2727156Y2581284D01*
X2728042Y2581062D01*
X2729094Y2580841D01*
X2730201Y2580675D01*
X2731530Y2580564D01*
X2732915Y2580453D01*
X2734465Y2580343D01*
X2736181D01*
X2736237D01*
X2736292D01*
X2736569D01*
X2737067D01*
X2737732Y2580398D01*
X2738452D01*
X2739338Y2580453D01*
X2740279Y2580509D01*
X2741331Y2580619D01*
X2743435Y2580896D01*
X2744487Y2581062D01*
X2745484Y2581284D01*
X2746425Y2581505D01*
X2747311Y2581838D01*
X2748086Y2582170D01*
X2748751Y2582557D01*
X2748806D01*
X2748862Y2582668D01*
X2749028Y2582779D01*
X2749249Y2582945D01*
X2749748Y2583443D01*
X2750357Y2584052D01*
X2750910Y2584883D01*
X2751409Y2585824D01*
X2751630Y2586323D01*
X2751796Y2586876D01*
X2751852Y2587486D01*
X2751907Y2588095D01*
Y2588427D01*
X2751852Y2588648D01*
X2751741Y2589257D01*
X2751575Y2589977D01*
X2751243Y2590808D01*
X2750744Y2591694D01*
X2750412Y2592137D01*
X2750080Y2592580D01*
X2749637Y2592967D01*
X2749139Y2593355D01*
X2749083D01*
X2748972Y2593466D01*
X2748751Y2593576D01*
X2748474Y2593743D01*
X2748031Y2593909D01*
X2747533Y2594130D01*
X2746924Y2594296D01*
X2746204Y2594518D01*
X2745373Y2594739D01*
X2744432Y2594961D01*
X2743380Y2595182D01*
X2742217Y2595348D01*
X2740888Y2595514D01*
X2739448Y2595625D01*
X2737898Y2595681D01*
X2736181Y2595736D01*
D02*
G37*
G36*
X3482218Y2435476D02*
X3470147Y2418311D01*
X3482218D01*
Y2435476D01*
D02*
G37*
G36*
X3447666Y2438854D02*
X3435595D01*
Y2426173D01*
X3447001D01*
X3447666Y2426229D01*
X3448441Y2426284D01*
X3449327Y2426340D01*
X3450213Y2426450D01*
X3451099Y2426616D01*
X3451874Y2426838D01*
X3451985Y2426893D01*
X3452206Y2427004D01*
X3452538Y2427170D01*
X3452981Y2427392D01*
X3453480Y2427724D01*
X3453978Y2428111D01*
X3454476Y2428610D01*
X3454864Y2429164D01*
X3454919Y2429219D01*
X3455030Y2429440D01*
X3455196Y2429773D01*
X3455418Y2430216D01*
X3455584Y2430714D01*
X3455750Y2431268D01*
X3455861Y2431932D01*
X3455916Y2432597D01*
Y2432652D01*
Y2432707D01*
X3455861Y2433040D01*
X3455805Y2433538D01*
X3455695Y2434202D01*
X3455418Y2434867D01*
X3455086Y2435642D01*
X3454587Y2436362D01*
X3453923Y2437082D01*
X3453812Y2437137D01*
X3453535Y2437359D01*
X3453092Y2437635D01*
X3452372Y2437968D01*
X3451542Y2438300D01*
X3450434Y2438577D01*
X3449161Y2438798D01*
X3447666Y2438854D01*
D02*
G37*
G36*
X4261354Y3341905D02*
X4248673D01*
Y3330499D01*
X4248729Y3329834D01*
X4248784Y3329059D01*
X4248840Y3328173D01*
X4248950Y3327287D01*
X4249116Y3326401D01*
X4249338Y3325626D01*
X4249393Y3325515D01*
X4249504Y3325294D01*
X4249670Y3324962D01*
X4249892Y3324519D01*
X4250224Y3324020D01*
X4250612Y3323522D01*
X4251110Y3323024D01*
X4251664Y3322636D01*
X4251719Y3322581D01*
X4251940Y3322470D01*
X4252273Y3322304D01*
X4252716Y3322082D01*
X4253214Y3321916D01*
X4253768Y3321750D01*
X4254432Y3321639D01*
X4255097Y3321584D01*
X4255152D01*
X4255207D01*
X4255540Y3321639D01*
X4256038Y3321695D01*
X4256702Y3321805D01*
X4257367Y3322082D01*
X4258142Y3322414D01*
X4258862Y3322913D01*
X4259582Y3323577D01*
X4259637Y3323688D01*
X4259859Y3323965D01*
X4260135Y3324408D01*
X4260468Y3325128D01*
X4260800Y3325958D01*
X4261077Y3327066D01*
X4261298Y3328339D01*
X4261354Y3329834D01*
Y3341905D01*
D02*
G37*
G36*
X4240811Y3307353D02*
Y3295282D01*
X4257976D01*
X4240811Y3307353D01*
D02*
G37*
G36*
X4271354Y2971905D02*
X4258674D01*
Y2960499D01*
X4258729Y2959834D01*
X4258784Y2959059D01*
X4258840Y2958173D01*
X4258951Y2957287D01*
X4259117Y2956401D01*
X4259338Y2955626D01*
X4259394Y2955515D01*
X4259504Y2955294D01*
X4259670Y2954962D01*
X4259892Y2954519D01*
X4260224Y2954020D01*
X4260612Y2953522D01*
X4261110Y2953024D01*
X4261664Y2952636D01*
X4261719Y2952581D01*
X4261941Y2952470D01*
X4262273Y2952304D01*
X4262716Y2952082D01*
X4263214Y2951916D01*
X4263768Y2951750D01*
X4264432Y2951639D01*
X4265097Y2951584D01*
X4265152D01*
X4265208D01*
X4265540Y2951639D01*
X4266038Y2951695D01*
X4266703Y2951805D01*
X4267367Y2952082D01*
X4268142Y2952414D01*
X4268862Y2952913D01*
X4269582Y2953577D01*
X4269637Y2953688D01*
X4269859Y2953965D01*
X4270136Y2954408D01*
X4270468Y2955128D01*
X4270800Y2955958D01*
X4271077Y2957066D01*
X4271299Y2958339D01*
X4271354Y2959834D01*
Y2971905D01*
D02*
G37*
G36*
X4250811Y2937353D02*
Y2925282D01*
X4267976D01*
X4250811Y2937353D01*
D02*
G37*
G36*
X4281354Y2561905D02*
X4268674D01*
Y2550499D01*
X4268729Y2549834D01*
X4268784Y2549059D01*
X4268840Y2548173D01*
X4268951Y2547287D01*
X4269117Y2546401D01*
X4269338Y2545626D01*
X4269394Y2545515D01*
X4269504Y2545294D01*
X4269670Y2544962D01*
X4269892Y2544519D01*
X4270224Y2544020D01*
X4270612Y2543522D01*
X4271110Y2543024D01*
X4271664Y2542636D01*
X4271719Y2542581D01*
X4271941Y2542470D01*
X4272273Y2542304D01*
X4272716Y2542082D01*
X4273214Y2541916D01*
X4273768Y2541750D01*
X4274432Y2541639D01*
X4275097Y2541584D01*
X4275152D01*
X4275208D01*
X4275540Y2541639D01*
X4276038Y2541695D01*
X4276703Y2541805D01*
X4277367Y2542082D01*
X4278142Y2542415D01*
X4278862Y2542913D01*
X4279582Y2543577D01*
X4279637Y2543688D01*
X4279859Y2543965D01*
X4280136Y2544408D01*
X4280468Y2545128D01*
X4280800Y2545958D01*
X4281077Y2547066D01*
X4281299Y2548339D01*
X4281354Y2549834D01*
Y2561905D01*
D02*
G37*
G36*
X4260811Y2527353D02*
Y2515282D01*
X4277976D01*
X4260811Y2527353D01*
D02*
G37*
G36*
X4275983Y2494241D02*
X4275927D01*
X4275872D01*
X4275540Y2494186D01*
X4275041Y2494130D01*
X4274432Y2494019D01*
X4273713Y2493798D01*
X4272993Y2493521D01*
X4272218Y2493078D01*
X4271553Y2492524D01*
X4271498Y2492469D01*
X4271276Y2492192D01*
X4270999Y2491805D01*
X4270722Y2491306D01*
X4270390Y2490642D01*
X4270113Y2489866D01*
X4269892Y2488981D01*
X4269837Y2487984D01*
Y2487873D01*
X4269892Y2487541D01*
X4269947Y2487043D01*
X4270058Y2486378D01*
X4270279Y2485658D01*
X4270556Y2484938D01*
X4270999Y2484163D01*
X4271553Y2483499D01*
X4271608Y2483443D01*
X4271885Y2483222D01*
X4272218Y2482945D01*
X4272716Y2482613D01*
X4273325Y2482281D01*
X4274045Y2482004D01*
X4274875Y2481782D01*
X4275761Y2481727D01*
X4275817D01*
X4275872D01*
X4276204D01*
X4276703Y2481838D01*
X4277312Y2481948D01*
X4277976Y2482170D01*
X4278696Y2482502D01*
X4279416Y2482945D01*
X4280136Y2483554D01*
X4280191Y2483609D01*
X4280413Y2483886D01*
X4280689Y2484274D01*
X4281022Y2484772D01*
X4281354Y2485437D01*
X4281631Y2486157D01*
X4281852Y2487043D01*
X4281908Y2487984D01*
Y2488427D01*
X4281797Y2488925D01*
X4281686Y2489590D01*
X4281465Y2490309D01*
X4281188Y2491085D01*
X4280745Y2491805D01*
X4280136Y2492524D01*
X4280080Y2492580D01*
X4279859Y2492801D01*
X4279471Y2493078D01*
X4278973Y2493355D01*
X4278364Y2493687D01*
X4277644Y2493964D01*
X4276869Y2494186D01*
X4275983Y2494241D01*
D02*
G37*
G36*
X4258319Y2495791D02*
X4258208D01*
X4257987D01*
X4257599Y2495736D01*
X4257101Y2495681D01*
X4256492Y2495570D01*
X4255827Y2495404D01*
X4255163Y2495182D01*
X4254443Y2494905D01*
X4254388Y2494850D01*
X4254111Y2494739D01*
X4253779Y2494518D01*
X4253391Y2494186D01*
X4252893Y2493798D01*
X4252394Y2493300D01*
X4251951Y2492746D01*
X4251508Y2492081D01*
X4251453Y2491971D01*
X4251342Y2491749D01*
X4251176Y2491362D01*
X4251010Y2490863D01*
X4250844Y2490254D01*
X4250678Y2489534D01*
X4250567Y2488759D01*
X4250512Y2487984D01*
Y2487652D01*
X4250567Y2487430D01*
X4250622Y2486766D01*
X4250789Y2485990D01*
X4251065Y2485105D01*
X4251398Y2484163D01*
X4251951Y2483277D01*
X4252671Y2482391D01*
X4252782Y2482281D01*
X4253059Y2482059D01*
X4253557Y2481671D01*
X4254166Y2481284D01*
X4254941Y2480896D01*
X4255883Y2480509D01*
X4256990Y2480287D01*
X4258153Y2480176D01*
X4258208D01*
X4258319D01*
X4258485D01*
X4258707Y2480232D01*
X4259316Y2480287D01*
X4260146Y2480453D01*
X4260977Y2480730D01*
X4261918Y2481118D01*
X4262860Y2481671D01*
X4263746Y2482447D01*
X4263856Y2482557D01*
X4264078Y2482834D01*
X4264465Y2483333D01*
X4264908Y2483997D01*
X4265296Y2484828D01*
X4265684Y2485824D01*
X4265905Y2486932D01*
X4266016Y2488150D01*
Y2488482D01*
X4265960Y2488704D01*
X4265905Y2489313D01*
X4265739Y2490088D01*
X4265462Y2490974D01*
X4265075Y2491860D01*
X4264521Y2492801D01*
X4263801Y2493632D01*
X4263690Y2493743D01*
X4263413Y2493964D01*
X4262915Y2494296D01*
X4262306Y2494684D01*
X4261475Y2495127D01*
X4260534Y2495459D01*
X4259482Y2495681D01*
X4258319Y2495791D01*
D02*
G37*
G36*
X4762625Y2481907D02*
X4761739D01*
X4761518Y2481852D01*
X4760908Y2481796D01*
X4760189Y2481575D01*
X4759303Y2481298D01*
X4758361Y2480800D01*
X4757420Y2480191D01*
X4756977Y2479748D01*
X4756534Y2479305D01*
Y2479249D01*
X4756423Y2479194D01*
X4756313Y2479028D01*
X4756202Y2478862D01*
X4755814Y2478308D01*
X4755427Y2477533D01*
X4754984Y2476591D01*
X4754596Y2475429D01*
X4754375Y2474100D01*
X4754264Y2472660D01*
Y2472605D01*
Y2472494D01*
Y2472328D01*
X4754319Y2472051D01*
Y2471719D01*
X4754375Y2471386D01*
X4754541Y2470556D01*
X4754818Y2469615D01*
X4755150Y2468618D01*
X4755703Y2467621D01*
X4756423Y2466735D01*
X4756534Y2466624D01*
X4756811Y2466403D01*
X4757309Y2466015D01*
X4757918Y2465628D01*
X4758749Y2465185D01*
X4759690Y2464797D01*
X4760742Y2464576D01*
X4761905Y2464465D01*
X4762237D01*
X4762459Y2464520D01*
X4763068Y2464576D01*
X4763788Y2464742D01*
X4764674Y2465019D01*
X4765560Y2465406D01*
X4766446Y2465960D01*
X4767276Y2466735D01*
X4767387Y2466846D01*
X4767608Y2467178D01*
X4767941Y2467677D01*
X4768384Y2468396D01*
X4768771Y2469282D01*
X4769103Y2470334D01*
X4769325Y2471608D01*
X4769436Y2473048D01*
Y2473103D01*
Y2473214D01*
Y2473435D01*
X4769380Y2473712D01*
Y2474100D01*
X4769325Y2474487D01*
X4769159Y2475373D01*
X4768937Y2476425D01*
X4768550Y2477533D01*
X4767996Y2478585D01*
X4767276Y2479526D01*
Y2479582D01*
X4767165Y2479637D01*
X4766889Y2479914D01*
X4766446Y2480301D01*
X4765837Y2480744D01*
X4765061Y2481132D01*
X4764175Y2481520D01*
X4763179Y2481796D01*
X4762625Y2481907D01*
D02*
G37*
G36*
X4734717Y2477976D02*
X4722646Y2460810D01*
X4734717D01*
Y2477976D01*
D02*
G37*
G36*
X4700165Y2481353D02*
X4688094D01*
Y2468673D01*
X4699501D01*
X4700165Y2468729D01*
X4700941Y2468784D01*
X4701827Y2468839D01*
X4702712Y2468950D01*
X4703598Y2469116D01*
X4704374Y2469338D01*
X4704484Y2469393D01*
X4704706Y2469504D01*
X4705038Y2469670D01*
X4705481Y2469891D01*
X4705979Y2470224D01*
X4706478Y2470611D01*
X4706976Y2471110D01*
X4707364Y2471663D01*
X4707419Y2471719D01*
X4707530Y2471940D01*
X4707696Y2472272D01*
X4707917Y2472715D01*
X4708084Y2473214D01*
X4708250Y2473767D01*
X4708360Y2474432D01*
X4708416Y2475096D01*
Y2475152D01*
Y2475207D01*
X4708360Y2475539D01*
X4708305Y2476038D01*
X4708194Y2476702D01*
X4707917Y2477367D01*
X4707585Y2478142D01*
X4707087Y2478862D01*
X4706422Y2479582D01*
X4706312Y2479637D01*
X4706035Y2479858D01*
X4705592Y2480135D01*
X4704872Y2480467D01*
X4704041Y2480800D01*
X4702934Y2481077D01*
X4701660Y2481298D01*
X4700165Y2481353D01*
D02*
G37*
G36*
X2694903Y4213416D02*
X2694848D01*
X2694792D01*
X2694460Y4213361D01*
X2693962Y4213306D01*
X2693297Y4213195D01*
X2692633Y4212918D01*
X2691858Y4212586D01*
X2691138Y4212087D01*
X2690418Y4211423D01*
X2690363Y4211312D01*
X2690141Y4211035D01*
X2689864Y4210592D01*
X2689532Y4209872D01*
X2689200Y4209042D01*
X2688923Y4207934D01*
X2688702Y4206661D01*
X2688646Y4205166D01*
Y4193095D01*
X2701326D01*
Y4204501D01*
X2701271Y4205166D01*
X2701216Y4205941D01*
X2701160Y4206827D01*
X2701049Y4207713D01*
X2700883Y4208599D01*
X2700662Y4209374D01*
X2700606Y4209485D01*
X2700496Y4209706D01*
X2700330Y4210039D01*
X2700108Y4210482D01*
X2699776Y4210980D01*
X2699388Y4211478D01*
X2698890Y4211977D01*
X2698336Y4212364D01*
X2698281Y4212420D01*
X2698059Y4212530D01*
X2697727Y4212696D01*
X2697284Y4212918D01*
X2696786Y4213084D01*
X2696232Y4213250D01*
X2695568Y4213361D01*
X2694903Y4213416D01*
D02*
G37*
%LPD*%
%TF.MD5,bd26817ee0bc0c56abac42218bd3de4e*%
M02*
