%TF.GenerationSoftware,Altium Limited,Altium Designer,26.6.0 (10)*%
G04 Layer_Color=16711935*
G04 Board_Origin=29350000|14702756*
%FSLAX45Y45*%
%MOMM*%
%TF.SameCoordinates,FF19D583-8477-4E59-B826-EB9FC0F50DB0*%
%TF.FilePolarity,Positive*%
%TF.FileFunction,Other,Mechanical_1*%
%TF.Part,Single*%
G01*
G75*
%TA.AperFunction,NonConductor*%
%ADD56C,0.20000*%
%ADD84C,0.12700*%
%ADD85C,0.15000*%
D56*
X8500000Y5302500D02*
X8500000Y298287D01*
X300000Y5600000D02*
X8200000Y5599999D01*
X300000Y0D02*
X8200000D01*
X100000Y3600000D02*
X400000D01*
X0Y3700000D02*
Y5300000D01*
X100000Y1900000D02*
X400000D01*
X500000Y2000000D02*
Y3500000D01*
X0Y300000D02*
Y1800000D01*
X3200000Y5200000D02*
X3300000Y5300000D01*
X3200000D02*
X3300000Y5200000D01*
X787000Y5073000D02*
X887000Y5173000D01*
X787000D02*
X887000Y5073000D01*
D84*
X8200000Y-1713D02*
G03*
X8500000Y298287I0J300000D01*
G01*
X8500000Y5304213D02*
G03*
X8200000Y5604213I-300000J0D01*
G01*
X500000Y3500000D02*
G03*
X400000Y3600000I-100000J0D01*
G01*
X300000Y5600000D02*
G03*
X0Y5300000I0J-300000D01*
G01*
X-0Y3700000D02*
G03*
X100000Y3600000I100000J0D01*
G01*
X0Y300000D02*
G03*
X300000Y0I300000J0D01*
G01*
X400000Y1900000D02*
G03*
X500000Y2000000I0J100000D01*
G01*
X100000Y1900000D02*
G03*
X0Y1800000I0J-100000D01*
G01*
D85*
X4907500Y3038974D02*
Y2972329D01*
X4920829Y2959000D01*
X4947487D01*
X4960816Y2972329D01*
Y3038974D01*
X4987474Y2959000D02*
X5014132D01*
X5000804D01*
Y3038974D01*
X4987474Y3025645D01*
X5054120Y2972329D02*
X5067449Y2959000D01*
X5094107D01*
X5107436Y2972329D01*
Y3025645D01*
X5094107Y3038974D01*
X5067449D01*
X5054120Y3025645D01*
Y3012316D01*
X5067449Y2998987D01*
X5107436D01*
X3292500Y4424974D02*
Y4358329D01*
X3305829Y4345000D01*
X3332487D01*
X3345816Y4358329D01*
Y4424974D01*
X3372474Y4345000D02*
X3399132D01*
X3385803D01*
Y4424974D01*
X3372474Y4411645D01*
X4922500Y4454974D02*
Y4388329D01*
X4935829Y4375000D01*
X4962487D01*
X4975816Y4388329D01*
Y4454974D01*
X5002474Y4441645D02*
X5015803Y4454974D01*
X5042461D01*
X5055790Y4441645D01*
Y4428316D01*
X5042461Y4414987D01*
X5029132D01*
X5042461D01*
X5055790Y4401658D01*
Y4388329D01*
X5042461Y4375000D01*
X5015803D01*
X5002474Y4388329D01*
X3372500Y2974974D02*
Y2908329D01*
X3385829Y2895000D01*
X3412487D01*
X3425816Y2908329D01*
Y2974974D01*
X3452474Y2895000D02*
X3479132D01*
X3465803D01*
Y2974974D01*
X3452474Y2961645D01*
X3559107Y2895000D02*
Y2974974D01*
X3519119Y2934987D01*
X3572436D01*
%TF.MD5,2530ada6d8364f7d85d24d5ead0cb559*%
M02*
