%TF.GenerationSoftware,Altium Limited,Altium Designer,26.6.0 (10)*%
G04 Layer_Color=32768*
G04 Board_Origin=29350000|14702756*
%FSLAX45Y45*%
%MOMM*%
%TF.SameCoordinates,FF19D583-8477-4E59-B826-EB9FC0F50DB0*%
%TF.FilePolarity,Positive*%
%TF.FileFunction,Other,Mechanical_15*%
%TF.Part,Single*%
G01*
G75*
%TA.AperFunction,NonConductor*%
%ADD56C,0.20000*%
D56*
X6150000Y2920000D02*
Y2980000D01*
X6120000Y2950000D02*
X6180000D01*
X6075000Y2910000D02*
X6225000D01*
X6075000Y2990000D02*
X6225000D01*
X6075000Y2910000D02*
Y2990000D01*
X6225000Y2910000D02*
Y2990000D01*
X3500000Y600000D02*
Y700000D01*
X3450000Y650000D02*
X3550000D01*
X3251465Y455000D02*
X3748536D01*
Y845000D01*
X3251465Y455000D02*
Y845000D01*
X3748536D01*
X1420000Y3610000D02*
X1520000D01*
X1470000Y3560000D02*
Y3660000D01*
X830000Y2970000D02*
Y4250000D01*
X2110000Y2970000D02*
Y4250000D01*
X830000Y2970000D02*
X2110000D01*
X830000Y4250000D02*
X2110000D01*
X1700000Y1099470D02*
X1800000D01*
X1750000Y1049470D02*
Y1149470D01*
X1625000Y1810000D02*
X1875000D01*
X1625000Y1390000D02*
X1875000D01*
Y1810000D01*
X1625000Y1390000D02*
Y1810000D01*
X1750000Y1550000D02*
Y1650000D01*
X1700000Y1600000D02*
X1800000D01*
X1037500Y4585000D02*
Y4665000D01*
X887500Y4585000D02*
Y4665000D01*
X1037500D01*
X887500Y4585000D02*
X1037500D01*
X932500Y4625000D02*
X992500D01*
X962500Y4595000D02*
Y4655000D01*
X1430000Y411100D02*
Y588900D01*
X1790000Y411100D02*
Y588900D01*
X1430000D02*
X1790000D01*
X1430000Y411100D02*
X1790000D01*
X1560000Y500000D02*
X1660000D01*
X1610000Y450000D02*
Y550000D01*
X1925000Y787700D02*
X2575000D01*
X1925000D02*
Y1437700D01*
X2575000D01*
Y787700D02*
Y1437700D01*
X1350000Y1050000D02*
X1450000D01*
X1400000Y1000000D02*
Y1100000D01*
X1597500Y670000D02*
Y1430000D01*
X1202500Y670000D02*
X1597500D01*
X1202500D02*
Y1430000D01*
X1597500D01*
X4695000Y2531500D02*
Y3456500D01*
X5435000Y2531500D02*
Y3456500D01*
X4695000D02*
X5435000D01*
X4695000Y2531500D02*
X5435000D01*
X5015000Y2994000D02*
X5115000D01*
X5065000Y2944000D02*
Y3044000D01*
X2152500Y4150000D02*
X2247500D01*
X2200000Y4102500D02*
Y4197500D01*
X2275000Y4015000D02*
Y4285000D01*
X2125000Y4015000D02*
Y4285000D01*
X2275000D01*
X2125000Y4015000D02*
X2275000D01*
X1420000Y140000D02*
X1900000D01*
X1420000D02*
Y360000D01*
X1900000D01*
Y140000D02*
Y360000D01*
X1660000Y220000D02*
Y250000D01*
Y280000D01*
X1630000Y250000D02*
X1660000D01*
X1690000D01*
X2292500Y270000D02*
Y430000D01*
Y270000D02*
X2632500D01*
Y430000D01*
X2292500D02*
X2632500D01*
X2462500Y350000D02*
X2492500D01*
X2432500D02*
X2462500D01*
Y320000D02*
Y350000D01*
Y380000D01*
X325000Y4500000D02*
Y4600000D01*
X275000Y4550000D02*
X375000D01*
X53000Y4710000D02*
X597000D01*
X53000Y4390000D02*
X597000D01*
Y4710000D01*
X53000Y4390000D02*
Y4710000D01*
X100000Y1760000D02*
X1040000D01*
Y859000D02*
Y1760000D01*
X100000Y860000D02*
Y1760000D01*
Y859000D02*
X1040000D01*
X2785000Y1802500D02*
Y1897500D01*
X2737500Y1850000D02*
X2832500D01*
X2650000Y1925000D02*
X2920000D01*
X2650000Y1775000D02*
X2920000D01*
X2650000D02*
Y1925000D01*
X2920000Y1775000D02*
Y1925000D01*
X2907250Y4794750D02*
X3057250D01*
X2907250Y4524750D02*
X3057250D01*
Y4794750D01*
X2907250Y4524750D02*
Y4794750D01*
X2982250Y4612250D02*
Y4707250D01*
X2934750Y4659750D02*
X3029750D01*
X2905000Y4435000D02*
X3055000D01*
X2905000Y4165000D02*
X3055000D01*
Y4435000D01*
X2905000Y4165000D02*
Y4435000D01*
X2980000Y4252500D02*
Y4347500D01*
X2932500Y4300000D02*
X3027500D01*
X5850000Y4002500D02*
Y4097500D01*
X5802500Y4050000D02*
X5897500D01*
X5715000Y3975000D02*
X5985000D01*
X5715000Y4125000D02*
X5985000D01*
X5715000Y3975000D02*
Y4125000D01*
X5985000Y3975000D02*
Y4125000D01*
X2915000Y3795000D02*
X3065000D01*
X2915000Y4065000D02*
X3065000D01*
X2915000Y3795000D02*
Y4065000D01*
X3065000Y3795000D02*
Y4065000D01*
X2990000Y3882500D02*
Y3977500D01*
X2942500Y3930000D02*
X3037500D01*
X2460000Y550000D02*
Y580000D01*
Y520000D02*
Y550000D01*
X2430000D02*
X2460000D01*
X2490000D01*
X2290000Y630000D02*
X2630000D01*
Y470000D02*
Y630000D01*
X2290000Y470000D02*
X2630000D01*
X2290000D02*
Y630000D01*
X3475000Y3662500D02*
Y3757500D01*
X3427500Y3710000D02*
X3522500D01*
X3340000Y3785000D02*
X3610000D01*
X3340000Y3635000D02*
X3610000D01*
X3340000D02*
Y3785000D01*
X3610000Y3635000D02*
Y3785000D01*
X5875000Y3177500D02*
Y3272500D01*
X5827500Y3225000D02*
X5922500D01*
X5740000Y3150000D02*
X6010000D01*
X5740000Y3300000D02*
X6010000D01*
X5740000Y3150000D02*
Y3300000D01*
X6010000Y3150000D02*
Y3300000D01*
Y2300000D02*
Y2450000D01*
X5740000Y2300000D02*
Y2450000D01*
X6010000D01*
X5740000Y2300000D02*
X6010000D01*
X5827500Y2375000D02*
X5922500D01*
X5875000Y2327500D02*
Y2422500D01*
Y1502500D02*
Y1597500D01*
X5827500Y1550000D02*
X5922500D01*
X5740000Y1475000D02*
X6010000D01*
X5740000Y1625000D02*
X6010000D01*
X5740000Y1475000D02*
Y1625000D01*
X6010000Y1475000D02*
Y1625000D01*
X4335000Y4525000D02*
X4485000D01*
X4335000Y4795000D02*
X4485000D01*
X4335000Y4525000D02*
Y4795000D01*
X4485000Y4525000D02*
Y4795000D01*
X4410000Y4612500D02*
Y4707500D01*
X4362500Y4660000D02*
X4457500D01*
X4362500Y4270000D02*
X4457500D01*
X4410000Y4222500D02*
Y4317500D01*
X4335000Y4135000D02*
Y4405000D01*
X4485000Y4135000D02*
Y4405000D01*
X4335000Y4135000D02*
X4485000D01*
X4335000Y4405000D02*
X4485000D01*
X4372500Y3885000D02*
X4467500D01*
X4420000Y3837500D02*
Y3932500D01*
X4345000Y3750000D02*
Y4020000D01*
X4495000Y3750000D02*
Y4020000D01*
X4345000Y3750000D02*
X4495000D01*
X4345000Y4020000D02*
X4495000D01*
X5775000Y752500D02*
Y847500D01*
X5727500Y800000D02*
X5822500D01*
X5640000Y725000D02*
X5910000D01*
X5640000Y875000D02*
X5910000D01*
X5640000Y725000D02*
Y875000D01*
X5910000Y725000D02*
Y875000D01*
X5115000Y3672500D02*
Y3767500D01*
X5067500Y3720000D02*
X5162500D01*
X4980000Y3795000D02*
X5250000D01*
X4980000Y3645000D02*
X5250000D01*
X4980000D02*
Y3795000D01*
X5250000Y3645000D02*
Y3795000D01*
X4175000Y4002500D02*
Y4097500D01*
X4127500Y4050000D02*
X4222500D01*
X4040000Y3975000D02*
X4310000D01*
X4040000Y4125000D02*
X4310000D01*
X4040000Y3975000D02*
Y4125000D01*
X4310000Y3975000D02*
Y4125000D01*
X4200000Y3177500D02*
Y3272500D01*
X4152500Y3225000D02*
X4247500D01*
X4065000Y3150000D02*
X4335000D01*
X4065000Y3300000D02*
X4335000D01*
X4065000Y3150000D02*
Y3300000D01*
X4335000Y3150000D02*
Y3300000D01*
X4075000Y2327500D02*
Y2422500D01*
X4027500Y2375000D02*
X4122500D01*
X3940000Y2300000D02*
X4210000D01*
X3940000Y2450000D02*
X4210000D01*
X3940000Y2300000D02*
Y2450000D01*
X4210000Y2300000D02*
Y2450000D01*
X2962500Y3315000D02*
X3057500D01*
X3010000Y3267500D02*
Y3362500D01*
X3085000Y3180000D02*
Y3450000D01*
X2935000Y3180000D02*
Y3450000D01*
X3085000D01*
X2935000Y3180000D02*
X3085000D01*
X2962500Y2920000D02*
X3057500D01*
X3010000Y2872500D02*
Y2967500D01*
X3085000Y2785000D02*
Y3055000D01*
X2935000Y2785000D02*
Y3055000D01*
X3085000D01*
X2935000Y2785000D02*
X3085000D01*
X2952500Y2540000D02*
X3047500D01*
X3000000Y2492500D02*
Y2587500D01*
X3075000Y2405000D02*
Y2675000D01*
X2925000Y2405000D02*
Y2675000D01*
X3075000D01*
X2925000Y2405000D02*
X3075000D01*
X3775000Y1477500D02*
Y1572500D01*
X3727500Y1525000D02*
X3822500D01*
X3640000Y1450000D02*
X3910000D01*
X3640000Y1600000D02*
X3910000D01*
X3640000Y1450000D02*
Y1600000D01*
X3910000Y1450000D02*
Y1600000D01*
X3557500Y2237500D02*
Y2332500D01*
X3510000Y2285000D02*
X3605000D01*
X3422500Y2360000D02*
X3692500D01*
X3422500Y2210000D02*
X3692500D01*
X3422500D02*
Y2360000D01*
X3692500Y2210000D02*
Y2360000D01*
X3785000Y627500D02*
Y722500D01*
X3737500Y675000D02*
X3832500D01*
X3650000Y600000D02*
X3920000D01*
X3650000Y750000D02*
X3920000D01*
X3650000Y600000D02*
Y750000D01*
X3920000Y600000D02*
Y750000D01*
X2475000Y4002500D02*
Y4097500D01*
X2427500Y4050000D02*
X2522500D01*
X2340000Y3975000D02*
X2610000D01*
X2340000Y4125000D02*
X2610000D01*
X2340000Y3975000D02*
Y4125000D01*
X2610000Y3975000D02*
Y4125000D01*
X2450000Y3177500D02*
Y3272500D01*
X2402500Y3225000D02*
X2497500D01*
X2315000Y3150000D02*
X2585000D01*
X2315000Y3300000D02*
X2585000D01*
X2315000Y3150000D02*
Y3300000D01*
X2585000Y3150000D02*
Y3300000D01*
X4452500Y3215000D02*
X4547500D01*
X4500000Y3167500D02*
Y3262500D01*
X4575000Y3080000D02*
Y3350000D01*
X4425000Y3080000D02*
Y3350000D01*
X4575000D01*
X4425000Y3080000D02*
X4575000D01*
X4470000Y2835000D02*
X4565000D01*
X4517500Y2787500D02*
Y2882500D01*
X4592500Y2700000D02*
Y2970000D01*
X4442500Y2700000D02*
Y2970000D01*
X4592500D01*
X4442500Y2700000D02*
X4592500D01*
X4462500Y2445000D02*
X4557500D01*
X4510000Y2397500D02*
Y2492500D01*
X4585000Y2310000D02*
Y2580000D01*
X4435000Y2310000D02*
Y2580000D01*
X4585000D01*
X4435000Y2310000D02*
X4585000D01*
X2345000Y2322500D02*
Y2417500D01*
X2297500Y2370000D02*
X2392500D01*
X2210000Y2295000D02*
X2480000D01*
X2210000Y2445000D02*
X2480000D01*
X2210000Y2295000D02*
Y2445000D01*
X2480000Y2295000D02*
Y2445000D01*
X5220000Y2412500D02*
Y2507500D01*
X5172500Y2460000D02*
X5267500D01*
X5085000Y2385000D02*
X5355000D01*
X5085000Y2535000D02*
X5355000D01*
Y2385000D02*
Y2535000D01*
X5085000Y2385000D02*
Y2535000D01*
X2100000Y1472500D02*
Y1567500D01*
X2052500Y1520000D02*
X2147500D01*
X1965000Y1445000D02*
X2235000D01*
X1965000Y1595000D02*
X2235000D01*
X1965000Y1445000D02*
Y1595000D01*
X2235000Y1445000D02*
Y1595000D01*
X1975000Y627500D02*
Y722500D01*
X1927500Y675000D02*
X2022500D01*
X1840000Y600000D02*
X2110000D01*
X1840000Y750000D02*
X2110000D01*
X1840000Y600000D02*
Y750000D01*
X2110000Y600000D02*
Y750000D01*
X740000Y3752500D02*
Y3847500D01*
X692500Y3800000D02*
X787500D01*
X605000Y3725000D02*
X875000D01*
X605000Y3875000D02*
X875000D01*
X605000Y3725000D02*
Y3875000D01*
X875000Y3725000D02*
Y3875000D01*
X1432500Y2737500D02*
Y2887500D01*
X1702500Y2737500D02*
Y2887500D01*
X1432500D02*
X1702500D01*
X1432500Y2737500D02*
X1702500D01*
X1520000Y2812500D02*
X1615000D01*
X1567500Y2765000D02*
Y2860000D01*
X1580000Y4342500D02*
Y4437500D01*
X1532500Y4390000D02*
X1627500D01*
X1445000Y4465000D02*
X1715000D01*
X1445000Y4315000D02*
X1715000D01*
X1445000D02*
Y4465000D01*
X1715000Y4315000D02*
Y4465000D01*
X2172500Y3060000D02*
X2267500D01*
X2220000Y3012500D02*
Y3107500D01*
X2295000Y2925000D02*
Y3195000D01*
X2145000Y2925000D02*
Y3195000D01*
X2295000D01*
X2145000Y2925000D02*
X2295000D01*
X2205000Y3852500D02*
X2300000D01*
X2252500Y3805000D02*
Y3900000D01*
X2327500Y3717500D02*
Y3987500D01*
X2177500Y3717500D02*
Y3987500D01*
X2327500D01*
X2177500Y3717500D02*
X2327500D01*
X4878000Y4390000D02*
Y4710000D01*
X5422000Y4390000D02*
Y4710000D01*
X4878000Y4390000D02*
X5422000D01*
X4878000Y4710000D02*
X5422000D01*
X5100000Y4550000D02*
X5200000D01*
X5150000Y4500000D02*
Y4600000D01*
X4853000Y3565000D02*
Y3885000D01*
X5397000Y3565000D02*
Y3885000D01*
X4853000Y3565000D02*
X5397000D01*
X4853000Y3885000D02*
X5397000D01*
X5075000Y3725000D02*
X5175000D01*
X5125000Y3675000D02*
Y3775000D01*
X4853000Y2715000D02*
Y3035000D01*
X5397000Y2715000D02*
Y3035000D01*
X4853000Y2715000D02*
X5397000D01*
X4853000Y3035000D02*
X5397000D01*
X5075000Y2875000D02*
X5175000D01*
X5125000Y2825000D02*
Y2925000D01*
X5150000Y1975000D02*
Y2075000D01*
X5100000Y2025000D02*
X5200000D01*
X4878000Y2185000D02*
X5422000D01*
X4878000Y1865000D02*
X5422000D01*
Y2185000D01*
X4878000Y1865000D02*
Y2185000D01*
X5150000Y1175000D02*
Y1275000D01*
X5100000Y1225000D02*
X5200000D01*
X4878000Y1385000D02*
X5422000D01*
X4878000Y1065000D02*
X5422000D01*
Y1385000D01*
X4878000Y1065000D02*
Y1385000D01*
X3178000Y4365000D02*
Y4685000D01*
X3722000Y4365000D02*
Y4685000D01*
X3178000Y4365000D02*
X3722000D01*
X3178000Y4685000D02*
X3722000D01*
X3400000Y4525000D02*
X3500000D01*
X3450000Y4475000D02*
Y4575000D01*
X3176500Y3540000D02*
Y3860000D01*
X3720500Y3540000D02*
Y3860000D01*
X3176500Y3540000D02*
X3720500D01*
X3176500Y3860000D02*
X3720500D01*
X3398500Y3700000D02*
X3498500D01*
X3448500Y3650000D02*
Y3750000D01*
X3178000Y2690000D02*
Y3010000D01*
X3722000Y2690000D02*
Y3010000D01*
X3178000Y2690000D02*
X3722000D01*
X3178000Y3010000D02*
X3722000D01*
X3400000Y2850000D02*
X3500000D01*
X3450000Y2800000D02*
Y2900000D01*
X2753000Y1840000D02*
Y2160000D01*
X3297000Y1840000D02*
Y2160000D01*
X2753000Y1840000D02*
X3297000D01*
X2753000Y2160000D02*
X3297000D01*
X2975000Y2000000D02*
X3075000D01*
X3025000Y1950000D02*
Y2050000D01*
X2778000Y1015000D02*
Y1335000D01*
X3322000Y1015000D02*
Y1335000D01*
X2778000Y1015000D02*
X3322000D01*
X2778000Y1335000D02*
X3322000D01*
X3000000Y1175000D02*
X3100000D01*
X3050000Y1125000D02*
Y1225000D01*
X1478000Y4387500D02*
Y4707500D01*
X2022000Y4387500D02*
Y4707500D01*
X1478000Y4387500D02*
X2022000D01*
X1478000Y4707500D02*
X2022000D01*
X1700000Y4547500D02*
X1800000D01*
X1750000Y4497500D02*
Y4597500D01*
X1490500Y3565000D02*
Y3885000D01*
X2034500Y3565000D02*
Y3885000D01*
X1490500Y3565000D02*
X2034500D01*
X1490500Y3885000D02*
X2034500D01*
X1712500Y3725000D02*
X1812500D01*
X1762500Y3675000D02*
Y3775000D01*
X1750000Y2810000D02*
Y2910000D01*
X1700000Y2860000D02*
X1800000D01*
X1478000Y3020000D02*
X2022000D01*
X1478000Y2700000D02*
X2022000D01*
Y3020000D01*
X1478000Y2700000D02*
Y3020000D01*
X1400000Y1975000D02*
Y2075000D01*
X1350000Y2025000D02*
X1450000D01*
X1128000Y2185000D02*
X1672000D01*
X1128000Y1865000D02*
X1672000D01*
Y2185000D01*
X1128000Y1865000D02*
Y2185000D01*
X1400000Y1100000D02*
Y1200000D01*
X1350000Y1150000D02*
X1450000D01*
X1128000Y1310000D02*
X1672000D01*
X1128000Y990000D02*
X1672000D01*
Y1310000D01*
X1128000Y990000D02*
Y1310000D01*
X-2000000Y860000D02*
Y1700000D01*
X-390000Y860000D02*
Y1700000D01*
X-2000000Y860000D02*
X-390000D01*
X-2000000Y1700000D02*
X-390000D01*
X6287500Y4585000D02*
Y4665000D01*
X6137500Y4585000D02*
Y4665000D01*
X6287500D01*
X6137500Y4585000D02*
X6287500D01*
X6182500Y4625000D02*
X6242500D01*
X6212500Y4595000D02*
Y4655000D01*
X6250000Y3760000D02*
Y3840000D01*
X6100000Y3760000D02*
Y3840000D01*
X6250000D01*
X6100000Y3760000D02*
X6250000D01*
X6145000Y3800000D02*
X6205000D01*
X6175000Y3770000D02*
Y3830000D01*
X6100000Y2085000D02*
Y2165000D01*
X6250000Y2085000D02*
Y2165000D01*
X6100000Y2085000D02*
X6250000D01*
X6100000Y2165000D02*
X6250000D01*
X6145000Y2125000D02*
X6205000D01*
X6175000Y2095000D02*
Y2155000D01*
X6225000Y1260000D02*
Y1340000D01*
X6075000Y1260000D02*
Y1340000D01*
X6225000D01*
X6075000Y1260000D02*
X6225000D01*
X6120000Y1300000D02*
X6180000D01*
X6150000Y1270000D02*
Y1330000D01*
X4440000Y4630000D02*
Y4690000D01*
X4410000Y4660000D02*
X4470000D01*
X4365000Y4620000D02*
X4515000D01*
X4365000Y4700000D02*
X4515000D01*
X4365000Y4620000D02*
Y4700000D01*
X4515000Y4620000D02*
Y4700000D01*
X4537500Y3760000D02*
Y3840000D01*
X4387500Y3760000D02*
Y3840000D01*
X4537500D01*
X4387500Y3760000D02*
X4537500D01*
X4432500Y3800000D02*
X4492500D01*
X4462500Y3770000D02*
Y3830000D01*
X4562500Y2910000D02*
Y2990000D01*
X4412500Y2910000D02*
Y2990000D01*
X4562500D01*
X4412500Y2910000D02*
X4562500D01*
X4457500Y2950000D02*
X4517500D01*
X4487500Y2920000D02*
Y2980000D01*
X4162500Y2060000D02*
Y2140000D01*
X4012500Y2060000D02*
Y2140000D01*
X4162500D01*
X4012500Y2060000D02*
X4162500D01*
X4057500Y2100000D02*
X4117500D01*
X4087500Y2070000D02*
Y2130000D01*
X4275000Y1260000D02*
Y1340000D01*
X4125000Y1260000D02*
Y1340000D01*
X4275000D01*
X4125000Y1260000D02*
X4275000D01*
X4170000Y1300000D02*
X4230000D01*
X4200000Y1270000D02*
Y1330000D01*
X2837500Y4585000D02*
Y4665000D01*
X2687500Y4585000D02*
Y4665000D01*
X2837500D01*
X2687500Y4585000D02*
X2837500D01*
X2732500Y4625000D02*
X2792500D01*
X2762500Y4595000D02*
Y4655000D01*
X2762500Y3760000D02*
Y3840000D01*
X2612500Y3760000D02*
Y3840000D01*
X2762500D01*
X2612500Y3760000D02*
X2762500D01*
X2657500Y3800000D02*
X2717500D01*
X2687500Y3770000D02*
Y3830000D01*
X2785000Y2910000D02*
Y2990000D01*
X2635000Y2910000D02*
Y2990000D01*
X2785000D01*
X2635000Y2910000D02*
X2785000D01*
X2680000Y2950000D02*
X2740000D01*
X2710000Y2920000D02*
Y2980000D01*
X2362500Y2070000D02*
Y2150000D01*
X2212500Y2070000D02*
Y2150000D01*
X2362500D01*
X2212500Y2070000D02*
X2362500D01*
X2257500Y2110000D02*
X2317500D01*
X2287500Y2080000D02*
Y2140000D01*
X2350000Y1210000D02*
Y1290000D01*
X2200000Y1210000D02*
Y1290000D01*
X2350000D01*
X2200000Y1210000D02*
X2350000D01*
X2245000Y1250000D02*
X2305000D01*
X2275000Y1220000D02*
Y1280000D01*
X3080000Y3917500D02*
Y4842500D01*
X3820000Y3917500D02*
Y4842500D01*
X3080000D02*
X3820000D01*
X3080000Y3917500D02*
X3820000D01*
X3400000Y4380000D02*
X3500000D01*
X3450000Y4330000D02*
Y4430000D01*
X4710000Y3947500D02*
Y4872500D01*
X5450000Y3947500D02*
Y4872500D01*
X4710000D02*
X5450000D01*
X4710000Y3947500D02*
X5450000D01*
X5030000Y4410000D02*
X5130000D01*
X5080000Y4360000D02*
Y4460000D01*
X3530000Y2880000D02*
Y2980000D01*
X3480000Y2930000D02*
X3580000D01*
X3160000Y2467500D02*
X3900000D01*
X3160000Y3392500D02*
X3900000D01*
Y2467500D02*
Y3392500D01*
X3160000Y2467500D02*
Y3392500D01*
%TF.MD5,813c8d399f3368028a25215b4bffc613*%
M02*
