%TF.GenerationSoftware,Altium Limited,Altium Designer,26.6.0 (10)*%
G04 Layer_Color=8388736*
G04 Board_Origin=29350000|14702756*
%FSLAX45Y45*%
%MOMM*%
%TF.SameCoordinates,FF19D583-8477-4E59-B826-EB9FC0F50DB0*%
%TF.FilePolarity,Positive*%
%TF.FileFunction,Other,Top_3D_Body*%
%TF.Part,Single*%
G01*
G75*
%TA.AperFunction,NonConductor*%
%ADD56C,0.20000*%
D56*
X7767436Y4337152D02*
X8447436D01*
Y1327152D02*
Y4337152D01*
X7767436Y1327152D02*
X8447436D01*
X7767436D02*
Y4337152D01*
X3420000Y505000D02*
Y795000D01*
Y505000D02*
X3580000D01*
Y795000D01*
X3420000D02*
X3580000D01*
X3320000Y1850000D02*
X3480000D01*
Y1550000D02*
Y1850000D01*
X3320000Y1550000D02*
X3480000D01*
X3320000D02*
Y1850000D01*
X1560000Y1650000D02*
Y1790000D01*
X1260000Y1650000D02*
X1560000D01*
X1260000D02*
Y1790000D01*
X1560000D01*
X2722500Y890000D02*
Y1100000D01*
X2857500D01*
Y890000D02*
Y1100000D01*
X2722500Y890000D02*
X2857500D01*
X2330000Y3267578D02*
Y3587578D01*
X2170000Y3267578D02*
X2330000D01*
X2170000D02*
Y3587578D01*
X2330000D01*
X3000000Y1340000D02*
Y1500000D01*
X3080000D01*
Y1340000D02*
Y1500000D01*
X3000000Y1340000D02*
X3080000D01*
X2727500Y1370000D02*
Y1570000D01*
X2852500D01*
Y1370000D02*
Y1570000D01*
X2727500Y1370000D02*
X2852500D01*
X765000Y4227500D02*
Y4372500D01*
Y4227500D02*
X985000D01*
Y4372500D01*
X765000D02*
X985000D01*
X3500000Y1050000D02*
X3660000D01*
Y970000D02*
Y1050000D01*
X3500000Y970000D02*
X3660000D01*
X3500000D02*
Y1050000D01*
X3010000Y1060000D02*
Y1220000D01*
X3090000D01*
Y1060000D02*
Y1220000D01*
X3010000Y1060000D02*
X3090000D01*
X3730000Y1630000D02*
X3810000D01*
Y1790000D01*
X3730000D02*
X3810000D01*
X3730000Y1630000D02*
Y1790000D01*
X3840000Y3570000D02*
Y3730000D01*
Y3570000D02*
X4160000D01*
Y3730000D01*
X3840000D02*
X4160000D01*
X2255000Y1702500D02*
Y1837500D01*
X2045000D02*
X2255000D01*
X2045000Y1702500D02*
Y1837500D01*
Y1702500D02*
X2255000D01*
X1980000Y187500D02*
X2180000D01*
X1980000D02*
Y312500D01*
X2180000D01*
Y187500D02*
Y312500D01*
%TF.MD5,5096a3b3c99df889641d4b6a61135423*%
M02*
