%TF.GenerationSoftware,Altium Limited,Altium Designer,26.6.0 (10)*%
G04 Layer_Color=16711935*
G04 Board_Origin=29350000|14702756*
%FSLAX45Y45*%
%MOMM*%
%TF.SameCoordinates,FF19D583-8477-4E59-B826-EB9FC0F50DB0*%
%TF.FilePolarity,Positive*%
%TF.FileFunction,Other,Top_Assembly*%
%TF.Part,Single*%
G01*
G75*
%TA.AperFunction,NonConductor*%
%ADD56C,0.20000*%
G36*
X8056370Y2832191D02*
X8057585Y2832044D01*
X8058690Y2831823D01*
X8059721Y2831565D01*
X8060679Y2831307D01*
X8061526Y2830976D01*
X8062300Y2830644D01*
X8062963Y2830350D01*
X8063552Y2830018D01*
X8064031Y2829724D01*
X8064436Y2829466D01*
X8064767Y2829245D01*
X8064988Y2829061D01*
X8065136Y2828950D01*
X8065172Y2828913D01*
X8065835Y2828214D01*
X8066425Y2827440D01*
X8066940Y2826630D01*
X8067382Y2825783D01*
X8067750Y2824936D01*
X8068082Y2824089D01*
X8068303Y2823241D01*
X8068524Y2822431D01*
X8068671Y2821658D01*
X8068782Y2820921D01*
X8068892Y2820258D01*
X8068929Y2819706D01*
X8068966Y2819227D01*
X8069003Y2818896D01*
Y2818601D01*
X8068966Y2817754D01*
X8068929Y2816980D01*
X8068819Y2816207D01*
X8068708Y2815470D01*
X8068561Y2814807D01*
X8068413Y2814144D01*
X8068266Y2813555D01*
X8068082Y2813003D01*
X8067898Y2812487D01*
X8067750Y2812045D01*
X8067603Y2811677D01*
X8067456Y2811345D01*
X8067345Y2811088D01*
X8067235Y2810903D01*
X8067198Y2810793D01*
X8067161Y2810756D01*
X8066793Y2810130D01*
X8066388Y2809578D01*
X8065983Y2809062D01*
X8065541Y2808583D01*
X8065099Y2808141D01*
X8064657Y2807736D01*
X8064215Y2807368D01*
X8063810Y2807036D01*
X8063404Y2806778D01*
X8063036Y2806521D01*
X8062705Y2806300D01*
X8062410Y2806152D01*
X8062152Y2806005D01*
X8061968Y2805931D01*
X8061858Y2805858D01*
X8061821D01*
X8061121Y2805563D01*
X8060384Y2805342D01*
X8059611Y2805121D01*
X8058801Y2804937D01*
X8057143Y2804642D01*
X8056333Y2804569D01*
X8055560Y2804458D01*
X8054823Y2804421D01*
X8054123Y2804348D01*
X8053497Y2804311D01*
X8052982D01*
X8052540Y2804274D01*
X8052208D01*
X8051987D01*
X8051914D01*
X8017183D01*
Y2811014D01*
X8052319D01*
X8053129D01*
X8053866Y2811051D01*
X8054528Y2811088D01*
X8055155Y2811124D01*
X8055744Y2811161D01*
X8056259Y2811235D01*
X8056738Y2811309D01*
X8057143Y2811345D01*
X8057512Y2811419D01*
X8057843Y2811493D01*
X8058101Y2811566D01*
X8058322Y2811603D01*
X8058469Y2811640D01*
X8058580Y2811677D01*
X8058653Y2811714D01*
X8058690D01*
X8059390Y2812008D01*
X8060016Y2812413D01*
X8060569Y2812819D01*
X8061011Y2813261D01*
X8061379Y2813629D01*
X8061637Y2813960D01*
X8061784Y2814181D01*
X8061858Y2814218D01*
Y2814255D01*
X8062226Y2814955D01*
X8062521Y2815728D01*
X8062705Y2816465D01*
X8062852Y2817128D01*
X8062926Y2817717D01*
X8062963Y2817975D01*
Y2818196D01*
X8062999Y2818380D01*
Y2818638D01*
X8062963Y2819264D01*
X8062889Y2819853D01*
X8062815Y2820406D01*
X8062668Y2820958D01*
X8062521Y2821437D01*
X8062336Y2821879D01*
X8062115Y2822284D01*
X8061931Y2822652D01*
X8061747Y2822984D01*
X8061526Y2823241D01*
X8061342Y2823499D01*
X8061195Y2823683D01*
X8061047Y2823831D01*
X8060937Y2823978D01*
X8060900Y2824015D01*
X8060863Y2824052D01*
X8060421Y2824383D01*
X8059906Y2824715D01*
X8059316Y2824973D01*
X8058727Y2825230D01*
X8057401Y2825599D01*
X8056075Y2825856D01*
X8055412Y2825967D01*
X8054823Y2826041D01*
X8054307Y2826114D01*
X8053829Y2826151D01*
X8053424Y2826188D01*
X8053129Y2826225D01*
X8052945D01*
X8052871D01*
X8053718Y2832302D01*
X8055081D01*
X8056370Y2832191D01*
D02*
G37*
G36*
X8035414Y2789910D02*
X8034898Y2788769D01*
X8034382Y2787664D01*
X8033867Y2786632D01*
X8033609Y2786191D01*
X8033388Y2785749D01*
X8033167Y2785380D01*
X8032983Y2785086D01*
X8032872Y2784828D01*
X8032762Y2784607D01*
X8032688Y2784496D01*
X8032651Y2784460D01*
X8031841Y2783134D01*
X8031436Y2782544D01*
X8031068Y2781955D01*
X8030663Y2781439D01*
X8030331Y2780961D01*
X8029963Y2780519D01*
X8029668Y2780077D01*
X8029374Y2779745D01*
X8029116Y2779414D01*
X8028858Y2779119D01*
X8028674Y2778898D01*
X8028526Y2778714D01*
X8028416Y2778604D01*
X8028342Y2778530D01*
X8028306Y2778493D01*
X8068156D01*
Y2772232D01*
X8016999D01*
Y2776283D01*
X8017625Y2776615D01*
X8018251Y2776983D01*
X8019466Y2777830D01*
X8020608Y2778751D01*
X8021160Y2779230D01*
X8021676Y2779672D01*
X8022118Y2780114D01*
X8022560Y2780519D01*
X8022928Y2780887D01*
X8023260Y2781218D01*
X8023518Y2781476D01*
X8023702Y2781660D01*
X8023812Y2781808D01*
X8023849Y2781845D01*
X8025101Y2783355D01*
X8026243Y2784938D01*
X8027274Y2786485D01*
X8027716Y2787222D01*
X8028158Y2787922D01*
X8028526Y2788548D01*
X8028858Y2789137D01*
X8029153Y2789689D01*
X8029374Y2790131D01*
X8029558Y2790500D01*
X8029705Y2790794D01*
X8029779Y2790942D01*
X8029816Y2791015D01*
X8035856D01*
X8035414Y2789910D01*
D02*
G37*
G36*
X3540208Y672469D02*
Y672395D01*
Y672099D01*
Y671729D01*
Y671212D01*
X3540134Y670547D01*
Y669808D01*
X3540060Y668921D01*
X3539986Y668034D01*
X3539765Y666038D01*
X3539469Y663968D01*
X3539025Y661973D01*
X3538730Y661012D01*
X3538434Y660125D01*
Y660051D01*
X3538360Y659903D01*
X3538212Y659681D01*
X3538065Y659386D01*
X3537621Y658573D01*
X3536956Y657538D01*
X3536069Y656355D01*
X3535034Y655173D01*
X3533704Y653916D01*
X3532078Y652807D01*
X3532004D01*
X3531856Y652660D01*
X3531634Y652586D01*
X3531264Y652364D01*
X3530821Y652142D01*
X3530230Y651920D01*
X3529638Y651699D01*
X3528899Y651403D01*
X3528086Y651107D01*
X3527199Y650886D01*
X3526238Y650664D01*
X3525130Y650442D01*
X3524021Y650294D01*
X3522838Y650147D01*
X3520177Y649999D01*
X3519512D01*
X3518995Y650073D01*
X3518403D01*
X3517664Y650147D01*
X3516851Y650220D01*
X3516038Y650294D01*
X3514190Y650590D01*
X3512195Y651033D01*
X3510273Y651625D01*
X3508425Y652438D01*
X3508351D01*
X3508203Y652586D01*
X3507982Y652734D01*
X3507686Y652881D01*
X3506873Y653473D01*
X3505912Y654286D01*
X3504803Y655321D01*
X3503768Y656503D01*
X3502734Y657981D01*
X3501921Y659608D01*
Y659681D01*
X3501847Y659829D01*
X3501773Y660125D01*
X3501625Y660494D01*
X3501477Y660938D01*
X3501329Y661529D01*
X3501108Y662195D01*
X3500960Y663008D01*
X3500812Y663895D01*
X3500590Y664855D01*
X3500442Y665890D01*
X3500294Y666999D01*
X3500147Y668255D01*
X3500073Y669586D01*
X3499999Y670990D01*
Y672469D01*
Y702034D01*
X3506799D01*
Y672469D01*
Y672395D01*
Y672173D01*
Y671803D01*
Y671360D01*
X3506873Y670842D01*
Y670177D01*
X3506947Y668773D01*
X3507095Y667147D01*
X3507316Y665521D01*
X3507612Y663968D01*
X3507760Y663303D01*
X3507982Y662638D01*
X3508055Y662490D01*
X3508203Y662121D01*
X3508573Y661603D01*
X3509016Y660864D01*
X3509534Y660125D01*
X3510273Y659312D01*
X3511160Y658499D01*
X3512195Y657834D01*
X3512342Y657760D01*
X3512712Y657538D01*
X3513377Y657316D01*
X3514264Y657021D01*
X3515299Y656651D01*
X3516629Y656429D01*
X3518034Y656207D01*
X3519586Y656134D01*
X3520325D01*
X3520769Y656207D01*
X3521434D01*
X3522099Y656281D01*
X3523725Y656577D01*
X3525499Y656947D01*
X3527199Y657538D01*
X3528825Y658351D01*
X3529564Y658868D01*
X3530230Y659460D01*
X3530304Y659534D01*
X3530377Y659608D01*
X3530525Y659829D01*
X3530747Y660125D01*
X3530969Y660568D01*
X3531264Y661012D01*
X3531560Y661677D01*
X3531856Y662342D01*
X3532151Y663155D01*
X3532373Y664116D01*
X3532669Y665225D01*
X3532891Y666408D01*
X3533112Y667738D01*
X3533260Y669142D01*
X3533408Y670769D01*
Y672469D01*
Y702034D01*
X3540208D01*
Y672469D01*
D02*
G37*
G36*
X3582487Y696417D02*
X3582413Y696343D01*
X3582265Y696195D01*
X3581969Y695899D01*
X3581674Y695456D01*
X3581230Y694938D01*
X3580639Y694347D01*
X3580048Y693608D01*
X3579382Y692721D01*
X3578717Y691834D01*
X3577904Y690799D01*
X3577091Y689617D01*
X3576278Y688434D01*
X3575391Y687104D01*
X3574504Y685699D01*
X3573617Y684147D01*
X3572730Y682595D01*
X3572656Y682521D01*
X3572508Y682225D01*
X3572287Y681782D01*
X3571917Y681116D01*
X3571548Y680303D01*
X3571104Y679416D01*
X3570587Y678382D01*
X3570069Y677199D01*
X3569478Y675869D01*
X3568813Y674538D01*
X3568221Y673060D01*
X3567630Y671508D01*
X3566448Y668329D01*
X3565339Y664929D01*
Y664855D01*
X3565265Y664634D01*
X3565191Y664264D01*
X3565043Y663821D01*
X3564895Y663229D01*
X3564748Y662490D01*
X3564526Y661677D01*
X3564378Y660790D01*
X3564156Y659755D01*
X3563934Y658647D01*
X3563565Y656281D01*
X3563195Y653694D01*
X3562974Y650886D01*
X3556543D01*
Y650960D01*
Y651181D01*
Y651477D01*
X3556617Y651920D01*
Y652512D01*
X3556691Y653251D01*
X3556765Y654064D01*
X3556839Y654951D01*
X3556987Y655986D01*
X3557134Y657021D01*
X3557356Y658277D01*
X3557578Y659534D01*
X3557800Y660864D01*
X3558095Y662342D01*
X3558834Y665373D01*
Y665447D01*
X3558908Y665742D01*
X3559056Y666186D01*
X3559278Y666851D01*
X3559500Y667590D01*
X3559795Y668477D01*
X3560091Y669512D01*
X3560534Y670621D01*
X3560978Y671877D01*
X3561421Y673134D01*
X3562530Y675943D01*
X3563861Y678899D01*
X3565339Y681856D01*
X3565413Y681930D01*
X3565561Y682225D01*
X3565782Y682595D01*
X3566078Y683186D01*
X3566448Y683851D01*
X3566965Y684664D01*
X3567482Y685551D01*
X3568074Y686512D01*
X3569478Y688656D01*
X3570956Y690873D01*
X3572656Y693164D01*
X3574430Y695308D01*
X3549373D01*
Y701369D01*
X3582487D01*
Y696417D01*
D02*
G37*
G36*
X3468075Y1733359D02*
X3468592D01*
X3469184Y1733285D01*
X3470588Y1732989D01*
X3472140Y1732620D01*
X3473766Y1732028D01*
X3475392Y1731141D01*
X3476205Y1730624D01*
X3476945Y1730033D01*
X3477018Y1729959D01*
X3477092Y1729885D01*
X3477314Y1729663D01*
X3477536Y1729441D01*
X3477905Y1729072D01*
X3478201Y1728628D01*
X3479014Y1727593D01*
X3479827Y1726263D01*
X3480566Y1724637D01*
X3481232Y1722789D01*
X3481675Y1720719D01*
X3475392Y1720202D01*
Y1720276D01*
X3475318Y1720350D01*
X3475245Y1720793D01*
X3475023Y1721459D01*
X3474727Y1722272D01*
X3474431Y1723159D01*
X3473988Y1724046D01*
X3473471Y1724859D01*
X3472953Y1725524D01*
X3472805Y1725672D01*
X3472510Y1725967D01*
X3471992Y1726411D01*
X3471253Y1726928D01*
X3470292Y1727372D01*
X3469257Y1727815D01*
X3468001Y1728111D01*
X3466670Y1728259D01*
X3466153D01*
X3465562Y1728185D01*
X3464897Y1728037D01*
X3464010Y1727815D01*
X3463123Y1727520D01*
X3462236Y1727150D01*
X3461349Y1726559D01*
X3461201Y1726485D01*
X3460831Y1726189D01*
X3460314Y1725672D01*
X3459649Y1724933D01*
X3458910Y1724046D01*
X3458096Y1723011D01*
X3457357Y1721680D01*
X3456618Y1720202D01*
Y1720128D01*
X3456544Y1719980D01*
X3456470Y1719759D01*
X3456323Y1719463D01*
X3456249Y1719019D01*
X3456101Y1718502D01*
X3455953Y1717911D01*
X3455805Y1717172D01*
X3455583Y1716359D01*
X3455436Y1715472D01*
X3455288Y1714511D01*
X3455214Y1713476D01*
X3455066Y1712293D01*
X3454992Y1711111D01*
X3454918Y1709780D01*
Y1708450D01*
X3454992Y1708524D01*
X3455288Y1708967D01*
X3455805Y1709558D01*
X3456470Y1710298D01*
X3457209Y1711185D01*
X3458170Y1711998D01*
X3459205Y1712811D01*
X3460388Y1713550D01*
X3460462D01*
X3460536Y1713624D01*
X3460979Y1713845D01*
X3461644Y1714067D01*
X3462531Y1714437D01*
X3463566Y1714732D01*
X3464749Y1714954D01*
X3466005Y1715176D01*
X3467336Y1715250D01*
X3467927D01*
X3468371Y1715176D01*
X3468962Y1715102D01*
X3469553Y1715028D01*
X3470292Y1714880D01*
X3471031Y1714658D01*
X3472731Y1714141D01*
X3473618Y1713772D01*
X3474505Y1713254D01*
X3475392Y1712737D01*
X3476353Y1712145D01*
X3477240Y1711406D01*
X3478053Y1710593D01*
X3478127Y1710519D01*
X3478275Y1710371D01*
X3478497Y1710150D01*
X3478718Y1709780D01*
X3479088Y1709263D01*
X3479458Y1708745D01*
X3479827Y1708080D01*
X3480271Y1707341D01*
X3480714Y1706528D01*
X3481084Y1705641D01*
X3481453Y1704606D01*
X3481823Y1703571D01*
X3482045Y1702463D01*
X3482266Y1701206D01*
X3482414Y1699950D01*
X3482488Y1698619D01*
Y1698545D01*
Y1698397D01*
Y1698176D01*
Y1697806D01*
X3482414Y1697363D01*
Y1696919D01*
X3482192Y1695737D01*
X3481971Y1694332D01*
X3481601Y1692854D01*
X3481084Y1691228D01*
X3480345Y1689676D01*
Y1689602D01*
X3480271Y1689528D01*
X3480123Y1689306D01*
X3479975Y1689010D01*
X3479532Y1688271D01*
X3478866Y1687310D01*
X3478053Y1686276D01*
X3477092Y1685241D01*
X3475910Y1684206D01*
X3474653Y1683319D01*
X3474579D01*
X3474505Y1683245D01*
X3474284Y1683097D01*
X3473988Y1683023D01*
X3473249Y1682654D01*
X3472288Y1682284D01*
X3471031Y1681841D01*
X3469627Y1681545D01*
X3468075Y1681249D01*
X3466375Y1681175D01*
X3466005D01*
X3465636Y1681249D01*
X3465044D01*
X3464379Y1681323D01*
X3463640Y1681471D01*
X3462753Y1681693D01*
X3461866Y1681915D01*
X3460831Y1682210D01*
X3459796Y1682580D01*
X3458762Y1683023D01*
X3457653Y1683615D01*
X3456618Y1684280D01*
X3455583Y1685019D01*
X3454549Y1685906D01*
X3453588Y1686941D01*
X3453514Y1687015D01*
X3453366Y1687236D01*
X3453144Y1687532D01*
X3452849Y1688049D01*
X3452405Y1688715D01*
X3452036Y1689454D01*
X3451592Y1690415D01*
X3451149Y1691449D01*
X3450631Y1692706D01*
X3450188Y1694110D01*
X3449818Y1695663D01*
X3449449Y1697363D01*
X3449079Y1699284D01*
X3448857Y1701354D01*
X3448709Y1703571D01*
X3448635Y1705937D01*
Y1706011D01*
Y1706084D01*
Y1706306D01*
Y1706602D01*
X3448709Y1707341D01*
Y1708376D01*
X3448783Y1709558D01*
X3448931Y1710963D01*
X3449079Y1712515D01*
X3449301Y1714215D01*
X3449596Y1715915D01*
X3449966Y1717763D01*
X3450409Y1719537D01*
X3450927Y1721311D01*
X3451592Y1723011D01*
X3452331Y1724637D01*
X3453144Y1726189D01*
X3454105Y1727520D01*
X3454179Y1727593D01*
X3454327Y1727741D01*
X3454623Y1728037D01*
X3454992Y1728480D01*
X3455436Y1728924D01*
X3456027Y1729367D01*
X3456766Y1729959D01*
X3457505Y1730476D01*
X3458392Y1730993D01*
X3459353Y1731585D01*
X3460462Y1732028D01*
X3461570Y1732546D01*
X3462827Y1732915D01*
X3464157Y1733211D01*
X3465562Y1733359D01*
X3467040Y1733433D01*
X3467631D01*
X3468075Y1733359D01*
D02*
G37*
G36*
X3440209Y1703645D02*
Y1703571D01*
Y1703276D01*
Y1702906D01*
Y1702389D01*
X3440135Y1701724D01*
Y1700984D01*
X3440061Y1700097D01*
X3439988Y1699210D01*
X3439766Y1697215D01*
X3439470Y1695145D01*
X3439027Y1693150D01*
X3438731Y1692189D01*
X3438435Y1691302D01*
Y1691228D01*
X3438361Y1691080D01*
X3438214Y1690858D01*
X3438066Y1690563D01*
X3437622Y1689749D01*
X3436957Y1688715D01*
X3436070Y1687532D01*
X3435035Y1686349D01*
X3433705Y1685093D01*
X3432079Y1683984D01*
X3432005D01*
X3431857Y1683836D01*
X3431635Y1683762D01*
X3431266Y1683541D01*
X3430822Y1683319D01*
X3430231Y1683097D01*
X3429640Y1682875D01*
X3428900Y1682580D01*
X3428087Y1682284D01*
X3427200Y1682062D01*
X3426240Y1681841D01*
X3425131Y1681619D01*
X3424022Y1681471D01*
X3422839Y1681323D01*
X3420179Y1681175D01*
X3419513D01*
X3418996Y1681249D01*
X3418405D01*
X3417666Y1681323D01*
X3416852Y1681397D01*
X3416039Y1681471D01*
X3414192Y1681767D01*
X3412196Y1682210D01*
X3410274Y1682802D01*
X3408426Y1683615D01*
X3408352D01*
X3408205Y1683762D01*
X3407983Y1683910D01*
X3407687Y1684058D01*
X3406874Y1684649D01*
X3405913Y1685462D01*
X3404804Y1686497D01*
X3403770Y1687680D01*
X3402735Y1689158D01*
X3401922Y1690784D01*
Y1690858D01*
X3401848Y1691006D01*
X3401774Y1691302D01*
X3401626Y1691671D01*
X3401478Y1692115D01*
X3401331Y1692706D01*
X3401109Y1693371D01*
X3400961Y1694184D01*
X3400813Y1695071D01*
X3400591Y1696032D01*
X3400444Y1697067D01*
X3400296Y1698176D01*
X3400148Y1699432D01*
X3400074Y1700763D01*
X3400000Y1702167D01*
Y1703645D01*
Y1733211D01*
X3406800D01*
Y1703645D01*
Y1703571D01*
Y1703350D01*
Y1702980D01*
Y1702537D01*
X3406874Y1702019D01*
Y1701354D01*
X3406948Y1699950D01*
X3407096Y1698324D01*
X3407318Y1696697D01*
X3407613Y1695145D01*
X3407761Y1694480D01*
X3407983Y1693815D01*
X3408057Y1693667D01*
X3408205Y1693297D01*
X3408574Y1692780D01*
X3409018Y1692041D01*
X3409535Y1691302D01*
X3410274Y1690489D01*
X3411161Y1689676D01*
X3412196Y1689010D01*
X3412344Y1688936D01*
X3412713Y1688715D01*
X3413378Y1688493D01*
X3414265Y1688197D01*
X3415300Y1687828D01*
X3416631Y1687606D01*
X3418035Y1687384D01*
X3419587Y1687310D01*
X3420326D01*
X3420770Y1687384D01*
X3421435D01*
X3422100Y1687458D01*
X3423726Y1687754D01*
X3425500Y1688123D01*
X3427200Y1688715D01*
X3428827Y1689528D01*
X3429566Y1690045D01*
X3430231Y1690636D01*
X3430305Y1690710D01*
X3430379Y1690784D01*
X3430527Y1691006D01*
X3430748Y1691302D01*
X3430970Y1691745D01*
X3431266Y1692189D01*
X3431561Y1692854D01*
X3431857Y1693519D01*
X3432153Y1694332D01*
X3432374Y1695293D01*
X3432670Y1696402D01*
X3432892Y1697584D01*
X3433114Y1698915D01*
X3433261Y1700319D01*
X3433409Y1701945D01*
Y1703645D01*
Y1733211D01*
X3440209D01*
Y1703645D01*
D02*
G37*
G36*
X1442324Y1679495D02*
X1436263D01*
Y1696348D01*
X1391176D01*
Y1703148D01*
X1436263D01*
Y1720000D01*
X1442324D01*
Y1679495D01*
D02*
G37*
G36*
X1429685Y1670182D02*
X1429833Y1670034D01*
X1429906Y1669739D01*
X1430128Y1669369D01*
X1430350Y1668926D01*
X1430646Y1668408D01*
X1431385Y1667152D01*
X1432198Y1665673D01*
X1433233Y1664195D01*
X1434415Y1662643D01*
X1435672Y1661091D01*
X1435746Y1661017D01*
X1435820Y1660943D01*
X1436041Y1660721D01*
X1436263Y1660425D01*
X1437002Y1659760D01*
X1437889Y1658873D01*
X1438924Y1657986D01*
X1440107Y1657025D01*
X1441289Y1656212D01*
X1442546Y1655473D01*
Y1651408D01*
X1391176D01*
Y1657691D01*
X1431163D01*
X1431089Y1657765D01*
X1430793Y1658134D01*
X1430350Y1658578D01*
X1429833Y1659317D01*
X1429167Y1660130D01*
X1428428Y1661165D01*
X1427615Y1662347D01*
X1426802Y1663678D01*
Y1663752D01*
X1426728Y1663825D01*
X1426433Y1664269D01*
X1426063Y1665008D01*
X1425619Y1665895D01*
X1425102Y1666930D01*
X1424585Y1668039D01*
X1424067Y1669147D01*
X1423624Y1670256D01*
X1429685D01*
Y1670182D01*
D02*
G37*
G36*
X2785024Y1117106D02*
X2785911D01*
X2786872Y1117032D01*
X2787907Y1116958D01*
X2790272Y1116736D01*
X2792711Y1116367D01*
X2795076Y1115923D01*
X2796185Y1115628D01*
X2797294Y1115258D01*
X2797368D01*
X2797516Y1115184D01*
X2797811Y1115036D01*
X2798181Y1114889D01*
X2798698Y1114741D01*
X2799216Y1114445D01*
X2800472Y1113854D01*
X2801803Y1113115D01*
X2803281Y1112154D01*
X2804611Y1111045D01*
X2805868Y1109715D01*
Y1109641D01*
X2806016Y1109567D01*
X2806164Y1109345D01*
X2806311Y1109049D01*
X2806533Y1108680D01*
X2806829Y1108310D01*
X2807346Y1107201D01*
X2807864Y1105871D01*
X2808381Y1104319D01*
X2808677Y1102471D01*
X2808824Y1100475D01*
Y1099736D01*
X2808751Y1099219D01*
X2808677Y1098627D01*
X2808529Y1097888D01*
X2808381Y1097075D01*
X2808159Y1096188D01*
X2807864Y1095301D01*
X2807568Y1094340D01*
X2807124Y1093380D01*
X2806607Y1092419D01*
X2806016Y1091458D01*
X2805277Y1090497D01*
X2804464Y1089610D01*
X2803577Y1088797D01*
X2803503Y1088723D01*
X2803281Y1088575D01*
X2802911Y1088353D01*
X2802320Y1087984D01*
X2801655Y1087614D01*
X2800768Y1087245D01*
X2799733Y1086727D01*
X2798550Y1086284D01*
X2797220Y1085840D01*
X2795668Y1085397D01*
X2793968Y1084953D01*
X2792046Y1084584D01*
X2789976Y1084214D01*
X2787759Y1083992D01*
X2785320Y1083845D01*
X2782733Y1083771D01*
X2782659D01*
X2782363D01*
X2781846D01*
X2781255D01*
X2780441Y1083845D01*
X2779555D01*
X2778594Y1083919D01*
X2777485Y1083992D01*
X2775194Y1084214D01*
X2772754Y1084584D01*
X2770315Y1085027D01*
X2769207Y1085323D01*
X2768098Y1085619D01*
X2768024D01*
X2767876Y1085693D01*
X2767580Y1085840D01*
X2767211Y1085988D01*
X2766693Y1086136D01*
X2766176Y1086432D01*
X2764920Y1087023D01*
X2763589Y1087762D01*
X2762185Y1088723D01*
X2760780Y1089832D01*
X2759598Y1091162D01*
Y1091236D01*
X2759450Y1091310D01*
X2759302Y1091532D01*
X2759154Y1091827D01*
X2758859Y1092197D01*
X2758637Y1092640D01*
X2758046Y1093749D01*
X2757528Y1095080D01*
X2757011Y1096632D01*
X2756715Y1098480D01*
X2756567Y1100475D01*
Y1101141D01*
X2756641Y1101954D01*
X2756789Y1102914D01*
X2757011Y1104023D01*
X2757306Y1105206D01*
X2757676Y1106462D01*
X2758267Y1107645D01*
Y1107719D01*
X2758341Y1107793D01*
X2758563Y1108162D01*
X2758933Y1108754D01*
X2759450Y1109493D01*
X2760189Y1110306D01*
X2761002Y1111193D01*
X2761963Y1112006D01*
X2763072Y1112819D01*
X2763220Y1112893D01*
X2763589Y1113189D01*
X2764254Y1113484D01*
X2765215Y1114002D01*
X2766324Y1114445D01*
X2767580Y1115036D01*
X2769059Y1115554D01*
X2770685Y1115997D01*
X2770759D01*
X2770907Y1116071D01*
X2771128Y1116145D01*
X2771498Y1116219D01*
X2771941Y1116293D01*
X2772459Y1116367D01*
X2773124Y1116515D01*
X2773863Y1116589D01*
X2774676Y1116736D01*
X2775563Y1116810D01*
X2776598Y1116884D01*
X2777633Y1117032D01*
X2778815Y1117106D01*
X2779998D01*
X2781328Y1117180D01*
X2782733D01*
X2782807D01*
X2783102D01*
X2783620D01*
X2784211D01*
X2785024Y1117106D01*
D02*
G37*
G36*
X2807937Y1043118D02*
X2807864D01*
X2807568D01*
X2807124D01*
X2806533Y1043192D01*
X2805868Y1043266D01*
X2805129Y1043414D01*
X2804390Y1043562D01*
X2803577Y1043857D01*
X2803503D01*
X2803429Y1043931D01*
X2802985Y1044079D01*
X2802320Y1044375D01*
X2801433Y1044818D01*
X2800398Y1045409D01*
X2799216Y1046149D01*
X2798033Y1046962D01*
X2796776Y1047996D01*
X2796703D01*
X2796629Y1048144D01*
X2796185Y1048514D01*
X2795520Y1049179D01*
X2794559Y1050140D01*
X2793450Y1051249D01*
X2792120Y1052653D01*
X2790642Y1054353D01*
X2789089Y1056201D01*
X2789016Y1056275D01*
X2788794Y1056570D01*
X2788424Y1057014D01*
X2787981Y1057531D01*
X2787389Y1058197D01*
X2786724Y1059010D01*
X2785985Y1059823D01*
X2785172Y1060784D01*
X2783398Y1062631D01*
X2781624Y1064479D01*
X2780737Y1065366D01*
X2779850Y1066179D01*
X2779037Y1066918D01*
X2778224Y1067510D01*
X2778150D01*
X2778076Y1067658D01*
X2777854Y1067805D01*
X2777559Y1067953D01*
X2776746Y1068471D01*
X2775785Y1069062D01*
X2774602Y1069579D01*
X2773346Y1070097D01*
X2771941Y1070392D01*
X2770611Y1070540D01*
X2770537D01*
X2770463D01*
X2770020Y1070466D01*
X2769280Y1070392D01*
X2768467Y1070171D01*
X2767433Y1069875D01*
X2766398Y1069358D01*
X2765363Y1068692D01*
X2764328Y1067805D01*
X2764180Y1067658D01*
X2763885Y1067288D01*
X2763515Y1066771D01*
X2762998Y1065957D01*
X2762554Y1064923D01*
X2762111Y1063740D01*
X2761815Y1062336D01*
X2761741Y1060784D01*
Y1060340D01*
X2761815Y1060044D01*
X2761889Y1059157D01*
X2762111Y1058123D01*
X2762406Y1057014D01*
X2762924Y1055757D01*
X2763589Y1054575D01*
X2764476Y1053466D01*
X2764624Y1053318D01*
X2764993Y1053023D01*
X2765585Y1052579D01*
X2766472Y1052136D01*
X2767507Y1051618D01*
X2768837Y1051175D01*
X2770315Y1050879D01*
X2772015Y1050731D01*
X2771350Y1044301D01*
X2771276D01*
X2771054Y1044375D01*
X2770685D01*
X2770167Y1044449D01*
X2769576Y1044596D01*
X2768911Y1044744D01*
X2768098Y1044966D01*
X2767285Y1045188D01*
X2765511Y1045779D01*
X2763737Y1046666D01*
X2762850Y1047183D01*
X2761963Y1047849D01*
X2761150Y1048514D01*
X2760411Y1049253D01*
X2760337Y1049327D01*
X2760263Y1049475D01*
X2760041Y1049696D01*
X2759819Y1050066D01*
X2759524Y1050509D01*
X2759228Y1051027D01*
X2758859Y1051618D01*
X2758489Y1052357D01*
X2758119Y1053170D01*
X2757750Y1054057D01*
X2757454Y1055018D01*
X2757159Y1056053D01*
X2756937Y1057162D01*
X2756715Y1058344D01*
X2756641Y1059601D01*
X2756567Y1060931D01*
Y1061670D01*
X2756641Y1062188D01*
X2756715Y1062779D01*
X2756789Y1063518D01*
X2756937Y1064331D01*
X2757085Y1065144D01*
X2757602Y1067066D01*
X2758341Y1068988D01*
X2758785Y1069949D01*
X2759302Y1070910D01*
X2759967Y1071797D01*
X2760706Y1072610D01*
X2760780Y1072684D01*
X2760854Y1072831D01*
X2761150Y1072979D01*
X2761446Y1073275D01*
X2761815Y1073645D01*
X2762333Y1074014D01*
X2762850Y1074384D01*
X2763515Y1074827D01*
X2764920Y1075566D01*
X2766693Y1076305D01*
X2767580Y1076601D01*
X2768615Y1076749D01*
X2769650Y1076897D01*
X2770759Y1076971D01*
X2770907D01*
X2771276D01*
X2771867Y1076897D01*
X2772681Y1076823D01*
X2773567Y1076675D01*
X2774602Y1076379D01*
X2775711Y1076084D01*
X2776820Y1075640D01*
X2776968Y1075566D01*
X2777337Y1075418D01*
X2777928Y1075123D01*
X2778741Y1074679D01*
X2779628Y1074088D01*
X2780737Y1073349D01*
X2781846Y1072462D01*
X2783102Y1071427D01*
X2783250Y1071279D01*
X2783694Y1070910D01*
X2784063Y1070540D01*
X2784433Y1070171D01*
X2784876Y1069727D01*
X2785468Y1069136D01*
X2786059Y1068544D01*
X2786724Y1067805D01*
X2787463Y1067066D01*
X2788276Y1066179D01*
X2789089Y1065218D01*
X2790050Y1064184D01*
X2791011Y1063001D01*
X2792046Y1061818D01*
X2792120Y1061744D01*
X2792268Y1061597D01*
X2792489Y1061301D01*
X2792785Y1060931D01*
X2793229Y1060488D01*
X2793672Y1059970D01*
X2794633Y1058788D01*
X2795742Y1057531D01*
X2796850Y1056349D01*
X2797811Y1055314D01*
X2798181Y1054870D01*
X2798550Y1054501D01*
X2798624Y1054427D01*
X2798846Y1054205D01*
X2799142Y1053909D01*
X2799585Y1053540D01*
X2800103Y1053170D01*
X2800620Y1052727D01*
X2801877Y1051840D01*
Y1077045D01*
X2807937D01*
Y1043118D01*
D02*
G37*
G36*
X2783620Y1037205D02*
X2784211D01*
X2785615Y1037131D01*
X2787242Y1036909D01*
X2788942Y1036688D01*
X2790716Y1036318D01*
X2792489Y1035874D01*
X2792563D01*
X2792711Y1035801D01*
X2792933Y1035727D01*
X2793229Y1035653D01*
X2794042Y1035357D01*
X2795076Y1034914D01*
X2796259Y1034470D01*
X2797442Y1033879D01*
X2798698Y1033140D01*
X2799881Y1032401D01*
X2800029Y1032327D01*
X2800398Y1032031D01*
X2800916Y1031587D01*
X2801581Y1030996D01*
X2802320Y1030331D01*
X2803059Y1029518D01*
X2803872Y1028705D01*
X2804537Y1027744D01*
X2804611Y1027596D01*
X2804833Y1027300D01*
X2805129Y1026783D01*
X2805498Y1026044D01*
X2805942Y1025157D01*
X2806311Y1024122D01*
X2806755Y1022940D01*
X2807124Y1021609D01*
Y1021461D01*
X2807198Y1021240D01*
X2807272Y1021018D01*
X2807346Y1020279D01*
X2807494Y1019244D01*
X2807642Y1018061D01*
X2807790Y1016657D01*
X2807864Y1015105D01*
X2807937Y1013405D01*
Y995000D01*
X2756789D01*
Y1014661D01*
X2756863Y1015992D01*
X2756937Y1017470D01*
X2757085Y1018948D01*
X2757306Y1020426D01*
X2757528Y1021683D01*
Y1021757D01*
X2757602Y1021905D01*
Y1022126D01*
X2757750Y1022422D01*
X2757972Y1023235D01*
X2758341Y1024270D01*
X2758859Y1025453D01*
X2759524Y1026709D01*
X2760263Y1027966D01*
X2761224Y1029148D01*
X2761298Y1029222D01*
X2761372Y1029296D01*
X2761593Y1029518D01*
X2761815Y1029814D01*
X2762554Y1030553D01*
X2763589Y1031440D01*
X2764846Y1032401D01*
X2766324Y1033435D01*
X2768024Y1034396D01*
X2769946Y1035209D01*
X2770020D01*
X2770167Y1035283D01*
X2770463Y1035431D01*
X2770907Y1035505D01*
X2771424Y1035727D01*
X2772015Y1035874D01*
X2772681Y1036022D01*
X2773494Y1036244D01*
X2774307Y1036466D01*
X2775268Y1036614D01*
X2777337Y1036983D01*
X2779628Y1037205D01*
X2782142Y1037279D01*
X2782215D01*
X2782363D01*
X2782733D01*
X2783102D01*
X2783620Y1037205D01*
D02*
G37*
G36*
X2278160Y3427505D02*
X2278899D01*
X2279638Y3427431D01*
X2280599Y3427357D01*
X2281560Y3427209D01*
X2283704Y3426840D01*
X2286069Y3426322D01*
X2288434Y3425583D01*
X2290725Y3424548D01*
X2290799Y3424474D01*
X2291021Y3424401D01*
X2291317Y3424253D01*
X2291686Y3423957D01*
X2292204Y3423661D01*
X2292795Y3423292D01*
X2294125Y3422331D01*
X2295604Y3421074D01*
X2297082Y3419596D01*
X2298560Y3417896D01*
X2299817Y3415900D01*
X2299891Y3415827D01*
X2299965Y3415605D01*
X2300112Y3415309D01*
X2300334Y3414940D01*
X2300556Y3414348D01*
X2300778Y3413757D01*
X2301073Y3413018D01*
X2301369Y3412205D01*
X2301665Y3411318D01*
X2301960Y3410357D01*
X2302404Y3408287D01*
X2302773Y3405922D01*
X2302921Y3403483D01*
Y3402744D01*
X2302847Y3402226D01*
X2302773Y3401561D01*
X2302699Y3400748D01*
X2302626Y3399935D01*
X2302404Y3398974D01*
X2301960Y3396978D01*
X2301295Y3394761D01*
X2300852Y3393652D01*
X2300334Y3392618D01*
X2299669Y3391583D01*
X2299004Y3390548D01*
X2298930Y3390474D01*
X2298856Y3390326D01*
X2298634Y3390031D01*
X2298265Y3389661D01*
X2297895Y3389291D01*
X2297378Y3388774D01*
X2296786Y3388257D01*
X2296195Y3387665D01*
X2295456Y3387074D01*
X2294569Y3386483D01*
X2293682Y3385817D01*
X2292721Y3385226D01*
X2291612Y3384709D01*
X2290504Y3384117D01*
X2289321Y3383674D01*
X2287991Y3383230D01*
X2286438Y3389883D01*
X2286512D01*
X2286660Y3389957D01*
X2286956Y3390104D01*
X2287325Y3390252D01*
X2287769Y3390400D01*
X2288360Y3390622D01*
X2289543Y3391213D01*
X2290873Y3391952D01*
X2292204Y3392839D01*
X2293460Y3393948D01*
X2294569Y3395131D01*
X2294717Y3395278D01*
X2295012Y3395722D01*
X2295382Y3396461D01*
X2295899Y3397422D01*
X2296343Y3398678D01*
X2296786Y3400083D01*
X2297082Y3401783D01*
X2297156Y3403631D01*
Y3404222D01*
X2297082Y3404592D01*
Y3405109D01*
X2297008Y3405700D01*
X2296786Y3407105D01*
X2296491Y3408657D01*
X2295973Y3410283D01*
X2295234Y3411983D01*
X2294273Y3413535D01*
Y3413609D01*
X2294125Y3413683D01*
X2293756Y3414200D01*
X2293165Y3414866D01*
X2292278Y3415679D01*
X2291169Y3416640D01*
X2289912Y3417527D01*
X2288360Y3418340D01*
X2286660Y3419079D01*
X2286586D01*
X2286438Y3419153D01*
X2286217Y3419227D01*
X2285847Y3419301D01*
X2285404Y3419448D01*
X2284886Y3419596D01*
X2283630Y3419818D01*
X2282151Y3420114D01*
X2280525Y3420409D01*
X2278751Y3420557D01*
X2276830Y3420631D01*
X2276756D01*
X2276534D01*
X2276164D01*
X2275721D01*
X2275203Y3420557D01*
X2274538D01*
X2273799Y3420483D01*
X2272986Y3420409D01*
X2271212Y3420187D01*
X2269290Y3419818D01*
X2267369Y3419374D01*
X2265447Y3418783D01*
X2265373D01*
X2265225Y3418709D01*
X2265003Y3418561D01*
X2264634Y3418414D01*
X2263747Y3417970D01*
X2262712Y3417305D01*
X2261529Y3416492D01*
X2260273Y3415457D01*
X2259164Y3414274D01*
X2258129Y3412870D01*
Y3412796D01*
X2258055Y3412648D01*
X2257908Y3412426D01*
X2257760Y3412131D01*
X2257612Y3411761D01*
X2257390Y3411318D01*
X2256947Y3410283D01*
X2256503Y3408953D01*
X2256134Y3407474D01*
X2255838Y3405848D01*
X2255764Y3404148D01*
Y3403631D01*
X2255838Y3403187D01*
Y3402670D01*
X2255912Y3402152D01*
X2256208Y3400822D01*
X2256577Y3399270D01*
X2257168Y3397718D01*
X2257982Y3396092D01*
X2258425Y3395278D01*
X2259016Y3394539D01*
X2259090Y3394465D01*
X2259164Y3394391D01*
X2259386Y3394170D01*
X2259608Y3393874D01*
X2259977Y3393578D01*
X2260421Y3393209D01*
X2260864Y3392765D01*
X2261455Y3392396D01*
X2262121Y3391952D01*
X2262860Y3391435D01*
X2263599Y3390991D01*
X2264486Y3390548D01*
X2265447Y3390178D01*
X2266482Y3389809D01*
X2267590Y3389439D01*
X2268773Y3389144D01*
X2267073Y3382344D01*
X2266999D01*
X2266703Y3382417D01*
X2266260Y3382565D01*
X2265669Y3382787D01*
X2265003Y3383009D01*
X2264190Y3383304D01*
X2263303Y3383674D01*
X2262342Y3384117D01*
X2260273Y3385152D01*
X2258203Y3386483D01*
X2257168Y3387296D01*
X2256134Y3388109D01*
X2255247Y3388996D01*
X2254360Y3390031D01*
X2254286Y3390104D01*
X2254138Y3390252D01*
X2253990Y3390622D01*
X2253695Y3390991D01*
X2253325Y3391583D01*
X2252955Y3392174D01*
X2252586Y3392987D01*
X2252216Y3393800D01*
X2251773Y3394761D01*
X2251403Y3395796D01*
X2251034Y3396905D01*
X2250664Y3398087D01*
X2250368Y3399344D01*
X2250221Y3400674D01*
X2250073Y3402079D01*
X2249999Y3403557D01*
Y3404370D01*
X2250073Y3404961D01*
Y3405626D01*
X2250147Y3406439D01*
X2250294Y3407326D01*
X2250442Y3408361D01*
X2250812Y3410505D01*
X2251403Y3412722D01*
X2252216Y3414940D01*
X2252734Y3415974D01*
X2253325Y3417009D01*
X2253399Y3417083D01*
X2253473Y3417231D01*
X2253695Y3417527D01*
X2253990Y3417822D01*
X2254286Y3418266D01*
X2254729Y3418783D01*
X2255247Y3419374D01*
X2255838Y3419966D01*
X2256503Y3420557D01*
X2257168Y3421222D01*
X2258868Y3422553D01*
X2260864Y3423809D01*
X2263082Y3424918D01*
X2263155D01*
X2263377Y3425066D01*
X2263747Y3425140D01*
X2264190Y3425361D01*
X2264782Y3425509D01*
X2265521Y3425731D01*
X2266334Y3426027D01*
X2267221Y3426248D01*
X2268182Y3426470D01*
X2269290Y3426766D01*
X2271582Y3427135D01*
X2274169Y3427431D01*
X2276830Y3427579D01*
X2276903D01*
X2277199D01*
X2277643D01*
X2278160Y3427505D01*
D02*
G37*
G36*
X2302034Y3355291D02*
Y3350191D01*
X2268921D01*
Y3343243D01*
X2263155D01*
Y3350191D01*
X2250886D01*
Y3356474D01*
X2263155D01*
Y3378722D01*
X2268921D01*
X2302034Y3355291D01*
D02*
G37*
G36*
X2301369Y3303256D02*
X2296417D01*
X2296343Y3303329D01*
X2296195Y3303477D01*
X2295899Y3303773D01*
X2295456Y3304069D01*
X2294939Y3304512D01*
X2294347Y3305103D01*
X2293608Y3305695D01*
X2292721Y3306360D01*
X2291834Y3307025D01*
X2290799Y3307838D01*
X2289617Y3308651D01*
X2288434Y3309464D01*
X2287104Y3310351D01*
X2285699Y3311238D01*
X2284147Y3312125D01*
X2282595Y3313012D01*
X2282521Y3313086D01*
X2282225Y3313234D01*
X2281782Y3313456D01*
X2281117Y3313825D01*
X2280304Y3314195D01*
X2279417Y3314638D01*
X2278382Y3315156D01*
X2277199Y3315673D01*
X2275869Y3316264D01*
X2274538Y3316930D01*
X2273060Y3317521D01*
X2271508Y3318112D01*
X2268329Y3319295D01*
X2264929Y3320404D01*
X2264856D01*
X2264634Y3320477D01*
X2264264Y3320551D01*
X2263821Y3320699D01*
X2263229Y3320847D01*
X2262490Y3320995D01*
X2261677Y3321217D01*
X2260790Y3321364D01*
X2259755Y3321586D01*
X2258647Y3321808D01*
X2256281Y3322178D01*
X2253695Y3322547D01*
X2250886Y3322769D01*
Y3329199D01*
X2250960D01*
X2251181D01*
X2251477D01*
X2251921Y3329125D01*
X2252512D01*
X2253251Y3329052D01*
X2254064Y3328978D01*
X2254951Y3328904D01*
X2255986Y3328756D01*
X2257021Y3328608D01*
X2258277Y3328386D01*
X2259534Y3328165D01*
X2260864Y3327943D01*
X2262342Y3327647D01*
X2265373Y3326908D01*
X2265447D01*
X2265742Y3326834D01*
X2266186Y3326686D01*
X2266851Y3326465D01*
X2267590Y3326243D01*
X2268477Y3325947D01*
X2269512Y3325651D01*
X2270621Y3325208D01*
X2271877Y3324764D01*
X2273134Y3324321D01*
X2275943Y3323212D01*
X2278899Y3321882D01*
X2281856Y3320404D01*
X2281930Y3320330D01*
X2282225Y3320182D01*
X2282595Y3319960D01*
X2283186Y3319664D01*
X2283851Y3319295D01*
X2284664Y3318777D01*
X2285551Y3318260D01*
X2286512Y3317669D01*
X2288656Y3316264D01*
X2290873Y3314786D01*
X2293165Y3313086D01*
X2295308Y3311312D01*
Y3336369D01*
X2301369D01*
Y3303256D01*
D02*
G37*
G36*
X3044485Y1504558D02*
X3045003Y1504484D01*
X3045668Y1504410D01*
X3046407Y1504262D01*
X3047220Y1504040D01*
X3048920Y1503523D01*
X3049881Y1503153D01*
X3050768Y1502636D01*
X3051729Y1502118D01*
X3052616Y1501527D01*
X3053503Y1500788D01*
X3054390Y1499975D01*
X3054464Y1499901D01*
X3054611Y1499753D01*
X3054833Y1499531D01*
X3055055Y1499162D01*
X3055424Y1498644D01*
X3055794Y1498127D01*
X3056164Y1497462D01*
X3056607Y1496723D01*
X3057051Y1495910D01*
X3057420Y1494949D01*
X3057790Y1493914D01*
X3058159Y1492879D01*
X3058381Y1491697D01*
X3058603Y1490440D01*
X3058751Y1489183D01*
X3058824Y1487779D01*
Y1487040D01*
X3058751Y1486523D01*
X3058677Y1485857D01*
X3058603Y1485118D01*
X3058455Y1484305D01*
X3058233Y1483418D01*
X3057716Y1481422D01*
X3057346Y1480388D01*
X3056977Y1479427D01*
X3056459Y1478392D01*
X3055868Y1477357D01*
X3055203Y1476396D01*
X3054390Y1475509D01*
X3054316Y1475435D01*
X3054168Y1475288D01*
X3053946Y1475066D01*
X3053577Y1474770D01*
X3053133Y1474475D01*
X3052616Y1474031D01*
X3052024Y1473662D01*
X3051285Y1473218D01*
X3050546Y1472775D01*
X3049659Y1472405D01*
X3047811Y1471666D01*
X3046703Y1471370D01*
X3045594Y1471148D01*
X3044411Y1471001D01*
X3043229Y1470927D01*
X3043155D01*
X3043007D01*
X3042711D01*
X3042416Y1471001D01*
X3041972D01*
X3041455Y1471075D01*
X3040272Y1471222D01*
X3038942Y1471518D01*
X3037611Y1471961D01*
X3036207Y1472627D01*
X3034876Y1473440D01*
X3034802D01*
X3034728Y1473588D01*
X3034359Y1473883D01*
X3033768Y1474475D01*
X3033028Y1475288D01*
X3032289Y1476322D01*
X3031476Y1477579D01*
X3030811Y1478983D01*
X3030294Y1480683D01*
Y1480609D01*
X3030220Y1480536D01*
X3030146Y1480314D01*
X3029998Y1480018D01*
X3029702Y1479353D01*
X3029259Y1478466D01*
X3028668Y1477505D01*
X3027928Y1476544D01*
X3027115Y1475657D01*
X3026228Y1474844D01*
X3026081Y1474770D01*
X3025785Y1474548D01*
X3025194Y1474253D01*
X3024454Y1473957D01*
X3023494Y1473588D01*
X3022385Y1473292D01*
X3021128Y1473070D01*
X3019798Y1472996D01*
X3019724D01*
X3019576D01*
X3019280D01*
X3018837Y1473070D01*
X3018394Y1473144D01*
X3017802Y1473218D01*
X3016546Y1473514D01*
X3015067Y1473957D01*
X3013515Y1474696D01*
X3012702Y1475140D01*
X3011889Y1475657D01*
X3011150Y1476322D01*
X3010411Y1476988D01*
X3010337Y1477062D01*
X3010263Y1477209D01*
X3010041Y1477431D01*
X3009819Y1477727D01*
X3009524Y1478096D01*
X3009228Y1478614D01*
X3008859Y1479205D01*
X3008489Y1479796D01*
X3008119Y1480536D01*
X3007750Y1481349D01*
X3007454Y1482236D01*
X3007159Y1483196D01*
X3006715Y1485266D01*
X3006641Y1486449D01*
X3006567Y1487631D01*
Y1488296D01*
X3006641Y1488740D01*
X3006715Y1489331D01*
X3006789Y1489997D01*
X3006863Y1490736D01*
X3007085Y1491475D01*
X3007528Y1493249D01*
X3008193Y1495023D01*
X3008637Y1495910D01*
X3009154Y1496797D01*
X3009819Y1497610D01*
X3010485Y1498423D01*
X3010559Y1498497D01*
X3010633Y1498571D01*
X3010854Y1498792D01*
X3011150Y1499088D01*
X3011593Y1499384D01*
X3012037Y1499753D01*
X3013146Y1500492D01*
X3014550Y1501231D01*
X3016176Y1501897D01*
X3018024Y1502414D01*
X3018985Y1502488D01*
X3020020Y1502562D01*
X3020094D01*
X3020167D01*
X3020611D01*
X3021276Y1502488D01*
X3022089Y1502340D01*
X3023124Y1502118D01*
X3024159Y1501749D01*
X3025194Y1501305D01*
X3026228Y1500640D01*
X3026376Y1500566D01*
X3026672Y1500271D01*
X3027115Y1499827D01*
X3027707Y1499236D01*
X3028372Y1498423D01*
X3029037Y1497462D01*
X3029702Y1496353D01*
X3030294Y1495023D01*
Y1495097D01*
X3030368Y1495244D01*
X3030441Y1495466D01*
X3030589Y1495762D01*
X3030959Y1496649D01*
X3031476Y1497684D01*
X3032215Y1498792D01*
X3033028Y1499975D01*
X3034063Y1501084D01*
X3035246Y1502118D01*
X3035320D01*
X3035394Y1502192D01*
X3035837Y1502488D01*
X3036576Y1502931D01*
X3037537Y1503375D01*
X3038720Y1503818D01*
X3040124Y1504262D01*
X3041676Y1504558D01*
X3043376Y1504631D01*
X3043450D01*
X3043672D01*
X3044042D01*
X3044485Y1504558D01*
D02*
G37*
G36*
X3042120Y1465161D02*
X3042563Y1465014D01*
X3043155Y1464792D01*
X3043820Y1464570D01*
X3044633Y1464274D01*
X3045520Y1463905D01*
X3046481Y1463461D01*
X3048550Y1462427D01*
X3050620Y1461096D01*
X3051655Y1460283D01*
X3052690Y1459470D01*
X3053577Y1458583D01*
X3054464Y1457548D01*
X3054537Y1457474D01*
X3054685Y1457327D01*
X3054833Y1456957D01*
X3055129Y1456587D01*
X3055498Y1455996D01*
X3055868Y1455405D01*
X3056237Y1454592D01*
X3056607Y1453779D01*
X3057051Y1452818D01*
X3057420Y1451783D01*
X3057790Y1450674D01*
X3058159Y1449492D01*
X3058455Y1448235D01*
X3058603Y1446905D01*
X3058751Y1445500D01*
X3058824Y1444022D01*
Y1443209D01*
X3058751Y1442618D01*
Y1441952D01*
X3058677Y1441139D01*
X3058529Y1440252D01*
X3058381Y1439218D01*
X3058011Y1437074D01*
X3057420Y1434857D01*
X3056607Y1432639D01*
X3056090Y1431604D01*
X3055498Y1430570D01*
X3055424Y1430496D01*
X3055351Y1430348D01*
X3055129Y1430052D01*
X3054833Y1429757D01*
X3054537Y1429313D01*
X3054094Y1428796D01*
X3053577Y1428204D01*
X3052985Y1427613D01*
X3052320Y1427022D01*
X3051655Y1426357D01*
X3049955Y1425026D01*
X3047959Y1423770D01*
X3045742Y1422661D01*
X3045668D01*
X3045446Y1422513D01*
X3045076Y1422439D01*
X3044633Y1422217D01*
X3044042Y1422070D01*
X3043303Y1421848D01*
X3042489Y1421552D01*
X3041603Y1421330D01*
X3040642Y1421109D01*
X3039533Y1420813D01*
X3037242Y1420443D01*
X3034655Y1420148D01*
X3031994Y1420000D01*
X3031920D01*
X3031624D01*
X3031181D01*
X3030663Y1420074D01*
X3029924D01*
X3029185Y1420148D01*
X3028224Y1420222D01*
X3027263Y1420370D01*
X3025120Y1420739D01*
X3022754Y1421256D01*
X3020389Y1421996D01*
X3018098Y1423030D01*
X3018024Y1423104D01*
X3017802Y1423178D01*
X3017507Y1423326D01*
X3017137Y1423622D01*
X3016620Y1423917D01*
X3016028Y1424287D01*
X3014698Y1425248D01*
X3013220Y1426504D01*
X3011741Y1427983D01*
X3010263Y1429683D01*
X3009006Y1431678D01*
X3008933Y1431752D01*
X3008859Y1431974D01*
X3008711Y1432270D01*
X3008489Y1432639D01*
X3008267Y1433231D01*
X3008046Y1433822D01*
X3007750Y1434561D01*
X3007454Y1435374D01*
X3007159Y1436261D01*
X3006863Y1437222D01*
X3006419Y1439292D01*
X3006050Y1441657D01*
X3005902Y1444096D01*
Y1444835D01*
X3005976Y1445352D01*
X3006050Y1446018D01*
X3006124Y1446831D01*
X3006198Y1447644D01*
X3006419Y1448605D01*
X3006863Y1450600D01*
X3007528Y1452818D01*
X3007972Y1453926D01*
X3008489Y1454961D01*
X3009154Y1455996D01*
X3009819Y1457031D01*
X3009893Y1457105D01*
X3009967Y1457253D01*
X3010189Y1457548D01*
X3010559Y1457918D01*
X3010928Y1458287D01*
X3011446Y1458805D01*
X3012037Y1459322D01*
X3012628Y1459914D01*
X3013367Y1460505D01*
X3014254Y1461096D01*
X3015141Y1461761D01*
X3016102Y1462353D01*
X3017211Y1462870D01*
X3018320Y1463461D01*
X3019502Y1463905D01*
X3020833Y1464348D01*
X3022385Y1457696D01*
X3022311D01*
X3022163Y1457622D01*
X3021867Y1457474D01*
X3021498Y1457327D01*
X3021054Y1457179D01*
X3020463Y1456957D01*
X3019280Y1456366D01*
X3017950Y1455627D01*
X3016620Y1454740D01*
X3015363Y1453631D01*
X3014254Y1452448D01*
X3014106Y1452300D01*
X3013811Y1451857D01*
X3013441Y1451118D01*
X3012924Y1450157D01*
X3012480Y1448900D01*
X3012037Y1447496D01*
X3011741Y1445796D01*
X3011667Y1443948D01*
Y1443357D01*
X3011741Y1442987D01*
Y1442470D01*
X3011815Y1441878D01*
X3012037Y1440474D01*
X3012333Y1438922D01*
X3012850Y1437296D01*
X3013589Y1435596D01*
X3014550Y1434044D01*
Y1433970D01*
X3014698Y1433896D01*
X3015067Y1433378D01*
X3015659Y1432713D01*
X3016546Y1431900D01*
X3017654Y1430939D01*
X3018911Y1430052D01*
X3020463Y1429239D01*
X3022163Y1428500D01*
X3022237D01*
X3022385Y1428426D01*
X3022607Y1428352D01*
X3022976Y1428278D01*
X3023420Y1428130D01*
X3023937Y1427983D01*
X3025194Y1427761D01*
X3026672Y1427465D01*
X3028298Y1427170D01*
X3030072Y1427022D01*
X3031994Y1426948D01*
X3032068D01*
X3032289D01*
X3032659D01*
X3033102D01*
X3033620Y1427022D01*
X3034285D01*
X3035024Y1427096D01*
X3035837Y1427170D01*
X3037611Y1427391D01*
X3039533Y1427761D01*
X3041455Y1428204D01*
X3043376Y1428796D01*
X3043450D01*
X3043598Y1428870D01*
X3043820Y1429017D01*
X3044189Y1429165D01*
X3045076Y1429609D01*
X3046111Y1430274D01*
X3047294Y1431087D01*
X3048550Y1432122D01*
X3049659Y1433304D01*
X3050694Y1434709D01*
Y1434783D01*
X3050768Y1434931D01*
X3050916Y1435152D01*
X3051063Y1435448D01*
X3051211Y1435818D01*
X3051433Y1436261D01*
X3051877Y1437296D01*
X3052320Y1438626D01*
X3052690Y1440105D01*
X3052985Y1441731D01*
X3053059Y1443431D01*
Y1443948D01*
X3052985Y1444392D01*
Y1444909D01*
X3052911Y1445426D01*
X3052616Y1446757D01*
X3052246Y1448309D01*
X3051655Y1449861D01*
X3050842Y1451487D01*
X3050398Y1452300D01*
X3049807Y1453040D01*
X3049733Y1453113D01*
X3049659Y1453187D01*
X3049437Y1453409D01*
X3049216Y1453705D01*
X3048846Y1454000D01*
X3048403Y1454370D01*
X3047959Y1454813D01*
X3047368Y1455183D01*
X3046703Y1455627D01*
X3045963Y1456144D01*
X3045224Y1456587D01*
X3044337Y1457031D01*
X3043376Y1457400D01*
X3042342Y1457770D01*
X3041233Y1458140D01*
X3040050Y1458435D01*
X3041750Y1465235D01*
X3041824D01*
X3042120Y1465161D01*
D02*
G37*
G36*
X2268825Y1167544D02*
X2228837D01*
X2228911Y1167470D01*
X2229207Y1167101D01*
X2229650Y1166657D01*
X2230167Y1165918D01*
X2230833Y1165105D01*
X2231572Y1164070D01*
X2232385Y1162888D01*
X2233198Y1161557D01*
Y1161483D01*
X2233272Y1161409D01*
X2233568Y1160966D01*
X2233937Y1160227D01*
X2234381Y1159340D01*
X2234898Y1158305D01*
X2235415Y1157196D01*
X2235933Y1156088D01*
X2236376Y1154979D01*
X2230315D01*
Y1155053D01*
X2230167Y1155201D01*
X2230094Y1155496D01*
X2229872Y1155866D01*
X2229650Y1156309D01*
X2229354Y1156827D01*
X2228615Y1158083D01*
X2227802Y1159562D01*
X2226767Y1161040D01*
X2225585Y1162592D01*
X2224328Y1164144D01*
X2224254Y1164218D01*
X2224180Y1164292D01*
X2223959Y1164514D01*
X2223737Y1164809D01*
X2222998Y1165475D01*
X2222111Y1166362D01*
X2221076Y1167249D01*
X2219893Y1168210D01*
X2218711Y1169023D01*
X2217454Y1169762D01*
Y1173827D01*
X2268825D01*
Y1167544D01*
D02*
G37*
G36*
Y1112700D02*
X2217676D01*
Y1119500D01*
X2262764D01*
Y1144705D01*
X2268825D01*
Y1112700D01*
D02*
G37*
G36*
X2766201Y1592031D02*
X2767088D01*
X2768049Y1591957D01*
X2769084Y1591883D01*
X2771449Y1591661D01*
X2773888Y1591292D01*
X2776253Y1590848D01*
X2777362Y1590553D01*
X2778471Y1590183D01*
X2778545D01*
X2778692Y1590109D01*
X2778988Y1589961D01*
X2779358Y1589813D01*
X2779875Y1589666D01*
X2780392Y1589370D01*
X2781649Y1588779D01*
X2782979Y1588039D01*
X2784458Y1587079D01*
X2785788Y1585970D01*
X2787045Y1584639D01*
Y1584566D01*
X2787193Y1584492D01*
X2787340Y1584270D01*
X2787488Y1583974D01*
X2787710Y1583605D01*
X2788006Y1583235D01*
X2788523Y1582126D01*
X2789040Y1580796D01*
X2789558Y1579244D01*
X2789853Y1577396D01*
X2790001Y1575400D01*
Y1574661D01*
X2789927Y1574144D01*
X2789853Y1573552D01*
X2789706Y1572813D01*
X2789558Y1572000D01*
X2789336Y1571113D01*
X2789040Y1570226D01*
X2788745Y1569265D01*
X2788301Y1568304D01*
X2787784Y1567344D01*
X2787193Y1566383D01*
X2786453Y1565422D01*
X2785640Y1564535D01*
X2784753Y1563722D01*
X2784679Y1563648D01*
X2784458Y1563500D01*
X2784088Y1563278D01*
X2783497Y1562909D01*
X2782832Y1562539D01*
X2781945Y1562170D01*
X2780910Y1561652D01*
X2779727Y1561209D01*
X2778397Y1560765D01*
X2776845Y1560322D01*
X2775145Y1559878D01*
X2773223Y1559509D01*
X2771153Y1559139D01*
X2768936Y1558917D01*
X2766497Y1558770D01*
X2763910Y1558696D01*
X2763836D01*
X2763540D01*
X2763023D01*
X2762431D01*
X2761618Y1558770D01*
X2760731D01*
X2759770Y1558843D01*
X2758662Y1558917D01*
X2756370Y1559139D01*
X2753931Y1559509D01*
X2751492Y1559952D01*
X2750383Y1560248D01*
X2749275Y1560543D01*
X2749201D01*
X2749053Y1560617D01*
X2748757Y1560765D01*
X2748388Y1560913D01*
X2747870Y1561061D01*
X2747353Y1561357D01*
X2746096Y1561948D01*
X2744766Y1562687D01*
X2743362Y1563648D01*
X2741957Y1564757D01*
X2740775Y1566087D01*
Y1566161D01*
X2740627Y1566235D01*
X2740479Y1566457D01*
X2740331Y1566752D01*
X2740035Y1567122D01*
X2739814Y1567565D01*
X2739222Y1568674D01*
X2738705Y1570004D01*
X2738188Y1571557D01*
X2737892Y1573405D01*
X2737744Y1575400D01*
Y1576065D01*
X2737818Y1576878D01*
X2737966Y1577839D01*
X2738188Y1578948D01*
X2738483Y1580131D01*
X2738853Y1581387D01*
X2739444Y1582570D01*
Y1582644D01*
X2739518Y1582718D01*
X2739740Y1583087D01*
X2740109Y1583679D01*
X2740627Y1584418D01*
X2741366Y1585231D01*
X2742179Y1586118D01*
X2743140Y1586931D01*
X2744249Y1587744D01*
X2744396Y1587818D01*
X2744766Y1588113D01*
X2745431Y1588409D01*
X2746392Y1588926D01*
X2747501Y1589370D01*
X2748757Y1589961D01*
X2750236Y1590479D01*
X2751862Y1590922D01*
X2751936D01*
X2752083Y1590996D01*
X2752305Y1591070D01*
X2752675Y1591144D01*
X2753118Y1591218D01*
X2753636Y1591292D01*
X2754301Y1591440D01*
X2755040Y1591513D01*
X2755853Y1591661D01*
X2756740Y1591735D01*
X2757775Y1591809D01*
X2758810Y1591957D01*
X2759992Y1592031D01*
X2761175D01*
X2762505Y1592105D01*
X2763910D01*
X2763984D01*
X2764279D01*
X2764797D01*
X2765388D01*
X2766201Y1592031D01*
D02*
G37*
G36*
X2789114Y1518043D02*
X2789040D01*
X2788745D01*
X2788301D01*
X2787710Y1518117D01*
X2787045Y1518191D01*
X2786306Y1518339D01*
X2785566Y1518486D01*
X2784753Y1518782D01*
X2784679D01*
X2784606Y1518856D01*
X2784162Y1519004D01*
X2783497Y1519299D01*
X2782610Y1519743D01*
X2781575Y1520334D01*
X2780392Y1521073D01*
X2779210Y1521886D01*
X2777953Y1522921D01*
X2777879D01*
X2777805Y1523069D01*
X2777362Y1523439D01*
X2776697Y1524104D01*
X2775736Y1525065D01*
X2774627Y1526173D01*
X2773297Y1527578D01*
X2771818Y1529278D01*
X2770266Y1531126D01*
X2770192Y1531200D01*
X2769971Y1531495D01*
X2769601Y1531939D01*
X2769158Y1532456D01*
X2768566Y1533121D01*
X2767901Y1533934D01*
X2767162Y1534748D01*
X2766349Y1535708D01*
X2764575Y1537556D01*
X2762801Y1539404D01*
X2761914Y1540291D01*
X2761027Y1541104D01*
X2760214Y1541843D01*
X2759401Y1542435D01*
X2759327D01*
X2759253Y1542582D01*
X2759031Y1542730D01*
X2758736Y1542878D01*
X2757923Y1543395D01*
X2756962Y1543987D01*
X2755779Y1544504D01*
X2754523Y1545022D01*
X2753118Y1545317D01*
X2751788Y1545465D01*
X2751714D01*
X2751640D01*
X2751196Y1545391D01*
X2750457Y1545317D01*
X2749644Y1545095D01*
X2748609Y1544800D01*
X2747575Y1544282D01*
X2746540Y1543617D01*
X2745505Y1542730D01*
X2745357Y1542582D01*
X2745062Y1542213D01*
X2744692Y1541695D01*
X2744175Y1540882D01*
X2743731Y1539848D01*
X2743288Y1538665D01*
X2742992Y1537261D01*
X2742918Y1535708D01*
Y1535265D01*
X2742992Y1534969D01*
X2743066Y1534082D01*
X2743288Y1533047D01*
X2743583Y1531939D01*
X2744101Y1530682D01*
X2744766Y1529500D01*
X2745653Y1528391D01*
X2745801Y1528243D01*
X2746170Y1527947D01*
X2746762Y1527504D01*
X2747649Y1527060D01*
X2748683Y1526543D01*
X2750014Y1526100D01*
X2751492Y1525804D01*
X2753192Y1525656D01*
X2752527Y1519226D01*
X2752453D01*
X2752231Y1519299D01*
X2751862D01*
X2751344Y1519373D01*
X2750753Y1519521D01*
X2750088Y1519669D01*
X2749275Y1519891D01*
X2748462Y1520113D01*
X2746688Y1520704D01*
X2744914Y1521591D01*
X2744027Y1522108D01*
X2743140Y1522773D01*
X2742327Y1523439D01*
X2741588Y1524178D01*
X2741514Y1524252D01*
X2741440Y1524400D01*
X2741218Y1524621D01*
X2740996Y1524991D01*
X2740701Y1525434D01*
X2740405Y1525952D01*
X2740035Y1526543D01*
X2739666Y1527282D01*
X2739296Y1528095D01*
X2738927Y1528982D01*
X2738631Y1529943D01*
X2738335Y1530978D01*
X2738114Y1532087D01*
X2737892Y1533269D01*
X2737818Y1534526D01*
X2737744Y1535856D01*
Y1536595D01*
X2737818Y1537113D01*
X2737892Y1537704D01*
X2737966Y1538443D01*
X2738114Y1539256D01*
X2738261Y1540069D01*
X2738779Y1541991D01*
X2739518Y1543913D01*
X2739961Y1544874D01*
X2740479Y1545835D01*
X2741144Y1546722D01*
X2741883Y1547535D01*
X2741957Y1547609D01*
X2742031Y1547756D01*
X2742327Y1547904D01*
X2742622Y1548200D01*
X2742992Y1548569D01*
X2743509Y1548939D01*
X2744027Y1549309D01*
X2744692Y1549752D01*
X2746096Y1550491D01*
X2747870Y1551230D01*
X2748757Y1551526D01*
X2749792Y1551674D01*
X2750827Y1551822D01*
X2751936Y1551896D01*
X2752083D01*
X2752453D01*
X2753044Y1551822D01*
X2753857Y1551748D01*
X2754744Y1551600D01*
X2755779Y1551304D01*
X2756888Y1551009D01*
X2757997Y1550565D01*
X2758144Y1550491D01*
X2758514Y1550343D01*
X2759105Y1550048D01*
X2759918Y1549604D01*
X2760805Y1549013D01*
X2761914Y1548274D01*
X2763023Y1547387D01*
X2764279Y1546352D01*
X2764427Y1546204D01*
X2764871Y1545835D01*
X2765240Y1545465D01*
X2765610Y1545095D01*
X2766053Y1544652D01*
X2766644Y1544061D01*
X2767236Y1543469D01*
X2767901Y1542730D01*
X2768640Y1541991D01*
X2769453Y1541104D01*
X2770266Y1540143D01*
X2771227Y1539108D01*
X2772188Y1537926D01*
X2773223Y1536743D01*
X2773297Y1536669D01*
X2773445Y1536521D01*
X2773666Y1536226D01*
X2773962Y1535856D01*
X2774405Y1535413D01*
X2774849Y1534895D01*
X2775810Y1533713D01*
X2776918Y1532456D01*
X2778027Y1531274D01*
X2778988Y1530239D01*
X2779358Y1529795D01*
X2779727Y1529426D01*
X2779801Y1529352D01*
X2780023Y1529130D01*
X2780319Y1528834D01*
X2780762Y1528465D01*
X2781279Y1528095D01*
X2781797Y1527652D01*
X2783053Y1526765D01*
Y1551969D01*
X2789114D01*
Y1518043D01*
D02*
G37*
G36*
Y1506512D02*
X2778471Y1499786D01*
X2778397D01*
X2778249Y1499638D01*
X2778027Y1499491D01*
X2777732Y1499269D01*
X2776918Y1498751D01*
X2775884Y1498086D01*
X2774775Y1497273D01*
X2773592Y1496460D01*
X2772484Y1495647D01*
X2771449Y1494908D01*
X2771375Y1494834D01*
X2771079Y1494612D01*
X2770636Y1494243D01*
X2770118Y1493725D01*
X2769010Y1492617D01*
X2768492Y1492025D01*
X2768049Y1491434D01*
X2767975Y1491360D01*
X2767901Y1491212D01*
X2767753Y1490916D01*
X2767531Y1490473D01*
X2767310Y1490030D01*
X2767088Y1489512D01*
X2766718Y1488330D01*
Y1488256D01*
X2766644Y1488108D01*
Y1487812D01*
X2766571Y1487443D01*
X2766497Y1486925D01*
Y1486334D01*
X2766423Y1485521D01*
Y1476799D01*
X2789114D01*
Y1469999D01*
X2737966D01*
Y1493725D01*
X2738040Y1494317D01*
Y1494982D01*
X2738114Y1496534D01*
X2738335Y1498160D01*
X2738557Y1499934D01*
X2738927Y1501560D01*
X2739148Y1502373D01*
X2739370Y1503038D01*
Y1503112D01*
X2739444Y1503186D01*
X2739666Y1503630D01*
X2739961Y1504295D01*
X2740479Y1505108D01*
X2741144Y1505995D01*
X2742031Y1506956D01*
X2743066Y1507843D01*
X2744249Y1508730D01*
X2744322D01*
X2744396Y1508804D01*
X2744840Y1509099D01*
X2745579Y1509395D01*
X2746540Y1509838D01*
X2747649Y1510208D01*
X2748979Y1510578D01*
X2750383Y1510799D01*
X2751936Y1510873D01*
X2752009D01*
X2752157D01*
X2752453D01*
X2752823Y1510799D01*
X2753340D01*
X2753857Y1510725D01*
X2755114Y1510430D01*
X2756592Y1509986D01*
X2758144Y1509395D01*
X2759697Y1508508D01*
X2760436Y1507917D01*
X2761175Y1507325D01*
X2761249Y1507251D01*
X2761323Y1507178D01*
X2761544Y1506956D01*
X2761766Y1506660D01*
X2762062Y1506291D01*
X2762357Y1505847D01*
X2762727Y1505256D01*
X2763170Y1504665D01*
X2763540Y1503925D01*
X2763910Y1503112D01*
X2764353Y1502225D01*
X2764723Y1501264D01*
X2765018Y1500156D01*
X2765388Y1499047D01*
X2765610Y1497791D01*
X2765831Y1496460D01*
X2765905Y1496608D01*
X2766053Y1496904D01*
X2766349Y1497347D01*
X2766644Y1497938D01*
X2767458Y1499269D01*
X2767975Y1499934D01*
X2768418Y1500525D01*
X2768566Y1500673D01*
X2768936Y1501043D01*
X2769527Y1501634D01*
X2770266Y1502373D01*
X2771301Y1503186D01*
X2772410Y1504147D01*
X2773740Y1505108D01*
X2775218Y1506143D01*
X2789114Y1514939D01*
Y1506512D01*
D02*
G37*
G36*
X900351Y4352847D02*
X901016Y4352773D01*
X901829Y4352699D01*
X902642Y4352626D01*
X903603Y4352404D01*
X905599Y4351960D01*
X907816Y4351295D01*
X908925Y4350852D01*
X909960Y4350334D01*
X910995Y4349669D01*
X912029Y4349004D01*
X912103Y4348930D01*
X912251Y4348856D01*
X912547Y4348634D01*
X912916Y4348265D01*
X913286Y4347895D01*
X913803Y4347378D01*
X914321Y4346786D01*
X914912Y4346195D01*
X915503Y4345456D01*
X916095Y4344569D01*
X916760Y4343682D01*
X917351Y4342721D01*
X917869Y4341612D01*
X918460Y4340504D01*
X918903Y4339321D01*
X919347Y4337991D01*
X912695Y4336438D01*
Y4336512D01*
X912621Y4336660D01*
X912473Y4336956D01*
X912325Y4337325D01*
X912177Y4337769D01*
X911956Y4338360D01*
X911364Y4339543D01*
X910625Y4340873D01*
X909738Y4342204D01*
X908629Y4343460D01*
X907447Y4344569D01*
X907299Y4344717D01*
X906855Y4345012D01*
X906116Y4345382D01*
X905155Y4345899D01*
X903899Y4346343D01*
X902495Y4346786D01*
X900794Y4347082D01*
X898947Y4347156D01*
X898355D01*
X897986Y4347082D01*
X897468D01*
X896877Y4347008D01*
X895473Y4346786D01*
X893920Y4346491D01*
X892294Y4345973D01*
X890594Y4345234D01*
X889042Y4344273D01*
X888968D01*
X888894Y4344125D01*
X888377Y4343756D01*
X887712Y4343165D01*
X886899Y4342278D01*
X885938Y4341169D01*
X885051Y4339912D01*
X884238Y4338360D01*
X883499Y4336660D01*
Y4336586D01*
X883425Y4336438D01*
X883351Y4336217D01*
X883277Y4335847D01*
X883129Y4335404D01*
X882981Y4334886D01*
X882759Y4333630D01*
X882464Y4332151D01*
X882168Y4330525D01*
X882020Y4328751D01*
X881946Y4326830D01*
Y4326756D01*
Y4326534D01*
Y4326164D01*
Y4325721D01*
X882020Y4325203D01*
Y4324538D01*
X882094Y4323799D01*
X882168Y4322986D01*
X882390Y4321212D01*
X882759Y4319290D01*
X883203Y4317369D01*
X883794Y4315447D01*
Y4315373D01*
X883868Y4315225D01*
X884016Y4315003D01*
X884164Y4314634D01*
X884607Y4313747D01*
X885273Y4312712D01*
X886086Y4311529D01*
X887120Y4310273D01*
X888303Y4309164D01*
X889707Y4308129D01*
X889781D01*
X889929Y4308055D01*
X890151Y4307908D01*
X890447Y4307760D01*
X890816Y4307612D01*
X891260Y4307390D01*
X892294Y4306947D01*
X893625Y4306503D01*
X895103Y4306134D01*
X896729Y4305838D01*
X898429Y4305764D01*
X898947D01*
X899390Y4305838D01*
X899908D01*
X900425Y4305912D01*
X901755Y4306208D01*
X903308Y4306577D01*
X904860Y4307168D01*
X906486Y4307981D01*
X907299Y4308425D01*
X908038Y4309016D01*
X908112Y4309090D01*
X908186Y4309164D01*
X908408Y4309386D01*
X908703Y4309608D01*
X908999Y4309977D01*
X909369Y4310421D01*
X909812Y4310864D01*
X910182Y4311455D01*
X910625Y4312121D01*
X911142Y4312860D01*
X911586Y4313599D01*
X912029Y4314486D01*
X912399Y4315447D01*
X912769Y4316482D01*
X913138Y4317590D01*
X913434Y4318773D01*
X920234Y4317073D01*
Y4316999D01*
X920160Y4316703D01*
X920012Y4316260D01*
X919790Y4315669D01*
X919569Y4315003D01*
X919273Y4314190D01*
X918903Y4313303D01*
X918460Y4312342D01*
X917425Y4310273D01*
X916095Y4308203D01*
X915282Y4307168D01*
X914469Y4306134D01*
X913582Y4305247D01*
X912547Y4304360D01*
X912473Y4304286D01*
X912325Y4304138D01*
X911956Y4303990D01*
X911586Y4303694D01*
X910995Y4303325D01*
X910403Y4302955D01*
X909590Y4302586D01*
X908777Y4302216D01*
X907816Y4301773D01*
X906782Y4301403D01*
X905673Y4301034D01*
X904490Y4300664D01*
X903234Y4300368D01*
X901903Y4300221D01*
X900499Y4300073D01*
X899021Y4299999D01*
X898208D01*
X897616Y4300073D01*
X896951D01*
X896138Y4300147D01*
X895251Y4300294D01*
X894216Y4300442D01*
X892073Y4300812D01*
X889855Y4301403D01*
X887638Y4302216D01*
X886603Y4302734D01*
X885568Y4303325D01*
X885494Y4303399D01*
X885346Y4303473D01*
X885051Y4303694D01*
X884755Y4303990D01*
X884312Y4304286D01*
X883794Y4304729D01*
X883203Y4305247D01*
X882612Y4305838D01*
X882020Y4306503D01*
X881355Y4307168D01*
X880025Y4308868D01*
X878768Y4310864D01*
X877659Y4313082D01*
Y4313155D01*
X877512Y4313377D01*
X877438Y4313747D01*
X877216Y4314190D01*
X877068Y4314782D01*
X876846Y4315521D01*
X876551Y4316334D01*
X876329Y4317221D01*
X876107Y4318182D01*
X875812Y4319290D01*
X875442Y4321582D01*
X875146Y4324169D01*
X874999Y4326830D01*
Y4326903D01*
Y4327199D01*
Y4327643D01*
X875072Y4328160D01*
Y4328899D01*
X875146Y4329638D01*
X875220Y4330599D01*
X875368Y4331560D01*
X875738Y4333704D01*
X876255Y4336069D01*
X876994Y4338434D01*
X878029Y4340725D01*
X878103Y4340799D01*
X878177Y4341021D01*
X878325Y4341317D01*
X878620Y4341686D01*
X878916Y4342204D01*
X879286Y4342795D01*
X880246Y4344125D01*
X881503Y4345604D01*
X882981Y4347082D01*
X884681Y4348560D01*
X886677Y4349817D01*
X886751Y4349891D01*
X886973Y4349965D01*
X887268Y4350112D01*
X887638Y4350334D01*
X888229Y4350556D01*
X888820Y4350778D01*
X889560Y4351073D01*
X890373Y4351369D01*
X891260Y4351665D01*
X892220Y4351960D01*
X894290Y4352404D01*
X896655Y4352773D01*
X899094Y4352921D01*
X899834D01*
X900351Y4352847D01*
D02*
G37*
G36*
X949652Y4300886D02*
X943369D01*
Y4340873D01*
X943295Y4340799D01*
X942925Y4340504D01*
X942482Y4340060D01*
X941743Y4339543D01*
X940930Y4338878D01*
X939895Y4338138D01*
X938712Y4337325D01*
X937382Y4336512D01*
X937308D01*
X937234Y4336438D01*
X936791Y4336143D01*
X936051Y4335773D01*
X935164Y4335330D01*
X934130Y4334812D01*
X933021Y4334295D01*
X931912Y4333777D01*
X930804Y4333334D01*
Y4339395D01*
X930877D01*
X931025Y4339543D01*
X931321Y4339617D01*
X931691Y4339838D01*
X932134Y4340060D01*
X932651Y4340356D01*
X933908Y4341095D01*
X935386Y4341908D01*
X936865Y4342943D01*
X938417Y4344125D01*
X939969Y4345382D01*
X940043Y4345456D01*
X940117Y4345530D01*
X940338Y4345752D01*
X940634Y4345973D01*
X941299Y4346712D01*
X942186Y4347599D01*
X943073Y4348634D01*
X944034Y4349817D01*
X944847Y4350999D01*
X945586Y4352256D01*
X949652D01*
Y4300886D01*
D02*
G37*
G36*
X3692126Y1009999D02*
X3685844D01*
Y1049986D01*
X3685770Y1049912D01*
X3685400Y1049617D01*
X3684957Y1049173D01*
X3684217Y1048656D01*
X3683404Y1047991D01*
X3682370Y1047251D01*
X3681187Y1046438D01*
X3679856Y1045625D01*
X3679783D01*
X3679709Y1045551D01*
X3679265Y1045256D01*
X3678526Y1044886D01*
X3677639Y1044443D01*
X3676604Y1043925D01*
X3675496Y1043408D01*
X3674387Y1042890D01*
X3673278Y1042447D01*
Y1048508D01*
X3673352D01*
X3673500Y1048656D01*
X3673796Y1048730D01*
X3674165Y1048951D01*
X3674609Y1049173D01*
X3675126Y1049469D01*
X3676383Y1050208D01*
X3677861Y1051021D01*
X3679339Y1052056D01*
X3680891Y1053238D01*
X3682443Y1054495D01*
X3682517Y1054569D01*
X3682591Y1054643D01*
X3682813Y1054865D01*
X3683109Y1055086D01*
X3683774Y1055825D01*
X3684661Y1056712D01*
X3685548Y1057747D01*
X3686509Y1058930D01*
X3687322Y1060112D01*
X3688061Y1061369D01*
X3692126D01*
Y1009999D01*
D02*
G37*
G36*
X3643713Y1061073D02*
X3644304D01*
X3645634Y1060925D01*
X3647113Y1060778D01*
X3648665Y1060482D01*
X3650217Y1060112D01*
X3651621Y1059595D01*
X3651695D01*
X3651769Y1059521D01*
X3652213Y1059299D01*
X3652878Y1058930D01*
X3653617Y1058412D01*
X3654504Y1057747D01*
X3655465Y1056934D01*
X3656352Y1055899D01*
X3657165Y1054791D01*
X3657239Y1054643D01*
X3657461Y1054199D01*
X3657830Y1053608D01*
X3658200Y1052721D01*
X3658569Y1051686D01*
X3658939Y1050578D01*
X3659161Y1049321D01*
X3659234Y1048064D01*
Y1047917D01*
Y1047547D01*
X3659161Y1046882D01*
X3659013Y1046069D01*
X3658791Y1045108D01*
X3658421Y1044073D01*
X3657978Y1043038D01*
X3657387Y1041930D01*
X3657313Y1041782D01*
X3657091Y1041486D01*
X3656647Y1040895D01*
X3656056Y1040303D01*
X3655317Y1039564D01*
X3654430Y1038751D01*
X3653321Y1038012D01*
X3652065Y1037273D01*
X3652139D01*
X3652287Y1037199D01*
X3652508Y1037125D01*
X3652804Y1036977D01*
X3653691Y1036682D01*
X3654726Y1036164D01*
X3655834Y1035499D01*
X3657091Y1034686D01*
X3658200Y1033725D01*
X3659234Y1032543D01*
X3659308Y1032395D01*
X3659604Y1031951D01*
X3660048Y1031286D01*
X3660491Y1030399D01*
X3660935Y1029216D01*
X3661378Y1027960D01*
X3661674Y1026482D01*
X3661748Y1024855D01*
Y1024782D01*
Y1024708D01*
Y1024264D01*
X3661674Y1023525D01*
X3661526Y1022638D01*
X3661378Y1021603D01*
X3661082Y1020495D01*
X3660713Y1019312D01*
X3660195Y1018129D01*
X3660121Y1017981D01*
X3659900Y1017612D01*
X3659604Y1017094D01*
X3659161Y1016355D01*
X3658569Y1015616D01*
X3657978Y1014803D01*
X3657239Y1013990D01*
X3656426Y1013325D01*
X3656352Y1013251D01*
X3656056Y1013029D01*
X3655539Y1012734D01*
X3654874Y1012438D01*
X3654061Y1011994D01*
X3653100Y1011551D01*
X3652065Y1011181D01*
X3650808Y1010812D01*
X3650660D01*
X3650217Y1010664D01*
X3649478Y1010590D01*
X3648517Y1010442D01*
X3647334Y1010294D01*
X3645930Y1010147D01*
X3644378Y1010073D01*
X3642604Y1009999D01*
X3623091D01*
Y1061147D01*
X3643195D01*
X3643713Y1061073D01*
D02*
G37*
G36*
X3614590Y1055086D02*
X3586799D01*
Y1039269D01*
X3610821D01*
Y1033208D01*
X3586799D01*
Y1009999D01*
X3579999D01*
Y1061147D01*
X3614590D01*
Y1055086D01*
D02*
G37*
G36*
X1837382Y299926D02*
X1838048D01*
X1838861Y299852D01*
X1839748Y299704D01*
X1840782Y299556D01*
X1842926Y299187D01*
X1845143Y298596D01*
X1847361Y297782D01*
X1848396Y297265D01*
X1849430Y296674D01*
X1849504Y296600D01*
X1849652Y296526D01*
X1849948Y296304D01*
X1850243Y296009D01*
X1850687Y295713D01*
X1851204Y295269D01*
X1851796Y294752D01*
X1852387Y294161D01*
X1852978Y293495D01*
X1853643Y292830D01*
X1854974Y291130D01*
X1856230Y289135D01*
X1857339Y286917D01*
Y286843D01*
X1857487Y286621D01*
X1857561Y286252D01*
X1857783Y285808D01*
X1857930Y285217D01*
X1858152Y284478D01*
X1858448Y283665D01*
X1858670Y282778D01*
X1858891Y281817D01*
X1859187Y280708D01*
X1859557Y278417D01*
X1859852Y275830D01*
X1860000Y273169D01*
Y273095D01*
Y272800D01*
Y272356D01*
X1859926Y271839D01*
Y271100D01*
X1859852Y270360D01*
X1859778Y269400D01*
X1859631Y268439D01*
X1859261Y266295D01*
X1858744Y263930D01*
X1858004Y261565D01*
X1856970Y259273D01*
X1856896Y259199D01*
X1856822Y258978D01*
X1856674Y258682D01*
X1856378Y258312D01*
X1856083Y257795D01*
X1855713Y257204D01*
X1854752Y255873D01*
X1853496Y254395D01*
X1852017Y252917D01*
X1850317Y251438D01*
X1848322Y250182D01*
X1848248Y250108D01*
X1848026Y250034D01*
X1847730Y249886D01*
X1847361Y249664D01*
X1846769Y249443D01*
X1846178Y249221D01*
X1845439Y248925D01*
X1844626Y248630D01*
X1843739Y248334D01*
X1842778Y248038D01*
X1840709Y247595D01*
X1838343Y247225D01*
X1835904Y247077D01*
X1835165D01*
X1834648Y247151D01*
X1833982Y247225D01*
X1833169Y247299D01*
X1832356Y247373D01*
X1831395Y247595D01*
X1829400Y248038D01*
X1827182Y248704D01*
X1826074Y249147D01*
X1825039Y249664D01*
X1824004Y250330D01*
X1822969Y250995D01*
X1822895Y251069D01*
X1822747Y251143D01*
X1822452Y251364D01*
X1822082Y251734D01*
X1821713Y252104D01*
X1821195Y252621D01*
X1820678Y253212D01*
X1820087Y253804D01*
X1819495Y254543D01*
X1818904Y255430D01*
X1818239Y256317D01*
X1817647Y257278D01*
X1817130Y258386D01*
X1816539Y259495D01*
X1816095Y260678D01*
X1815652Y262008D01*
X1822304Y263560D01*
Y263486D01*
X1822378Y263339D01*
X1822526Y263043D01*
X1822674Y262673D01*
X1822821Y262230D01*
X1823043Y261639D01*
X1823634Y260456D01*
X1824374Y259125D01*
X1825261Y257795D01*
X1826369Y256538D01*
X1827552Y255430D01*
X1827700Y255282D01*
X1828143Y254986D01*
X1828882Y254617D01*
X1829843Y254099D01*
X1831100Y253656D01*
X1832504Y253212D01*
X1834204Y252917D01*
X1836052Y252843D01*
X1836643D01*
X1837013Y252917D01*
X1837530D01*
X1838122Y252991D01*
X1839526Y253212D01*
X1841078Y253508D01*
X1842704Y254025D01*
X1844404Y254765D01*
X1845956Y255725D01*
X1846030D01*
X1846104Y255873D01*
X1846622Y256243D01*
X1847287Y256834D01*
X1848100Y257721D01*
X1849061Y258830D01*
X1849948Y260086D01*
X1850761Y261639D01*
X1851500Y263339D01*
Y263412D01*
X1851574Y263560D01*
X1851648Y263782D01*
X1851722Y264152D01*
X1851870Y264595D01*
X1852017Y265112D01*
X1852239Y266369D01*
X1852535Y267847D01*
X1852830Y269473D01*
X1852978Y271247D01*
X1853052Y273169D01*
Y273243D01*
Y273465D01*
Y273834D01*
Y274278D01*
X1852978Y274795D01*
Y275460D01*
X1852904Y276200D01*
X1852830Y277013D01*
X1852609Y278787D01*
X1852239Y280708D01*
X1851796Y282630D01*
X1851204Y284552D01*
Y284626D01*
X1851130Y284774D01*
X1850983Y284995D01*
X1850835Y285365D01*
X1850391Y286252D01*
X1849726Y287287D01*
X1848913Y288469D01*
X1847878Y289726D01*
X1846696Y290835D01*
X1845291Y291869D01*
X1845217D01*
X1845069Y291943D01*
X1844848Y292091D01*
X1844552Y292239D01*
X1844182Y292387D01*
X1843739Y292609D01*
X1842704Y293052D01*
X1841374Y293495D01*
X1839895Y293865D01*
X1838269Y294161D01*
X1836569Y294235D01*
X1836052D01*
X1835608Y294161D01*
X1835091D01*
X1834574Y294087D01*
X1833243Y293791D01*
X1831691Y293422D01*
X1830139Y292830D01*
X1828513Y292017D01*
X1827700Y291574D01*
X1826961Y290982D01*
X1826887Y290908D01*
X1826813Y290835D01*
X1826591Y290613D01*
X1826295Y290391D01*
X1826000Y290022D01*
X1825630Y289578D01*
X1825187Y289135D01*
X1824817Y288543D01*
X1824374Y287878D01*
X1823856Y287139D01*
X1823413Y286400D01*
X1822969Y285513D01*
X1822600Y284552D01*
X1822230Y283517D01*
X1821860Y282408D01*
X1821565Y281226D01*
X1814765Y282926D01*
Y283000D01*
X1814839Y283295D01*
X1814986Y283739D01*
X1815208Y284330D01*
X1815430Y284995D01*
X1815726Y285808D01*
X1816095Y286695D01*
X1816539Y287656D01*
X1817573Y289726D01*
X1818904Y291795D01*
X1819717Y292830D01*
X1820530Y293865D01*
X1821417Y294752D01*
X1822452Y295639D01*
X1822526Y295713D01*
X1822674Y295861D01*
X1823043Y296009D01*
X1823413Y296304D01*
X1824004Y296674D01*
X1824595Y297043D01*
X1825408Y297413D01*
X1826221Y297782D01*
X1827182Y298226D01*
X1828217Y298596D01*
X1829326Y298965D01*
X1830508Y299335D01*
X1831765Y299630D01*
X1833095Y299778D01*
X1834500Y299926D01*
X1835978Y300000D01*
X1836791D01*
X1837382Y299926D01*
D02*
G37*
G36*
X1791630Y259125D02*
X1791704Y259199D01*
X1792073Y259495D01*
X1792517Y259939D01*
X1793256Y260456D01*
X1794069Y261121D01*
X1795104Y261860D01*
X1796286Y262673D01*
X1797617Y263486D01*
X1797691D01*
X1797765Y263560D01*
X1798208Y263856D01*
X1798947Y264226D01*
X1799834Y264669D01*
X1800869Y265186D01*
X1801978Y265704D01*
X1803086Y266221D01*
X1804195Y266665D01*
Y260604D01*
X1804121D01*
X1803973Y260456D01*
X1803678Y260382D01*
X1803308Y260160D01*
X1802865Y259939D01*
X1802347Y259643D01*
X1801091Y258904D01*
X1799612Y258091D01*
X1798134Y257056D01*
X1796582Y255873D01*
X1795030Y254617D01*
X1794956Y254543D01*
X1794882Y254469D01*
X1794660Y254247D01*
X1794364Y254025D01*
X1793699Y253286D01*
X1792812Y252399D01*
X1791925Y251364D01*
X1790964Y250182D01*
X1790151Y248999D01*
X1789412Y247743D01*
X1785347D01*
Y299113D01*
X1791630D01*
Y259125D01*
D02*
G37*
G36*
X1770121Y299039D02*
Y298743D01*
Y298300D01*
X1770047Y297709D01*
X1769973Y297043D01*
X1769825Y296304D01*
X1769677Y295565D01*
X1769382Y294752D01*
Y294678D01*
X1769308Y294604D01*
X1769160Y294161D01*
X1768864Y293495D01*
X1768421Y292609D01*
X1767829Y291574D01*
X1767090Y290391D01*
X1766277Y289208D01*
X1765242Y287952D01*
Y287878D01*
X1765095Y287804D01*
X1764725Y287361D01*
X1764060Y286695D01*
X1763099Y285735D01*
X1761990Y284626D01*
X1760586Y283295D01*
X1758886Y281817D01*
X1757038Y280265D01*
X1756964Y280191D01*
X1756668Y279969D01*
X1756225Y279600D01*
X1755707Y279156D01*
X1755042Y278565D01*
X1754229Y277900D01*
X1753416Y277160D01*
X1752455Y276347D01*
X1750607Y274573D01*
X1748760Y272800D01*
X1747873Y271913D01*
X1747059Y271026D01*
X1746320Y270213D01*
X1745729Y269400D01*
Y269326D01*
X1745581Y269252D01*
X1745433Y269030D01*
X1745286Y268734D01*
X1744768Y267921D01*
X1744177Y266960D01*
X1743659Y265778D01*
X1743142Y264521D01*
X1742846Y263117D01*
X1742699Y261786D01*
Y261712D01*
Y261639D01*
X1742772Y261195D01*
X1742846Y260456D01*
X1743068Y259643D01*
X1743364Y258608D01*
X1743881Y257573D01*
X1744546Y256538D01*
X1745433Y255504D01*
X1745581Y255356D01*
X1745951Y255060D01*
X1746468Y254691D01*
X1747281Y254173D01*
X1748316Y253730D01*
X1749499Y253286D01*
X1750903Y252991D01*
X1752455Y252917D01*
X1752899D01*
X1753194Y252991D01*
X1754081Y253065D01*
X1755116Y253286D01*
X1756225Y253582D01*
X1757481Y254099D01*
X1758664Y254765D01*
X1759773Y255652D01*
X1759921Y255799D01*
X1760216Y256169D01*
X1760660Y256760D01*
X1761103Y257647D01*
X1761621Y258682D01*
X1762064Y260012D01*
X1762360Y261491D01*
X1762508Y263191D01*
X1768938Y262526D01*
Y262452D01*
X1768864Y262230D01*
Y261860D01*
X1768790Y261343D01*
X1768642Y260752D01*
X1768495Y260086D01*
X1768273Y259273D01*
X1768051Y258460D01*
X1767460Y256686D01*
X1766573Y254912D01*
X1766055Y254025D01*
X1765390Y253138D01*
X1764725Y252325D01*
X1763986Y251586D01*
X1763912Y251512D01*
X1763764Y251438D01*
X1763542Y251217D01*
X1763173Y250995D01*
X1762729Y250699D01*
X1762212Y250404D01*
X1761621Y250034D01*
X1760881Y249664D01*
X1760068Y249295D01*
X1759181Y248925D01*
X1758221Y248630D01*
X1757186Y248334D01*
X1756077Y248112D01*
X1754894Y247891D01*
X1753638Y247817D01*
X1752307Y247743D01*
X1751568D01*
X1751051Y247817D01*
X1750460Y247891D01*
X1749720Y247964D01*
X1748907Y248112D01*
X1748094Y248260D01*
X1746173Y248778D01*
X1744251Y249517D01*
X1743290Y249960D01*
X1742329Y250478D01*
X1741442Y251143D01*
X1740629Y251882D01*
X1740555Y251956D01*
X1740407Y252030D01*
X1740259Y252325D01*
X1739964Y252621D01*
X1739594Y252991D01*
X1739225Y253508D01*
X1738855Y254025D01*
X1738412Y254691D01*
X1737672Y256095D01*
X1736933Y257869D01*
X1736638Y258756D01*
X1736490Y259791D01*
X1736342Y260825D01*
X1736268Y261934D01*
Y262082D01*
Y262452D01*
X1736342Y263043D01*
X1736416Y263856D01*
X1736564Y264743D01*
X1736859Y265778D01*
X1737155Y266886D01*
X1737599Y267995D01*
X1737672Y268143D01*
X1737820Y268513D01*
X1738116Y269104D01*
X1738559Y269917D01*
X1739151Y270804D01*
X1739890Y271913D01*
X1740777Y273021D01*
X1741812Y274278D01*
X1741959Y274426D01*
X1742329Y274869D01*
X1742699Y275239D01*
X1743068Y275608D01*
X1743512Y276052D01*
X1744103Y276643D01*
X1744694Y277234D01*
X1745433Y277900D01*
X1746173Y278639D01*
X1747059Y279452D01*
X1748020Y280265D01*
X1749055Y281226D01*
X1750238Y282187D01*
X1751420Y283221D01*
X1751494Y283295D01*
X1751642Y283443D01*
X1751938Y283665D01*
X1752307Y283961D01*
X1752751Y284404D01*
X1753268Y284848D01*
X1754451Y285808D01*
X1755707Y286917D01*
X1756890Y288026D01*
X1757925Y288987D01*
X1758368Y289356D01*
X1758738Y289726D01*
X1758812Y289800D01*
X1759034Y290022D01*
X1759329Y290317D01*
X1759699Y290761D01*
X1760068Y291278D01*
X1760512Y291795D01*
X1761399Y293052D01*
X1736194D01*
Y299113D01*
X1770121D01*
Y299039D01*
D02*
G37*
G36*
X2347853Y352849D02*
X2348518Y352775D01*
X2349331Y352701D01*
X2350144Y352627D01*
X2351105Y352405D01*
X2353100Y351962D01*
X2355318Y351296D01*
X2356427Y350853D01*
X2357461Y350336D01*
X2358496Y349670D01*
X2359531Y349005D01*
X2359605Y348931D01*
X2359753Y348857D01*
X2360048Y348636D01*
X2360418Y348266D01*
X2360788Y347896D01*
X2361305Y347379D01*
X2361822Y346788D01*
X2362414Y346196D01*
X2363005Y345457D01*
X2363596Y344570D01*
X2364261Y343683D01*
X2364853Y342722D01*
X2365370Y341614D01*
X2365961Y340505D01*
X2366405Y339322D01*
X2366848Y337992D01*
X2360196Y336440D01*
Y336514D01*
X2360122Y336662D01*
X2359974Y336957D01*
X2359827Y337327D01*
X2359679Y337770D01*
X2359457Y338362D01*
X2358866Y339544D01*
X2358127Y340875D01*
X2357240Y342205D01*
X2356131Y343462D01*
X2354948Y344570D01*
X2354800Y344718D01*
X2354357Y345014D01*
X2353618Y345383D01*
X2352657Y345901D01*
X2351400Y346344D01*
X2349996Y346788D01*
X2348296Y347083D01*
X2346448Y347157D01*
X2345857D01*
X2345487Y347083D01*
X2344970D01*
X2344379Y347009D01*
X2342974Y346788D01*
X2341422Y346492D01*
X2339796Y345975D01*
X2338096Y345236D01*
X2336544Y344275D01*
X2336470D01*
X2336396Y344127D01*
X2335878Y343757D01*
X2335213Y343166D01*
X2334400Y342279D01*
X2333439Y341170D01*
X2332552Y339914D01*
X2331739Y338362D01*
X2331000Y336662D01*
Y336588D01*
X2330926Y336440D01*
X2330852Y336218D01*
X2330778Y335848D01*
X2330631Y335405D01*
X2330483Y334888D01*
X2330261Y333631D01*
X2329965Y332153D01*
X2329670Y330527D01*
X2329522Y328753D01*
X2329448Y326831D01*
Y326757D01*
Y326535D01*
Y326166D01*
Y325722D01*
X2329522Y325205D01*
Y324540D01*
X2329596Y323800D01*
X2329670Y322987D01*
X2329891Y321213D01*
X2330261Y319292D01*
X2330705Y317370D01*
X2331296Y315448D01*
Y315374D01*
X2331370Y315226D01*
X2331518Y315005D01*
X2331665Y314635D01*
X2332109Y313748D01*
X2332774Y312713D01*
X2333587Y311531D01*
X2334622Y310274D01*
X2335805Y309165D01*
X2337209Y308131D01*
X2337283D01*
X2337431Y308057D01*
X2337652Y307909D01*
X2337948Y307761D01*
X2338318Y307613D01*
X2338761Y307392D01*
X2339796Y306948D01*
X2341126Y306505D01*
X2342605Y306135D01*
X2344231Y305839D01*
X2345931Y305765D01*
X2346448D01*
X2346892Y305839D01*
X2347409D01*
X2347926Y305913D01*
X2349257Y306209D01*
X2350809Y306579D01*
X2352361Y307170D01*
X2353987Y307983D01*
X2354800Y308426D01*
X2355540Y309018D01*
X2355614Y309092D01*
X2355687Y309165D01*
X2355909Y309387D01*
X2356205Y309609D01*
X2356500Y309979D01*
X2356870Y310422D01*
X2357314Y310866D01*
X2357683Y311457D01*
X2358127Y312122D01*
X2358644Y312861D01*
X2359087Y313600D01*
X2359531Y314487D01*
X2359901Y315448D01*
X2360270Y316483D01*
X2360640Y317592D01*
X2360935Y318774D01*
X2367735Y317074D01*
Y317000D01*
X2367662Y316705D01*
X2367514Y316261D01*
X2367292Y315670D01*
X2367070Y315005D01*
X2366775Y314192D01*
X2366405Y313305D01*
X2365961Y312344D01*
X2364927Y310274D01*
X2363596Y308205D01*
X2362783Y307170D01*
X2361970Y306135D01*
X2361083Y305248D01*
X2360048Y304361D01*
X2359974Y304287D01*
X2359827Y304139D01*
X2359457Y303992D01*
X2359087Y303696D01*
X2358496Y303326D01*
X2357905Y302957D01*
X2357092Y302587D01*
X2356279Y302218D01*
X2355318Y301774D01*
X2354283Y301405D01*
X2353174Y301035D01*
X2351992Y300665D01*
X2350735Y300370D01*
X2349405Y300222D01*
X2348000Y300074D01*
X2346522Y300000D01*
X2345709D01*
X2345118Y300074D01*
X2344453D01*
X2343639Y300148D01*
X2342752Y300296D01*
X2341718Y300444D01*
X2339574Y300813D01*
X2337357Y301405D01*
X2335139Y302218D01*
X2334105Y302735D01*
X2333070Y303326D01*
X2332996Y303400D01*
X2332848Y303474D01*
X2332552Y303696D01*
X2332257Y303992D01*
X2331813Y304287D01*
X2331296Y304731D01*
X2330705Y305248D01*
X2330113Y305839D01*
X2329522Y306505D01*
X2328857Y307170D01*
X2327526Y308870D01*
X2326270Y310866D01*
X2325161Y313083D01*
Y313157D01*
X2325013Y313379D01*
X2324939Y313748D01*
X2324717Y314192D01*
X2324570Y314783D01*
X2324348Y315522D01*
X2324052Y316335D01*
X2323831Y317222D01*
X2323609Y318183D01*
X2323313Y319292D01*
X2322944Y321583D01*
X2322648Y324170D01*
X2322500Y326831D01*
Y326905D01*
Y327201D01*
Y327644D01*
X2322574Y328161D01*
Y328901D01*
X2322648Y329640D01*
X2322722Y330601D01*
X2322870Y331561D01*
X2323239Y333705D01*
X2323757Y336070D01*
X2324496Y338435D01*
X2325531Y340727D01*
X2325604Y340801D01*
X2325678Y341022D01*
X2325826Y341318D01*
X2326122Y341688D01*
X2326417Y342205D01*
X2326787Y342796D01*
X2327748Y344127D01*
X2329004Y345605D01*
X2330483Y347083D01*
X2332183Y348562D01*
X2334178Y349818D01*
X2334252Y349892D01*
X2334474Y349966D01*
X2334770Y350114D01*
X2335139Y350336D01*
X2335731Y350557D01*
X2336322Y350779D01*
X2337061Y351075D01*
X2337874Y351370D01*
X2338761Y351666D01*
X2339722Y351962D01*
X2341792Y352405D01*
X2344157Y352775D01*
X2346596Y352923D01*
X2347335D01*
X2347853Y352849D01*
D02*
G37*
G36*
X2436919Y300887D02*
X2430636D01*
Y340875D01*
X2430562Y340801D01*
X2430193Y340505D01*
X2429749Y340062D01*
X2429010Y339544D01*
X2428197Y338879D01*
X2427162Y338140D01*
X2425980Y337327D01*
X2424649Y336514D01*
X2424575D01*
X2424501Y336440D01*
X2424058Y336144D01*
X2423319Y335775D01*
X2422432Y335331D01*
X2421397Y334814D01*
X2420288Y334296D01*
X2419180Y333779D01*
X2418071Y333335D01*
Y339396D01*
X2418145D01*
X2418293Y339544D01*
X2418588Y339618D01*
X2418958Y339840D01*
X2419401Y340062D01*
X2419919Y340357D01*
X2421175Y341096D01*
X2422654Y341909D01*
X2424132Y342944D01*
X2425684Y344127D01*
X2427236Y345383D01*
X2427310Y345457D01*
X2427384Y345531D01*
X2427606Y345753D01*
X2427901Y345975D01*
X2428567Y346714D01*
X2429454Y347601D01*
X2430341Y348636D01*
X2431301Y349818D01*
X2432115Y351001D01*
X2432854Y352257D01*
X2436919D01*
Y300887D01*
D02*
G37*
G36*
X2397153D02*
X2390871D01*
Y340875D01*
X2390797Y340801D01*
X2390427Y340505D01*
X2389984Y340062D01*
X2389244Y339544D01*
X2388431Y338879D01*
X2387397Y338140D01*
X2386214Y337327D01*
X2384883Y336514D01*
X2384810D01*
X2384736Y336440D01*
X2384292Y336144D01*
X2383553Y335775D01*
X2382666Y335331D01*
X2381631Y334814D01*
X2380523Y334296D01*
X2379414Y333779D01*
X2378305Y333335D01*
Y339396D01*
X2378379D01*
X2378527Y339544D01*
X2378823Y339618D01*
X2379192Y339840D01*
X2379636Y340062D01*
X2380153Y340357D01*
X2381410Y341096D01*
X2382888Y341909D01*
X2384366Y342944D01*
X2385918Y344127D01*
X2387470Y345383D01*
X2387544Y345457D01*
X2387618Y345531D01*
X2387840Y345753D01*
X2388136Y345975D01*
X2388801Y346714D01*
X2389688Y347601D01*
X2390575Y348636D01*
X2391536Y349818D01*
X2392349Y351001D01*
X2393088Y352257D01*
X2397153D01*
Y300887D01*
D02*
G37*
G36*
X3052637Y1224484D02*
X3053081D01*
X3054263Y1224262D01*
X3055667Y1224040D01*
X3057146Y1223671D01*
X3058772Y1223154D01*
X3060324Y1222414D01*
X3060398D01*
X3060472Y1222340D01*
X3060694Y1222193D01*
X3060989Y1222045D01*
X3061728Y1221601D01*
X3062689Y1220936D01*
X3063724Y1220123D01*
X3064759Y1219162D01*
X3065794Y1217980D01*
X3066681Y1216723D01*
Y1216649D01*
X3066755Y1216575D01*
X3066902Y1216353D01*
X3066976Y1216058D01*
X3067346Y1215319D01*
X3067715Y1214358D01*
X3068159Y1213101D01*
X3068455Y1211697D01*
X3068750Y1210145D01*
X3068824Y1208445D01*
Y1208075D01*
X3068750Y1207705D01*
Y1207114D01*
X3068676Y1206449D01*
X3068529Y1205710D01*
X3068307Y1204823D01*
X3068085Y1203936D01*
X3067789Y1202901D01*
X3067420Y1201866D01*
X3066976Y1200831D01*
X3066385Y1199723D01*
X3065720Y1198688D01*
X3064981Y1197653D01*
X3064094Y1196618D01*
X3063059Y1195658D01*
X3062985Y1195584D01*
X3062763Y1195436D01*
X3062468Y1195214D01*
X3061950Y1194918D01*
X3061285Y1194475D01*
X3060546Y1194105D01*
X3059585Y1193662D01*
X3058550Y1193218D01*
X3057294Y1192701D01*
X3055889Y1192257D01*
X3054337Y1191888D01*
X3052637Y1191518D01*
X3050715Y1191149D01*
X3048646Y1190927D01*
X3046428Y1190779D01*
X3044063Y1190705D01*
X3043989D01*
X3043915D01*
X3043693D01*
X3043398D01*
X3042659Y1190779D01*
X3041624D01*
X3040441Y1190853D01*
X3039037Y1191001D01*
X3037485Y1191149D01*
X3035785Y1191370D01*
X3034085Y1191666D01*
X3032237Y1192036D01*
X3030463Y1192479D01*
X3028689Y1192997D01*
X3026989Y1193662D01*
X3025363Y1194401D01*
X3023811Y1195214D01*
X3022480Y1196175D01*
X3022406Y1196249D01*
X3022258Y1196397D01*
X3021963Y1196692D01*
X3021519Y1197062D01*
X3021076Y1197505D01*
X3020632Y1198097D01*
X3020041Y1198836D01*
X3019524Y1199575D01*
X3019006Y1200462D01*
X3018415Y1201423D01*
X3017971Y1202532D01*
X3017454Y1203640D01*
X3017084Y1204897D01*
X3016789Y1206227D01*
X3016641Y1207632D01*
X3016567Y1209110D01*
Y1209701D01*
X3016641Y1210145D01*
Y1210662D01*
X3016715Y1211253D01*
X3017010Y1212658D01*
X3017380Y1214210D01*
X3017971Y1215836D01*
X3018858Y1217462D01*
X3019376Y1218275D01*
X3019967Y1219014D01*
X3020041Y1219088D01*
X3020115Y1219162D01*
X3020337Y1219384D01*
X3020558Y1219606D01*
X3020928Y1219975D01*
X3021371Y1220271D01*
X3022406Y1221084D01*
X3023737Y1221897D01*
X3025363Y1222636D01*
X3027211Y1223301D01*
X3029280Y1223745D01*
X3029798Y1217462D01*
X3029724D01*
X3029650Y1217388D01*
X3029206Y1217314D01*
X3028541Y1217093D01*
X3027728Y1216797D01*
X3026841Y1216501D01*
X3025954Y1216058D01*
X3025141Y1215540D01*
X3024476Y1215023D01*
X3024328Y1214875D01*
X3024032Y1214579D01*
X3023589Y1214062D01*
X3023071Y1213323D01*
X3022628Y1212362D01*
X3022184Y1211327D01*
X3021889Y1210071D01*
X3021741Y1208740D01*
Y1208223D01*
X3021815Y1207632D01*
X3021963Y1206966D01*
X3022184Y1206079D01*
X3022480Y1205192D01*
X3022850Y1204305D01*
X3023441Y1203418D01*
X3023515Y1203271D01*
X3023811Y1202901D01*
X3024328Y1202384D01*
X3025067Y1201718D01*
X3025954Y1200979D01*
X3026989Y1200166D01*
X3028319Y1199427D01*
X3029798Y1198688D01*
X3029872D01*
X3030019Y1198614D01*
X3030241Y1198540D01*
X3030537Y1198392D01*
X3030980Y1198318D01*
X3031498Y1198171D01*
X3032089Y1198023D01*
X3032828Y1197875D01*
X3033641Y1197653D01*
X3034528Y1197505D01*
X3035489Y1197358D01*
X3036524Y1197284D01*
X3037706Y1197136D01*
X3038889Y1197062D01*
X3040219Y1196988D01*
X3041550D01*
X3041476Y1197062D01*
X3041033Y1197358D01*
X3040441Y1197875D01*
X3039702Y1198540D01*
X3038815Y1199279D01*
X3038002Y1200240D01*
X3037189Y1201275D01*
X3036450Y1202458D01*
Y1202532D01*
X3036376Y1202605D01*
X3036154Y1203049D01*
X3035932Y1203714D01*
X3035563Y1204601D01*
X3035267Y1205636D01*
X3035045Y1206819D01*
X3034824Y1208075D01*
X3034750Y1209406D01*
Y1209997D01*
X3034824Y1210440D01*
X3034898Y1211032D01*
X3034972Y1211623D01*
X3035119Y1212362D01*
X3035341Y1213101D01*
X3035859Y1214801D01*
X3036228Y1215688D01*
X3036746Y1216575D01*
X3037263Y1217462D01*
X3037854Y1218423D01*
X3038593Y1219310D01*
X3039406Y1220123D01*
X3039480Y1220197D01*
X3039628Y1220345D01*
X3039850Y1220567D01*
X3040219Y1220788D01*
X3040737Y1221158D01*
X3041254Y1221527D01*
X3041919Y1221897D01*
X3042659Y1222340D01*
X3043472Y1222784D01*
X3044359Y1223154D01*
X3045393Y1223523D01*
X3046428Y1223893D01*
X3047537Y1224114D01*
X3048793Y1224336D01*
X3050050Y1224484D01*
X3051380Y1224558D01*
X3051454D01*
X3051602D01*
X3051824D01*
X3052194D01*
X3052637Y1224484D01*
D02*
G37*
G36*
X3052120Y1185162D02*
X3052563Y1185014D01*
X3053154Y1184792D01*
X3053820Y1184570D01*
X3054633Y1184275D01*
X3055520Y1183905D01*
X3056481Y1183462D01*
X3058550Y1182427D01*
X3060620Y1181096D01*
X3061655Y1180283D01*
X3062689Y1179470D01*
X3063576Y1178583D01*
X3064463Y1177549D01*
X3064537Y1177475D01*
X3064685Y1177327D01*
X3064833Y1176957D01*
X3065128Y1176588D01*
X3065498Y1175996D01*
X3065868Y1175405D01*
X3066237Y1174592D01*
X3066607Y1173779D01*
X3067050Y1172818D01*
X3067420Y1171783D01*
X3067789Y1170675D01*
X3068159Y1169492D01*
X3068455Y1168235D01*
X3068602Y1166905D01*
X3068750Y1165501D01*
X3068824Y1164022D01*
Y1163209D01*
X3068750Y1162618D01*
Y1161953D01*
X3068676Y1161140D01*
X3068529Y1160253D01*
X3068381Y1159218D01*
X3068011Y1157074D01*
X3067420Y1154857D01*
X3066607Y1152640D01*
X3066089Y1151605D01*
X3065498Y1150570D01*
X3065424Y1150496D01*
X3065350Y1150348D01*
X3065128Y1150053D01*
X3064833Y1149757D01*
X3064537Y1149313D01*
X3064094Y1148796D01*
X3063576Y1148205D01*
X3062985Y1147613D01*
X3062320Y1147022D01*
X3061655Y1146357D01*
X3059955Y1145026D01*
X3057959Y1143770D01*
X3055741Y1142661D01*
X3055667D01*
X3055446Y1142513D01*
X3055076Y1142439D01*
X3054633Y1142218D01*
X3054041Y1142070D01*
X3053302Y1141848D01*
X3052489Y1141552D01*
X3051602Y1141331D01*
X3050641Y1141109D01*
X3049533Y1140813D01*
X3047241Y1140444D01*
X3044654Y1140148D01*
X3041993Y1140000D01*
X3041919D01*
X3041624D01*
X3041180D01*
X3040663Y1140074D01*
X3039924D01*
X3039185Y1140148D01*
X3038224Y1140222D01*
X3037263Y1140370D01*
X3035119Y1140739D01*
X3032754Y1141257D01*
X3030389Y1141996D01*
X3028098Y1143031D01*
X3028024Y1143105D01*
X3027802Y1143179D01*
X3027506Y1143326D01*
X3027137Y1143622D01*
X3026619Y1143918D01*
X3026028Y1144287D01*
X3024698Y1145248D01*
X3023219Y1146505D01*
X3021741Y1147983D01*
X3020263Y1149683D01*
X3019006Y1151679D01*
X3018932Y1151753D01*
X3018858Y1151974D01*
X3018710Y1152270D01*
X3018489Y1152640D01*
X3018267Y1153231D01*
X3018045Y1153822D01*
X3017750Y1154561D01*
X3017454Y1155374D01*
X3017158Y1156261D01*
X3016863Y1157222D01*
X3016419Y1159292D01*
X3016050Y1161657D01*
X3015902Y1164096D01*
Y1164835D01*
X3015976Y1165353D01*
X3016050Y1166018D01*
X3016124Y1166831D01*
X3016197Y1167644D01*
X3016419Y1168605D01*
X3016863Y1170601D01*
X3017528Y1172818D01*
X3017971Y1173927D01*
X3018489Y1174962D01*
X3019154Y1175996D01*
X3019819Y1177031D01*
X3019893Y1177105D01*
X3019967Y1177253D01*
X3020189Y1177549D01*
X3020558Y1177918D01*
X3020928Y1178288D01*
X3021445Y1178805D01*
X3022037Y1179323D01*
X3022628Y1179914D01*
X3023367Y1180505D01*
X3024254Y1181096D01*
X3025141Y1181762D01*
X3026102Y1182353D01*
X3027211Y1182870D01*
X3028319Y1183462D01*
X3029502Y1183905D01*
X3030832Y1184349D01*
X3032385Y1177696D01*
X3032311D01*
X3032163Y1177622D01*
X3031867Y1177475D01*
X3031498Y1177327D01*
X3031054Y1177179D01*
X3030463Y1176957D01*
X3029280Y1176366D01*
X3027950Y1175627D01*
X3026619Y1174740D01*
X3025363Y1173631D01*
X3024254Y1172449D01*
X3024106Y1172301D01*
X3023811Y1171857D01*
X3023441Y1171118D01*
X3022924Y1170157D01*
X3022480Y1168901D01*
X3022037Y1167496D01*
X3021741Y1165796D01*
X3021667Y1163948D01*
Y1163357D01*
X3021741Y1162988D01*
Y1162470D01*
X3021815Y1161879D01*
X3022037Y1160474D01*
X3022332Y1158922D01*
X3022850Y1157296D01*
X3023589Y1155596D01*
X3024550Y1154044D01*
Y1153970D01*
X3024698Y1153896D01*
X3025067Y1153379D01*
X3025658Y1152713D01*
X3026545Y1151900D01*
X3027654Y1150940D01*
X3028911Y1150053D01*
X3030463Y1149240D01*
X3032163Y1148500D01*
X3032237D01*
X3032385Y1148426D01*
X3032606Y1148353D01*
X3032976Y1148279D01*
X3033419Y1148131D01*
X3033937Y1147983D01*
X3035193Y1147761D01*
X3036672Y1147466D01*
X3038298Y1147170D01*
X3040072Y1147022D01*
X3041993Y1146948D01*
X3042067D01*
X3042289D01*
X3042659D01*
X3043102D01*
X3043620Y1147022D01*
X3044285D01*
X3045024Y1147096D01*
X3045837Y1147170D01*
X3047611Y1147392D01*
X3049533Y1147761D01*
X3051454Y1148205D01*
X3053376Y1148796D01*
X3053450D01*
X3053598Y1148870D01*
X3053820Y1149018D01*
X3054189Y1149166D01*
X3055076Y1149609D01*
X3056111Y1150274D01*
X3057294Y1151087D01*
X3058550Y1152122D01*
X3059659Y1153305D01*
X3060694Y1154709D01*
Y1154783D01*
X3060768Y1154931D01*
X3060915Y1155153D01*
X3061063Y1155448D01*
X3061211Y1155818D01*
X3061433Y1156261D01*
X3061876Y1157296D01*
X3062320Y1158627D01*
X3062689Y1160105D01*
X3062985Y1161731D01*
X3063059Y1163431D01*
Y1163948D01*
X3062985Y1164392D01*
Y1164909D01*
X3062911Y1165427D01*
X3062615Y1166757D01*
X3062246Y1168309D01*
X3061655Y1169862D01*
X3060841Y1171488D01*
X3060398Y1172301D01*
X3059807Y1173040D01*
X3059733Y1173114D01*
X3059659Y1173188D01*
X3059437Y1173409D01*
X3059215Y1173705D01*
X3058846Y1174001D01*
X3058402Y1174370D01*
X3057959Y1174814D01*
X3057368Y1175183D01*
X3056702Y1175627D01*
X3055963Y1176144D01*
X3055224Y1176588D01*
X3054337Y1177031D01*
X3053376Y1177401D01*
X3052341Y1177770D01*
X3051233Y1178140D01*
X3050050Y1178436D01*
X3051750Y1185236D01*
X3051824D01*
X3052120Y1185162D01*
D02*
G37*
G36*
X3742480Y1794484D02*
X3742628Y1794336D01*
X3742924Y1794040D01*
X3743367Y1793745D01*
X3743885Y1793301D01*
X3744476Y1792710D01*
X3745215Y1792119D01*
X3746102Y1791453D01*
X3746989Y1790788D01*
X3748024Y1789975D01*
X3749206Y1789162D01*
X3750389Y1788349D01*
X3751719Y1787462D01*
X3753124Y1786575D01*
X3754676Y1785688D01*
X3756228Y1784801D01*
X3756302Y1784727D01*
X3756598Y1784579D01*
X3757041Y1784358D01*
X3757706Y1783988D01*
X3758520Y1783618D01*
X3759407Y1783175D01*
X3760441Y1782658D01*
X3761624Y1782140D01*
X3762954Y1781549D01*
X3764285Y1780884D01*
X3765763Y1780292D01*
X3767315Y1779701D01*
X3770494Y1778518D01*
X3773894Y1777410D01*
X3773968D01*
X3774189Y1777336D01*
X3774559Y1777262D01*
X3775002Y1777114D01*
X3775594Y1776966D01*
X3776333Y1776818D01*
X3777146Y1776597D01*
X3778033Y1776449D01*
X3779068Y1776227D01*
X3780176Y1776005D01*
X3782542Y1775636D01*
X3785129Y1775266D01*
X3787937Y1775044D01*
Y1768614D01*
X3787863D01*
X3787642D01*
X3787346D01*
X3786903Y1768688D01*
X3786311D01*
X3785572Y1768762D01*
X3784759Y1768836D01*
X3783872Y1768910D01*
X3782837Y1769057D01*
X3781802Y1769205D01*
X3780546Y1769427D01*
X3779289Y1769649D01*
X3777959Y1769870D01*
X3776481Y1770166D01*
X3773450Y1770905D01*
X3773376D01*
X3773081Y1770979D01*
X3772637Y1771127D01*
X3771972Y1771349D01*
X3771233Y1771570D01*
X3770346Y1771866D01*
X3769311Y1772162D01*
X3768202Y1772605D01*
X3766946Y1773049D01*
X3765689Y1773492D01*
X3762880Y1774601D01*
X3759924Y1775931D01*
X3756967Y1777410D01*
X3756893Y1777484D01*
X3756598Y1777631D01*
X3756228Y1777853D01*
X3755637Y1778149D01*
X3754972Y1778518D01*
X3754159Y1779036D01*
X3753272Y1779553D01*
X3752311Y1780145D01*
X3750167Y1781549D01*
X3747950Y1783027D01*
X3745658Y1784727D01*
X3743515Y1786501D01*
Y1761444D01*
X3737454D01*
Y1794558D01*
X3742406D01*
X3742480Y1794484D01*
D02*
G37*
G36*
X3772120Y1755162D02*
X3772563Y1755014D01*
X3773155Y1754792D01*
X3773820Y1754570D01*
X3774633Y1754275D01*
X3775520Y1753905D01*
X3776481Y1753462D01*
X3778550Y1752427D01*
X3780620Y1751096D01*
X3781655Y1750283D01*
X3782689Y1749470D01*
X3783576Y1748583D01*
X3784463Y1747548D01*
X3784537Y1747475D01*
X3784685Y1747327D01*
X3784833Y1746957D01*
X3785129Y1746588D01*
X3785498Y1745996D01*
X3785868Y1745405D01*
X3786237Y1744592D01*
X3786607Y1743779D01*
X3787050Y1742818D01*
X3787420Y1741783D01*
X3787789Y1740674D01*
X3788159Y1739492D01*
X3788455Y1738235D01*
X3788603Y1736905D01*
X3788750Y1735500D01*
X3788824Y1734022D01*
Y1733209D01*
X3788750Y1732618D01*
Y1731953D01*
X3788676Y1731140D01*
X3788529Y1730253D01*
X3788381Y1729218D01*
X3788011Y1727074D01*
X3787420Y1724857D01*
X3786607Y1722639D01*
X3786089Y1721605D01*
X3785498Y1720570D01*
X3785424Y1720496D01*
X3785350Y1720348D01*
X3785129Y1720052D01*
X3784833Y1719757D01*
X3784537Y1719313D01*
X3784094Y1718796D01*
X3783576Y1718205D01*
X3782985Y1717613D01*
X3782320Y1717022D01*
X3781655Y1716357D01*
X3779955Y1715026D01*
X3777959Y1713770D01*
X3775741Y1712661D01*
X3775668D01*
X3775446Y1712513D01*
X3775076Y1712439D01*
X3774633Y1712218D01*
X3774041Y1712070D01*
X3773302Y1711848D01*
X3772489Y1711552D01*
X3771602Y1711331D01*
X3770641Y1711109D01*
X3769533Y1710813D01*
X3767241Y1710444D01*
X3764654Y1710148D01*
X3761993Y1710000D01*
X3761920D01*
X3761624D01*
X3761180D01*
X3760663Y1710074D01*
X3759924D01*
X3759185Y1710148D01*
X3758224Y1710222D01*
X3757263Y1710370D01*
X3755119Y1710739D01*
X3752754Y1711257D01*
X3750389Y1711996D01*
X3748098Y1713031D01*
X3748024Y1713105D01*
X3747802Y1713178D01*
X3747506Y1713326D01*
X3747137Y1713622D01*
X3746619Y1713918D01*
X3746028Y1714287D01*
X3744698Y1715248D01*
X3743219Y1716505D01*
X3741741Y1717983D01*
X3740263Y1719683D01*
X3739006Y1721679D01*
X3738932Y1721752D01*
X3738858Y1721974D01*
X3738711Y1722270D01*
X3738489Y1722639D01*
X3738267Y1723231D01*
X3738045Y1723822D01*
X3737750Y1724561D01*
X3737454Y1725374D01*
X3737158Y1726261D01*
X3736863Y1727222D01*
X3736419Y1729292D01*
X3736050Y1731657D01*
X3735902Y1734096D01*
Y1734835D01*
X3735976Y1735353D01*
X3736050Y1736018D01*
X3736124Y1736831D01*
X3736198Y1737644D01*
X3736419Y1738605D01*
X3736863Y1740601D01*
X3737528Y1742818D01*
X3737971Y1743927D01*
X3738489Y1744961D01*
X3739154Y1745996D01*
X3739819Y1747031D01*
X3739893Y1747105D01*
X3739967Y1747253D01*
X3740189Y1747548D01*
X3740558Y1747918D01*
X3740928Y1748288D01*
X3741445Y1748805D01*
X3742037Y1749322D01*
X3742628Y1749914D01*
X3743367Y1750505D01*
X3744254Y1751096D01*
X3745141Y1751762D01*
X3746102Y1752353D01*
X3747211Y1752870D01*
X3748319Y1753462D01*
X3749502Y1753905D01*
X3750832Y1754349D01*
X3752385Y1747696D01*
X3752311D01*
X3752163Y1747622D01*
X3751867Y1747475D01*
X3751498Y1747327D01*
X3751054Y1747179D01*
X3750463Y1746957D01*
X3749280Y1746366D01*
X3747950Y1745627D01*
X3746619Y1744740D01*
X3745363Y1743631D01*
X3744254Y1742448D01*
X3744106Y1742301D01*
X3743811Y1741857D01*
X3743441Y1741118D01*
X3742924Y1740157D01*
X3742480Y1738901D01*
X3742037Y1737496D01*
X3741741Y1735796D01*
X3741667Y1733948D01*
Y1733357D01*
X3741741Y1732987D01*
Y1732470D01*
X3741815Y1731879D01*
X3742037Y1730474D01*
X3742332Y1728922D01*
X3742850Y1727296D01*
X3743589Y1725596D01*
X3744550Y1724044D01*
Y1723970D01*
X3744698Y1723896D01*
X3745067Y1723379D01*
X3745658Y1722713D01*
X3746545Y1721900D01*
X3747654Y1720939D01*
X3748911Y1720052D01*
X3750463Y1719239D01*
X3752163Y1718500D01*
X3752237D01*
X3752385Y1718426D01*
X3752606Y1718352D01*
X3752976Y1718279D01*
X3753419Y1718131D01*
X3753937Y1717983D01*
X3755193Y1717761D01*
X3756672Y1717465D01*
X3758298Y1717170D01*
X3760072Y1717022D01*
X3761993Y1716948D01*
X3762067D01*
X3762289D01*
X3762659D01*
X3763102D01*
X3763620Y1717022D01*
X3764285D01*
X3765024Y1717096D01*
X3765837Y1717170D01*
X3767611Y1717392D01*
X3769533Y1717761D01*
X3771454Y1718205D01*
X3773376Y1718796D01*
X3773450D01*
X3773598Y1718870D01*
X3773820Y1719018D01*
X3774189Y1719165D01*
X3775076Y1719609D01*
X3776111Y1720274D01*
X3777294Y1721087D01*
X3778550Y1722122D01*
X3779659Y1723305D01*
X3780694Y1724709D01*
Y1724783D01*
X3780768Y1724931D01*
X3780915Y1725153D01*
X3781063Y1725448D01*
X3781211Y1725818D01*
X3781433Y1726261D01*
X3781876Y1727296D01*
X3782320Y1728626D01*
X3782689Y1730105D01*
X3782985Y1731731D01*
X3783059Y1733431D01*
Y1733948D01*
X3782985Y1734392D01*
Y1734909D01*
X3782911Y1735427D01*
X3782615Y1736757D01*
X3782246Y1738309D01*
X3781655Y1739861D01*
X3780842Y1741487D01*
X3780398Y1742301D01*
X3779807Y1743040D01*
X3779733Y1743114D01*
X3779659Y1743188D01*
X3779437Y1743409D01*
X3779215Y1743705D01*
X3778846Y1744001D01*
X3778402Y1744370D01*
X3777959Y1744814D01*
X3777368Y1745183D01*
X3776702Y1745627D01*
X3775963Y1746144D01*
X3775224Y1746588D01*
X3774337Y1747031D01*
X3773376Y1747401D01*
X3772341Y1747770D01*
X3771233Y1748140D01*
X3770050Y1748435D01*
X3771750Y1755236D01*
X3771824D01*
X3772120Y1755162D01*
D02*
G37*
G36*
X2345352Y552849D02*
X2346018Y552775D01*
X2346831Y552701D01*
X2347644Y552627D01*
X2348605Y552405D01*
X2350600Y551962D01*
X2352818Y551296D01*
X2353926Y550853D01*
X2354961Y550335D01*
X2355996Y549670D01*
X2357031Y549005D01*
X2357105Y548931D01*
X2357253Y548857D01*
X2357548Y548635D01*
X2357918Y548266D01*
X2358287Y547896D01*
X2358805Y547379D01*
X2359322Y546788D01*
X2359913Y546196D01*
X2360505Y545457D01*
X2361096Y544570D01*
X2361761Y543683D01*
X2362353Y542722D01*
X2362870Y541614D01*
X2363461Y540505D01*
X2363905Y539322D01*
X2364348Y537992D01*
X2357696Y536440D01*
Y536514D01*
X2357622Y536661D01*
X2357474Y536957D01*
X2357327Y537327D01*
X2357179Y537770D01*
X2356957Y538361D01*
X2356366Y539544D01*
X2355626Y540874D01*
X2354740Y542205D01*
X2353631Y543461D01*
X2352448Y544570D01*
X2352300Y544718D01*
X2351857Y545014D01*
X2351118Y545383D01*
X2350157Y545901D01*
X2348900Y546344D01*
X2347496Y546788D01*
X2345796Y547083D01*
X2343948Y547157D01*
X2343357D01*
X2342987Y547083D01*
X2342470D01*
X2341878Y547009D01*
X2340474Y546788D01*
X2338922Y546492D01*
X2337296Y545975D01*
X2335596Y545235D01*
X2334044Y544275D01*
X2333970D01*
X2333896Y544127D01*
X2333378Y543757D01*
X2332713Y543166D01*
X2331900Y542279D01*
X2330939Y541170D01*
X2330052Y539914D01*
X2329239Y538361D01*
X2328500Y536661D01*
Y536587D01*
X2328426Y536440D01*
X2328352Y536218D01*
X2328278Y535848D01*
X2328130Y535405D01*
X2327983Y534887D01*
X2327761Y533631D01*
X2327465Y532153D01*
X2327170Y530526D01*
X2327022Y528753D01*
X2326948Y526831D01*
Y526757D01*
Y526535D01*
Y526166D01*
Y525722D01*
X2327022Y525205D01*
Y524539D01*
X2327096Y523800D01*
X2327170Y522987D01*
X2327391Y521213D01*
X2327761Y519292D01*
X2328204Y517370D01*
X2328796Y515448D01*
Y515374D01*
X2328870Y515226D01*
X2329017Y515005D01*
X2329165Y514635D01*
X2329609Y513748D01*
X2330274Y512713D01*
X2331087Y511531D01*
X2332122Y510274D01*
X2333304Y509165D01*
X2334709Y508131D01*
X2334783D01*
X2334931Y508057D01*
X2335152Y507909D01*
X2335448Y507761D01*
X2335818Y507613D01*
X2336261Y507391D01*
X2337296Y506948D01*
X2338626Y506504D01*
X2340105Y506135D01*
X2341731Y505839D01*
X2343431Y505765D01*
X2343948D01*
X2344392Y505839D01*
X2344909D01*
X2345426Y505913D01*
X2346757Y506209D01*
X2348309Y506578D01*
X2349861Y507170D01*
X2351487Y507983D01*
X2352300Y508426D01*
X2353039Y509018D01*
X2353113Y509091D01*
X2353187Y509165D01*
X2353409Y509387D01*
X2353705Y509609D01*
X2354000Y509978D01*
X2354370Y510422D01*
X2354813Y510865D01*
X2355183Y511457D01*
X2355626Y512122D01*
X2356144Y512861D01*
X2356587Y513600D01*
X2357031Y514487D01*
X2357400Y515448D01*
X2357770Y516483D01*
X2358140Y517592D01*
X2358435Y518774D01*
X2365235Y517074D01*
Y517000D01*
X2365161Y516705D01*
X2365014Y516261D01*
X2364792Y515670D01*
X2364570Y515005D01*
X2364274Y514192D01*
X2363905Y513305D01*
X2363461Y512344D01*
X2362427Y510274D01*
X2361096Y508204D01*
X2360283Y507170D01*
X2359470Y506135D01*
X2358583Y505248D01*
X2357548Y504361D01*
X2357474Y504287D01*
X2357327Y504139D01*
X2356957Y503991D01*
X2356587Y503696D01*
X2355996Y503326D01*
X2355405Y502957D01*
X2354592Y502587D01*
X2353779Y502217D01*
X2352818Y501774D01*
X2351783Y501404D01*
X2350674Y501035D01*
X2349492Y500665D01*
X2348235Y500370D01*
X2346905Y500222D01*
X2345500Y500074D01*
X2344022Y500000D01*
X2343209D01*
X2342618Y500074D01*
X2341952D01*
X2341139Y500148D01*
X2340252Y500296D01*
X2339218Y500443D01*
X2337074Y500813D01*
X2334857Y501404D01*
X2332639Y502217D01*
X2331604Y502735D01*
X2330570Y503326D01*
X2330496Y503400D01*
X2330348Y503474D01*
X2330052Y503696D01*
X2329757Y503991D01*
X2329313Y504287D01*
X2328796Y504731D01*
X2328204Y505248D01*
X2327613Y505839D01*
X2327022Y506504D01*
X2326357Y507170D01*
X2325026Y508870D01*
X2323770Y510865D01*
X2322661Y513083D01*
Y513157D01*
X2322513Y513378D01*
X2322439Y513748D01*
X2322217Y514192D01*
X2322070Y514783D01*
X2321848Y515522D01*
X2321552Y516335D01*
X2321330Y517222D01*
X2321109Y518183D01*
X2320813Y519292D01*
X2320443Y521583D01*
X2320148Y524170D01*
X2320000Y526831D01*
Y526905D01*
Y527200D01*
Y527644D01*
X2320074Y528161D01*
Y528900D01*
X2320148Y529640D01*
X2320222Y530600D01*
X2320370Y531561D01*
X2320739Y533705D01*
X2321256Y536070D01*
X2321996Y538435D01*
X2323030Y540727D01*
X2323104Y540801D01*
X2323178Y541022D01*
X2323326Y541318D01*
X2323622Y541688D01*
X2323917Y542205D01*
X2324287Y542796D01*
X2325248Y544127D01*
X2326504Y545605D01*
X2327983Y547083D01*
X2329683Y548562D01*
X2331678Y549818D01*
X2331752Y549892D01*
X2331974Y549966D01*
X2332270Y550114D01*
X2332639Y550335D01*
X2333231Y550557D01*
X2333822Y550779D01*
X2334561Y551075D01*
X2335374Y551370D01*
X2336261Y551666D01*
X2337222Y551962D01*
X2339291Y552405D01*
X2341657Y552775D01*
X2344096Y552922D01*
X2344835D01*
X2345352Y552849D01*
D02*
G37*
G36*
X2394653Y500887D02*
X2388370D01*
Y540874D01*
X2388296Y540801D01*
X2387927Y540505D01*
X2387483Y540061D01*
X2386744Y539544D01*
X2385931Y538879D01*
X2384896Y538140D01*
X2383714Y537327D01*
X2382383Y536514D01*
X2382309D01*
X2382236Y536440D01*
X2381792Y536144D01*
X2381053Y535774D01*
X2380166Y535331D01*
X2379131Y534814D01*
X2378022Y534296D01*
X2376914Y533779D01*
X2375805Y533335D01*
Y539396D01*
X2375879D01*
X2376027Y539544D01*
X2376322Y539618D01*
X2376692Y539840D01*
X2377135Y540061D01*
X2377653Y540357D01*
X2378909Y541096D01*
X2380388Y541909D01*
X2381866Y542944D01*
X2383418Y544127D01*
X2384970Y545383D01*
X2385044Y545457D01*
X2385118Y545531D01*
X2385340Y545753D01*
X2385636Y545975D01*
X2386301Y546714D01*
X2387188Y547601D01*
X2388075Y548635D01*
X2389036Y549818D01*
X2389849Y551001D01*
X2390588Y552257D01*
X2394653D01*
Y500887D01*
D02*
G37*
G36*
X2428949Y552183D02*
X2429910Y552035D01*
X2431019Y551814D01*
X2432201Y551518D01*
X2433458Y551149D01*
X2434641Y550557D01*
X2434714D01*
X2434788Y550483D01*
X2435158Y550262D01*
X2435749Y549892D01*
X2436488Y549375D01*
X2437301Y548635D01*
X2438188Y547822D01*
X2439001Y546861D01*
X2439815Y545753D01*
X2439888Y545605D01*
X2440184Y545235D01*
X2440480Y544570D01*
X2440997Y543609D01*
X2441441Y542501D01*
X2442032Y541244D01*
X2442549Y539766D01*
X2442993Y538140D01*
Y538066D01*
X2443067Y537918D01*
X2443141Y537696D01*
X2443215Y537327D01*
X2443288Y536883D01*
X2443362Y536366D01*
X2443510Y535700D01*
X2443584Y534961D01*
X2443732Y534148D01*
X2443806Y533261D01*
X2443880Y532227D01*
X2444028Y531192D01*
X2444102Y530009D01*
Y528826D01*
X2444175Y527496D01*
Y526092D01*
Y526018D01*
Y525722D01*
Y525205D01*
Y524613D01*
X2444102Y523800D01*
Y522913D01*
X2444028Y521952D01*
X2443954Y520918D01*
X2443732Y518552D01*
X2443362Y516113D01*
X2442919Y513748D01*
X2442623Y512639D01*
X2442254Y511531D01*
Y511457D01*
X2442180Y511309D01*
X2442032Y511013D01*
X2441884Y510644D01*
X2441736Y510126D01*
X2441441Y509609D01*
X2440849Y508352D01*
X2440110Y507022D01*
X2439149Y505544D01*
X2438041Y504213D01*
X2436710Y502957D01*
X2436636D01*
X2436562Y502809D01*
X2436341Y502661D01*
X2436045Y502513D01*
X2435675Y502291D01*
X2435306Y501996D01*
X2434197Y501478D01*
X2432867Y500961D01*
X2431314Y500443D01*
X2429467Y500148D01*
X2427471Y500000D01*
X2426732D01*
X2426214Y500074D01*
X2425623Y500148D01*
X2424884Y500296D01*
X2424071Y500443D01*
X2423184Y500665D01*
X2422297Y500961D01*
X2421336Y501257D01*
X2420375Y501700D01*
X2419414Y502217D01*
X2418453Y502809D01*
X2417492Y503548D01*
X2416606Y504361D01*
X2415792Y505248D01*
X2415719Y505322D01*
X2415571Y505544D01*
X2415349Y505913D01*
X2414979Y506504D01*
X2414610Y507170D01*
X2414240Y508057D01*
X2413723Y509091D01*
X2413279Y510274D01*
X2412836Y511605D01*
X2412392Y513157D01*
X2411949Y514857D01*
X2411579Y516778D01*
X2411210Y518848D01*
X2410988Y521066D01*
X2410840Y523505D01*
X2410766Y526092D01*
Y526166D01*
Y526461D01*
Y526979D01*
Y527570D01*
X2410840Y528383D01*
Y529270D01*
X2410914Y530231D01*
X2410988Y531340D01*
X2411210Y533631D01*
X2411579Y536070D01*
X2412023Y538509D01*
X2412319Y539618D01*
X2412614Y540727D01*
Y540801D01*
X2412688Y540948D01*
X2412836Y541244D01*
X2412984Y541614D01*
X2413132Y542131D01*
X2413427Y542648D01*
X2414019Y543905D01*
X2414758Y545235D01*
X2415719Y546640D01*
X2416827Y548044D01*
X2418158Y549227D01*
X2418232D01*
X2418306Y549375D01*
X2418527Y549522D01*
X2418823Y549670D01*
X2419193Y549966D01*
X2419636Y550188D01*
X2420745Y550779D01*
X2422075Y551296D01*
X2423627Y551814D01*
X2425475Y552109D01*
X2427471Y552257D01*
X2428136D01*
X2428949Y552183D01*
D02*
G37*
G36*
X4025351Y3702847D02*
X4026016Y3702773D01*
X4026829Y3702699D01*
X4027642Y3702626D01*
X4028603Y3702404D01*
X4030599Y3701960D01*
X4032816Y3701295D01*
X4033925Y3700852D01*
X4034960Y3700334D01*
X4035995Y3699669D01*
X4037030Y3699004D01*
X4037103Y3698930D01*
X4037251Y3698856D01*
X4037547Y3698634D01*
X4037916Y3698265D01*
X4038286Y3697895D01*
X4038803Y3697378D01*
X4039321Y3696786D01*
X4039912Y3696195D01*
X4040503Y3695456D01*
X4041095Y3694569D01*
X4041760Y3693682D01*
X4042351Y3692721D01*
X4042869Y3691612D01*
X4043460Y3690504D01*
X4043904Y3689321D01*
X4044347Y3687991D01*
X4037695Y3686438D01*
Y3686512D01*
X4037621Y3686660D01*
X4037473Y3686956D01*
X4037325Y3687325D01*
X4037177Y3687769D01*
X4036956Y3688360D01*
X4036364Y3689543D01*
X4035625Y3690873D01*
X4034738Y3692204D01*
X4033629Y3693460D01*
X4032447Y3694569D01*
X4032299Y3694717D01*
X4031856Y3695012D01*
X4031116Y3695382D01*
X4030156Y3695899D01*
X4028899Y3696343D01*
X4027495Y3696786D01*
X4025795Y3697082D01*
X4023947Y3697156D01*
X4023355D01*
X4022986Y3697082D01*
X4022468D01*
X4021877Y3697008D01*
X4020473Y3696786D01*
X4018921Y3696491D01*
X4017294Y3695973D01*
X4015594Y3695234D01*
X4014042Y3694273D01*
X4013968D01*
X4013894Y3694125D01*
X4013377Y3693756D01*
X4012712Y3693165D01*
X4011899Y3692278D01*
X4010938Y3691169D01*
X4010051Y3689912D01*
X4009238Y3688360D01*
X4008499Y3686660D01*
Y3686586D01*
X4008425Y3686438D01*
X4008351Y3686217D01*
X4008277Y3685847D01*
X4008129Y3685404D01*
X4007981Y3684886D01*
X4007760Y3683630D01*
X4007464Y3682151D01*
X4007168Y3680525D01*
X4007020Y3678751D01*
X4006947Y3676830D01*
Y3676756D01*
Y3676534D01*
Y3676164D01*
Y3675721D01*
X4007020Y3675203D01*
Y3674538D01*
X4007094Y3673799D01*
X4007168Y3672986D01*
X4007390Y3671212D01*
X4007760Y3669290D01*
X4008203Y3667369D01*
X4008794Y3665447D01*
Y3665373D01*
X4008868Y3665225D01*
X4009016Y3665003D01*
X4009164Y3664634D01*
X4009607Y3663747D01*
X4010273Y3662712D01*
X4011086Y3661529D01*
X4012120Y3660273D01*
X4013303Y3659164D01*
X4014707Y3658129D01*
X4014781D01*
X4014929Y3658055D01*
X4015151Y3657908D01*
X4015447Y3657760D01*
X4015816Y3657612D01*
X4016260Y3657390D01*
X4017294Y3656947D01*
X4018625Y3656503D01*
X4020103Y3656134D01*
X4021729Y3655838D01*
X4023429Y3655764D01*
X4023947D01*
X4024390Y3655838D01*
X4024908D01*
X4025425Y3655912D01*
X4026755Y3656208D01*
X4028308Y3656577D01*
X4029860Y3657168D01*
X4031486Y3657982D01*
X4032299Y3658425D01*
X4033038Y3659016D01*
X4033112Y3659090D01*
X4033186Y3659164D01*
X4033408Y3659386D01*
X4033703Y3659608D01*
X4033999Y3659977D01*
X4034369Y3660421D01*
X4034812Y3660864D01*
X4035182Y3661455D01*
X4035625Y3662121D01*
X4036143Y3662860D01*
X4036586Y3663599D01*
X4037030Y3664486D01*
X4037399Y3665447D01*
X4037769Y3666482D01*
X4038138Y3667590D01*
X4038434Y3668773D01*
X4045234Y3667073D01*
Y3666999D01*
X4045160Y3666703D01*
X4045012Y3666260D01*
X4044790Y3665669D01*
X4044569Y3665003D01*
X4044273Y3664190D01*
X4043904Y3663303D01*
X4043460Y3662342D01*
X4042425Y3660273D01*
X4041095Y3658203D01*
X4040282Y3657168D01*
X4039469Y3656134D01*
X4038582Y3655247D01*
X4037547Y3654360D01*
X4037473Y3654286D01*
X4037325Y3654138D01*
X4036956Y3653990D01*
X4036586Y3653694D01*
X4035995Y3653325D01*
X4035403Y3652955D01*
X4034590Y3652586D01*
X4033777Y3652216D01*
X4032816Y3651773D01*
X4031782Y3651403D01*
X4030673Y3651034D01*
X4029490Y3650664D01*
X4028234Y3650368D01*
X4026903Y3650221D01*
X4025499Y3650073D01*
X4024021Y3649999D01*
X4023208D01*
X4022616Y3650073D01*
X4021951D01*
X4021138Y3650147D01*
X4020251Y3650294D01*
X4019216Y3650442D01*
X4017073Y3650812D01*
X4014855Y3651403D01*
X4012638Y3652216D01*
X4011603Y3652734D01*
X4010568Y3653325D01*
X4010494Y3653399D01*
X4010347Y3653473D01*
X4010051Y3653694D01*
X4009755Y3653990D01*
X4009312Y3654286D01*
X4008794Y3654729D01*
X4008203Y3655247D01*
X4007612Y3655838D01*
X4007020Y3656503D01*
X4006355Y3657168D01*
X4005025Y3658868D01*
X4003768Y3660864D01*
X4002660Y3663082D01*
Y3663155D01*
X4002512Y3663377D01*
X4002438Y3663747D01*
X4002216Y3664190D01*
X4002068Y3664782D01*
X4001846Y3665521D01*
X4001551Y3666334D01*
X4001329Y3667221D01*
X4001107Y3668182D01*
X4000812Y3669290D01*
X4000442Y3671582D01*
X4000146Y3674169D01*
X3999999Y3676830D01*
Y3676903D01*
Y3677199D01*
Y3677643D01*
X4000073Y3678160D01*
Y3678899D01*
X4000146Y3679638D01*
X4000220Y3680599D01*
X4000368Y3681560D01*
X4000738Y3683704D01*
X4001255Y3686069D01*
X4001994Y3688434D01*
X4003029Y3690725D01*
X4003103Y3690799D01*
X4003177Y3691021D01*
X4003325Y3691317D01*
X4003620Y3691686D01*
X4003916Y3692204D01*
X4004286Y3692795D01*
X4005246Y3694125D01*
X4006503Y3695604D01*
X4007981Y3697082D01*
X4009681Y3698560D01*
X4011677Y3699817D01*
X4011751Y3699891D01*
X4011973Y3699965D01*
X4012268Y3700112D01*
X4012638Y3700334D01*
X4013229Y3700556D01*
X4013821Y3700778D01*
X4014560Y3701073D01*
X4015373Y3701369D01*
X4016260Y3701665D01*
X4017221Y3701960D01*
X4019290Y3702404D01*
X4021655Y3702773D01*
X4024095Y3702921D01*
X4024834D01*
X4025351Y3702847D01*
D02*
G37*
G36*
X4114417Y3650886D02*
X4108135D01*
Y3690873D01*
X4108061Y3690799D01*
X4107691Y3690504D01*
X4107248Y3690060D01*
X4106509Y3689543D01*
X4105696Y3688878D01*
X4104661Y3688138D01*
X4103478Y3687325D01*
X4102148Y3686512D01*
X4102074D01*
X4102000Y3686438D01*
X4101556Y3686143D01*
X4100817Y3685773D01*
X4099930Y3685330D01*
X4098896Y3684812D01*
X4097787Y3684295D01*
X4096678Y3683777D01*
X4095569Y3683334D01*
Y3689395D01*
X4095643D01*
X4095791Y3689543D01*
X4096087Y3689617D01*
X4096456Y3689838D01*
X4096900Y3690060D01*
X4097417Y3690356D01*
X4098674Y3691095D01*
X4100152Y3691908D01*
X4101630Y3692943D01*
X4103183Y3694125D01*
X4104735Y3695382D01*
X4104809Y3695456D01*
X4104883Y3695530D01*
X4105104Y3695752D01*
X4105400Y3695973D01*
X4106065Y3696712D01*
X4106952Y3697599D01*
X4107839Y3698634D01*
X4108800Y3699817D01*
X4109613Y3700999D01*
X4110352Y3702256D01*
X4114417D01*
Y3650886D01*
D02*
G37*
G36*
X4077387Y3668921D02*
X4084334D01*
Y3663155D01*
X4077387D01*
Y3650886D01*
X4071104D01*
Y3663155D01*
X4048856D01*
Y3668921D01*
X4072286Y3702034D01*
X4077387D01*
Y3668921D01*
D02*
G37*
G36*
X2046889Y1788751D02*
X2047407D01*
X2047998Y1788677D01*
X2049403Y1788381D01*
X2050955Y1788011D01*
X2052581Y1787420D01*
X2054207Y1786607D01*
X2055020Y1786090D01*
X2055759Y1785498D01*
X2055833Y1785424D01*
X2055907Y1785351D01*
X2056129Y1785129D01*
X2056350Y1784907D01*
X2056646Y1784537D01*
X2057016Y1784094D01*
X2057755Y1783059D01*
X2058494Y1781729D01*
X2059233Y1780103D01*
X2059824Y1778255D01*
X2060268Y1776111D01*
X2054207Y1775594D01*
Y1775668D01*
X2054133Y1775816D01*
Y1775963D01*
X2054059Y1776259D01*
X2053837Y1777072D01*
X2053542Y1777959D01*
X2053172Y1778994D01*
X2052655Y1780029D01*
X2052063Y1780990D01*
X2051324Y1781803D01*
X2051250Y1781877D01*
X2050955Y1782098D01*
X2050437Y1782394D01*
X2049846Y1782690D01*
X2049033Y1783059D01*
X2048072Y1783355D01*
X2046963Y1783577D01*
X2045781Y1783650D01*
X2045263D01*
X2044746Y1783577D01*
X2044081Y1783503D01*
X2043268Y1783355D01*
X2042455Y1783133D01*
X2041568Y1782837D01*
X2040755Y1782394D01*
X2040681Y1782320D01*
X2040385Y1782172D01*
X2039942Y1781877D01*
X2039498Y1781433D01*
X2038907Y1780916D01*
X2038315Y1780324D01*
X2037724Y1779659D01*
X2037133Y1778846D01*
X2037059Y1778772D01*
X2036911Y1778403D01*
X2036615Y1777885D01*
X2036320Y1777220D01*
X2035950Y1776333D01*
X2035581Y1775298D01*
X2035211Y1774116D01*
X2034841Y1772785D01*
Y1772711D01*
X2034768Y1772637D01*
Y1772416D01*
X2034694Y1772120D01*
X2034546Y1771381D01*
X2034324Y1770420D01*
X2034176Y1769237D01*
X2034028Y1767981D01*
X2033955Y1766576D01*
X2033881Y1765098D01*
Y1765024D01*
Y1764802D01*
Y1764433D01*
Y1763842D01*
X2033955Y1763989D01*
X2034250Y1764359D01*
X2034694Y1764876D01*
X2035211Y1765615D01*
X2035950Y1766355D01*
X2036837Y1767168D01*
X2037872Y1767981D01*
X2039055Y1768720D01*
X2039202Y1768794D01*
X2039646Y1769016D01*
X2040311Y1769311D01*
X2041124Y1769607D01*
X2042233Y1769976D01*
X2043416Y1770272D01*
X2044746Y1770494D01*
X2046150Y1770568D01*
X2046742D01*
X2047185Y1770494D01*
X2047776Y1770420D01*
X2048368Y1770346D01*
X2049107Y1770198D01*
X2049846Y1769976D01*
X2051546Y1769459D01*
X2052433Y1769089D01*
X2053320Y1768646D01*
X2054281Y1768129D01*
X2055168Y1767463D01*
X2056055Y1766798D01*
X2056868Y1765985D01*
X2056942Y1765911D01*
X2057090Y1765763D01*
X2057237Y1765542D01*
X2057533Y1765172D01*
X2057903Y1764655D01*
X2058272Y1764137D01*
X2058642Y1763472D01*
X2059011Y1762733D01*
X2059455Y1761920D01*
X2059824Y1761033D01*
X2060194Y1759998D01*
X2060564Y1758963D01*
X2060859Y1757781D01*
X2061007Y1756524D01*
X2061155Y1755268D01*
X2061229Y1753863D01*
Y1753789D01*
Y1753494D01*
Y1753124D01*
X2061155Y1752607D01*
X2061081Y1751941D01*
X2061007Y1751128D01*
X2060859Y1750315D01*
X2060637Y1749354D01*
X2060120Y1747433D01*
X2059751Y1746398D01*
X2059307Y1745289D01*
X2058790Y1744254D01*
X2058124Y1743293D01*
X2057459Y1742259D01*
X2056646Y1741372D01*
X2056572Y1741298D01*
X2056424Y1741150D01*
X2056203Y1740928D01*
X2055833Y1740633D01*
X2055390Y1740263D01*
X2054798Y1739819D01*
X2054207Y1739450D01*
X2053468Y1738933D01*
X2052729Y1738489D01*
X2051842Y1738119D01*
X2049846Y1737306D01*
X2048811Y1737011D01*
X2047629Y1736789D01*
X2046446Y1736641D01*
X2045189Y1736567D01*
X2044672D01*
X2044302Y1736641D01*
X2043933D01*
X2043416Y1736715D01*
X2042159Y1736937D01*
X2040755Y1737232D01*
X2039202Y1737750D01*
X2037650Y1738415D01*
X2036098Y1739302D01*
X2036024D01*
X2035950Y1739450D01*
X2035728Y1739598D01*
X2035433Y1739819D01*
X2034694Y1740411D01*
X2033733Y1741224D01*
X2032772Y1742333D01*
X2031663Y1743663D01*
X2030702Y1745215D01*
X2029815Y1746989D01*
Y1747063D01*
X2029741Y1747211D01*
X2029594Y1747507D01*
X2029446Y1747876D01*
X2029298Y1748394D01*
X2029076Y1749059D01*
X2028928Y1749798D01*
X2028707Y1750611D01*
X2028485Y1751572D01*
X2028263Y1752681D01*
X2028115Y1753863D01*
X2027967Y1755120D01*
X2027820Y1756524D01*
X2027672Y1758002D01*
X2027598Y1759628D01*
Y1761328D01*
Y1761402D01*
Y1761772D01*
Y1762289D01*
Y1762955D01*
X2027672Y1763768D01*
Y1764729D01*
X2027746Y1765837D01*
X2027894Y1766946D01*
X2028115Y1769459D01*
X2028485Y1772120D01*
X2029002Y1774633D01*
X2029372Y1775890D01*
X2029741Y1776998D01*
Y1777072D01*
X2029815Y1777220D01*
X2029963Y1777516D01*
X2030111Y1777959D01*
X2030333Y1778403D01*
X2030628Y1778994D01*
X2031368Y1780250D01*
X2032255Y1781655D01*
X2033289Y1783133D01*
X2034620Y1784537D01*
X2036098Y1785794D01*
X2036172D01*
X2036320Y1785942D01*
X2036542Y1786090D01*
X2036837Y1786237D01*
X2037281Y1786459D01*
X2037724Y1786755D01*
X2038315Y1787051D01*
X2038907Y1787272D01*
X2040311Y1787864D01*
X2042011Y1788381D01*
X2043859Y1788677D01*
X2045929Y1788824D01*
X2046520D01*
X2046889Y1788751D01*
D02*
G37*
G36*
X2150000Y1736789D02*
X2130338D01*
X2129008Y1736863D01*
X2127530Y1736937D01*
X2126051Y1737085D01*
X2124573Y1737306D01*
X2123317Y1737528D01*
X2123243D01*
X2123095Y1737602D01*
X2122873D01*
X2122577Y1737750D01*
X2121764Y1737972D01*
X2120730Y1738341D01*
X2119547Y1738859D01*
X2118290Y1739524D01*
X2117034Y1740263D01*
X2115851Y1741224D01*
X2115777Y1741298D01*
X2115703Y1741372D01*
X2115482Y1741593D01*
X2115186Y1741815D01*
X2114447Y1742554D01*
X2113560Y1743589D01*
X2112599Y1744846D01*
X2111564Y1746324D01*
X2110603Y1748024D01*
X2109790Y1749946D01*
Y1750020D01*
X2109716Y1750167D01*
X2109569Y1750463D01*
X2109495Y1750907D01*
X2109273Y1751424D01*
X2109125Y1752015D01*
X2108977Y1752681D01*
X2108755Y1753494D01*
X2108534Y1754307D01*
X2108386Y1755268D01*
X2108016Y1757337D01*
X2107795Y1759628D01*
X2107721Y1762142D01*
Y1762215D01*
Y1762363D01*
Y1762733D01*
Y1763102D01*
X2107795Y1763620D01*
Y1764211D01*
X2107869Y1765615D01*
X2108090Y1767242D01*
X2108312Y1768942D01*
X2108682Y1770716D01*
X2109125Y1772489D01*
Y1772563D01*
X2109199Y1772711D01*
X2109273Y1772933D01*
X2109347Y1773229D01*
X2109642Y1774042D01*
X2110086Y1775076D01*
X2110529Y1776259D01*
X2111121Y1777442D01*
X2111860Y1778698D01*
X2112599Y1779881D01*
X2112673Y1780029D01*
X2112969Y1780398D01*
X2113412Y1780916D01*
X2114003Y1781581D01*
X2114669Y1782320D01*
X2115482Y1783059D01*
X2116295Y1783872D01*
X2117256Y1784537D01*
X2117403Y1784611D01*
X2117699Y1784833D01*
X2118216Y1785129D01*
X2118956Y1785498D01*
X2119843Y1785942D01*
X2120877Y1786311D01*
X2122060Y1786755D01*
X2123390Y1787124D01*
X2123538D01*
X2123760Y1787198D01*
X2123982Y1787272D01*
X2124721Y1787346D01*
X2125756Y1787494D01*
X2126938Y1787642D01*
X2128343Y1787790D01*
X2129895Y1787864D01*
X2131595Y1787937D01*
X2150000D01*
Y1736789D01*
D02*
G37*
G36*
X2083625Y1747950D02*
X2083699Y1748024D01*
X2084068Y1748320D01*
X2084512Y1748763D01*
X2085251Y1749280D01*
X2086064Y1749946D01*
X2087099Y1750685D01*
X2088281Y1751498D01*
X2089612Y1752311D01*
X2089686D01*
X2089760Y1752385D01*
X2090203Y1752681D01*
X2090942Y1753050D01*
X2091829Y1753494D01*
X2092864Y1754011D01*
X2093973Y1754528D01*
X2095081Y1755046D01*
X2096190Y1755489D01*
Y1749428D01*
X2096116D01*
X2095968Y1749280D01*
X2095673Y1749207D01*
X2095303Y1748985D01*
X2094860Y1748763D01*
X2094342Y1748467D01*
X2093086Y1747728D01*
X2091607Y1746915D01*
X2090129Y1745880D01*
X2088577Y1744698D01*
X2087025Y1743441D01*
X2086951Y1743367D01*
X2086877Y1743293D01*
X2086655Y1743072D01*
X2086360Y1742850D01*
X2085694Y1742111D01*
X2084807Y1741224D01*
X2083920Y1740189D01*
X2082960Y1739006D01*
X2082146Y1737824D01*
X2081407Y1736567D01*
X2077342D01*
Y1787937D01*
X2083625D01*
Y1747950D01*
D02*
G37*
G36*
X1976965Y249927D02*
X1977482D01*
X1978074Y249853D01*
X1979478Y249558D01*
X1981030Y249188D01*
X1982656Y248597D01*
X1984283Y247784D01*
X1985096Y247266D01*
X1985835Y246675D01*
X1985909Y246601D01*
X1985983Y246527D01*
X1986204Y246306D01*
X1986426Y246084D01*
X1986722Y245714D01*
X1987091Y245271D01*
X1987830Y244236D01*
X1988570Y242906D01*
X1989309Y241279D01*
X1989900Y239432D01*
X1990343Y237288D01*
X1984283Y236771D01*
Y236845D01*
X1984209Y236992D01*
Y237140D01*
X1984135Y237436D01*
X1983913Y238249D01*
X1983617Y239136D01*
X1983248Y240171D01*
X1982730Y241206D01*
X1982139Y242166D01*
X1981400Y242979D01*
X1981326Y243053D01*
X1981030Y243275D01*
X1980513Y243571D01*
X1979922Y243866D01*
X1979109Y244236D01*
X1978148Y244532D01*
X1977039Y244753D01*
X1975856Y244827D01*
X1975339D01*
X1974822Y244753D01*
X1974156Y244679D01*
X1973343Y244532D01*
X1972530Y244310D01*
X1971643Y244014D01*
X1970830Y243571D01*
X1970756Y243497D01*
X1970461Y243349D01*
X1970017Y243053D01*
X1969574Y242610D01*
X1968982Y242092D01*
X1968391Y241501D01*
X1967800Y240836D01*
X1967208Y240023D01*
X1967134Y239949D01*
X1966987Y239579D01*
X1966691Y239062D01*
X1966395Y238397D01*
X1966026Y237510D01*
X1965656Y236475D01*
X1965287Y235292D01*
X1964917Y233962D01*
Y233888D01*
X1964843Y233814D01*
Y233592D01*
X1964769Y233297D01*
X1964621Y232558D01*
X1964400Y231597D01*
X1964252Y230414D01*
X1964104Y229158D01*
X1964030Y227753D01*
X1963956Y226275D01*
Y226201D01*
Y225979D01*
Y225610D01*
Y225018D01*
X1964030Y225166D01*
X1964326Y225536D01*
X1964769Y226053D01*
X1965287Y226792D01*
X1966026Y227531D01*
X1966913Y228344D01*
X1967948Y229158D01*
X1969130Y229897D01*
X1969278Y229971D01*
X1969721Y230192D01*
X1970387Y230488D01*
X1971200Y230784D01*
X1972308Y231153D01*
X1973491Y231449D01*
X1974822Y231671D01*
X1976226Y231745D01*
X1976817D01*
X1977261Y231671D01*
X1977852Y231597D01*
X1978443Y231523D01*
X1979182Y231375D01*
X1979922Y231153D01*
X1981622Y230636D01*
X1982509Y230266D01*
X1983396Y229823D01*
X1984356Y229305D01*
X1985243Y228640D01*
X1986130Y227975D01*
X1986943Y227162D01*
X1987017Y227088D01*
X1987165Y226940D01*
X1987313Y226718D01*
X1987609Y226349D01*
X1987978Y225831D01*
X1988348Y225314D01*
X1988717Y224649D01*
X1989087Y223910D01*
X1989530Y223097D01*
X1989900Y222210D01*
X1990270Y221175D01*
X1990639Y220140D01*
X1990935Y218957D01*
X1991083Y217701D01*
X1991230Y216444D01*
X1991304Y215040D01*
Y214966D01*
Y214670D01*
Y214301D01*
X1991230Y213783D01*
X1991157Y213118D01*
X1991083Y212305D01*
X1990935Y211492D01*
X1990713Y210531D01*
X1990196Y208609D01*
X1989826Y207575D01*
X1989383Y206466D01*
X1988865Y205431D01*
X1988200Y204470D01*
X1987535Y203435D01*
X1986722Y202548D01*
X1986648Y202475D01*
X1986500Y202327D01*
X1986278Y202105D01*
X1985909Y201809D01*
X1985465Y201440D01*
X1984874Y200996D01*
X1984283Y200627D01*
X1983543Y200109D01*
X1982804Y199666D01*
X1981917Y199296D01*
X1979922Y198483D01*
X1978887Y198188D01*
X1977704Y197966D01*
X1976522Y197818D01*
X1975265Y197744D01*
X1974748D01*
X1974378Y197818D01*
X1974008D01*
X1973491Y197892D01*
X1972235Y198114D01*
X1970830Y198409D01*
X1969278Y198927D01*
X1967726Y199592D01*
X1966174Y200479D01*
X1966100D01*
X1966026Y200627D01*
X1965804Y200775D01*
X1965508Y200996D01*
X1964769Y201588D01*
X1963808Y202401D01*
X1962847Y203509D01*
X1961739Y204840D01*
X1960778Y206392D01*
X1959891Y208166D01*
Y208240D01*
X1959817Y208388D01*
X1959669Y208683D01*
X1959521Y209053D01*
X1959374Y209570D01*
X1959152Y210236D01*
X1959004Y210975D01*
X1958782Y211788D01*
X1958560Y212749D01*
X1958339Y213857D01*
X1958191Y215040D01*
X1958043Y216296D01*
X1957895Y217701D01*
X1957747Y219179D01*
X1957674Y220805D01*
Y222505D01*
Y222579D01*
Y222949D01*
Y223466D01*
Y224131D01*
X1957747Y224944D01*
Y225905D01*
X1957821Y227014D01*
X1957969Y228123D01*
X1958191Y230636D01*
X1958560Y233297D01*
X1959078Y235810D01*
X1959447Y237066D01*
X1959817Y238175D01*
Y238249D01*
X1959891Y238397D01*
X1960039Y238692D01*
X1960187Y239136D01*
X1960408Y239579D01*
X1960704Y240171D01*
X1961443Y241427D01*
X1962330Y242832D01*
X1963365Y244310D01*
X1964695Y245714D01*
X1966174Y246971D01*
X1966248D01*
X1966395Y247119D01*
X1966617Y247266D01*
X1966913Y247414D01*
X1967356Y247636D01*
X1967800Y247932D01*
X1968391Y248227D01*
X1968982Y248449D01*
X1970387Y249040D01*
X1972087Y249558D01*
X1973935Y249853D01*
X1976004Y250001D01*
X1976595D01*
X1976965Y249927D01*
D02*
G37*
G36*
X2080001Y197966D02*
X2056275D01*
X2055683Y198040D01*
X2055018D01*
X2053466Y198114D01*
X2051840Y198335D01*
X2050066Y198557D01*
X2048440Y198927D01*
X2047627Y199148D01*
X2046962Y199370D01*
X2046888D01*
X2046814Y199444D01*
X2046370Y199666D01*
X2045705Y199961D01*
X2044892Y200479D01*
X2044005Y201144D01*
X2043044Y202031D01*
X2042157Y203066D01*
X2041270Y204249D01*
Y204322D01*
X2041196Y204396D01*
X2040901Y204840D01*
X2040605Y205579D01*
X2040162Y206540D01*
X2039792Y207649D01*
X2039422Y208979D01*
X2039201Y210383D01*
X2039127Y211936D01*
Y212009D01*
Y212157D01*
Y212453D01*
X2039201Y212823D01*
Y213340D01*
X2039275Y213857D01*
X2039570Y215114D01*
X2040014Y216592D01*
X2040605Y218144D01*
X2041492Y219697D01*
X2042083Y220436D01*
X2042675Y221175D01*
X2042749Y221249D01*
X2042822Y221323D01*
X2043044Y221544D01*
X2043340Y221766D01*
X2043709Y222062D01*
X2044153Y222357D01*
X2044744Y222727D01*
X2045336Y223170D01*
X2046075Y223540D01*
X2046888Y223910D01*
X2047775Y224353D01*
X2048736Y224723D01*
X2049844Y225018D01*
X2050953Y225388D01*
X2052210Y225610D01*
X2053540Y225831D01*
X2053392Y225905D01*
X2053096Y226053D01*
X2052653Y226349D01*
X2052062Y226644D01*
X2050731Y227458D01*
X2050066Y227975D01*
X2049475Y228418D01*
X2049327Y228566D01*
X2048957Y228936D01*
X2048366Y229527D01*
X2047627Y230266D01*
X2046814Y231301D01*
X2045853Y232410D01*
X2044892Y233740D01*
X2043857Y235218D01*
X2035061Y249114D01*
X2043488D01*
X2050214Y238471D01*
Y238397D01*
X2050362Y238249D01*
X2050509Y238027D01*
X2050731Y237732D01*
X2051249Y236918D01*
X2051914Y235884D01*
X2052727Y234775D01*
X2053540Y233592D01*
X2054353Y232484D01*
X2055092Y231449D01*
X2055166Y231375D01*
X2055388Y231079D01*
X2055757Y230636D01*
X2056275Y230118D01*
X2057383Y229010D01*
X2057975Y228492D01*
X2058566Y228049D01*
X2058640Y227975D01*
X2058788Y227901D01*
X2059084Y227753D01*
X2059527Y227531D01*
X2059970Y227310D01*
X2060488Y227088D01*
X2061671Y226718D01*
X2061744D01*
X2061892Y226644D01*
X2062188D01*
X2062557Y226571D01*
X2063075Y226497D01*
X2063666D01*
X2064479Y226423D01*
X2073201D01*
Y249114D01*
X2080001D01*
Y197966D01*
D02*
G37*
G36*
X2013700Y209127D02*
X2013774Y209201D01*
X2014144Y209496D01*
X2014587Y209940D01*
X2015326Y210457D01*
X2016139Y211123D01*
X2017174Y211862D01*
X2018357Y212675D01*
X2019687Y213488D01*
X2019761D01*
X2019835Y213562D01*
X2020279Y213857D01*
X2021018Y214227D01*
X2021905Y214670D01*
X2022940Y215188D01*
X2024048Y215705D01*
X2025157Y216223D01*
X2026266Y216666D01*
Y210605D01*
X2026192D01*
X2026044Y210457D01*
X2025748Y210383D01*
X2025379Y210162D01*
X2024935Y209940D01*
X2024418Y209644D01*
X2023161Y208905D01*
X2021683Y208092D01*
X2020205Y207057D01*
X2018653Y205875D01*
X2017100Y204618D01*
X2017026Y204544D01*
X2016953Y204470D01*
X2016731Y204249D01*
X2016435Y204027D01*
X2015770Y203288D01*
X2014883Y202401D01*
X2013996Y201366D01*
X2013035Y200183D01*
X2012222Y199001D01*
X2011483Y197744D01*
X2007418D01*
Y249114D01*
X2013700D01*
Y209127D01*
D02*
G37*
%LPC*%
G36*
X3466079Y1709706D02*
X3465636D01*
X3465340Y1709632D01*
X3464601Y1709558D01*
X3463566Y1709337D01*
X3462457Y1708967D01*
X3461201Y1708376D01*
X3460018Y1707637D01*
X3458836Y1706602D01*
X3458688Y1706454D01*
X3458392Y1706084D01*
X3457875Y1705419D01*
X3457357Y1704458D01*
X3456840Y1703350D01*
X3456323Y1701945D01*
X3456027Y1700393D01*
X3455879Y1698619D01*
Y1698471D01*
Y1698102D01*
X3455953Y1697437D01*
X3456027Y1696623D01*
X3456175Y1695663D01*
X3456470Y1694628D01*
X3456766Y1693519D01*
X3457209Y1692410D01*
X3457283Y1692263D01*
X3457505Y1691893D01*
X3457801Y1691376D01*
X3458244Y1690710D01*
X3458762Y1690045D01*
X3459427Y1689232D01*
X3460166Y1688567D01*
X3461053Y1687902D01*
X3461201Y1687828D01*
X3461497Y1687680D01*
X3462014Y1687384D01*
X3462679Y1687162D01*
X3463418Y1686867D01*
X3464305Y1686571D01*
X3465266Y1686423D01*
X3466301Y1686349D01*
X3466670D01*
X3466966Y1686423D01*
X3467705Y1686497D01*
X3468666Y1686719D01*
X3469701Y1687162D01*
X3470884Y1687680D01*
X3472066Y1688493D01*
X3472658Y1688936D01*
X3473175Y1689528D01*
Y1689602D01*
X3473323Y1689676D01*
X3473618Y1690119D01*
X3474062Y1690858D01*
X3474653Y1691819D01*
X3475171Y1693076D01*
X3475614Y1694554D01*
X3475910Y1696254D01*
X3476058Y1698250D01*
Y1698324D01*
Y1698471D01*
Y1698767D01*
X3475984Y1699137D01*
Y1699580D01*
X3475910Y1700097D01*
X3475688Y1701280D01*
X3475392Y1702611D01*
X3474875Y1704015D01*
X3474136Y1705345D01*
X3473175Y1706602D01*
X3473027Y1706750D01*
X3472658Y1707119D01*
X3472066Y1707563D01*
X3471253Y1708154D01*
X3470218Y1708745D01*
X3469036Y1709189D01*
X3467631Y1709558D01*
X3466079Y1709706D01*
D02*
G37*
G36*
X2785024Y1110749D02*
X2782733D01*
X2782659D01*
X2782585D01*
X2782215D01*
X2781550D01*
X2780663Y1110675D01*
X2779702D01*
X2778520Y1110602D01*
X2777263Y1110528D01*
X2775859Y1110380D01*
X2773050Y1110010D01*
X2771646Y1109788D01*
X2770315Y1109493D01*
X2769059Y1109197D01*
X2767876Y1108754D01*
X2766841Y1108310D01*
X2765954Y1107793D01*
X2765880D01*
X2765807Y1107645D01*
X2765585Y1107497D01*
X2765289Y1107275D01*
X2764624Y1106610D01*
X2763811Y1105797D01*
X2763072Y1104688D01*
X2762406Y1103432D01*
X2762111Y1102767D01*
X2761889Y1102028D01*
X2761815Y1101214D01*
X2761741Y1100401D01*
Y1099958D01*
X2761815Y1099662D01*
X2761963Y1098849D01*
X2762185Y1097888D01*
X2762628Y1096780D01*
X2763293Y1095597D01*
X2763737Y1095006D01*
X2764180Y1094414D01*
X2764772Y1093897D01*
X2765437Y1093380D01*
X2765511D01*
X2765659Y1093232D01*
X2765954Y1093084D01*
X2766324Y1092862D01*
X2766915Y1092640D01*
X2767580Y1092345D01*
X2768393Y1092123D01*
X2769354Y1091827D01*
X2770463Y1091532D01*
X2771720Y1091236D01*
X2773124Y1090940D01*
X2774676Y1090719D01*
X2776450Y1090497D01*
X2778372Y1090349D01*
X2780441Y1090275D01*
X2782733Y1090201D01*
X2782881D01*
X2783250D01*
X2783915D01*
X2784802Y1090275D01*
X2785763D01*
X2786946Y1090349D01*
X2788202Y1090423D01*
X2789533Y1090571D01*
X2792416Y1090940D01*
X2793820Y1091162D01*
X2795150Y1091458D01*
X2796407Y1091753D01*
X2797590Y1092197D01*
X2798624Y1092640D01*
X2799511Y1093158D01*
X2799585D01*
X2799659Y1093306D01*
X2800177Y1093675D01*
X2800842Y1094340D01*
X2801581Y1095154D01*
X2802320Y1096262D01*
X2802985Y1097519D01*
X2803503Y1098923D01*
X2803577Y1099662D01*
X2803650Y1100475D01*
Y1100919D01*
X2803577Y1101214D01*
X2803429Y1101954D01*
X2803133Y1102988D01*
X2802616Y1104097D01*
X2801877Y1105354D01*
X2801433Y1105945D01*
X2800842Y1106536D01*
X2800250Y1107128D01*
X2799511Y1107719D01*
X2799437D01*
X2799290Y1107867D01*
X2799068Y1108015D01*
X2798698Y1108162D01*
X2798181Y1108458D01*
X2797516Y1108680D01*
X2796776Y1108975D01*
X2795890Y1109271D01*
X2794781Y1109493D01*
X2793598Y1109788D01*
X2792194Y1110084D01*
X2790716Y1110306D01*
X2788942Y1110454D01*
X2787094Y1110602D01*
X2785024Y1110749D01*
D02*
G37*
G36*
X2781994Y1030331D02*
X2781920D01*
X2781624D01*
X2781255D01*
X2780663Y1030257D01*
X2779998D01*
X2779259Y1030183D01*
X2778372Y1030109D01*
X2777485Y1030035D01*
X2775489Y1029666D01*
X2773420Y1029222D01*
X2771498Y1028557D01*
X2770537Y1028114D01*
X2769724Y1027670D01*
X2769650D01*
X2769502Y1027522D01*
X2769280Y1027374D01*
X2768985Y1027227D01*
X2768246Y1026635D01*
X2767359Y1025896D01*
X2766398Y1024935D01*
X2765437Y1023827D01*
X2764624Y1022570D01*
X2763959Y1021240D01*
X2763885Y1021092D01*
X2763811Y1020722D01*
X2763589Y1020057D01*
X2763367Y1019096D01*
X2763220Y1017913D01*
X2762998Y1016435D01*
X2762924Y1015548D01*
Y1014587D01*
X2762850Y1013626D01*
Y1001800D01*
X2801877D01*
Y1013922D01*
X2801803Y1014439D01*
X2801729Y1015548D01*
X2801655Y1016805D01*
X2801507Y1018135D01*
X2801285Y1019466D01*
X2800990Y1020574D01*
X2800916Y1020722D01*
X2800842Y1021092D01*
X2800620Y1021609D01*
X2800324Y1022274D01*
X2799881Y1023013D01*
X2799437Y1023753D01*
X2798920Y1024492D01*
X2798329Y1025231D01*
X2798181Y1025305D01*
X2797885Y1025600D01*
X2797368Y1026044D01*
X2796629Y1026561D01*
X2795668Y1027153D01*
X2794559Y1027818D01*
X2793303Y1028409D01*
X2791898Y1028927D01*
X2791824D01*
X2791676Y1029000D01*
X2791455Y1029074D01*
X2791159Y1029148D01*
X2790789Y1029222D01*
X2790272Y1029370D01*
X2789755Y1029518D01*
X2789163Y1029666D01*
X2787685Y1029887D01*
X2785985Y1030109D01*
X2784063Y1030257D01*
X2781994Y1030331D01*
D02*
G37*
G36*
X2268921Y3372587D02*
Y3356474D01*
X2291834D01*
X2268921Y3372587D01*
D02*
G37*
G36*
X3019946Y1496131D02*
X3019872D01*
X3019798D01*
X3019354D01*
X3018689Y1495984D01*
X3017876Y1495836D01*
X3016989Y1495540D01*
X3016028Y1495097D01*
X3015067Y1494505D01*
X3014106Y1493692D01*
X3014033Y1493618D01*
X3013737Y1493249D01*
X3013367Y1492731D01*
X3012924Y1492066D01*
X3012480Y1491179D01*
X3012111Y1490218D01*
X3011815Y1489036D01*
X3011741Y1487779D01*
Y1487188D01*
X3011889Y1486523D01*
X3012037Y1485636D01*
X3012333Y1484675D01*
X3012702Y1483640D01*
X3013293Y1482679D01*
X3014106Y1481718D01*
X3014180Y1481644D01*
X3014476Y1481349D01*
X3014993Y1480979D01*
X3015659Y1480609D01*
X3016472Y1480166D01*
X3017433Y1479796D01*
X3018467Y1479501D01*
X3019650Y1479427D01*
X3019724D01*
X3019798D01*
X3020241Y1479501D01*
X3020907Y1479575D01*
X3021720Y1479722D01*
X3022681Y1480018D01*
X3023641Y1480388D01*
X3024676Y1480979D01*
X3025563Y1481718D01*
X3025637Y1481792D01*
X3025933Y1482162D01*
X3026302Y1482679D01*
X3026672Y1483344D01*
X3027115Y1484231D01*
X3027485Y1485266D01*
X3027781Y1486449D01*
X3027854Y1487779D01*
Y1487927D01*
X3027781Y1488370D01*
X3027707Y1489036D01*
X3027559Y1489923D01*
X3027263Y1490883D01*
X3026894Y1491844D01*
X3026302Y1492879D01*
X3025563Y1493766D01*
X3025489Y1493840D01*
X3025120Y1494136D01*
X3024676Y1494505D01*
X3024011Y1494949D01*
X3023198Y1495392D01*
X3022237Y1495762D01*
X3021128Y1496057D01*
X3019946Y1496131D01*
D02*
G37*
G36*
X3043450Y1498201D02*
X3043376D01*
X3043229D01*
X3043007D01*
X3042711Y1498127D01*
X3041898Y1498053D01*
X3040789Y1497831D01*
X3039681Y1497462D01*
X3038424Y1496944D01*
X3037168Y1496205D01*
X3035985Y1495170D01*
X3035837Y1495023D01*
X3035542Y1494653D01*
X3035024Y1493988D01*
X3034433Y1493101D01*
X3033915Y1491992D01*
X3033398Y1490662D01*
X3033102Y1489183D01*
X3032955Y1487557D01*
Y1487114D01*
X3033028Y1486818D01*
X3033102Y1486005D01*
X3033324Y1484970D01*
X3033694Y1483788D01*
X3034211Y1482605D01*
X3034950Y1481349D01*
X3035911Y1480240D01*
X3036059Y1480092D01*
X3036429Y1479796D01*
X3037094Y1479353D01*
X3037907Y1478835D01*
X3039016Y1478244D01*
X3040272Y1477801D01*
X3041676Y1477505D01*
X3043229Y1477357D01*
X3043376D01*
X3043672D01*
X3044189Y1477431D01*
X3044855Y1477505D01*
X3045668Y1477653D01*
X3046555Y1477875D01*
X3047442Y1478170D01*
X3048403Y1478540D01*
X3048477Y1478614D01*
X3048846Y1478762D01*
X3049290Y1479057D01*
X3049807Y1479501D01*
X3050472Y1480018D01*
X3051137Y1480683D01*
X3051729Y1481422D01*
X3052320Y1482309D01*
X3052394Y1482457D01*
X3052542Y1482753D01*
X3052764Y1483270D01*
X3052985Y1483936D01*
X3053207Y1484749D01*
X3053429Y1485709D01*
X3053577Y1486744D01*
X3053650Y1487779D01*
Y1488223D01*
X3053577Y1488518D01*
X3053503Y1489405D01*
X3053281Y1490440D01*
X3052911Y1491623D01*
X3052468Y1492879D01*
X3051729Y1494062D01*
X3050768Y1495244D01*
X3050620Y1495392D01*
X3050250Y1495688D01*
X3049585Y1496205D01*
X3048772Y1496723D01*
X3047737Y1497240D01*
X3046481Y1497757D01*
X3045003Y1498053D01*
X3043450Y1498201D01*
D02*
G37*
G36*
X2766201Y1585674D02*
X2763910D01*
X2763836D01*
X2763762D01*
X2763392D01*
X2762727D01*
X2761840Y1585600D01*
X2760879D01*
X2759697Y1585526D01*
X2758440Y1585453D01*
X2757036Y1585305D01*
X2754227Y1584935D01*
X2752823Y1584713D01*
X2751492Y1584418D01*
X2750236Y1584122D01*
X2749053Y1583679D01*
X2748018Y1583235D01*
X2747131Y1582718D01*
X2747057D01*
X2746983Y1582570D01*
X2746762Y1582422D01*
X2746466Y1582200D01*
X2745801Y1581535D01*
X2744988Y1580722D01*
X2744249Y1579613D01*
X2743583Y1578357D01*
X2743288Y1577692D01*
X2743066Y1576952D01*
X2742992Y1576139D01*
X2742918Y1575326D01*
Y1574883D01*
X2742992Y1574587D01*
X2743140Y1573774D01*
X2743362Y1572813D01*
X2743805Y1571705D01*
X2744470Y1570522D01*
X2744914Y1569931D01*
X2745357Y1569339D01*
X2745949Y1568822D01*
X2746614Y1568304D01*
X2746688D01*
X2746836Y1568157D01*
X2747131Y1568009D01*
X2747501Y1567787D01*
X2748092Y1567565D01*
X2748757Y1567270D01*
X2749570Y1567048D01*
X2750531Y1566752D01*
X2751640Y1566457D01*
X2752896Y1566161D01*
X2754301Y1565865D01*
X2755853Y1565644D01*
X2757627Y1565422D01*
X2759549Y1565274D01*
X2761618Y1565200D01*
X2763910Y1565126D01*
X2764057D01*
X2764427D01*
X2765092D01*
X2765979Y1565200D01*
X2766940D01*
X2768123Y1565274D01*
X2769379Y1565348D01*
X2770710Y1565496D01*
X2773592Y1565865D01*
X2774997Y1566087D01*
X2776327Y1566383D01*
X2777584Y1566678D01*
X2778766Y1567122D01*
X2779801Y1567565D01*
X2780688Y1568083D01*
X2780762D01*
X2780836Y1568231D01*
X2781353Y1568600D01*
X2782019Y1569265D01*
X2782758Y1570078D01*
X2783497Y1571187D01*
X2784162Y1572444D01*
X2784679Y1573848D01*
X2784753Y1574587D01*
X2784827Y1575400D01*
Y1575844D01*
X2784753Y1576139D01*
X2784606Y1576878D01*
X2784310Y1577913D01*
X2783793Y1579022D01*
X2783053Y1580279D01*
X2782610Y1580870D01*
X2782019Y1581461D01*
X2781427Y1582052D01*
X2780688Y1582644D01*
X2780614D01*
X2780466Y1582792D01*
X2780245Y1582939D01*
X2779875Y1583087D01*
X2779358Y1583383D01*
X2778692Y1583605D01*
X2777953Y1583900D01*
X2777066Y1584196D01*
X2775958Y1584418D01*
X2774775Y1584713D01*
X2773371Y1585009D01*
X2771892Y1585231D01*
X2770118Y1585379D01*
X2768271Y1585526D01*
X2766201Y1585674D01*
D02*
G37*
G36*
X2752009Y1503925D02*
X2751936D01*
X2751862D01*
X2751418Y1503851D01*
X2750753Y1503778D01*
X2749866Y1503630D01*
X2748979Y1503260D01*
X2747944Y1502817D01*
X2746983Y1502151D01*
X2746022Y1501264D01*
X2745949Y1501117D01*
X2745653Y1500747D01*
X2745283Y1500156D01*
X2744840Y1499195D01*
X2744396Y1498086D01*
X2744027Y1496608D01*
X2743731Y1494908D01*
X2743657Y1492912D01*
Y1476799D01*
X2760584D01*
Y1492025D01*
X2760510Y1492912D01*
X2760436Y1493947D01*
X2760362Y1495130D01*
X2760214Y1496312D01*
X2759992Y1497495D01*
X2759697Y1498530D01*
X2759623Y1498677D01*
X2759475Y1498973D01*
X2759253Y1499417D01*
X2758957Y1500008D01*
X2758514Y1500673D01*
X2757997Y1501338D01*
X2757331Y1502004D01*
X2756592Y1502521D01*
X2756518Y1502595D01*
X2756223Y1502743D01*
X2755779Y1502964D01*
X2755188Y1503260D01*
X2754523Y1503482D01*
X2753783Y1503704D01*
X2752896Y1503851D01*
X2752009Y1503925D01*
D02*
G37*
G36*
X3642013Y1055086D02*
X3629891D01*
Y1039712D01*
X3642456D01*
X3643417Y1039786D01*
X3644452Y1039860D01*
X3645486Y1039934D01*
X3646521Y1040082D01*
X3647334Y1040230D01*
X3647482Y1040303D01*
X3647778Y1040377D01*
X3648221Y1040599D01*
X3648813Y1040895D01*
X3649404Y1041190D01*
X3650069Y1041634D01*
X3650734Y1042225D01*
X3651252Y1042817D01*
X3651326Y1042890D01*
X3651474Y1043112D01*
X3651695Y1043556D01*
X3651917Y1044073D01*
X3652139Y1044664D01*
X3652360Y1045404D01*
X3652508Y1046291D01*
X3652582Y1047251D01*
Y1047399D01*
Y1047695D01*
X3652508Y1048138D01*
X3652434Y1048730D01*
X3652287Y1049469D01*
X3652065Y1050208D01*
X3651769Y1050947D01*
X3651326Y1051686D01*
X3651252Y1051760D01*
X3651104Y1051982D01*
X3650808Y1052351D01*
X3650439Y1052721D01*
X3649921Y1053165D01*
X3649330Y1053608D01*
X3648591Y1054051D01*
X3647778Y1054347D01*
X3647704D01*
X3647334Y1054495D01*
X3646817Y1054569D01*
X3646004Y1054717D01*
X3644895Y1054865D01*
X3643639Y1054938D01*
X3642013Y1055086D01*
D02*
G37*
G36*
X3643343Y1033651D02*
X3629891D01*
Y1016060D01*
X3644452D01*
X3646004Y1016134D01*
X3646669Y1016208D01*
X3647260Y1016281D01*
X3647334D01*
X3647630Y1016355D01*
X3648073Y1016429D01*
X3648591Y1016577D01*
X3649847Y1017021D01*
X3651104Y1017612D01*
X3651178Y1017686D01*
X3651400Y1017834D01*
X3651695Y1018055D01*
X3652065Y1018351D01*
X3652434Y1018795D01*
X3652952Y1019238D01*
X3653321Y1019829D01*
X3653765Y1020495D01*
X3653839Y1020568D01*
X3653913Y1020790D01*
X3654061Y1021234D01*
X3654282Y1021751D01*
X3654504Y1022342D01*
X3654652Y1023082D01*
X3654726Y1023968D01*
X3654800Y1024855D01*
Y1025003D01*
Y1025299D01*
X3654726Y1025890D01*
X3654578Y1026555D01*
X3654430Y1027295D01*
X3654134Y1028108D01*
X3653765Y1028921D01*
X3653247Y1029734D01*
X3653174Y1029808D01*
X3652952Y1030103D01*
X3652656Y1030473D01*
X3652213Y1030916D01*
X3651621Y1031434D01*
X3650882Y1031951D01*
X3650069Y1032395D01*
X3649108Y1032764D01*
X3648960Y1032838D01*
X3648665Y1032912D01*
X3648000Y1033060D01*
X3647187Y1033208D01*
X3646152Y1033356D01*
X3644895Y1033503D01*
X3643343Y1033651D01*
D02*
G37*
G36*
X3051750Y1218127D02*
X3051676D01*
X3051528D01*
X3051233D01*
X3050863Y1218053D01*
X3050420D01*
X3049902Y1217980D01*
X3048720Y1217758D01*
X3047389Y1217462D01*
X3045985Y1216945D01*
X3044654Y1216206D01*
X3043398Y1215245D01*
X3043250Y1215097D01*
X3042880Y1214727D01*
X3042437Y1214136D01*
X3041846Y1213323D01*
X3041254Y1212288D01*
X3040811Y1211106D01*
X3040441Y1209701D01*
X3040293Y1208149D01*
Y1207705D01*
X3040367Y1207410D01*
X3040441Y1206671D01*
X3040663Y1205636D01*
X3041033Y1204527D01*
X3041624Y1203271D01*
X3042363Y1202088D01*
X3043398Y1200905D01*
X3043546Y1200758D01*
X3043915Y1200462D01*
X3044580Y1199945D01*
X3045541Y1199427D01*
X3046650Y1198910D01*
X3048054Y1198392D01*
X3049607Y1198097D01*
X3051380Y1197949D01*
X3051528D01*
X3051898D01*
X3052563Y1198023D01*
X3053376Y1198097D01*
X3054337Y1198244D01*
X3055372Y1198540D01*
X3056481Y1198836D01*
X3057589Y1199279D01*
X3057737Y1199353D01*
X3058107Y1199575D01*
X3058624Y1199871D01*
X3059289Y1200314D01*
X3059955Y1200831D01*
X3060768Y1201497D01*
X3061433Y1202236D01*
X3062098Y1203123D01*
X3062172Y1203271D01*
X3062320Y1203566D01*
X3062615Y1204084D01*
X3062837Y1204749D01*
X3063133Y1205488D01*
X3063428Y1206375D01*
X3063576Y1207336D01*
X3063650Y1208371D01*
Y1208740D01*
X3063576Y1209036D01*
X3063502Y1209775D01*
X3063281Y1210736D01*
X3062837Y1211771D01*
X3062320Y1212953D01*
X3061507Y1214136D01*
X3061063Y1214727D01*
X3060472Y1215245D01*
X3060398D01*
X3060324Y1215393D01*
X3059881Y1215688D01*
X3059141Y1216132D01*
X3058181Y1216723D01*
X3056924Y1217240D01*
X3055446Y1217684D01*
X3053746Y1217980D01*
X3051750Y1218127D01*
D02*
G37*
G36*
X2427397Y547083D02*
X2426953D01*
X2426658Y547009D01*
X2425845Y546861D01*
X2424884Y546640D01*
X2423775Y546196D01*
X2422593Y545531D01*
X2422001Y545088D01*
X2421410Y544644D01*
X2420893Y544053D01*
X2420375Y543388D01*
Y543314D01*
X2420227Y543166D01*
X2420079Y542870D01*
X2419858Y542501D01*
X2419636Y541909D01*
X2419340Y541244D01*
X2419119Y540431D01*
X2418823Y539470D01*
X2418527Y538361D01*
X2418232Y537105D01*
X2417936Y535700D01*
X2417714Y534148D01*
X2417492Y532374D01*
X2417345Y530453D01*
X2417271Y528383D01*
X2417197Y526092D01*
Y525944D01*
Y525574D01*
Y524909D01*
X2417271Y524022D01*
Y523061D01*
X2417345Y521879D01*
X2417419Y520622D01*
X2417566Y519292D01*
X2417936Y516409D01*
X2418158Y515005D01*
X2418453Y513674D01*
X2418749Y512418D01*
X2419193Y511235D01*
X2419636Y510200D01*
X2420153Y509313D01*
Y509239D01*
X2420301Y509165D01*
X2420671Y508648D01*
X2421336Y507983D01*
X2422149Y507244D01*
X2423258Y506504D01*
X2424514Y505839D01*
X2425919Y505322D01*
X2426658Y505248D01*
X2427471Y505174D01*
X2427914D01*
X2428210Y505248D01*
X2428949Y505396D01*
X2429984Y505691D01*
X2431093Y506209D01*
X2432349Y506948D01*
X2432941Y507391D01*
X2433532Y507983D01*
X2434123Y508574D01*
X2434714Y509313D01*
Y509387D01*
X2434862Y509535D01*
X2435010Y509757D01*
X2435158Y510126D01*
X2435454Y510644D01*
X2435675Y511309D01*
X2435971Y512048D01*
X2436267Y512935D01*
X2436488Y514044D01*
X2436784Y515226D01*
X2437080Y516631D01*
X2437301Y518109D01*
X2437449Y519883D01*
X2437597Y521731D01*
X2437745Y523800D01*
Y526092D01*
Y526166D01*
Y526239D01*
Y526609D01*
Y527274D01*
X2437671Y528161D01*
Y529122D01*
X2437597Y530305D01*
X2437523Y531561D01*
X2437375Y532966D01*
X2437006Y535774D01*
X2436784Y537179D01*
X2436488Y538509D01*
X2436193Y539766D01*
X2435749Y540948D01*
X2435306Y541983D01*
X2434788Y542870D01*
Y542944D01*
X2434641Y543018D01*
X2434493Y543240D01*
X2434271Y543535D01*
X2433606Y544201D01*
X2432793Y545014D01*
X2431684Y545753D01*
X2430427Y546418D01*
X2429762Y546714D01*
X2429023Y546935D01*
X2428210Y547009D01*
X2427397Y547083D01*
D02*
G37*
G36*
X4071104Y3691834D02*
X4054991Y3668921D01*
X4071104D01*
Y3691834D01*
D02*
G37*
G36*
X2044598Y1765024D02*
X2044155D01*
X2043859Y1764950D01*
X2043046Y1764876D01*
X2042085Y1764655D01*
X2040902Y1764285D01*
X2039720Y1763768D01*
X2038537Y1763028D01*
X2037428Y1761994D01*
X2037281Y1761846D01*
X2036985Y1761402D01*
X2036542Y1760737D01*
X2035950Y1759776D01*
X2035433Y1758594D01*
X2034989Y1757189D01*
X2034694Y1755489D01*
X2034546Y1753567D01*
Y1753494D01*
Y1753346D01*
Y1753050D01*
X2034620Y1752681D01*
Y1752163D01*
X2034694Y1751646D01*
X2034915Y1750463D01*
X2035211Y1749059D01*
X2035728Y1747580D01*
X2036468Y1746176D01*
X2037428Y1744920D01*
Y1744846D01*
X2037576Y1744772D01*
X2037946Y1744402D01*
X2038537Y1743885D01*
X2039350Y1743293D01*
X2040385Y1742776D01*
X2041568Y1742259D01*
X2042898Y1741889D01*
X2043637Y1741741D01*
X2044820D01*
X2045116Y1741815D01*
X2045929Y1741889D01*
X2046889Y1742185D01*
X2048072Y1742554D01*
X2049329Y1743220D01*
X2050585Y1744033D01*
X2051176Y1744624D01*
X2051768Y1745215D01*
Y1745289D01*
X2051916Y1745363D01*
X2052063Y1745585D01*
X2052211Y1745807D01*
X2052729Y1746546D01*
X2053246Y1747580D01*
X2053837Y1748837D01*
X2054355Y1750389D01*
X2054650Y1752163D01*
X2054798Y1754085D01*
Y1754159D01*
Y1754307D01*
Y1754528D01*
X2054724Y1754898D01*
Y1755341D01*
X2054650Y1755785D01*
X2054429Y1756894D01*
X2054059Y1758150D01*
X2053616Y1759481D01*
X2052877Y1760811D01*
X2051916Y1761994D01*
X2051768Y1762142D01*
X2051398Y1762437D01*
X2050733Y1762955D01*
X2049920Y1763472D01*
X2048811Y1764063D01*
X2047555Y1764581D01*
X2046150Y1764876D01*
X2044598Y1765024D01*
D02*
G37*
G36*
X2143199Y1781877D02*
X2131078D01*
X2130560Y1781803D01*
X2129451Y1781729D01*
X2128195Y1781655D01*
X2126864Y1781507D01*
X2125534Y1781285D01*
X2124425Y1780990D01*
X2124277Y1780916D01*
X2123908Y1780842D01*
X2123390Y1780620D01*
X2122725Y1780324D01*
X2121986Y1779881D01*
X2121247Y1779437D01*
X2120508Y1778920D01*
X2119769Y1778329D01*
X2119695Y1778181D01*
X2119399Y1777885D01*
X2118956Y1777368D01*
X2118438Y1776629D01*
X2117847Y1775668D01*
X2117182Y1774559D01*
X2116590Y1773303D01*
X2116073Y1771898D01*
Y1771824D01*
X2115999Y1771676D01*
X2115925Y1771455D01*
X2115851Y1771159D01*
X2115777Y1770789D01*
X2115629Y1770272D01*
X2115482Y1769755D01*
X2115334Y1769163D01*
X2115112Y1767685D01*
X2114890Y1765985D01*
X2114743Y1764063D01*
X2114669Y1761994D01*
Y1761920D01*
Y1761624D01*
Y1761255D01*
X2114743Y1760663D01*
Y1759998D01*
X2114816Y1759259D01*
X2114890Y1758372D01*
X2114964Y1757485D01*
X2115334Y1755489D01*
X2115777Y1753420D01*
X2116443Y1751498D01*
X2116886Y1750537D01*
X2117330Y1749724D01*
Y1749650D01*
X2117477Y1749502D01*
X2117625Y1749280D01*
X2117773Y1748985D01*
X2118364Y1748246D01*
X2119103Y1747359D01*
X2120064Y1746398D01*
X2121173Y1745437D01*
X2122430Y1744624D01*
X2123760Y1743959D01*
X2123908Y1743885D01*
X2124277Y1743811D01*
X2124943Y1743589D01*
X2125904Y1743367D01*
X2127086Y1743220D01*
X2128564Y1742998D01*
X2129451Y1742924D01*
X2130412D01*
X2131373Y1742850D01*
X2143199D01*
Y1781877D01*
D02*
G37*
G36*
X1974674Y226201D02*
X1974230D01*
X1973935Y226127D01*
X1973122Y226053D01*
X1972161Y225831D01*
X1970978Y225462D01*
X1969795Y224944D01*
X1968613Y224205D01*
X1967504Y223170D01*
X1967356Y223023D01*
X1967061Y222579D01*
X1966617Y221914D01*
X1966026Y220953D01*
X1965508Y219770D01*
X1965065Y218366D01*
X1964769Y216666D01*
X1964621Y214744D01*
Y214670D01*
Y214523D01*
Y214227D01*
X1964695Y213857D01*
Y213340D01*
X1964769Y212823D01*
X1964991Y211640D01*
X1965287Y210236D01*
X1965804Y208757D01*
X1966543Y207353D01*
X1967504Y206096D01*
Y206022D01*
X1967652Y205949D01*
X1968021Y205579D01*
X1968613Y205062D01*
X1969426Y204470D01*
X1970461Y203953D01*
X1971643Y203435D01*
X1972974Y203066D01*
X1973713Y202918D01*
X1974895D01*
X1975191Y202992D01*
X1976004Y203066D01*
X1976965Y203362D01*
X1978148Y203731D01*
X1979404Y204396D01*
X1980661Y205209D01*
X1981252Y205801D01*
X1981843Y206392D01*
Y206466D01*
X1981991Y206540D01*
X1982139Y206762D01*
X1982287Y206983D01*
X1982804Y207722D01*
X1983322Y208757D01*
X1983913Y210014D01*
X1984430Y211566D01*
X1984726Y213340D01*
X1984874Y215262D01*
Y215336D01*
Y215483D01*
Y215705D01*
X1984800Y216075D01*
Y216518D01*
X1984726Y216962D01*
X1984504Y218070D01*
X1984135Y219327D01*
X1983691Y220657D01*
X1982952Y221988D01*
X1981991Y223170D01*
X1981843Y223318D01*
X1981474Y223614D01*
X1980809Y224131D01*
X1979996Y224649D01*
X1978887Y225240D01*
X1977630Y225757D01*
X1976226Y226053D01*
X1974674Y226201D01*
D02*
G37*
G36*
X2073201Y220584D02*
X2057975D01*
X2057088Y220510D01*
X2056053Y220436D01*
X2054870Y220362D01*
X2053688Y220214D01*
X2052505Y219992D01*
X2051470Y219697D01*
X2051323Y219623D01*
X2051027Y219475D01*
X2050583Y219253D01*
X2049992Y218957D01*
X2049327Y218514D01*
X2048662Y217997D01*
X2047996Y217331D01*
X2047479Y216592D01*
X2047405Y216518D01*
X2047257Y216223D01*
X2047036Y215779D01*
X2046740Y215188D01*
X2046518Y214523D01*
X2046296Y213783D01*
X2046149Y212896D01*
X2046075Y212009D01*
Y211936D01*
Y211862D01*
X2046149Y211418D01*
X2046222Y210753D01*
X2046370Y209866D01*
X2046740Y208979D01*
X2047183Y207944D01*
X2047849Y206983D01*
X2048736Y206022D01*
X2048883Y205949D01*
X2049253Y205653D01*
X2049844Y205283D01*
X2050805Y204840D01*
X2051914Y204396D01*
X2053392Y204027D01*
X2055092Y203731D01*
X2057088Y203657D01*
X2073201D01*
Y220584D01*
D02*
G37*
%LPD*%
D56*
X7652436Y4372152D02*
X8457436D01*
Y1292152D02*
Y4372152D01*
X7652436Y1292152D02*
X8457436D01*
X7652436D02*
Y4372152D01*
X3251465Y455000D02*
Y845000D01*
Y455000D02*
X3748536D01*
Y845000D01*
X3251465D02*
X3748536D01*
X4112500Y4185001D02*
X4207500Y4185000D01*
X4112500Y4355000D02*
X4207500D01*
X4112500Y4185001D02*
Y4355000D01*
X4207500Y4185000D02*
X4207500Y4355000D01*
X3144589Y1900000D02*
X3655411D01*
Y1500000D02*
Y1900000D01*
X3144589Y1500000D02*
X3655411D01*
X3144589D02*
Y1900000D01*
X1570000Y1565000D02*
Y1875000D01*
X1250000Y1565000D02*
X1570000D01*
X1250000D02*
Y1875000D01*
X1570000D01*
X2712500Y820000D02*
Y1170000D01*
X2867500D01*
Y820000D02*
Y1170000D01*
X2712500Y820000D02*
X2867500D01*
X2350000Y3232268D02*
Y3622888D01*
X2150000Y3232268D02*
X2350000D01*
X2150000D02*
Y3622888D01*
X2350000D01*
X2982500Y1307089D02*
Y1532911D01*
X3097500D01*
Y1307089D02*
Y1532911D01*
X2982500Y1307089D02*
X3097500D01*
X1925000Y787700D02*
X2575000D01*
Y1437700D01*
X1925000D02*
X2575000D01*
X1925000Y787700D02*
Y1437700D01*
X1935000Y797700D02*
X2565000D01*
Y1427700D01*
X1935000D02*
X2565000D01*
X1935000Y797700D02*
Y1427700D01*
X2710000Y1337089D02*
Y1602911D01*
X2870000D01*
Y1337089D02*
Y1602911D01*
X2710000Y1337089D02*
X2870000D01*
X735000Y4215000D02*
Y4385000D01*
Y4215000D02*
X1015000D01*
Y4385000D01*
X735000D02*
X1015000D01*
X3387089Y1112911D02*
X3772911D01*
Y907089D02*
Y1112911D01*
X3387089Y907089D02*
X3772911D01*
X3387089D02*
Y1112911D01*
X1420000Y140000D02*
X1900000D01*
X1420000D02*
Y360000D01*
X1900000D01*
Y140000D02*
Y360000D01*
X2292500Y270000D02*
Y430000D01*
Y270000D02*
X2632500D01*
Y430000D01*
X2292500D02*
X2632500D01*
X2992500Y1027089D02*
Y1252911D01*
X3107500D01*
Y1027089D02*
Y1252911D01*
X2992500Y1027089D02*
X3107500D01*
X3712500Y1597089D02*
X3827500D01*
Y1822911D01*
X3712500D02*
X3827500D01*
X3712500Y1597089D02*
Y1822911D01*
X2290000Y630000D02*
X2630000D01*
Y470000D02*
Y630000D01*
X2290000Y470000D02*
X2630000D01*
X2290000D02*
Y630000D01*
X3804690Y3550000D02*
Y3750000D01*
Y3550000D02*
X4195310D01*
Y3750000D01*
X3804690D02*
X4195310D01*
X2325000Y1692500D02*
Y1847500D01*
X1975000D02*
X2325000D01*
X1975000Y1692500D02*
Y1847500D01*
Y1692500D02*
X2325000D01*
X1947089Y170000D02*
X2212911D01*
X1947089D02*
Y330000D01*
X2212911D01*
Y170000D02*
Y330000D01*
X2702245Y4601426D02*
X2702246Y4771427D01*
X2797245Y4601426D02*
Y4771426D01*
X2702245Y4601426D02*
X2797245D01*
X2702246Y4771427D02*
X2797245Y4771426D01*
X2682500Y4015000D02*
X2777500Y4015000D01*
X2682500Y3845000D02*
X2777500D01*
Y4015000D01*
X2682500Y3845000D02*
X2682500Y4015000D01*
X3395000Y3802500D02*
X3395000Y3897500D01*
X3565000Y3802500D02*
Y3897500D01*
X3395000D02*
X3565000D01*
X3395000Y3802500D02*
X3565000Y3802500D01*
X4112501Y4735000D02*
X4207500Y4735000D01*
X4112500Y4565000D02*
X4207500D01*
Y4735000D01*
X4112500Y4565000D02*
X4112501Y4735000D01*
X4112500Y3805001D02*
X4207500Y3805000D01*
X4112500Y3975000D02*
X4207500D01*
X4112500Y3805001D02*
Y3975000D01*
X4207500Y3805000D02*
X4207500Y3975000D01*
X5025000Y3812500D02*
X5025000Y3907500D01*
X5195000Y3812500D02*
Y3907500D01*
X5025000D02*
X5195000D01*
X5025000Y3812500D02*
X5195000Y3812500D01*
X2682500Y3225000D02*
X2682500Y3395000D01*
X2777500Y3225000D02*
Y3395000D01*
X2682500Y3225000D02*
X2777500D01*
X2682500Y3395000D02*
X2777500Y3395000D01*
X2682500Y3005000D02*
X2777500Y3005000D01*
X2682500Y2835000D02*
X2777500D01*
Y3005000D01*
X2682500Y2835000D02*
X2682500Y3005000D01*
X2682500Y2625000D02*
X2777500Y2625000D01*
X2682500Y2455000D02*
X2777500D01*
Y2625000D01*
X2682500Y2455000D02*
X2682500Y2625000D01*
X3472500Y2370000D02*
X3642500Y2370000D01*
X3472500Y2465000D02*
X3642500D01*
Y2370000D02*
Y2465000D01*
X3472500Y2370000D02*
X3472500Y2465000D01*
X4192500Y3135000D02*
X4192500Y3305000D01*
X4287500Y3135000D02*
Y3305000D01*
X4192500Y3135000D02*
X4287500D01*
X4192500Y3305000D02*
X4287500Y3305000D01*
X4202500Y2765000D02*
X4202501Y2935000D01*
X4297500Y2765000D02*
Y2935000D01*
X4202500Y2765000D02*
X4297500D01*
X4202501Y2935000D02*
X4297500Y2935000D01*
X4212500Y2355000D02*
X4212501Y2525000D01*
X4307500Y2355000D02*
Y2525000D01*
X4212500Y2355000D02*
X4307500D01*
X4212501Y2525000D02*
X4307500Y2525000D01*
X4725000Y2412500D02*
X4895000Y2412500D01*
X4725000Y2507500D02*
X4895000D01*
Y2412500D02*
Y2507500D01*
X4725000Y2412500D02*
X4725000Y2507500D01*
X2662500Y4230000D02*
X2757499Y4230000D01*
X2662500Y4400000D02*
X2757500D01*
X2662500Y4230000D02*
Y4400000D01*
X2757499Y4230000D02*
X2757500Y4400000D01*
%TF.MD5,a94b43dd09690c84523a2d48739d6610*%
M02*
