%TF.GenerationSoftware,Altium Limited,Altium Designer,26.6.0 (10)*%
G04 Layer_Color=16711935*
G04 Board_Origin=29350000|14702756*
%FSLAX45Y45*%
%MOMM*%
%TF.SameCoordinates,FF19D583-8477-4E59-B826-EB9FC0F50DB0*%
%TF.FilePolarity,Positive*%
%TF.FileFunction,Other,Mechanical_29*%
%TF.Part,Single*%
G01*
G75*
%TA.AperFunction,NonConductor*%
%ADD56C,0.20000*%
%ADD91R,3.95000X0.37500*%
G36*
X1627252Y508392D02*
X1627178Y508318D01*
X1627030Y508170D01*
X1626734Y507874D01*
X1626439Y507431D01*
X1625995Y506913D01*
X1625404Y506322D01*
X1624813Y505583D01*
X1624147Y504696D01*
X1623482Y503809D01*
X1622669Y502774D01*
X1621856Y501592D01*
X1621043Y500409D01*
X1620156Y499079D01*
X1619269Y497674D01*
X1618382Y496122D01*
X1617495Y494570D01*
X1617421Y494496D01*
X1617273Y494200D01*
X1617052Y493757D01*
X1616682Y493091D01*
X1616312Y492278D01*
X1615869Y491391D01*
X1615352Y490357D01*
X1614834Y489174D01*
X1614243Y487844D01*
X1613578Y486513D01*
X1612986Y485035D01*
X1612395Y483483D01*
X1611212Y480304D01*
X1610104Y476904D01*
Y476830D01*
X1610030Y476609D01*
X1609956Y476239D01*
X1609808Y475796D01*
X1609660Y475204D01*
X1609512Y474465D01*
X1609291Y473652D01*
X1609143Y472765D01*
X1608921Y471730D01*
X1608699Y470622D01*
X1608330Y468256D01*
X1607960Y465669D01*
X1607738Y462861D01*
X1601308D01*
Y462935D01*
Y463156D01*
Y463452D01*
X1601382Y463895D01*
Y464487D01*
X1601456Y465226D01*
X1601530Y466039D01*
X1601604Y466926D01*
X1601751Y467961D01*
X1601899Y468996D01*
X1602121Y470252D01*
X1602343Y471509D01*
X1602564Y472839D01*
X1602860Y474317D01*
X1603599Y477348D01*
Y477422D01*
X1603673Y477717D01*
X1603821Y478161D01*
X1604043Y478826D01*
X1604265Y479565D01*
X1604560Y480452D01*
X1604856Y481487D01*
X1605299Y482596D01*
X1605743Y483852D01*
X1606186Y485109D01*
X1607295Y487917D01*
X1608625Y490874D01*
X1610104Y493831D01*
X1610178Y493905D01*
X1610325Y494200D01*
X1610547Y494570D01*
X1610843Y495161D01*
X1611212Y495826D01*
X1611730Y496639D01*
X1612247Y497526D01*
X1612839Y498487D01*
X1614243Y500631D01*
X1615721Y502848D01*
X1617421Y505139D01*
X1619195Y507283D01*
X1594138D01*
Y513344D01*
X1627252D01*
Y508392D01*
D02*
G37*
G36*
X1577582Y462861D02*
X1571299D01*
Y502848D01*
X1571225Y502774D01*
X1570855Y502479D01*
X1570412Y502035D01*
X1569673Y501518D01*
X1568860Y500852D01*
X1567825Y500113D01*
X1566642Y499300D01*
X1565312Y498487D01*
X1565238D01*
X1565164Y498413D01*
X1564721Y498118D01*
X1563981Y497748D01*
X1563094Y497305D01*
X1562060Y496787D01*
X1560951Y496270D01*
X1559842Y495752D01*
X1558733Y495309D01*
Y501370D01*
X1558807D01*
X1558955Y501518D01*
X1559251Y501592D01*
X1559620Y501813D01*
X1560064Y502035D01*
X1560581Y502331D01*
X1561838Y503070D01*
X1563316Y503883D01*
X1564794Y504918D01*
X1566347Y506100D01*
X1567899Y507357D01*
X1567973Y507431D01*
X1568047Y507505D01*
X1568268Y507726D01*
X1568564Y507948D01*
X1569229Y508687D01*
X1570116Y509574D01*
X1571003Y510609D01*
X1571964Y511792D01*
X1572777Y512974D01*
X1573516Y514231D01*
X1577582D01*
Y462861D01*
D02*
G37*
G36*
X1529316Y513935D02*
X1529981D01*
X1531533Y513861D01*
X1533159Y513640D01*
X1534933Y513418D01*
X1536559Y513048D01*
X1537372Y512827D01*
X1538038Y512605D01*
X1538111D01*
X1538185Y512531D01*
X1538629Y512309D01*
X1539294Y512013D01*
X1540107Y511496D01*
X1540994Y510831D01*
X1541955Y509944D01*
X1542842Y508909D01*
X1543729Y507726D01*
Y507653D01*
X1543803Y507579D01*
X1544099Y507135D01*
X1544394Y506396D01*
X1544838Y505435D01*
X1545207Y504326D01*
X1545577Y502996D01*
X1545799Y501592D01*
X1545872Y500039D01*
Y499965D01*
Y499818D01*
Y499522D01*
X1545799Y499152D01*
Y498635D01*
X1545725Y498118D01*
X1545429Y496861D01*
X1544985Y495383D01*
X1544394Y493831D01*
X1543507Y492278D01*
X1542916Y491539D01*
X1542325Y490800D01*
X1542251Y490726D01*
X1542177Y490652D01*
X1541955Y490431D01*
X1541659Y490209D01*
X1541290Y489913D01*
X1540846Y489618D01*
X1540255Y489248D01*
X1539664Y488804D01*
X1538925Y488435D01*
X1538111Y488065D01*
X1537225Y487622D01*
X1536264Y487252D01*
X1535155Y486957D01*
X1534046Y486587D01*
X1532790Y486365D01*
X1531459Y486144D01*
X1531607Y486070D01*
X1531903Y485922D01*
X1532346Y485626D01*
X1532937Y485330D01*
X1534268Y484517D01*
X1534933Y484000D01*
X1535524Y483557D01*
X1535672Y483409D01*
X1536042Y483039D01*
X1536633Y482448D01*
X1537372Y481709D01*
X1538185Y480674D01*
X1539146Y479565D01*
X1540107Y478235D01*
X1541142Y476756D01*
X1549938Y462861D01*
X1541512D01*
X1534785Y473504D01*
Y473578D01*
X1534638Y473726D01*
X1534490Y473948D01*
X1534268Y474243D01*
X1533751Y475056D01*
X1533085Y476091D01*
X1532272Y477200D01*
X1531459Y478383D01*
X1530646Y479491D01*
X1529907Y480526D01*
X1529833Y480600D01*
X1529611Y480896D01*
X1529242Y481339D01*
X1528724Y481857D01*
X1527616Y482965D01*
X1527024Y483483D01*
X1526433Y483926D01*
X1526359Y484000D01*
X1526211Y484074D01*
X1525916Y484222D01*
X1525472Y484444D01*
X1525029Y484665D01*
X1524511Y484887D01*
X1523329Y485257D01*
X1523255D01*
X1523107Y485330D01*
X1522811D01*
X1522442Y485404D01*
X1521924Y485478D01*
X1521333D01*
X1520520Y485552D01*
X1511798D01*
Y462861D01*
X1504998D01*
Y514009D01*
X1528724D01*
X1529316Y513935D01*
D02*
G37*
G36*
X1413648Y1127840D02*
X1413575Y1126510D01*
X1413501Y1125031D01*
X1413353Y1123553D01*
X1413131Y1122075D01*
X1412909Y1120818D01*
Y1120744D01*
X1412835Y1120596D01*
Y1120375D01*
X1412688Y1120079D01*
X1412466Y1119266D01*
X1412096Y1118231D01*
X1411579Y1117049D01*
X1410914Y1115792D01*
X1410174Y1114535D01*
X1409214Y1113353D01*
X1409140Y1113279D01*
X1409066Y1113205D01*
X1408844Y1112983D01*
X1408622Y1112688D01*
X1407883Y1111948D01*
X1406848Y1111062D01*
X1405592Y1110101D01*
X1404114Y1109066D01*
X1402414Y1108105D01*
X1400492Y1107292D01*
X1400418D01*
X1400270Y1107218D01*
X1399974Y1107070D01*
X1399531Y1106996D01*
X1399013Y1106775D01*
X1398422Y1106627D01*
X1397757Y1106479D01*
X1396944Y1106257D01*
X1396131Y1106035D01*
X1395170Y1105888D01*
X1393100Y1105518D01*
X1390809Y1105296D01*
X1388296Y1105222D01*
X1388222D01*
X1388074D01*
X1387705D01*
X1387335D01*
X1386818Y1105296D01*
X1386226D01*
X1384822Y1105370D01*
X1383196Y1105592D01*
X1381496Y1105814D01*
X1379722Y1106183D01*
X1377948Y1106627D01*
X1377874D01*
X1377726Y1106701D01*
X1377504Y1106775D01*
X1377209Y1106848D01*
X1376396Y1107144D01*
X1375361Y1107588D01*
X1374178Y1108031D01*
X1372996Y1108622D01*
X1371739Y1109362D01*
X1370557Y1110101D01*
X1370409Y1110175D01*
X1370039Y1110470D01*
X1369522Y1110914D01*
X1368857Y1111505D01*
X1368117Y1112170D01*
X1367378Y1112983D01*
X1366565Y1113796D01*
X1365900Y1114757D01*
X1365826Y1114905D01*
X1365604Y1115201D01*
X1365309Y1115718D01*
X1364939Y1116457D01*
X1364496Y1117344D01*
X1364126Y1118379D01*
X1363683Y1119562D01*
X1363313Y1120892D01*
Y1121040D01*
X1363239Y1121262D01*
X1363165Y1121483D01*
X1363091Y1122223D01*
X1362943Y1123257D01*
X1362796Y1124440D01*
X1362648Y1125844D01*
X1362574Y1127397D01*
X1362500Y1129097D01*
Y1147501D01*
X1413648D01*
Y1127840D01*
D02*
G37*
G36*
X1401009Y1093618D02*
X1401157Y1093470D01*
X1401231Y1093174D01*
X1401453Y1092805D01*
X1401674Y1092361D01*
X1401970Y1091844D01*
X1402709Y1090587D01*
X1403522Y1089109D01*
X1404557Y1087631D01*
X1405740Y1086079D01*
X1406996Y1084526D01*
X1407070Y1084452D01*
X1407144Y1084379D01*
X1407366Y1084157D01*
X1407587Y1083861D01*
X1408327Y1083196D01*
X1409214Y1082309D01*
X1410248Y1081422D01*
X1411431Y1080461D01*
X1412614Y1079648D01*
X1413870Y1078909D01*
Y1074844D01*
X1362500D01*
Y1081126D01*
X1402487D01*
X1402414Y1081200D01*
X1402118Y1081570D01*
X1401674Y1082013D01*
X1401157Y1082752D01*
X1400492Y1083566D01*
X1399753Y1084600D01*
X1398940Y1085783D01*
X1398126Y1087113D01*
Y1087187D01*
X1398053Y1087261D01*
X1397757Y1087705D01*
X1397387Y1088444D01*
X1396944Y1089331D01*
X1396426Y1090366D01*
X1395909Y1091474D01*
X1395392Y1092583D01*
X1394948Y1093692D01*
X1401009D01*
Y1093618D01*
D02*
G37*
G36*
X1412983Y1025173D02*
X1408031D01*
X1407957Y1025247D01*
X1407809Y1025395D01*
X1407514Y1025691D01*
X1407070Y1025987D01*
X1406553Y1026430D01*
X1405961Y1027021D01*
X1405222Y1027613D01*
X1404335Y1028278D01*
X1403448Y1028943D01*
X1402414Y1029756D01*
X1401231Y1030569D01*
X1400048Y1031382D01*
X1398718Y1032269D01*
X1397313Y1033156D01*
X1395761Y1034043D01*
X1394209Y1034930D01*
X1394135Y1035004D01*
X1393839Y1035152D01*
X1393396Y1035374D01*
X1392731Y1035743D01*
X1391918Y1036113D01*
X1391031Y1036556D01*
X1389996Y1037074D01*
X1388813Y1037591D01*
X1387483Y1038182D01*
X1386152Y1038848D01*
X1384674Y1039439D01*
X1383122Y1040030D01*
X1379944Y1041213D01*
X1376544Y1042322D01*
X1376470D01*
X1376248Y1042395D01*
X1375878Y1042469D01*
X1375435Y1042617D01*
X1374844Y1042765D01*
X1374104Y1042913D01*
X1373291Y1043135D01*
X1372404Y1043282D01*
X1371370Y1043504D01*
X1370261Y1043726D01*
X1367896Y1044095D01*
X1365309Y1044465D01*
X1362500Y1044687D01*
Y1051117D01*
X1362574D01*
X1362796D01*
X1363091D01*
X1363535Y1051043D01*
X1364126D01*
X1364865Y1050969D01*
X1365678Y1050896D01*
X1366565Y1050822D01*
X1367600Y1050674D01*
X1368635Y1050526D01*
X1369891Y1050304D01*
X1371148Y1050082D01*
X1372478Y1049861D01*
X1373957Y1049565D01*
X1376987Y1048826D01*
X1377061D01*
X1377357Y1048752D01*
X1377800Y1048604D01*
X1378465Y1048382D01*
X1379205Y1048161D01*
X1380091Y1047865D01*
X1381126Y1047569D01*
X1382235Y1047126D01*
X1383492Y1046682D01*
X1384748Y1046239D01*
X1387557Y1045130D01*
X1390513Y1043800D01*
X1393470Y1042322D01*
X1393544Y1042248D01*
X1393839Y1042100D01*
X1394209Y1041878D01*
X1394800Y1041582D01*
X1395466Y1041213D01*
X1396279Y1040695D01*
X1397166Y1040178D01*
X1398126Y1039587D01*
X1400270Y1038182D01*
X1402487Y1036704D01*
X1404779Y1035004D01*
X1406922Y1033230D01*
Y1058287D01*
X1412983D01*
Y1025173D01*
D02*
G37*
G36*
X482165Y1314811D02*
X482091D01*
X481943D01*
X481647D01*
X481204Y1314737D01*
X480761Y1314663D01*
X480243D01*
X478987Y1314441D01*
X477656Y1314219D01*
X476326Y1313776D01*
X475143Y1313332D01*
X474626Y1313037D01*
X474182Y1312667D01*
X474108Y1312593D01*
X473887Y1312298D01*
X473517Y1311854D01*
X473147Y1311263D01*
X472704Y1310450D01*
X472408Y1309563D01*
X472113Y1308454D01*
X472039Y1307271D01*
Y1306828D01*
X472113Y1306384D01*
X472187Y1305719D01*
X472334Y1305054D01*
X472482Y1304315D01*
X472778Y1303576D01*
X473147Y1302837D01*
X473221Y1302763D01*
X473369Y1302541D01*
X473665Y1302245D01*
X473960Y1301802D01*
X474478Y1301432D01*
X474995Y1300989D01*
X475587Y1300619D01*
X476326Y1300324D01*
X476400D01*
X476695Y1300176D01*
X477213Y1300102D01*
X477878Y1299954D01*
X478765Y1299806D01*
X479874Y1299732D01*
X481204Y1299584D01*
X482756D01*
X518013D01*
Y1292784D01*
X483126D01*
X483052D01*
X482830D01*
X482534D01*
X482091D01*
X481500Y1292858D01*
X480908D01*
X479504Y1293006D01*
X477878Y1293154D01*
X476178Y1293450D01*
X474626Y1293893D01*
X473147Y1294410D01*
X473073D01*
X473000Y1294484D01*
X472556Y1294706D01*
X471965Y1295076D01*
X471152Y1295593D01*
X470339Y1296332D01*
X469452Y1297145D01*
X468565Y1298180D01*
X467826Y1299363D01*
X467752Y1299510D01*
X467530Y1299954D01*
X467234Y1300619D01*
X466939Y1301580D01*
X466569Y1302763D01*
X466273Y1304093D01*
X466052Y1305571D01*
X465978Y1307198D01*
Y1307863D01*
X466052Y1308306D01*
X466126Y1308898D01*
X466199Y1309489D01*
X466495Y1311041D01*
X466939Y1312667D01*
X467604Y1314367D01*
X468047Y1315254D01*
X468565Y1316067D01*
X469156Y1316806D01*
X469821Y1317545D01*
X469895Y1317619D01*
X469969Y1317693D01*
X470265Y1317841D01*
X470560Y1318063D01*
X470930Y1318359D01*
X471447Y1318654D01*
X472039Y1318950D01*
X472704Y1319319D01*
X473443Y1319615D01*
X474330Y1319911D01*
X475217Y1320206D01*
X476252Y1320502D01*
X477360Y1320650D01*
X478617Y1320872D01*
X479874Y1320946D01*
X481278D01*
X482165Y1314811D01*
D02*
G37*
G36*
X481204Y1277928D02*
X481130D01*
X480982Y1277854D01*
X480687Y1277780D01*
X480317Y1277706D01*
X479874Y1277632D01*
X479356Y1277484D01*
X478247Y1277115D01*
X476917Y1276597D01*
X475660Y1275932D01*
X474478Y1275193D01*
X473443Y1274306D01*
X473369Y1274158D01*
X473073Y1273862D01*
X472704Y1273271D01*
X472334Y1272532D01*
X471891Y1271645D01*
X471521Y1270536D01*
X471226Y1269280D01*
X471152Y1267949D01*
Y1267506D01*
X471226Y1267210D01*
X471300Y1266397D01*
X471521Y1265362D01*
X471891Y1264180D01*
X472408Y1262923D01*
X473147Y1261667D01*
X474182Y1260484D01*
X474330Y1260336D01*
X474773Y1259966D01*
X475439Y1259523D01*
X476326Y1258932D01*
X477434Y1258340D01*
X478691Y1257897D01*
X480169Y1257527D01*
X481795Y1257380D01*
X481869D01*
X482017D01*
X482239D01*
X482534Y1257453D01*
X483348Y1257527D01*
X484308Y1257749D01*
X485491Y1258045D01*
X486674Y1258562D01*
X487856Y1259301D01*
X488965Y1260262D01*
X489113Y1260410D01*
X489408Y1260780D01*
X489852Y1261371D01*
X490369Y1262184D01*
X490887Y1263219D01*
X491330Y1264475D01*
X491626Y1265880D01*
X491774Y1267432D01*
Y1268097D01*
X491700Y1268614D01*
X491626Y1269280D01*
X491478Y1270019D01*
X491330Y1270906D01*
X491108Y1271867D01*
X496652Y1271128D01*
Y1270758D01*
X496578Y1270462D01*
Y1269501D01*
X496726Y1268688D01*
X496874Y1267727D01*
X497096Y1266619D01*
X497465Y1265362D01*
X497982Y1264180D01*
X498648Y1262923D01*
Y1262849D01*
X498722Y1262775D01*
X499017Y1262406D01*
X499535Y1261888D01*
X500200Y1261297D01*
X501161Y1260706D01*
X502270Y1260188D01*
X503526Y1259819D01*
X504265Y1259671D01*
X505078D01*
X505152D01*
X505226D01*
X505670D01*
X506261Y1259819D01*
X507074Y1259966D01*
X507961Y1260262D01*
X508922Y1260632D01*
X509883Y1261223D01*
X510770Y1262036D01*
X510844Y1262110D01*
X511139Y1262480D01*
X511509Y1262997D01*
X511952Y1263662D01*
X512322Y1264549D01*
X512691Y1265584D01*
X512987Y1266767D01*
X513061Y1268097D01*
Y1268688D01*
X512913Y1269354D01*
X512765Y1270241D01*
X512470Y1271201D01*
X512100Y1272162D01*
X511509Y1273197D01*
X510770Y1274158D01*
X510696Y1274232D01*
X510326Y1274528D01*
X509809Y1274971D01*
X509070Y1275488D01*
X508109Y1276006D01*
X506926Y1276523D01*
X505522Y1276967D01*
X503896Y1277262D01*
X505004Y1283545D01*
X505078D01*
X505300Y1283471D01*
X505596Y1283397D01*
X506039Y1283323D01*
X506557Y1283175D01*
X507148Y1282954D01*
X508552Y1282510D01*
X510178Y1281771D01*
X511804Y1280884D01*
X513357Y1279775D01*
X514761Y1278371D01*
X514835Y1278297D01*
X514909Y1278149D01*
X515057Y1277928D01*
X515278Y1277632D01*
X515574Y1277262D01*
X515870Y1276745D01*
X516165Y1276228D01*
X516535Y1275562D01*
X517126Y1274084D01*
X517718Y1272384D01*
X518087Y1270388D01*
X518235Y1269354D01*
Y1267506D01*
X518161Y1266693D01*
X518013Y1265732D01*
X517791Y1264549D01*
X517422Y1263219D01*
X516978Y1261888D01*
X516387Y1260558D01*
Y1260484D01*
X516313Y1260410D01*
X516091Y1259966D01*
X515648Y1259301D01*
X515131Y1258562D01*
X514391Y1257675D01*
X513578Y1256788D01*
X512617Y1255901D01*
X511509Y1255162D01*
X511361Y1255088D01*
X510991Y1254866D01*
X510326Y1254571D01*
X509513Y1254201D01*
X508552Y1253832D01*
X507443Y1253536D01*
X506187Y1253314D01*
X504930Y1253240D01*
X504783D01*
X504339D01*
X503748Y1253314D01*
X502935Y1253462D01*
X501974Y1253684D01*
X500939Y1254053D01*
X499904Y1254497D01*
X498869Y1255088D01*
X498722Y1255162D01*
X498426Y1255384D01*
X497909Y1255827D01*
X497317Y1256419D01*
X496652Y1257158D01*
X495913Y1258045D01*
X495248Y1259080D01*
X494582Y1260336D01*
Y1260262D01*
X494509Y1260114D01*
X494435Y1259893D01*
X494361Y1259597D01*
X494065Y1258784D01*
X493622Y1257749D01*
X493030Y1256566D01*
X492291Y1255384D01*
X491330Y1254275D01*
X490222Y1253240D01*
X490074Y1253166D01*
X489630Y1252871D01*
X488891Y1252427D01*
X487930Y1251984D01*
X486748Y1251540D01*
X485343Y1251097D01*
X483717Y1250801D01*
X481943Y1250727D01*
X481869D01*
X481647D01*
X481278D01*
X480834Y1250801D01*
X480243Y1250875D01*
X479578Y1251023D01*
X478839Y1251171D01*
X478026Y1251319D01*
X476252Y1251910D01*
X475291Y1252353D01*
X474404Y1252797D01*
X473443Y1253388D01*
X472482Y1254053D01*
X471521Y1254793D01*
X470634Y1255679D01*
X470560Y1255753D01*
X470413Y1255901D01*
X470191Y1256197D01*
X469895Y1256566D01*
X469526Y1257010D01*
X469156Y1257601D01*
X468713Y1258266D01*
X468343Y1259080D01*
X467899Y1259893D01*
X467456Y1260853D01*
X467086Y1261814D01*
X466717Y1262923D01*
X466421Y1264106D01*
X466199Y1265362D01*
X466052Y1266619D01*
X465978Y1268023D01*
Y1268688D01*
X466052Y1269132D01*
X466126Y1269723D01*
X466199Y1270388D01*
X466347Y1271128D01*
X466495Y1271941D01*
X466939Y1273714D01*
X467678Y1275562D01*
X468121Y1276523D01*
X468639Y1277410D01*
X469304Y1278297D01*
X469969Y1279184D01*
X470043Y1279258D01*
X470191Y1279406D01*
X470413Y1279628D01*
X470708Y1279849D01*
X471078Y1280219D01*
X471595Y1280588D01*
X472113Y1281032D01*
X472778Y1281475D01*
X473517Y1281919D01*
X474256Y1282362D01*
X476030Y1283175D01*
X478100Y1283841D01*
X479208Y1284062D01*
X480391Y1284210D01*
X481204Y1277928D01*
D02*
G37*
G36*
X-787835Y1392311D02*
X-787909D01*
X-788057D01*
X-788353D01*
X-788796Y1392237D01*
X-789240Y1392163D01*
X-789757D01*
X-791014Y1391941D01*
X-792344Y1391719D01*
X-793675Y1391276D01*
X-794857Y1390832D01*
X-795375Y1390537D01*
X-795818Y1390167D01*
X-795892Y1390093D01*
X-796114Y1389798D01*
X-796483Y1389354D01*
X-796853Y1388763D01*
X-797296Y1387950D01*
X-797592Y1387063D01*
X-797888Y1385954D01*
X-797962Y1384771D01*
Y1384328D01*
X-797888Y1383884D01*
X-797814Y1383219D01*
X-797666Y1382554D01*
X-797518Y1381815D01*
X-797222Y1381076D01*
X-796853Y1380337D01*
X-796779Y1380263D01*
X-796631Y1380041D01*
X-796335Y1379745D01*
X-796040Y1379302D01*
X-795522Y1378932D01*
X-795005Y1378489D01*
X-794414Y1378119D01*
X-793675Y1377824D01*
X-793601D01*
X-793305Y1377676D01*
X-792788Y1377602D01*
X-792122Y1377454D01*
X-791235Y1377306D01*
X-790127Y1377232D01*
X-788796Y1377084D01*
X-787244D01*
X-751987D01*
Y1370284D01*
X-786874D01*
X-786948D01*
X-787170D01*
X-787466D01*
X-787909D01*
X-788501Y1370358D01*
X-789092D01*
X-790496Y1370506D01*
X-792122Y1370654D01*
X-793822Y1370950D01*
X-795375Y1371393D01*
X-796853Y1371910D01*
X-796927D01*
X-797001Y1371984D01*
X-797444Y1372206D01*
X-798035Y1372576D01*
X-798849Y1373093D01*
X-799662Y1373832D01*
X-800549Y1374645D01*
X-801436Y1375680D01*
X-802175Y1376863D01*
X-802249Y1377010D01*
X-802470Y1377454D01*
X-802766Y1378119D01*
X-803062Y1379080D01*
X-803431Y1380263D01*
X-803727Y1381593D01*
X-803949Y1383071D01*
X-804023Y1384698D01*
Y1385363D01*
X-803949Y1385806D01*
X-803875Y1386398D01*
X-803801Y1386989D01*
X-803505Y1388541D01*
X-803062Y1390167D01*
X-802396Y1391867D01*
X-801953Y1392754D01*
X-801436Y1393567D01*
X-800844Y1394306D01*
X-800179Y1395045D01*
X-800105Y1395119D01*
X-800031Y1395193D01*
X-799736Y1395341D01*
X-799440Y1395563D01*
X-799070Y1395859D01*
X-798553Y1396154D01*
X-797962Y1396450D01*
X-797296Y1396819D01*
X-796557Y1397115D01*
X-795670Y1397411D01*
X-794783Y1397706D01*
X-793748Y1398002D01*
X-792640Y1398150D01*
X-791383Y1398372D01*
X-790127Y1398446D01*
X-788722D01*
X-787835Y1392311D01*
D02*
G37*
G36*
X-801731Y1362597D02*
X-801066Y1362523D01*
X-800327Y1362375D01*
X-799588Y1362228D01*
X-798775Y1361932D01*
X-798701D01*
X-798627Y1361858D01*
X-798183Y1361710D01*
X-797518Y1361415D01*
X-796631Y1360971D01*
X-795596Y1360380D01*
X-794414Y1359641D01*
X-793231Y1358828D01*
X-791975Y1357793D01*
X-791901D01*
X-791827Y1357645D01*
X-791383Y1357275D01*
X-790718Y1356610D01*
X-789757Y1355649D01*
X-788648Y1354541D01*
X-787318Y1353136D01*
X-785840Y1351436D01*
X-784287Y1349588D01*
X-784214Y1349514D01*
X-783992Y1349219D01*
X-783622Y1348775D01*
X-783179Y1348258D01*
X-782587Y1347593D01*
X-781922Y1346780D01*
X-781183Y1345967D01*
X-780370Y1345006D01*
X-778596Y1343158D01*
X-776822Y1341310D01*
X-775935Y1340423D01*
X-775048Y1339610D01*
X-774235Y1338871D01*
X-773422Y1338280D01*
X-773348D01*
X-773274Y1338132D01*
X-773053Y1337984D01*
X-772757Y1337836D01*
X-771944Y1337319D01*
X-770983Y1336727D01*
X-769800Y1336210D01*
X-768544Y1335693D01*
X-767139Y1335397D01*
X-765809Y1335249D01*
X-765735D01*
X-765661D01*
X-765218Y1335323D01*
X-764479Y1335397D01*
X-763665Y1335619D01*
X-762631Y1335914D01*
X-761596Y1336432D01*
X-760561Y1337097D01*
X-759526Y1337984D01*
X-759378Y1338132D01*
X-759083Y1338501D01*
X-758713Y1339019D01*
X-758196Y1339832D01*
X-757752Y1340867D01*
X-757309Y1342049D01*
X-757013Y1343453D01*
X-756939Y1345006D01*
Y1345449D01*
X-757013Y1345745D01*
X-757087Y1346632D01*
X-757309Y1347667D01*
X-757605Y1348775D01*
X-758122Y1350032D01*
X-758787Y1351214D01*
X-759674Y1352323D01*
X-759822Y1352471D01*
X-760192Y1352767D01*
X-760783Y1353210D01*
X-761670Y1353654D01*
X-762705Y1354171D01*
X-764035Y1354615D01*
X-765513Y1354910D01*
X-767213Y1355058D01*
X-766548Y1361489D01*
X-766474D01*
X-766252Y1361415D01*
X-765883D01*
X-765366Y1361341D01*
X-764774Y1361193D01*
X-764109Y1361045D01*
X-763296Y1360823D01*
X-762483Y1360602D01*
X-760709Y1360010D01*
X-758935Y1359123D01*
X-758048Y1358606D01*
X-757161Y1357941D01*
X-756348Y1357275D01*
X-755609Y1356536D01*
X-755535Y1356462D01*
X-755461Y1356315D01*
X-755239Y1356093D01*
X-755018Y1355723D01*
X-754722Y1355280D01*
X-754426Y1354762D01*
X-754057Y1354171D01*
X-753687Y1353432D01*
X-753318Y1352619D01*
X-752948Y1351732D01*
X-752652Y1350771D01*
X-752357Y1349736D01*
X-752135Y1348627D01*
X-751913Y1347445D01*
X-751839Y1346188D01*
X-751765Y1344858D01*
Y1344119D01*
X-751839Y1343601D01*
X-751913Y1343010D01*
X-751987Y1342271D01*
X-752135Y1341458D01*
X-752283Y1340645D01*
X-752800Y1338723D01*
X-753539Y1336801D01*
X-753983Y1335840D01*
X-754500Y1334879D01*
X-755165Y1333993D01*
X-755905Y1333179D01*
X-755978Y1333106D01*
X-756052Y1332958D01*
X-756348Y1332810D01*
X-756644Y1332514D01*
X-757013Y1332145D01*
X-757531Y1331775D01*
X-758048Y1331406D01*
X-758713Y1330962D01*
X-760118Y1330223D01*
X-761892Y1329484D01*
X-762779Y1329188D01*
X-763813Y1329040D01*
X-764848Y1328892D01*
X-765957Y1328819D01*
X-766105D01*
X-766474D01*
X-767066Y1328892D01*
X-767879Y1328966D01*
X-768766Y1329114D01*
X-769800Y1329410D01*
X-770909Y1329705D01*
X-772018Y1330149D01*
X-772166Y1330223D01*
X-772535Y1330371D01*
X-773126Y1330666D01*
X-773940Y1331110D01*
X-774826Y1331701D01*
X-775935Y1332440D01*
X-777044Y1333327D01*
X-778300Y1334362D01*
X-778448Y1334510D01*
X-778892Y1334879D01*
X-779261Y1335249D01*
X-779631Y1335619D01*
X-780074Y1336062D01*
X-780666Y1336653D01*
X-781257Y1337245D01*
X-781922Y1337984D01*
X-782661Y1338723D01*
X-783474Y1339610D01*
X-784287Y1340571D01*
X-785248Y1341606D01*
X-786209Y1342788D01*
X-787244Y1343971D01*
X-787318Y1344045D01*
X-787466Y1344193D01*
X-787688Y1344488D01*
X-787983Y1344858D01*
X-788427Y1345301D01*
X-788870Y1345819D01*
X-789831Y1347001D01*
X-790940Y1348258D01*
X-792048Y1349441D01*
X-793009Y1350475D01*
X-793379Y1350919D01*
X-793748Y1351288D01*
X-793822Y1351362D01*
X-794044Y1351584D01*
X-794340Y1351880D01*
X-794783Y1352249D01*
X-795301Y1352619D01*
X-795818Y1353062D01*
X-797075Y1353949D01*
Y1328745D01*
X-803136D01*
Y1362671D01*
X-803062D01*
X-802766D01*
X-802323D01*
X-801731Y1362597D01*
D02*
G37*
%LPC*%
G36*
X1527911Y508318D02*
X1511798D01*
Y491391D01*
X1527024D01*
X1527911Y491465D01*
X1528946Y491539D01*
X1530129Y491613D01*
X1531311Y491761D01*
X1532494Y491983D01*
X1533529Y492278D01*
X1533677Y492352D01*
X1533972Y492500D01*
X1534416Y492722D01*
X1535007Y493018D01*
X1535672Y493461D01*
X1536338Y493978D01*
X1537003Y494644D01*
X1537520Y495383D01*
X1537594Y495457D01*
X1537742Y495752D01*
X1537964Y496196D01*
X1538259Y496787D01*
X1538481Y497452D01*
X1538703Y498192D01*
X1538851Y499079D01*
X1538925Y499965D01*
Y500039D01*
Y500113D01*
X1538851Y500557D01*
X1538777Y501222D01*
X1538629Y502109D01*
X1538259Y502996D01*
X1537816Y504031D01*
X1537151Y504992D01*
X1536264Y505953D01*
X1536116Y506026D01*
X1535746Y506322D01*
X1535155Y506692D01*
X1534194Y507135D01*
X1533085Y507579D01*
X1531607Y507948D01*
X1529907Y508244D01*
X1527911Y508318D01*
D02*
G37*
G36*
X1407587Y1140701D02*
X1368561D01*
Y1128579D01*
X1368635Y1128062D01*
X1368709Y1126953D01*
X1368783Y1125697D01*
X1368930Y1124366D01*
X1369152Y1123036D01*
X1369448Y1121927D01*
X1369522Y1121779D01*
X1369596Y1121409D01*
X1369817Y1120892D01*
X1370113Y1120227D01*
X1370557Y1119488D01*
X1371000Y1118749D01*
X1371517Y1118009D01*
X1372109Y1117270D01*
X1372257Y1117196D01*
X1372552Y1116901D01*
X1373070Y1116457D01*
X1373809Y1115940D01*
X1374770Y1115349D01*
X1375878Y1114683D01*
X1377135Y1114092D01*
X1378539Y1113575D01*
X1378613D01*
X1378761Y1113501D01*
X1378983Y1113427D01*
X1379278Y1113353D01*
X1379648Y1113279D01*
X1380165Y1113131D01*
X1380683Y1112983D01*
X1381274Y1112835D01*
X1382752Y1112614D01*
X1384452Y1112392D01*
X1386374Y1112244D01*
X1388444Y1112170D01*
X1388518D01*
X1388813D01*
X1389183D01*
X1389774Y1112244D01*
X1390439D01*
X1391179Y1112318D01*
X1392066Y1112392D01*
X1392953Y1112466D01*
X1394948Y1112835D01*
X1397018Y1113279D01*
X1398940Y1113944D01*
X1399900Y1114388D01*
X1400713Y1114831D01*
X1400787D01*
X1400935Y1114979D01*
X1401157Y1115127D01*
X1401453Y1115275D01*
X1402192Y1115866D01*
X1403079Y1116605D01*
X1404040Y1117566D01*
X1405000Y1118675D01*
X1405814Y1119931D01*
X1406479Y1121262D01*
X1406553Y1121409D01*
X1406627Y1121779D01*
X1406848Y1122444D01*
X1407070Y1123405D01*
X1407218Y1124588D01*
X1407440Y1126066D01*
X1407514Y1126953D01*
Y1127914D01*
X1407587Y1128875D01*
Y1140701D01*
D02*
G37*
%LPD*%
D56*
X1430000Y411100D02*
Y588900D01*
Y411100D02*
X1790000D01*
X1430000Y588900D02*
X1790000D01*
Y411100D02*
Y588900D01*
X1202500Y1330000D02*
X1597500D01*
Y770000D02*
Y1330000D01*
X1202500Y770000D02*
X1597500D01*
X1202500D02*
Y1330000D01*
X100000Y1760000D02*
X1040000D01*
Y859000D02*
Y1760000D01*
X100000Y859000D02*
Y1760000D01*
Y859000D02*
X1040000D01*
X-390000Y860000D02*
Y1700000D01*
X-2000000Y860000D02*
X-390000D01*
X-2000000D02*
Y1700000D01*
X-390000D01*
D91*
X1400011Y1268684D02*
D03*
%TF.MD5,008d41ac6c9777e6630ba4133b6c83c8*%
M02*
