%TF.GenerationSoftware,Altium Limited,Altium Designer,26.6.0 (10)*%
G04 Layer_Color=32768*
G04 Board_Origin=29350000|14702756*
%FSLAX45Y45*%
%MOMM*%
%TF.SameCoordinates,FF19D583-8477-4E59-B826-EB9FC0F50DB0*%
%TF.FilePolarity,Positive*%
%TF.FileFunction,Other,Top_Courtyard*%
%TF.Part,Single*%
G01*
G75*
%TA.AperFunction,NonConductor*%
%ADD56C,0.20000*%
D56*
X7652436Y4372152D02*
X8457436D01*
Y1292152D02*
Y4372152D01*
X7652436Y1292152D02*
X8457436D01*
X7652436D02*
Y4372152D01*
X4100000Y4150000D02*
X4220000D01*
X4100000Y4390000D02*
X4220000D01*
X4100000Y4150000D02*
Y4390000D01*
X4220000Y4150000D02*
Y4390000D01*
X4160000Y4222501D02*
Y4317501D01*
X4112500Y4270001D02*
X4207500Y4270001D01*
X3144589Y1900000D02*
X3655411D01*
Y1500000D02*
Y1900000D01*
X3144589Y1500000D02*
X3655411D01*
X3144589D02*
Y1900000D01*
X1570000Y1565000D02*
Y1875000D01*
X1250000Y1565000D02*
X1570000D01*
X1250000D02*
Y1875000D01*
X1570000D01*
X2712500Y820000D02*
Y1170000D01*
X2867500D01*
Y820000D02*
Y1170000D01*
X2712500Y820000D02*
X2867500D01*
X2350000Y3232268D02*
Y3622888D01*
X2150000Y3232268D02*
X2350000D01*
X2150000D02*
Y3622888D01*
X2350000D01*
X2982500Y1307089D02*
Y1532911D01*
X3097500D01*
Y1307089D02*
Y1532911D01*
X2982500Y1307089D02*
X3097500D01*
X2710000Y1337089D02*
Y1602911D01*
X2870000D01*
Y1337089D02*
Y1602911D01*
X2710000Y1337089D02*
X2870000D01*
X735000Y4215000D02*
Y4385000D01*
Y4215000D02*
X1015000D01*
Y4385000D01*
X735000D02*
X1015000D01*
X3387089Y1112911D02*
X3772911D01*
Y907089D02*
Y1112911D01*
X3387089Y907089D02*
X3772911D01*
X3387089D02*
Y1112911D01*
X2992500Y1027089D02*
Y1252911D01*
X3107500D01*
Y1027089D02*
Y1252911D01*
X2992500Y1027089D02*
X3107500D01*
X3712500Y1597089D02*
X3827500D01*
Y1822911D01*
X3712500D02*
X3827500D01*
X3712500Y1597089D02*
Y1822911D01*
X3804690Y3550000D02*
Y3750000D01*
Y3550000D02*
X4195310D01*
Y3750000D01*
X3804690D02*
X4195310D01*
X2325000Y1692500D02*
Y1847500D01*
X1975000D02*
X2325000D01*
X1975000Y1692500D02*
Y1847500D01*
Y1692500D02*
X2325000D01*
X1947089Y170000D02*
X2212911D01*
X1947089D02*
Y330000D01*
X2212911D01*
Y170000D02*
Y330000D01*
X2702245Y4686426D02*
X2797245Y4686426D01*
X2749745Y4638926D02*
Y4733926D01*
X2689745Y4566427D02*
Y4806427D01*
X2809745Y4566427D02*
Y4806427D01*
X2689745Y4566427D02*
X2809745D01*
X2689745Y4806427D02*
X2809745D01*
X2670000Y4050000D02*
X2790000D01*
X2670000Y3810000D02*
X2790000D01*
Y4050000D01*
X2670000Y3810000D02*
Y4050000D01*
X2730000Y3882499D02*
Y3977500D01*
X2682500Y3930000D02*
X2777500Y3929999D01*
X3360000Y3790000D02*
Y3910000D01*
X3600000Y3790000D02*
Y3910000D01*
X3360000D02*
X3600000D01*
X3360000Y3790000D02*
X3600000D01*
X3432500Y3850000D02*
X3527500D01*
X3480000Y3802500D02*
X3480001Y3897500D01*
X4100000Y4770000D02*
X4220000D01*
X4100000Y4530000D02*
X4220000D01*
Y4770000D01*
X4100000Y4530000D02*
Y4770000D01*
X4160000Y4602500D02*
Y4697500D01*
X4112500Y4650000D02*
X4207500Y4649999D01*
X4100000Y3770000D02*
X4220000D01*
X4100000Y4010000D02*
X4220000D01*
X4100000Y3770000D02*
Y4010000D01*
X4220000Y3770000D02*
Y4010000D01*
X4160000Y3842501D02*
Y3937501D01*
X4112500Y3890001D02*
X4207500Y3890001D01*
X4990000Y3800000D02*
Y3920000D01*
X5230000Y3800000D02*
Y3920000D01*
X4990000D02*
X5230000D01*
X4990000Y3800000D02*
X5230000D01*
X5062500Y3860000D02*
X5157500D01*
X5110000Y3812500D02*
X5110001Y3907500D01*
X2682500Y3309999D02*
X2777500Y3309999D01*
X2730000Y3262499D02*
Y3357500D01*
X2670000Y3190000D02*
Y3430000D01*
X2790000Y3190000D02*
Y3430000D01*
X2670000Y3190000D02*
X2790000D01*
X2670000Y3430000D02*
X2790000D01*
X2670000Y3040000D02*
X2790000D01*
X2670000Y2800000D02*
X2790000D01*
Y3040000D01*
X2670000Y2800000D02*
Y3040000D01*
X2730000Y2872499D02*
Y2967500D01*
X2682500Y2919999D02*
X2777500Y2919999D01*
X2670000Y2660000D02*
X2790000D01*
X2670000Y2420000D02*
X2790000D01*
Y2660000D01*
X2670000Y2420000D02*
Y2660000D01*
X2730000Y2492500D02*
Y2587500D01*
X2682500Y2540000D02*
X2777500Y2539999D01*
X3557500Y2370000D02*
X3557501Y2465000D01*
X3510000Y2417500D02*
X3605000D01*
X3437500Y2357500D02*
X3677500D01*
X3437500Y2477500D02*
X3677500D01*
Y2357500D02*
Y2477500D01*
X3437500Y2357500D02*
Y2477500D01*
X4192500Y3220000D02*
X4287500Y3219999D01*
X4240000Y3172500D02*
Y3267500D01*
X4180000Y3100000D02*
Y3340000D01*
X4300000Y3100000D02*
Y3340000D01*
X4180000Y3100000D02*
X4300000D01*
X4180000Y3340000D02*
X4300000D01*
X4202500Y2850000D02*
X4297500Y2849999D01*
X4250000Y2802500D02*
Y2897500D01*
X4190000Y2730000D02*
Y2970000D01*
X4310000Y2730000D02*
Y2970000D01*
X4190000Y2730000D02*
X4310000D01*
X4190000Y2970000D02*
X4310000D01*
X4212500Y2440000D02*
X4307500Y2439999D01*
X4260000Y2392500D02*
Y2487500D01*
X4200000Y2320000D02*
Y2560000D01*
X4320000Y2320000D02*
Y2560000D01*
X4200000Y2320000D02*
X4320000D01*
X4200000Y2560000D02*
X4320000D01*
X4810000Y2412500D02*
X4810000Y2507500D01*
X4762500Y2460000D02*
X4857500D01*
X4690000Y2400000D02*
X4930000D01*
X4690000Y2520000D02*
X4930000D01*
Y2400000D02*
Y2520000D01*
X4690000Y2400000D02*
Y2520000D01*
X2650000Y4195000D02*
X2770000D01*
X2650000Y4435000D02*
X2770000D01*
X2650000Y4195000D02*
Y4435000D01*
X2770000Y4195000D02*
Y4435000D01*
X2710000Y4267500D02*
Y4362501D01*
X2662500Y4315001D02*
X2757500Y4315001D01*
%TF.MD5,31f301ffc8907d937683445b72a21e1f*%
M02*
