%TF.GenerationSoftware,Altium Limited,Altium Designer,26.6.0 (10)*%
G04 Layer_Color=8421504*
G04 Board_Origin=29350000|14702756*
%FSLAX45Y45*%
%MOMM*%
%TF.SameCoordinates,FF19D583-8477-4E59-B826-EB9FC0F50DB0*%
%TF.FilePolarity,Positive*%
%TF.FileFunction,Paste,Top*%
%TF.Part,Single*%
G01*
G75*
%TA.AperFunction,ConnectorPad*%
%ADD11R,2.20000X1.80000*%
%TA.AperFunction,SMDPad,CuDef*%
G04:AMPARAMS|DCode=12|XSize=1.53971mm|YSize=0.56583mm|CornerRadius=0.28292mm|HoleSize=0mm|Usage=FLASHONLY|Rotation=0.000|XOffset=0mm|YOffset=0mm|HoleType=Round|Shape=RoundedRectangle|*
%AMROUNDEDRECTD12*
21,1,1.53971,0.00000,0,0,0.0*
21,1,0.97388,0.56583,0,0,0.0*
1,1,0.56583,0.48694,0.00000*
1,1,0.56583,-0.48694,0.00000*
1,1,0.56583,-0.48694,0.00000*
1,1,0.56583,0.48694,0.00000*
%
%ADD12ROUNDEDRECTD12*%
%ADD13R,1.53971X0.56583*%
%ADD14O,1.45000X0.45000*%
%ADD15O,0.45000X1.45000*%
%ADD16R,1.22000X1.20000*%
%ADD17R,1.45000X1.20000*%
G04:AMPARAMS|DCode=18|XSize=0.76mm|YSize=0.6604mm|CornerRadius=0.08255mm|HoleSize=0mm|Usage=FLASHONLY|Rotation=180.000|XOffset=0mm|YOffset=0mm|HoleType=Round|Shape=RoundedRectangle|*
%AMROUNDEDRECTD18*
21,1,0.76000,0.49530,0,0,180.0*
21,1,0.59490,0.66040,0,0,180.0*
1,1,0.16510,-0.29745,0.24765*
1,1,0.16510,0.29745,0.24765*
1,1,0.16510,0.29745,-0.24765*
1,1,0.16510,-0.29745,-0.24765*
%
%ADD18ROUNDEDRECTD18*%
%ADD19R,1.20000X1.40000*%
G04:AMPARAMS|DCode=20|XSize=1.70712mm|YSize=0.61583mm|CornerRadius=0.30791mm|HoleSize=0mm|Usage=FLASHONLY|Rotation=0.000|XOffset=0mm|YOffset=0mm|HoleType=Round|Shape=RoundedRectangle|*
%AMROUNDEDRECTD20*
21,1,1.70712,0.00000,0,0,0.0*
21,1,1.09129,0.61583,0,0,0.0*
1,1,0.61583,0.54565,0.00000*
1,1,0.61583,-0.54565,0.00000*
1,1,0.61583,-0.54565,0.00000*
1,1,0.61583,0.54565,0.00000*
%
%ADD20ROUNDEDRECTD20*%
%ADD21R,1.70712X0.61583*%
%ADD22R,0.80000X0.90000*%
%ADD23R,1.20000X1.20000*%
%ADD24R,1.70620X1.15464*%
%ADD25R,0.85822X0.85626*%
%ADD26R,5.70000X3.50000*%
%ADD27R,1.30981X0.90606*%
%ADD28R,0.95000X1.35000*%
%ADD29R,1.30606X1.05822*%
%ADD30R,3.50000X2.30000*%
G04:AMPARAMS|DCode=31|XSize=0.6mm|YSize=1.45mm|CornerRadius=0.051mm|HoleSize=0mm|Usage=FLASHONLY|Rotation=90.000|XOffset=0mm|YOffset=0mm|HoleType=Round|Shape=RoundedRectangle|*
%AMROUNDEDRECTD31*
21,1,0.60000,1.34800,0,0,90.0*
21,1,0.49800,1.45000,0,0,90.0*
1,1,0.10200,0.67400,0.24900*
1,1,0.10200,0.67400,-0.24900*
1,1,0.10200,-0.67400,-0.24900*
1,1,0.10200,-0.67400,0.24900*
%
%ADD31ROUNDEDRECTD31*%
%ADD32R,1.00000X0.95000*%
%ADD33R,1.60000X2.00000*%
%ADD34R,1.20000X1.40000*%
%ADD35R,0.95000X1.00000*%
%ADD36R,1.15464X1.70620*%
%ADD37R,1.20000X1.20000*%
%ADD38R,0.90606X1.30981*%
G04:AMPARAMS|DCode=39|XSize=0.76mm|YSize=0.6604mm|CornerRadius=0.08255mm|HoleSize=0mm|Usage=FLASHONLY|Rotation=90.000|XOffset=0mm|YOffset=0mm|HoleType=Round|Shape=RoundedRectangle|*
%AMROUNDEDRECTD39*
21,1,0.76000,0.49530,0,0,90.0*
21,1,0.59490,0.66040,0,0,90.0*
1,1,0.16510,0.24765,0.29745*
1,1,0.16510,0.24765,-0.29745*
1,1,0.16510,-0.24765,-0.29745*
1,1,0.16510,-0.24765,0.29745*
%
%ADD39ROUNDEDRECTD39*%
%TA.AperFunction,NonConductor*%
%ADD82R,1.30000X0.25000*%
%ADD83R,1.30000X0.25000*%
D11*
X8292436Y1392152D02*
D03*
Y4272152D02*
D03*
D12*
X3378450Y555000D02*
D03*
Y650000D02*
D03*
X3621550D02*
D03*
Y745000D02*
D03*
Y555000D02*
D03*
D13*
X3378450Y745000D02*
D03*
D14*
X2030000Y3675000D02*
D03*
Y3545000D02*
D03*
Y3480000D02*
D03*
Y3350000D02*
D03*
Y3285000D02*
D03*
X910000D02*
D03*
Y3350000D02*
D03*
Y3415000D02*
D03*
Y3480000D02*
D03*
Y3545000D02*
D03*
Y3610000D02*
D03*
Y3805000D02*
D03*
Y3870000D02*
D03*
Y3935000D02*
D03*
X2030000Y3805000D02*
D03*
Y3935000D02*
D03*
Y3870000D02*
D03*
X910000Y3220000D02*
D03*
X2030000D02*
D03*
X910000Y3740000D02*
D03*
Y3675000D02*
D03*
Y4000000D02*
D03*
X2030000Y3415000D02*
D03*
Y3610000D02*
D03*
Y4000000D02*
D03*
Y3740000D02*
D03*
D15*
X1665000Y3050000D02*
D03*
X1600000D02*
D03*
X1535000D02*
D03*
X1470000D02*
D03*
X1405000D02*
D03*
X1275000D02*
D03*
X1210000D02*
D03*
X1145000D02*
D03*
X1080000Y4170000D02*
D03*
X1145000D02*
D03*
X1210000D02*
D03*
X1275000D02*
D03*
X1340000D02*
D03*
X1405000D02*
D03*
X1600000D02*
D03*
X1730000D02*
D03*
X1795000D02*
D03*
X1860000D02*
D03*
X1795000Y3050000D02*
D03*
X1730000D02*
D03*
X1860000D02*
D03*
X1080000D02*
D03*
X1340000D02*
D03*
X1470000Y4170000D02*
D03*
X1535000D02*
D03*
X1665000D02*
D03*
D16*
X1750000Y1290500D02*
D03*
Y909500D02*
D03*
D17*
Y1700000D02*
D03*
Y1500000D02*
D03*
D18*
X4160000Y4340000D02*
D03*
Y4200000D02*
D03*
X2749745Y4616426D02*
D03*
Y4756427D02*
D03*
X2730000Y4000000D02*
D03*
Y3860000D02*
D03*
X4160000Y4580000D02*
D03*
Y4720000D02*
D03*
X4160000Y3820000D02*
D03*
Y3960000D02*
D03*
X2730000Y3240000D02*
D03*
Y3380000D02*
D03*
Y2990000D02*
D03*
Y2850000D02*
D03*
X2730000Y2610000D02*
D03*
Y2470000D02*
D03*
X4240000Y3150000D02*
D03*
Y3290000D02*
D03*
X4250000Y2780000D02*
D03*
Y2920000D02*
D03*
X4260000Y2370000D02*
D03*
Y2510000D02*
D03*
X2710000Y4385000D02*
D03*
Y4245000D02*
D03*
D19*
X1710000Y500000D02*
D03*
X1510000D02*
D03*
D20*
X3520055Y1605000D02*
D03*
Y1795000D02*
D03*
X3279945Y1605000D02*
D03*
Y1700000D02*
D03*
D21*
Y1795000D02*
D03*
D22*
X1315000Y1820000D02*
D03*
X1410000Y1620000D02*
D03*
X1505000Y1820000D02*
D03*
D23*
X2790000Y1100000D02*
D03*
Y890000D02*
D03*
D24*
X2250000Y3555156D02*
D03*
Y3300000D02*
D03*
D25*
X3040000Y1480098D02*
D03*
Y1359902D02*
D03*
X3050000Y1200098D02*
D03*
Y1079902D02*
D03*
X3770000Y1770098D02*
D03*
Y1649902D02*
D03*
D26*
X2250000Y877700D02*
D03*
Y1347700D02*
D03*
D27*
X2790000Y1392392D02*
D03*
Y1547608D02*
D03*
D28*
X950000Y4300000D02*
D03*
X800000D02*
D03*
D29*
X3502392Y1010000D02*
D03*
X3657608D02*
D03*
D30*
X1400000Y1300000D02*
D03*
Y800000D02*
D03*
D31*
X4792500Y3121000D02*
D03*
Y2867000D02*
D03*
Y2740000D02*
D03*
Y2613000D02*
D03*
X5337500Y3375000D02*
D03*
Y3248000D02*
D03*
Y3121000D02*
D03*
Y2867000D02*
D03*
Y2740000D02*
D03*
Y2613000D02*
D03*
X4792500Y3248000D02*
D03*
Y3375000D02*
D03*
Y2994000D02*
D03*
X5337500D02*
D03*
X3177500Y4126000D02*
D03*
Y3999000D02*
D03*
X3722500Y4253000D02*
D03*
X3177500Y4380000D02*
D03*
X3722500Y4634000D02*
D03*
Y4761000D02*
D03*
X3177500Y4634000D02*
D03*
Y4761000D02*
D03*
Y4507000D02*
D03*
X3722500D02*
D03*
X3177500Y4253000D02*
D03*
X3722500Y3999000D02*
D03*
Y4126000D02*
D03*
Y4380000D02*
D03*
X4807500Y4791000D02*
D03*
Y4664000D02*
D03*
Y4537000D02*
D03*
Y4283000D02*
D03*
Y4156000D02*
D03*
Y4029000D02*
D03*
X5352500Y4537000D02*
D03*
Y4283000D02*
D03*
Y4156000D02*
D03*
Y4029000D02*
D03*
Y4664000D02*
D03*
Y4791000D02*
D03*
X4807500Y4410000D02*
D03*
X5352500D02*
D03*
X3802500Y3057000D02*
D03*
Y3184000D02*
D03*
Y3311000D02*
D03*
X3257500Y2549000D02*
D03*
Y2676000D02*
D03*
Y2803000D02*
D03*
Y3057000D02*
D03*
Y3311000D02*
D03*
Y3184000D02*
D03*
X3802500Y2676000D02*
D03*
Y2549000D02*
D03*
X3257500Y2930000D02*
D03*
X3802500Y2803000D02*
D03*
Y2930000D02*
D03*
D32*
X2200000Y4215000D02*
D03*
Y4085000D02*
D03*
X2982250Y4724750D02*
D03*
Y4594750D02*
D03*
X2980000Y4365000D02*
D03*
Y4235000D02*
D03*
X2990000Y3865000D02*
D03*
Y3995000D02*
D03*
X4410000Y4595000D02*
D03*
Y4725000D02*
D03*
Y4335000D02*
D03*
Y4205000D02*
D03*
X4420000Y3950000D02*
D03*
Y3820000D02*
D03*
X3010000Y3250000D02*
D03*
Y3380000D02*
D03*
Y2855000D02*
D03*
Y2985000D02*
D03*
X3000000Y2475000D02*
D03*
Y2605000D02*
D03*
X4500000Y3150000D02*
D03*
Y3280000D02*
D03*
X4517500Y2770000D02*
D03*
Y2900000D02*
D03*
X4510000Y2380000D02*
D03*
Y2510000D02*
D03*
X2220000Y3125000D02*
D03*
Y2995000D02*
D03*
X2252500Y3917500D02*
D03*
Y3787500D02*
D03*
D33*
X1810000Y250000D02*
D03*
X1510000D02*
D03*
D34*
X2362500Y350000D02*
D03*
X2562500D02*
D03*
X2360000Y550000D02*
D03*
X2560000D02*
D03*
D35*
X2720000Y1850000D02*
D03*
X2850000D02*
D03*
X3540000Y3710000D02*
D03*
X3410000D02*
D03*
X5180000Y3720000D02*
D03*
X5050000D02*
D03*
X3622500Y2285000D02*
D03*
X3492500D02*
D03*
X5155000Y2460000D02*
D03*
X5285000D02*
D03*
X1502500Y2812500D02*
D03*
X1632500D02*
D03*
X1515000Y4390000D02*
D03*
X1645000D02*
D03*
D36*
X3872422Y3650000D02*
D03*
X4127578D02*
D03*
D37*
X2045000Y1770000D02*
D03*
X2255000D02*
D03*
D38*
X2157608Y250000D02*
D03*
X2002392D02*
D03*
D39*
X3410000Y3850000D02*
D03*
X3550000D02*
D03*
X5180000Y3860000D02*
D03*
X5040000D02*
D03*
X3627500Y2417500D02*
D03*
X3487500D02*
D03*
X4880000Y2460000D02*
D03*
X4739999D02*
D03*
D82*
X7727424Y1607168D02*
D03*
Y1657168D02*
D03*
X7727448Y1707136D02*
D03*
Y1757135D02*
D03*
X7727424Y1857168D02*
D03*
Y1907168D02*
D03*
X7727448Y1957136D02*
D03*
Y2007135D02*
D03*
Y2057135D02*
D03*
X7727424Y2107168D02*
D03*
Y2157168D02*
D03*
X7727448Y2257135D02*
D03*
Y2307135D02*
D03*
X7727424Y2357168D02*
D03*
Y2407168D02*
D03*
X7727448Y2507135D02*
D03*
Y2557135D02*
D03*
X7727424Y2607168D02*
D03*
Y2657168D02*
D03*
X7727448Y2757135D02*
D03*
Y2807135D02*
D03*
X7727424Y2857168D02*
D03*
Y2907168D02*
D03*
X7727448Y3007135D02*
D03*
Y3057135D02*
D03*
X7727424Y3107168D02*
D03*
Y3157168D02*
D03*
X7727448Y3257135D02*
D03*
Y3307135D02*
D03*
X7727424Y3357168D02*
D03*
Y3407168D02*
D03*
X7727448Y3507135D02*
D03*
Y3557135D02*
D03*
X7727424Y3607168D02*
D03*
Y3657168D02*
D03*
Y3707168D02*
D03*
X7727448Y3757135D02*
D03*
Y3807135D02*
D03*
X7727424Y3907168D02*
D03*
Y3957168D02*
D03*
X7727448Y4007135D02*
D03*
Y4057135D02*
D03*
D83*
X7727514Y1807139D02*
D03*
X7727449Y2207059D02*
D03*
Y2457059D02*
D03*
Y2707059D02*
D03*
Y2957059D02*
D03*
Y3207059D02*
D03*
Y3457059D02*
D03*
X7727514Y3857139D02*
D03*
%TF.MD5,5ac84914fda8212fd81b41bd1a287f55*%
M02*
