%TF.GenerationSoftware,Altium Limited,Altium Designer,26.6.0 (10)*%
G04 Layer_Color=0*
G04 Board_Origin=29350000|14702756*
%FSLAX45Y45*%
%MOMM*%
%TF.SameCoordinates,FF19D583-8477-4E59-B826-EB9FC0F50DB0*%
%TF.FilePolarity,Positive*%
%TF.FileFunction,Other,Top_Component_Center*%
%TF.Part,Single*%
G01*
G75*
%TA.AperFunction,NonConductor*%
%ADD56C,0.20000*%
D56*
X8057436Y2832152D02*
X8157436D01*
X8107436Y2782152D02*
Y2882152D01*
X3350000Y1700000D02*
X3450000D01*
X3400000Y1650000D02*
Y1750000D01*
X1410000Y1670000D02*
Y1770000D01*
X1360000Y1720000D02*
X1460000D01*
X2790000Y945000D02*
Y1045000D01*
X2740000Y995000D02*
X2840000D01*
X2250000Y3377578D02*
Y3477578D01*
X2200000Y3427578D02*
X2300000D01*
X3040000Y1370000D02*
Y1470000D01*
X2990000Y1420000D02*
X3090000D01*
X2200000Y1112700D02*
X2300000D01*
X2250000Y1062700D02*
Y1162700D01*
X2790000Y1420000D02*
Y1520000D01*
X2740000Y1470000D02*
X2840000D01*
X875000Y4250000D02*
Y4350000D01*
X825000Y4300000D02*
X925000D01*
X3530000Y1010000D02*
X3630000D01*
X3580000Y960000D02*
Y1060000D01*
X3050000Y1090000D02*
Y1190000D01*
X3000000Y1140000D02*
X3100000D01*
X3720000Y1710000D02*
X3820000D01*
X3770000Y1660000D02*
Y1760000D01*
X4000000Y3600000D02*
Y3700000D01*
X3950000Y3650000D02*
X4050000D01*
X2150000Y1720000D02*
Y1820000D01*
X2100000Y1770000D02*
X2200000D01*
X2030000Y250000D02*
X2130000D01*
X2080000Y200000D02*
Y300000D01*
%TF.MD5,5a7d72efdf87bbd314669108ec76445c*%
M02*
