%TF.GenerationSoftware,Altium Limited,Altium Designer,26.6.0 (10)*%
G04 Layer_Physical_Order=1*
G04 Layer_Color=255*
G04 Board_Origin=29350000|14702756*
%FSLAX45Y45*%
%MOMM*%
%TF.SameCoordinates,FF19D583-8477-4E59-B826-EB9FC0F50DB0*%
%TF.FilePolarity,Positive*%
%TF.FileFunction,Copper,L1,Top,Signal*%
%TF.Part,Single*%
G01*
G75*
%TA.AperFunction,ConnectorPad*%
%ADD10R,1.30000X0.30000*%
%ADD11R,2.20000X1.80000*%
%TA.AperFunction,SMDPad,CuDef*%
G04:AMPARAMS|DCode=12|XSize=1.53971mm|YSize=0.56583mm|CornerRadius=0.28292mm|HoleSize=0mm|Usage=FLASHONLY|Rotation=0.000|XOffset=0mm|YOffset=0mm|HoleType=Round|Shape=RoundedRectangle|*
%AMROUNDEDRECTD12*
21,1,1.53971,0.00000,0,0,0.0*
21,1,0.97388,0.56583,0,0,0.0*
1,1,0.56583,0.48694,0.00000*
1,1,0.56583,-0.48694,0.00000*
1,1,0.56583,-0.48694,0.00000*
1,1,0.56583,0.48694,0.00000*
%
%ADD12ROUNDEDRECTD12*%
%ADD13R,1.53971X0.56583*%
%ADD14O,1.45000X0.45000*%
%ADD15O,0.45000X1.45000*%
%ADD16R,1.22000X1.20000*%
%ADD17R,1.45000X1.20000*%
G04:AMPARAMS|DCode=18|XSize=0.76mm|YSize=0.6604mm|CornerRadius=0.08255mm|HoleSize=0mm|Usage=FLASHONLY|Rotation=180.000|XOffset=0mm|YOffset=0mm|HoleType=Round|Shape=RoundedRectangle|*
%AMROUNDEDRECTD18*
21,1,0.76000,0.49530,0,0,180.0*
21,1,0.59490,0.66040,0,0,180.0*
1,1,0.16510,-0.29745,0.24765*
1,1,0.16510,0.29745,0.24765*
1,1,0.16510,0.29745,-0.24765*
1,1,0.16510,-0.29745,-0.24765*
%
%ADD18ROUNDEDRECTD18*%
%ADD19R,1.20000X1.40000*%
G04:AMPARAMS|DCode=20|XSize=1.70712mm|YSize=0.61583mm|CornerRadius=0.30791mm|HoleSize=0mm|Usage=FLASHONLY|Rotation=0.000|XOffset=0mm|YOffset=0mm|HoleType=Round|Shape=RoundedRectangle|*
%AMROUNDEDRECTD20*
21,1,1.70712,0.00000,0,0,0.0*
21,1,1.09129,0.61583,0,0,0.0*
1,1,0.61583,0.54565,0.00000*
1,1,0.61583,-0.54565,0.00000*
1,1,0.61583,-0.54565,0.00000*
1,1,0.61583,0.54565,0.00000*
%
%ADD20ROUNDEDRECTD20*%
%ADD21R,1.70712X0.61583*%
%ADD22R,0.80000X0.90000*%
%ADD23R,1.20000X1.20000*%
%ADD24R,1.70620X1.15464*%
%ADD25R,0.85822X0.85626*%
%ADD26R,5.70000X3.50000*%
%ADD27R,1.30981X0.90606*%
%ADD28R,0.95000X1.35000*%
%ADD29R,1.30606X1.05822*%
%ADD30R,3.50000X2.30000*%
G04:AMPARAMS|DCode=31|XSize=0.6mm|YSize=1.45mm|CornerRadius=0.051mm|HoleSize=0mm|Usage=FLASHONLY|Rotation=90.000|XOffset=0mm|YOffset=0mm|HoleType=Round|Shape=RoundedRectangle|*
%AMROUNDEDRECTD31*
21,1,0.60000,1.34800,0,0,90.0*
21,1,0.49800,1.45000,0,0,90.0*
1,1,0.10200,0.67400,0.24900*
1,1,0.10200,0.67400,-0.24900*
1,1,0.10200,-0.67400,-0.24900*
1,1,0.10200,-0.67400,0.24900*
%
%ADD31ROUNDEDRECTD31*%
%ADD32R,1.00000X0.95000*%
%ADD33R,1.60000X2.00000*%
%ADD34R,1.20000X1.40000*%
%ADD35R,0.95000X1.00000*%
%ADD36R,1.15464X1.70620*%
%ADD37R,1.20000X1.20000*%
%ADD38R,0.90606X1.30981*%
G04:AMPARAMS|DCode=39|XSize=0.76mm|YSize=0.6604mm|CornerRadius=0.08255mm|HoleSize=0mm|Usage=FLASHONLY|Rotation=90.000|XOffset=0mm|YOffset=0mm|HoleType=Round|Shape=RoundedRectangle|*
%AMROUNDEDRECTD39*
21,1,0.76000,0.49530,0,0,90.0*
21,1,0.59490,0.66040,0,0,90.0*
1,1,0.16510,0.24765,0.29745*
1,1,0.16510,0.24765,-0.29745*
1,1,0.16510,-0.24765,-0.29745*
1,1,0.16510,-0.24765,0.29745*
%
%ADD39ROUNDEDRECTD39*%
%TA.AperFunction,Conductor*%
%ADD40C,0.20000*%
%ADD41C,0.40000*%
%ADD42C,0.15000*%
%TA.AperFunction,ComponentPad*%
%ADD43R,1.57000X1.57000*%
%ADD44C,1.57000*%
%ADD45R,2.20000X2.20000*%
%ADD46C,2.20000*%
%TA.AperFunction,ViaPad*%
%ADD47C,6.20000*%
%ADD48C,0.50000*%
%ADD49C,0.40000*%
G36*
X5771712Y5505030D02*
Y5421615D01*
X5756712Y5419640D01*
X5751787Y5438020D01*
X5738820Y5460481D01*
X5720481Y5478820D01*
X5698020Y5491787D01*
X5672968Y5498500D01*
X5647032D01*
X5621981Y5491787D01*
X5599520Y5478820D01*
X5581181Y5460481D01*
X5568213Y5438020D01*
X5561500Y5412968D01*
Y5387032D01*
X5568213Y5361981D01*
X5581181Y5339520D01*
X5599520Y5321181D01*
X5621981Y5308213D01*
X5647032Y5301500D01*
X5672968D01*
X5698020Y5308213D01*
X5720481Y5321181D01*
X5738820Y5339520D01*
X5751787Y5361981D01*
X5756712Y5380360D01*
X5771712Y5378385D01*
Y5188480D01*
X5756820Y5186104D01*
X5743141Y5209796D01*
X5723796Y5229141D01*
X5700104Y5242820D01*
X5673679Y5249900D01*
X5672700D01*
Y5146000D01*
Y5042100D01*
X5673679D01*
X5700104Y5049181D01*
X5723796Y5062859D01*
X5743141Y5082204D01*
X5756820Y5105896D01*
X5771712Y5103520D01*
Y5086460D01*
X5593371Y4908120D01*
X5586741Y4898196D01*
X5584412Y4886491D01*
X5584413Y4886490D01*
Y4741578D01*
X5570555Y4735837D01*
X5493978Y4812414D01*
Y4832938D01*
X5491650Y4844643D01*
X5485019Y4854566D01*
X5485018Y4854567D01*
X5434510Y4905076D01*
X5424587Y4911706D01*
X5412881Y4914035D01*
X5412880Y4914034D01*
X5022538D01*
X4996708Y4939864D01*
X4996708Y4939865D01*
X4955844Y4980729D01*
X4945920Y4987359D01*
X4934215Y4989688D01*
X4934214Y4989688D01*
X4680786D01*
X4680785Y4989688D01*
X4669080Y4987359D01*
X4659156Y4980729D01*
X4659156Y4980728D01*
X4595015Y4916588D01*
X4312988D01*
X4312987Y4916588D01*
X4301281Y4914259D01*
X4300945Y4914034D01*
X4203947D01*
X4192241Y4911706D01*
X4182318Y4905076D01*
X4029271Y4752029D01*
X4022640Y4742105D01*
X4020312Y4730400D01*
X4020312Y4730398D01*
Y4683476D01*
X4019343Y4682958D01*
X4005000Y4692300D01*
Y4700456D01*
X3998910Y4715158D01*
X3995145Y4718923D01*
Y4769052D01*
X4014429Y4788335D01*
X4021059Y4798259D01*
X4023388Y4809964D01*
X4023387Y4809965D01*
Y4879700D01*
X4021059Y4891406D01*
X4014429Y4901329D01*
X3911629Y5004129D01*
X3901705Y5010759D01*
X3890000Y5013088D01*
X3889999Y5013088D01*
X3785179D01*
X3778965Y5028088D01*
X3783887Y5033009D01*
X3790452Y5048859D01*
X3741160D01*
Y5061559D01*
X3728460D01*
Y5119746D01*
X3726158Y5122009D01*
X3724463Y5125431D01*
X3726500Y5133032D01*
Y5158968D01*
X3719787Y5184020D01*
X3706820Y5206481D01*
X3688481Y5224820D01*
X3666020Y5237787D01*
X3640968Y5244500D01*
X3615032D01*
X3589981Y5237787D01*
X3567520Y5224820D01*
X3549181Y5206481D01*
X3536213Y5184020D01*
X3529500Y5158968D01*
Y5133032D01*
X3536213Y5107981D01*
X3549181Y5085520D01*
X3552754Y5081946D01*
X3547014Y5068088D01*
X3494565D01*
X3491451Y5075607D01*
X3477273Y5089784D01*
X3470035Y5092783D01*
X3465213Y5106986D01*
X3465787Y5107981D01*
X3472500Y5133032D01*
Y5158968D01*
X3465787Y5184020D01*
X3452820Y5206481D01*
X3434481Y5224820D01*
X3412020Y5237787D01*
X3386968Y5244500D01*
X3361032D01*
X3335981Y5237787D01*
X3313520Y5224820D01*
X3295181Y5206481D01*
X3287196Y5192651D01*
X3272196Y5196670D01*
Y5254938D01*
X3329317Y5312060D01*
X3335981Y5308213D01*
X3361032Y5301500D01*
X3386968D01*
X3412020Y5308213D01*
X3434481Y5321181D01*
X3452820Y5339520D01*
X3465787Y5361981D01*
X3472500Y5387032D01*
Y5412968D01*
X3465787Y5438020D01*
X3452820Y5460481D01*
X3434481Y5478820D01*
X3412020Y5491787D01*
X3386968Y5498500D01*
X3361032D01*
X3335981Y5491787D01*
X3313520Y5478820D01*
X3295181Y5460481D01*
X3282213Y5438020D01*
X3275500Y5412968D01*
Y5387032D01*
X3282213Y5361981D01*
X3286060Y5355317D01*
X3219980Y5289237D01*
X3213349Y5279314D01*
X3211021Y5267608D01*
X3211021Y5267607D01*
Y5213238D01*
X3196021Y5209279D01*
X3180481Y5224820D01*
X3158020Y5237787D01*
X3132968Y5244500D01*
X3107032D01*
X3081981Y5237787D01*
X3059520Y5224820D01*
X3041181Y5206481D01*
X3028213Y5184020D01*
X3021500Y5158968D01*
Y5133032D01*
X3026786Y5113305D01*
X2966569Y5053088D01*
X2932071D01*
X2927736Y5064017D01*
X2927388Y5068088D01*
X2944820Y5085520D01*
X2957787Y5107981D01*
X2964500Y5133032D01*
Y5158968D01*
X2957787Y5184020D01*
X2944820Y5206481D01*
X2926481Y5224820D01*
X2918341Y5229519D01*
X2917611Y5232153D01*
X2918866Y5246537D01*
X2924368Y5250213D01*
X3008849Y5334695D01*
X3008850Y5334695D01*
X3015480Y5344618D01*
X3031089Y5346199D01*
X3036859Y5336204D01*
X3056204Y5316859D01*
X3079896Y5303181D01*
X3106321Y5296100D01*
X3107300D01*
Y5400000D01*
X3120000D01*
Y5412700D01*
X3223900D01*
Y5413679D01*
X3216820Y5440104D01*
X3203141Y5463796D01*
X3183796Y5483141D01*
X3160104Y5496820D01*
X3139854Y5502245D01*
X3133098Y5515726D01*
X3132942Y5518900D01*
X3133284Y5519412D01*
X5757330D01*
X5771712Y5505030D01*
D02*
G37*
G36*
X1288017Y5228571D02*
X1281520Y5224820D01*
X1263181Y5206481D01*
X1250213Y5184020D01*
X1243500Y5158968D01*
Y5133032D01*
X1250213Y5107981D01*
X1263181Y5085520D01*
X1281520Y5067181D01*
X1293762Y5060113D01*
X1295497Y5051100D01*
X1294866Y5042155D01*
X1230304Y4977593D01*
X1215592Y4980519D01*
X1213680Y4985135D01*
X1199503Y4999312D01*
X1183653Y5005877D01*
Y4956585D01*
X1158253D01*
Y5005877D01*
X1142404Y4999312D01*
X1130265Y4987173D01*
X1079795D01*
X1079794Y4987173D01*
X1068089Y4984844D01*
X1058165Y4978214D01*
X1058165Y4978213D01*
X995046Y4915095D01*
X981188Y4920835D01*
Y5106100D01*
X996188Y5108074D01*
X996213Y5107981D01*
X1009181Y5085520D01*
X1027520Y5067181D01*
X1049981Y5054213D01*
X1075032Y5047500D01*
X1100968D01*
X1126020Y5054213D01*
X1148481Y5067181D01*
X1166820Y5085520D01*
X1179787Y5107981D01*
X1186500Y5133032D01*
Y5158968D01*
X1179787Y5184020D01*
X1166820Y5206481D01*
X1148481Y5224820D01*
X1141983Y5228571D01*
X1146003Y5243571D01*
X1283997D01*
X1288017Y5228571D01*
D02*
G37*
G36*
X8268785Y5597500D02*
X8500000Y5326505D01*
Y295000D01*
X8196492Y-1713D01*
X5219143Y-1713D01*
X5213403Y12145D01*
X5530000Y328742D01*
X5545000Y322529D01*
Y313549D01*
X5551851Y297010D01*
X5564510Y284351D01*
X5581049Y277500D01*
X5598951D01*
X5615490Y284351D01*
X5628149Y297010D01*
X5635000Y313549D01*
Y324242D01*
X5709702Y398944D01*
X5724413Y396017D01*
X5725206Y394103D01*
X5739384Y379925D01*
X5755233Y373360D01*
Y422652D01*
X5780633D01*
Y373360D01*
X5796483Y379925D01*
X5800628Y384071D01*
X5814682Y376911D01*
X5814600Y376397D01*
Y362700D01*
X6137300D01*
Y685400D01*
X6123603D01*
X6071460Y677141D01*
X6021251Y660827D01*
X5974212Y636860D01*
X5931501Y605829D01*
X5916824Y591151D01*
X5904005Y599546D01*
X5905588Y607500D01*
Y1322619D01*
X5905588Y1322620D01*
X5903259Y1334325D01*
X5896629Y1344249D01*
X5896628Y1344250D01*
X5730484Y1510394D01*
Y2155175D01*
X5862221Y2286912D01*
X6537499D01*
X6537500Y2286912D01*
X6549206Y2289241D01*
X6559129Y2295871D01*
X6889822Y2626564D01*
X7637036D01*
Y2619852D01*
X7727436D01*
X7817836D01*
Y2647552D01*
X7812435D01*
Y2666752D01*
X7817836D01*
Y2694452D01*
X7727436D01*
X7637036D01*
Y2687740D01*
X6877152D01*
X6865447Y2685411D01*
X6855523Y2678781D01*
X6855523Y2678780D01*
X6534705Y2357962D01*
X6532810Y2358339D01*
X6527873Y2374615D01*
X6879822Y2726564D01*
X7637036D01*
Y2719852D01*
X7727436D01*
X7817836D01*
Y2747552D01*
X7812435D01*
Y2766752D01*
X7817836D01*
Y2794452D01*
X7727436D01*
X7637036D01*
Y2787739D01*
X6903095D01*
X6897355Y2801597D01*
X6920170Y2824412D01*
X7559448D01*
X7567010Y2816851D01*
X7583549Y2810000D01*
X7601451D01*
X7617990Y2816851D01*
X7622036Y2820896D01*
X7624556Y2819852D01*
X7727436D01*
X7817836D01*
Y2847552D01*
X7812435D01*
Y2866752D01*
X7817836D01*
Y2894452D01*
X7727436D01*
X7637036D01*
Y2892554D01*
X7622036Y2889103D01*
X7617990Y2893149D01*
X7601451Y2900000D01*
X7583549D01*
X7567010Y2893149D01*
X7559448Y2885588D01*
X6907500D01*
X6895794Y2883259D01*
X6885871Y2876629D01*
X6885870Y2876628D01*
X6467330Y2458088D01*
X6250677D01*
X6242607Y2467952D01*
X6241723Y2473088D01*
X6271538Y2502903D01*
X6280379Y2516134D01*
X6283483Y2531742D01*
Y3308449D01*
X6287700Y3318628D01*
Y3336530D01*
X6280849Y3353069D01*
X6275783Y3358135D01*
Y4040870D01*
X6280000Y4051049D01*
Y4068951D01*
X6273149Y4085490D01*
X6260490Y4098149D01*
X6243951Y4105000D01*
X6226049D01*
X6209510Y4098149D01*
X6196851Y4085490D01*
X6190000Y4068951D01*
Y4051049D01*
X6194216Y4040870D01*
Y3337986D01*
X6194216Y3337985D01*
X6197321Y3322378D01*
X6197700Y3321810D01*
Y3318628D01*
X6201916Y3308449D01*
Y2568919D01*
X6186917Y2565935D01*
X6182727Y2576049D01*
X6168549Y2590227D01*
X6152700Y2596792D01*
Y2547500D01*
X6127300D01*
Y2596792D01*
X6111451Y2590227D01*
X6097273Y2576049D01*
X6096284Y2573662D01*
X6091314Y2572673D01*
X6074775Y2579524D01*
X6056873D01*
X6040334Y2572673D01*
X6027675Y2560014D01*
X6020824Y2543475D01*
Y2525573D01*
X6027675Y2509034D01*
X6040334Y2496375D01*
X6056873Y2489524D01*
X6067566D01*
X6136503Y2420588D01*
X6130289Y2405588D01*
X5762500D01*
X5750794Y2403259D01*
X5740871Y2396629D01*
X5740871Y2396628D01*
X5659446Y2315204D01*
X5645588Y2320944D01*
Y3399220D01*
X5682799Y3436431D01*
X5682800Y3436431D01*
X5689430Y3446355D01*
X5691758Y3458060D01*
Y3601930D01*
X5706759Y3611953D01*
X5711260Y3610088D01*
X5729162D01*
X5745701Y3616939D01*
X5758360Y3629598D01*
X5765211Y3646137D01*
Y3653213D01*
X5769862Y3666774D01*
X5781567Y3669102D01*
X5791491Y3675733D01*
X5946629Y3830871D01*
X5946629Y3830872D01*
X5953260Y3840795D01*
X5955589Y3852501D01*
X5955588Y3852502D01*
Y4211912D01*
X7057335D01*
X7071912Y4209661D01*
X7074241Y4197956D01*
X7080871Y4188033D01*
X7628381Y3640523D01*
X7637036Y3634740D01*
Y3607435D01*
X7622036Y3601222D01*
X7528924Y3694334D01*
Y3702875D01*
X7522073Y3719414D01*
X7509414Y3732073D01*
X7492875Y3738924D01*
X7474973D01*
X7458434Y3732073D01*
X7445775Y3719414D01*
X7438924Y3702875D01*
Y3684973D01*
X7445775Y3668434D01*
X7458434Y3655775D01*
X7474973Y3648924D01*
X7487818D01*
X7601219Y3535524D01*
X7601219Y3535523D01*
X7611143Y3528893D01*
X7622848Y3526564D01*
X7637036D01*
Y3519852D01*
X7727436D01*
X7817836D01*
Y3547552D01*
X7812435D01*
Y3566752D01*
X7817836D01*
Y3594452D01*
X7727436D01*
Y3619852D01*
X7817836D01*
Y3647552D01*
X7812435D01*
Y3666752D01*
X7817836D01*
Y3694452D01*
X7727436D01*
Y3719852D01*
X7817836D01*
Y3747552D01*
X7812435D01*
Y3766752D01*
X7817836D01*
Y3794452D01*
X7727436D01*
Y3819852D01*
X7817836D01*
Y3847552D01*
X7812435D01*
Y3866752D01*
X7817836D01*
Y3894452D01*
X7727436D01*
Y3919852D01*
X7817836D01*
Y3947552D01*
X7812435D01*
Y3966752D01*
X7817836D01*
Y3994452D01*
X7727436D01*
Y4019852D01*
X7817836D01*
Y4047552D01*
X7812435D01*
Y4092152D01*
X7685693D01*
X7313433Y4464412D01*
X7319646Y4479412D01*
X7659796D01*
X7668434Y4470775D01*
X7684973Y4463924D01*
X7702875D01*
X7719415Y4470775D01*
X7732073Y4483434D01*
X7738924Y4499973D01*
Y4517875D01*
X7732073Y4534415D01*
X7719415Y4547073D01*
X7702875Y4553924D01*
X7684973D01*
X7668434Y4547073D01*
X7661948Y4540588D01*
X6310552D01*
X6302990Y4548149D01*
X6286451Y4555000D01*
X6268549D01*
X6252010Y4548149D01*
X6239351Y4535491D01*
X6232500Y4518951D01*
Y4501049D01*
X6226538Y4492127D01*
X5780615D01*
X5773054Y4499688D01*
X5756515Y4506539D01*
X5738613D01*
X5722073Y4499688D01*
X5709415Y4487029D01*
X5702564Y4470490D01*
Y4452588D01*
X5709415Y4436049D01*
X5722073Y4423390D01*
X5725840Y4421830D01*
X5727519Y4419677D01*
X5730861Y4403514D01*
X5728506Y4399990D01*
X5726178Y4388284D01*
X5726178Y4388283D01*
Y4033544D01*
X5718072Y4028128D01*
X5709677Y4019734D01*
X5709034Y4020000D01*
X5691132D01*
X5674593Y4013149D01*
X5661934Y4000490D01*
X5660588Y3997240D01*
X5645588Y4000224D01*
Y4873821D01*
X5823929Y5052162D01*
X5830559Y5062085D01*
X5832887Y5073790D01*
Y5100546D01*
X5847887Y5104147D01*
X5863140Y5074212D01*
X5894171Y5031501D01*
X5931501Y4994171D01*
X5974212Y4963140D01*
X6021251Y4939173D01*
X6071460Y4922859D01*
X6123603Y4914600D01*
X6137300D01*
Y5250000D01*
X6150000D01*
Y5262700D01*
X6485400D01*
Y5276396D01*
X6477141Y5328540D01*
X6460827Y5378749D01*
X6436860Y5425788D01*
X6405829Y5468498D01*
X6368498Y5505829D01*
X6325788Y5536860D01*
X6278749Y5560827D01*
X6228539Y5577141D01*
X6178921Y5585000D01*
X6180101Y5600000D01*
X8254820D01*
X8268785Y5597500D01*
D02*
G37*
G36*
X362700Y4914600D02*
X376397D01*
X428540Y4922859D01*
X478749Y4939173D01*
X525788Y4963140D01*
X568498Y4994171D01*
X605829Y5031501D01*
X636860Y5074212D01*
X652513Y5104932D01*
X667513Y5101331D01*
Y4960770D01*
X312024Y4605281D01*
X301330D01*
X284791Y4598430D01*
X272132Y4585772D01*
X265281Y4569232D01*
Y4551330D01*
X272132Y4534791D01*
X261125Y4525151D01*
X256049Y4530227D01*
X240200Y4536792D01*
Y4487500D01*
Y4438208D01*
X256049Y4444773D01*
X265689Y4454412D01*
X444399D01*
X444400Y4454412D01*
X452270Y4455978D01*
X460547Y4443041D01*
X251986Y4234480D01*
X245356Y4224557D01*
X243027Y4212852D01*
X243027Y4212850D01*
Y3876386D01*
X243027Y3876385D01*
X245356Y3864680D01*
X251986Y3854756D01*
X386988Y3719754D01*
X381248Y3705896D01*
X10626D01*
X29Y3716512D01*
X2528Y5123375D01*
X3375Y5123374D01*
Y5123375D01*
X17656Y5143982D01*
X32496Y5141800D01*
X39173Y5121251D01*
X63140Y5074212D01*
X94171Y5031501D01*
X131502Y4994171D01*
X174212Y4963140D01*
X221251Y4939173D01*
X271460Y4922859D01*
X323604Y4914600D01*
X337300D01*
Y5250000D01*
X362700D01*
Y4914600D01*
D02*
G37*
G36*
X920012Y4902507D02*
X821758Y4804252D01*
X806880Y4810588D01*
X800227Y4826649D01*
X786049Y4840827D01*
X770200Y4847392D01*
Y4798100D01*
X757500D01*
Y4785400D01*
X701542D01*
X431730Y4515588D01*
X350440D01*
X344227Y4530588D01*
X348430Y4534791D01*
X355281Y4551330D01*
Y4562024D01*
X719728Y4926471D01*
X719729Y4926471D01*
X726359Y4936395D01*
X728688Y4948100D01*
Y5035322D01*
X735500Y5047500D01*
X920012D01*
Y4902507D01*
D02*
G37*
G36*
X2054773Y4783668D02*
X2048208Y4767819D01*
X2097500D01*
Y4742419D01*
X2048208D01*
X2049012Y4740478D01*
X2040678Y4728007D01*
X1972035D01*
X1967017Y4731359D01*
X1955312Y4733688D01*
X1955310Y4733688D01*
X1666761D01*
X1661021Y4747545D01*
X1711588Y4798112D01*
X2048004D01*
X2054773Y4783668D01*
D02*
G37*
G36*
X2691574Y4783112D02*
X2691192Y4781192D01*
Y4731662D01*
X2693385Y4720637D01*
X2699630Y4711291D01*
X2708976Y4705046D01*
X2720000Y4702853D01*
X2779490D01*
X2790515Y4705046D01*
X2799861Y4711291D01*
X2806106Y4720637D01*
X2807140Y4725839D01*
X2912250D01*
Y4667650D01*
X2906850D01*
Y4607450D01*
X2982250D01*
Y4582050D01*
X2906850D01*
Y4521850D01*
X2906850D01*
X2914186Y4507926D01*
X2914083Y4506850D01*
X2902093Y4498838D01*
X2902092Y4498838D01*
X2861161Y4457907D01*
X2854609Y4448101D01*
X2838525Y4432017D01*
X2829685Y4418786D01*
X2826580Y4403179D01*
X2826580Y4403177D01*
Y4235524D01*
X2826580Y4235523D01*
X2827500Y4230898D01*
Y4221436D01*
X2834351Y4204897D01*
X2847010Y4192238D01*
X2863549Y4185387D01*
X2881451D01*
X2889600Y4188763D01*
X2904600Y4179249D01*
Y4162100D01*
X2967300D01*
Y4235000D01*
X2992700D01*
Y4162100D01*
X2995060D01*
X3000800Y4148242D01*
X2955646Y4103088D01*
X2835349D01*
X2790588Y4147849D01*
Y4173720D01*
X2799628Y4182760D01*
X2799629Y4182760D01*
X2806259Y4192684D01*
X2808587Y4204389D01*
Y4332264D01*
X2808588Y4332265D01*
X2806259Y4343970D01*
X2799629Y4353894D01*
X2769913Y4383609D01*
X2768553Y4384518D01*
Y4409765D01*
X2766360Y4420790D01*
X2760115Y4430136D01*
X2750769Y4436381D01*
X2739745Y4438574D01*
X2680255D01*
X2669230Y4436381D01*
X2659884Y4430136D01*
X2653639Y4420790D01*
X2651446Y4409765D01*
Y4360235D01*
X2653639Y4349211D01*
X2659884Y4339865D01*
X2669230Y4333620D01*
X2680255Y4331427D01*
X2735580D01*
X2747412Y4319595D01*
Y4304866D01*
X2739744Y4298573D01*
X2680255D01*
X2669230Y4296380D01*
X2667184Y4295013D01*
X2581069Y4381128D01*
Y4444478D01*
X2581069Y4444479D01*
X2578741Y4456184D01*
X2572110Y4466108D01*
X2555764Y4482454D01*
X2561504Y4496312D01*
X2646899D01*
X2646900Y4496312D01*
X2658606Y4498641D01*
X2668529Y4505271D01*
X2716328Y4553070D01*
X2716329Y4553071D01*
X2722865Y4562853D01*
X2779490D01*
X2790515Y4565046D01*
X2799861Y4571291D01*
X2806106Y4580637D01*
X2808299Y4591661D01*
Y4641191D01*
X2806106Y4652216D01*
X2799861Y4661562D01*
X2790515Y4667807D01*
X2779490Y4670000D01*
X2720000D01*
X2708976Y4667807D01*
X2699630Y4661562D01*
X2693385Y4652216D01*
X2691192Y4641191D01*
Y4619429D01*
X2673071Y4601309D01*
X2666441Y4591385D01*
X2666022Y4589279D01*
X2634230Y4557488D01*
X2550776D01*
X2546265Y4560501D01*
X2534560Y4562830D01*
X2534559Y4562830D01*
X2440204D01*
X2440203Y4562830D01*
X2428497Y4560501D01*
X2423987Y4557488D01*
X2381579D01*
X2321977Y4617090D01*
X2322378Y4636290D01*
X2328149Y4642061D01*
X2335000Y4658601D01*
Y4676503D01*
X2328149Y4693042D01*
X2315491Y4705701D01*
X2322147Y4718642D01*
X2323845Y4717939D01*
Y4767231D01*
X2336545D01*
Y4779931D01*
X2385837D01*
X2384519Y4783112D01*
X2394542Y4798112D01*
X2680657D01*
X2691574Y4783112D01*
D02*
G37*
G36*
X3415614Y4704472D02*
X3415614Y4704471D01*
X3425538Y4697841D01*
X3437243Y4695512D01*
X3462262D01*
X3474412Y4683362D01*
Y4640552D01*
X3466851Y4632990D01*
X3460000Y4616451D01*
Y4598549D01*
X3466851Y4582010D01*
X3479510Y4569351D01*
X3486754Y4566350D01*
Y4550114D01*
X3482010Y4548149D01*
X3469351Y4535491D01*
X3462500Y4518951D01*
Y4501049D01*
X3469351Y4484510D01*
X3482010Y4471851D01*
X3498549Y4465000D01*
X3516451D01*
X3532990Y4471851D01*
X3545649Y4484510D01*
X3552500Y4501049D01*
Y4511742D01*
X3632231Y4591474D01*
X3637004Y4591004D01*
X3645306Y4585456D01*
X3655100Y4583508D01*
X3789899D01*
X3802112Y4570644D01*
Y4570356D01*
X3789899Y4557492D01*
X3655100D01*
X3645306Y4555543D01*
X3637004Y4549996D01*
X3631456Y4541693D01*
X3629508Y4531900D01*
Y4482100D01*
X3631456Y4472307D01*
X3637004Y4464004D01*
X3645306Y4458456D01*
X3655100Y4456508D01*
X3749835D01*
X3753665Y4450997D01*
X3745822Y4435997D01*
X3735200D01*
Y4380000D01*
X3709800D01*
Y4435997D01*
X3655100D01*
X3643199Y4433630D01*
X3633111Y4426889D01*
X3626370Y4416800D01*
X3625134Y4410588D01*
X3492670D01*
X3435958Y4467300D01*
X3330708D01*
X3337273Y4451451D01*
X3345662Y4443061D01*
Y4216938D01*
X3337273Y4208549D01*
X3330708Y4192700D01*
X3380000D01*
Y4167300D01*
X3330708D01*
X3337273Y4151451D01*
X3348702Y4140022D01*
X3352671Y4122779D01*
X3298371Y4068479D01*
X3291741Y4058555D01*
X3289454Y4047062D01*
X3281580Y4039188D01*
X3263068Y4041889D01*
X3262996Y4041996D01*
X3254693Y4047543D01*
X3244900Y4049492D01*
X3208088D01*
Y4075508D01*
X3244900D01*
X3254693Y4077456D01*
X3262996Y4083004D01*
X3268543Y4091307D01*
X3270492Y4101100D01*
Y4150900D01*
X3268543Y4160693D01*
X3262996Y4168996D01*
X3254693Y4174543D01*
X3244900Y4176492D01*
X3135163D01*
X3129422Y4190350D01*
X3139328Y4200255D01*
X3139329Y4200256D01*
X3140834Y4202508D01*
X3244900D01*
X3254693Y4204456D01*
X3262996Y4210004D01*
X3268543Y4218307D01*
X3270492Y4228100D01*
Y4277900D01*
X3268543Y4287693D01*
X3262996Y4295996D01*
X3254693Y4301543D01*
X3244900Y4303492D01*
X3127766D01*
X3116749Y4314508D01*
X3122963Y4329508D01*
X3244900D01*
X3254693Y4331456D01*
X3262996Y4337004D01*
X3268543Y4345307D01*
X3270492Y4355100D01*
Y4404900D01*
X3268543Y4414693D01*
X3262996Y4422996D01*
X3254693Y4428543D01*
X3244900Y4430492D01*
X3142185D01*
X3130026Y4442650D01*
X3135766Y4456508D01*
X3244900D01*
X3254693Y4458456D01*
X3262996Y4464004D01*
X3268543Y4472307D01*
X3270492Y4482100D01*
Y4531900D01*
X3268543Y4541693D01*
X3262996Y4549996D01*
X3254693Y4555543D01*
X3244900Y4557492D01*
X3127766D01*
X3116749Y4568508D01*
X3122963Y4583508D01*
X3244900D01*
X3254693Y4585456D01*
X3262996Y4591004D01*
X3268543Y4599307D01*
X3270492Y4609100D01*
Y4658900D01*
X3268543Y4668693D01*
X3262996Y4676996D01*
X3254693Y4682543D01*
X3244900Y4684492D01*
X3208088D01*
Y4710508D01*
X3244900D01*
X3254693Y4712456D01*
X3262996Y4718004D01*
X3268543Y4726307D01*
X3269360Y4730412D01*
X3389673D01*
X3415614Y4704472D01*
D02*
G37*
G36*
X4988238Y4861819D02*
X4988239Y4861818D01*
X4998162Y4855187D01*
X5009868Y4852859D01*
X5009869Y4852859D01*
X5270290D01*
X5271568Y4849466D01*
X5272785Y4837859D01*
X5267004Y4833996D01*
X5261456Y4825693D01*
X5259508Y4815900D01*
Y4766100D01*
X5261456Y4756307D01*
X5267004Y4748004D01*
X5275306Y4742457D01*
X5285100Y4740508D01*
X5321912D01*
Y4714492D01*
X5285100D01*
X5275306Y4712544D01*
X5267004Y4706996D01*
X5261456Y4698693D01*
X5259508Y4688900D01*
Y4639100D01*
X5261456Y4629307D01*
X5261182Y4628645D01*
X5257738Y4627959D01*
X5247814Y4621329D01*
X5225671Y4599186D01*
X5219041Y4589262D01*
X5216712Y4577557D01*
X5216712Y4577556D01*
Y4419970D01*
X5018088Y4221345D01*
X5003088Y4227559D01*
Y4779394D01*
X5000759Y4791099D01*
X4994129Y4801023D01*
X4994128Y4801023D01*
X4973287Y4821864D01*
Y4843983D01*
X4970959Y4855689D01*
X4966538Y4862306D01*
X4978189Y4871868D01*
X4988238Y4861819D01*
D02*
G37*
G36*
X727100Y4390410D02*
Y4312700D01*
X800000D01*
Y4300000D01*
X812700D01*
Y4207100D01*
X872899D01*
Y4207100D01*
X882500Y4212500D01*
X919412D01*
Y4166721D01*
X909543Y4156851D01*
X898849D01*
X882310Y4150000D01*
X869651Y4137342D01*
X862800Y4120802D01*
Y4102900D01*
X864039Y4099911D01*
X855705Y4087439D01*
X831150D01*
X819445Y4085111D01*
X809521Y4078480D01*
X758971Y4027930D01*
X752341Y4018007D01*
X750012Y4006301D01*
X750012Y4006300D01*
Y4005726D01*
X735012Y3996454D01*
X726451Y4000000D01*
X708549D01*
X692010Y3993149D01*
X684448Y3985588D01*
X616837D01*
X616836Y3985588D01*
X605131Y3983259D01*
X595207Y3976629D01*
X595207Y3976628D01*
X566216Y3947638D01*
X497549D01*
X494988Y3950199D01*
Y3994377D01*
X492659Y4006083D01*
X486029Y4016006D01*
X486028Y4016007D01*
X465588Y4036447D01*
Y4133149D01*
X465588Y4133150D01*
X470728Y4139412D01*
X519999D01*
X520000Y4139412D01*
X531705Y4141741D01*
X541629Y4148371D01*
X560758Y4167500D01*
X571451D01*
X587990Y4174351D01*
X600649Y4187010D01*
X607500Y4203549D01*
Y4221451D01*
X600649Y4237991D01*
X587990Y4250649D01*
X585001Y4251887D01*
X582075Y4266599D01*
X714732Y4399256D01*
X727100Y4390410D01*
D02*
G37*
G36*
X4422700Y4132100D02*
X4467112D01*
Y4061180D01*
X4467112Y4061179D01*
X4469441Y4049474D01*
X4476071Y4039550D01*
X4483122Y4032500D01*
X4476908Y4017500D01*
X4395758D01*
X4366629Y4046629D01*
X4356705Y4053259D01*
X4345000Y4055588D01*
X4344999Y4055588D01*
X4215615D01*
X4209875Y4069446D01*
X4237444Y4097014D01*
X4299536D01*
X4301846Y4096555D01*
X4305787Y4097339D01*
X4309803D01*
X4313514Y4098876D01*
X4317454Y4099660D01*
X4320794Y4101891D01*
X4324504Y4103428D01*
X4327344Y4106268D01*
X4330685Y4108500D01*
X4332917Y4111841D01*
X4335757Y4114681D01*
X4337294Y4118391D01*
X4339525Y4121731D01*
X4340309Y4125671D01*
X4341846Y4129382D01*
Y4132100D01*
X4397300D01*
Y4205000D01*
X4422700D01*
Y4132100D01*
D02*
G37*
G36*
X4350000Y3976742D02*
Y3912478D01*
X4344620Y3908672D01*
X4335000Y3904756D01*
X4321725Y3910255D01*
Y3860963D01*
Y3808610D01*
X4330162Y3800174D01*
X4339259Y3794096D01*
X4344600Y3793033D01*
Y3747100D01*
X4409747D01*
X4415960Y3732100D01*
X4411851Y3727991D01*
X4405000Y3711451D01*
Y3693549D01*
X4411851Y3677010D01*
X4424510Y3664351D01*
X4441049Y3657500D01*
X4458951D01*
X4475490Y3664351D01*
X4488149Y3677010D01*
X4494694Y3692811D01*
X4504770Y3694816D01*
X4514694Y3701446D01*
X4528835Y3715588D01*
X4528836Y3715588D01*
X4535466Y3725512D01*
X4537795Y3737217D01*
X4537795Y3737219D01*
Y3754404D01*
X4538288Y3756884D01*
Y3876912D01*
X4949999D01*
X4950000Y3876912D01*
X4961705Y3879241D01*
X4971629Y3885871D01*
X4986426Y3879455D01*
Y3844704D01*
X4978843Y3837121D01*
X4975013Y3836359D01*
X4965090Y3829729D01*
X4942771Y3807410D01*
X4936141Y3797487D01*
X4933812Y3785782D01*
X4933813Y3785780D01*
Y3654220D01*
X4933812Y3654218D01*
X4936141Y3642513D01*
X4942771Y3632589D01*
X4956990Y3618371D01*
X4966913Y3611741D01*
X4978619Y3609412D01*
X4978620Y3609412D01*
X4993630D01*
X5001456Y3597700D01*
X5101685D01*
X5109511Y3609412D01*
X5250813D01*
X5250815Y3609412D01*
X5262520Y3611741D01*
X5272444Y3618371D01*
X5279099Y3625027D01*
X5283091Y3625229D01*
X5296980Y3621695D01*
X5300871Y3615872D01*
X5312586Y3604157D01*
X5312587Y3604156D01*
X5322510Y3597525D01*
X5334215Y3595197D01*
X5334217Y3595197D01*
X5344015D01*
X5352500Y3586712D01*
Y3584137D01*
X5359351Y3567597D01*
X5372010Y3554939D01*
X5376478Y3553088D01*
X5373494Y3538088D01*
X5325609D01*
X5325607Y3538088D01*
X5313902Y3535760D01*
X5303978Y3529129D01*
X5241955Y3467106D01*
X5224262Y3470626D01*
X5220979Y3478550D01*
X5206802Y3492727D01*
X5190953Y3499292D01*
Y3450000D01*
X5178253D01*
Y3437300D01*
X5128961D01*
X5135526Y3421451D01*
X5149703Y3407273D01*
X5159682Y3403140D01*
X5168493Y3394448D01*
X5169001Y3384600D01*
X5168227Y3380708D01*
X5168227Y3380707D01*
Y3372290D01*
X5156515Y3364465D01*
Y3314350D01*
X5131115D01*
Y3363642D01*
X5115266Y3357077D01*
X5103127Y3344938D01*
X5082320D01*
X5043088Y3384170D01*
Y3437074D01*
X5055002Y3448988D01*
X5061567Y3464838D01*
X5012275D01*
Y3490238D01*
X5068233D01*
X5073199Y3495203D01*
X5073199Y3495204D01*
X5079830Y3505127D01*
X5082158Y3516833D01*
X5082158Y3516834D01*
Y3544311D01*
X5094297Y3556451D01*
X5100863Y3572300D01*
X5002279D01*
X5008844Y3556451D01*
X5020848Y3544447D01*
Y3529367D01*
X5019418Y3527938D01*
X5002250D01*
X5000335Y3527144D01*
X4987863Y3535478D01*
Y3540506D01*
X4985535Y3552211D01*
X4978904Y3562135D01*
X4978904Y3562135D01*
X4902628Y3638411D01*
X4892705Y3645041D01*
X4880999Y3647370D01*
X4880998Y3647370D01*
X4519458D01*
X4507753Y3645041D01*
X4497829Y3638411D01*
X4350006Y3490588D01*
X4104652D01*
X4095029Y3500211D01*
Y3504779D01*
X4088178Y3521319D01*
X4085207Y3524290D01*
X4091420Y3539290D01*
X4114878D01*
Y3650000D01*
X4140278D01*
Y3539290D01*
X4210710D01*
Y3596344D01*
X4225710Y3606367D01*
X4227300Y3605708D01*
Y3655000D01*
X4240000D01*
Y3667700D01*
X4289292D01*
X4282727Y3683549D01*
X4268549Y3697727D01*
X4268038Y3697939D01*
Y3714429D01*
X4265904Y3725159D01*
X4260372Y3733439D01*
Y3760440D01*
X4267326Y3767395D01*
X4273404Y3776491D01*
X4275539Y3787221D01*
Y3804045D01*
X4290539Y3814068D01*
X4296325Y3811671D01*
Y3860963D01*
Y3910255D01*
X4280476Y3903690D01*
X4266299Y3889512D01*
X4265389Y3887316D01*
X4247500D01*
X4236770Y3885182D01*
X4227674Y3879104D01*
X4223248Y3872480D01*
X4220356Y3870863D01*
X4212921Y3868874D01*
X4205894Y3867956D01*
X4200769Y3871380D01*
X4189745Y3873573D01*
X4130255D01*
X4119230Y3871380D01*
X4109884Y3865136D01*
X4103639Y3855790D01*
X4101446Y3844765D01*
Y3833833D01*
X4083901D01*
X4083900Y3833833D01*
X4072194Y3831505D01*
X4062271Y3824874D01*
X3975937Y3738541D01*
X3960937Y3744754D01*
Y3825760D01*
X4087588Y3952412D01*
X4101446Y3946672D01*
Y3935235D01*
X4103639Y3924211D01*
X4109884Y3914865D01*
X4119230Y3908620D01*
X4130255Y3906427D01*
X4189745D01*
X4200769Y3908620D01*
X4210115Y3914865D01*
X4216360Y3924211D01*
X4218553Y3935235D01*
Y3984765D01*
X4226470Y3994412D01*
X4332330D01*
X4350000Y3976742D01*
D02*
G37*
G36*
X1346075Y3931545D02*
X1345000Y3928951D01*
Y3911049D01*
X1351851Y3894510D01*
X1364510Y3881851D01*
X1374877Y3877557D01*
X1375440Y3875400D01*
X1369975Y3860400D01*
X1351451Y3852727D01*
X1344312Y3845588D01*
X1327669D01*
X1325957Y3847300D01*
X1220708D01*
X1227273Y3831451D01*
X1241451Y3817273D01*
X1259975Y3809600D01*
X1266870D01*
X1275046Y3800513D01*
X1277816Y3786629D01*
X1277816Y3786628D01*
X1163738Y3672551D01*
X1148738Y3678764D01*
Y3696424D01*
X1189281Y3736967D01*
X1189281Y3736967D01*
X1195912Y3746891D01*
X1198240Y3758596D01*
X1198240Y3758598D01*
Y3779637D01*
X1198240Y3779638D01*
X1195912Y3791343D01*
X1189281Y3801267D01*
X1189281Y3801267D01*
X1118836Y3871712D01*
X1118936Y3873838D01*
X1123632Y3886712D01*
X1167949D01*
X1167951Y3886712D01*
X1179656Y3889041D01*
X1189580Y3895671D01*
X1240454Y3946546D01*
X1336052D01*
X1346075Y3931545D01*
D02*
G37*
G36*
X1474217Y3615993D02*
X1428595Y3570371D01*
X1419754Y3557140D01*
X1416649Y3541533D01*
X1416649Y3541531D01*
Y3454261D01*
X1402678Y3451042D01*
X1401649Y3451025D01*
X1389169Y3463505D01*
X1372630Y3470356D01*
X1354728D01*
X1338189Y3463505D01*
X1325530Y3450846D01*
X1318679Y3434307D01*
Y3423614D01*
X1249352Y3354286D01*
X1240918D01*
X1240917Y3354286D01*
X1229212Y3351958D01*
X1219288Y3345327D01*
X1219288Y3345327D01*
X1123371Y3249410D01*
X1116741Y3239487D01*
X1114412Y3227781D01*
X1114412Y3227780D01*
Y3150525D01*
X1101183Y3143454D01*
X1098690Y3145121D01*
X1092700Y3146312D01*
Y3050000D01*
X1067300D01*
Y3146312D01*
X1061311Y3145121D01*
X1045466Y3134534D01*
X1034879Y3118690D01*
X1031162Y3100000D01*
Y3079181D01*
X1017304Y3073440D01*
X982578Y3108166D01*
X972655Y3114796D01*
X960949Y3117125D01*
X960948Y3117125D01*
X907486D01*
X899660Y3128837D01*
X849546D01*
Y3154237D01*
X898838D01*
X898041Y3156162D01*
X908063Y3171162D01*
X960000D01*
X978690Y3174879D01*
X994534Y3185466D01*
X1005121Y3201311D01*
X1006312Y3207300D01*
X910000D01*
Y3232700D01*
X1006312D01*
X1005121Y3238690D01*
X1003454Y3241184D01*
X1010525Y3254412D01*
X1048342D01*
X1048344Y3254412D01*
X1060049Y3256741D01*
X1069972Y3263371D01*
X1143801Y3337199D01*
X1150431Y3347123D01*
X1152759Y3358828D01*
Y3365037D01*
X1167917Y3380195D01*
X1171954D01*
X1188493Y3387046D01*
X1201152Y3399704D01*
X1208003Y3416244D01*
Y3434146D01*
X1203358Y3445360D01*
X1211076Y3460360D01*
X1215851D01*
X1215852Y3460360D01*
X1227558Y3462688D01*
X1237481Y3469319D01*
X1271280Y3503118D01*
X1271281Y3503119D01*
X1277912Y3513042D01*
X1280240Y3524747D01*
X1281258Y3532993D01*
X1296629Y3535080D01*
X1302536Y3520821D01*
X1316713Y3506643D01*
X1332562Y3500078D01*
Y3549370D01*
X1345262D01*
Y3562070D01*
X1394554D01*
X1387989Y3577920D01*
X1373812Y3592097D01*
X1362583Y3596748D01*
X1367943Y3610607D01*
X1385844D01*
X1402384Y3617458D01*
X1415042Y3630116D01*
X1421893Y3646656D01*
Y3664558D01*
X1415042Y3681097D01*
X1409093Y3687046D01*
X1410905Y3696155D01*
X1423563Y3708814D01*
X1430414Y3725353D01*
Y3743255D01*
X1423563Y3759794D01*
X1412317Y3771041D01*
X1422727Y3781451D01*
X1429292Y3797300D01*
X1380000D01*
Y3822700D01*
X1429292D01*
X1423092Y3837669D01*
X1423288Y3839070D01*
X1424067Y3840970D01*
X1430285Y3852204D01*
X1474217D01*
Y3615993D01*
D02*
G37*
G36*
X5461912Y3486275D02*
Y2850170D01*
X5443785Y2832043D01*
X5429961Y2839432D01*
X5430492Y2842100D01*
Y2891900D01*
X5428544Y2901693D01*
X5422996Y2909996D01*
X5414694Y2915544D01*
X5404900Y2917492D01*
X5294320D01*
X5286689Y2932492D01*
X5290703Y2938003D01*
X5324800D01*
Y2994000D01*
Y3049997D01*
X5299826D01*
X5292194Y3064997D01*
X5296208Y3070508D01*
X5404900D01*
X5414694Y3072457D01*
X5422996Y3078004D01*
X5428544Y3086307D01*
X5430492Y3096100D01*
Y3145900D01*
X5428544Y3155693D01*
X5422996Y3163996D01*
X5414694Y3169544D01*
X5404900Y3171492D01*
X5291962D01*
X5285749Y3186492D01*
X5296766Y3197508D01*
X5404900D01*
X5414694Y3199457D01*
X5422996Y3205004D01*
X5428544Y3213307D01*
X5430492Y3223100D01*
Y3272900D01*
X5428544Y3282693D01*
X5422996Y3290996D01*
X5414694Y3296544D01*
X5404900Y3298492D01*
X5373088D01*
Y3324508D01*
X5404900D01*
X5414694Y3326457D01*
X5422996Y3332004D01*
X5428544Y3340307D01*
X5430492Y3350100D01*
Y3399900D01*
X5428544Y3409693D01*
X5422996Y3417996D01*
X5414694Y3423544D01*
X5404900Y3425492D01*
X5306455D01*
X5300715Y3439350D01*
X5338277Y3476913D01*
X5420280D01*
X5420282Y3476912D01*
X5431987Y3479241D01*
X5441910Y3485871D01*
X5448054Y3492015D01*
X5461912Y3486275D01*
D02*
G37*
G36*
X3119886Y3552700D02*
X3170000D01*
Y3527300D01*
X3120708D01*
X3127273Y3511451D01*
X3141451Y3497273D01*
X3141961Y3497062D01*
Y3448039D01*
X3085400D01*
Y3452900D01*
X3022699D01*
Y3380001D01*
X2997299D01*
Y3452900D01*
X2934600D01*
Y3410588D01*
X2838612D01*
X2838611Y3410588D01*
X2826905Y3408259D01*
X2816982Y3401629D01*
X2816981Y3401628D01*
X2802411Y3387058D01*
X2788553Y3392799D01*
Y3404765D01*
X2786360Y3415790D01*
X2780116Y3425136D01*
X2770770Y3431380D01*
X2759745Y3433574D01*
X2744755D01*
X2736737Y3448573D01*
X2736870Y3448772D01*
X2893499D01*
X2893500Y3448771D01*
X2905205Y3451100D01*
X2915129Y3457730D01*
X3021810Y3564412D01*
X3112060D01*
X3119886Y3552700D01*
D02*
G37*
G36*
X4699509Y3382234D02*
Y3350100D01*
X4701457Y3340307D01*
X4707004Y3332004D01*
X4715307Y3326457D01*
X4725100Y3324508D01*
X4766912D01*
Y3298492D01*
X4725100D01*
X4715307Y3296544D01*
X4707004Y3290996D01*
X4701457Y3282693D01*
X4699509Y3272900D01*
Y3223100D01*
X4701457Y3213307D01*
X4707004Y3205004D01*
X4715307Y3199457D01*
X4725100Y3197508D01*
X4859900D01*
X4864188Y3194091D01*
Y3184715D01*
X4850604Y3171492D01*
X4725100D01*
X4715307Y3169544D01*
X4707004Y3163996D01*
X4701457Y3155693D01*
X4699844Y3147588D01*
X4570000D01*
Y3207100D01*
X4575400D01*
Y3267300D01*
X4500000D01*
X4424600D01*
Y3207100D01*
X4430000D01*
Y3180587D01*
X4297395D01*
X4296360Y3185789D01*
X4290116Y3195135D01*
X4280770Y3201380D01*
X4269745Y3203573D01*
X4210255D01*
X4199231Y3201380D01*
X4189885Y3195135D01*
X4183640Y3185789D01*
X4181447Y3174765D01*
Y3125235D01*
X4183640Y3114210D01*
X4189885Y3104864D01*
X4199231Y3098619D01*
X4210255Y3096426D01*
X4269745D01*
X4280770Y3098619D01*
X4290116Y3104864D01*
X4292119Y3107862D01*
X4294163Y3108053D01*
X4300945Y3093622D01*
X4269465Y3062142D01*
X4138034D01*
X4092365Y3107811D01*
X4088149Y3117990D01*
X4075490Y3130649D01*
X4058951Y3137500D01*
X4041049D01*
X4031459Y3133528D01*
X4016459Y3142197D01*
Y3208201D01*
X4067670Y3259413D01*
X4182605D01*
X4183640Y3254211D01*
X4189885Y3244865D01*
X4199231Y3238620D01*
X4210255Y3236427D01*
X4269745D01*
X4280770Y3238620D01*
X4290116Y3244865D01*
X4296360Y3254211D01*
X4298554Y3265235D01*
Y3314765D01*
X4296360Y3325790D01*
X4290116Y3335136D01*
X4283716Y3339412D01*
X4286289Y3354412D01*
X4410227D01*
X4417913Y3353603D01*
X4424600Y3340531D01*
Y3292700D01*
X4500000D01*
X4575400D01*
Y3309642D01*
X4620358Y3354600D01*
X4629825D01*
X4648349Y3362273D01*
X4662527Y3376451D01*
X4668839Y3391690D01*
X4679700Y3395968D01*
X4685200Y3396543D01*
X4699509Y3382234D01*
D02*
G37*
G36*
X4001292Y3506423D02*
X4005029Y3503340D01*
Y3486877D01*
X4011880Y3470338D01*
X4024539Y3457679D01*
X4041078Y3450829D01*
X4057896D01*
X4070353Y3438372D01*
X4070353Y3438371D01*
X4080277Y3431741D01*
X4088547Y3430096D01*
Y3414801D01*
X4080795Y3413259D01*
X4070871Y3406629D01*
X4070871Y3406628D01*
X3924242Y3260000D01*
X3917612Y3250077D01*
X3915283Y3238371D01*
X3915284Y3238370D01*
Y3061459D01*
X3900284Y3053928D01*
X3895492Y3057497D01*
Y3081900D01*
X3893543Y3091693D01*
X3887996Y3099996D01*
X3879693Y3105543D01*
X3869900Y3107492D01*
X3735100D01*
X3725306Y3105543D01*
X3717004Y3099996D01*
X3711456Y3091693D01*
X3709508Y3081900D01*
Y3032100D01*
X3711456Y3022307D01*
X3717004Y3014004D01*
X3725306Y3008457D01*
X3735100Y3006508D01*
X3843791D01*
X3847805Y3000997D01*
X3840174Y2985997D01*
X3815200D01*
Y2930000D01*
Y2874003D01*
X3869900D01*
X3881800Y2876370D01*
X3891889Y2883111D01*
X3898630Y2893200D01*
X3900997Y2905100D01*
Y2936532D01*
X3915997Y2942745D01*
X3976912Y2881830D01*
Y2699595D01*
X3964440Y2691262D01*
X3961451Y2692500D01*
X3943549D01*
X3942906Y2692234D01*
X3937511Y2697629D01*
X3927588Y2704259D01*
X3915882Y2706588D01*
X3915881Y2706588D01*
X3894360D01*
X3893543Y2710693D01*
X3887996Y2718996D01*
X3879693Y2724543D01*
X3869900Y2726492D01*
X3747963D01*
X3741749Y2741492D01*
X3752766Y2752508D01*
X3869900D01*
X3879693Y2754457D01*
X3887996Y2760004D01*
X3893543Y2768307D01*
X3895492Y2778100D01*
Y2827900D01*
X3893543Y2837693D01*
X3887996Y2845996D01*
X3879693Y2851543D01*
X3869900Y2853492D01*
X3759320D01*
X3751688Y2868492D01*
X3755702Y2874003D01*
X3789800D01*
Y2917300D01*
X3704002D01*
Y2917260D01*
X3653023Y2866281D01*
X3639199Y2873670D01*
X3640588Y2880650D01*
X3640588Y2880651D01*
Y3060480D01*
X3719128Y3139021D01*
X3719129Y3139021D01*
X3719389Y3139410D01*
X3725306Y3135457D01*
X3735100Y3133508D01*
X3869900D01*
X3879693Y3135457D01*
X3887996Y3141004D01*
X3893543Y3149307D01*
X3895492Y3159100D01*
Y3208900D01*
X3893543Y3218693D01*
X3887996Y3226996D01*
X3879693Y3232543D01*
X3869900Y3234492D01*
X3833088D01*
Y3260508D01*
X3869900D01*
X3879693Y3262457D01*
X3887996Y3268004D01*
X3893543Y3276307D01*
X3895492Y3286100D01*
Y3318234D01*
X3923388Y3346130D01*
X3923389Y3346131D01*
X3927308Y3351997D01*
X3932990Y3354351D01*
X3945649Y3367010D01*
X3952500Y3383549D01*
Y3401451D01*
X3945649Y3417990D01*
X3932990Y3430649D01*
X3930001Y3431887D01*
X3927075Y3446599D01*
X3991295Y3510819D01*
X4001292Y3506423D01*
D02*
G37*
G36*
X4950871Y3305733D02*
X5138236Y3118368D01*
X5138237Y3118367D01*
X5148160Y3111736D01*
X5159866Y3109408D01*
X5159867Y3109408D01*
X5212138D01*
X5212139Y3109408D01*
X5220625Y3111096D01*
X5228757Y3100370D01*
X5229468Y3098725D01*
X5146286Y3015544D01*
X5139656Y3005620D01*
X5137327Y2993915D01*
X5137327Y2993914D01*
Y2991240D01*
X5136684Y2990974D01*
X5124026Y2978316D01*
X5117175Y2961776D01*
Y2960791D01*
X5102575Y2959825D01*
X5094902Y2978349D01*
X5080724Y2992527D01*
X5064875Y2999092D01*
Y2949800D01*
X5052175D01*
Y2937100D01*
X5002883D01*
X5009448Y2921251D01*
X5023626Y2907073D01*
X5032462Y2903413D01*
X5029478Y2888413D01*
X4976704D01*
X4964999Y2886085D01*
X4955075Y2879454D01*
X4955075Y2879453D01*
X4886471Y2810850D01*
X4879841Y2800926D01*
X4879644Y2799936D01*
X4870570Y2789548D01*
X4862800Y2789915D01*
X4859900Y2790492D01*
X4742766D01*
X4731749Y2801508D01*
X4737963Y2816508D01*
X4859900D01*
X4869694Y2818457D01*
X4877996Y2824004D01*
X4883544Y2832307D01*
X4885492Y2842100D01*
Y2891900D01*
X4883544Y2901693D01*
X4877996Y2909996D01*
X4869694Y2915544D01*
X4859900Y2917492D01*
X4742766D01*
X4731749Y2928508D01*
X4737963Y2943508D01*
X4859900D01*
X4869694Y2945457D01*
X4877996Y2951004D01*
X4883544Y2959307D01*
X4885492Y2969100D01*
Y3018900D01*
X4883544Y3028693D01*
X4877996Y3036996D01*
X4869694Y3042544D01*
X4859900Y3044492D01*
X4725100D01*
X4715307Y3042544D01*
X4709369Y3038577D01*
X4460359D01*
X4452824Y3049852D01*
X4435177Y3067500D01*
X4441390Y3082500D01*
X4570000D01*
Y3086412D01*
X4701436D01*
X4701457Y3086307D01*
X4707004Y3078004D01*
X4715307Y3072457D01*
X4725100Y3070508D01*
X4859900D01*
X4869694Y3072457D01*
X4877996Y3078004D01*
X4883544Y3086307D01*
X4898410Y3084155D01*
X4900000Y3083549D01*
X4906851Y3067010D01*
X4919510Y3054351D01*
X4936049Y3047500D01*
X4953951D01*
X4970490Y3054351D01*
X4983149Y3067010D01*
X4990000Y3083549D01*
Y3101451D01*
X4983149Y3117990D01*
X4970490Y3130649D01*
X4953951Y3137500D01*
X4943258D01*
X4935588Y3145170D01*
Y3301607D01*
X4950588Y3306157D01*
X4950871Y3305733D01*
D02*
G37*
G36*
X2940000Y3182500D02*
X2979412D01*
Y3147501D01*
X2979412Y3147500D01*
X2981741Y3135795D01*
X2988371Y3125871D01*
X3042485Y3071758D01*
X3036744Y3057900D01*
X3022699D01*
Y2985000D01*
X2997299D01*
Y3057900D01*
X2934600D01*
Y3053088D01*
X2851559D01*
X2732079Y3172568D01*
X2737819Y3186426D01*
X2759745D01*
X2770770Y3188619D01*
X2780116Y3194864D01*
X2786360Y3204210D01*
X2787395Y3209412D01*
X2940000D01*
Y3182500D01*
D02*
G37*
G36*
X1946325Y3050700D02*
Y2871717D01*
X1946324Y2871716D01*
X1948041Y2863088D01*
X1942375Y2852581D01*
X1938579Y2848088D01*
X1877500D01*
X1865795Y2845759D01*
X1855871Y2839129D01*
X1759830Y2743088D01*
X1705400D01*
Y2799801D01*
X1632500D01*
Y2825201D01*
X1705400D01*
Y2887900D01*
X1701191D01*
X1691510Y2902900D01*
X1694481Y2910073D01*
X1645189D01*
Y2935473D01*
X1694481D01*
X1690789Y2944384D01*
X1697859Y2960977D01*
X1707151Y2964153D01*
X1713417Y2959966D01*
X1730000Y2956667D01*
X1746583Y2959966D01*
X1753162Y2964362D01*
X1768162Y2956345D01*
Y2936802D01*
X1764351Y2932990D01*
X1757500Y2916451D01*
Y2898549D01*
X1764351Y2882009D01*
X1777010Y2869351D01*
X1793549Y2862500D01*
X1811451D01*
X1827991Y2869351D01*
X1840649Y2882009D01*
X1847500Y2898549D01*
Y2916451D01*
X1840649Y2932990D01*
X1835379Y2938260D01*
X1836359Y2948447D01*
X1850853Y2958487D01*
X1860000Y2956667D01*
X1876583Y2959966D01*
X1890641Y2969359D01*
X1900034Y2983417D01*
X1903332Y3000000D01*
Y3074093D01*
X1917190Y3079834D01*
X1946325Y3050700D01*
D02*
G37*
G36*
X1918347Y3694412D02*
X1888662Y3664727D01*
X1879821Y3651496D01*
X1876716Y3635888D01*
X1876717Y3635887D01*
Y3584113D01*
X1876716Y3584112D01*
X1879821Y3568505D01*
X1888662Y3555274D01*
X1921539Y3522396D01*
X1922742Y3519089D01*
Y3505911D01*
X1921539Y3502604D01*
X1888662Y3469727D01*
X1879821Y3456495D01*
X1876716Y3440888D01*
X1876717Y3440887D01*
Y3389113D01*
X1876716Y3389112D01*
X1879821Y3373505D01*
X1888662Y3360273D01*
X1926817Y3322118D01*
X1932921Y3318039D01*
X1939509Y3302649D01*
X1939280Y3298136D01*
X1936667Y3285000D01*
X1939966Y3268417D01*
X1948077Y3256279D01*
X1945466Y3254534D01*
X1934879Y3238690D01*
X1933688Y3232701D01*
X2030001D01*
Y3220001D01*
X2042701D01*
Y3164042D01*
X2053162Y3153580D01*
Y2954439D01*
X2047273Y2948549D01*
X2040708Y2932700D01*
X2090000D01*
Y2907300D01*
X2040708D01*
X2041417Y2905588D01*
X2031394Y2890588D01*
X2007500D01*
Y3063369D01*
X2005172Y3075075D01*
X1998541Y3084998D01*
X1998540Y3084999D01*
X1872628Y3210911D01*
X1873149Y3213530D01*
X1887327Y3227707D01*
X1893892Y3243557D01*
X1844600D01*
Y3256257D01*
X1831900D01*
Y3305549D01*
X1816050Y3298983D01*
X1807933Y3290866D01*
X1790269Y3289609D01*
X1790491Y3304351D01*
X1803149Y3317010D01*
X1810000Y3333549D01*
Y3344242D01*
X1839128Y3373370D01*
X1839129Y3373371D01*
X1845759Y3383294D01*
X1848088Y3395000D01*
X1848087Y3395001D01*
Y3664989D01*
X1892511Y3709412D01*
X1912134D01*
X1918347Y3694412D01*
D02*
G37*
G36*
X4643549Y2815000D02*
X4646124D01*
X4655596Y2805529D01*
Y2801760D01*
X4657925Y2790055D01*
X4664555Y2780131D01*
X4670752Y2775991D01*
X4699509Y2747234D01*
Y2715100D01*
X4701457Y2705307D01*
X4707004Y2697004D01*
X4715307Y2691457D01*
X4725100Y2689508D01*
X4766912D01*
Y2663492D01*
X4725100D01*
X4715307Y2661544D01*
X4707004Y2655996D01*
X4701457Y2647693D01*
X4699509Y2637900D01*
Y2588100D01*
X4700194Y2584652D01*
X4699195Y2569159D01*
X4689271Y2562529D01*
X4689271Y2562528D01*
X4684341Y2557598D01*
X4669629Y2560525D01*
X4668836Y2562440D01*
X4654658Y2576617D01*
X4638809Y2583183D01*
Y2533891D01*
X4613409D01*
Y2583183D01*
X4600400Y2577794D01*
X4585400Y2582900D01*
Y2582900D01*
X4540588D01*
Y2634999D01*
X4540588Y2635000D01*
X4538259Y2646705D01*
X4531629Y2656629D01*
X4531628Y2656629D01*
X4499616Y2688642D01*
X4505356Y2702500D01*
X4587500D01*
Y2793419D01*
X4591632Y2794241D01*
X4601555Y2800871D01*
X4614166Y2813482D01*
X4627010Y2821851D01*
X4643549Y2815000D01*
D02*
G37*
G36*
X2940944Y2740872D02*
X2940945Y2740871D01*
X2950868Y2734241D01*
X2962573Y2731912D01*
X2962575Y2731912D01*
X3054479D01*
X3058371Y2726087D01*
X3070087Y2714372D01*
X3070087Y2714371D01*
X3080011Y2707741D01*
X3091716Y2705412D01*
X3091717Y2705412D01*
X3160805D01*
X3164508Y2700900D01*
Y2651100D01*
X3166456Y2641307D01*
X3172004Y2633004D01*
X3180307Y2627457D01*
X3190100Y2625508D01*
X3226912D01*
Y2599492D01*
X3190100D01*
X3180307Y2597543D01*
X3172004Y2591996D01*
X3166456Y2583693D01*
X3164508Y2573900D01*
Y2560481D01*
X3149508Y2554268D01*
X3148549Y2555227D01*
X3132700Y2561792D01*
Y2512500D01*
X3107300D01*
Y2561792D01*
X3091451Y2555227D01*
X3090400Y2554176D01*
X3075400Y2560390D01*
Y2592299D01*
X3000000D01*
Y2604999D01*
X2987300D01*
Y2677900D01*
X2966753D01*
X2900539Y2744114D01*
Y2760064D01*
X2912300Y2766002D01*
X2915538Y2766277D01*
X2940944Y2740872D01*
D02*
G37*
G36*
X2028309Y2570909D02*
X2024410Y2561497D01*
X2073702D01*
Y2536097D01*
X2024410D01*
X2024633Y2535560D01*
X2016299Y2523088D01*
X1399438D01*
X1351617Y2570910D01*
X1357830Y2585909D01*
X2019940D01*
X2028309Y2570909D01*
D02*
G37*
G36*
X4479412Y2622330D02*
Y2582900D01*
X4434600D01*
Y2522700D01*
X4509999D01*
Y2497300D01*
X4434600D01*
Y2437100D01*
X4440000D01*
Y2400588D01*
X4317395D01*
X4316361Y2405789D01*
X4310116Y2415135D01*
X4300770Y2421380D01*
X4289745Y2423573D01*
X4233064D01*
X4228455Y2430305D01*
X4226372Y2438095D01*
X4244704Y2456427D01*
X4289745D01*
X4300770Y2458620D01*
X4310116Y2464865D01*
X4316361Y2474211D01*
X4318554Y2485235D01*
Y2512212D01*
X4333554Y2518426D01*
X4334509Y2517470D01*
X4351049Y2510619D01*
X4368951D01*
X4385490Y2517470D01*
X4398149Y2530129D01*
X4405000Y2546668D01*
Y2564570D01*
X4400783Y2574749D01*
Y2625608D01*
X4403838Y2628662D01*
X4403839Y2628663D01*
X4408178Y2635158D01*
X4413149Y2640128D01*
X4420000Y2656668D01*
Y2660529D01*
X4435000Y2666742D01*
X4479412Y2622330D01*
D02*
G37*
G36*
X716755Y2980000D02*
X715197Y2972713D01*
X711423Y2964120D01*
X697010Y2958150D01*
X684351Y2945491D01*
X677500Y2928951D01*
Y2911050D01*
X684351Y2894510D01*
X697010Y2881851D01*
X698673Y2881163D01*
X700349Y2878704D01*
X704733Y2862416D01*
X700708Y2852700D01*
X750000D01*
Y2840000D01*
X762700D01*
Y2784042D01*
X829966Y2716776D01*
Y2632348D01*
X817827Y2620209D01*
X811262Y2604359D01*
X909846D01*
X903281Y2620209D01*
X891141Y2632348D01*
Y2722169D01*
X906141Y2728382D01*
X1141678Y2492846D01*
X1135938Y2478988D01*
X1111748D01*
X1053507Y2537229D01*
X1043583Y2543859D01*
X1031878Y2546188D01*
X1031877Y2546187D01*
X907571D01*
X901358Y2561187D01*
X903281Y2563110D01*
X909846Y2578959D01*
X811262D01*
X817827Y2563110D01*
X819749Y2561187D01*
X813536Y2546187D01*
X804355D01*
X804354Y2546188D01*
X792649Y2543859D01*
X782725Y2537229D01*
X782725Y2537228D01*
X741742Y2496246D01*
X731049D01*
X723284Y2493030D01*
X708284Y2502768D01*
Y2643226D01*
X705179Y2658833D01*
X696338Y2672065D01*
X696338Y2672065D01*
X608284Y2760119D01*
Y3068874D01*
X622142Y3074614D01*
X716755Y2980000D01*
D02*
G37*
G36*
X4819713Y2508056D02*
X4827534Y2495312D01*
X4826426Y2489745D01*
Y2430255D01*
X4828620Y2419230D01*
X4834864Y2409884D01*
X4844210Y2403640D01*
X4849412Y2402605D01*
Y2367501D01*
X4849412Y2367500D01*
X4851741Y2355795D01*
X4858371Y2345871D01*
X4900871Y2303371D01*
X4910795Y2296741D01*
X4922500Y2294412D01*
X4922501Y2294412D01*
X5115783D01*
X5115784Y2294412D01*
X5127490Y2296741D01*
X5137413Y2303371D01*
X5149128Y2315086D01*
X5149129Y2315087D01*
X5155759Y2325010D01*
X5158088Y2336716D01*
X5158088Y2336717D01*
Y2390000D01*
X5212100D01*
Y2384600D01*
X5216912D01*
Y2340478D01*
X5070871Y2194438D01*
X5064241Y2184514D01*
X5061912Y2172809D01*
X5061912Y2172808D01*
Y2113189D01*
X5049773Y2101049D01*
X5043208Y2085200D01*
X5092500D01*
Y2059800D01*
X5042386D01*
X5034560Y2048088D01*
X4782001D01*
X4782000Y2048088D01*
X4770295Y2045759D01*
X4760371Y2039129D01*
X4758858Y2037616D01*
X4756612Y2038172D01*
X4745000Y2044971D01*
Y2058951D01*
X4738149Y2075490D01*
X4725490Y2088149D01*
X4708951Y2095000D01*
X4698258D01*
X4629918Y2163339D01*
X4619995Y2169970D01*
X4608289Y2172298D01*
X4608288Y2172298D01*
X4549554D01*
X4546039Y2184886D01*
X4545938Y2187298D01*
X4558149Y2199510D01*
X4565000Y2216049D01*
Y2233951D01*
X4558149Y2250491D01*
X4551727Y2256912D01*
X4557941Y2271912D01*
X4587479D01*
X4587480Y2271912D01*
X4599185Y2274241D01*
X4609109Y2280871D01*
X4729684Y2401447D01*
X4764764D01*
X4775789Y2403640D01*
X4785135Y2409884D01*
X4791380Y2419230D01*
X4793573Y2430255D01*
Y2489745D01*
X4792465Y2495312D01*
X4800286Y2508056D01*
X4803044Y2510312D01*
X4816956D01*
X4819713Y2508056D01*
D02*
G37*
G36*
X2686152Y2010872D02*
X2686153Y2010871D01*
X2696076Y2004241D01*
X2707781Y2001912D01*
X2886860D01*
X2895194Y1989440D01*
X2895182Y1989412D01*
X2944474D01*
Y1976712D01*
X2957174D01*
Y1923080D01*
X3167554Y1712700D01*
X3279945D01*
Y1687300D01*
X3170615D01*
X3172450Y1678075D01*
X3184869Y1659488D01*
X3188963Y1656753D01*
Y1641753D01*
X3188762Y1641619D01*
X3177536Y1624818D01*
X3173594Y1605000D01*
X3177536Y1585182D01*
X3188762Y1568381D01*
X3205563Y1557155D01*
X3225381Y1553213D01*
X3249357D01*
Y1467895D01*
X3234358Y1461682D01*
X3151599Y1544440D01*
Y1576488D01*
X3151599Y1576489D01*
X3149270Y1588194D01*
X3142640Y1598118D01*
X3142639Y1598118D01*
X2917500Y1823258D01*
Y1917097D01*
X2928940Y1928594D01*
X2931774Y1927420D01*
Y1964012D01*
X2895182D01*
X2901747Y1948163D01*
X2914910Y1935000D01*
X2914450Y1930190D01*
X2910492Y1920000D01*
X2652500D01*
Y1780001D01*
X2652500D01*
X2652375Y1765052D01*
X2580399Y1693075D01*
X2554592D01*
X2538985Y1689971D01*
X2525753Y1681130D01*
X2525753Y1681129D01*
X2441872Y1597249D01*
X2433031Y1584018D01*
X2429927Y1568411D01*
X2429927Y1568409D01*
Y1542700D01*
X2290784D01*
Y1567266D01*
X2332811Y1609294D01*
X2342990Y1613510D01*
X2355649Y1626169D01*
X2362500Y1642708D01*
Y1650199D01*
X2364014Y1651960D01*
X2377500Y1658986D01*
X2388549Y1654410D01*
X2406451D01*
X2422990Y1661261D01*
X2435649Y1673919D01*
X2442500Y1690459D01*
Y1708361D01*
X2435649Y1724900D01*
X2428088Y1732461D01*
Y1880400D01*
X2428042Y1880628D01*
X2429369Y1882614D01*
X2431698Y1894320D01*
X2431698Y1894321D01*
Y1918058D01*
X2439259Y1925619D01*
X2446110Y1942159D01*
Y1960061D01*
X2439259Y1976600D01*
X2426600Y1989259D01*
X2410061Y1996110D01*
X2392159D01*
X2375620Y1989259D01*
X2362961Y1976600D01*
X2361366Y1972749D01*
X2345130D01*
X2342727Y1978549D01*
X2333916Y1987360D01*
X2400807Y2054251D01*
X2400808Y2054251D01*
X2443100Y2096543D01*
Y2152501D01*
X2455800D01*
Y2165201D01*
X2511023D01*
X2519403Y2169848D01*
X2526582Y2170441D01*
X2686152Y2010872D01*
D02*
G37*
G36*
X3630343Y1753137D02*
X3633123Y1749014D01*
X3639362Y1733951D01*
X3653540Y1719773D01*
X3660747Y1716788D01*
Y1708571D01*
X3662882Y1697841D01*
X3668960Y1688745D01*
X3677747Y1679958D01*
X3686843Y1673880D01*
X3697573Y1671746D01*
X3701689D01*
Y1662602D01*
X3770000D01*
Y1637202D01*
X3701689D01*
Y1581689D01*
X3741962D01*
Y1512788D01*
X3744096Y1502058D01*
X3750174Y1492962D01*
X3785681Y1457455D01*
X3785083Y1450160D01*
X3776451Y1437500D01*
X3758549D01*
X3742010Y1430649D01*
X3729351Y1417990D01*
X3725135Y1407811D01*
X3709562Y1392238D01*
X3692914D01*
X3692913Y1392239D01*
X3677306Y1389134D01*
X3664074Y1380293D01*
X3664074Y1380292D01*
X3628770Y1344988D01*
X3619929Y1331757D01*
X3616824Y1316150D01*
X3616825Y1316149D01*
Y1082911D01*
X3417089D01*
X3408088Y1094182D01*
Y1350867D01*
X3408088Y1350869D01*
X3405759Y1362574D01*
X3399129Y1372497D01*
X3399128Y1372498D01*
X3310533Y1461093D01*
Y1553213D01*
X3334510D01*
X3354328Y1557155D01*
X3371128Y1568381D01*
X3376874Y1576980D01*
X3386439Y1583371D01*
X3400012Y1596944D01*
X3416288Y1592007D01*
X3417646Y1585182D01*
X3428872Y1568381D01*
X3445673Y1557155D01*
X3465490Y1553213D01*
X3574619D01*
X3594437Y1557155D01*
X3611238Y1568381D01*
X3622464Y1585182D01*
X3626406Y1605000D01*
X3622464Y1624818D01*
X3611238Y1641619D01*
X3594437Y1652844D01*
X3574619Y1656786D01*
X3465490D01*
X3464060Y1656502D01*
X3450588Y1669116D01*
Y1717767D01*
X3448259Y1729473D01*
X3446815Y1731634D01*
X3448719Y1737005D01*
X3455835Y1745134D01*
X3465490Y1743213D01*
X3574619D01*
X3594437Y1747156D01*
X3611238Y1758381D01*
X3611534Y1758824D01*
X3616689Y1759850D01*
X3630343Y1753137D01*
D02*
G37*
G36*
X1456238Y2249441D02*
X1455000Y2246451D01*
Y2228550D01*
X1461851Y2212010D01*
X1474510Y2199351D01*
X1491049Y2192501D01*
X1508951D01*
X1525490Y2199351D01*
X1533052Y2206913D01*
X1961235D01*
X2002276Y2165872D01*
X2012200Y2159241D01*
X2023905Y2156913D01*
X2023906Y2156913D01*
X2392677D01*
X2392678Y2156913D01*
X2394725Y2155053D01*
X2395435Y2135394D01*
X2357551Y2097509D01*
X2357550Y2097509D01*
X2273911Y2013870D01*
X2267281Y2003946D01*
X2264952Y1992241D01*
X2264952Y1992240D01*
Y1986228D01*
X2257273Y1978549D01*
X2250708Y1962700D01*
X2300000D01*
Y1950000D01*
X2312700D01*
Y1900708D01*
X2328549Y1907273D01*
X2342727Y1921451D01*
X2345589Y1928361D01*
X2361825D01*
X2362961Y1925619D01*
X2370522Y1918058D01*
Y1906618D01*
X2364641Y1897815D01*
X2362312Y1886110D01*
X2362312Y1886108D01*
Y1885001D01*
X2362312Y1885000D01*
X2364641Y1873294D01*
X2366912Y1869894D01*
Y1732461D01*
X2359351Y1724900D01*
X2355400Y1715362D01*
X2340400Y1718345D01*
Y1757300D01*
X2255000D01*
X2169600D01*
Y1684600D01*
X2169600D01*
X2167689Y1670392D01*
X1900000D01*
X1892196Y1668840D01*
X1885581Y1664419D01*
X1881160Y1657804D01*
X1879608Y1650000D01*
Y1636271D01*
X1864608Y1631043D01*
X1854676Y1637679D01*
X1842500Y1640101D01*
Y1736743D01*
X1845170Y1739412D01*
X1965000D01*
Y1690000D01*
X2125000D01*
Y1850000D01*
X1965000D01*
Y1800588D01*
X1832500D01*
X1820794Y1798259D01*
X1810871Y1791629D01*
X1799242Y1780000D01*
X1665784D01*
Y1909592D01*
X1662679Y1925199D01*
X1653838Y1938430D01*
X1653838Y1938431D01*
X1610330Y1981939D01*
X1597099Y1990779D01*
X1581492Y1993884D01*
X1581491Y1993884D01*
X1352517D01*
X1327831Y2018570D01*
Y2200222D01*
X1327831Y2200223D01*
X1324726Y2215831D01*
X1315886Y2229062D01*
X1297308Y2247639D01*
X1300911Y2257662D01*
X1304248Y2261913D01*
X1447905D01*
X1456238Y2249441D01*
D02*
G37*
G36*
X2656446Y1632556D02*
X2656222Y1631428D01*
X2656222Y1631427D01*
Y1354516D01*
X2641222Y1347417D01*
X2628951Y1352500D01*
X2611049D01*
X2594510Y1345649D01*
X2581851Y1332990D01*
X2581397Y1331894D01*
X2575400Y1329131D01*
X2566235Y1335000D01*
X2250000D01*
Y1360400D01*
X2560400D01*
Y1548100D01*
X2529290D01*
X2523077Y1563100D01*
X2571485Y1611508D01*
X2597291D01*
X2597292Y1611508D01*
X2612899Y1614613D01*
X2626130Y1623453D01*
X2642622Y1639945D01*
X2656446Y1632556D01*
D02*
G37*
G36*
X5584413Y2186390D02*
Y1039009D01*
X5584412Y1039008D01*
X5586741Y1027303D01*
X5593371Y1017379D01*
X5640086Y970665D01*
X5640087Y970664D01*
X5650010Y964033D01*
X5661716Y961705D01*
X5661717Y961705D01*
X5727154D01*
X5737176Y946705D01*
X5735000Y941451D01*
Y923549D01*
X5741851Y907010D01*
X5754412Y894448D01*
Y817012D01*
X5453341Y515940D01*
X5435647Y519460D01*
X5433149Y525490D01*
X5420490Y538149D01*
X5403951Y545000D01*
X5386049D01*
X5369509Y538149D01*
X5356851Y525490D01*
X5352634Y515311D01*
X5178106Y340783D01*
X4735224D01*
X4729011Y355783D01*
X4751628Y378401D01*
X4751629Y378402D01*
X4758259Y388325D01*
X4760588Y400030D01*
X4760588Y400032D01*
Y1858101D01*
X4772300Y1865926D01*
Y1916041D01*
X4797700D01*
Y1866749D01*
X4813549Y1873314D01*
X4825688Y1885453D01*
X4840213D01*
X4840214Y1885453D01*
X4843196Y1886046D01*
X5039412Y1689830D01*
Y1657989D01*
X5027273Y1645849D01*
X5019600Y1627325D01*
Y1610158D01*
X5017530Y1608088D01*
X4948188D01*
X4936049Y1620227D01*
X4920200Y1626792D01*
Y1577500D01*
Y1528208D01*
X4936049Y1534773D01*
X4948188Y1546912D01*
X5030199D01*
X5030200Y1546912D01*
X5041905Y1549241D01*
X5051829Y1555871D01*
X5057300Y1561342D01*
Y1617300D01*
X5082700D01*
Y1568008D01*
X5098549Y1574573D01*
X5112727Y1588751D01*
X5114412Y1592820D01*
X5129412Y1589836D01*
Y1273052D01*
X5121851Y1265490D01*
X5115000Y1248951D01*
Y1231049D01*
X5121851Y1214510D01*
X5134510Y1201851D01*
X5151049Y1195000D01*
X5168951D01*
X5185491Y1201851D01*
X5198149Y1214510D01*
X5205000Y1231049D01*
Y1248951D01*
X5198149Y1265490D01*
X5190588Y1273052D01*
Y1801106D01*
X5561628Y2172147D01*
X5561629Y2172148D01*
X5568259Y2182071D01*
X5569413Y2187867D01*
X5584413Y2186390D01*
D02*
G37*
G36*
X2244306Y1636142D02*
X2221162Y1612998D01*
X2212321Y1599767D01*
X2209216Y1584160D01*
X2209217Y1584158D01*
Y1548100D01*
X1945621D01*
X1939600Y1548100D01*
X1929351Y1558855D01*
X1929129Y1559973D01*
X1920289Y1573204D01*
X1920288Y1573205D01*
X1900000Y1593493D01*
Y1650000D01*
X2238565D01*
X2244306Y1636142D01*
D02*
G37*
G36*
X3774461Y1322186D02*
Y1263862D01*
X3776596Y1253132D01*
X3782674Y1244036D01*
X3801961Y1224748D01*
Y1210781D01*
X3801007Y1209826D01*
X3794929Y1200730D01*
X3792794Y1190000D01*
Y1185783D01*
X3791451Y1185227D01*
X3777273Y1171049D01*
X3770708Y1155200D01*
X3820000D01*
Y1142500D01*
X3832700D01*
Y1083624D01*
X3834399Y1078242D01*
X3834952Y1072629D01*
X3756769Y994446D01*
X3742911Y1000186D01*
Y1082911D01*
X3698392D01*
Y1299257D01*
X3709806Y1310671D01*
X3726454D01*
X3726455Y1310671D01*
X3742062Y1313776D01*
X3755293Y1322616D01*
X3760603Y1327926D01*
X3774461Y1322186D01*
D02*
G37*
G36*
X3996810Y1556603D02*
X4006989Y1552386D01*
X4046717Y1512659D01*
Y1166658D01*
X4031717Y1160986D01*
X4017700Y1166792D01*
Y1117500D01*
Y1068208D01*
X4031717Y1074014D01*
X4046717Y1068342D01*
Y469130D01*
X4042500Y458951D01*
Y445049D01*
X4030625Y438174D01*
X4028642Y437694D01*
X3975588Y490749D01*
Y1058895D01*
X3990588Y1068917D01*
X3992300Y1068208D01*
Y1117500D01*
Y1166792D01*
X3990588Y1166083D01*
X3975588Y1176105D01*
Y1556611D01*
X3990588Y1562825D01*
X3996810Y1556603D01*
D02*
G37*
G36*
X1344600Y1690400D02*
Y1632700D01*
X1410000D01*
Y1620000D01*
X1422700D01*
Y1549600D01*
X1464906D01*
X1474412Y1538882D01*
X1476741Y1527177D01*
X1483371Y1517253D01*
X1546366Y1454258D01*
X1540626Y1440400D01*
X1412700D01*
Y1300001D01*
X1400000D01*
Y1287301D01*
X1199600D01*
Y1159600D01*
X1188576Y1150000D01*
X1026279D01*
X1021141Y1169178D01*
X1004026Y1198822D01*
X979822Y1223026D01*
X950178Y1240141D01*
X917115Y1249000D01*
X882885D01*
X849822Y1240141D01*
X820178Y1223026D01*
X805586Y1208434D01*
X790586Y1214647D01*
Y1364600D01*
X887300D01*
Y1500000D01*
Y1635400D01*
X790586D01*
Y1700000D01*
X1333576D01*
X1344600Y1690400D01*
D02*
G37*
G36*
X1582512Y1149441D02*
X1582512Y1149440D01*
X1584841Y1137735D01*
X1591471Y1127811D01*
X1714782Y1004500D01*
X1708569Y989500D01*
X1669000D01*
Y829500D01*
X1679412D01*
Y590000D01*
X1630000D01*
Y410000D01*
X1779412D01*
Y370000D01*
X1710000D01*
Y130000D01*
X1910000D01*
Y219412D01*
X1937089D01*
Y164510D01*
X2067694D01*
Y321886D01*
X2068811Y323003D01*
X2092305D01*
Y164510D01*
X2179653D01*
X2234817Y109346D01*
X2229077Y95488D01*
X1422488D01*
Y124600D01*
X1497300D01*
Y237300D01*
X1404600D01*
Y210756D01*
X1390742Y205016D01*
X1217488Y378271D01*
Y659600D01*
X1233725D01*
X1243649Y644599D01*
X1240849Y637840D01*
X1339433D01*
X1336633Y644599D01*
X1346556Y659600D01*
X1387301D01*
Y800000D01*
Y940400D01*
X1259374D01*
X1253634Y954258D01*
X1281467Y982091D01*
X1281468Y982092D01*
X1360919Y1061542D01*
X1364510Y1057951D01*
X1381049Y1051100D01*
X1398951D01*
X1415490Y1057951D01*
X1428149Y1070610D01*
X1435000Y1087149D01*
Y1105051D01*
X1428149Y1121591D01*
X1415490Y1134249D01*
X1398951Y1141100D01*
X1381049D01*
X1364510Y1134249D01*
X1356948Y1126688D01*
X1352220D01*
X1352219Y1126688D01*
X1340513Y1124359D01*
X1330590Y1117729D01*
X1330589Y1117728D01*
X1238211Y1025350D01*
X1238210Y1025349D01*
X1238210Y1025349D01*
X1165271Y952410D01*
X1158641Y942487D01*
X1156312Y930781D01*
X1156312Y930780D01*
Y374329D01*
X1141312Y368116D01*
X794025Y715402D01*
X791473Y1014829D01*
X806420Y1021095D01*
X816862Y1010653D01*
X847737Y992827D01*
X882174Y983600D01*
X887300D01*
Y1119000D01*
X912700D01*
Y983600D01*
X917826D01*
X952263Y992827D01*
X983137Y1010653D01*
X1008347Y1035863D01*
X1026173Y1066738D01*
X1035400Y1101174D01*
Y1129608D01*
X1188576D01*
X1191802Y1130249D01*
X1195065Y1130668D01*
X1195682Y1131021D01*
X1196380Y1131160D01*
X1199116Y1132988D01*
X1201969Y1134622D01*
X1212992Y1144223D01*
X1213427Y1144786D01*
X1214019Y1145181D01*
X1215847Y1147917D01*
X1217858Y1150518D01*
X1218044Y1151205D01*
X1218440Y1151797D01*
X1219081Y1155022D01*
X1219944Y1158196D01*
X1232331Y1165000D01*
X1582512D01*
Y1149441D01*
D02*
G37*
G36*
X626717Y2354052D02*
Y564019D01*
X612451Y559384D01*
X605829Y568498D01*
X568498Y605829D01*
X525788Y636860D01*
X478749Y660827D01*
X428540Y677141D01*
X380588Y684736D01*
Y1034830D01*
X402300Y1056542D01*
Y1099800D01*
X359042D01*
X328371Y1069129D01*
X321741Y1059205D01*
X319412Y1047500D01*
X319412Y1047499D01*
Y684736D01*
X271460Y677141D01*
X221251Y660827D01*
X174212Y636860D01*
X131502Y605829D01*
X94171Y568498D01*
X63140Y525788D01*
X39173Y478749D01*
X23906Y431762D01*
X9155Y426028D01*
X-2500Y440000D01*
X-5767Y453647D01*
X-3365Y1805896D01*
X598088D01*
Y2359527D01*
X612465Y2363574D01*
X626717Y2354052D01*
D02*
G37*
G36*
X3914412Y1015522D02*
Y478080D01*
X3914412Y478079D01*
X3916741Y466373D01*
X3923371Y456450D01*
X4208949Y170872D01*
X4208950Y170871D01*
X4218873Y164241D01*
X4230579Y161912D01*
X4230580Y161912D01*
X5162441D01*
X5168655Y146912D01*
X5117230Y95488D01*
X2769262D01*
X2763522Y109346D01*
X3127788Y473612D01*
X3273994D01*
X3280627Y466980D01*
X3290551Y460349D01*
X3302256Y458021D01*
X3462263D01*
X3462265Y458020D01*
X3473970Y460349D01*
X3483893Y466980D01*
X3515164Y498250D01*
X3521794Y508173D01*
X3524831Y510169D01*
X3538169Y513603D01*
X3551907Y504424D01*
X3572856Y500257D01*
X3608850D01*
Y555000D01*
X3621550D01*
Y567700D01*
X3722461D01*
X3720820Y575949D01*
X3708953Y593709D01*
X3704437Y596727D01*
Y614767D01*
X3705060Y615184D01*
X3715734Y631157D01*
X3719482Y650000D01*
X3715734Y668842D01*
X3705060Y684816D01*
X3699578Y688480D01*
Y706520D01*
X3705060Y710184D01*
X3715734Y726158D01*
X3719482Y745000D01*
X3715734Y763843D01*
X3705060Y779816D01*
X3689087Y790490D01*
X3670244Y794238D01*
X3574923D01*
Y810114D01*
X3574923Y810115D01*
X3572595Y821820D01*
X3565964Y831744D01*
X3565963Y831744D01*
X3513888Y883820D01*
X3503964Y890451D01*
X3492259Y892780D01*
X3492257Y892779D01*
X3355181D01*
X3352197Y907779D01*
X3362806Y912174D01*
X3375465Y924832D01*
X3382316Y941372D01*
Y952065D01*
X3398129Y967879D01*
X3402089Y973805D01*
X3417089Y969255D01*
Y937089D01*
X3512204D01*
X3514626Y924913D01*
X3523467Y911682D01*
X3546898Y888251D01*
X3546898Y888251D01*
X3560130Y879410D01*
X3575737Y876306D01*
X3688165D01*
X3696498Y863834D01*
X3695343Y861046D01*
Y843144D01*
X3702194Y826604D01*
X3714853Y813946D01*
X3731392Y807095D01*
X3749294D01*
X3754855Y809398D01*
X3805075D01*
X3809546Y804928D01*
Y377143D01*
X3794546Y374159D01*
X3792727Y378549D01*
X3778549Y392727D01*
X3762700Y399292D01*
Y350000D01*
Y300708D01*
X3778549Y307273D01*
X3792727Y321451D01*
X3794804Y326466D01*
X3811040D01*
X3811851Y324510D01*
X3824509Y311851D01*
X3841049Y305000D01*
X3858951D01*
X3875490Y311851D01*
X3888149Y324510D01*
X3895000Y341049D01*
Y358951D01*
X3891113Y368336D01*
Y821820D01*
X3891113Y821821D01*
X3888008Y837429D01*
X3879168Y850660D01*
X3850807Y879020D01*
X3837576Y887861D01*
X3821969Y890965D01*
X3821967Y890965D01*
X3790630D01*
X3784890Y904823D01*
X3791749Y911682D01*
X3791749Y911682D01*
X3796563Y918886D01*
X3899412Y1021736D01*
X3914412Y1015522D01*
D02*
G37*
G36*
X2668830Y570339D02*
X2668830Y570338D01*
X2678753Y563708D01*
X2690459Y561380D01*
X2853756D01*
X2859970Y546380D01*
X2856210Y542620D01*
X2849645Y526771D01*
X2898937D01*
Y501371D01*
X2849645D01*
X2856210Y485522D01*
X2869816Y471916D01*
X2872561Y468349D01*
X2875033Y455920D01*
X2720517Y301404D01*
X2705805Y304330D01*
X2705093Y306049D01*
X2690916Y320227D01*
X2675066Y326792D01*
Y277500D01*
X2649666D01*
Y337300D01*
X2562501D01*
Y362700D01*
X2647900D01*
Y440635D01*
X2647900Y445399D01*
X2647901Y445400D01*
X2645400Y454600D01*
X2645400Y454601D01*
Y537300D01*
X2560000D01*
Y562700D01*
X2645400D01*
Y574171D01*
X2659258Y579911D01*
X2668830Y570339D01*
D02*
G37*
G36*
X904235Y238088D02*
X900982Y227937D01*
X896204Y223088D01*
X682529D01*
X666600Y239017D01*
X677141Y271460D01*
X685400Y323604D01*
Y337300D01*
X350000D01*
Y362700D01*
X685400D01*
Y376397D01*
X677141Y428540D01*
X669715Y451395D01*
X682868Y459455D01*
X904235Y238088D01*
D02*
G37*
G36*
X1197700Y143208D02*
X1213549Y149773D01*
X1227727Y163951D01*
X1230662Y171038D01*
X1248356Y174557D01*
X1310512Y112401D01*
Y43859D01*
X1310512Y43858D01*
X1312841Y32153D01*
X1319471Y22229D01*
X1329555Y12146D01*
X1323815Y-1712D01*
X378998D01*
X377919Y-18D01*
X385484Y16039D01*
X428540Y22859D01*
X478749Y39173D01*
X525788Y63140D01*
X568498Y94171D01*
X605829Y131502D01*
X631312Y166576D01*
X646875Y170527D01*
X651037Y168996D01*
X658154Y164241D01*
X669859Y161912D01*
X1144311D01*
X1156451Y149773D01*
X1172300Y143208D01*
Y192500D01*
X1197700D01*
Y143208D01*
D02*
G37*
%LPC*%
G36*
X4911679Y5503900D02*
X4910700D01*
Y5412700D01*
X5001900D01*
Y5413679D01*
X4994820Y5440104D01*
X4981141Y5463796D01*
X4961796Y5483141D01*
X4938104Y5496820D01*
X4911679Y5503900D01*
D02*
G37*
G36*
X4885300D02*
X4884321D01*
X4857896Y5496820D01*
X4834204Y5483141D01*
X4814859Y5463796D01*
X4801181Y5440104D01*
X4794100Y5413679D01*
Y5412700D01*
X4885300D01*
Y5503900D01*
D02*
G37*
G36*
X4403679D02*
X4402700D01*
Y5412700D01*
X4493900D01*
Y5413679D01*
X4486820Y5440104D01*
X4473141Y5463796D01*
X4453796Y5483141D01*
X4430104Y5496820D01*
X4403679Y5503900D01*
D02*
G37*
G36*
X4377300D02*
X4376321D01*
X4349896Y5496820D01*
X4326204Y5483141D01*
X4306859Y5463796D01*
X4293181Y5440104D01*
X4286100Y5413679D01*
Y5412700D01*
X4377300D01*
Y5503900D01*
D02*
G37*
G36*
X5418968Y5498500D02*
X5393032D01*
X5367981Y5491787D01*
X5345520Y5478820D01*
X5327181Y5460481D01*
X5314213Y5438020D01*
X5307500Y5412968D01*
Y5387032D01*
X5314213Y5361981D01*
X5327181Y5339520D01*
X5345520Y5321181D01*
X5367981Y5308213D01*
X5393032Y5301500D01*
X5418968D01*
X5444020Y5308213D01*
X5466481Y5321181D01*
X5484820Y5339520D01*
X5497787Y5361981D01*
X5504500Y5387032D01*
Y5412968D01*
X5497787Y5438020D01*
X5484820Y5460481D01*
X5466481Y5478820D01*
X5444020Y5491787D01*
X5418968Y5498500D01*
D02*
G37*
G36*
X5164968D02*
X5139032D01*
X5113981Y5491787D01*
X5091520Y5478820D01*
X5073181Y5460481D01*
X5060213Y5438020D01*
X5053500Y5412968D01*
Y5387032D01*
X5060213Y5361981D01*
X5073181Y5339520D01*
X5091520Y5321181D01*
X5113981Y5308213D01*
X5139032Y5301500D01*
X5164968D01*
X5190020Y5308213D01*
X5212481Y5321181D01*
X5230820Y5339520D01*
X5243787Y5361981D01*
X5250500Y5387032D01*
Y5412968D01*
X5243787Y5438020D01*
X5230820Y5460481D01*
X5212481Y5478820D01*
X5190020Y5491787D01*
X5164968Y5498500D01*
D02*
G37*
G36*
X4656968D02*
X4631032D01*
X4605981Y5491787D01*
X4583520Y5478820D01*
X4565181Y5460481D01*
X4552213Y5438020D01*
X4545500Y5412968D01*
Y5387032D01*
X4552213Y5361981D01*
X4565181Y5339520D01*
X4583520Y5321181D01*
X4605981Y5308213D01*
X4631032Y5301500D01*
X4656968D01*
X4682020Y5308213D01*
X4704481Y5321181D01*
X4722820Y5339520D01*
X4735787Y5361981D01*
X4742500Y5387032D01*
Y5412968D01*
X4735787Y5438020D01*
X4722820Y5460481D01*
X4704481Y5478820D01*
X4682020Y5491787D01*
X4656968Y5498500D01*
D02*
G37*
G36*
X4148968D02*
X4123032D01*
X4097981Y5491787D01*
X4075520Y5478820D01*
X4057181Y5460481D01*
X4044213Y5438020D01*
X4037500Y5412968D01*
Y5387032D01*
X4044213Y5361981D01*
X4057181Y5339520D01*
X4075520Y5321181D01*
X4097981Y5308213D01*
X4123032Y5301500D01*
X4148968D01*
X4174020Y5308213D01*
X4196481Y5321181D01*
X4214820Y5339520D01*
X4227787Y5361981D01*
X4234500Y5387032D01*
Y5412968D01*
X4227787Y5438020D01*
X4214820Y5460481D01*
X4196481Y5478820D01*
X4174020Y5491787D01*
X4148968Y5498500D01*
D02*
G37*
G36*
X3894968D02*
X3869032D01*
X3843981Y5491787D01*
X3821520Y5478820D01*
X3803181Y5460481D01*
X3790213Y5438020D01*
X3783500Y5412968D01*
Y5387032D01*
X3790213Y5361981D01*
X3803181Y5339520D01*
X3821520Y5321181D01*
X3843981Y5308213D01*
X3869032Y5301500D01*
X3894968D01*
X3920020Y5308213D01*
X3942481Y5321181D01*
X3960820Y5339520D01*
X3973787Y5361981D01*
X3980500Y5387032D01*
Y5412968D01*
X3973787Y5438020D01*
X3960820Y5460481D01*
X3942481Y5478820D01*
X3920020Y5491787D01*
X3894968Y5498500D01*
D02*
G37*
G36*
X3640968D02*
X3615032D01*
X3589981Y5491787D01*
X3567520Y5478820D01*
X3549181Y5460481D01*
X3536213Y5438020D01*
X3529500Y5412968D01*
Y5387032D01*
X3536213Y5361981D01*
X3549181Y5339520D01*
X3567520Y5321181D01*
X3589981Y5308213D01*
X3615032Y5301500D01*
X3640968D01*
X3666020Y5308213D01*
X3688481Y5321181D01*
X3706820Y5339520D01*
X3719787Y5361981D01*
X3726500Y5387032D01*
Y5412968D01*
X3719787Y5438020D01*
X3706820Y5460481D01*
X3688481Y5478820D01*
X3666020Y5491787D01*
X3640968Y5498500D01*
D02*
G37*
G36*
X5001900Y5387300D02*
X4910700D01*
Y5296100D01*
X4911679D01*
X4938104Y5303181D01*
X4961796Y5316859D01*
X4981141Y5336204D01*
X4994820Y5359896D01*
X5001900Y5386321D01*
Y5387300D01*
D02*
G37*
G36*
X4885300D02*
X4794100D01*
Y5386321D01*
X4801181Y5359896D01*
X4814859Y5336204D01*
X4834204Y5316859D01*
X4857896Y5303181D01*
X4884321Y5296100D01*
X4885300D01*
Y5387300D01*
D02*
G37*
G36*
X4493900D02*
X4402700D01*
Y5296100D01*
X4403679D01*
X4430104Y5303181D01*
X4453796Y5316859D01*
X4473141Y5336204D01*
X4486820Y5359896D01*
X4493900Y5386321D01*
Y5387300D01*
D02*
G37*
G36*
X4377300D02*
X4286100D01*
Y5386321D01*
X4293181Y5359896D01*
X4306859Y5336204D01*
X4326204Y5316859D01*
X4349896Y5303181D01*
X4376321Y5296100D01*
X4377300D01*
Y5387300D01*
D02*
G37*
G36*
X3223900D02*
X3132700D01*
Y5296100D01*
X3133679D01*
X3160104Y5303181D01*
X3183796Y5316859D01*
X3203141Y5336204D01*
X3216820Y5359896D01*
X3223900Y5386321D01*
Y5387300D01*
D02*
G37*
G36*
X5647300Y5249900D02*
X5646321D01*
X5619896Y5242820D01*
X5596204Y5229141D01*
X5576859Y5209796D01*
X5563181Y5186104D01*
X5556100Y5159679D01*
Y5158700D01*
X5647300D01*
Y5249900D01*
D02*
G37*
G36*
X3895679D02*
X3894700D01*
Y5158700D01*
X3985900D01*
Y5159679D01*
X3978820Y5186104D01*
X3965141Y5209796D01*
X3945796Y5229141D01*
X3922104Y5242820D01*
X3895679Y5249900D01*
D02*
G37*
G36*
X3869300D02*
X3868321D01*
X3841896Y5242820D01*
X3818204Y5229141D01*
X3798859Y5209796D01*
X3785181Y5186104D01*
X3778100Y5159679D01*
Y5158700D01*
X3869300D01*
Y5249900D01*
D02*
G37*
G36*
Y5133300D02*
X3778100D01*
Y5132321D01*
X3783668Y5111540D01*
X3770220Y5103775D01*
X3769710Y5104286D01*
X3753860Y5110851D01*
Y5074259D01*
X3800889D01*
X3801057Y5074367D01*
X3805418Y5075645D01*
X3818204Y5062859D01*
X3841896Y5049181D01*
X3868321Y5042100D01*
X3869300D01*
Y5133300D01*
D02*
G37*
G36*
X5418968Y5244500D02*
X5393032D01*
X5367981Y5237787D01*
X5345520Y5224820D01*
X5327181Y5206481D01*
X5314213Y5184020D01*
X5307500Y5158968D01*
Y5133032D01*
X5314213Y5107981D01*
X5327181Y5085520D01*
X5345520Y5067181D01*
X5367981Y5054213D01*
X5393032Y5047500D01*
X5418968D01*
X5444020Y5054213D01*
X5466481Y5067181D01*
X5484820Y5085520D01*
X5497787Y5107981D01*
X5504500Y5133032D01*
Y5158968D01*
X5497787Y5184020D01*
X5484820Y5206481D01*
X5466481Y5224820D01*
X5444020Y5237787D01*
X5418968Y5244500D01*
D02*
G37*
G36*
X5164968D02*
X5139032D01*
X5113981Y5237787D01*
X5091520Y5224820D01*
X5073181Y5206481D01*
X5060213Y5184020D01*
X5053500Y5158968D01*
Y5133032D01*
X5060213Y5107981D01*
X5073181Y5085520D01*
X5091520Y5067181D01*
X5113981Y5054213D01*
X5139032Y5047500D01*
X5164968D01*
X5190020Y5054213D01*
X5212481Y5067181D01*
X5230820Y5085520D01*
X5243787Y5107981D01*
X5250500Y5133032D01*
Y5158968D01*
X5243787Y5184020D01*
X5230820Y5206481D01*
X5212481Y5224820D01*
X5190020Y5237787D01*
X5164968Y5244500D01*
D02*
G37*
G36*
X4910968D02*
X4885032D01*
X4859981Y5237787D01*
X4837520Y5224820D01*
X4819181Y5206481D01*
X4806213Y5184020D01*
X4799500Y5158968D01*
Y5133032D01*
X4806213Y5107981D01*
X4819181Y5085520D01*
X4837520Y5067181D01*
X4859981Y5054213D01*
X4885032Y5047500D01*
X4910968D01*
X4936020Y5054213D01*
X4958481Y5067181D01*
X4976820Y5085520D01*
X4989787Y5107981D01*
X4996500Y5133032D01*
Y5158968D01*
X4989787Y5184020D01*
X4976820Y5206481D01*
X4958481Y5224820D01*
X4936020Y5237787D01*
X4910968Y5244500D01*
D02*
G37*
G36*
X4656968D02*
X4631032D01*
X4605981Y5237787D01*
X4583520Y5224820D01*
X4565181Y5206481D01*
X4552213Y5184020D01*
X4545500Y5158968D01*
Y5133032D01*
X4552213Y5107981D01*
X4565181Y5085520D01*
X4583520Y5067181D01*
X4605981Y5054213D01*
X4631032Y5047500D01*
X4656968D01*
X4682020Y5054213D01*
X4704481Y5067181D01*
X4722820Y5085520D01*
X4735787Y5107981D01*
X4742500Y5133032D01*
Y5158968D01*
X4735787Y5184020D01*
X4722820Y5206481D01*
X4704481Y5224820D01*
X4682020Y5237787D01*
X4656968Y5244500D01*
D02*
G37*
G36*
X4402968D02*
X4377032D01*
X4351981Y5237787D01*
X4329520Y5224820D01*
X4311181Y5206481D01*
X4298213Y5184020D01*
X4291500Y5158968D01*
Y5133032D01*
X4298213Y5107981D01*
X4311181Y5085520D01*
X4329520Y5067181D01*
X4351981Y5054213D01*
X4377032Y5047500D01*
X4402968D01*
X4428020Y5054213D01*
X4450481Y5067181D01*
X4468820Y5085520D01*
X4481787Y5107981D01*
X4488500Y5133032D01*
Y5158968D01*
X4481787Y5184020D01*
X4468820Y5206481D01*
X4450481Y5224820D01*
X4428020Y5237787D01*
X4402968Y5244500D01*
D02*
G37*
G36*
X4148968D02*
X4123032D01*
X4097981Y5237787D01*
X4075520Y5224820D01*
X4057181Y5206481D01*
X4044213Y5184020D01*
X4037500Y5158968D01*
Y5133032D01*
X4044213Y5107981D01*
X4057181Y5085520D01*
X4075520Y5067181D01*
X4097981Y5054213D01*
X4123032Y5047500D01*
X4148968D01*
X4174020Y5054213D01*
X4196481Y5067181D01*
X4214820Y5085520D01*
X4227787Y5107981D01*
X4234500Y5133032D01*
Y5158968D01*
X4227787Y5184020D01*
X4214820Y5206481D01*
X4196481Y5224820D01*
X4174020Y5237787D01*
X4148968Y5244500D01*
D02*
G37*
G36*
X5647300Y5133300D02*
X5556100D01*
Y5132321D01*
X5563181Y5105896D01*
X5576859Y5082204D01*
X5596204Y5062859D01*
X5619896Y5049181D01*
X5646321Y5042100D01*
X5647300D01*
Y5133300D01*
D02*
G37*
G36*
X3985900D02*
X3894700D01*
Y5042100D01*
X3895679D01*
X3922104Y5049181D01*
X3945796Y5062859D01*
X3965141Y5082204D01*
X3978820Y5105896D01*
X3985900Y5132321D01*
Y5133300D01*
D02*
G37*
G36*
X6436792Y4952300D02*
X6400200D01*
Y4915708D01*
X6416049Y4922273D01*
X6430227Y4936450D01*
X6436792Y4952300D01*
D02*
G37*
G36*
X6485400Y5237300D02*
X6162700D01*
Y4914600D01*
X6176396D01*
X6228539Y4922859D01*
X6278749Y4939173D01*
X6322100Y4961261D01*
X6334212Y4956243D01*
X6337787Y4953317D01*
X6344773Y4936450D01*
X6358951Y4922273D01*
X6374800Y4915708D01*
Y4965000D01*
X6387500D01*
Y4977700D01*
X6436792D01*
X6430227Y4993549D01*
X6416049Y5007727D01*
X6407011Y5011471D01*
X6403492Y5029164D01*
X6405829Y5031501D01*
X6436860Y5074212D01*
X6460827Y5121251D01*
X6477141Y5171460D01*
X6485400Y5223603D01*
Y5237300D01*
D02*
G37*
G36*
X5738951Y4880000D02*
X5721049D01*
X5704510Y4873149D01*
X5691851Y4860490D01*
X5685000Y4843951D01*
Y4826049D01*
X5691851Y4809510D01*
X5704510Y4796851D01*
X5721049Y4790000D01*
X5738951D01*
X5755490Y4796851D01*
X5763052Y4804412D01*
X6452335D01*
X6460973Y4795775D01*
X6477512Y4788924D01*
X6495414D01*
X6511953Y4795775D01*
X6524612Y4808434D01*
X6531463Y4824973D01*
Y4842875D01*
X6524612Y4859414D01*
X6511953Y4872073D01*
X6495414Y4878924D01*
X6477512D01*
X6460973Y4872073D01*
X6454487Y4865588D01*
X5763052D01*
X5755490Y4873149D01*
X5738951Y4880000D01*
D02*
G37*
G36*
X6161451Y4779322D02*
X6143549D01*
X6127010Y4772471D01*
X6114351Y4759812D01*
X6107500Y4743273D01*
Y4725371D01*
X6114351Y4708831D01*
X6127010Y4696173D01*
X6143549Y4689322D01*
X6161451D01*
X6177990Y4696173D01*
X6184980Y4703162D01*
X7508198D01*
X7517010Y4694351D01*
X7533549Y4687500D01*
X7551451D01*
X7567990Y4694351D01*
X7580649Y4707010D01*
X7587500Y4723549D01*
Y4741451D01*
X7580649Y4757990D01*
X7567990Y4770649D01*
X7551451Y4777500D01*
X7533549D01*
X7517010Y4770649D01*
X7510698Y4764338D01*
X6186124D01*
X6177990Y4772471D01*
X6161451Y4779322D01*
D02*
G37*
G36*
X8422436Y4382152D02*
X8162436D01*
Y4162152D01*
X8422436D01*
Y4382152D01*
D02*
G37*
G36*
X7198951Y3827500D02*
X7181049D01*
X7164510Y3820649D01*
X7151851Y3807990D01*
X7145000Y3791451D01*
Y3773549D01*
X7151851Y3757010D01*
X7159412Y3749448D01*
Y3232220D01*
X7159412Y3232219D01*
X7161741Y3220513D01*
X7168371Y3210590D01*
X7348090Y3030871D01*
X7358013Y3024241D01*
X7369719Y3021912D01*
X7554448D01*
X7562010Y3014351D01*
X7578549Y3007500D01*
X7596451D01*
X7612990Y3014351D01*
X7622036Y3023397D01*
X7637036Y3022206D01*
Y3019852D01*
X7727436D01*
X7817836D01*
Y3047552D01*
X7812435D01*
Y3066752D01*
X7817836D01*
Y3094452D01*
X7727436D01*
Y3119852D01*
X7817836D01*
Y3147552D01*
X7812435D01*
Y3166752D01*
X7817836D01*
Y3194452D01*
X7727436D01*
X7637036D01*
Y3187740D01*
X7374289D01*
X7373149Y3190490D01*
X7360490Y3203149D01*
X7343951Y3210000D01*
X7326049D01*
X7309510Y3203149D01*
X7296851Y3190490D01*
X7295613Y3187501D01*
X7280901Y3184575D01*
X7220588Y3244889D01*
Y3593111D01*
X7235588Y3596095D01*
X7239351Y3587010D01*
X7246912Y3579448D01*
Y3537501D01*
X7246912Y3537500D01*
X7249241Y3525795D01*
X7255871Y3515871D01*
X7510000Y3261743D01*
Y3251049D01*
X7516851Y3234510D01*
X7529509Y3221851D01*
X7546049Y3215000D01*
X7563951D01*
X7580490Y3221851D01*
X7586627Y3227988D01*
X7637036D01*
Y3219852D01*
X7727436D01*
X7817836D01*
Y3247552D01*
X7812435D01*
Y3266752D01*
X7817836D01*
Y3294452D01*
X7727436D01*
Y3319852D01*
X7817836D01*
Y3347552D01*
X7812435D01*
Y3366752D01*
X7817836D01*
Y3394452D01*
X7727436D01*
Y3419852D01*
X7817836D01*
Y3447552D01*
X7812435D01*
Y3466752D01*
X7817836D01*
Y3494452D01*
X7727436D01*
X7637036D01*
Y3484163D01*
X7574476D01*
X7570490Y3488149D01*
X7553951Y3495000D01*
X7536049D01*
X7519509Y3488149D01*
X7506851Y3475490D01*
X7500000Y3458951D01*
Y3457252D01*
X7485000Y3451039D01*
X7392641Y3543399D01*
Y3554092D01*
X7385790Y3570631D01*
X7373131Y3583290D01*
X7356592Y3590141D01*
X7338690D01*
X7332041Y3587387D01*
X7320561Y3598867D01*
X7322500Y3603549D01*
Y3621451D01*
X7315649Y3637990D01*
X7302990Y3650649D01*
X7286451Y3657500D01*
X7268549D01*
X7252010Y3650649D01*
X7239351Y3637990D01*
X7235588Y3628905D01*
X7220588Y3631889D01*
Y3749448D01*
X7228149Y3757010D01*
X7235000Y3773549D01*
Y3791451D01*
X7228149Y3807990D01*
X7215491Y3820649D01*
X7198951Y3827500D01*
D02*
G37*
G36*
X6362185Y3145000D02*
X6344283D01*
X6327744Y3138149D01*
X6315085Y3125490D01*
X6308234Y3108951D01*
Y3091049D01*
X6315085Y3074509D01*
X6327744Y3061851D01*
X6344283Y3055000D01*
X6362185D01*
X6378724Y3061851D01*
X6386286Y3069412D01*
X6496204D01*
X6506227Y3054412D01*
X6505000Y3051451D01*
Y3033549D01*
X6511851Y3017009D01*
X6524510Y3004351D01*
X6541049Y2997500D01*
X6551742D01*
X6613719Y2935524D01*
X6613719Y2935523D01*
X6623643Y2928893D01*
X6635348Y2926564D01*
X7637036D01*
Y2919852D01*
X7727436D01*
X7817836D01*
Y2947552D01*
X7812435D01*
Y2966752D01*
X7817836D01*
Y2994452D01*
X7727436D01*
X7637036D01*
Y2987740D01*
X6648018D01*
X6595000Y3040758D01*
Y3051451D01*
X6593773Y3054412D01*
X6603796Y3069412D01*
X7163865D01*
X7168756Y3057605D01*
X7181414Y3044947D01*
X7197954Y3038096D01*
X7215856D01*
X7232395Y3044947D01*
X7245054Y3057605D01*
X7251904Y3074145D01*
Y3092047D01*
X7245054Y3108586D01*
X7232395Y3121245D01*
X7215856Y3128096D01*
X7197954D01*
X7195410Y3127042D01*
X7193588Y3128259D01*
X7181883Y3130588D01*
X7181881Y3130587D01*
X6386286D01*
X6378724Y3138149D01*
X6362185Y3145000D01*
D02*
G37*
G36*
X8192636Y2866444D02*
Y2829852D01*
X8229228D01*
X8222662Y2845701D01*
X8208485Y2859878D01*
X8192636Y2866444D01*
D02*
G37*
G36*
X8229228Y2804452D02*
X8192636D01*
Y2767860D01*
X8208485Y2774425D01*
X8222662Y2788602D01*
X8229228Y2804452D01*
D02*
G37*
G36*
X7918951Y4775000D02*
X7901049D01*
X7884510Y4768149D01*
X7871851Y4755490D01*
X7865000Y4738951D01*
Y4721049D01*
X7871851Y4704510D01*
X7884510Y4691851D01*
X7901049Y4685000D01*
X7911742D01*
X8044412Y4552330D01*
Y1107670D01*
X7954830Y1018088D01*
X7807670D01*
X7220958Y1604800D01*
Y1619630D01*
X7218629Y1631336D01*
X7211999Y1641259D01*
X7211998Y1641259D01*
X6983452Y1869806D01*
X6986378Y1884517D01*
X6989415Y1885775D01*
X7002073Y1898434D01*
X7008924Y1914973D01*
Y1925666D01*
X7609822Y2526564D01*
X7637036D01*
Y2519852D01*
X7727436D01*
X7817836D01*
Y2547552D01*
X7812435D01*
Y2566752D01*
X7817836D01*
Y2594452D01*
X7727436D01*
X7637036D01*
Y2587740D01*
X7597153D01*
X7597152Y2587740D01*
X7585447Y2585411D01*
X7575523Y2578781D01*
X6965666Y1968924D01*
X6954973D01*
X6938434Y1962073D01*
X6925775Y1949414D01*
X6924518Y1946378D01*
X6909806Y1943452D01*
X6625000Y2228258D01*
Y2238951D01*
X6618149Y2255491D01*
X6605490Y2268149D01*
X6588951Y2275000D01*
X6571049D01*
X6554510Y2268149D01*
X6541851Y2255491D01*
X6535000Y2238951D01*
Y2221049D01*
X6541851Y2204510D01*
X6554510Y2191851D01*
X6571049Y2185000D01*
X6581742D01*
X7159782Y1606960D01*
Y1592131D01*
X7159782Y1592130D01*
X7162111Y1580424D01*
X7168741Y1570501D01*
X7773371Y965872D01*
X7773371Y965871D01*
X7783295Y959241D01*
X7789090Y958088D01*
X7787613Y943088D01*
X7745170D01*
X7441629Y1246629D01*
X7431705Y1253259D01*
X7420000Y1255588D01*
X7419999Y1255588D01*
X6222886D01*
X6215372Y1263102D01*
X6198832Y1269953D01*
X6180930D01*
X6164391Y1263102D01*
X6151732Y1250443D01*
X6144882Y1233904D01*
Y1216002D01*
X6151732Y1199462D01*
X6164391Y1186804D01*
X6180930Y1179953D01*
X6198832D01*
X6215372Y1186804D01*
X6222981Y1194412D01*
X7407330D01*
X7710871Y890871D01*
X7720795Y884241D01*
X7732500Y881912D01*
X7952499D01*
X7952500Y881912D01*
X7964205Y884241D01*
X7974129Y890871D01*
X8136629Y1053371D01*
X8143259Y1063295D01*
X8145588Y1075000D01*
X8145588Y1075001D01*
Y2760625D01*
X8160588Y2770613D01*
X8167236Y2767860D01*
Y2817152D01*
Y2866444D01*
X8160588Y2863690D01*
X8145588Y2873679D01*
Y4470000D01*
X8151451D01*
X8167991Y4476851D01*
X8180649Y4489510D01*
X8187500Y4506049D01*
Y4523951D01*
X8180649Y4540491D01*
X8167991Y4553149D01*
X8151451Y4560000D01*
X8133549D01*
X8120588Y4554631D01*
X8105588Y4561326D01*
Y4564998D01*
X8105588Y4565000D01*
X8103259Y4576705D01*
X8096629Y4586629D01*
X7955000Y4728258D01*
Y4738951D01*
X7948149Y4755490D01*
X7935490Y4768149D01*
X7918951Y4775000D01*
D02*
G37*
G36*
X6745950Y1965117D02*
X6728049D01*
X6711509Y1958266D01*
X6703831Y1950588D01*
X5868400D01*
X5861914Y1957073D01*
X5845375Y1963924D01*
X5827473D01*
X5810934Y1957073D01*
X5798275Y1944414D01*
X5791424Y1927875D01*
Y1909973D01*
X5798275Y1893434D01*
X5810934Y1880775D01*
X5827473Y1873924D01*
X5845375D01*
X5861914Y1880775D01*
X5870552Y1889412D01*
X6704065D01*
X6711509Y1881968D01*
X6728049Y1875117D01*
X6745950D01*
X6762490Y1881968D01*
X6775149Y1894627D01*
X6781999Y1911166D01*
Y1929068D01*
X6775149Y1945607D01*
X6762490Y1958266D01*
X6745950Y1965117D01*
D02*
G37*
G36*
X7817836Y2494452D02*
X7727436D01*
X7637036D01*
Y2466752D01*
X7642436D01*
Y2372152D01*
Y2272152D01*
Y2172152D01*
Y2072152D01*
Y1972152D01*
Y1872152D01*
Y1772152D01*
Y1672152D01*
Y1572152D01*
X7812435D01*
Y1672152D01*
Y1772152D01*
Y1872152D01*
Y1972152D01*
Y2072152D01*
Y2172152D01*
Y2272152D01*
Y2372152D01*
Y2466752D01*
X7817836D01*
Y2494452D01*
D02*
G37*
G36*
X8422436Y1502152D02*
X8162436D01*
Y1282152D01*
X8422436D01*
Y1502152D01*
D02*
G37*
G36*
X6262700Y997377D02*
Y960785D01*
X6299292D01*
X6292727Y976635D01*
X6278549Y990812D01*
X6262700Y997377D01*
D02*
G37*
G36*
X6237300D02*
X6221451Y990812D01*
X6207273Y976635D01*
X6200708Y960785D01*
X6237300D01*
Y997377D01*
D02*
G37*
G36*
X6299292Y935385D02*
X6262700D01*
Y898793D01*
X6278549Y905358D01*
X6292727Y919536D01*
X6299292Y935385D01*
D02*
G37*
G36*
X6237300D02*
X6200708D01*
X6207273Y919536D01*
X6221451Y905358D01*
X6237300Y898793D01*
Y935385D01*
D02*
G37*
G36*
X6176396Y685400D02*
X6162700D01*
Y362700D01*
X6485400D01*
Y376397D01*
X6477141Y428540D01*
X6460827Y478749D01*
X6436860Y525788D01*
X6405829Y568498D01*
X6368498Y605829D01*
X6325788Y636860D01*
X6278749Y660827D01*
X6228539Y677141D01*
X6176396Y685400D01*
D02*
G37*
G36*
X6485400Y337300D02*
X6162700D01*
Y14600D01*
X6176396D01*
X6228539Y22859D01*
X6278749Y39173D01*
X6325788Y63140D01*
X6368498Y94171D01*
X6405829Y131502D01*
X6436860Y174212D01*
X6460827Y221251D01*
X6477141Y271460D01*
X6485400Y323604D01*
Y337300D01*
D02*
G37*
G36*
X6137300D02*
X5814600D01*
Y323604D01*
X5822859Y271460D01*
X5839173Y221251D01*
X5863140Y174212D01*
X5894171Y131502D01*
X5931501Y94171D01*
X5974212Y63140D01*
X6021251Y39173D01*
X6071460Y22859D01*
X6123603Y14600D01*
X6137300D01*
Y337300D01*
D02*
G37*
G36*
X214800Y4536792D02*
X198951Y4530227D01*
X184773Y4516049D01*
X178208Y4500200D01*
X214800D01*
Y4536792D01*
D02*
G37*
G36*
Y4474800D02*
X178208D01*
X184773Y4458951D01*
X198951Y4444773D01*
X214800Y4438208D01*
Y4474800D01*
D02*
G37*
G36*
X744800Y4847392D02*
X728951Y4840827D01*
X714773Y4826649D01*
X708208Y4810800D01*
X744800D01*
Y4847392D01*
D02*
G37*
G36*
X2385837Y4754531D02*
X2349245D01*
Y4717939D01*
X2365095Y4724504D01*
X2379272Y4738682D01*
X2385837Y4754531D01*
D02*
G37*
G36*
X2635000Y4695000D02*
X2617098D01*
X2600559Y4688149D01*
X2589572Y4677162D01*
X2539917D01*
X2535781Y4681298D01*
X2519242Y4688149D01*
X2501340D01*
X2484800Y4681298D01*
X2472142Y4668639D01*
X2465291Y4652100D01*
Y4634198D01*
X2472142Y4617659D01*
X2484800Y4605000D01*
X2501340Y4598149D01*
X2519242D01*
X2535781Y4605000D01*
X2546768Y4615987D01*
X2596423D01*
X2600559Y4611851D01*
X2617098Y4605000D01*
X2635000D01*
X2651540Y4611851D01*
X2664198Y4624509D01*
X2671049Y4641049D01*
Y4658951D01*
X2664198Y4675490D01*
X2651540Y4688149D01*
X2635000Y4695000D01*
D02*
G37*
G36*
X3392700Y4529292D02*
Y4492700D01*
X3429292D01*
X3422727Y4508549D01*
X3408549Y4522727D01*
X3392700Y4529292D01*
D02*
G37*
G36*
X3367300D02*
X3351451Y4522727D01*
X3337273Y4508549D01*
X3330708Y4492700D01*
X3367300D01*
Y4529292D01*
D02*
G37*
G36*
X5115340Y4648394D02*
Y4611802D01*
X5151932D01*
X5145366Y4627651D01*
X5131189Y4641829D01*
X5115340Y4648394D01*
D02*
G37*
G36*
X5089940D02*
X5074090Y4641829D01*
X5059913Y4627651D01*
X5053348Y4611802D01*
X5089940D01*
Y4648394D01*
D02*
G37*
G36*
X5151932Y4586402D02*
X5053348D01*
X5059913Y4570552D01*
X5071982Y4558483D01*
Y4518258D01*
X5059773Y4506049D01*
X5053208Y4490200D01*
X5151792D01*
X5145227Y4506049D01*
X5133157Y4518119D01*
Y4558343D01*
X5145366Y4570552D01*
X5151932Y4586402D01*
D02*
G37*
G36*
X5151792Y4464800D02*
X5115200D01*
Y4428208D01*
X5131049Y4434773D01*
X5145227Y4448951D01*
X5151792Y4464800D01*
D02*
G37*
G36*
X5089800D02*
X5053208D01*
X5059773Y4448951D01*
X5073951Y4434773D01*
X5089800Y4428208D01*
Y4464800D01*
D02*
G37*
G36*
X787300Y4287300D02*
X727100D01*
Y4207100D01*
X787300D01*
Y4287300D01*
D02*
G37*
G36*
X4289292Y3642300D02*
X4252700D01*
Y3605708D01*
X4268549Y3612273D01*
X4282727Y3626451D01*
X4289292Y3642300D01*
D02*
G37*
G36*
X5165553Y3499292D02*
X5149703Y3492727D01*
X5135526Y3478550D01*
X5128961Y3462700D01*
X5165553D01*
Y3499292D01*
D02*
G37*
G36*
X1282700Y3909292D02*
Y3872700D01*
X1319292D01*
X1312727Y3888549D01*
X1298549Y3902727D01*
X1282700Y3909292D01*
D02*
G37*
G36*
X1257300D02*
X1241451Y3902727D01*
X1227273Y3888549D01*
X1220708Y3872700D01*
X1257300D01*
Y3909292D01*
D02*
G37*
G36*
X1394554Y3536670D02*
X1357962D01*
Y3500078D01*
X1373812Y3506643D01*
X1387989Y3520821D01*
X1394554Y3536670D01*
D02*
G37*
G36*
X5404900Y3049997D02*
X5350200D01*
Y3006700D01*
X5435998D01*
Y3018900D01*
X5433630Y3030800D01*
X5426889Y3040889D01*
X5416800Y3047630D01*
X5404900Y3049997D01*
D02*
G37*
G36*
X5435998Y2981300D02*
X5350200D01*
Y2938003D01*
X5404900D01*
X5416800Y2940370D01*
X5426889Y2947111D01*
X5433630Y2957200D01*
X5435998Y2969100D01*
Y2981300D01*
D02*
G37*
G36*
X3789800Y2985997D02*
X3735100D01*
X3723200Y2983630D01*
X3713111Y2976889D01*
X3706370Y2966800D01*
X3704002Y2954900D01*
Y2942700D01*
X3789800D01*
Y2985997D01*
D02*
G37*
G36*
X5039475Y2999092D02*
X5023626Y2992527D01*
X5009448Y2978349D01*
X5002883Y2962500D01*
X5039475D01*
Y2999092D01*
D02*
G37*
G36*
X1857300Y3305549D02*
Y3268957D01*
X1893892D01*
X1887327Y3284806D01*
X1873149Y3298983D01*
X1857300Y3305549D01*
D02*
G37*
G36*
X2017301Y3207301D02*
X1933688D01*
X1934879Y3201311D01*
X1945466Y3185466D01*
X1961310Y3174879D01*
X1980000Y3171162D01*
X2017301D01*
Y3207301D01*
D02*
G37*
G36*
X3075400Y2677900D02*
X3012700D01*
Y2617699D01*
X3075400D01*
Y2677900D01*
D02*
G37*
G36*
X737300Y2827300D02*
X700708D01*
X707273Y2811451D01*
X721451Y2797273D01*
X737300Y2790708D01*
Y2827300D01*
D02*
G37*
G36*
X2505092Y2139801D02*
X2468500D01*
Y2103209D01*
X2484349Y2109774D01*
X2498527Y2123951D01*
X2505092Y2139801D01*
D02*
G37*
G36*
X2287300Y1937300D02*
X2250708D01*
X2257273Y1921451D01*
X2271451Y1907273D01*
X2287300Y1900708D01*
Y1937300D01*
D02*
G37*
G36*
X2340400Y1855400D02*
X2267700D01*
Y1782700D01*
X2340400D01*
Y1855400D01*
D02*
G37*
G36*
X2242300D02*
X2169600D01*
Y1782700D01*
X2242300D01*
Y1855400D01*
D02*
G37*
G36*
X4894800Y1626792D02*
X4878951Y1620227D01*
X4864773Y1606049D01*
X4858208Y1590200D01*
X4894800D01*
Y1626792D01*
D02*
G37*
G36*
Y1564800D02*
X4858208D01*
X4864773Y1548951D01*
X4878951Y1534773D01*
X4894800Y1528208D01*
Y1564800D01*
D02*
G37*
G36*
X5070613Y1158043D02*
Y1121451D01*
X5107205D01*
X5100640Y1137300D01*
X5086463Y1151478D01*
X5070613Y1158043D01*
D02*
G37*
G36*
X5045213D02*
X5029364Y1151478D01*
X5015186Y1137300D01*
X5008621Y1121451D01*
X5045213D01*
Y1158043D01*
D02*
G37*
G36*
X5107205Y1096051D02*
X5008621D01*
X5015186Y1080201D01*
X5029364Y1066024D01*
X5042962Y1060391D01*
Y888415D01*
X5030823Y876276D01*
X5024257Y860427D01*
X5122841D01*
X5116276Y876276D01*
X5104137Y888415D01*
Y1084995D01*
X5104137Y1084997D01*
X5103647Y1087461D01*
X5107205Y1096051D01*
D02*
G37*
G36*
X5122841Y835027D02*
X5086249D01*
Y798435D01*
X5102099Y805000D01*
X5116276Y819177D01*
X5122841Y835027D01*
D02*
G37*
G36*
X5060849D02*
X5024257D01*
X5030823Y819177D01*
X5045000Y805000D01*
X5060849Y798435D01*
Y835027D01*
D02*
G37*
G36*
X3807300Y1129800D02*
X3770708D01*
X3777273Y1113951D01*
X3791451Y1099773D01*
X3807300Y1093208D01*
Y1129800D01*
D02*
G37*
G36*
X1397300Y1607300D02*
X1344600D01*
Y1549600D01*
X1397300D01*
Y1607300D01*
D02*
G37*
G36*
X1035400Y1635400D02*
X912700D01*
Y1512700D01*
X1035400D01*
Y1635400D01*
D02*
G37*
G36*
Y1487300D02*
X912700D01*
Y1364600D01*
X1035400D01*
Y1487300D01*
D02*
G37*
G36*
X1387300Y1440400D02*
X1199600D01*
Y1312701D01*
X1387300D01*
Y1440400D01*
D02*
G37*
G36*
X1600400Y940400D02*
X1412701D01*
Y812700D01*
X1600400D01*
Y940400D01*
D02*
G37*
G36*
Y787300D02*
X1412701D01*
Y659600D01*
X1600400D01*
Y787300D01*
D02*
G37*
G36*
X1339433Y612440D02*
X1302841D01*
Y575848D01*
X1318690Y582414D01*
X1332868Y596591D01*
X1339433Y612440D01*
D02*
G37*
G36*
X1277441D02*
X1240849D01*
X1247414Y596591D01*
X1261591Y582414D01*
X1277441Y575848D01*
Y612440D01*
D02*
G37*
G36*
X1595400Y595400D02*
X1522700D01*
Y512701D01*
X1595400D01*
Y595400D01*
D02*
G37*
G36*
X1497300D02*
X1424600D01*
Y512701D01*
X1497300D01*
Y595400D01*
D02*
G37*
G36*
X1595400Y487301D02*
X1522700D01*
Y404600D01*
X1595400D01*
Y487301D01*
D02*
G37*
G36*
X1497300D02*
X1424600D01*
Y404600D01*
X1497300D01*
Y487301D01*
D02*
G37*
G36*
X1615400Y375400D02*
X1522700D01*
Y262700D01*
X1615400D01*
Y375400D01*
D02*
G37*
G36*
X1497300D02*
X1404600D01*
Y262700D01*
X1497300D01*
Y375400D01*
D02*
G37*
G36*
X1615400Y237300D02*
X1522700D01*
Y124600D01*
X1615400D01*
Y237300D01*
D02*
G37*
G36*
X427700Y1161792D02*
Y1125200D01*
X464292D01*
X457727Y1141049D01*
X443549Y1155227D01*
X427700Y1161792D01*
D02*
G37*
G36*
X402300D02*
X386451Y1155227D01*
X372273Y1141049D01*
X365708Y1125200D01*
X402300D01*
Y1161792D01*
D02*
G37*
G36*
X464292Y1099800D02*
X427700D01*
Y1063208D01*
X443549Y1069773D01*
X457727Y1083951D01*
X464292Y1099800D01*
D02*
G37*
G36*
X3722461Y542300D02*
X3634250D01*
Y500257D01*
X3670244D01*
X3691194Y504424D01*
X3708953Y516291D01*
X3720820Y534050D01*
X3722461Y542300D01*
D02*
G37*
G36*
X3737300Y399292D02*
X3721451Y392727D01*
X3707273Y378549D01*
X3700708Y362700D01*
X3737300D01*
Y399292D01*
D02*
G37*
G36*
Y337300D02*
X3700708D01*
X3707273Y321451D01*
X3721451Y307273D01*
X3737300Y300708D01*
Y337300D01*
D02*
G37*
G36*
X897080Y124733D02*
Y88141D01*
X933672D01*
X927107Y103990D01*
X912930Y118168D01*
X897080Y124733D01*
D02*
G37*
G36*
X871680D02*
X855831Y118168D01*
X841653Y103990D01*
X835088Y88141D01*
X871680D01*
Y124733D01*
D02*
G37*
G36*
X933672Y62741D02*
X897080D01*
Y26149D01*
X912930Y32714D01*
X927107Y46891D01*
X933672Y62741D01*
D02*
G37*
G36*
X871680D02*
X835088D01*
X841653Y46891D01*
X855831Y32714D01*
X871680Y26149D01*
Y62741D01*
D02*
G37*
%LPD*%
D10*
X7727436Y3857152D02*
D03*
Y3557152D02*
D03*
Y1607152D02*
D03*
Y1657152D02*
D03*
Y1707152D02*
D03*
Y1757152D02*
D03*
Y1807152D02*
D03*
Y1857152D02*
D03*
Y1907152D02*
D03*
Y1957152D02*
D03*
Y2007152D02*
D03*
Y2057152D02*
D03*
Y2107152D02*
D03*
Y2157152D02*
D03*
Y2207152D02*
D03*
Y2257152D02*
D03*
Y2307152D02*
D03*
Y2357152D02*
D03*
Y2407152D02*
D03*
Y2457152D02*
D03*
Y2557152D02*
D03*
Y2657152D02*
D03*
Y2757152D02*
D03*
Y2857152D02*
D03*
Y2957152D02*
D03*
Y3657152D02*
D03*
Y3757152D02*
D03*
Y3957152D02*
D03*
Y3157152D02*
D03*
Y4057152D02*
D03*
Y3357152D02*
D03*
Y3457152D02*
D03*
Y3257152D02*
D03*
Y3057152D02*
D03*
Y2507152D02*
D03*
Y2707152D02*
D03*
Y2607152D02*
D03*
Y3007152D02*
D03*
Y3107152D02*
D03*
Y2807152D02*
D03*
Y2907152D02*
D03*
Y3507152D02*
D03*
Y3407152D02*
D03*
Y3207152D02*
D03*
Y3307152D02*
D03*
Y3707152D02*
D03*
Y3607152D02*
D03*
Y3807152D02*
D03*
Y3907152D02*
D03*
Y4007152D02*
D03*
D11*
X8292436Y1392152D02*
D03*
Y4272152D02*
D03*
D12*
X3378450Y555000D02*
D03*
Y650000D02*
D03*
X3621550D02*
D03*
Y745000D02*
D03*
Y555000D02*
D03*
D13*
X3378450Y745000D02*
D03*
D14*
X2030000Y3675000D02*
D03*
Y3545000D02*
D03*
Y3480000D02*
D03*
Y3350000D02*
D03*
Y3285000D02*
D03*
X910000D02*
D03*
Y3350000D02*
D03*
Y3415000D02*
D03*
Y3480000D02*
D03*
Y3545000D02*
D03*
Y3610000D02*
D03*
Y3805000D02*
D03*
Y3870000D02*
D03*
Y3935000D02*
D03*
X2030000Y3805000D02*
D03*
Y3935000D02*
D03*
Y3870000D02*
D03*
X910000Y3220000D02*
D03*
X2030000D02*
D03*
X910000Y3740000D02*
D03*
Y3675000D02*
D03*
Y4000000D02*
D03*
X2030000Y3415000D02*
D03*
Y3610000D02*
D03*
Y4000000D02*
D03*
Y3740000D02*
D03*
D15*
X1665000Y3050000D02*
D03*
X1600000D02*
D03*
X1535000D02*
D03*
X1470000D02*
D03*
X1405000D02*
D03*
X1275000D02*
D03*
X1210000D02*
D03*
X1145000D02*
D03*
X1080000Y4170000D02*
D03*
X1145000D02*
D03*
X1210000D02*
D03*
X1275000D02*
D03*
X1340000D02*
D03*
X1405000D02*
D03*
X1600000D02*
D03*
X1730000D02*
D03*
X1795000D02*
D03*
X1860000D02*
D03*
X1795000Y3050000D02*
D03*
X1730000D02*
D03*
X1860000D02*
D03*
X1080000D02*
D03*
X1340000D02*
D03*
X1470000Y4170000D02*
D03*
X1535000D02*
D03*
X1665000D02*
D03*
D16*
X1750000Y1290500D02*
D03*
Y909500D02*
D03*
D17*
Y1700000D02*
D03*
Y1500000D02*
D03*
D18*
X4160000Y4340000D02*
D03*
Y4200000D02*
D03*
X2749745Y4616426D02*
D03*
Y4756427D02*
D03*
X2730000Y4000000D02*
D03*
Y3860000D02*
D03*
X4160000Y4580000D02*
D03*
Y4720000D02*
D03*
X4160000Y3820000D02*
D03*
Y3960000D02*
D03*
X2730000Y3240000D02*
D03*
Y3380000D02*
D03*
Y2990000D02*
D03*
Y2850000D02*
D03*
X2730000Y2610000D02*
D03*
Y2470000D02*
D03*
X4240000Y3150000D02*
D03*
Y3290000D02*
D03*
X4250000Y2780000D02*
D03*
Y2920000D02*
D03*
X4260000Y2370000D02*
D03*
Y2510000D02*
D03*
X2710000Y4385000D02*
D03*
Y4245000D02*
D03*
D19*
X1710000Y500000D02*
D03*
X1510000D02*
D03*
D20*
X3520055Y1605000D02*
D03*
Y1795000D02*
D03*
X3279945Y1605000D02*
D03*
Y1700000D02*
D03*
D21*
Y1795000D02*
D03*
D22*
X1315000Y1820000D02*
D03*
X1410000Y1620000D02*
D03*
X1505000Y1820000D02*
D03*
D23*
X2790000Y1100000D02*
D03*
Y890000D02*
D03*
D24*
X2250000Y3555156D02*
D03*
Y3300000D02*
D03*
D25*
X3040000Y1480098D02*
D03*
Y1359902D02*
D03*
X3050000Y1200098D02*
D03*
Y1079902D02*
D03*
X3770000Y1770098D02*
D03*
Y1649902D02*
D03*
D26*
X2250000Y877700D02*
D03*
Y1347700D02*
D03*
D27*
X2790000Y1392392D02*
D03*
Y1547608D02*
D03*
D28*
X950000Y4300000D02*
D03*
X800000D02*
D03*
D29*
X3502392Y1010000D02*
D03*
X3657608D02*
D03*
D30*
X1400000Y1300000D02*
D03*
Y800000D02*
D03*
D31*
X4792500Y3121000D02*
D03*
Y2867000D02*
D03*
Y2740000D02*
D03*
Y2613000D02*
D03*
X5337500Y3375000D02*
D03*
Y3248000D02*
D03*
Y3121000D02*
D03*
Y2867000D02*
D03*
Y2740000D02*
D03*
Y2613000D02*
D03*
X4792500Y3248000D02*
D03*
Y3375000D02*
D03*
Y2994000D02*
D03*
X5337500D02*
D03*
X3177500Y4126000D02*
D03*
Y3999000D02*
D03*
X3722500Y4253000D02*
D03*
X3177500Y4380000D02*
D03*
X3722500Y4634000D02*
D03*
Y4761000D02*
D03*
X3177500Y4634000D02*
D03*
Y4761000D02*
D03*
Y4507000D02*
D03*
X3722500D02*
D03*
X3177500Y4253000D02*
D03*
X3722500Y3999000D02*
D03*
Y4126000D02*
D03*
Y4380000D02*
D03*
X4807500Y4791000D02*
D03*
Y4664000D02*
D03*
Y4537000D02*
D03*
Y4283000D02*
D03*
Y4156000D02*
D03*
Y4029000D02*
D03*
X5352500Y4537000D02*
D03*
Y4283000D02*
D03*
Y4156000D02*
D03*
Y4029000D02*
D03*
Y4664000D02*
D03*
Y4791000D02*
D03*
X4807500Y4410000D02*
D03*
X5352500D02*
D03*
X3802500Y3057000D02*
D03*
Y3184000D02*
D03*
Y3311000D02*
D03*
X3257500Y2549000D02*
D03*
Y2676000D02*
D03*
Y2803000D02*
D03*
Y3057000D02*
D03*
Y3311000D02*
D03*
Y3184000D02*
D03*
X3802500Y2676000D02*
D03*
Y2549000D02*
D03*
X3257500Y2930000D02*
D03*
X3802500Y2803000D02*
D03*
Y2930000D02*
D03*
D32*
X2200000Y4215000D02*
D03*
Y4085000D02*
D03*
X2982250Y4724750D02*
D03*
Y4594750D02*
D03*
X2980000Y4365000D02*
D03*
Y4235000D02*
D03*
X2990000Y3865000D02*
D03*
Y3995000D02*
D03*
X4410000Y4595000D02*
D03*
Y4725000D02*
D03*
Y4335000D02*
D03*
Y4205000D02*
D03*
X4420000Y3950000D02*
D03*
Y3820000D02*
D03*
X3010000Y3250000D02*
D03*
Y3380000D02*
D03*
Y2855000D02*
D03*
Y2985000D02*
D03*
X3000000Y2475000D02*
D03*
Y2605000D02*
D03*
X4500000Y3150000D02*
D03*
Y3280000D02*
D03*
X4517500Y2770000D02*
D03*
Y2900000D02*
D03*
X4510000Y2380000D02*
D03*
Y2510000D02*
D03*
X2220000Y3125000D02*
D03*
Y2995000D02*
D03*
X2252500Y3917500D02*
D03*
Y3787500D02*
D03*
D33*
X1810000Y250000D02*
D03*
X1510000D02*
D03*
D34*
X2362500Y350000D02*
D03*
X2562500D02*
D03*
X2360000Y550000D02*
D03*
X2560000D02*
D03*
D35*
X2720000Y1850000D02*
D03*
X2850000D02*
D03*
X3540000Y3710000D02*
D03*
X3410000D02*
D03*
X5180000Y3720000D02*
D03*
X5050000D02*
D03*
X3622500Y2285000D02*
D03*
X3492500D02*
D03*
X5155000Y2460000D02*
D03*
X5285000D02*
D03*
X1502500Y2812500D02*
D03*
X1632500D02*
D03*
X1515000Y4390000D02*
D03*
X1645000D02*
D03*
D36*
X3872422Y3650000D02*
D03*
X4127578D02*
D03*
D37*
X2045000Y1770000D02*
D03*
X2255000D02*
D03*
D38*
X2157608Y250000D02*
D03*
X2002392D02*
D03*
D39*
X3410000Y3850000D02*
D03*
X3550000D02*
D03*
X5180000Y3860000D02*
D03*
X5040000D02*
D03*
X3627500Y2417500D02*
D03*
X3487500D02*
D03*
X4880000Y2460000D02*
D03*
X4739999D02*
D03*
D40*
X6152500Y4734322D02*
X6153072Y4733750D01*
X7541250D01*
X1807731Y3893389D02*
X1815050Y3886070D01*
X1779349Y3948812D02*
X1807731Y3920429D01*
X1715089Y3910266D02*
Y3951190D01*
X1807731Y3893389D02*
Y3920429D01*
X1709349Y3956930D02*
X1715089Y3951190D01*
Y3910266D02*
X1794532Y3830823D01*
X1779349Y3948812D02*
Y3956930D01*
X1815050Y3883989D02*
X1854809Y3844230D01*
X1815050Y3883989D02*
Y3886070D01*
X1672500Y3722782D02*
Y3814687D01*
X1269952Y3197793D02*
X1306664Y3234504D01*
X1247193Y3197793D02*
X1269952D01*
X1306664Y3234504D02*
X1311022D01*
X2401110Y1894320D02*
Y1951110D01*
X2392900Y1886110D02*
X2401110Y1894320D01*
X2392900Y1885000D02*
Y1886110D01*
X328615Y4088079D02*
X332499Y4084194D01*
Y4033079D02*
Y4084194D01*
Y4033079D02*
X342500Y4023079D01*
X273615Y3876385D02*
X517500Y3632500D01*
X273615Y4212852D02*
X950600Y4889837D01*
X273615Y3876385D02*
Y4212852D01*
X342500Y3892381D02*
Y4023079D01*
X432388Y3802493D02*
X654230D01*
X342500Y3892381D02*
X432388Y3802493D01*
X654230D02*
X780600Y3928863D01*
X950600Y4889837D02*
Y5173497D01*
X1352219Y1096100D02*
X1390000D01*
X1390000Y1096100D01*
X1259839Y1003721D02*
X1352219Y1096100D01*
X1259839Y1003721D02*
X1259839D01*
X1186900Y930781D02*
X1259839Y1003721D01*
X955721Y4445773D02*
X1368948Y4859000D01*
X1530000D01*
X2295540Y1954460D02*
Y1992241D01*
X2379179Y2075880D02*
X2379179D01*
X2295540Y1992241D02*
X2379179Y2075880D01*
X2295540Y1954460D02*
X2300000Y1950000D01*
X2379179Y2075880D02*
X2455800Y2152501D01*
X3152494Y3371000D02*
X3339439D01*
X3105000Y3323506D02*
X3152494Y3371000D01*
X3105000Y3237254D02*
Y3323506D01*
X4905000Y3132500D02*
X4945000Y3092500D01*
X4905000Y3132500D02*
Y3416894D01*
X4839231Y3482663D02*
X4905000Y3416894D01*
X4600381Y4710000D02*
X4677500D01*
X4585381Y4725000D02*
X4600381Y4710000D01*
X4565281Y4592500D02*
X4689629Y4468152D01*
X4522219Y4592500D02*
X4565281D01*
X4450000Y4632500D02*
X4581850D01*
X4490000Y4560282D02*
X4522219Y4592500D01*
X4581850Y4632500D02*
X4679350Y4535000D01*
X4552500D02*
X4602500Y4485000D01*
X4545000Y4535000D02*
X4552500D01*
X8115000Y4487500D02*
X8142500Y4515000D01*
X8115000Y1075000D02*
Y4487500D01*
X350000Y1047500D02*
X415000Y1112500D01*
X350000Y350000D02*
Y1047500D01*
X759998Y1118844D02*
Y2229111D01*
X772500Y2241612D01*
Y2249730D01*
X737500Y3172219D02*
Y3261463D01*
Y3172219D02*
X823181Y3086537D01*
X657500Y3139082D02*
Y3372781D01*
Y3139082D02*
X790044Y3006537D01*
X737500Y3261463D02*
X807500Y3331463D01*
X697500Y3155650D02*
Y3335000D01*
X752500Y3390000D01*
X657500Y3372781D02*
X765000Y3480282D01*
X617500Y3422500D02*
X698608Y3503608D01*
X617500Y3122513D02*
Y3422500D01*
X697500Y3155650D02*
X806613Y3046537D01*
X617500Y3122513D02*
X773476Y2966537D01*
X517500Y2494481D02*
Y3632500D01*
Y2494481D02*
X597929Y2407071D01*
X1145000Y3227781D02*
X1240917Y3323698D01*
X1262022D01*
X1363679Y3425356D01*
X1311893Y3666293D02*
X1331893D01*
X1336839Y3661347D02*
X1371153D01*
X1331893Y3666293D02*
X1336839Y3661347D01*
X1371153D02*
X1376893Y3655607D01*
X1249652Y3604052D02*
X1311893Y3666293D01*
X796390Y3242572D02*
X802130Y3236832D01*
X807500Y3331463D02*
Y3501746D01*
X822228Y3236832D02*
X834277Y3224783D01*
X905217D01*
X802130Y3236832D02*
X822228D01*
X7190370Y1592130D02*
X7795000Y987500D01*
X7190370Y1592130D02*
Y1619630D01*
X6580000Y2230000D02*
X7190370Y1619630D01*
X7795000Y987500D02*
X7967500D01*
X7198191Y3083691D02*
X7206309D01*
X7181883Y3100000D02*
X7198191Y3083691D01*
X6353234Y3100000D02*
X7181883D01*
X6550000Y3042500D02*
X6635348Y2957152D01*
X7727436D01*
X5505000Y4214211D02*
X5567500Y4276711D01*
X5462700Y3995594D02*
Y4228479D01*
X5505000Y3981326D02*
Y4214211D01*
X5462700Y4228479D02*
X5527500Y4293279D01*
X5412300Y4517700D02*
X5527500Y4402500D01*
X7485000Y3695000D02*
X7622848Y3557152D01*
X7727436D01*
X6190000Y1225000D02*
X7420000D01*
X7732500Y912500D01*
X7952500D01*
X8115000Y1075000D01*
X7967500Y987500D02*
X8075000Y1095000D01*
Y4565000D01*
X6277500Y4510000D02*
X7695000D01*
X6254719Y4455000D02*
X7279587D01*
X7677435Y4057152D01*
X6248180Y4461539D02*
X6254719Y4455000D01*
X5747564Y4461539D02*
X6248180D01*
X7597152Y2557152D02*
X7727436D01*
X6963924Y1923924D02*
X7597152Y2557152D01*
X5837500Y1920000D02*
X6737500D01*
X5836424Y1918924D02*
X5837500Y1920000D01*
X5849551Y2317500D02*
X6537500D01*
X6877152Y2657152D01*
X5699896Y2167845D02*
X5849551Y2317500D01*
X7910000Y4730000D02*
X8075000Y4565000D01*
X6877152Y2657152D02*
X7727436D01*
X7541250Y4733750D02*
X7542500Y4732500D01*
X5875000Y607500D02*
Y1322620D01*
X5590000Y322500D02*
X5875000Y607500D01*
X5172100Y14100D02*
X5835000Y677000D01*
X1370858Y14100D02*
X5172100D01*
X5835000Y677000D02*
Y970577D01*
X5699896Y1497724D02*
X5875000Y1322620D01*
X5699896Y1497724D02*
Y2167845D01*
X5173158Y192500D02*
X5785000Y804342D01*
X5780000Y932500D02*
X5785000Y927500D01*
Y804342D02*
Y927500D01*
X5813284Y992293D02*
X5835000Y970577D01*
X5615000Y1039008D02*
X5661716Y992293D01*
X5813284D01*
X5659896Y1220104D02*
X5782500Y1097500D01*
X5659896Y1220104D02*
Y2272396D01*
X5762500Y2375000D01*
X6485000D01*
X6867152Y2757152D01*
X7727436D01*
X5615000Y1039008D02*
Y3411890D01*
X6907500Y2855000D02*
X7592500D01*
X6480000Y2427500D02*
X6907500Y2855000D01*
X6172848Y2427500D02*
X6480000D01*
X6065824Y2534524D02*
X6172848Y2427500D01*
X7593576Y2856076D02*
X7726360D01*
X7592500Y2855000D02*
X7593576Y2856076D01*
X7726360D02*
X7727436Y2857152D01*
X7359608Y3159260D02*
X7361716Y3157152D01*
X7340740Y3159260D02*
X7359608D01*
X7361716Y3157152D02*
X7727436D01*
X7335000Y3165000D02*
X7340740Y3159260D01*
X7190000Y3232219D02*
Y3782500D01*
Y3232219D02*
X7369719Y3052500D01*
X7587500D01*
X7277500Y3537500D02*
X7555000Y3260000D01*
X5730000Y4835000D02*
X6486463D01*
X7714936Y4057152D02*
X7718035Y4060252D01*
X7677435Y4057152D02*
X7714936D01*
X6482133Y4410000D02*
X7197500D01*
X7645348Y3962152D01*
X5821716Y4350000D02*
X7157500D01*
X7645348Y3862152D01*
X7090784Y4242500D02*
X7102500Y4230784D01*
X5936716Y4242500D02*
X7090784D01*
X7102500Y4209661D02*
Y4230784D01*
X5867161Y4289661D02*
X7122500D01*
X7102500Y4209661D02*
X7650010Y3662152D01*
X7122500Y4289661D02*
X7650010Y3762152D01*
X5615000Y4886491D02*
X5802300Y5073790D01*
X5615000Y3720000D02*
Y4886491D01*
X5565740Y3859557D02*
X5574787Y3850510D01*
X5565740Y3859557D02*
Y3889771D01*
X5505000Y3836743D02*
Y3918292D01*
X5554260Y3967552D01*
X5521100Y3776824D02*
X5574787Y3830510D01*
X5554260Y3999771D02*
X5560000Y4005511D01*
X5493285Y3825028D02*
X5505000Y3836743D01*
X5574787Y3830510D02*
Y3850510D01*
X5554260Y3967552D02*
Y3999771D01*
X5434575Y3910900D02*
X5505000Y3981326D01*
X5334216Y3825028D02*
X5493285D01*
X5560000Y3895511D02*
X5565740Y3889771D01*
X7589826Y3054826D02*
X7725110D01*
X7727436Y3057152D01*
X7587500Y3052500D02*
X7589826Y3054826D01*
X7347641Y3545141D02*
X7522041Y3370740D01*
X7549260D02*
X7558924Y3361076D01*
X7522041Y3370740D02*
X7549260D01*
X7277500Y3537500D02*
Y3612500D01*
X7556424Y3258576D02*
X7726011D01*
X7555000Y3260000D02*
X7556424Y3258576D01*
X7726011D02*
X7727436Y3257152D01*
X7558924Y3361076D02*
X7723512D01*
X7727436Y3357152D01*
X7548576Y3453576D02*
X7723860D01*
X7545000Y3450000D02*
X7548576Y3453576D01*
X7723860D02*
X7727436Y3457152D01*
X5925001Y3852501D02*
Y4230784D01*
X5690000Y3730000D02*
X5850000Y3890000D01*
X5720211Y3655088D02*
Y3661854D01*
X5755719Y3697362D01*
X5550828Y3556760D02*
X5599260D01*
X5605000Y3562500D01*
X5537300Y3543232D02*
X5550828Y3556760D01*
X5537300Y2629887D02*
Y3543232D01*
X5492500Y3555000D02*
X5587500Y3650000D01*
X5492500Y2837500D02*
Y3555000D01*
X5587500Y3650000D02*
X5595000D01*
X5661171Y3458060D02*
Y3673829D01*
X5615000Y3411890D02*
X5661171Y3458060D01*
X5755719Y3697362D02*
X5769862D01*
X5925001Y3852501D01*
X5615000Y3720000D02*
X5661171Y3673829D01*
X5925001Y4230784D02*
X5936716Y4242500D01*
X7650010Y3662152D02*
X7722436D01*
X7727436Y3657152D01*
X7650010Y3762152D02*
X7722436D01*
X5689741Y3809244D02*
X5691744D01*
X5810000Y3927500D01*
X5540000Y2193776D02*
Y2627187D01*
X5537300Y2629887D02*
X5540000Y2627187D01*
X5356685Y3625785D02*
X5389382Y3593088D01*
X5322500Y3637500D02*
X5334215Y3625785D01*
X5452500Y3539719D02*
Y3675115D01*
X5470300Y3692915D02*
Y3697865D01*
X5452500Y3675115D02*
X5470300Y3692915D01*
Y3697865D02*
X5521100Y3748665D01*
X5334215Y3625785D02*
X5356685D01*
X5420282Y3507500D02*
X5452500Y3539719D01*
X5160000Y1813776D02*
X5540000Y2193776D01*
X5389382Y3593088D02*
X5397500D01*
X5521100Y3748665D02*
Y3776824D01*
X5850000Y3890000D02*
Y4272500D01*
X5810000Y3927500D02*
Y4338284D01*
X5742624Y4006499D02*
X5756766Y4020641D01*
X5708201Y3975000D02*
X5739700Y4006499D01*
X5700083Y3975000D02*
X5708201D01*
X5739700Y4006499D02*
X5742624D01*
X5850000Y4272500D02*
X5867161Y4289661D01*
X5756766Y4020641D02*
Y4388284D01*
X5810000Y4338284D02*
X5821716Y4350000D01*
X7645348Y3862152D02*
X7722436D01*
X6472133Y4400000D02*
X6482133Y4410000D01*
X5768481Y4400000D02*
X6472133D01*
X7645348Y3962152D02*
X7722436D01*
X5756766Y4388284D02*
X5768481Y4400000D01*
X7722436Y3762152D02*
X7727436Y3757152D01*
X5322500Y3684700D02*
Y3813312D01*
X5428406Y3961300D02*
X5462700Y3995594D01*
X5322500Y3813312D02*
X5334216Y3825028D01*
X5313400Y3910900D02*
X5434575D01*
X5286205Y3961300D02*
X5428406D01*
X5265199Y3862699D02*
X5313400Y3910900D01*
X7722436Y3862152D02*
X7727436Y3857152D01*
X7722436Y3962152D02*
X7727436Y3957152D01*
X5463390Y4799744D02*
X5567500Y4695634D01*
X5527500Y4293279D02*
Y4402500D01*
X5567500Y4276711D02*
Y4695634D01*
X5466760Y4355740D02*
X5472500Y4350000D01*
X5449260Y4355740D02*
X5466760D01*
X5770000Y5550000D02*
X5802300Y5517700D01*
Y5073790D02*
Y5517700D01*
X3105103Y5550000D02*
X5770000D01*
X350000Y350000D02*
X512359D01*
X669859Y192500D01*
X1185000D01*
X717500Y577500D02*
X1047500Y247500D01*
X1050000D01*
X717500Y577500D02*
Y2318445D01*
X759998Y1118844D02*
X759999Y1118674D01*
X747989Y2336809D02*
X800355Y2327427D01*
X717500Y2318445D02*
X730319Y2331265D01*
X735864Y2336809D01*
X747989D01*
X759999Y1118674D02*
X763545Y702625D01*
X769333Y696837D02*
X1341100Y125071D01*
X763545Y702625D02*
X769333Y696837D01*
X1341100Y43858D02*
Y125071D01*
X3448724Y5047057D02*
X3456842D01*
X3466399Y5037500D01*
X3672942D01*
X3695206Y5059765D01*
X3739366D01*
X3745106Y5065505D01*
X3467433Y2310067D02*
X3492500Y2285000D01*
X4262219Y4538945D02*
X4300281D01*
X4229505Y4641941D02*
X4277500Y4593945D01*
X4300281Y4538945D02*
X4318836Y4557500D01*
X4259188Y4535915D02*
X4262219Y4538945D01*
X4318836Y4557500D02*
X4372500D01*
X4209065Y4535915D02*
X4259188D01*
X3010000Y3147500D02*
X3086182Y3071318D01*
X3243181D01*
X3182911Y999810D02*
Y1028674D01*
X3150514Y868443D02*
Y967414D01*
X3182911Y999810D01*
Y1028674D02*
X3195000Y1040763D01*
X2957500Y802500D02*
X3084571D01*
X3123536Y841464D02*
X3149179Y815821D01*
X3123536Y841464D02*
X3150514Y868443D01*
X3089571Y807500D02*
X3123536Y841464D01*
X2122974Y3610000D02*
X2134690Y3621716D01*
Y3625314D01*
X2165549Y3656173D01*
X2030000Y3610000D02*
X2122974D01*
X2165549Y3656173D02*
X2171173D01*
X3099350Y2896576D02*
Y2905577D01*
Y2896576D02*
X3117500Y2878426D01*
Y2870308D02*
Y2878426D01*
Y2870000D02*
X3332438D01*
X3035858Y2302695D02*
X3043230Y2310067D01*
X2978230Y2302695D02*
X3035858D01*
X3043230Y2310067D02*
X3347433D01*
X5310000Y4410000D02*
X5395000D01*
X5449260Y4355740D01*
X5102500Y4600000D02*
X5102570Y4599930D01*
Y4477570D02*
Y4599930D01*
X5102500Y4477500D02*
X5102570Y4477570D01*
X5150740Y4250741D02*
X5310000Y4410000D01*
X5191240Y4002701D02*
X5196980Y4008441D01*
X5191240Y3965244D02*
Y4002701D01*
X5155631Y3929635D02*
X5191240Y3965244D01*
X5150740Y4210740D02*
Y4250741D01*
X5137206Y3929635D02*
X5155631D01*
X5114280Y3906709D02*
X5137206Y3929635D01*
X5114280Y3821852D02*
Y3906709D01*
X5084800Y3792372D02*
X5114280Y3821852D01*
X5084800Y3754800D02*
Y3792372D01*
X5050000Y3720000D02*
X5084800Y3754800D01*
X5012500Y3477762D02*
X5051571Y3516833D01*
Y3585000D01*
X5012275Y3477538D02*
X5012500D01*
Y3477762D01*
Y3371500D02*
Y3477538D01*
Y3371500D02*
X5069650Y3314350D01*
X5143815D01*
X4410000Y4725000D02*
X4585381D01*
X3376250Y4476250D02*
X3380000Y4480000D01*
X3874259Y4268365D02*
Y4299747D01*
Y4268365D02*
X3880000Y4262624D01*
X3480000Y4380000D02*
X3722500D01*
X3380000Y4480000D02*
X3480000Y4380000D01*
X3376250Y4183750D02*
Y4476250D01*
X3742500Y4360000D02*
X3814007D01*
X3874259Y4299747D01*
X3722500Y4380000D02*
X3742500Y4360000D01*
X4619800Y3397300D02*
Y3405000D01*
X4502500Y3280000D02*
X4619800Y3397300D01*
X4500000Y3280000D02*
X4502500D01*
X3376250Y4183750D02*
X3380000Y4180000D01*
X4132578Y3655000D02*
X4240000D01*
X4127578Y3650000D02*
X4132578Y3655000D01*
X5295000Y2994000D02*
X5337500D01*
X5052175Y2941682D02*
Y2949800D01*
X5209631Y2922500D02*
X5223500D01*
X5295000Y2994000D01*
X5092175Y2897825D02*
X5184956D01*
X5209631Y2922500D01*
X5052175Y2941682D02*
X5078007Y2915850D01*
Y2911993D02*
Y2915850D01*
Y2911993D02*
X5092175Y2897825D01*
X5247500Y2422500D02*
X5285000Y2460000D01*
X5247500Y2327809D02*
Y2422500D01*
X5454430Y2335199D02*
X5458001Y2331628D01*
Y2227720D02*
Y2331628D01*
X5092500Y2072500D02*
Y2172809D01*
X5207782Y1977500D02*
X5458001Y2227720D01*
X5092500Y2172809D02*
X5247500Y2327809D01*
X5070000Y1617300D02*
Y1702500D01*
X4901674Y1977500D02*
X5207782D01*
X4848337Y1924163D02*
X4901674Y1977500D01*
X4840214Y1916041D02*
X4848337Y1924163D01*
X5070000Y1702500D01*
X4785000Y1916041D02*
X4840214D01*
X5057500Y1101046D02*
Y1105000D01*
X5030200Y1577500D02*
X5070000Y1617300D01*
X5057500Y1101046D02*
X5073549Y1084997D01*
Y847727D02*
Y1084997D01*
X4907500Y1577500D02*
X5030200D01*
X4358986Y2970409D02*
Y2978527D01*
X4508652Y2893652D02*
Y2900000D01*
X4477500Y2862500D02*
X4508652Y2893652D01*
X4334848Y2946271D02*
X4358986Y2970409D01*
X4470074Y2862500D02*
X4477500D01*
X4334848Y2918206D02*
Y2946271D01*
X4318001Y2901358D02*
X4334848Y2918206D01*
X4427782Y2820208D02*
X4470074Y2862500D01*
X4369792Y2820208D02*
X4427782D01*
X4411036Y2731036D02*
X4413964D01*
X4510000Y2635000D01*
X4318001Y2850500D02*
X4318051Y2850450D01*
X4321928Y2846573D02*
X4343427D01*
X4318001Y2850500D02*
Y2901358D01*
X4357929Y2730000D02*
X4410000D01*
X4344909Y2716980D02*
X4357929Y2730000D01*
X4343427Y2846573D02*
X4369792Y2820208D01*
X3760000Y2930000D02*
X3802500D01*
X4211790Y2850400D02*
X4318001D01*
X3475000Y2880000D02*
X3515000Y2920000D01*
X3458787Y2880000D02*
X3475000D01*
X3332438Y2870000D02*
X3360000Y2842439D01*
Y2841438D02*
Y2842439D01*
X4182000Y2739389D02*
Y2820610D01*
Y2739389D02*
X4204410Y2716980D01*
X4182000Y2820610D02*
X4211790Y2850400D01*
X3545000Y2715000D02*
X3760000Y2930000D01*
X4204410Y2716980D02*
X4344909D01*
X3470000Y2715000D02*
X3545000D01*
X3398396Y2819610D02*
X3458787Y2880000D01*
X3360000Y2841438D02*
X3381828Y2819610D01*
X3398396D01*
X4617991Y2533891D02*
X4626109D01*
X4510000Y2510000D02*
X4594101D01*
X4617991Y2533891D01*
X4510000Y2510000D02*
Y2635000D01*
X3347433Y2310067D02*
X3467433D01*
X3377366Y2340000D02*
X3385000D01*
X3347433Y2310067D02*
X3377366Y2340000D01*
X3195000Y1040763D02*
Y1222781D01*
X2462500Y4405000D02*
X2468240Y4399260D01*
Y4351760D02*
Y4399260D01*
X2977500Y4235000D02*
X2980000D01*
X2669131Y4169480D02*
X2798000Y4040611D01*
X2825000Y3995000D02*
X2990000D01*
X2798000Y4022000D02*
Y4040611D01*
Y4022000D02*
X2825000Y3995000D01*
X2468240Y4351760D02*
X2650520Y4169480D01*
X2669131D01*
X2263913Y4767231D02*
X2336545D01*
X2234182Y4737500D02*
X2263913Y4767231D01*
X2184112Y4755119D02*
X2201731Y4737500D01*
X2234182D01*
X2097500Y4755119D02*
X2184112D01*
X2077997Y4097725D02*
X2090722Y4085000D01*
X2200000D01*
X2067500Y4097725D02*
X2077997D01*
X2250000Y3787500D02*
X2252500D01*
X2212500Y3747500D02*
Y3750000D01*
X2250000Y3787500D01*
X2175000Y3710000D02*
X2212500Y3747500D01*
X2069879Y4011548D02*
Y4097725D01*
X2058331Y4000000D02*
X2069879Y4011548D01*
X2030000Y4000000D02*
X2058331D01*
X2838611Y3380000D02*
X3010000D01*
X2775591Y3316980D02*
X2838611Y3380000D01*
X2698370Y3316980D02*
X2775591D01*
X2662000Y3280610D02*
X2698370Y3316980D01*
X2222422Y3300000D02*
Y3422422D01*
Y3300000D02*
X2250000D01*
X2218827Y3431020D02*
Y3453598D01*
X2222422Y3422422D02*
Y3427424D01*
X2175000Y3660000D02*
Y3710000D01*
X2171173Y3656173D02*
X2175000Y3660000D01*
X2215000Y3457424D02*
X2218827Y3453598D01*
Y3431020D02*
X2222422Y3427424D01*
X2160696Y3422422D02*
X2222422D01*
X2179922Y3257500D02*
X2222422Y3300000D01*
X2030000Y3415000D02*
X2153274D01*
X2160696Y3422422D01*
X2142500Y3257500D02*
X2179922D01*
X1679800Y4562300D02*
X1682500Y4565000D01*
X1679800Y4424800D02*
Y4562300D01*
X1645000Y4390000D02*
X1679800Y4424800D01*
X1610200Y4355200D02*
X1645000Y4390000D01*
X1610200Y4333818D02*
Y4355200D01*
X1556300Y4301900D02*
X1578282D01*
X1610200Y4333818D01*
X1535000Y4280600D02*
X1556300Y4301900D01*
X1665000Y4113235D02*
Y4170000D01*
X1652500Y4100735D02*
X1665000Y4113235D01*
X1652500Y4097426D02*
Y4100735D01*
X1619874Y4064800D02*
X1652500Y4097426D01*
X1538750Y4103185D02*
X1577136Y4064800D01*
X1619874D01*
X1535000Y4170000D02*
Y4280600D01*
Y4170000D02*
X1538750Y4166250D01*
X1470000Y4170000D02*
X1535000D01*
X1538750Y4103185D02*
Y4166250D01*
X1079794Y4956585D02*
X1170953D01*
X963477Y4840268D02*
X1079794Y4956585D01*
X963477Y4787826D02*
Y4840268D01*
X847551Y4671900D02*
X963477Y4787826D01*
X847500Y4671900D02*
X847551D01*
X227500Y4487500D02*
X230000Y4485000D01*
X444400D01*
X877500Y4397500D02*
Y4452500D01*
X800000Y4320000D02*
X877500Y4397500D01*
X444400Y4485000D02*
X757500Y4798100D01*
X800000Y4300000D02*
Y4320000D01*
X1270000Y3860000D02*
X1315000Y3815000D01*
X1375000D02*
X1380000Y3810000D01*
X1315000Y3815000D02*
X1375000D01*
X1338909Y3549370D02*
X1345262D01*
X1103343Y3975000D02*
X1110000D01*
X910000Y4000000D02*
X1078343D01*
X1103343Y3975000D01*
X1034309Y3740000D02*
X1080000Y3785691D01*
X910000Y3740000D02*
X1034309D01*
X910000Y3675000D02*
Y3740000D01*
X3010000Y2985000D02*
X3012500D01*
X3064142Y2933358D01*
X2972500Y3022500D02*
X3010000Y2985000D01*
X3064142Y2933358D02*
X3071569D01*
X3099350Y2905577D01*
X2662000Y3199389D02*
X2838889Y3022500D01*
X2972500D01*
X2662000Y3199389D02*
Y3280610D01*
X3040098Y1359902D02*
X3125065Y1274935D01*
X3142846D01*
X3195000Y1222781D01*
X2945000Y815000D02*
X2957500Y802500D01*
X2867583Y829299D02*
X2881882Y815000D01*
X2945000D01*
X2830600Y849400D02*
X2850701Y829299D01*
X2867583D01*
X2108750Y3223750D02*
X2142500Y3257500D01*
X2078750Y3223750D02*
X2108750D01*
X2187500Y2965000D02*
X2217500Y2995000D01*
X2102500Y2965000D02*
X2187500D01*
X2083750Y2946250D02*
X2102500Y2965000D01*
X2075000Y3220000D02*
X2078750Y3223750D01*
X2065946Y3220000D02*
X2070000Y3215946D01*
X2030000Y3220000D02*
X2065946D01*
X2030000D02*
X2083750Y3166250D01*
Y2946250D02*
Y3166250D01*
Y2941868D02*
Y2946250D01*
X1347013Y3000248D02*
Y3042911D01*
X2084260Y2925740D02*
X2090000Y2920000D01*
X2083750Y2941868D02*
X2084260Y2941358D01*
Y2925740D02*
Y2941358D01*
X1645189Y2835189D02*
Y2922773D01*
X1628900Y2818900D02*
X1645189Y2835189D01*
X905217Y3224783D02*
X910000Y3220000D01*
X1327500Y2978254D02*
Y2980735D01*
X1333054Y2922773D02*
X1645189D01*
X1327500Y2980735D02*
X1347013Y3000248D01*
X1300000Y2950754D02*
X1327500Y2978254D01*
X1300000Y2892500D02*
Y2950754D01*
X1302781Y2892500D02*
X1333054Y2922773D01*
X1300000Y2892500D02*
X1302781D01*
X750000Y2840000D02*
X860554Y2729446D01*
Y2591659D02*
Y2729446D01*
X1297700Y902300D02*
X1400000Y800000D01*
X4303611Y2305000D02*
X4325756Y2327145D01*
X4422929D01*
X4375295Y2207550D02*
Y2212145D01*
X4587480Y2302500D02*
X4739999Y2455020D01*
X4422929Y2327145D02*
X4447574Y2302500D01*
X4587480D01*
X4121861Y2305000D02*
X4303611D01*
X4375295Y2207550D02*
X4441135Y2141710D01*
X1315000Y1820000D02*
Y1825000D01*
X1630421Y1547300D02*
X1702700D01*
X1315000Y1825000D02*
X1385000Y1895000D01*
X1575000Y1602721D02*
X1630421Y1547300D01*
X1385000Y1895000D02*
X1557426D01*
X1575000Y1602721D02*
Y1877427D01*
X1557426Y1895000D02*
X1575000Y1877427D01*
X3282316Y903839D02*
X3323963Y862192D01*
X3376500Y989508D02*
Y1003062D01*
X3337316Y950323D02*
X3376500Y989508D01*
X3282316Y903839D02*
Y957794D01*
X3282911Y958389D01*
Y987253D01*
X3295000Y999342D01*
X3376500Y1003062D02*
X3377500Y1004061D01*
X1512838Y3942988D02*
X1548825Y3907000D01*
X1227784Y3977133D02*
X1449277D01*
X1483422Y3942988D02*
X1512838D01*
X1548825Y3907000D02*
X1648782D01*
X1449277Y3977133D02*
X1483422Y3942988D01*
X1382300Y3228001D02*
Y3263097D01*
X1278750Y3124451D02*
X1382300Y3228001D01*
X2687500Y1197921D02*
Y1330783D01*
X2572279Y1082700D02*
X2687500Y1197921D01*
X2565000Y1082700D02*
X2572279D01*
X2360000Y877700D02*
X2565000Y1082700D01*
X2625000Y755363D02*
X2684554Y695809D01*
X2625000Y755363D02*
Y900000D01*
X2632426Y650000D02*
X2690459Y591967D01*
X3030148Y675000D02*
X3170992D01*
X2982308Y627160D02*
X3030148Y675000D01*
X3170992D02*
X3270000Y774008D01*
X2690459Y591967D02*
X2864186D01*
X2899378Y627160D01*
X3270000Y774008D02*
Y784253D01*
X3297138Y811392D01*
X3471217D01*
X3295000Y999342D02*
Y1027626D01*
X3377500Y1004061D02*
Y1350869D01*
X3295000Y1027626D02*
X3314400Y1047027D01*
X2640592Y2367500D02*
X2800397Y2207695D01*
X2607729Y2327500D02*
X2767534Y2167695D01*
X3353237Y2247695D02*
X3353431Y2247500D01*
X2767534Y2167695D02*
X3314740D01*
X3387135Y2095300D01*
X2955448Y2247695D02*
X3353237D01*
X2800397Y2207695D02*
X3336668D01*
X2835000Y2368143D02*
Y2375000D01*
Y2368143D02*
X2955448Y2247695D01*
X3336668Y2207695D02*
X3398263Y2146100D01*
X3353431Y2247500D02*
X3378618D01*
X3429219Y2196900D01*
X3802204Y1877500D02*
X3945000Y1734704D01*
X3474106Y1877500D02*
X3802204D01*
X3412314Y1939292D02*
X3474106Y1877500D01*
X806613Y3046537D02*
X910212D01*
X987500Y2961685D02*
X1060586Y2888600D01*
X910212Y3046537D02*
X987500Y2969249D01*
X1289269Y2590000D02*
X1386769Y2492500D01*
X947500Y2945117D02*
X1258017Y2634600D01*
X907500Y2928549D02*
X1246049Y2590000D01*
X1289269D01*
X947500Y2945117D02*
Y2952680D01*
X893643Y3006537D02*
X947500Y2952680D01*
X1386769Y2492500D02*
X2058316D01*
X987500Y2961685D02*
Y2969249D01*
X790044Y3006537D02*
X893643D01*
X1258017Y2634600D02*
X1326379D01*
X1060586Y2888600D02*
X1105699D01*
X1326379Y2634600D02*
X1328479Y2632500D01*
X1344482Y2616497D01*
X2096484D01*
X4978619Y3640000D02*
X5250815D01*
X4964400Y3654218D02*
Y3785782D01*
Y3654218D02*
X4978619Y3640000D01*
X4519458Y3616782D02*
X4880999D01*
X4362676Y3460000D02*
X4519458Y3616782D01*
X3784690Y3692369D02*
Y3778154D01*
X3744690Y3794722D02*
X4065000Y4115032D01*
X4143516Y4136980D02*
Y4183516D01*
X3409986Y3547500D02*
X3517427D01*
X4025000Y4131600D02*
Y4192040D01*
X3971790Y4078390D02*
X4025000Y4131600D01*
X3744690Y3774763D02*
Y3794722D01*
X4065000Y4115032D02*
Y4223882D01*
X3784690Y3778154D02*
X4143516Y4136980D01*
Y4183516D02*
X4160000Y4200000D01*
X3943829Y4078390D02*
X3971790D01*
X4091982Y3460000D02*
X4362676D01*
X4056154Y3495828D02*
X4091982Y3460000D01*
X4050029Y3495828D02*
X4056154D01*
X3918800Y2101938D02*
X4121861Y2305000D01*
X4441135Y2141710D02*
X4608289D01*
X2647039Y2770000D02*
X2758611D01*
X2572781Y2752311D02*
Y2855000D01*
X2147049Y2622500D02*
X2452306D01*
X2329836Y2407500D02*
X2657160D01*
X2657680Y2406980D01*
X2558432Y2681393D02*
X2647039Y2770000D01*
X2558432Y2669128D02*
Y2681393D01*
X2471804Y2582500D02*
X2558432Y2669128D01*
X2252910Y2582500D02*
X2471804D01*
X1286016Y2716258D02*
X1295745Y2706530D01*
X2798611Y2430000D02*
X2857781D01*
X2097049Y2672500D02*
X2147049Y2622500D01*
X2392678Y2187501D02*
X2412678Y2207501D01*
X2396110Y2247500D02*
X2549349D01*
X2123316Y2427500D02*
X2293268D01*
X2549349Y2247500D02*
X2724350Y2072500D01*
X2512544Y2682738D02*
Y2692074D01*
X2376110Y2227500D02*
X2396110Y2247500D01*
X2857781Y2430000D02*
X2880281Y2407500D01*
X2379541Y2287500D02*
X2576452D01*
X2346405Y2367500D02*
X2640592D01*
X2576452Y2287500D02*
X2742353Y2121600D01*
X2452306Y2622500D02*
X2512544Y2682738D01*
X2657680Y2406980D02*
X2775591D01*
X2532781Y2207501D02*
X2707781Y2032500D01*
X2880281Y2407500D02*
X2927574D01*
X2362973Y2327500D02*
X2607729D01*
X2242910Y2572500D02*
X2252910Y2582500D01*
X2326405Y2347500D02*
X2346405Y2367500D01*
X2567500Y2447500D02*
X2730000Y2610000D01*
X2359541Y2267500D02*
X2379541Y2287500D01*
X2927574Y2407500D02*
X2940074Y2395000D01*
X2412678Y2207501D02*
X2532781D01*
X2512544Y2692074D02*
X2572781Y2752311D01*
X1295745Y2706530D02*
X1311018D01*
X1345048Y2672500D01*
X2313268Y2447500D02*
X2567500D01*
X1345048Y2672500D02*
X2097049D01*
X2293268Y2427500D02*
X2313268Y2447500D01*
X2342973Y2307500D02*
X2362973Y2327500D01*
X2227721Y2572500D02*
X2242910D01*
X2309836Y2387500D02*
X2329836Y2407500D01*
X2150481Y2562500D02*
X2217721D01*
X2227721Y2572500D01*
X2096484Y2616497D02*
X2150481Y2562500D01*
X2758611Y2770000D02*
X2815000Y2826389D01*
X2730000Y2470000D02*
X2995000D01*
X3094808Y2435000D02*
X3381849D01*
X3068284Y2461523D02*
X3094808Y2435000D01*
X3381849D02*
X3454350Y2507500D01*
X3663142D02*
X3678021Y2522379D01*
Y2721021D02*
X3760000Y2803000D01*
X3678021Y2522379D02*
Y2721021D01*
X2995000Y2470000D02*
X3000000Y2475000D01*
X3760000Y2803000D02*
X3802500D01*
X3000000Y2475000D02*
X3013477Y2461523D01*
X3068284D01*
X3454350Y2507500D02*
X3663142D01*
X2710000Y162500D02*
X3102500Y555000D01*
X3378450D01*
X2309279Y162500D02*
X2710000D01*
X823181Y3086537D02*
X960949D01*
X1027500Y3019986D01*
X773476Y2966537D02*
X877075D01*
X907500Y2936112D01*
X800355Y2327427D02*
X812071Y2315710D01*
Y2287929D02*
Y2315710D01*
X804354Y2515600D02*
X1031878D01*
X740000Y2451246D02*
X804354Y2515600D01*
X792601Y2405061D02*
X834233Y2455403D01*
X844029Y2465200D01*
X767500Y3645001D02*
X775618D01*
X692500Y3642220D02*
X765000Y3569720D01*
X775618Y3645001D02*
X807500Y3613119D01*
X765000Y3480282D02*
Y3569720D01*
X906881Y3613119D02*
X910000Y3610000D01*
X807500Y3613119D02*
X906881D01*
X692500Y3642220D02*
Y3711746D01*
X5322500Y3637500D02*
Y3684700D01*
X2258882Y4307500D02*
X2391695D01*
X2622300Y4076895D01*
X2183650Y4382732D02*
X2258882Y4307500D01*
X1772500Y2712500D02*
X1877500Y2817500D01*
X1976912Y2871716D02*
X1988628Y2860000D01*
X1877500Y2817500D02*
X2340000D01*
X2287500Y2860000D02*
X2480000Y3052500D01*
X2340000Y2817500D02*
X2530800Y3008300D01*
X1988628Y2860000D02*
X2287500D01*
X2167082Y4382732D02*
X2183650D01*
X2200218Y4422732D02*
X2245059Y4377891D01*
X2115282Y4387500D02*
X2150513Y4422732D01*
X2200218D01*
X1997219Y4387500D02*
X2115282D01*
X2122590Y4338240D02*
X2167082Y4382732D01*
X2095740Y4338240D02*
X2122590D01*
X1985503Y4359216D02*
Y4375784D01*
X2132500Y4482500D02*
X2197018D01*
X1985503Y4359216D02*
X2085000Y4259719D01*
X2090000Y4332500D02*
X2095740Y4338240D01*
X1985503Y4375784D02*
X1997219Y4387500D01*
X2092500Y4442500D02*
X2132500Y4482500D01*
X2197018D02*
X2259518Y4420000D01*
X1697419Y4657700D02*
X1936506D01*
X1942187Y4652019D01*
X1955312Y4703100D02*
X1960993Y4697419D01*
X1942187Y4652019D02*
X2152731D01*
X1960993Y4697419D02*
X2171536D01*
X2176855Y4692100D01*
X2152731Y4652019D02*
X2191722Y4613028D01*
X1645160Y4703100D02*
X1955312D01*
X3042433Y4871300D02*
X3069033Y4897900D01*
X1630971Y4871300D02*
X3042433D01*
X1552064Y4792393D02*
X1630971Y4871300D01*
X1491972Y4621754D02*
X1698918Y4828700D01*
X3807628D02*
X3815727Y4820600D01*
X1698918Y4828700D02*
X3807628D01*
X2176855Y4692100D02*
X2201886D01*
X5027500Y4170932D02*
Y4187500D01*
X5040192Y4158240D02*
X5084260D01*
X5027500Y4170932D02*
X5040192Y4158240D01*
X5084260D02*
X5090000Y4152500D01*
X5027500Y4187500D02*
X5247300Y4407300D01*
X1687393Y4019182D02*
X1861030D01*
X1692734Y3872234D02*
X1727500Y3837469D01*
X1558330Y4019400D02*
X1631042D01*
X1642211Y3974000D02*
X1687393Y4019182D01*
X1631042Y4019400D02*
X1676224Y4064582D01*
X1648782Y3907000D02*
X1683548Y3872234D01*
X1727500Y3724350D02*
Y3837469D01*
X1676224Y4064582D02*
X1958955D01*
X1683548Y3872234D02*
X1692734D01*
X1539525Y3974000D02*
X1642211D01*
X1299445Y3765000D02*
X1346600D01*
X1377296Y3734304D02*
X1385414D01*
X1346600Y3765000D02*
X1377296Y3734304D01*
X1357500Y3325000D02*
X1363240Y3319260D01*
Y3282157D02*
Y3319260D01*
Y3282157D02*
X1382300Y3263097D01*
X1065000Y4768881D02*
Y4860000D01*
X1010333Y4714214D02*
X1065000Y4768881D01*
X4678565Y4621065D02*
X4686683D01*
X4709618Y4644000D01*
X4787500D01*
X4807500Y4664000D01*
X2985000Y3627428D02*
X2992572Y3635000D01*
X2774716Y3720000D02*
X3164342D01*
X2907218Y3680000D02*
X3220918D01*
X3164342Y3720000D02*
X3389342Y3945000D01*
X2794519Y3567300D02*
X2907218Y3680000D01*
X2761852Y3567300D02*
X2794519D01*
X3220918Y3680000D02*
X3305000Y3595918D01*
X2932427Y3627428D02*
X2985000D01*
X2930000Y3625000D02*
X2932427Y3627428D01*
X2733182Y3678467D02*
X2774716Y3720000D01*
X2992572Y3635000D02*
X3209350D01*
X5037500Y2502500D02*
X5056760Y2483240D01*
X5037500Y2502500D02*
Y2727500D01*
X3524642Y2859025D02*
X3531806D01*
X3490618Y2825000D02*
X3524642Y2859025D01*
X3426716Y2770000D02*
X3538757D01*
X3415000Y2758284D02*
X3426716Y2770000D01*
X3415000Y2747716D02*
Y2758284D01*
X3531806Y2859025D02*
X3570000Y2897218D01*
X3482500Y2825000D02*
X3490618D01*
X3538757Y2770000D02*
X3597500Y2828743D01*
X3091716Y2736000D02*
X3403284D01*
X3415000Y2747716D01*
X3570000Y2897218D02*
Y2980650D01*
X4972500Y4065000D02*
Y4779394D01*
X4942700Y4809194D02*
X4972500Y4779394D01*
X4602500Y4414397D02*
Y4485000D01*
X4807500Y4029000D02*
Y4156000D01*
X4529879Y4029000D02*
X4807500D01*
X4497700Y4309597D02*
X4602500Y4414397D01*
X4497700Y4061179D02*
X4529879Y4029000D01*
X4497700Y4061179D02*
Y4309597D01*
X4412500Y4595000D02*
X4450000Y4632500D01*
X4679350Y4535000D02*
X4712782D01*
X4715282Y4537500D01*
X4807000D01*
X4807500Y4537000D01*
X4372500Y4557500D02*
X4410000Y4595000D01*
X4164980Y4580000D02*
X4209065Y4535915D01*
X4160000Y4580000D02*
X4164980D01*
X4450000Y4495074D02*
X4490000Y4535074D01*
Y4560282D01*
X4689629Y4444958D02*
Y4468152D01*
X4548100Y4118879D02*
Y4303428D01*
X4689629Y4444958D01*
X4765000Y4283000D02*
X4807500D01*
X4160000Y4340000D02*
X4417500D01*
X4697300Y4215300D02*
X4765000Y4283000D01*
X4417500Y4340000D02*
X4450000Y4372500D01*
Y4495074D01*
X4697300Y4094279D02*
Y4215300D01*
X4682421Y4079400D02*
X4697300Y4094279D01*
X4587579Y4079400D02*
X4682421D01*
X4548100Y4118879D02*
X4587579Y4079400D01*
X5120000Y4045000D02*
X5149069D01*
X5166569Y4062500D02*
X5186850D01*
X5149069Y4045000D02*
X5166569Y4062500D01*
X5310000Y4156000D02*
X5352500D01*
X5186850Y4062500D02*
X5187791Y4063441D01*
X5217441D01*
X5310000Y4156000D01*
X5352500Y4029000D02*
Y4147781D01*
Y4156000D01*
X5011100Y3936100D02*
X5120000Y4045000D01*
X4978600Y3936100D02*
X5011100D01*
X4950000Y3907500D02*
X4978600Y3936100D01*
X4522579Y3907500D02*
X4950000D01*
X4507700Y3892621D02*
X4522579Y3907500D01*
X4507207Y3756391D02*
X4507700Y3756884D01*
Y3892621D01*
X4507207Y3737217D02*
Y3756391D01*
X4493065Y3723075D02*
X4507207Y3737217D01*
X4458118Y3702500D02*
X4478693Y3723075D01*
X4493065D01*
X4450000Y3702500D02*
X4458118D01*
X4765000Y4410000D02*
X4807500D01*
X3420000Y1660189D02*
Y1717767D01*
X3360859Y1776908D02*
X3420000Y1717767D01*
X3364810Y1605000D02*
X3420000Y1660189D01*
X3298037Y1776908D02*
X3360859D01*
X3279945Y1605000D02*
X3336937D01*
X3364810D01*
X3279945Y1795000D02*
X3298037Y1776908D01*
X3279945Y1448423D02*
Y1599649D01*
Y1448423D02*
X3377500Y1350869D01*
X5103432Y4085000D02*
X5132500D01*
X5230140Y4162359D02*
Y4203141D01*
X5310000Y4283000D01*
X5170282Y4102500D02*
X5230140Y4162359D01*
X5150000Y4102500D02*
X5170282D01*
X5132500Y4085000D02*
X5150000Y4102500D01*
X5310000Y4283000D02*
X5352500D01*
X5005332Y3986900D02*
X5103432Y4085000D01*
X4946900Y3986900D02*
X5005332D01*
X4917900Y3957900D02*
X4946900Y3986900D01*
X4412100Y3957900D02*
X4917900D01*
X4345000Y4025000D02*
X4412100Y3957900D01*
X4192520Y4025000D02*
X4345000D01*
X4178065Y4010545D02*
X4192520Y4025000D01*
X4178065Y3978066D02*
Y4010545D01*
X4160000Y3960000D02*
X4178065Y3978066D01*
X4807500Y4664000D02*
Y4791000D01*
X4839231Y3482663D02*
Y3499231D01*
X4880000Y3540000D01*
X5352500Y4664000D02*
Y4791000D01*
X5316627Y4664000D02*
X5352500D01*
X5299327Y4646700D02*
X5316627Y4664000D01*
X5284448Y4599700D02*
X5299327Y4614579D01*
Y4646700D01*
X5269443Y4599700D02*
X5284448D01*
X5247300Y4577557D02*
X5269443Y4599700D01*
X5247300Y4407300D02*
Y4577557D01*
X5200320Y3885300D02*
X5210205D01*
X5286205Y3961300D01*
X5180000Y3864980D02*
X5200320Y3885300D01*
X5395000Y4537000D02*
X5412300Y4519700D01*
Y4517700D02*
Y4519700D01*
X5352500Y4537000D02*
X5395000D01*
X5180000Y3720000D02*
Y3864980D01*
X3080000Y2747716D02*
X3091716Y2736000D01*
X3080000Y2747716D02*
Y2750784D01*
X3517427Y3547500D02*
X3744690Y3774763D01*
X3305000Y3595918D02*
X3393418Y3507500D01*
X3345000Y3612487D02*
X3409986Y3547500D01*
X3522474Y3507500D02*
X3602500Y3427474D01*
X3393418Y3507500D02*
X3522474D01*
X3010000Y3147500D02*
Y3240000D01*
X2720000Y1850000D02*
X2735000Y1835000D01*
Y1672500D02*
Y1835000D01*
X2709498Y1646997D02*
X2735000Y1672500D01*
X367707Y4189694D02*
Y4197446D01*
Y4189694D02*
X410109Y4147292D01*
X420858D02*
X435000Y4133150D01*
X410109Y4147292D02*
X420858D01*
X817517Y4545299D02*
X983970D01*
X535442Y4263224D02*
X817517Y4545299D01*
X517057Y4263224D02*
X535442D01*
X518874Y4303224D02*
X806349Y4590698D01*
X478833Y4225000D02*
X517057Y4263224D01*
X477500Y4225000D02*
X478833D01*
X454718Y4170000D02*
X520000D01*
X562500Y4212500D01*
X806349Y4590698D02*
X958094D01*
X477942Y4303224D02*
X518874D01*
X422500Y4247781D02*
X477942Y4303224D01*
X422500Y4202218D02*
Y4247781D01*
Y4202218D02*
X454718Y4170000D01*
X435000Y4023777D02*
Y4133150D01*
X310281Y4560281D02*
X698100Y4948100D01*
X1167951Y3917300D02*
X1227784Y3977133D01*
X1201279Y4330600D02*
X1251619D01*
X1335217Y4174783D02*
X1340000Y4170000D01*
X1335217Y4174783D02*
Y4247002D01*
X1251619Y4330600D02*
X1335217Y4247002D01*
X2734980Y2850000D02*
X2829980Y2945000D01*
X3045000Y2817500D02*
X3089719D01*
X2927678Y2797396D02*
X2962573Y2762500D01*
X2927678Y2797396D02*
Y2870104D01*
X2815000Y2826389D02*
Y2872781D01*
X2962573Y2762500D02*
X3068284D01*
X2829980Y2945000D02*
X2909350D01*
X2847219Y2905000D02*
X2892782D01*
X2927678Y2870104D01*
X2909350Y2945000D02*
X2946850Y2907500D01*
X2955000D01*
X3045000Y2817500D01*
X2815000Y2872781D02*
X2847219Y2905000D01*
X2630801Y2913020D02*
X2718284D01*
X2730000Y2924735D02*
Y2990000D01*
X2718284Y2913020D02*
X2730000Y2924735D01*
X2775591Y2406980D02*
X2798611Y2430000D01*
X2940074Y2395000D02*
X3400576D01*
X2041747Y2452500D02*
X2106747Y2387500D01*
X1210000Y3160600D02*
X1247193Y3197793D01*
X1210000Y3050000D02*
Y3160600D01*
X1278750Y3053750D02*
Y3124451D01*
X1275000Y3050000D02*
X1278750Y3053750D01*
X1145000Y3050000D02*
Y3227781D01*
X1550600Y3423272D02*
X1682500Y3555172D01*
X1550600Y3300101D02*
X1726250Y3124451D01*
X1550600Y3300101D02*
Y3423272D01*
X1710000Y3313075D02*
Y3459962D01*
X1727500Y3724350D02*
X1777500Y3674350D01*
X1817500Y3677659D02*
X1879841Y3740000D01*
X1749216Y3176634D02*
X1789872D01*
X1670000Y3255850D02*
Y3485136D01*
X1737500Y3552635D02*
Y3657782D01*
X1710000Y3313075D02*
X1830575Y3192500D01*
X1765000Y3342500D02*
X1817500Y3395000D01*
X1670000Y3255850D02*
X1749216Y3176634D01*
X1710000Y3459962D02*
X1777500Y3527462D01*
X1817500Y3395000D02*
Y3677659D01*
X1682500Y3555172D02*
Y3635000D01*
X1777500Y3527462D02*
Y3674350D01*
X1670000Y3485136D02*
X1737500Y3552635D01*
X1672500Y3722782D02*
X1737500Y3657782D01*
X1879841Y3740000D02*
X2030000D01*
X3901760Y3386760D02*
X3907500Y3392500D01*
X3901760Y3367760D02*
Y3386760D01*
X3845000Y3311000D02*
X3901760Y3367760D01*
X3802500Y3184000D02*
Y3311000D01*
X3845000D01*
X3492500Y3192500D02*
Y3430587D01*
X3458087Y3465000D02*
X3492500Y3430587D01*
X3379349Y3465000D02*
X3458087D01*
X3209350Y3635000D02*
X3265000Y3579350D01*
Y3579350D02*
Y3579350D01*
Y3579350D02*
X3379349Y3465000D01*
X1794532Y3822908D02*
Y3830823D01*
X1830909Y3786530D02*
X1891693D01*
X1794532Y3822908D02*
X1830909Y3786530D01*
X1891693D02*
X1910163Y3805000D01*
X3241608Y5102711D02*
Y5267608D01*
X3374000Y5400000D01*
X3137597Y4998700D02*
X3241608Y5102711D01*
X3027281Y4998700D02*
X3137597D01*
X1339495Y4972100D02*
X3000681D01*
X3027281Y4998700D01*
X958094Y4590698D02*
X1339495Y4972100D01*
X1847500Y3119265D02*
X1860000Y3106765D01*
X1847500Y3119265D02*
Y3121746D01*
X1860000Y3050000D02*
Y3106765D01*
X1816746Y3152500D02*
X1847500Y3121746D01*
X1814007Y3152500D02*
X1816746D01*
X1789872Y3176634D02*
X1814007Y3152500D01*
X2572781Y2855000D02*
X2630801Y2913020D01*
X913750Y3483750D02*
X999725D01*
X1085575Y3569600D01*
X1104045D01*
X1299445Y3765000D01*
X910000Y3480000D02*
X913750Y3483750D01*
X1286016Y2716258D02*
X1286016D01*
X1240374Y2761900D02*
X1286016Y2716258D01*
X1105699Y2888600D02*
X1232399Y2761900D01*
X1240374D01*
X3495048Y4882400D02*
X3826336D01*
X4101300Y4666280D02*
X4155020Y4720000D01*
X4101300Y4641023D02*
Y4666280D01*
X4063100Y4602824D02*
X4101300Y4641023D01*
X4063100Y4533100D02*
Y4602824D01*
X4013100Y4483100D02*
X4063100Y4533100D01*
X3916477Y4483100D02*
X4013100D01*
X4155020Y4720000D02*
X4160000D01*
X1073598Y4176402D02*
X1080000Y4170000D01*
X1035200Y4264800D02*
X1073598Y4226402D01*
X1035200Y4453976D02*
X1373617Y4792393D01*
X1552064D01*
X1073598Y4176402D02*
Y4226402D01*
X1035200Y4264800D02*
Y4453976D01*
X3069033Y4897900D02*
X3479548D01*
X3495048Y4882400D01*
X3874558Y4525019D02*
Y4834178D01*
Y4525019D02*
X3916477Y4483100D01*
X3826336Y4882400D02*
X3874558Y4834178D01*
X4109100Y2507764D02*
Y2699153D01*
X4102000Y2706252D02*
Y2853747D01*
Y2706252D02*
X4109100Y2699153D01*
X4055000Y3290000D02*
X4240000D01*
X3985871Y3220871D02*
X4055000Y3290000D01*
X3985871Y3059812D02*
Y3220871D01*
Y3059812D02*
X4109100Y2936583D01*
X3398263Y2146100D02*
X3492873D01*
X2025179Y2412500D02*
X2090179Y2347500D01*
X2326405D01*
X1352145Y2412500D02*
X2025179D01*
X782781Y2895000D02*
X1189381Y2488400D01*
X1276245D02*
X1352145Y2412500D01*
X1189381Y2488400D02*
X1276245D01*
X3766400Y2165064D02*
X4109100Y2507764D01*
X3492873Y2146100D02*
X3527873Y2111100D01*
X3766400Y2163177D02*
Y2165064D01*
X3527873Y2111100D02*
X3714324D01*
X3766400Y2163177D01*
X910000Y3285000D02*
X1048344D01*
X1163003Y3418538D02*
Y3425195D01*
X1048344Y3285000D02*
X1122172Y3358828D01*
Y3377707D02*
X1163003Y3418538D01*
X1122172Y3358828D02*
Y3377707D01*
X4109100Y2860847D02*
Y2936583D01*
X4102000Y2853747D02*
X4109100Y2860847D01*
X722500Y2920001D02*
X730618D01*
X755618Y2895000D01*
X782781D01*
X1726250Y3053750D02*
Y3124451D01*
Y3053750D02*
X1730000Y3050000D01*
X950600Y5173497D02*
X1051261Y5274158D01*
X2740158D01*
X2866000Y5400000D01*
X2058316Y2492500D02*
X2123316Y2427500D01*
X1046482Y3440882D02*
Y3466302D01*
X1187246Y3543941D02*
X1191952Y3548647D01*
X1046482Y3466302D02*
X1104380Y3524200D01*
X1122850D01*
X1142591Y3543941D01*
X1187246D01*
X910000Y3415000D02*
X1020600D01*
X1046482Y3440882D01*
X907500Y2928549D02*
Y2936112D01*
X1910163Y3805000D02*
X2030000D01*
X2646900Y4526900D02*
X2694700Y4574700D01*
X2434861Y4526900D02*
X2440203Y4532242D01*
X2534560D02*
X2539902Y4526900D01*
X2440203Y4532242D02*
X2534560D01*
X2539902Y4526900D02*
X2646900D01*
X2368909D02*
X2434861D01*
X2694700Y4574700D02*
Y4579680D01*
X2715020Y4600000D01*
X2720000D01*
X1186400Y4345479D02*
Y4386400D01*
Y4345479D02*
X1201279Y4330600D01*
X1186400Y4386400D02*
X1278100Y4478100D01*
X1457212D01*
X1476842Y4497730D01*
X1537449D01*
X1697419Y4657700D01*
X2191722Y4613028D02*
X2282782D01*
X2368909Y4526900D01*
X3400576Y2395000D02*
X3405577Y2400000D01*
X2106747Y2387500D02*
X2309836D01*
X1368713Y2452500D02*
X2041747D01*
X1288213Y2533000D02*
X1368713Y2452500D01*
X1253749Y2533000D02*
X1288213D01*
X1097282Y3452897D02*
X1123185Y3478800D01*
X1097282Y3419840D02*
Y3452897D01*
X3423076Y2417500D02*
X3487500D01*
X1141656Y3478800D02*
X1153803Y3490948D01*
X1249652Y3524748D02*
Y3604052D01*
X910000Y3350000D02*
X1027442D01*
X1097282Y3419840D01*
X3413076Y2407500D02*
X3423076Y2417500D01*
X1153803Y3490948D02*
X1215852D01*
X1249652Y3524748D01*
X1123185Y3478800D02*
X1141656D01*
X1236749Y2550000D02*
X1253749Y2533000D01*
X855663Y2902050D02*
Y2910168D01*
Y2902050D02*
X885884Y2871829D01*
Y2848466D02*
Y2871829D01*
X1211378Y2550000D02*
X1236749D01*
X885884Y2848466D02*
X1024721Y2709628D01*
X1051750D02*
X1211378Y2550000D01*
X1024721Y2709628D02*
X1051750D01*
X831150Y4056851D02*
X1117385D01*
X780600Y4006301D02*
X831150Y4056851D01*
X1117385D02*
X1155055Y4019182D01*
X780600Y3928863D02*
Y4006301D01*
X1155055Y4019182D02*
X1463796D01*
X1499191Y3983788D02*
X1529738D01*
X1539525Y3974000D01*
X1463796Y4019182D02*
X1499191Y3983788D01*
X1916870Y3937900D02*
X2027100D01*
X2030000Y3935000D01*
X1894830Y3959940D02*
X1916870Y3937900D01*
X1894830Y3959940D02*
Y3985382D01*
X1861030Y4019182D02*
X1894830Y3985382D01*
X1798750Y2911250D02*
X1802500Y2907500D01*
X1798750Y2911250D02*
Y3046250D01*
X1795000Y3050000D02*
X1798750Y3046250D01*
X1341100Y43858D02*
X1370858Y14100D01*
X2902739Y5271842D02*
X2987221Y5356324D01*
Y5432118D01*
X2726283Y5171180D02*
X2826945Y5271842D01*
X2902739D01*
X2637180Y5171180D02*
X2726283D01*
X2612000Y5146000D02*
X2637180Y5171180D01*
X2987221Y5432118D02*
X3105103Y5550000D01*
X1976912Y2871716D02*
Y3063369D01*
X1847782Y3192500D02*
X1976912Y3063369D01*
X2480000Y3052500D02*
Y3208475D01*
X1830575Y3192500D02*
X1847782D01*
X1068400Y3935000D02*
X1086100Y3917300D01*
X910000Y3935000D02*
X1068400D01*
X1086100Y3917300D02*
X1167951D01*
X2480000Y3208475D02*
X2582000Y3310475D01*
Y3351500D01*
X3469718Y3137500D02*
X3515282D01*
X3437500Y3169719D02*
X3469718Y3137500D01*
X3437500Y3169719D02*
Y3340962D01*
X3625282Y3145000D02*
X3657500Y3177218D01*
X3522781Y3145000D02*
X3625282D01*
X3657500Y3565179D02*
X3784690Y3692369D01*
X3515282Y3137500D02*
X3522781Y3145000D01*
X3657500Y3177218D02*
Y3565179D01*
X2582000Y3351500D02*
X2709859Y3479359D01*
X2893500D01*
X3009141Y3595000D01*
X3192782D02*
X3225000Y3562782D01*
Y3553462D02*
X3437500Y3340962D01*
X3225000Y3553462D02*
Y3562782D01*
X3009141Y3595000D02*
X3192782D01*
X4142000Y2722821D02*
Y2837179D01*
Y2722821D02*
X4159900Y2704921D01*
X2008610Y2372500D02*
X2073610Y2307500D01*
X2342973D01*
X1335576Y2372500D02*
X2008610D01*
X1099078Y2448400D02*
X1259676D01*
X1335576Y2372500D01*
X3506831Y2060300D02*
X3735365D01*
X3817200Y2144022D02*
X4159900Y2486722D01*
X3817200Y2142135D02*
Y2144022D01*
X3735365Y2060300D02*
X3817200Y2142135D01*
X3471832Y2095300D02*
X3506831Y2060300D01*
X3387135Y2095300D02*
X3471832D01*
X4201802Y2896980D02*
X4226980D01*
X4250000Y2920000D01*
X4159900Y2486722D02*
Y2704921D01*
X4142000Y2837179D02*
X4201802Y2896980D01*
X1031878Y2515600D02*
X1099078Y2448400D01*
X3565000Y3975000D02*
Y4047500D01*
X3535000Y3945000D02*
X3565000Y3975000D01*
X2728467Y3678467D02*
X2733182D01*
X3295000Y4994216D02*
Y5067000D01*
X3374000Y5146000D01*
X3306716Y4982500D02*
X3890000D01*
X3295000Y4994216D02*
X3306716Y4982500D01*
X3890000D02*
X3992800Y4879700D01*
X3964558Y4781722D02*
X3992800Y4809964D01*
Y4879700D01*
X3964558Y4692942D02*
X3965000Y4692500D01*
X3964558Y4692942D02*
Y4781722D01*
X3389342Y3945000D02*
X3535000D01*
X1871548Y4173750D02*
X1958469D01*
X1994718Y4210000D01*
X2000000D01*
X1860000Y4170000D02*
X1867798D01*
X1871548Y4173750D01*
X2497717Y5425180D02*
X2586820D01*
X2612000Y5400000D01*
X2406297Y5516600D02*
X2497717Y5425180D01*
X698100Y4948100D02*
Y5428997D01*
X785703Y5516600D02*
X2406297D01*
X698100Y5428997D02*
X785703Y5516600D01*
X2530800Y3008300D02*
Y3193072D01*
X1361616Y2712500D02*
X1772500D01*
X1160000Y2914116D02*
X1361616Y2712500D01*
X807500Y3501746D02*
X838254Y3532500D01*
X2706980Y3356980D02*
X2730000Y3380000D01*
X2622000Y3297179D02*
X2681802Y3356980D01*
X2706980D01*
X2530800Y3193072D02*
X2622000Y3284272D01*
Y3297179D01*
X853235Y3545000D02*
X910000D01*
X840735Y3532500D02*
X853235Y3545000D01*
X838254Y3532500D02*
X840735D01*
X1027500Y2978254D02*
X1066354Y2939400D01*
X1027500Y2978254D02*
Y3019986D01*
X1160000Y2914116D02*
Y2939400D01*
X1066354D02*
X1160000D01*
X950000Y4154051D02*
Y4300000D01*
X907800Y4111851D02*
X950000Y4154051D01*
X1603750Y4173750D02*
Y4244452D01*
X1690600Y4280600D02*
X1770000Y4360000D01*
X955721Y4305721D02*
Y4445773D01*
X1770000Y4360000D02*
Y4600000D01*
X1603750Y4244452D02*
X1639899Y4280600D01*
X1690600D01*
X1600000Y4170000D02*
X1603750Y4173750D01*
X950000Y4300000D02*
X955721Y4305721D01*
X2460793Y4480991D02*
X2461245Y4481442D01*
X2284427Y4480991D02*
X2460793D01*
X2461245Y4481442D02*
X2513518D01*
X2550481Y4444479D01*
Y4368458D02*
Y4444479D01*
X2670164Y4248775D02*
X2711224D01*
X2550481Y4368458D02*
X2670164Y4248775D01*
X1176212Y4280200D02*
X1234936D01*
X1270200Y4244935D01*
X1136000Y4320412D02*
Y4407276D01*
Y4320412D02*
X1176212Y4280200D01*
X1271250Y4173750D02*
Y4237610D01*
Y4173750D02*
X1275000Y4170000D01*
X1270200Y4238659D02*
X1271250Y4237610D01*
X1270200Y4238659D02*
Y4244935D01*
X1136000Y4407276D02*
X1257624Y4528900D01*
X1436170D01*
X1478224Y4570954D01*
X1513014D02*
X1645160Y4703100D01*
X1478224Y4570954D02*
X1513014D01*
X2262389Y4503028D02*
X2284427Y4480991D01*
X2260000Y4558028D02*
X2262389Y4555639D01*
X2225000Y4668987D02*
X2288565D01*
X2201886Y4692100D02*
X2225000Y4668987D01*
X2262389Y4503028D02*
Y4555639D01*
X2288565Y4668987D02*
X2290000Y4667552D01*
X3068284Y2762500D02*
X3080000Y2750784D01*
X3597500Y2828743D02*
Y2868150D01*
X3610000Y2880650D01*
Y3073150D01*
X3822547Y3385329D02*
X3986735Y3549517D01*
Y3706081D01*
X3734890Y3385329D02*
X3822547D01*
X4143245Y3803245D02*
X4160000Y3820000D01*
X4083900Y3803245D02*
X4143245D01*
X3986735Y3706081D02*
X4083900Y3803245D01*
X3697500Y3347938D02*
X3734890Y3385329D01*
X3610000Y3073150D02*
X3697500Y3160650D01*
Y3347938D01*
X849485Y3866250D02*
X890000D01*
X838254Y3857500D02*
X840735D01*
X849485Y3866250D01*
X692500Y3711746D02*
X838254Y3857500D01*
X1992042Y2332500D02*
X2057042Y2267500D01*
X2359541D01*
X1319008Y2332500D02*
X1992042D01*
X1253908Y2397600D02*
X1319008Y2332500D01*
X1067298Y2397600D02*
X1253908D01*
X3288993Y2121600D02*
X3366093Y2044500D01*
X3450790D01*
X3485790Y2009500D01*
X3756407D02*
X3868000Y2121093D01*
X3485790Y2009500D02*
X3756407D01*
X3868000Y2121093D02*
Y2122980D01*
X4255020Y2510000D01*
X4260000D01*
X2742353Y2121600D02*
X3288993D01*
X844029Y2465200D02*
X999698D01*
X1067298Y2397600D01*
X2265782Y3999400D02*
X2345581Y4079200D01*
X3102739Y5146000D02*
X3120000D01*
X1157297Y4887930D02*
X1162004Y4892637D01*
X1188605D01*
X2030000Y3870000D02*
X2033750Y3873750D01*
X2097609D02*
X2098259Y3874400D01*
X2105101D02*
X2140600Y3909899D01*
X2098259Y3874400D02*
X2105101D01*
X2033750Y3873750D02*
X2097609D01*
X1188605Y4892637D02*
X1318468Y5022500D01*
X2979239D01*
X3102739Y5146000D01*
X2345581Y4079200D02*
Y4159419D01*
X2342500Y4162500D02*
X2345581Y4159419D01*
X2259518Y4420000D02*
X2367500D01*
X2155479Y3999400D02*
X2265782D01*
X2140600Y3984521D02*
X2155479Y3999400D01*
X2140600Y3909899D02*
Y3984521D01*
X2085000Y4182218D02*
Y4259719D01*
X2044373Y4150000D02*
X2052782D01*
X1958955Y4064582D02*
X2044373Y4150000D01*
X2052782D02*
X2085000Y4182218D01*
X2252696Y4377891D02*
X2265787Y4364800D01*
X2725020Y4000000D02*
X2730000D01*
X1517996Y4029188D02*
X1548543D01*
X1558330Y4019400D01*
X1482602Y4064582D02*
X1517996Y4029188D01*
X1244717Y4064582D02*
X1482602D01*
X1213750Y4095548D02*
X1244717Y4064582D01*
X1210000Y4170000D02*
X1213750Y4166250D01*
Y4095548D02*
Y4166250D01*
X2667700Y4057320D02*
X2725020Y4000000D01*
X2265787Y4364800D02*
X2398600D01*
X2667700Y4095700D01*
Y4057320D02*
Y4095700D01*
X2245059Y4377891D02*
X2252696D01*
X3359000Y3831734D02*
X3391734D01*
X3410000Y3850000D01*
X1141250Y4173750D02*
X1145000Y4170000D01*
X1140200Y4238659D02*
X1141250Y4237610D01*
X1140200Y4238659D02*
Y4244935D01*
X1141250Y4173750D02*
Y4237610D01*
X1085600Y4299536D02*
X1140200Y4244935D01*
X1085600Y4433100D02*
X1274254Y4621754D01*
X1491972D01*
X1085600Y4299536D02*
Y4433100D01*
X3267513Y3740247D02*
X3359000Y3831734D01*
X3815727Y4820600D02*
X3816293D01*
X3832700Y4495036D02*
Y4804194D01*
X3816293Y4820600D02*
X3832700Y4804194D01*
X4059116Y4229766D02*
X4065000Y4223882D01*
X3345000Y3612487D02*
Y3612487D01*
X3267513Y3689974D02*
Y3740247D01*
Y3689974D02*
X3345000Y3612487D01*
X4059116Y4229766D02*
Y4268620D01*
X3832700Y4495036D02*
X4059116Y4268620D01*
X5250815Y3640000D02*
X5265199Y3654384D01*
Y3862699D01*
X1080145Y3627300D02*
Y3633957D01*
X1118151Y3671962D01*
Y3709094D01*
X1167652Y3758596D01*
X1063288Y3850579D02*
X1096712D01*
X1167652Y3758596D02*
Y3779638D01*
X910000Y3805000D02*
X1017709D01*
X1096712Y3850579D02*
X1167652Y3779638D01*
X1017709Y3805000D02*
X1063288Y3850579D01*
X4986719Y3808100D02*
X4993080D01*
X4964400Y3785782D02*
X4986719Y3808100D01*
X4993080D02*
X5040000Y3855020D01*
Y3860000D01*
X4607685Y4886000D02*
X4680785Y4959100D01*
X4975079Y4918236D02*
X5009868Y4883447D01*
X4975079Y4918236D02*
Y4918236D01*
X4312987Y4886000D02*
X4607685D01*
X4310434Y4883447D02*
X4312987Y4886000D01*
X4680785Y4959100D02*
X4934215D01*
X4975079Y4918236D01*
X5412881Y4883447D02*
X5463390Y4832938D01*
X4203947Y4883447D02*
X4310434D01*
X5009868D02*
X5412881D01*
X5463390Y4799744D02*
Y4832938D01*
X3949579Y4533900D02*
X3979200D01*
X3994079Y4548779D02*
Y4605079D01*
X3979200Y4533900D02*
X3994079Y4548779D01*
X1360371Y4921700D02*
X3021557D01*
X983970Y4545299D02*
X1360371Y4921700D01*
X3506224Y4942500D02*
X3515924Y4932800D01*
X3021557Y4921700D02*
X3042357Y4942500D01*
X3506224D01*
X3994079Y4605079D02*
X4050900Y4661900D01*
Y4730400D01*
X4203947Y4883447D01*
X3832504Y4932800D02*
X3914558Y4850746D01*
Y4568921D02*
Y4850746D01*
Y4568921D02*
X3949579Y4533900D01*
X3515924Y4932800D02*
X3832504D01*
X1975474Y2292500D02*
X2040473Y2227500D01*
X2376110D01*
X1302439Y2292500D02*
X1975474D01*
X1257440Y2337500D02*
X1302439Y2292500D01*
X1090281Y2337500D02*
X1257440D01*
X1070181Y2357600D02*
X1090281Y2337500D01*
X3348660Y1990092D02*
X3433356D01*
X3464748Y1958700D01*
X3777449D01*
X3918800Y2100051D01*
Y2101938D01*
X4739999Y2455020D02*
Y2460000D01*
X3266251Y2072500D02*
X3348660Y1990092D01*
X2724350Y2072500D02*
X3266251D01*
X992378Y2415951D02*
X1050729Y2357600D01*
X1070181D01*
X920687Y2408240D02*
X928398Y2415951D01*
X870000Y2402500D02*
X875740Y2408240D01*
X920687D01*
X928398Y2415951D02*
X992378D01*
X2622624Y4646574D02*
X2626049Y4650000D01*
X2510291Y4643149D02*
X2513716Y4646574D01*
X2622624D01*
X3945000Y478079D02*
X4230579Y192500D01*
X3945000Y478079D02*
Y1734704D01*
X4908100Y2789221D02*
X4976704Y2857825D01*
X5167915Y2993915D02*
X5291000Y3117000D01*
X5201525Y2857825D02*
X5206700Y2863000D01*
X5342500D01*
X4976704Y2857825D02*
X5201525D01*
X5167915Y2958565D02*
Y2993915D01*
X5162175Y2952825D02*
X5167915Y2958565D01*
X5291000Y3117000D02*
X5342500D01*
X5447700Y2792700D02*
X5492500Y2837500D01*
X5447700Y2568443D02*
Y2792700D01*
X5186003Y3203096D02*
Y3278756D01*
X5231900Y3159794D02*
X5249103Y3176997D01*
X5212139Y3139996D02*
X5231900Y3159756D01*
X5159866Y3139996D02*
X5212139D01*
X5231900Y3159756D02*
Y3159794D01*
X5179962Y2729036D02*
X5186618D01*
X5165083Y2714157D02*
X5179962Y2729036D01*
X4908100Y2566206D02*
Y2789221D01*
X4152500Y377500D02*
Y445566D01*
X4187218Y480284D01*
X4232781D01*
X4342781Y370285D01*
X4230579Y192500D02*
X5173158D01*
X3243181Y3071318D02*
X3257500Y3057000D01*
X3010000Y3240000D02*
Y3250000D01*
X3104718Y2802500D02*
X3257000D01*
X3089719Y2817500D02*
X3104718Y2802500D01*
X3383475Y2572475D02*
Y2590358D01*
X3417500Y2624382D01*
X3360000Y2549000D02*
X3383475Y2572475D01*
X3417500Y2624382D02*
Y2632500D01*
X3802500Y2676000D02*
X3915882D01*
X3944382Y2647500D02*
X3952500D01*
X3915882Y2676000D02*
X3944382Y2647500D01*
X3945871Y3027970D02*
X4058300Y2915542D01*
X3845000Y3057000D02*
X4007500Y2894500D01*
X4058300Y2528806D02*
Y2915542D01*
X4007500Y2600606D02*
Y2894500D01*
X3715600Y2186106D02*
X4058300Y2528806D01*
X3824394Y2417500D02*
X4007500Y2600606D01*
X4500000Y2770000D02*
X4520000D01*
X4490000Y2780000D02*
X4500000Y2770000D01*
X4250000Y2780000D02*
X4490000D01*
X4702000Y2915000D02*
X4754000Y2863000D01*
X4579926Y2822500D02*
X4597500Y2840074D01*
X4686184Y2801760D02*
Y2818198D01*
X4652500Y2851882D02*
X4686184Y2818198D01*
X4754000Y2863000D02*
X4797500D01*
X4597500Y2882782D02*
X4629718Y2915000D01*
X4597500Y2840074D02*
Y2882782D01*
X4520000Y2770000D02*
X4572500Y2822500D01*
X4686184Y2801760D02*
X4688240D01*
X4652500Y2851882D02*
Y2860000D01*
X4629718Y2915000D02*
X4702000D01*
X4572500Y2822500D02*
X4579926D01*
X4688240Y2801760D02*
X4754000Y2736000D01*
X4730000Y1965500D02*
X4782000Y2017500D01*
X4342781Y370285D02*
X4700254D01*
X4730000Y400030D01*
Y1965500D01*
X4782000Y2017500D02*
X5115282D01*
X4608289Y2141710D02*
X4700000Y2050000D01*
X5160000Y1240000D02*
Y1813776D01*
X5153332Y2176950D02*
X5367100Y2390718D01*
X5153332Y2055550D02*
Y2176950D01*
X5115282Y2017500D02*
X5153332Y2055550D01*
X5220000Y2153118D02*
X5385642Y2318760D01*
X5220000Y2067500D02*
Y2153118D01*
X5385642Y2318760D02*
Y2346545D01*
X5367100Y2390718D02*
Y2529281D01*
X5385642Y2346545D02*
X5412500Y2373403D01*
X5056760Y2465740D02*
X5062500Y2460000D01*
X5056760Y2465740D02*
Y2483240D01*
X4880000Y2367500D02*
X4922500Y2325000D01*
X5115784D01*
X4972500Y3327361D02*
Y3405962D01*
X5249103Y3176997D02*
Y3193103D01*
X5300000Y3244000D01*
X4957276Y3421187D02*
X4972500Y3405962D01*
Y3327361D02*
X5159866Y3139996D01*
X5300000Y3244000D02*
X5342500D01*
X5198815Y3291569D02*
Y3380708D01*
X5325607Y3507500D01*
X5186003Y3278756D02*
X5198815Y3291569D01*
X4880999Y3616782D02*
X4957276Y3540506D01*
Y3421187D02*
Y3540506D01*
X5325607Y3507500D02*
X5420282D01*
X435000Y4023777D02*
X464400Y3994377D01*
Y3937529D02*
Y3994377D01*
X2899378Y627160D02*
X2982308D01*
X2250000Y877700D02*
X2469600Y658100D01*
X2624035D02*
X2632135Y650000D01*
X2469600Y658100D02*
X2624035D01*
X2632135Y650000D02*
X2632426D01*
X2271721Y115700D02*
X2726618D01*
X2264400Y207379D02*
X2309279Y162500D01*
X3115118Y504200D02*
X3286664D01*
X2726618Y115700D02*
X3115118Y504200D01*
X4754000Y2736000D02*
X4797500D01*
X4452500Y3475000D02*
X4652982D01*
X4700200Y3427782D01*
Y3424800D02*
Y3427782D01*
Y3424800D02*
X4750000Y3375000D01*
X4417500Y3385000D02*
Y3440000D01*
X4452500Y3475000D01*
X4750000Y3375000D02*
X4792500D01*
X3945871Y3238371D02*
X4092500Y3385000D01*
X4417500D01*
X3945871Y3027970D02*
Y3238371D01*
X5412500Y2373403D02*
Y2525606D01*
X5115784Y2325000D02*
X5127500Y2336716D01*
Y2432500D01*
X5342500Y2609000D02*
Y2736000D01*
Y2553882D02*
X5367100Y2529281D01*
X5342500Y2553882D02*
Y2609000D01*
X5412500Y2525606D02*
X5445000Y2558106D01*
X3429219Y2196900D02*
X3513915D01*
X4229505Y4641941D02*
Y4697286D01*
X4342819Y4810600D01*
X4638917D01*
X3621156Y4623656D02*
Y4702156D01*
X3507500Y4510000D02*
X3621156Y4623656D01*
X3474932Y4726100D02*
X3505000Y4696032D01*
Y4607500D02*
Y4696032D01*
X3415004Y4015622D02*
X3435000Y4035618D01*
X3415004Y4007504D02*
Y4015622D01*
X2023905Y2187501D02*
X2392678D01*
X1973905Y2237500D02*
X2023905Y2187501D01*
X1500000Y2237500D02*
X1973905D01*
X2982250Y4724750D02*
X3019750Y4687250D01*
X3029676D01*
X3075000Y4641926D01*
Y4567000D02*
Y4641926D01*
Y4567000D02*
X3135000Y4507000D01*
X3177500D01*
X2950573Y4756427D02*
X2982250Y4724750D01*
X2749745Y4756427D02*
X2950573D01*
X2717480Y4382500D02*
X2738000Y4361980D01*
X2748284D01*
X2760000Y4135179D02*
Y4186390D01*
X2748284Y4361980D02*
X2778000Y4332265D01*
X2717480Y4382500D02*
Y4388705D01*
X2760000Y4186390D02*
X2778000Y4204389D01*
Y4332265D01*
X2760000Y4135179D02*
X2822679Y4072500D01*
X2968316D01*
X3117700Y4221884D01*
X2622300Y3706852D02*
Y4076895D01*
Y3706852D02*
X2761852Y3567300D01*
X3320000Y4034350D02*
Y4046850D01*
X3419350Y4085000D02*
X3532450Y4198100D01*
X3414719Y4085000D02*
X3419350D01*
X3365000Y4035281D02*
X3414719Y4085000D01*
X3532450Y4198100D02*
X3596093D01*
X3590781Y4313000D02*
X3804438D01*
X3365000Y4030650D02*
Y4035281D01*
X3360000Y4025650D02*
X3365000Y4030650D01*
X3402782Y4125000D02*
X3590781Y4313000D01*
X3360000Y4017781D02*
Y4025650D01*
X3398150Y4125000D02*
X3402782D01*
X3320000Y4046850D02*
X3398150Y4125000D01*
X3207219Y3865000D02*
X3360000Y4017781D01*
X3513260Y4118541D02*
X3573103D01*
X3435000Y4040281D02*
X3513260Y4118541D01*
X3435000Y4035618D02*
Y4040281D01*
X3285150Y3999500D02*
X3320000Y4034350D01*
X3178000Y3999500D02*
X3285150D01*
X2990000Y3865000D02*
X3207219D01*
X3177500Y3999000D02*
X3178000Y3999500D01*
X3702500Y4233000D02*
X3722500Y4253000D01*
X3596093Y4198100D02*
X3630993Y4233000D01*
X3702500D01*
X3257500Y2549000D02*
X3360000D01*
X3450000Y2955000D02*
Y3044082D01*
X3400000Y2905000D02*
X3450000Y2955000D01*
X3397500Y3153150D02*
X3570000Y2980650D01*
X3377082Y3117000D02*
X3450000Y3044082D01*
X3305000Y3595918D02*
Y3595918D01*
X3602500Y3200000D02*
Y3427474D01*
X3339439Y3371000D02*
X3397500Y3312938D01*
Y3153150D02*
Y3312938D01*
X3283000Y3117000D02*
X3377082D01*
X3640561Y4186000D02*
X3797438D01*
X3825000Y4213561D02*
Y4292438D01*
X3797438Y4186000D02*
X3825000Y4213561D01*
X3804438Y4313000D02*
X3825000Y4292438D01*
X3573103Y4118541D02*
X3640561Y4186000D01*
X3825000Y4128118D02*
X3856882Y4160000D01*
X3724618Y4128118D02*
X3825000D01*
X3722500Y4126000D02*
X3724618Y4128118D01*
X3791538Y3926100D02*
X3943829Y4078390D01*
X3621120Y3926100D02*
X3791538D01*
X3994911Y4222129D02*
X4025000Y4192040D01*
X3994911Y4222129D02*
Y4260983D01*
X3856882Y4160000D02*
X3865000D01*
X3782300Y4473594D02*
X3994911Y4260983D01*
X3314400Y1047027D02*
Y1338381D01*
X3323963Y862192D02*
X3492259D01*
X3264284Y3135716D02*
X3283000Y3117000D01*
X4240000Y3150000D02*
X4500000D01*
X4500000Y3150000D01*
X2730000Y2850000D02*
X2734980D01*
X3257000Y2802500D02*
X3257500Y2803000D01*
X464400Y3937529D02*
X484879Y3917050D01*
X578886D01*
X812071Y2287929D02*
X900000Y2200000D01*
X2392900Y1885000D02*
X2397500Y1880400D01*
Y1699410D02*
Y1880400D01*
X2850000Y1847500D02*
X3121011Y1576489D01*
Y1531770D02*
Y1576489D01*
Y1531770D02*
X3314400Y1338381D01*
X3264284Y3135716D02*
Y3177216D01*
X3257500Y3184000D02*
X3264284Y3177216D01*
X3257500Y3184000D02*
Y3311000D01*
X4942700Y4809194D02*
Y4843983D01*
X3722500Y3999000D02*
Y4126000D01*
X4638917Y4810600D02*
X4712016Y4883700D01*
X4902983D01*
X4942700Y4843983D01*
X3117700Y4221884D02*
Y4235700D01*
X3135000Y4253000D01*
X3177500D01*
X2980000Y4365000D02*
X3008791Y4336209D01*
X3051790D02*
X3135000Y4253000D01*
X3008791Y4336209D02*
X3051790D01*
X3765000Y4507000D02*
X3782300Y4489700D01*
X3722500Y4507000D02*
X3765000D01*
X3550000Y3854980D02*
X3621120Y3926100D01*
X3550000Y3720000D02*
Y3854980D01*
X3540000Y3710000D02*
X3550000Y3720000D01*
X3782300Y4473594D02*
Y4489700D01*
X3177500Y4634000D02*
Y4761000D01*
X3402343D01*
X3437243Y4726100D01*
X3474932D01*
X3722500Y4634000D02*
Y4761000D01*
X3621156Y4702156D02*
X3680000Y4761000D01*
X3722500D01*
X2730000Y3860000D02*
X2985000D01*
X2990000Y3865000D01*
X4584800Y2414800D02*
X4710900Y2540900D01*
X4544800Y2414800D02*
X4584800D01*
X4710900Y2540900D02*
X4882794D01*
X3802500Y2549000D02*
Y2676000D01*
X3234409Y2032500D02*
X3327618Y1939292D01*
X2707781Y2032500D02*
X3234409D01*
X5445000Y2558106D02*
Y2565743D01*
X5447700Y2568443D01*
X2686810Y1631428D02*
X2702379Y1646997D01*
X2709498D01*
X5437835Y372835D02*
X5442165D01*
X5129900Y64900D02*
X5437835Y372835D01*
X1186900Y365600D02*
X1391900Y160600D01*
Y79779D02*
X1406779Y64900D01*
X5129900D01*
X1391900Y79779D02*
Y160600D01*
X1186900Y365600D02*
Y930781D01*
X3327618Y1939292D02*
X3412314D01*
X1702700Y1547300D02*
X1750000Y1500000D01*
X1505000Y1538882D02*
Y1820000D01*
X2686810Y1331473D02*
Y1631428D01*
Y1331473D02*
X2687500Y1330783D01*
X2250000Y877700D02*
X2360000D01*
X3548915Y2161900D02*
X3693282D01*
X3513915Y2196900D02*
X3548915Y2161900D01*
X3715600Y2184218D02*
Y2186106D01*
X3693282Y2161900D02*
X3715600Y2184218D01*
X4797500Y3244000D02*
Y3371000D01*
X5127500Y2432500D02*
X5155000Y2460000D01*
Y2714157D02*
X5165083D01*
X5155000Y2460000D02*
Y2714157D01*
X4880000Y2367500D02*
Y2460000D01*
X4500000Y3150000D02*
X4533000Y3117000D01*
X4797500D01*
X5342500Y3244000D02*
Y3371000D01*
X4797500Y2609000D02*
Y2736000D01*
X4882794Y2540900D02*
X4908100Y2566206D01*
X4500000Y2370000D02*
X4544800Y2414800D01*
X3627500Y2417500D02*
X3824394D01*
X3630000Y2250000D02*
Y2400000D01*
X2730000Y3240000D02*
X3000000D01*
X3802500Y3057000D02*
X3845000D01*
X3630000Y2250000D02*
X3630000Y2250000D01*
X3177500Y3999000D02*
Y4126000D01*
X616836Y3955000D02*
X717500D01*
X3493535Y729321D02*
Y789073D01*
X578886Y3917050D02*
X616836Y3955000D01*
X3257500Y2549000D02*
Y2676000D01*
X2850000Y1847500D02*
Y1850000D01*
X2157608Y229813D02*
X2271721Y115700D01*
X1810000Y250000D02*
Y270000D01*
Y663883D01*
X2264400Y207379D02*
Y307883D01*
X3286664Y504200D02*
X3302256Y488608D01*
X2218693Y353590D02*
X2264400Y307883D01*
X2157608Y229813D02*
Y250000D01*
X3492259Y862192D02*
X3544335Y810115D01*
X3471217Y811392D02*
X3493535Y789073D01*
X3462265Y488608D02*
X3493535Y519879D01*
X3302256Y488608D02*
X3462265D01*
X3493535Y519879D02*
Y583608D01*
X2056141Y353590D02*
X2218693D01*
X2039851Y337300D02*
X2056141Y353590D01*
X1877300Y337300D02*
X2039851D01*
X1810000Y270000D02*
X1877300Y337300D01*
X1710000Y500000D02*
Y869500D01*
X1750000Y909500D01*
Y1012540D01*
X1613100Y1149440D02*
X1750000Y1012540D01*
X1613100Y1149440D02*
Y1430782D01*
X1505000Y1538882D02*
X1613100Y1430782D01*
X1832500Y1770000D02*
X2045000D01*
X1762500Y1700000D02*
X1832500Y1770000D01*
X1750000Y1084382D02*
Y1290500D01*
Y1084382D02*
X1849100Y985282D01*
Y702983D02*
Y985282D01*
X1810000Y663883D02*
X1849100Y702983D01*
X1810000Y250000D02*
X2002392D01*
X3544335Y775471D02*
X3574806Y745000D01*
X3572856Y650000D02*
X3621550D01*
X3493535Y729321D02*
X3572856Y650000D01*
X3574806Y745000D02*
X3621550D01*
X3544335Y775471D02*
Y810115D01*
X2790000Y1100000D02*
Y1392392D01*
X4260000Y2370000D02*
X4500000D01*
X1750000Y1290500D02*
Y1500000D01*
X3427144Y650000D02*
X3493535Y583608D01*
X3378450Y650000D02*
X3427144D01*
X1750000Y1700000D02*
X1762500D01*
D41*
X1457433Y3229933D02*
Y3541533D01*
X567500Y3642493D02*
X582493Y3657486D01*
Y3747493D01*
X567500Y2743226D02*
Y3642493D01*
Y2743226D02*
X667500Y2643226D01*
X6242700Y2531742D02*
Y3330285D01*
X6235000Y3337985D02*
Y4060000D01*
Y3337985D02*
X6242700Y3330285D01*
X6197533Y2486574D02*
X6242700Y2531742D01*
X667500Y532500D02*
X950000Y250000D01*
X667500Y532500D02*
Y2643226D01*
X3148980Y2996020D02*
X3215000Y2930000D01*
X3105000Y3001760D02*
X3110740Y2996020D01*
X3148980D01*
X4348371Y2277145D02*
X4402219D01*
X4022300Y1951074D02*
X4348371Y2277145D01*
X4022300Y1594752D02*
Y1951074D01*
X4426863Y2252500D02*
X4426923D01*
X4402219Y2277145D02*
X4426863Y2252500D01*
X4426923D02*
X4452510Y2226913D01*
X1625000Y1623432D02*
X1648432Y1600000D01*
X1839068D01*
X1625000Y1623432D02*
Y1909592D01*
X1581492Y1953100D02*
X1625000Y1909592D01*
X3132911Y1020520D02*
Y1139284D01*
X3232911Y979100D02*
Y1007964D01*
X3094910Y1177285D02*
X3132911Y1139284D01*
X3072813Y1177285D02*
X3094910D01*
X3050000Y1200098D02*
X3072813Y1177285D01*
X3220000Y966189D02*
X3232911Y979100D01*
Y1007964D02*
X3245000Y1020053D01*
X3086629Y901347D02*
Y974238D01*
X3220000Y794719D02*
Y966189D01*
X3086629Y974238D02*
X3132911Y1020520D01*
X1515000Y3599100D02*
Y3869556D01*
X1491569Y3892988D02*
X1515000Y3869556D01*
X1425130Y3892988D02*
X1491569D01*
X1457433Y3541533D02*
X1515000Y3599100D01*
X1862500Y1573316D02*
X1891450Y1544366D01*
X1862500Y1573316D02*
Y1576569D01*
X1839068Y1600000D02*
X1862500Y1576569D01*
X1948432Y1132700D02*
X2551568D01*
X2575000Y1156132D01*
X1925000D02*
X1948432Y1132700D01*
X2575000Y1156132D02*
Y1262500D01*
X2620000Y1307500D01*
X1891450Y1192934D02*
X1925000Y1159384D01*
Y1156132D02*
Y1159384D01*
X3062782Y877500D02*
X3086629Y901347D01*
X2934719Y877500D02*
X3062782D01*
X2890000Y922219D02*
X2934719Y877500D01*
X2713431Y990000D02*
X2866569D01*
X2690000Y966569D02*
X2713431Y990000D01*
X2914106Y1082929D02*
X2952086Y1044949D01*
Y979842D02*
X2953999Y977929D01*
X2890000Y922219D02*
Y966569D01*
X2914106Y1082929D02*
Y1524106D01*
X2952086Y979842D02*
Y1044949D01*
X2695000Y785281D02*
X2757500Y722781D01*
X2866569Y990000D02*
X2890000Y966569D01*
X2690000Y813431D02*
Y966569D01*
X2695000Y785281D02*
Y808431D01*
X2690000Y813431D02*
X2695000Y808431D01*
X2757500Y665399D02*
X2780931Y641967D01*
X2757500Y665399D02*
Y722781D01*
X2780931Y641967D02*
X2823050D01*
X3005399Y528609D02*
Y560193D01*
X3188470Y620000D02*
X3297161Y728691D01*
X3005399Y560193D02*
X3062500Y617294D01*
Y620000D01*
X2689290Y212500D02*
X3005399Y528609D01*
X3150281Y725000D02*
X3220000Y794719D01*
X3060587Y620000D02*
X3188470D01*
X2906083Y725000D02*
X3150281D01*
X2823050Y641967D02*
X2906083Y725000D01*
X3245000Y1020053D02*
Y1243492D01*
X3241882Y1246609D02*
X3245000Y1243492D01*
X3241882Y1246609D02*
Y1325000D01*
X2001392Y3350957D02*
X2002348Y3350000D01*
X1955655Y3350957D02*
X2001392D01*
X1917500Y3389112D02*
X1955655Y3350957D01*
X1917500Y3389112D02*
Y3440888D01*
X1955655Y3479044D01*
X2029043D01*
X2030000Y3480000D01*
X1955655Y3674043D02*
X2029043D01*
X1917500Y3635888D02*
X1955655Y3674043D01*
X1917500Y3584112D02*
Y3635888D01*
Y3584112D02*
X1955655Y3545957D01*
X2029043D01*
X2030000Y3545000D01*
X2242344Y3547500D02*
X2250000Y3555156D01*
X2083853Y3547500D02*
X2242344D01*
X2030000Y3545000D02*
X2081353D01*
X2083853Y3547500D01*
X2255000Y3917500D02*
X2297500Y3875000D01*
X2319069D02*
X2342500Y3851568D01*
X2312427Y3693358D02*
X2342500Y3723431D01*
X2274695Y3555156D02*
X2312427Y3592888D01*
Y3693358D01*
X2297500Y3875000D02*
X2319069D01*
X2342500Y3723431D02*
Y3851568D01*
X2633157Y3050409D02*
Y3150451D01*
X2628198Y2985136D02*
Y3045451D01*
X2633157Y3050409D01*
X3637500Y1827500D02*
X3712500D01*
X3609130Y1799130D02*
X3637500Y1827500D01*
X3469620Y1799130D02*
X3609130D01*
X3465491Y1795000D02*
X3469620Y1799130D01*
X3692913Y1351455D02*
X3726455D01*
X3792282Y1747913D02*
X3838393D01*
X3867500Y1393763D02*
Y1718806D01*
X3770098Y1770098D02*
X3792282Y1747913D01*
X3838393D02*
X3867500Y1718806D01*
X3726455Y1351455D02*
X3767500Y1392500D01*
X3867500Y1393763D02*
X3885000Y1376263D01*
X3821969Y850182D02*
X3850329Y821821D01*
X3547695Y958268D02*
Y977089D01*
X3514784Y1010000D02*
X3547695Y977089D01*
X3552305Y940521D02*
X3575737Y917089D01*
X3739479D01*
X3742256Y850182D02*
X3821969D01*
X3552305Y940521D02*
Y953657D01*
X3762911Y942911D02*
X3885000Y1065000D01*
X3547695Y958268D02*
X3552305Y953657D01*
X3740343Y852095D02*
X3742256Y850182D01*
X3739479Y917089D02*
X3762911Y940521D01*
X3885000Y1065000D02*
Y1376263D01*
X3762911Y940521D02*
Y942911D01*
X4115773Y4033020D02*
X4220551Y4137798D01*
X4110267Y4033020D02*
X4115773D01*
X4082000Y4004500D02*
Y4004753D01*
X4110267Y4033020D01*
X3920154Y3842654D02*
X4082000Y4004500D01*
X4220551Y4137798D02*
X4301387D01*
X3920154Y3697732D02*
Y3842654D01*
X4423986Y3003807D02*
Y3021014D01*
X4355000Y3090000D02*
X4423986Y3021014D01*
Y3003807D02*
X4430000Y2997793D01*
X4405000Y2877914D02*
X4427500Y2900414D01*
X4405000Y2875208D02*
Y2877914D01*
X4427500Y2900414D02*
Y2964068D01*
X4430000Y2966568D02*
Y2997793D01*
X4427500Y2964068D02*
X4430000Y2966568D01*
X4452510Y2226913D02*
X4518087D01*
X4520000Y2225000D01*
X2890000Y4425815D02*
Y4429069D01*
X2930931Y4470000D01*
X3045000D01*
X2867364Y4403179D02*
X2890000Y4425815D01*
X3045000Y4470000D02*
X3135000Y4380000D01*
X2434719Y2685400D02*
Y2791657D01*
X2429525Y2680206D02*
X2434719Y2685400D01*
X2429525Y2677500D02*
Y2680206D01*
X2808000Y2640611D02*
Y2654753D01*
X2652000Y2640611D02*
Y2654753D01*
X2808000Y2640611D02*
X2837500Y2611111D01*
X2779733Y2683020D02*
X2808000Y2654753D01*
X2508889Y2497500D02*
X2652000Y2640611D01*
Y2654753D02*
X2680267Y2683020D01*
X2779733D01*
X2452100Y259124D02*
X2498723Y212500D01*
X2689290D01*
X2919999Y1529999D02*
X2960521Y1489478D01*
X3030620D01*
X3040000Y1480098D01*
X3712500Y1827500D02*
X3769902Y1770098D01*
X3240954Y1952500D02*
X3317262Y1876192D01*
X3082500Y1952500D02*
X3240954D01*
X4301387Y4137798D02*
X4301846Y4137339D01*
X2785000Y1552608D02*
Y1755000D01*
Y1552608D02*
X2790000Y1547608D01*
X2597292Y1652292D02*
X2685000Y1740000D01*
X2554592Y1652292D02*
X2597292D01*
X2470711Y1568411D02*
X2554592Y1652292D01*
X2837500Y2525000D02*
Y2611111D01*
X4087500Y450000D02*
Y1529552D01*
X4022300Y1594752D02*
X4087500Y1529552D01*
X3850329Y350329D02*
Y821821D01*
X3850000Y350000D02*
X3850329Y350329D01*
X4240000Y375000D02*
X4315000Y300000D01*
X5195000D01*
X4610800Y4255800D02*
X4765000Y4410000D01*
X4610800Y4180000D02*
Y4255800D01*
X4430000Y2997793D02*
X4789707D01*
X3872422Y3650000D02*
X3920154Y3697732D01*
X3872422Y3639609D02*
Y3650000D01*
X3824690Y3591877D02*
X3872422Y3639609D01*
X3807500Y3503118D02*
X3824690Y3520308D01*
Y3591877D01*
X3807500Y3495000D02*
Y3503118D01*
X4375000Y2657501D02*
Y2665619D01*
X4360000Y2642501D02*
X4375000Y2657501D01*
X4360000Y2555619D02*
Y2642501D01*
X4286359Y3021359D02*
X4355000Y3090000D01*
X4121141Y3021359D02*
X4286359D01*
X4050000Y3092500D02*
X4121141Y3021359D01*
X5195000Y300000D02*
X5395000Y500000D01*
X3375158Y741708D02*
X3378450Y745000D01*
X3310192Y741708D02*
X3375158D01*
X3297161Y728691D02*
X3297175D01*
X3310192Y741708D01*
X3135000Y4380000D02*
X3177500D01*
X2867364Y4235523D02*
Y4403179D01*
Y4235523D02*
X2872500Y4230387D01*
X2637500Y3503180D02*
Y3613871D01*
X2625784Y3491464D02*
X2637500Y3503180D01*
X2484159Y3518340D02*
Y3887965D01*
X2575837Y3491464D02*
X2625784D01*
X2559493Y3475121D02*
X2575837Y3491464D01*
X2484159Y3518340D02*
X2527379Y3475121D01*
X2559493D01*
X2434719Y2791657D02*
X2628198Y2985136D01*
X2288118Y2497500D02*
X2508889D01*
X2265000Y2482500D02*
X2273118D01*
X2288118Y2497500D01*
X2914106Y1524106D02*
X2919999Y1529999D01*
X2790000Y1547608D02*
X2902390D01*
X2919999Y1529999D01*
X2317500Y1651659D02*
X2317500D01*
X2470711Y1497700D02*
Y1568411D01*
X2320710Y1347700D02*
X2470711Y1497700D01*
X2250000Y1584160D02*
X2317500Y1651659D01*
X2250000Y1347700D02*
X2320710D01*
X2250000D02*
Y1584160D01*
X2362500Y340000D02*
X2397500Y305000D01*
X2362500Y340000D02*
Y350000D01*
X2397500Y305000D02*
X2407500D01*
X2360000Y550000D02*
Y560000D01*
X2320000Y600000D02*
X2360000Y560000D01*
X2362500Y350000D02*
Y547500D01*
X2452100Y259124D02*
Y260400D01*
X2407500Y305000D02*
X2452100Y260400D01*
X2200000Y600000D02*
X2320000D01*
X1398118Y3920000D02*
X1425130Y3892988D01*
X1390000Y3920000D02*
X1398118D01*
X1302500Y4357500D02*
X1308240Y4351760D01*
X1320740D01*
X1405000Y4267500D01*
X1302500Y4357500D02*
X1308994D01*
X1341494Y4390000D01*
X1515000D01*
X1405000Y3050000D02*
Y3177500D01*
X1457433Y3229933D01*
X2252500Y3917500D02*
X2255000D01*
X3657608Y1316150D02*
X3692913Y1351455D01*
X1387500Y2835000D02*
X1395618D01*
X1417818Y2812800D01*
X1492800D01*
X1891450Y1192934D02*
Y1544366D01*
X3657608Y1010000D02*
Y1316150D01*
X1405000Y4170000D02*
Y4267500D01*
X1492800Y2812800D02*
X1498900Y2818900D01*
X1335624Y1953100D02*
X1581492D01*
X1287047Y2001677D02*
Y2200223D01*
X1227671Y2259600D02*
X1287047Y2200223D01*
Y2001677D02*
X1335624Y1953100D01*
X956066Y2356066D02*
X1052531Y2259600D01*
X1227671D01*
X3502392Y1010000D02*
X3514784D01*
X3769902Y1770098D02*
X3770000D01*
X2200000Y4215000D02*
X2222500Y4237500D01*
X2372990D01*
X2423100Y4187390D01*
X2282500Y3890000D02*
X2423100Y4030600D01*
X2030000Y3480000D02*
Y3545000D01*
X2257500Y3087500D02*
X2294956D01*
X2220000Y3125000D02*
X2257500Y3087500D01*
X2294956D02*
X2351934Y3030523D01*
X2030000Y3285000D02*
Y3350000D01*
X2356187Y3408132D02*
X2385710Y3378608D01*
X2338792Y3408132D02*
X2356187D01*
X2385710Y3221392D02*
Y3378608D01*
X2356187Y3191868D02*
X2385710Y3221392D01*
X2242500Y3127120D02*
Y3139624D01*
X2356186Y3191868D02*
X2356187D01*
X2242500Y3139624D02*
X2245000Y3142124D01*
X2306442D01*
X2356186Y3191868D01*
X3465491Y1795000D02*
Y1796878D01*
X3386177Y1876192D02*
X3465491Y1796878D01*
X3317262Y1876192D02*
X3386177D01*
X2423100Y4030600D02*
Y4187390D01*
X2297500Y3449424D02*
X2338792Y3408132D01*
X2293221Y3552500D02*
X2297500Y3548221D01*
Y3449424D02*
Y3548221D01*
D42*
X3697573Y1699785D02*
X3720118D01*
X3688786Y1708571D02*
X3697573Y1699785D01*
X3688786Y1708571D02*
Y1755803D01*
X3734589Y1685215D02*
Y1685313D01*
Y1685215D02*
X3769902Y1649902D01*
X3720118Y1699785D02*
X3734589Y1685313D01*
X3769902Y1649902D02*
X3770000D01*
X2784923Y884923D02*
X2790000Y890000D01*
X2784923Y787282D02*
Y884923D01*
X3682089Y1762500D02*
X3688786Y1755803D01*
X3820000Y1365754D02*
Y1462788D01*
X3802500Y1348254D02*
X3820000Y1365754D01*
X3770000Y1512788D02*
X3820000Y1462788D01*
X3830000Y1199167D02*
Y1236362D01*
X3820833Y1190000D02*
X3830000Y1199167D01*
X3820833Y1143333D02*
Y1190000D01*
X3820000Y1142500D02*
X3820833Y1143333D01*
X4321651Y4685000D02*
X4370000D01*
X4410000Y4725000D01*
X4317852Y4681201D02*
X4321651Y4685000D01*
X4291201Y4681201D02*
X4317852D01*
X4284505Y4674504D02*
X4291201Y4681201D01*
X4198869Y4483946D02*
X4248408D01*
X4297700Y4434654D01*
X4192362Y4272713D02*
X4220075Y4245000D01*
X4094500Y4379576D02*
X4198869Y4483946D01*
X4094500Y4300425D02*
Y4379576D01*
Y4300425D02*
X4122212Y4272713D01*
X4192362D01*
X4370000Y4245000D02*
X4410000Y4205000D01*
X4220075Y4245000D02*
X4370000D01*
X4309025Y3860963D02*
X4349988Y3820000D01*
X4420000D01*
X4307340Y3859278D02*
X4309025Y3860963D01*
X4247500Y3859278D02*
X4307340D01*
X4247500Y3787221D02*
Y3859278D01*
X4232333Y3772054D02*
X4247500Y3787221D01*
X4232333Y3722096D02*
X4240000Y3714429D01*
Y3655000D02*
Y3714429D01*
X4232333Y3722096D02*
Y3772054D01*
X3410000Y3710000D02*
X3450000Y3670000D01*
X3475000Y3602500D02*
Y3611971D01*
X3450000Y3636971D02*
Y3670000D01*
Y3636971D02*
X3475000Y3611971D01*
X3802500Y1263862D02*
X3830000Y1236362D01*
X3770000Y1512788D02*
Y1649902D01*
X3802500Y1263862D02*
Y1348254D01*
X3219907Y1700000D02*
X3279945D01*
X3170000Y3432130D02*
Y3540000D01*
X3050000Y3420000D02*
X3157870D01*
X3170000Y3432130D01*
X3010000Y3380000D02*
X3050000Y3420000D01*
X2872500Y2765000D02*
Y2847500D01*
X2957500Y2645000D02*
X2997500Y2605000D01*
X2957500Y2645000D02*
Y2647500D01*
X2997500Y2605000D02*
X3000000D01*
X2870000Y2850000D02*
X2872500Y2847500D01*
Y2732500D02*
Y2765000D01*
X2660592Y2730520D02*
X2838020D01*
X2872500Y2732500D02*
X2957500Y2647500D01*
X2838020Y2730520D02*
X2872500Y2765000D01*
X2595932Y2653595D02*
Y2665860D01*
X2660592Y2730520D01*
X2487336Y2545000D02*
X2595932Y2653595D01*
X2943194Y1976712D02*
X3219907Y1700000D01*
X3039902Y1359902D02*
X3040000D01*
X2986039Y1306039D02*
X3039902Y1359902D01*
X2986039Y1283540D02*
Y1306039D01*
X2980091Y1277591D02*
X2986039Y1283540D01*
X2979589Y1145894D02*
Y1278093D01*
Y1145894D02*
X2995698Y1129785D01*
X2979343Y1278339D02*
X2979589Y1278093D01*
X3049902Y1079902D02*
X3050000D01*
X2995698Y1129785D02*
X3000020D01*
X3049902Y1079902D01*
X2562500Y340000D02*
X2615000Y287500D01*
X2642895D02*
X2652895Y277500D01*
X2662366D01*
X2615000Y287500D02*
X2642895D01*
X2268443Y2545000D02*
X2487336D01*
X2243254Y2535000D02*
X2258443D01*
X2268443Y2545000D01*
X2233254Y2525000D02*
X2243254Y2535000D01*
X2562500Y340000D02*
Y350000D01*
X2117847Y2542101D02*
X2134948Y2525000D01*
X2233254D01*
X2080399Y2542101D02*
X2117847D01*
X2073702Y2548797D02*
X2080399Y2542101D01*
D43*
X834000Y5146000D02*
D03*
D44*
X1088000D02*
D03*
X1342000D02*
D03*
X1596000D02*
D03*
X1850000D02*
D03*
X2104000D02*
D03*
X2358000D02*
D03*
X2866000D02*
D03*
X4136000D02*
D03*
X4390000D02*
D03*
X4644000D02*
D03*
X4898000D02*
D03*
X5152000D02*
D03*
X5406000D02*
D03*
X834000Y5400000D02*
D03*
X1088000D02*
D03*
X1596000D02*
D03*
X1850000D02*
D03*
X2104000D02*
D03*
X3882000D02*
D03*
X4136000D02*
D03*
X4644000D02*
D03*
X5152000D02*
D03*
X5406000D02*
D03*
X5660000D02*
D03*
X2612000Y5146000D02*
D03*
X3628000D02*
D03*
X2866000Y5400000D02*
D03*
X3374000D02*
D03*
X3120000Y5146000D02*
D03*
X2612000Y5400000D02*
D03*
X3628000D02*
D03*
X3374000Y5146000D02*
D03*
X1342000Y5400000D02*
D03*
X2358000D02*
D03*
X3120000D02*
D03*
X3882000Y5146000D02*
D03*
X4390000Y5400000D02*
D03*
X4898000D02*
D03*
X5660000Y5146000D02*
D03*
D45*
X900000Y1500000D02*
D03*
D46*
Y1119000D02*
D03*
D47*
X350000Y5250000D02*
D03*
X6150000D02*
D03*
Y350000D02*
D03*
X350000D02*
D03*
D48*
X6152500Y4734322D02*
D03*
X1709349Y3956930D02*
D03*
X1779349D02*
D03*
X1672500Y3814687D02*
D03*
X1311022Y3234504D02*
D03*
X1457433Y3229933D02*
D03*
X2401110Y1951110D02*
D03*
X328615Y4088079D02*
D03*
X582493Y3747493D02*
D03*
X4545000Y4535000D02*
D03*
X1363679Y3425356D02*
D03*
X1376893Y3655607D02*
D03*
X849546Y3141537D02*
D03*
X796390Y3242572D02*
D03*
X6580000Y2230000D02*
D03*
X6353234Y3100000D02*
D03*
X6550000Y3042500D02*
D03*
X3741160Y5061559D02*
D03*
X6140000Y2547500D02*
D03*
X6486463Y4833924D02*
D03*
X7483924Y3693924D02*
D03*
X6189881Y1224953D02*
D03*
X8142500Y4515000D02*
D03*
X7693924Y4508924D02*
D03*
X6277500Y4510000D02*
D03*
X6963924Y1923924D02*
D03*
X6736999Y1920117D02*
D03*
X5836424Y1918924D02*
D03*
X7910000Y4730000D02*
D03*
X7542500Y4732500D02*
D03*
X5767933Y422652D02*
D03*
X5590000Y322500D02*
D03*
X5780000Y932500D02*
D03*
X5781424Y1096424D02*
D03*
X6065824Y2534524D02*
D03*
X7592500Y2855000D02*
D03*
X7206905Y3083096D02*
D03*
X7335000Y3165000D02*
D03*
X7555000Y3260000D02*
D03*
X5730000Y4835000D02*
D03*
X5560000Y4005511D02*
D03*
Y3895511D02*
D03*
X7190000Y3782500D02*
D03*
X7587500Y3052500D02*
D03*
X7347641Y3545141D02*
D03*
X7277500Y3612500D02*
D03*
X7555000Y3365000D02*
D03*
X7545000Y3450000D02*
D03*
X5720211Y3655088D02*
D03*
X5605000Y3562500D02*
D03*
X5595000Y3650000D02*
D03*
X5178253Y3450000D02*
D03*
X5687500Y3732500D02*
D03*
X5689741Y3809244D02*
D03*
X5397500Y3593088D02*
D03*
X5700083Y3975000D02*
D03*
X5747564Y4461539D02*
D03*
X6235000Y4060000D02*
D03*
X5472500Y4350000D02*
D03*
X6242700Y3327579D02*
D03*
X6197533Y2486574D02*
D03*
X6250000Y948085D02*
D03*
X6387500Y4965000D02*
D03*
X8179936Y2817152D02*
D03*
X884380Y75441D02*
D03*
X1050000Y247500D02*
D03*
X950000Y250000D02*
D03*
X415000Y1112500D02*
D03*
X772500Y2249730D02*
D03*
X1185000Y192500D02*
D03*
X4277500Y4593945D02*
D03*
X4677500Y4710000D02*
D03*
X3105000Y3237254D02*
D03*
Y3001760D02*
D03*
X2784923Y787282D02*
D03*
X3084571Y802500D02*
D03*
X3149179Y815821D02*
D03*
X3117500Y2870308D02*
D03*
X3120000Y2512500D02*
D03*
X2978230Y2302695D02*
D03*
X3682089Y1762500D02*
D03*
X3820000Y1142500D02*
D03*
X5102640Y4599102D02*
D03*
X5102500Y4477500D02*
D03*
X5196980Y4008441D02*
D03*
X5150740Y4210740D02*
D03*
X5051571Y3585000D02*
D03*
X5012275Y3477538D02*
D03*
X5143815Y3314350D02*
D03*
X4284505Y4674504D02*
D03*
X4297700Y4434654D02*
D03*
X3448724Y5047057D02*
D03*
X3380000Y4480000D02*
D03*
X3880000Y4262624D02*
D03*
X4309025Y3860963D02*
D03*
X4619800Y3405000D02*
D03*
X4240000Y3655000D02*
D03*
X3380000Y4180000D02*
D03*
X3475000Y3602500D02*
D03*
X5052175Y2949800D02*
D03*
X5454430Y2335199D02*
D03*
X5092500Y2072500D02*
D03*
X4626109Y2533891D02*
D03*
X4785000Y1916041D02*
D03*
X5070000Y1617300D02*
D03*
X5057913Y1108751D02*
D03*
X5073549Y847727D02*
D03*
X4907500Y1577500D02*
D03*
X4358986Y2978527D02*
D03*
X3515000Y2920000D02*
D03*
X3470000Y2715000D02*
D03*
X4005000Y1117500D02*
D03*
X3385000Y2340000D02*
D03*
X3750000Y350000D02*
D03*
X2462500Y4405000D02*
D03*
X2336545Y4767231D02*
D03*
X2097500Y4755119D02*
D03*
X2069879Y4097725D02*
D03*
X1854809Y3844230D02*
D03*
X3170000Y3540000D02*
D03*
X1844600Y3256257D02*
D03*
X1682500Y4565000D02*
D03*
X1170953Y4956585D02*
D03*
X847500Y4671900D02*
D03*
X757500Y4798100D02*
D03*
X877500Y4452500D02*
D03*
X227500Y4487500D02*
D03*
X1270000Y3860000D02*
D03*
X1380000Y3810000D02*
D03*
X1345262Y3549370D02*
D03*
X1110000Y3975000D02*
D03*
X1080000Y3785691D02*
D03*
X2870000Y2850000D02*
D03*
X2627781Y2832218D02*
D03*
X2979343Y1278339D02*
D03*
X2944474Y1976712D02*
D03*
X2898937Y514071D02*
D03*
X2662366Y277500D02*
D03*
X2090000Y2920000D02*
D03*
X1645189Y2922773D02*
D03*
X1300000Y2892500D02*
D03*
X750000Y2840000D02*
D03*
X2455800Y2152501D02*
D03*
X2300000Y1950000D02*
D03*
X2073702Y2548797D02*
D03*
X860554Y2591659D02*
D03*
X1290141Y625140D02*
D03*
X4375295Y2212145D02*
D03*
X3337316Y950323D02*
D03*
X2953999Y977929D02*
D03*
X2625000Y900000D02*
D03*
X2684554Y695809D02*
D03*
X3062500Y620000D02*
D03*
X2633157Y3150451D02*
D03*
X3767500Y1392500D02*
D03*
X3740343Y852095D02*
D03*
X4050029Y3495828D02*
D03*
X4152500Y377500D02*
D03*
X2429525Y2677500D02*
D03*
X597929Y2407071D02*
D03*
X792601Y2405061D02*
D03*
X740000Y2451246D02*
D03*
X698608Y3503608D02*
D03*
X767500Y3645001D02*
D03*
X2090000Y4332500D02*
D03*
X2092500Y4442500D02*
D03*
X5090000Y4152500D02*
D03*
X1385414Y3734304D02*
D03*
X1357500Y3325000D02*
D03*
X1065000Y4860000D02*
D03*
X4678565Y4621065D02*
D03*
X2930000Y3625000D02*
D03*
X5037500Y2727500D02*
D03*
X3082500Y1952500D02*
D03*
X3482500Y2825000D02*
D03*
X4972500Y4065000D02*
D03*
X4450000Y3702500D02*
D03*
X2837500Y2525000D02*
D03*
X4240000Y375000D02*
D03*
X3850000Y350000D02*
D03*
X4087500Y450000D02*
D03*
X4610800Y4180000D02*
D03*
X4405000Y2875208D02*
D03*
X3807500Y3495000D02*
D03*
X4355000Y3090000D02*
D03*
X4050000Y3092500D02*
D03*
X4375000Y2665619D02*
D03*
X4360000Y2555619D02*
D03*
X4520000Y2225000D02*
D03*
X5395000Y500000D02*
D03*
X4022300Y1594752D02*
D03*
X2872500Y4230387D02*
D03*
X2637500Y3613871D02*
D03*
X2484159Y3887965D02*
D03*
X2265000Y2482500D02*
D03*
X2317500Y1651659D02*
D03*
X2200000Y600000D02*
D03*
X4945000Y3092500D02*
D03*
X4880000Y3540000D02*
D03*
X367707Y4197446D02*
D03*
X562500Y4212500D02*
D03*
X477500Y4225000D02*
D03*
X310281Y4560281D02*
D03*
X1390000Y3920000D02*
D03*
X1302500Y4357500D02*
D03*
X2835000Y2375000D02*
D03*
X1682500Y3635000D02*
D03*
X1765000Y3342500D02*
D03*
X3907500Y3392500D02*
D03*
X3492500Y3192500D02*
D03*
X752500Y3390000D02*
D03*
X1387500Y2835000D02*
D03*
X3241882Y1325000D02*
D03*
X2620000Y1307500D02*
D03*
X956066Y2356066D02*
D03*
X1163003Y3425195D02*
D03*
X722500Y2920001D02*
D03*
X1191952Y3548647D02*
D03*
X855663Y2910168D02*
D03*
X2351934Y3030523D02*
D03*
X1802500Y2907500D02*
D03*
X3565000Y4047500D02*
D03*
X2728467Y3678467D02*
D03*
X2000000Y4210000D02*
D03*
X907800Y4111851D02*
D03*
X1530000Y4859000D02*
D03*
X1770000Y4600000D02*
D03*
X2260000Y4558028D02*
D03*
X2290000Y4667552D02*
D03*
X1157297Y4887930D02*
D03*
X2342500Y4162500D02*
D03*
X2367500Y4420000D02*
D03*
X1080145Y3627300D02*
D03*
X870000Y2402500D02*
D03*
X2510291Y4643149D02*
D03*
X2626049Y4650000D02*
D03*
X5162175Y2952825D02*
D03*
X5186003Y3203096D02*
D03*
X5186618Y2729036D02*
D03*
X3417500Y2632500D02*
D03*
X3952500Y2647500D02*
D03*
X4652500Y2860000D02*
D03*
X4700000Y2050000D02*
D03*
X5220000Y2067500D02*
D03*
X5062500Y2460000D02*
D03*
X3415004Y4007504D02*
D03*
X1500000Y2237500D02*
D03*
X3400000Y2905000D02*
D03*
X3602500Y3200000D02*
D03*
X3865000Y4160000D02*
D03*
X900000Y2200000D02*
D03*
X3505000Y4607500D02*
D03*
X3507500Y4510000D02*
D03*
X2397500Y1699410D02*
D03*
X5442165Y372835D02*
D03*
X1390000Y1096100D02*
D03*
X5160000Y1240000D02*
D03*
X990306Y4711582D02*
D03*
X717500Y3955000D02*
D03*
D49*
X4410000Y2730000D02*
D03*
X4318001Y2850400D02*
D03*
X2175000Y3660000D02*
D03*
X2215000Y3457424D02*
D03*
X4301846Y4137339D02*
D03*
X2785000Y1755000D02*
D03*
X2685000Y1740000D02*
D03*
X3965000Y4692500D02*
D03*
%TF.MD5,1b49b514dc2c9d2a32e6cc2348f6b1ff*%
M02*
