%TF.GenerationSoftware,Altium Limited,Altium Designer,26.6.0 (10)*%
G04 Layer_Color=128*
G04 Board_Origin=29350000|14702756*
%FSLAX45Y45*%
%MOMM*%
%TF.SameCoordinates,FF19D583-8477-4E59-B826-EB9FC0F50DB0*%
%TF.FilePolarity,Positive*%
%TF.FileFunction,Drillmap*%
%TF.Part,Single*%
G01*
G75*
%TA.AperFunction,NonConductor*%
%ADD84C,0.12700*%
D84*
X783000Y5146000D02*
X885000D01*
X834000Y5095000D02*
Y5197000D01*
X1037000Y5146000D02*
X1139000D01*
X1088000Y5095000D02*
Y5197000D01*
X1291000Y5146000D02*
X1393000D01*
X1342000Y5095000D02*
Y5197000D01*
X1545000Y5146000D02*
X1647000D01*
X1596000Y5095000D02*
Y5197000D01*
X1799000Y5146000D02*
X1901000D01*
X1850000Y5095000D02*
Y5197000D01*
X2053000Y5146000D02*
X2155000D01*
X2104000Y5095000D02*
Y5197000D01*
X2307000Y5146000D02*
X2409000D01*
X2358000Y5095000D02*
Y5197000D01*
X2815000Y5146000D02*
X2917000D01*
X2866000Y5095000D02*
Y5197000D01*
X4085000Y5146000D02*
X4187000D01*
X4136000Y5095000D02*
Y5197000D01*
X4339000Y5146000D02*
X4441000D01*
X4390000Y5095000D02*
Y5197000D01*
X4593000Y5146000D02*
X4695000D01*
X4644000Y5095000D02*
Y5197000D01*
X4847000Y5146000D02*
X4949000D01*
X4898000Y5095000D02*
Y5197000D01*
X5101000Y5146000D02*
X5203000D01*
X5152000Y5095000D02*
Y5197000D01*
X5355000Y5146000D02*
X5457000D01*
X5406000Y5095000D02*
Y5197000D01*
X783000Y5400000D02*
X885000D01*
X834000Y5349000D02*
Y5451000D01*
X1037000Y5400000D02*
X1139000D01*
X1088000Y5349000D02*
Y5451000D01*
X1545000Y5400000D02*
X1647000D01*
X1596000Y5349000D02*
Y5451000D01*
X1799000Y5400000D02*
X1901000D01*
X1850000Y5349000D02*
Y5451000D01*
X2053000Y5400000D02*
X2155000D01*
X2104000Y5349000D02*
Y5451000D01*
X3831000Y5400000D02*
X3933000D01*
X3882000Y5349000D02*
Y5451000D01*
X4085000Y5400000D02*
X4187000D01*
X4136000Y5349000D02*
Y5451000D01*
X4593000Y5400000D02*
X4695000D01*
X4644000Y5349000D02*
Y5451000D01*
X5101000Y5400000D02*
X5203000D01*
X5152000Y5349000D02*
Y5451000D01*
X5355000Y5400000D02*
X5457000D01*
X5406000Y5349000D02*
Y5451000D01*
X5609000Y5400000D02*
X5711000D01*
X5660000Y5349000D02*
Y5451000D01*
X2561000Y5146000D02*
X2663000D01*
X2612000Y5095000D02*
Y5197000D01*
X3577000Y5146000D02*
X3679000D01*
X3628000Y5095000D02*
Y5197000D01*
X2815000Y5400000D02*
X2917000D01*
X2866000Y5349000D02*
Y5451000D01*
X3323000Y5400000D02*
X3425000D01*
X3374000Y5349000D02*
Y5451000D01*
X3069000Y5146000D02*
X3171000D01*
X3120000Y5095000D02*
Y5197000D01*
X2561000Y5400000D02*
X2663000D01*
X2612000Y5349000D02*
Y5451000D01*
X3577000Y5400000D02*
X3679000D01*
X3628000Y5349000D02*
Y5451000D01*
X3323000Y5146000D02*
X3425000D01*
X3374000Y5095000D02*
Y5197000D01*
X1291000Y5400000D02*
X1393000D01*
X1342000Y5349000D02*
Y5451000D01*
X2307000Y5400000D02*
X2409000D01*
X2358000Y5349000D02*
Y5451000D01*
X3069000Y5400000D02*
X3171000D01*
X3120000Y5349000D02*
Y5451000D01*
X3831000Y5146000D02*
X3933000D01*
X3882000Y5095000D02*
Y5197000D01*
X4339000Y5400000D02*
X4441000D01*
X4390000Y5349000D02*
Y5451000D01*
X4847000Y5400000D02*
X4949000D01*
X4898000Y5349000D02*
Y5451000D01*
X5609000Y5146000D02*
X5711000D01*
X5660000Y5095000D02*
Y5197000D01*
X830000Y1500000D02*
X970000D01*
X900000Y1430000D02*
Y1570000D01*
X830000Y1119000D02*
X970000D01*
X900000Y1049000D02*
Y1189000D01*
X212500Y5250000D02*
X487500D01*
X350000Y5112500D02*
Y5387500D01*
X6012500Y5250000D02*
X6287500D01*
X6150000Y5112500D02*
Y5387500D01*
X6012500Y350000D02*
X6287500D01*
X6150000Y212500D02*
Y487500D01*
X212500Y350000D02*
X487500D01*
X350000Y212500D02*
Y487500D01*
X6137500Y4734322D02*
X6167500D01*
X6152500Y4719322D02*
Y4749322D01*
X1694349Y3956930D02*
X1724349D01*
X1709349Y3941930D02*
Y3971930D01*
X1764349Y3956930D02*
X1794349D01*
X1779349Y3941930D02*
Y3971930D01*
X1657500Y3814687D02*
X1687500D01*
X1672500Y3799687D02*
Y3829687D01*
X1296022Y3234504D02*
X1326022D01*
X1311022Y3219504D02*
Y3249504D01*
X1442433Y3229933D02*
X1472433D01*
X1457433Y3214933D02*
Y3244933D01*
X2386110Y1951110D02*
X2416110D01*
X2401110Y1936110D02*
Y1966110D01*
X313615Y4088079D02*
X343615D01*
X328615Y4073079D02*
Y4103079D01*
X567493Y3747493D02*
X597493D01*
X582493Y3732493D02*
Y3762493D01*
X4530000Y4535000D02*
X4560000D01*
X4545000Y4520000D02*
Y4550000D01*
X1348679Y3425356D02*
X1378679D01*
X1363679Y3410356D02*
Y3440356D01*
X1361893Y3655607D02*
X1391893D01*
X1376893Y3640607D02*
Y3670607D01*
X834546Y3141537D02*
X864546D01*
X849546Y3126537D02*
Y3156537D01*
X781390Y3242572D02*
X811390D01*
X796390Y3227572D02*
Y3257572D01*
X6565000Y2230000D02*
X6595000D01*
X6580000Y2215000D02*
Y2245000D01*
X6338234Y3100000D02*
X6368234D01*
X6353234Y3085000D02*
Y3115000D01*
X6535000Y3042500D02*
X6565000D01*
X6550000Y3027500D02*
Y3057500D01*
X3726160Y5061559D02*
X3756160D01*
X3741160Y5046559D02*
Y5076559D01*
X6125000Y2547500D02*
X6155000D01*
X6140000Y2532500D02*
Y2562500D01*
X6471463Y4833924D02*
X6501463D01*
X6486463Y4818924D02*
Y4848924D01*
X7468924Y3693924D02*
X7498924D01*
X7483924Y3678924D02*
Y3708924D01*
X6174881Y1224953D02*
X6204881D01*
X6189881Y1209953D02*
Y1239953D01*
X8127500Y4515000D02*
X8157500D01*
X8142500Y4500000D02*
Y4530000D01*
X7678924Y4508924D02*
X7708924D01*
X7693924Y4493924D02*
Y4523924D01*
X6262500Y4510000D02*
X6292500D01*
X6277500Y4495000D02*
Y4525000D01*
X6948924Y1923924D02*
X6978924D01*
X6963924Y1908924D02*
Y1938924D01*
X6722000Y1920117D02*
X6751999D01*
X6736999Y1905117D02*
Y1935117D01*
X5821424Y1918924D02*
X5851424D01*
X5836424Y1903924D02*
Y1933924D01*
X7895000Y4730000D02*
X7925000D01*
X7910000Y4715000D02*
Y4745000D01*
X7527500Y4732500D02*
X7557500D01*
X7542500Y4717500D02*
Y4747500D01*
X5752933Y422652D02*
X5782933D01*
X5767933Y407652D02*
Y437652D01*
X5575000Y322500D02*
X5605000D01*
X5590000Y307500D02*
Y337500D01*
X5765000Y932500D02*
X5795000D01*
X5780000Y917500D02*
Y947500D01*
X5766424Y1096424D02*
X5796424D01*
X5781424Y1081424D02*
Y1111424D01*
X6050824Y2534524D02*
X6080824D01*
X6065824Y2519524D02*
Y2549524D01*
X7577500Y2855000D02*
X7607500D01*
X7592500Y2840000D02*
Y2870000D01*
X7191905Y3083096D02*
X7221905D01*
X7206905Y3068096D02*
Y3098096D01*
X7320000Y3165000D02*
X7350000D01*
X7335000Y3150000D02*
Y3180000D01*
X7540000Y3260000D02*
X7570000D01*
X7555000Y3245000D02*
Y3275000D01*
X5715000Y4835000D02*
X5745000D01*
X5730000Y4820000D02*
Y4850000D01*
X5545000Y4005511D02*
X5575000D01*
X5560000Y3990511D02*
Y4020511D01*
X5545000Y3895511D02*
X5575000D01*
X5560000Y3880511D02*
Y3910511D01*
X7175000Y3782500D02*
X7205000D01*
X7190000Y3767500D02*
Y3797500D01*
X7572500Y3052500D02*
X7602500D01*
X7587500Y3037500D02*
Y3067500D01*
X7332641Y3545141D02*
X7362641D01*
X7347641Y3530141D02*
Y3560141D01*
X7262500Y3612500D02*
X7292500D01*
X7277500Y3597500D02*
Y3627500D01*
X7540000Y3365000D02*
X7570000D01*
X7555000Y3350000D02*
Y3380000D01*
X7530000Y3450000D02*
X7560000D01*
X7545000Y3435000D02*
Y3465000D01*
X5705211Y3655088D02*
X5735211D01*
X5720211Y3640088D02*
Y3670088D01*
X5590000Y3562500D02*
X5620000D01*
X5605000Y3547500D02*
Y3577500D01*
X5580000Y3650000D02*
X5610000D01*
X5595000Y3635000D02*
Y3665000D01*
X5163253Y3450000D02*
X5193253D01*
X5178253Y3435000D02*
Y3465000D01*
X5672500Y3732500D02*
X5702500D01*
X5687500Y3717500D02*
Y3747500D01*
X5674742Y3809244D02*
X5704741D01*
X5689741Y3794244D02*
Y3824244D01*
X5382500Y3593088D02*
X5412500D01*
X5397500Y3578088D02*
Y3608088D01*
X5685083Y3975000D02*
X5715083D01*
X5700083Y3960000D02*
Y3990000D01*
X5732564Y4461539D02*
X5762564D01*
X5747564Y4446539D02*
Y4476539D01*
X6220000Y4060000D02*
X6250000D01*
X6235000Y4045000D02*
Y4075000D01*
X5457500Y4350000D02*
X5487500D01*
X5472500Y4335000D02*
Y4365000D01*
X6227700Y3327579D02*
X6257700D01*
X6242700Y3312579D02*
Y3342579D01*
X6182533Y2486574D02*
X6212533D01*
X6197533Y2471574D02*
Y2501574D01*
X6235000Y948085D02*
X6265000D01*
X6250000Y933085D02*
Y963085D01*
X6372500Y4965000D02*
X6402500D01*
X6387500Y4950000D02*
Y4980000D01*
X8164936Y2817152D02*
X8194936D01*
X8179936Y2802152D02*
Y2832152D01*
X869380Y75441D02*
X899380D01*
X884380Y60441D02*
Y90441D01*
X1035000Y247500D02*
X1065000D01*
X1050000Y232500D02*
Y262500D01*
X935000Y250000D02*
X965000D01*
X950000Y235000D02*
Y265000D01*
X400000Y1112500D02*
X430000D01*
X415000Y1097500D02*
Y1127500D01*
X757500Y2249730D02*
X787500D01*
X772500Y2234730D02*
Y2264730D01*
X1170000Y192500D02*
X1200000D01*
X1185000Y177500D02*
Y207500D01*
X4262500Y4593945D02*
X4292500D01*
X4277500Y4578945D02*
Y4608945D01*
X4662500Y4710000D02*
X4692500D01*
X4677500Y4695000D02*
Y4725000D01*
X3090000Y3237254D02*
X3120000D01*
X3105000Y3222254D02*
Y3252254D01*
X3090000Y3001760D02*
X3120000D01*
X3105000Y2986760D02*
Y3016760D01*
X2769923Y787282D02*
X2799923D01*
X2784923Y772282D02*
Y802282D01*
X3069571Y802500D02*
X3099571D01*
X3084571Y787500D02*
Y817500D01*
X3134179Y815821D02*
X3164179D01*
X3149179Y800821D02*
Y830821D01*
X3102500Y2870308D02*
X3132500D01*
X3117500Y2855308D02*
Y2885308D01*
X3105000Y2512500D02*
X3135000D01*
X3120000Y2497500D02*
Y2527500D01*
X2963230Y2302695D02*
X2993230D01*
X2978230Y2287695D02*
Y2317695D01*
X3667089Y1762500D02*
X3697089D01*
X3682089Y1747500D02*
Y1777500D01*
X3805000Y1142500D02*
X3835000D01*
X3820000Y1127500D02*
Y1157500D01*
X5087640Y4599102D02*
X5117639D01*
X5102640Y4584102D02*
Y4614102D01*
X5087500Y4477500D02*
X5117500D01*
X5102500Y4462500D02*
Y4492500D01*
X5181980Y4008441D02*
X5211980D01*
X5196980Y3993441D02*
Y4023441D01*
X5135740Y4210740D02*
X5165740D01*
X5150740Y4195740D02*
Y4225740D01*
X5036571Y3585000D02*
X5066571D01*
X5051571Y3570000D02*
Y3600000D01*
X4997276Y3477538D02*
X5027275D01*
X5012275Y3462538D02*
Y3492538D01*
X5128815Y3314350D02*
X5158815D01*
X5143815Y3299350D02*
Y3329350D01*
X4269505Y4674504D02*
X4299504D01*
X4284505Y4659505D02*
Y4689504D01*
X4282700Y4434654D02*
X4312700D01*
X4297700Y4419654D02*
Y4449654D01*
X3433724Y5047057D02*
X3463724D01*
X3448724Y5032057D02*
Y5062057D01*
X3365000Y4480000D02*
X3395000D01*
X3380000Y4465000D02*
Y4495000D01*
X3865000Y4262624D02*
X3895000D01*
X3880000Y4247624D02*
Y4277624D01*
X4294025Y3860963D02*
X4324025D01*
X4309025Y3845963D02*
Y3875963D01*
X4604800Y3405000D02*
X4634800D01*
X4619800Y3390000D02*
Y3420000D01*
X4225000Y3655000D02*
X4255000D01*
X4240000Y3640000D02*
Y3670000D01*
X3365000Y4180000D02*
X3395000D01*
X3380000Y4165000D02*
Y4195000D01*
X3460000Y3602500D02*
X3490000D01*
X3475000Y3587500D02*
Y3617500D01*
X5037175Y2949800D02*
X5067175D01*
X5052175Y2934800D02*
Y2964800D01*
X5439430Y2335199D02*
X5469430D01*
X5454430Y2320199D02*
Y2350199D01*
X5077500Y2072500D02*
X5107500D01*
X5092500Y2057500D02*
Y2087500D01*
X4611109Y2533891D02*
X4641109D01*
X4626109Y2518891D02*
Y2548891D01*
X4770000Y1916041D02*
X4800000D01*
X4785000Y1901041D02*
Y1931041D01*
X5055000Y1617300D02*
X5085000D01*
X5070000Y1602300D02*
Y1632300D01*
X5042913Y1108751D02*
X5072913D01*
X5057913Y1093751D02*
Y1123751D01*
X5058549Y847727D02*
X5088549D01*
X5073549Y832727D02*
Y862727D01*
X4892500Y1577500D02*
X4922500D01*
X4907500Y1562500D02*
Y1592500D01*
X4343986Y2978527D02*
X4373986D01*
X4358986Y2963527D02*
Y2993527D01*
X4395000Y2730000D02*
X4425000D01*
X4410000Y2715000D02*
Y2745000D01*
X4303001Y2850400D02*
X4333000D01*
X4318001Y2835400D02*
Y2865400D01*
X3500000Y2920000D02*
X3530000D01*
X3515000Y2905000D02*
Y2935000D01*
X3455000Y2715000D02*
X3485000D01*
X3470000Y2700000D02*
Y2730000D01*
X3990000Y1117500D02*
X4020000D01*
X4005000Y1102500D02*
Y1132500D01*
X3370000Y2340000D02*
X3400000D01*
X3385000Y2325000D02*
Y2355000D01*
X3735000Y350000D02*
X3765000D01*
X3750000Y335000D02*
Y365000D01*
X2447500Y4405000D02*
X2477500D01*
X2462500Y4390000D02*
Y4420000D01*
X2321545Y4767231D02*
X2351545D01*
X2336545Y4752231D02*
Y4782231D01*
X2082500Y4755119D02*
X2112500D01*
X2097500Y4740119D02*
Y4770119D01*
X2054879Y4097725D02*
X2084879D01*
X2069879Y4082725D02*
Y4112725D01*
X1839809Y3844230D02*
X1869809D01*
X1854809Y3829230D02*
Y3859230D01*
X3155000Y3540000D02*
X3185000D01*
X3170000Y3525000D02*
Y3555000D01*
X2162500Y3660000D02*
X2187500D01*
X2175000Y3647500D02*
Y3672500D01*
X2202500Y3457424D02*
X2227500D01*
X2215000Y3444925D02*
Y3469924D01*
X1829600Y3256257D02*
X1859600D01*
X1844600Y3241257D02*
Y3271257D01*
X1667500Y4565000D02*
X1697500D01*
X1682500Y4550000D02*
Y4580000D01*
X1155953Y4956585D02*
X1185953D01*
X1170953Y4941585D02*
Y4971585D01*
X832500Y4671900D02*
X862500D01*
X847500Y4656900D02*
Y4686900D01*
X742500Y4798100D02*
X772500D01*
X757500Y4783100D02*
Y4813100D01*
X862500Y4452500D02*
X892500D01*
X877500Y4437500D02*
Y4467500D01*
X212500Y4487500D02*
X242500D01*
X227500Y4472500D02*
Y4502500D01*
X1255000Y3860000D02*
X1285000D01*
X1270000Y3845000D02*
Y3875000D01*
X1365000Y3810000D02*
X1395000D01*
X1380000Y3795000D02*
Y3825000D01*
X1330263Y3549370D02*
X1360262D01*
X1345262Y3534370D02*
Y3564370D01*
X1095000Y3975000D02*
X1125000D01*
X1110000Y3960000D02*
Y3990000D01*
X1065000Y3785691D02*
X1095000D01*
X1080000Y3770691D02*
Y3800691D01*
X2855000Y2850000D02*
X2885000D01*
X2870000Y2835000D02*
Y2865000D01*
X2612781Y2832218D02*
X2642781D01*
X2627781Y2817218D02*
Y2847218D01*
X2964343Y1278339D02*
X2994343D01*
X2979343Y1263339D02*
Y1293339D01*
X2929474Y1976712D02*
X2959474D01*
X2944474Y1961712D02*
Y1991712D01*
X2883937Y514071D02*
X2913937D01*
X2898937Y499071D02*
Y529071D01*
X2647366Y277500D02*
X2677366D01*
X2662366Y262500D02*
Y292500D01*
X2075000Y2920000D02*
X2105000D01*
X2090000Y2905000D02*
Y2935000D01*
X1630189Y2922773D02*
X1660189D01*
X1645189Y2907773D02*
Y2937773D01*
X1285000Y2892500D02*
X1315000D01*
X1300000Y2877500D02*
Y2907500D01*
X735000Y2840000D02*
X765000D01*
X750000Y2825000D02*
Y2855000D01*
X2440800Y2152501D02*
X2470800D01*
X2455800Y2137501D02*
Y2167501D01*
X2285000Y1950000D02*
X2315000D01*
X2300000Y1935000D02*
Y1965000D01*
X2058702Y2548797D02*
X2088702D01*
X2073702Y2533797D02*
Y2563797D01*
X845554Y2591659D02*
X875554D01*
X860554Y2576659D02*
Y2606659D01*
X1275141Y625140D02*
X1305141D01*
X1290141Y610141D02*
Y640140D01*
X4360295Y2212145D02*
X4390295D01*
X4375295Y2197145D02*
Y2227145D01*
X3322316Y950323D02*
X3352316D01*
X3337316Y935323D02*
Y965323D01*
X2938999Y977929D02*
X2968999D01*
X2953999Y962929D02*
Y992929D01*
X2610000Y900000D02*
X2640000D01*
X2625000Y885000D02*
Y915000D01*
X2669554Y695809D02*
X2699554D01*
X2684554Y680809D02*
Y710809D01*
X3047500Y620000D02*
X3077500D01*
X3062500Y605000D02*
Y635000D01*
X2618157Y3150451D02*
X2648157D01*
X2633157Y3135451D02*
Y3165451D01*
X3752500Y1392500D02*
X3782500D01*
X3767500Y1377500D02*
Y1407500D01*
X3725343Y852095D02*
X3755343D01*
X3740343Y837095D02*
Y867095D01*
X4035029Y3495828D02*
X4065029D01*
X4050029Y3480828D02*
Y3510828D01*
X4137500Y377500D02*
X4167500D01*
X4152500Y362500D02*
Y392500D01*
X2414525Y2677500D02*
X2444525D01*
X2429525Y2662500D02*
Y2692500D01*
X582929Y2407071D02*
X612929D01*
X597929Y2392071D02*
Y2422071D01*
X777601Y2405061D02*
X807601D01*
X792601Y2390061D02*
Y2420061D01*
X725000Y2451246D02*
X755000D01*
X740000Y2436246D02*
Y2466246D01*
X683608Y3503608D02*
X713608D01*
X698608Y3488608D02*
Y3518608D01*
X752500Y3645001D02*
X782500D01*
X767500Y3630001D02*
Y3660001D01*
X2075000Y4332500D02*
X2105000D01*
X2090000Y4317500D02*
Y4347500D01*
X2077500Y4442500D02*
X2107500D01*
X2092500Y4427500D02*
Y4457500D01*
X5075000Y4152500D02*
X5105000D01*
X5090000Y4137500D02*
Y4167500D01*
X1370414Y3734304D02*
X1400414D01*
X1385414Y3719304D02*
Y3749304D01*
X1342500Y3325000D02*
X1372500D01*
X1357500Y3310000D02*
Y3340000D01*
X1050000Y4860000D02*
X1080000D01*
X1065000Y4845000D02*
Y4875000D01*
X4663565Y4621065D02*
X4693565D01*
X4678565Y4606065D02*
Y4636065D01*
X2915000Y3625000D02*
X2945000D01*
X2930000Y3610000D02*
Y3640000D01*
X5022500Y2727500D02*
X5052500D01*
X5037500Y2712500D02*
Y2742500D01*
X3067500Y1952500D02*
X3097500D01*
X3082500Y1937500D02*
Y1967500D01*
X3467500Y2825000D02*
X3497500D01*
X3482500Y2810000D02*
Y2840000D01*
X4957500Y4065000D02*
X4987500D01*
X4972500Y4050000D02*
Y4080000D01*
X4435000Y3702500D02*
X4465000D01*
X4450000Y3687500D02*
Y3717500D01*
X4286846Y4137339D02*
X4316846D01*
X4301846Y4122339D02*
Y4152339D01*
X2775000Y1755000D02*
X2795000D01*
X2785000Y1745000D02*
Y1765000D01*
X2675000Y1740000D02*
X2695000D01*
X2685000Y1730000D02*
Y1750000D01*
X2822500Y2525000D02*
X2852500D01*
X2837500Y2510000D02*
Y2540000D01*
X4225000Y375000D02*
X4255000D01*
X4240000Y360000D02*
Y390000D01*
X3835000Y350000D02*
X3865000D01*
X3850000Y335000D02*
Y365000D01*
X4072500Y450000D02*
X4102500D01*
X4087500Y435000D02*
Y465000D01*
X4595800Y4180000D02*
X4625800D01*
X4610800Y4165000D02*
Y4195000D01*
X4390000Y2875208D02*
X4420000D01*
X4405000Y2860208D02*
Y2890208D01*
X3792500Y3495000D02*
X3822500D01*
X3807500Y3480000D02*
Y3510000D01*
X4340000Y3090000D02*
X4370000D01*
X4355000Y3075000D02*
Y3105000D01*
X4035000Y3092500D02*
X4065000D01*
X4050000Y3077500D02*
Y3107500D01*
X4360000Y2665619D02*
X4390000D01*
X4375000Y2650619D02*
Y2680619D01*
X4345000Y2555619D02*
X4375000D01*
X4360000Y2540619D02*
Y2570619D01*
X4505000Y2225000D02*
X4535000D01*
X4520000Y2210000D02*
Y2240000D01*
X5380000Y500000D02*
X5410000D01*
X5395000Y485000D02*
Y515000D01*
X4007300Y1594752D02*
X4037300D01*
X4022300Y1579752D02*
Y1609752D01*
X2857500Y4230387D02*
X2887500D01*
X2872500Y4215387D02*
Y4245387D01*
X2622500Y3613871D02*
X2652500D01*
X2637500Y3598871D02*
Y3628871D01*
X2469159Y3887965D02*
X2499159D01*
X2484159Y3872965D02*
Y3902965D01*
X2250000Y2482500D02*
X2280000D01*
X2265000Y2467500D02*
Y2497500D01*
X2302500Y1651659D02*
X2332500D01*
X2317500Y1636659D02*
Y1666659D01*
X2185000Y600000D02*
X2215000D01*
X2200000Y585000D02*
Y615000D01*
X4930000Y3092500D02*
X4960000D01*
X4945000Y3077500D02*
Y3107500D01*
X4865000Y3540000D02*
X4895000D01*
X4880000Y3525000D02*
Y3555000D01*
X352707Y4197446D02*
X382707D01*
X367707Y4182446D02*
Y4212446D01*
X547500Y4212500D02*
X577500D01*
X562500Y4197500D02*
Y4227500D01*
X462500Y4225000D02*
X492500D01*
X477500Y4210000D02*
Y4240000D01*
X295281Y4560281D02*
X325281D01*
X310281Y4545281D02*
Y4575281D01*
X1375000Y3920000D02*
X1405000D01*
X1390000Y3905000D02*
Y3935000D01*
X1287500Y4357500D02*
X1317500D01*
X1302500Y4342500D02*
Y4372500D01*
X2820000Y2375000D02*
X2850000D01*
X2835000Y2360000D02*
Y2390000D01*
X1667500Y3635000D02*
X1697500D01*
X1682500Y3620000D02*
Y3650000D01*
X1750000Y3342500D02*
X1780000D01*
X1765000Y3327500D02*
Y3357500D01*
X3892500Y3392500D02*
X3922500D01*
X3907500Y3377500D02*
Y3407500D01*
X3477500Y3192500D02*
X3507500D01*
X3492500Y3177500D02*
Y3207500D01*
X737500Y3390000D02*
X767500D01*
X752500Y3375000D02*
Y3405000D01*
X1372500Y2835000D02*
X1402500D01*
X1387500Y2820000D02*
Y2850000D01*
X3226882Y1325000D02*
X3256882D01*
X3241882Y1310000D02*
Y1340000D01*
X2605000Y1307500D02*
X2635000D01*
X2620000Y1292500D02*
Y1322500D01*
X941066Y2356066D02*
X971066D01*
X956066Y2341066D02*
Y2371066D01*
X1148003Y3425195D02*
X1178003D01*
X1163003Y3410195D02*
Y3440195D01*
X707500Y2920001D02*
X737500D01*
X722500Y2905001D02*
Y2935000D01*
X1176952Y3548647D02*
X1206952D01*
X1191952Y3533647D02*
Y3563647D01*
X840663Y2910168D02*
X870662D01*
X855663Y2895168D02*
Y2925168D01*
X2336934Y3030523D02*
X2366934D01*
X2351934Y3015523D02*
Y3045522D01*
X1787500Y2907500D02*
X1817500D01*
X1802500Y2892500D02*
Y2922500D01*
X3550000Y4047500D02*
X3580000D01*
X3565000Y4032500D02*
Y4062500D01*
X2713467Y3678467D02*
X2743467D01*
X2728467Y3663467D02*
Y3693467D01*
X3955000Y4692500D02*
X3975000D01*
X3965000Y4682500D02*
Y4702500D01*
X1985000Y4210000D02*
X2015000D01*
X2000000Y4195000D02*
Y4225000D01*
X892800Y4111851D02*
X922800D01*
X907800Y4096851D02*
Y4126851D01*
X1515000Y4859000D02*
X1545000D01*
X1530000Y4844000D02*
Y4874000D01*
X1755000Y4600000D02*
X1785000D01*
X1770000Y4585000D02*
Y4615000D01*
X2245000Y4558028D02*
X2275000D01*
X2260000Y4543028D02*
Y4573028D01*
X2275000Y4667552D02*
X2305000D01*
X2290000Y4652552D02*
Y4682552D01*
X1142297Y4887930D02*
X1172297D01*
X1157297Y4872930D02*
Y4902930D01*
X2327500Y4162500D02*
X2357500D01*
X2342500Y4147500D02*
Y4177500D01*
X2352500Y4420000D02*
X2382500D01*
X2367500Y4405000D02*
Y4435000D01*
X1065145Y3627300D02*
X1095145D01*
X1080145Y3612300D02*
Y3642300D01*
X855000Y2402500D02*
X885000D01*
X870000Y2387500D02*
Y2417500D01*
X2495291Y4643149D02*
X2525291D01*
X2510291Y4628149D02*
Y4658149D01*
X2611049Y4650000D02*
X2641049D01*
X2626049Y4635000D02*
Y4665000D01*
X5147175Y2952825D02*
X5177175D01*
X5162175Y2937825D02*
Y2967825D01*
X5171003Y3203096D02*
X5201003D01*
X5186003Y3188096D02*
Y3218096D01*
X5171618Y2729036D02*
X5201618D01*
X5186618Y2714036D02*
Y2744036D01*
X3402500Y2632500D02*
X3432500D01*
X3417500Y2617500D02*
Y2647500D01*
X3937500D02*
X3967500D01*
X3952500Y2632500D02*
Y2662500D01*
X4637500Y2860000D02*
X4667500D01*
X4652500Y2845000D02*
Y2875000D01*
X4685000Y2050000D02*
X4715000D01*
X4700000Y2035000D02*
Y2065000D01*
X5205000Y2067500D02*
X5235000D01*
X5220000Y2052500D02*
Y2082500D01*
X5047500Y2460000D02*
X5077500D01*
X5062500Y2445000D02*
Y2475000D01*
X3400004Y4007504D02*
X3430004D01*
X3415004Y3992504D02*
Y4022504D01*
X1485000Y2237500D02*
X1515000D01*
X1500000Y2222501D02*
Y2252500D01*
X3385000Y2905000D02*
X3415000D01*
X3400000Y2890000D02*
Y2920000D01*
X3587500Y3200000D02*
X3617500D01*
X3602500Y3185000D02*
Y3215000D01*
X3850000Y4160000D02*
X3880000D01*
X3865000Y4145000D02*
Y4175000D01*
X885000Y2200000D02*
X915000D01*
X900000Y2185000D02*
Y2215000D01*
X3490000Y4607500D02*
X3520000D01*
X3505000Y4592500D02*
Y4622500D01*
X3492500Y4510000D02*
X3522500D01*
X3507500Y4495000D02*
Y4525000D01*
X2382500Y1699410D02*
X2412500D01*
X2397500Y1684410D02*
Y1714410D01*
X5427165Y372835D02*
X5457165D01*
X5442165Y357835D02*
Y387835D01*
X1375000Y1096100D02*
X1405000D01*
X1390000Y1081100D02*
Y1111100D01*
X5145000Y1240000D02*
X5175000D01*
X5160000Y1225000D02*
Y1255000D01*
X975306Y4711582D02*
X1005306D01*
X990306Y4696582D02*
Y4726582D01*
X702500Y3955000D02*
X732500D01*
X717500Y3940000D02*
Y3970000D01*
%TF.MD5,d14b04d25319bc987dfb65365e79e15b*%
M02*
