G04*
G04 #@! TF.GenerationSoftware,Altium Limited,Altium Designer,26.6.0 (10)*
G04*
G04 Layer_Color=32768*
G04 Board_Origin=29350000|14702756*
%FSLAX44Y44*%
%MOMM*%
G71*
G04*
G04 #@! TF.SameCoordinates,4A6F4C04-391A-4FDC-A87F-652DF65B7CFD*
G04*
G04*
G04 #@! TF.FilePolarity,Positive*
G04*
G01*
G75*
%ADD12C,0.2000*%
D12*
X325146Y84500D02*
X374854D01*
X325146Y45500D02*
Y84500D01*
X374854Y45500D02*
Y84500D01*
X325146Y45500D02*
X374854D01*
X345000Y65000D02*
X355000D01*
X350000Y60000D02*
Y70000D01*
X83000Y425000D02*
X211000D01*
X83000Y297000D02*
X211000D01*
Y425000D01*
X83000Y297000D02*
Y425000D01*
X147000Y356000D02*
Y366000D01*
X142000Y361000D02*
X152000D01*
X175000Y104947D02*
Y114947D01*
X170000Y109947D02*
X180000D01*
X170000Y160000D02*
X180000D01*
X175000Y155000D02*
Y165000D01*
X162500Y139000D02*
Y181000D01*
X187500Y139000D02*
Y181000D01*
X162500Y139000D02*
X187500D01*
X162500Y181000D02*
X187500D01*
X96250Y459500D02*
Y465500D01*
X93250Y462500D02*
X99250D01*
X88750Y458500D02*
X103750D01*
X88750Y466500D02*
X103750D01*
X88750Y458500D02*
Y466500D01*
X103750Y458500D02*
Y466500D01*
X161000Y45000D02*
Y55000D01*
X156000Y50000D02*
X166000D01*
X143000Y41110D02*
X179000D01*
X143000Y58890D02*
X179000D01*
Y41110D02*
Y58890D01*
X143000Y41110D02*
Y58890D01*
X257500Y78770D02*
Y143770D01*
X192500D02*
X257500D01*
X192500Y78770D02*
Y143770D01*
Y78770D02*
X257500D01*
X120250Y143000D02*
X159750D01*
X120250Y67000D02*
Y143000D01*
Y67000D02*
X159750D01*
Y143000D01*
X140000Y100000D02*
Y110000D01*
X135000Y105000D02*
X145000D01*
X506500Y294400D02*
Y304400D01*
X501500Y299400D02*
X511500D01*
X469500Y253150D02*
X543500D01*
X469500Y345650D02*
X543500D01*
Y253150D02*
Y345650D01*
X469500Y253150D02*
Y345650D01*
X212500Y401500D02*
X227500D01*
X212500Y428500D02*
X227500D01*
X212500Y401500D02*
Y428500D01*
X227500Y401500D02*
Y428500D01*
X220000Y410250D02*
Y419750D01*
X215250Y415000D02*
X224750D01*
X166000Y25000D02*
X169000D01*
X163000D02*
X166000D01*
Y28000D01*
Y22000D02*
Y25000D01*
X190000Y14000D02*
Y36000D01*
X142000D02*
X190000D01*
X142000Y14000D02*
Y36000D01*
Y14000D02*
X190000D01*
X246250Y35000D02*
Y38000D01*
Y32000D02*
Y35000D01*
X243250D02*
X246250D01*
X249250D01*
X229250Y43000D02*
X263250D01*
Y27000D02*
Y43000D01*
X229250Y27000D02*
X263250D01*
X229250D02*
Y43000D01*
X5300Y439000D02*
Y471000D01*
X59700Y439000D02*
Y471000D01*
X5300Y439000D02*
X59700D01*
X5300Y471000D02*
X59700D01*
X27500Y455000D02*
X37500D01*
X32500Y450000D02*
Y460000D01*
X10000Y85900D02*
X104000D01*
X10000Y86000D02*
Y176000D01*
X104000Y85900D02*
Y176000D01*
X10000D02*
X104000D01*
X292000Y177500D02*
Y192500D01*
X265000Y177500D02*
Y192500D01*
Y177500D02*
X292000D01*
X265000Y192500D02*
X292000D01*
X273750Y185000D02*
X283250D01*
X278500Y180250D02*
Y189750D01*
X293475Y465975D02*
X302975D01*
X298225Y461225D02*
Y470725D01*
X290725Y452475D02*
Y479475D01*
X305725Y452475D02*
Y479475D01*
X290725Y452475D02*
X305725D01*
X290725Y479475D02*
X305725D01*
X293250Y430000D02*
X302750D01*
X298000Y425250D02*
Y434750D01*
X290500Y416500D02*
Y443500D01*
X305500Y416500D02*
Y443500D01*
X290500Y416500D02*
X305500D01*
X290500Y443500D02*
X305500D01*
X598500Y397500D02*
Y412500D01*
X571500Y397500D02*
Y412500D01*
X598500D01*
X571500Y397500D02*
X598500D01*
X580250Y405000D02*
X589750D01*
X585000Y400250D02*
Y409750D01*
X294250Y393000D02*
X303750D01*
X299000Y388250D02*
Y397750D01*
X306500Y379500D02*
Y406500D01*
X291500Y379500D02*
Y406500D01*
X306500D01*
X291500Y379500D02*
X306500D01*
X229000Y47000D02*
Y63000D01*
Y47000D02*
X263000D01*
Y63000D01*
X229000D02*
X263000D01*
X246000Y55000D02*
X249000D01*
X243000D02*
X246000D01*
Y52000D02*
Y55000D01*
Y58000D01*
X361000Y363500D02*
Y378500D01*
X334000Y363500D02*
Y378500D01*
Y363500D02*
X361000D01*
X334000Y378500D02*
X361000D01*
X342750Y371000D02*
X352250D01*
X347500Y366250D02*
Y375750D01*
X601000Y315000D02*
Y330000D01*
X574000Y315000D02*
Y330000D01*
X601000D01*
X574000Y315000D02*
X601000D01*
X582750Y322500D02*
X592250D01*
X587500Y317750D02*
Y327250D01*
Y232750D02*
Y242250D01*
X582750Y237500D02*
X592250D01*
X574000Y230000D02*
X601000D01*
X574000Y245000D02*
X601000D01*
X574000Y230000D02*
Y245000D01*
X601000Y230000D02*
Y245000D01*
Y147500D02*
Y162500D01*
X574000Y147500D02*
Y162500D01*
X601000D01*
X574000Y147500D02*
X601000D01*
X582750Y155000D02*
X592250D01*
X587500Y150250D02*
Y159750D01*
X436250Y466000D02*
X445750D01*
X441000Y461250D02*
Y470750D01*
X448500Y452500D02*
Y479500D01*
X433500Y452500D02*
Y479500D01*
X448500D01*
X433500Y452500D02*
X448500D01*
X433500Y440500D02*
X448500D01*
X433500Y413500D02*
X448500D01*
Y440500D01*
X433500Y413500D02*
Y440500D01*
X441000Y422250D02*
Y431750D01*
X436250Y427000D02*
X445750D01*
X434500Y402000D02*
X449500D01*
X434500Y375000D02*
X449500D01*
Y402000D01*
X434500Y375000D02*
Y402000D01*
X442000Y383750D02*
Y393250D01*
X437250Y388500D02*
X446750D01*
X591000Y72500D02*
Y87500D01*
X564000Y72500D02*
Y87500D01*
X591000D01*
X564000Y72500D02*
X591000D01*
X572750Y80000D02*
X582250D01*
X577500Y75250D02*
Y84750D01*
X525000Y364500D02*
Y379500D01*
X498000Y364500D02*
Y379500D01*
Y364500D02*
X525000D01*
X498000Y379500D02*
X525000D01*
X506750Y372000D02*
X516250D01*
X511500Y367250D02*
Y376750D01*
X431000Y397500D02*
Y412500D01*
X404000Y397500D02*
Y412500D01*
X431000D01*
X404000Y397500D02*
X431000D01*
X412750Y405000D02*
X422250D01*
X417500Y400250D02*
Y409750D01*
X433500Y315000D02*
Y330000D01*
X406500Y315000D02*
Y330000D01*
X433500D01*
X406500Y315000D02*
X433500D01*
X415250Y322500D02*
X424750D01*
X420000Y317750D02*
Y327250D01*
X421000Y230000D02*
Y245000D01*
X394000Y230000D02*
Y245000D01*
X421000D01*
X394000Y230000D02*
X421000D01*
X402750Y237500D02*
X412250D01*
X407500Y232750D02*
Y242250D01*
X293500Y318000D02*
X308500D01*
X293500Y345000D02*
X308500D01*
X293500Y318000D02*
Y345000D01*
X308500Y318000D02*
Y345000D01*
X301000Y326750D02*
Y336250D01*
X296250Y331500D02*
X305750D01*
X293500Y278500D02*
X308500D01*
X293500Y305500D02*
X308500D01*
X293500Y278500D02*
Y305500D01*
X308500Y278500D02*
Y305500D01*
X301000Y287250D02*
Y296750D01*
X296250Y292000D02*
X305750D01*
X292500Y240500D02*
X307500D01*
X292500Y267500D02*
X307500D01*
X292500Y240500D02*
Y267500D01*
X307500Y240500D02*
Y267500D01*
X300000Y249250D02*
Y258750D01*
X295250Y254000D02*
X304750D01*
X391000Y145000D02*
Y160000D01*
X364000Y145000D02*
Y160000D01*
X391000D01*
X364000Y145000D02*
X391000D01*
X372750Y152500D02*
X382250D01*
X377500Y147750D02*
Y157250D01*
X369250Y221000D02*
Y236000D01*
X342250Y221000D02*
Y236000D01*
Y221000D02*
X369250D01*
X342250Y236000D02*
X369250D01*
X351000Y228500D02*
X360500D01*
X355750Y223750D02*
Y233250D01*
X392000Y60000D02*
Y75000D01*
X365000Y60000D02*
Y75000D01*
X392000D01*
X365000Y60000D02*
X392000D01*
X373750Y67500D02*
X383250D01*
X378500Y62750D02*
Y72250D01*
X261000Y397500D02*
Y412500D01*
X234000Y397500D02*
Y412500D01*
X261000D01*
X234000Y397500D02*
X261000D01*
X242750Y405000D02*
X252250D01*
X247500Y400250D02*
Y409750D01*
X258500Y315000D02*
Y330000D01*
X231500Y315000D02*
Y330000D01*
X258500D01*
X231500Y315000D02*
X258500D01*
X240250Y322500D02*
X249750D01*
X245000Y317750D02*
Y327250D01*
X442500Y308000D02*
X457500D01*
X442500Y335000D02*
X457500D01*
X442500Y308000D02*
Y335000D01*
X457500Y308000D02*
Y335000D01*
X450000Y316750D02*
Y326250D01*
X445250Y321500D02*
X454750D01*
X444250Y270000D02*
X459250D01*
X444250Y297000D02*
X459250D01*
X444250Y270000D02*
Y297000D01*
X459250Y270000D02*
Y297000D01*
X451750Y278750D02*
Y288250D01*
X447000Y283500D02*
X456500D01*
X443500Y231000D02*
X458500D01*
X443500Y258000D02*
X458500D01*
X443500Y231000D02*
Y258000D01*
X458500Y231000D02*
Y258000D01*
X451000Y239750D02*
Y249250D01*
X446250Y244500D02*
X455750D01*
X248000Y229500D02*
Y244500D01*
X221000Y229500D02*
Y244500D01*
X248000D01*
X221000Y229500D02*
X248000D01*
X229750Y237000D02*
X239250D01*
X234500Y232250D02*
Y241750D01*
X508500Y238500D02*
Y253500D01*
X535500Y238500D02*
Y253500D01*
X508500D02*
X535500D01*
X508500Y238500D02*
X535500D01*
X517250Y246000D02*
X526750D01*
X522000Y241250D02*
Y250750D01*
X223500Y144500D02*
Y159500D01*
X196500Y144500D02*
Y159500D01*
X223500D01*
X196500Y144500D02*
X223500D01*
X205250Y152000D02*
X214750D01*
X210000Y147250D02*
Y156750D01*
X211000Y60000D02*
Y75000D01*
X184000Y60000D02*
Y75000D01*
X211000D01*
X184000Y60000D02*
X211000D01*
X192750Y67500D02*
X202250D01*
X197500Y62750D02*
Y72250D01*
X87500Y372500D02*
Y387500D01*
X60500Y372500D02*
Y387500D01*
X87500D01*
X60500Y372500D02*
X87500D01*
X69250Y380000D02*
X78750D01*
X74000Y375250D02*
Y384750D01*
X156750Y276500D02*
Y286000D01*
X152000Y281250D02*
X161500D01*
X143250Y273750D02*
X170250D01*
X143250Y288750D02*
X170250D01*
Y273750D02*
Y288750D01*
X143250Y273750D02*
Y288750D01*
X171500Y431500D02*
Y446500D01*
X144500Y431500D02*
Y446500D01*
Y431500D02*
X171500D01*
X144500Y446500D02*
X171500D01*
X153250Y439000D02*
X162750D01*
X158000Y434250D02*
Y443750D01*
X214500Y292500D02*
X229500D01*
X214500Y319500D02*
X229500D01*
X214500Y292500D02*
Y319500D01*
X229500Y292500D02*
Y319500D01*
X222000Y301250D02*
Y310750D01*
X217250Y306000D02*
X226750D01*
X217750Y371750D02*
X232750D01*
X217750Y398750D02*
X232750D01*
X217750Y371750D02*
Y398750D01*
X232750Y371750D02*
Y398750D01*
X225250Y380500D02*
Y390000D01*
X220500Y385250D02*
X230000D01*
X515000Y450000D02*
Y460000D01*
X510000Y455000D02*
X520000D01*
X487800Y471000D02*
X542200D01*
X487800Y439000D02*
X542200D01*
Y471000D01*
X487800Y439000D02*
Y471000D01*
X512500Y367500D02*
Y377500D01*
X507500Y372500D02*
X517500D01*
X485300Y388500D02*
X539700D01*
X485300Y356500D02*
X539700D01*
Y388500D01*
X485300Y356500D02*
Y388500D01*
X512500Y282500D02*
Y292500D01*
X507500Y287500D02*
X517500D01*
X485300Y303500D02*
X539700D01*
X485300Y271500D02*
X539700D01*
Y303500D01*
X485300Y271500D02*
Y303500D01*
X487800Y186500D02*
Y218500D01*
X542200Y186500D02*
Y218500D01*
X487800Y186500D02*
X542200D01*
X487800Y218500D02*
X542200D01*
X510000Y202500D02*
X520000D01*
X515000Y197500D02*
Y207500D01*
X487800Y106500D02*
Y138500D01*
X542200Y106500D02*
Y138500D01*
X487800Y106500D02*
X542200D01*
X487800Y138500D02*
X542200D01*
X510000Y122500D02*
X520000D01*
X515000Y117500D02*
Y127500D01*
X345000Y447500D02*
Y457500D01*
X340000Y452500D02*
X350000D01*
X317800Y468500D02*
X372200D01*
X317800Y436500D02*
X372200D01*
Y468500D01*
X317800Y436500D02*
Y468500D01*
X344850Y365000D02*
Y375000D01*
X339850Y370000D02*
X349850D01*
X317650Y386000D02*
X372050D01*
X317650Y354000D02*
X372050D01*
Y386000D01*
X317650Y354000D02*
Y386000D01*
X345000Y280000D02*
Y290000D01*
X340000Y285000D02*
X350000D01*
X317800Y301000D02*
X372200D01*
X317800Y269000D02*
X372200D01*
Y301000D01*
X317800Y269000D02*
Y301000D01*
X302500Y195000D02*
Y205000D01*
X297500Y200000D02*
X307500D01*
X275300Y216000D02*
X329700D01*
X275300Y184000D02*
X329700D01*
Y216000D01*
X275300Y184000D02*
Y216000D01*
X305000Y112500D02*
Y122500D01*
X300000Y117500D02*
X310000D01*
X277800Y133500D02*
X332200D01*
X277800Y101500D02*
X332200D01*
Y133500D01*
X277800Y101500D02*
Y133500D01*
X175000Y449750D02*
Y459750D01*
X170000Y454750D02*
X180000D01*
X147800Y470750D02*
X202200D01*
X147800Y438750D02*
X202200D01*
Y470750D01*
X147800Y438750D02*
Y470750D01*
X176250Y367500D02*
Y377500D01*
X171250Y372500D02*
X181250D01*
X149050Y388500D02*
X203450D01*
X149050Y356500D02*
X203450D01*
Y388500D01*
X149050Y356500D02*
Y388500D01*
X147800Y270000D02*
Y302000D01*
X202200Y270000D02*
Y302000D01*
X147800Y270000D02*
X202200D01*
X147800Y302000D02*
X202200D01*
X170000Y286000D02*
X180000D01*
X175000Y281000D02*
Y291000D01*
X112800Y186500D02*
Y218500D01*
X167200Y186500D02*
Y218500D01*
X112800Y186500D02*
X167200D01*
X112800Y218500D02*
X167200D01*
X135000Y202500D02*
X145000D01*
X140000Y197500D02*
Y207500D01*
X112800Y99000D02*
Y131000D01*
X167200Y99000D02*
Y131000D01*
X112800Y99000D02*
X167200D01*
X112800Y131000D02*
X167200D01*
X135000Y115000D02*
X145000D01*
X140000Y110000D02*
Y120000D01*
X-200000Y170000D02*
X-39000D01*
X-200000Y86000D02*
X-39000D01*
Y170000D01*
X-200000Y86000D02*
Y170000D01*
X621250Y459500D02*
Y465500D01*
X618250Y462500D02*
X624250D01*
X613750Y458500D02*
X628750D01*
X613750Y466500D02*
X628750D01*
X613750Y458500D02*
Y466500D01*
X628750Y458500D02*
Y466500D01*
X617500Y377000D02*
Y383000D01*
X614500Y380000D02*
X620500D01*
X610000Y376000D02*
X625000D01*
X610000Y384000D02*
X625000D01*
X610000Y376000D02*
Y384000D01*
X625000Y376000D02*
Y384000D01*
X622500Y291000D02*
Y299000D01*
X607500Y291000D02*
Y299000D01*
X622500D01*
X607500Y291000D02*
X622500D01*
X612000Y295000D02*
X618000D01*
X615000Y292000D02*
Y298000D01*
X617500Y209500D02*
Y215500D01*
X614500Y212500D02*
X620500D01*
X610000Y216500D02*
X625000D01*
X610000Y208500D02*
X625000D01*
Y216500D01*
X610000Y208500D02*
Y216500D01*
X615000Y127000D02*
Y133000D01*
X612000Y130000D02*
X618000D01*
X607500Y126000D02*
X622500D01*
X607500Y134000D02*
X622500D01*
X607500Y126000D02*
Y134000D01*
X622500Y126000D02*
Y134000D01*
X451500Y462000D02*
Y470000D01*
X436500Y462000D02*
Y470000D01*
X451500D01*
X436500Y462000D02*
X451500D01*
X441000Y466000D02*
X447000D01*
X444000Y463000D02*
Y469000D01*
X446250Y377000D02*
Y383000D01*
X443250Y380000D02*
X449250D01*
X438750Y376000D02*
X453750D01*
X438750Y384000D02*
X453750D01*
X438750Y376000D02*
Y384000D01*
X453750Y376000D02*
Y384000D01*
X448750Y292000D02*
Y298000D01*
X445750Y295000D02*
X451750D01*
X441250Y291000D02*
X456250D01*
X441250Y299000D02*
X456250D01*
X441250Y291000D02*
Y299000D01*
X456250Y291000D02*
Y299000D01*
X408750Y207000D02*
Y213000D01*
X405750Y210000D02*
X411750D01*
X401250Y206000D02*
X416250D01*
X401250Y214000D02*
X416250D01*
X401250Y206000D02*
Y214000D01*
X416250Y206000D02*
Y214000D01*
X420000Y127000D02*
Y133000D01*
X417000Y130000D02*
X423000D01*
X412500Y126000D02*
X427500D01*
X412500Y134000D02*
X427500D01*
X412500Y126000D02*
Y134000D01*
X427500Y126000D02*
Y134000D01*
X276250Y459500D02*
Y465500D01*
X273250Y462500D02*
X279250D01*
X268750Y458500D02*
X283750D01*
X268750Y466500D02*
X283750D01*
X268750Y458500D02*
Y466500D01*
X283750Y458500D02*
Y466500D01*
X268750Y377000D02*
Y383000D01*
X265750Y380000D02*
X271750D01*
X261250Y376000D02*
X276250D01*
X261250Y384000D02*
X276250D01*
X261250Y376000D02*
Y384000D01*
X276250Y376000D02*
Y384000D01*
X271000Y292000D02*
Y298000D01*
X268000Y295000D02*
X274000D01*
X263500Y291000D02*
X278500D01*
X263500Y299000D02*
X278500D01*
X263500Y291000D02*
Y299000D01*
X278500Y291000D02*
Y299000D01*
X228750Y208000D02*
Y214000D01*
X225750Y211000D02*
X231750D01*
X221250Y207000D02*
X236250D01*
X221250Y215000D02*
X236250D01*
X221250Y207000D02*
Y215000D01*
X236250Y207000D02*
Y215000D01*
X227500Y122000D02*
Y128000D01*
X224500Y125000D02*
X230500D01*
X220000Y121000D02*
X235000D01*
X220000Y129000D02*
X235000D01*
X220000Y121000D02*
Y129000D01*
X235000Y121000D02*
Y129000D01*
X345000Y433000D02*
Y443000D01*
X340000Y438000D02*
X350000D01*
X308000Y391750D02*
X382000D01*
X308000Y484250D02*
X382000D01*
Y391750D02*
Y484250D01*
X308000Y391750D02*
Y484250D01*
X508000Y436000D02*
Y446000D01*
X503000Y441000D02*
X513000D01*
X471000Y394750D02*
X545000D01*
X471000Y487250D02*
X545000D01*
Y394750D02*
Y487250D01*
X471000Y394750D02*
Y487250D01*
X316000Y246750D02*
Y339250D01*
X390000Y246750D02*
Y339250D01*
X316000D02*
X390000D01*
X316000Y246750D02*
X390000D01*
X348000Y293000D02*
X358000D01*
X353000Y288000D02*
Y298000D01*
M02*
