G04*
G04 #@! TF.GenerationSoftware,Altium Limited,Altium Designer,26.6.0 (10)*
G04*
G04 Layer_Color=32896*
G04 Board_Origin=29350000|14702756*
%FSLAX44Y44*%
%MOMM*%
G71*
G04*
G04 #@! TF.SameCoordinates,4A6F4C04-391A-4FDC-A87F-652DF65B7CFD*
G04*
G04*
G04 #@! TF.FilePolarity,Positive*
G04*
G01*
G75*
G36*
X417270Y422246D02*
X414274D01*
X414280Y422240D01*
X414302Y422213D01*
X414335Y422179D01*
X414374Y422124D01*
X414424Y422063D01*
X414479Y421986D01*
X414540Y421897D01*
X414601Y421797D01*
Y421792D01*
X414607Y421786D01*
X414629Y421753D01*
X414656Y421698D01*
X414690Y421631D01*
X414728Y421554D01*
X414767Y421471D01*
X414806Y421388D01*
X414839Y421305D01*
X414385D01*
Y421310D01*
X414374Y421321D01*
X414369Y421343D01*
X414352Y421371D01*
X414335Y421404D01*
X414313Y421443D01*
X414258Y421537D01*
X414197Y421648D01*
X414119Y421759D01*
X414031Y421875D01*
X413937Y421991D01*
X413931Y421997D01*
X413926Y422002D01*
X413909Y422019D01*
X413892Y422041D01*
X413837Y422091D01*
X413770Y422157D01*
X413693Y422224D01*
X413604Y422296D01*
X413516Y422357D01*
X413422Y422412D01*
Y422717D01*
X417270D01*
Y422246D01*
D02*
G37*
G36*
X416223Y420474D02*
X416268Y420468D01*
X416318Y420457D01*
X416373Y420446D01*
X416434Y420435D01*
X416567Y420391D01*
X416639Y420358D01*
X416705Y420325D01*
X416777Y420280D01*
X416849Y420230D01*
X416921Y420175D01*
X416988Y420109D01*
X416993Y420103D01*
X417004Y420092D01*
X417021Y420070D01*
X417043Y420042D01*
X417071Y420009D01*
X417098Y419965D01*
X417132Y419915D01*
X417159Y419854D01*
X417192Y419793D01*
X417226Y419721D01*
X417253Y419649D01*
X417281Y419566D01*
X417303Y419477D01*
X417320Y419383D01*
X417331Y419289D01*
X417337Y419184D01*
Y419134D01*
X417331Y419101D01*
X417325Y419057D01*
X417320Y419007D01*
X417309Y418951D01*
X417298Y418890D01*
X417265Y418758D01*
X417209Y418619D01*
X417176Y418547D01*
X417137Y418481D01*
X417087Y418414D01*
X417037Y418348D01*
X417032Y418342D01*
X417021Y418331D01*
X417004Y418315D01*
X416982Y418298D01*
X416954Y418270D01*
X416916Y418242D01*
X416877Y418209D01*
X416827Y418176D01*
X416772Y418143D01*
X416716Y418110D01*
X416583Y418049D01*
X416428Y417999D01*
X416345Y417982D01*
X416257Y417971D01*
X416196Y418442D01*
X416201D01*
X416212Y418447D01*
X416235Y418453D01*
X416262Y418459D01*
X416296Y418464D01*
X416334Y418475D01*
X416417Y418503D01*
X416517Y418542D01*
X416611Y418591D01*
X416700Y418647D01*
X416777Y418713D01*
X416783Y418724D01*
X416805Y418746D01*
X416833Y418791D01*
X416860Y418846D01*
X416894Y418913D01*
X416921Y418996D01*
X416943Y419090D01*
X416949Y419189D01*
Y419223D01*
X416943Y419245D01*
X416938Y419306D01*
X416921Y419383D01*
X416894Y419472D01*
X416855Y419566D01*
X416799Y419660D01*
X416722Y419749D01*
X416711Y419760D01*
X416678Y419787D01*
X416628Y419821D01*
X416561Y419865D01*
X416478Y419909D01*
X416384Y419943D01*
X416273Y419970D01*
X416152Y419981D01*
X416146D01*
X416135D01*
X416118D01*
X416096Y419976D01*
X416035Y419970D01*
X415963Y419953D01*
X415875Y419931D01*
X415786Y419893D01*
X415697Y419837D01*
X415614Y419765D01*
X415603Y419754D01*
X415581Y419726D01*
X415548Y419682D01*
X415509Y419621D01*
X415470Y419544D01*
X415437Y419450D01*
X415415Y419344D01*
X415404Y419228D01*
Y419178D01*
X415410Y419140D01*
X415415Y419090D01*
X415426Y419034D01*
X415437Y418968D01*
X415454Y418896D01*
X415038Y418951D01*
Y418979D01*
X415044Y419001D01*
Y419073D01*
X415033Y419134D01*
X415022Y419206D01*
X415005Y419289D01*
X414978Y419383D01*
X414939Y419472D01*
X414889Y419566D01*
Y419571D01*
X414883Y419577D01*
X414861Y419605D01*
X414823Y419644D01*
X414773Y419688D01*
X414701Y419732D01*
X414618Y419771D01*
X414524Y419799D01*
X414468Y419810D01*
X414407D01*
X414402D01*
X414396D01*
X414363D01*
X414319Y419799D01*
X414258Y419787D01*
X414191Y419765D01*
X414119Y419738D01*
X414047Y419693D01*
X413981Y419632D01*
X413975Y419627D01*
X413953Y419599D01*
X413926Y419560D01*
X413892Y419511D01*
X413865Y419444D01*
X413837Y419367D01*
X413815Y419278D01*
X413809Y419178D01*
Y419134D01*
X413820Y419084D01*
X413831Y419018D01*
X413854Y418946D01*
X413881Y418874D01*
X413926Y418796D01*
X413981Y418724D01*
X413986Y418719D01*
X414014Y418697D01*
X414053Y418663D01*
X414108Y418625D01*
X414180Y418586D01*
X414269Y418547D01*
X414374Y418514D01*
X414496Y418492D01*
X414413Y418021D01*
X414407D01*
X414391Y418027D01*
X414369Y418032D01*
X414335Y418038D01*
X414296Y418049D01*
X414252Y418065D01*
X414147Y418099D01*
X414025Y418154D01*
X413903Y418220D01*
X413787Y418303D01*
X413682Y418409D01*
X413676Y418414D01*
X413671Y418425D01*
X413660Y418442D01*
X413643Y418464D01*
X413621Y418492D01*
X413599Y418531D01*
X413577Y418569D01*
X413549Y418619D01*
X413505Y418730D01*
X413460Y418857D01*
X413433Y419007D01*
X413422Y419084D01*
Y419223D01*
X413427Y419283D01*
X413438Y419356D01*
X413455Y419444D01*
X413483Y419544D01*
X413516Y419644D01*
X413560Y419743D01*
Y419749D01*
X413566Y419754D01*
X413582Y419787D01*
X413615Y419837D01*
X413654Y419893D01*
X413710Y419959D01*
X413770Y420025D01*
X413843Y420092D01*
X413926Y420147D01*
X413937Y420153D01*
X413964Y420169D01*
X414014Y420192D01*
X414075Y420219D01*
X414147Y420247D01*
X414230Y420269D01*
X414324Y420286D01*
X414418Y420291D01*
X414429D01*
X414463D01*
X414507Y420286D01*
X414568Y420275D01*
X414640Y420258D01*
X414717Y420230D01*
X414795Y420197D01*
X414872Y420153D01*
X414883Y420147D01*
X414906Y420131D01*
X414944Y420098D01*
X414989Y420053D01*
X415038Y419998D01*
X415094Y419931D01*
X415144Y419854D01*
X415194Y419760D01*
Y419765D01*
X415199Y419776D01*
X415205Y419793D01*
X415210Y419815D01*
X415232Y419876D01*
X415266Y419953D01*
X415310Y420042D01*
X415365Y420131D01*
X415437Y420214D01*
X415520Y420291D01*
X415531Y420297D01*
X415564Y420319D01*
X415620Y420352D01*
X415692Y420385D01*
X415780Y420419D01*
X415886Y420452D01*
X416007Y420474D01*
X416140Y420480D01*
X416146D01*
X416163D01*
X416190D01*
X416223Y420474D01*
D02*
G37*
G36*
X417270Y417035D02*
X416473Y416532D01*
X416467D01*
X416456Y416521D01*
X416439Y416509D01*
X416417Y416493D01*
X416356Y416454D01*
X416279Y416404D01*
X416196Y416343D01*
X416107Y416282D01*
X416024Y416222D01*
X415947Y416166D01*
X415941Y416161D01*
X415919Y416144D01*
X415886Y416116D01*
X415847Y416077D01*
X415764Y415994D01*
X415725Y415950D01*
X415692Y415906D01*
X415686Y415900D01*
X415681Y415889D01*
X415670Y415867D01*
X415653Y415834D01*
X415636Y415801D01*
X415620Y415762D01*
X415592Y415673D01*
Y415668D01*
X415587Y415657D01*
Y415634D01*
X415581Y415607D01*
X415576Y415568D01*
Y415524D01*
X415570Y415463D01*
Y414809D01*
X417270D01*
Y414300D01*
X413438D01*
Y416077D01*
X413444Y416122D01*
Y416172D01*
X413449Y416288D01*
X413466Y416410D01*
X413483Y416543D01*
X413510Y416664D01*
X413527Y416725D01*
X413544Y416775D01*
Y416781D01*
X413549Y416786D01*
X413566Y416819D01*
X413588Y416869D01*
X413627Y416930D01*
X413676Y416997D01*
X413743Y417069D01*
X413820Y417135D01*
X413909Y417202D01*
X413914D01*
X413920Y417207D01*
X413953Y417229D01*
X414009Y417251D01*
X414081Y417285D01*
X414164Y417312D01*
X414263Y417340D01*
X414369Y417357D01*
X414485Y417362D01*
X414490D01*
X414501D01*
X414524D01*
X414551Y417357D01*
X414590D01*
X414629Y417351D01*
X414723Y417329D01*
X414834Y417296D01*
X414950Y417251D01*
X415066Y417185D01*
X415122Y417141D01*
X415177Y417096D01*
X415182Y417091D01*
X415188Y417085D01*
X415205Y417069D01*
X415221Y417047D01*
X415243Y417019D01*
X415266Y416986D01*
X415293Y416941D01*
X415326Y416897D01*
X415354Y416842D01*
X415382Y416781D01*
X415415Y416714D01*
X415443Y416642D01*
X415465Y416559D01*
X415493Y416476D01*
X415509Y416382D01*
X415526Y416282D01*
X415531Y416293D01*
X415542Y416316D01*
X415564Y416349D01*
X415587Y416393D01*
X415648Y416493D01*
X415686Y416543D01*
X415720Y416587D01*
X415731Y416598D01*
X415758Y416626D01*
X415803Y416670D01*
X415858Y416725D01*
X415936Y416786D01*
X416019Y416858D01*
X416118Y416930D01*
X416229Y417008D01*
X417270Y417667D01*
Y417035D01*
D02*
G37*
G36*
X277536Y479565D02*
X277531Y479521D01*
Y479471D01*
X277525Y479355D01*
X277509Y479233D01*
X277492Y479100D01*
X277464Y478978D01*
X277448Y478917D01*
X277431Y478867D01*
Y478862D01*
X277425Y478856D01*
X277409Y478823D01*
X277387Y478773D01*
X277348Y478713D01*
X277298Y478646D01*
X277232Y478574D01*
X277154Y478508D01*
X277066Y478441D01*
X277060D01*
X277055Y478436D01*
X277021Y478413D01*
X276966Y478391D01*
X276894Y478358D01*
X276811Y478330D01*
X276711Y478303D01*
X276606Y478286D01*
X276490Y478281D01*
X276484D01*
X276473D01*
X276451D01*
X276423Y478286D01*
X276385D01*
X276346Y478292D01*
X276252Y478314D01*
X276141Y478347D01*
X276025Y478391D01*
X275908Y478458D01*
X275853Y478502D01*
X275798Y478546D01*
X275792Y478552D01*
X275786Y478557D01*
X275770Y478574D01*
X275753Y478596D01*
X275731Y478624D01*
X275709Y478657D01*
X275681Y478701D01*
X275648Y478746D01*
X275620Y478801D01*
X275593Y478862D01*
X275560Y478928D01*
X275532Y479000D01*
X275510Y479083D01*
X275482Y479166D01*
X275465Y479261D01*
X275449Y479360D01*
X275443Y479349D01*
X275432Y479327D01*
X275410Y479294D01*
X275388Y479250D01*
X275327Y479150D01*
X275288Y479100D01*
X275255Y479056D01*
X275244Y479045D01*
X275216Y479017D01*
X275172Y478973D01*
X275117Y478917D01*
X275039Y478856D01*
X274956Y478784D01*
X274856Y478713D01*
X274746Y478635D01*
X273704Y477976D01*
Y478607D01*
X274502Y479111D01*
X274507D01*
X274519Y479122D01*
X274535Y479133D01*
X274557Y479150D01*
X274618Y479189D01*
X274696Y479239D01*
X274779Y479299D01*
X274867Y479360D01*
X274950Y479421D01*
X275028Y479477D01*
X275033Y479482D01*
X275056Y479499D01*
X275089Y479526D01*
X275128Y479565D01*
X275211Y479648D01*
X275249Y479692D01*
X275283Y479737D01*
X275288Y479742D01*
X275294Y479753D01*
X275305Y479776D01*
X275321Y479809D01*
X275338Y479842D01*
X275355Y479881D01*
X275382Y479969D01*
Y479975D01*
X275388Y479986D01*
Y480008D01*
X275393Y480036D01*
X275399Y480075D01*
Y480119D01*
X275404Y480180D01*
Y480833D01*
X273704D01*
Y481343D01*
X277536D01*
Y479565D01*
D02*
G37*
G36*
X273810Y477738D02*
X273860Y477732D01*
X273915Y477721D01*
X273970Y477710D01*
X274031Y477688D01*
X274037D01*
X274042Y477682D01*
X274076Y477672D01*
X274125Y477649D01*
X274192Y477616D01*
X274269Y477572D01*
X274358Y477516D01*
X274447Y477455D01*
X274541Y477378D01*
X274546D01*
X274552Y477367D01*
X274585Y477339D01*
X274635Y477289D01*
X274707Y477217D01*
X274790Y477134D01*
X274890Y477029D01*
X275000Y476902D01*
X275117Y476763D01*
X275122Y476758D01*
X275139Y476736D01*
X275166Y476702D01*
X275200Y476664D01*
X275244Y476614D01*
X275294Y476553D01*
X275349Y476492D01*
X275410Y476420D01*
X275543Y476282D01*
X275676Y476143D01*
X275742Y476077D01*
X275809Y476016D01*
X275870Y475961D01*
X275931Y475916D01*
X275936D01*
X275942Y475905D01*
X275958Y475894D01*
X275980Y475883D01*
X276041Y475844D01*
X276113Y475800D01*
X276202Y475761D01*
X276296Y475722D01*
X276401Y475700D01*
X276501Y475689D01*
X276506D01*
X276512D01*
X276545Y475695D01*
X276600Y475700D01*
X276661Y475717D01*
X276739Y475739D01*
X276816Y475778D01*
X276894Y475828D01*
X276971Y475894D01*
X276982Y475905D01*
X277005Y475933D01*
X277032Y475971D01*
X277071Y476032D01*
X277104Y476110D01*
X277138Y476199D01*
X277160Y476304D01*
X277165Y476420D01*
Y476453D01*
X277160Y476475D01*
X277154Y476542D01*
X277138Y476619D01*
X277115Y476702D01*
X277077Y476797D01*
X277027Y476885D01*
X276960Y476968D01*
X276949Y476979D01*
X276922Y477001D01*
X276877Y477035D01*
X276811Y477068D01*
X276733Y477107D01*
X276634Y477140D01*
X276523Y477162D01*
X276396Y477173D01*
X276445Y477655D01*
X276451D01*
X276468Y477649D01*
X276495D01*
X276534Y477644D01*
X276578Y477633D01*
X276628Y477622D01*
X276689Y477605D01*
X276750Y477588D01*
X276883Y477544D01*
X277016Y477478D01*
X277082Y477439D01*
X277149Y477389D01*
X277210Y477339D01*
X277265Y477284D01*
X277271Y477278D01*
X277276Y477267D01*
X277293Y477251D01*
X277309Y477223D01*
X277331Y477190D01*
X277353Y477151D01*
X277381Y477107D01*
X277409Y477051D01*
X277437Y476990D01*
X277464Y476924D01*
X277486Y476852D01*
X277509Y476774D01*
X277525Y476691D01*
X277542Y476603D01*
X277547Y476509D01*
X277553Y476409D01*
Y476354D01*
X277547Y476315D01*
X277542Y476270D01*
X277536Y476215D01*
X277525Y476154D01*
X277514Y476093D01*
X277475Y475949D01*
X277420Y475805D01*
X277387Y475733D01*
X277348Y475662D01*
X277298Y475595D01*
X277243Y475534D01*
X277237Y475529D01*
X277232Y475518D01*
X277210Y475506D01*
X277187Y475484D01*
X277160Y475457D01*
X277121Y475429D01*
X277082Y475401D01*
X277032Y475368D01*
X276927Y475313D01*
X276794Y475257D01*
X276728Y475235D01*
X276650Y475224D01*
X276573Y475213D01*
X276490Y475207D01*
X276479D01*
X276451D01*
X276407Y475213D01*
X276346Y475219D01*
X276279Y475230D01*
X276202Y475252D01*
X276119Y475274D01*
X276036Y475307D01*
X276025Y475313D01*
X275997Y475324D01*
X275953Y475346D01*
X275892Y475379D01*
X275825Y475423D01*
X275742Y475479D01*
X275659Y475545D01*
X275565Y475623D01*
X275554Y475634D01*
X275521Y475662D01*
X275493Y475689D01*
X275465Y475717D01*
X275432Y475750D01*
X275388Y475794D01*
X275343Y475839D01*
X275294Y475894D01*
X275238Y475949D01*
X275177Y476016D01*
X275117Y476088D01*
X275044Y476165D01*
X274972Y476254D01*
X274895Y476343D01*
X274890Y476348D01*
X274878Y476359D01*
X274862Y476381D01*
X274840Y476409D01*
X274806Y476442D01*
X274773Y476481D01*
X274701Y476570D01*
X274618Y476664D01*
X274535Y476752D01*
X274463Y476830D01*
X274435Y476863D01*
X274408Y476891D01*
X274402Y476896D01*
X274386Y476913D01*
X274363Y476935D01*
X274330Y476963D01*
X274291Y476990D01*
X274253Y477024D01*
X274159Y477090D01*
Y475202D01*
X273704D01*
Y477743D01*
X273710D01*
X273732D01*
X273765D01*
X273810Y477738D01*
D02*
G37*
G36*
X276589Y474333D02*
X276600Y474322D01*
X276606Y474299D01*
X276623Y474272D01*
X276639Y474238D01*
X276661Y474200D01*
X276717Y474105D01*
X276778Y473995D01*
X276855Y473884D01*
X276944Y473768D01*
X277038Y473652D01*
X277043Y473646D01*
X277049Y473640D01*
X277066Y473624D01*
X277082Y473602D01*
X277138Y473552D01*
X277204Y473485D01*
X277281Y473419D01*
X277370Y473347D01*
X277459Y473286D01*
X277553Y473231D01*
Y472926D01*
X273704D01*
Y473397D01*
X276700D01*
X276695Y473402D01*
X276672Y473430D01*
X276639Y473463D01*
X276600Y473519D01*
X276551Y473579D01*
X276495Y473657D01*
X276434Y473746D01*
X276373Y473845D01*
Y473851D01*
X276368Y473856D01*
X276346Y473890D01*
X276318Y473945D01*
X276285Y474011D01*
X276246Y474089D01*
X276207Y474172D01*
X276169Y474255D01*
X276135Y474338D01*
X276589D01*
Y474333D01*
D02*
G37*
G36*
X275562Y403923D02*
X275556Y403878D01*
Y403828D01*
X275551Y403712D01*
X275534Y403590D01*
X275517Y403457D01*
X275490Y403336D01*
X275473Y403275D01*
X275457Y403225D01*
Y403219D01*
X275451Y403214D01*
X275434Y403181D01*
X275412Y403131D01*
X275373Y403070D01*
X275324Y403003D01*
X275257Y402931D01*
X275180Y402865D01*
X275091Y402799D01*
X275086D01*
X275080Y402793D01*
X275047Y402771D01*
X274991Y402749D01*
X274919Y402715D01*
X274836Y402688D01*
X274737Y402660D01*
X274632Y402643D01*
X274515Y402638D01*
X274510D01*
X274499D01*
X274476D01*
X274449Y402643D01*
X274410D01*
X274371Y402649D01*
X274277Y402671D01*
X274166Y402704D01*
X274050Y402749D01*
X273934Y402815D01*
X273878Y402859D01*
X273823Y402904D01*
X273818Y402909D01*
X273812Y402915D01*
X273795Y402931D01*
X273779Y402953D01*
X273757Y402981D01*
X273734Y403014D01*
X273707Y403059D01*
X273673Y403103D01*
X273646Y403158D01*
X273618Y403219D01*
X273585Y403286D01*
X273557Y403358D01*
X273535Y403441D01*
X273507Y403524D01*
X273491Y403618D01*
X273474Y403718D01*
X273469Y403707D01*
X273458Y403684D01*
X273435Y403651D01*
X273413Y403607D01*
X273352Y403507D01*
X273314Y403457D01*
X273280Y403413D01*
X273269Y403402D01*
X273242Y403374D01*
X273197Y403330D01*
X273142Y403275D01*
X273064Y403214D01*
X272981Y403142D01*
X272882Y403070D01*
X272771Y402992D01*
X271730Y402333D01*
Y402965D01*
X272527Y403469D01*
X272533D01*
X272544Y403479D01*
X272561Y403491D01*
X272583Y403507D01*
X272644Y403546D01*
X272721Y403596D01*
X272804Y403657D01*
X272893Y403718D01*
X272976Y403778D01*
X273053Y403834D01*
X273059Y403839D01*
X273081Y403856D01*
X273114Y403884D01*
X273153Y403923D01*
X273236Y404006D01*
X273275Y404050D01*
X273308Y404094D01*
X273314Y404100D01*
X273319Y404111D01*
X273330Y404133D01*
X273347Y404166D01*
X273363Y404199D01*
X273380Y404238D01*
X273408Y404327D01*
Y404332D01*
X273413Y404343D01*
Y404366D01*
X273419Y404393D01*
X273424Y404432D01*
Y404476D01*
X273430Y404537D01*
Y405191D01*
X271730D01*
Y405700D01*
X275562D01*
Y403923D01*
D02*
G37*
G36*
X271835Y402095D02*
X271885Y402090D01*
X271940Y402079D01*
X271996Y402067D01*
X272057Y402045D01*
X272062D01*
X272068Y402040D01*
X272101Y402029D01*
X272151Y402007D01*
X272217Y401973D01*
X272295Y401929D01*
X272383Y401874D01*
X272472Y401813D01*
X272566Y401735D01*
X272572D01*
X272577Y401724D01*
X272610Y401697D01*
X272660Y401647D01*
X272732Y401575D01*
X272815Y401492D01*
X272915Y401386D01*
X273026Y401259D01*
X273142Y401121D01*
X273148Y401115D01*
X273164Y401093D01*
X273192Y401060D01*
X273225Y401021D01*
X273269Y400971D01*
X273319Y400910D01*
X273375Y400849D01*
X273435Y400777D01*
X273568Y400639D01*
X273701Y400500D01*
X273768Y400434D01*
X273834Y400373D01*
X273895Y400318D01*
X273956Y400274D01*
X273962D01*
X273967Y400262D01*
X273984Y400251D01*
X274006Y400240D01*
X274067Y400201D01*
X274139Y400157D01*
X274227Y400118D01*
X274321Y400080D01*
X274427Y400057D01*
X274526Y400047D01*
X274532D01*
X274537D01*
X274571Y400052D01*
X274626Y400057D01*
X274687Y400074D01*
X274764Y400096D01*
X274842Y400135D01*
X274919Y400185D01*
X274997Y400251D01*
X275008Y400262D01*
X275030Y400290D01*
X275058Y400329D01*
X275097Y400390D01*
X275130Y400467D01*
X275163Y400556D01*
X275185Y400661D01*
X275191Y400777D01*
Y400811D01*
X275185Y400833D01*
X275180Y400899D01*
X275163Y400977D01*
X275141Y401060D01*
X275102Y401154D01*
X275052Y401242D01*
X274986Y401326D01*
X274975Y401337D01*
X274947Y401359D01*
X274903Y401392D01*
X274836Y401425D01*
X274759Y401464D01*
X274659Y401497D01*
X274548Y401519D01*
X274421Y401530D01*
X274471Y402012D01*
X274476D01*
X274493Y402007D01*
X274521D01*
X274559Y402001D01*
X274604Y401990D01*
X274654Y401979D01*
X274715Y401962D01*
X274775Y401946D01*
X274908Y401901D01*
X275041Y401835D01*
X275108Y401796D01*
X275174Y401746D01*
X275235Y401697D01*
X275290Y401641D01*
X275296Y401636D01*
X275301Y401625D01*
X275318Y401608D01*
X275335Y401580D01*
X275357Y401547D01*
X275379Y401508D01*
X275407Y401464D01*
X275434Y401409D01*
X275462Y401348D01*
X275490Y401281D01*
X275512Y401209D01*
X275534Y401132D01*
X275551Y401049D01*
X275567Y400960D01*
X275573Y400866D01*
X275578Y400766D01*
Y400711D01*
X275573Y400672D01*
X275567Y400628D01*
X275562Y400573D01*
X275551Y400512D01*
X275540Y400451D01*
X275501Y400307D01*
X275445Y400163D01*
X275412Y400091D01*
X275373Y400019D01*
X275324Y399952D01*
X275268Y399891D01*
X275263Y399886D01*
X275257Y399875D01*
X275235Y399864D01*
X275213Y399842D01*
X275185Y399814D01*
X275146Y399786D01*
X275108Y399758D01*
X275058Y399725D01*
X274953Y399670D01*
X274820Y399615D01*
X274753Y399592D01*
X274676Y399581D01*
X274598Y399570D01*
X274515Y399565D01*
X274504D01*
X274476D01*
X274432Y399570D01*
X274371Y399576D01*
X274305Y399587D01*
X274227Y399609D01*
X274144Y399631D01*
X274061Y399664D01*
X274050Y399670D01*
X274022Y399681D01*
X273978Y399703D01*
X273917Y399736D01*
X273851Y399781D01*
X273768Y399836D01*
X273685Y399902D01*
X273591Y399980D01*
X273579Y399991D01*
X273546Y400019D01*
X273519Y400047D01*
X273491Y400074D01*
X273458Y400107D01*
X273413Y400152D01*
X273369Y400196D01*
X273319Y400251D01*
X273264Y400307D01*
X273203Y400373D01*
X273142Y400445D01*
X273070Y400523D01*
X272998Y400611D01*
X272920Y400700D01*
X272915Y400705D01*
X272904Y400717D01*
X272887Y400739D01*
X272865Y400766D01*
X272832Y400799D01*
X272799Y400838D01*
X272727Y400927D01*
X272644Y401021D01*
X272561Y401110D01*
X272489Y401187D01*
X272461Y401220D01*
X272433Y401248D01*
X272428Y401254D01*
X272411Y401270D01*
X272389Y401292D01*
X272356Y401320D01*
X272317Y401348D01*
X272278Y401381D01*
X272184Y401447D01*
Y399559D01*
X271730D01*
Y402101D01*
X271735D01*
X271758D01*
X271791D01*
X271835Y402095D01*
D02*
G37*
G36*
X275562Y397461D02*
Y397079D01*
X273081D01*
Y396558D01*
X272649D01*
Y397079D01*
X271730D01*
Y397549D01*
X272649D01*
Y399216D01*
X273081D01*
X275562Y397461D01*
D02*
G37*
G36*
X344304Y387063D02*
X342770D01*
X342565Y386028D01*
X342570Y386034D01*
X342581Y386039D01*
X342598Y386050D01*
X342626Y386067D01*
X342659Y386083D01*
X342698Y386105D01*
X342786Y386150D01*
X342897Y386194D01*
X343019Y386233D01*
X343152Y386260D01*
X343218Y386272D01*
X343340D01*
X343373Y386266D01*
X343418Y386260D01*
X343467Y386255D01*
X343523Y386244D01*
X343584Y386227D01*
X343717Y386189D01*
X343789Y386161D01*
X343861Y386122D01*
X343932Y386083D01*
X344005Y386039D01*
X344071Y385984D01*
X344137Y385923D01*
X344143Y385917D01*
X344154Y385906D01*
X344171Y385890D01*
X344193Y385862D01*
X344221Y385823D01*
X344248Y385784D01*
X344281Y385734D01*
X344315Y385679D01*
X344342Y385618D01*
X344375Y385552D01*
X344403Y385474D01*
X344431Y385397D01*
X344453Y385314D01*
X344470Y385219D01*
X344481Y385125D01*
X344486Y385026D01*
Y385020D01*
Y385004D01*
Y384976D01*
X344481Y384937D01*
X344475Y384893D01*
X344470Y384843D01*
X344459Y384782D01*
X344448Y384721D01*
X344414Y384577D01*
X344359Y384428D01*
X344326Y384350D01*
X344281Y384278D01*
X344237Y384201D01*
X344182Y384129D01*
X344176Y384123D01*
X344165Y384106D01*
X344143Y384084D01*
X344115Y384057D01*
X344076Y384024D01*
X344032Y383979D01*
X343977Y383940D01*
X343916Y383896D01*
X343849Y383852D01*
X343772Y383813D01*
X343689Y383774D01*
X343600Y383736D01*
X343506Y383708D01*
X343401Y383686D01*
X343290Y383669D01*
X343174Y383663D01*
X343124D01*
X343085Y383669D01*
X343041Y383675D01*
X342991Y383680D01*
X342930Y383686D01*
X342869Y383702D01*
X342731Y383736D01*
X342593Y383785D01*
X342520Y383819D01*
X342449Y383857D01*
X342382Y383902D01*
X342316Y383951D01*
X342310Y383957D01*
X342299Y383963D01*
X342288Y383985D01*
X342266Y384007D01*
X342238Y384035D01*
X342211Y384068D01*
X342177Y384112D01*
X342150Y384162D01*
X342116Y384212D01*
X342083Y384273D01*
X342022Y384406D01*
X341972Y384561D01*
X341956Y384644D01*
X341945Y384732D01*
X342438Y384771D01*
Y384765D01*
Y384754D01*
X342443Y384738D01*
X342449Y384710D01*
X342465Y384649D01*
X342487Y384566D01*
X342520Y384483D01*
X342565Y384389D01*
X342620Y384306D01*
X342687Y384228D01*
X342698Y384223D01*
X342720Y384201D01*
X342764Y384173D01*
X342825Y384140D01*
X342892Y384106D01*
X342975Y384079D01*
X343069Y384057D01*
X343174Y384051D01*
X343207D01*
X343229Y384057D01*
X343296Y384062D01*
X343373Y384084D01*
X343467Y384112D01*
X343562Y384156D01*
X343661Y384223D01*
X343705Y384262D01*
X343750Y384306D01*
X343755Y384311D01*
X343761Y384317D01*
X343772Y384333D01*
X343789Y384350D01*
X343827Y384411D01*
X343872Y384489D01*
X343910Y384583D01*
X343949Y384699D01*
X343977Y384837D01*
X343988Y384909D01*
Y384987D01*
Y384992D01*
Y385004D01*
Y385026D01*
X343982Y385053D01*
Y385087D01*
X343977Y385125D01*
X343960Y385214D01*
X343932Y385319D01*
X343894Y385424D01*
X343838Y385524D01*
X343761Y385618D01*
Y385624D01*
X343750Y385629D01*
X343722Y385657D01*
X343672Y385696D01*
X343606Y385740D01*
X343517Y385779D01*
X343418Y385817D01*
X343301Y385845D01*
X343235Y385856D01*
X343130D01*
X343085Y385851D01*
X343030Y385845D01*
X342963Y385829D01*
X342897Y385812D01*
X342825Y385784D01*
X342753Y385751D01*
X342748Y385746D01*
X342725Y385734D01*
X342692Y385707D01*
X342648Y385679D01*
X342604Y385640D01*
X342559Y385591D01*
X342509Y385541D01*
X342471Y385480D01*
X342028Y385541D01*
X342399Y387512D01*
X344304D01*
Y387063D01*
D02*
G37*
G36*
X340328Y387573D02*
X340372Y387567D01*
X340428Y387562D01*
X340488Y387551D01*
X340549Y387540D01*
X340693Y387501D01*
X340837Y387445D01*
X340909Y387412D01*
X340981Y387374D01*
X341048Y387324D01*
X341109Y387268D01*
X341114Y387263D01*
X341125Y387257D01*
X341136Y387235D01*
X341158Y387213D01*
X341186Y387185D01*
X341214Y387146D01*
X341241Y387108D01*
X341275Y387058D01*
X341330Y386953D01*
X341385Y386820D01*
X341408Y386753D01*
X341419Y386676D01*
X341430Y386598D01*
X341435Y386515D01*
Y386504D01*
Y386476D01*
X341430Y386432D01*
X341424Y386371D01*
X341413Y386305D01*
X341391Y386227D01*
X341369Y386144D01*
X341336Y386061D01*
X341330Y386050D01*
X341319Y386022D01*
X341297Y385978D01*
X341264Y385917D01*
X341219Y385851D01*
X341164Y385768D01*
X341097Y385685D01*
X341020Y385591D01*
X341009Y385579D01*
X340981Y385546D01*
X340953Y385518D01*
X340926Y385491D01*
X340893Y385458D01*
X340848Y385413D01*
X340804Y385369D01*
X340749Y385319D01*
X340693Y385264D01*
X340627Y385203D01*
X340555Y385142D01*
X340477Y385070D01*
X340389Y384998D01*
X340300Y384921D01*
X340295Y384915D01*
X340284Y384904D01*
X340261Y384887D01*
X340234Y384865D01*
X340201Y384832D01*
X340162Y384799D01*
X340073Y384727D01*
X339979Y384644D01*
X339890Y384561D01*
X339813Y384489D01*
X339780Y384461D01*
X339752Y384433D01*
X339746Y384428D01*
X339730Y384411D01*
X339708Y384389D01*
X339680Y384356D01*
X339652Y384317D01*
X339619Y384278D01*
X339553Y384184D01*
X341441D01*
Y383730D01*
X338899D01*
Y383736D01*
Y383758D01*
Y383791D01*
X338905Y383835D01*
X338910Y383885D01*
X338921Y383940D01*
X338932Y383996D01*
X338955Y384057D01*
Y384062D01*
X338960Y384068D01*
X338971Y384101D01*
X338993Y384151D01*
X339027Y384217D01*
X339071Y384295D01*
X339126Y384383D01*
X339187Y384472D01*
X339265Y384566D01*
Y384572D01*
X339276Y384577D01*
X339303Y384610D01*
X339353Y384660D01*
X339425Y384732D01*
X339508Y384815D01*
X339613Y384915D01*
X339741Y385026D01*
X339879Y385142D01*
X339885Y385148D01*
X339907Y385164D01*
X339940Y385192D01*
X339979Y385225D01*
X340029Y385269D01*
X340090Y385319D01*
X340151Y385374D01*
X340223Y385435D01*
X340361Y385568D01*
X340499Y385701D01*
X340566Y385768D01*
X340627Y385834D01*
X340682Y385895D01*
X340727Y385956D01*
Y385961D01*
X340738Y385967D01*
X340749Y385984D01*
X340760Y386006D01*
X340798Y386067D01*
X340843Y386139D01*
X340882Y386227D01*
X340920Y386321D01*
X340942Y386427D01*
X340953Y386526D01*
Y386532D01*
Y386537D01*
X340948Y386571D01*
X340942Y386626D01*
X340926Y386687D01*
X340904Y386764D01*
X340865Y386842D01*
X340815Y386919D01*
X340749Y386997D01*
X340738Y387008D01*
X340710Y387030D01*
X340671Y387058D01*
X340610Y387097D01*
X340533Y387130D01*
X340444Y387163D01*
X340339Y387185D01*
X340223Y387191D01*
X340189D01*
X340167Y387185D01*
X340101Y387180D01*
X340023Y387163D01*
X339940Y387141D01*
X339846Y387102D01*
X339757Y387052D01*
X339674Y386986D01*
X339663Y386975D01*
X339641Y386947D01*
X339608Y386903D01*
X339575Y386836D01*
X339536Y386759D01*
X339503Y386659D01*
X339481Y386548D01*
X339470Y386421D01*
X338988Y386471D01*
Y386476D01*
X338993Y386493D01*
Y386521D01*
X338999Y386559D01*
X339010Y386604D01*
X339021Y386654D01*
X339038Y386715D01*
X339054Y386776D01*
X339099Y386908D01*
X339165Y387041D01*
X339204Y387108D01*
X339254Y387174D01*
X339303Y387235D01*
X339359Y387290D01*
X339364Y387296D01*
X339375Y387301D01*
X339392Y387318D01*
X339420Y387335D01*
X339453Y387357D01*
X339492Y387379D01*
X339536Y387407D01*
X339591Y387434D01*
X339652Y387462D01*
X339719Y387490D01*
X339791Y387512D01*
X339868Y387534D01*
X339951Y387551D01*
X340040Y387567D01*
X340134Y387573D01*
X340234Y387578D01*
X340289D01*
X340328Y387573D01*
D02*
G37*
G36*
X337122Y387556D02*
X337172D01*
X337288Y387551D01*
X337410Y387534D01*
X337543Y387517D01*
X337664Y387490D01*
X337725Y387473D01*
X337775Y387457D01*
X337781D01*
X337786Y387451D01*
X337820Y387434D01*
X337869Y387412D01*
X337930Y387374D01*
X337997Y387324D01*
X338069Y387257D01*
X338135Y387180D01*
X338201Y387091D01*
Y387085D01*
X338207Y387080D01*
X338229Y387047D01*
X338251Y386991D01*
X338285Y386919D01*
X338312Y386836D01*
X338340Y386737D01*
X338357Y386632D01*
X338362Y386515D01*
Y386510D01*
Y386499D01*
Y386476D01*
X338357Y386449D01*
Y386410D01*
X338351Y386371D01*
X338329Y386277D01*
X338296Y386166D01*
X338251Y386050D01*
X338185Y385934D01*
X338141Y385878D01*
X338096Y385823D01*
X338091Y385817D01*
X338085Y385812D01*
X338069Y385795D01*
X338046Y385779D01*
X338019Y385757D01*
X337986Y385734D01*
X337941Y385707D01*
X337897Y385673D01*
X337842Y385646D01*
X337781Y385618D01*
X337714Y385585D01*
X337642Y385557D01*
X337559Y385535D01*
X337476Y385507D01*
X337382Y385491D01*
X337282Y385474D01*
X337293Y385469D01*
X337316Y385458D01*
X337349Y385435D01*
X337393Y385413D01*
X337493Y385352D01*
X337543Y385314D01*
X337587Y385280D01*
X337598Y385269D01*
X337626Y385242D01*
X337670Y385197D01*
X337725Y385142D01*
X337786Y385065D01*
X337858Y384981D01*
X337930Y384882D01*
X338008Y384771D01*
X338667Y383730D01*
X338035D01*
X337532Y384527D01*
Y384533D01*
X337520Y384544D01*
X337509Y384561D01*
X337493Y384583D01*
X337454Y384644D01*
X337404Y384721D01*
X337343Y384804D01*
X337282Y384893D01*
X337221Y384976D01*
X337166Y385053D01*
X337160Y385059D01*
X337144Y385081D01*
X337116Y385114D01*
X337077Y385153D01*
X336994Y385236D01*
X336950Y385275D01*
X336906Y385308D01*
X336900Y385314D01*
X336889Y385319D01*
X336867Y385330D01*
X336834Y385347D01*
X336801Y385364D01*
X336762Y385380D01*
X336673Y385408D01*
X336668D01*
X336657Y385413D01*
X336634D01*
X336607Y385419D01*
X336568Y385424D01*
X336524D01*
X336463Y385430D01*
X335810D01*
Y383730D01*
X335300D01*
Y387562D01*
X337077D01*
X337122Y387556D01*
D02*
G37*
G36*
X418562Y475923D02*
X418556Y475878D01*
Y475828D01*
X418551Y475712D01*
X418534Y475590D01*
X418517Y475457D01*
X418490Y475336D01*
X418473Y475275D01*
X418456Y475225D01*
Y475219D01*
X418451Y475214D01*
X418434Y475181D01*
X418412Y475131D01*
X418373Y475070D01*
X418324Y475003D01*
X418257Y474931D01*
X418180Y474865D01*
X418091Y474799D01*
X418086D01*
X418080Y474793D01*
X418047Y474771D01*
X417991Y474749D01*
X417919Y474715D01*
X417836Y474688D01*
X417737Y474660D01*
X417631Y474643D01*
X417515Y474638D01*
X417510D01*
X417499D01*
X417477D01*
X417449Y474643D01*
X417410D01*
X417371Y474649D01*
X417277Y474671D01*
X417166Y474704D01*
X417050Y474749D01*
X416934Y474815D01*
X416878Y474859D01*
X416823Y474904D01*
X416818Y474909D01*
X416812Y474915D01*
X416795Y474931D01*
X416779Y474953D01*
X416757Y474981D01*
X416735Y475014D01*
X416707Y475059D01*
X416674Y475103D01*
X416646Y475158D01*
X416618Y475219D01*
X416585Y475286D01*
X416557Y475358D01*
X416535Y475441D01*
X416507Y475524D01*
X416491Y475618D01*
X416474Y475718D01*
X416469Y475707D01*
X416458Y475684D01*
X416436Y475651D01*
X416413Y475607D01*
X416352Y475507D01*
X416314Y475457D01*
X416280Y475413D01*
X416269Y475402D01*
X416242Y475374D01*
X416197Y475330D01*
X416142Y475275D01*
X416064Y475214D01*
X415981Y475142D01*
X415882Y475070D01*
X415771Y474992D01*
X414730Y474333D01*
Y474965D01*
X415527Y475468D01*
X415533D01*
X415544Y475480D01*
X415561Y475491D01*
X415583Y475507D01*
X415644Y475546D01*
X415721Y475596D01*
X415804Y475657D01*
X415893Y475718D01*
X415976Y475779D01*
X416053Y475834D01*
X416059Y475840D01*
X416081Y475856D01*
X416114Y475884D01*
X416153Y475923D01*
X416236Y476006D01*
X416275Y476050D01*
X416308Y476094D01*
X416314Y476100D01*
X416319Y476111D01*
X416330Y476133D01*
X416347Y476166D01*
X416363Y476199D01*
X416380Y476238D01*
X416408Y476327D01*
Y476332D01*
X416413Y476343D01*
Y476366D01*
X416419Y476393D01*
X416424Y476432D01*
Y476476D01*
X416430Y476537D01*
Y477191D01*
X414730D01*
Y477700D01*
X418562D01*
Y475923D01*
D02*
G37*
G36*
X414835Y474095D02*
X414885Y474090D01*
X414940Y474079D01*
X414996Y474068D01*
X415057Y474045D01*
X415062D01*
X415068Y474040D01*
X415101Y474029D01*
X415151Y474007D01*
X415217Y473973D01*
X415295Y473929D01*
X415383Y473874D01*
X415472Y473813D01*
X415566Y473735D01*
X415572D01*
X415577Y473724D01*
X415610Y473697D01*
X415660Y473647D01*
X415732Y473575D01*
X415815Y473492D01*
X415915Y473386D01*
X416026Y473259D01*
X416142Y473121D01*
X416147Y473115D01*
X416164Y473093D01*
X416192Y473060D01*
X416225Y473021D01*
X416269Y472971D01*
X416319Y472910D01*
X416375Y472849D01*
X416436Y472777D01*
X416568Y472639D01*
X416701Y472500D01*
X416768Y472434D01*
X416834Y472373D01*
X416895Y472318D01*
X416956Y472273D01*
X416962D01*
X416967Y472262D01*
X416984Y472251D01*
X417006Y472240D01*
X417067Y472201D01*
X417139Y472157D01*
X417227Y472118D01*
X417321Y472080D01*
X417427Y472058D01*
X417526Y472047D01*
X417532D01*
X417537D01*
X417571Y472052D01*
X417626Y472058D01*
X417687Y472074D01*
X417764Y472096D01*
X417842Y472135D01*
X417919Y472185D01*
X417997Y472251D01*
X418008Y472262D01*
X418030Y472290D01*
X418058Y472329D01*
X418097Y472390D01*
X418130Y472467D01*
X418163Y472556D01*
X418185Y472661D01*
X418191Y472777D01*
Y472811D01*
X418185Y472833D01*
X418180Y472899D01*
X418163Y472977D01*
X418141Y473060D01*
X418102Y473154D01*
X418052Y473242D01*
X417986Y473326D01*
X417975Y473337D01*
X417947Y473359D01*
X417903Y473392D01*
X417836Y473425D01*
X417759Y473464D01*
X417659Y473497D01*
X417548Y473519D01*
X417421Y473530D01*
X417471Y474012D01*
X417477D01*
X417493Y474007D01*
X417521D01*
X417560Y474001D01*
X417604Y473990D01*
X417654Y473979D01*
X417715Y473962D01*
X417775Y473946D01*
X417908Y473901D01*
X418041Y473835D01*
X418108Y473796D01*
X418174Y473746D01*
X418235Y473697D01*
X418290Y473641D01*
X418296Y473636D01*
X418302Y473625D01*
X418318Y473608D01*
X418335Y473580D01*
X418357Y473547D01*
X418379Y473508D01*
X418407Y473464D01*
X418434Y473409D01*
X418462Y473348D01*
X418490Y473281D01*
X418512Y473209D01*
X418534Y473132D01*
X418551Y473049D01*
X418567Y472960D01*
X418573Y472866D01*
X418578Y472766D01*
Y472711D01*
X418573Y472672D01*
X418567Y472628D01*
X418562Y472573D01*
X418551Y472512D01*
X418540Y472451D01*
X418501Y472307D01*
X418446Y472163D01*
X418412Y472091D01*
X418373Y472019D01*
X418324Y471952D01*
X418268Y471891D01*
X418263Y471886D01*
X418257Y471875D01*
X418235Y471864D01*
X418213Y471842D01*
X418185Y471814D01*
X418147Y471786D01*
X418108Y471758D01*
X418058Y471725D01*
X417953Y471670D01*
X417820Y471615D01*
X417753Y471592D01*
X417676Y471581D01*
X417598Y471570D01*
X417515Y471565D01*
X417504D01*
X417477D01*
X417432Y471570D01*
X417371Y471576D01*
X417305Y471587D01*
X417227Y471609D01*
X417144Y471631D01*
X417061Y471664D01*
X417050Y471670D01*
X417022Y471681D01*
X416978Y471703D01*
X416917Y471736D01*
X416851Y471781D01*
X416768Y471836D01*
X416685Y471903D01*
X416590Y471980D01*
X416579Y471991D01*
X416546Y472019D01*
X416519Y472047D01*
X416491Y472074D01*
X416458Y472107D01*
X416413Y472152D01*
X416369Y472196D01*
X416319Y472251D01*
X416264Y472307D01*
X416203Y472373D01*
X416142Y472445D01*
X416070Y472523D01*
X415998Y472611D01*
X415920Y472700D01*
X415915Y472705D01*
X415904Y472716D01*
X415887Y472739D01*
X415865Y472766D01*
X415832Y472799D01*
X415799Y472838D01*
X415727Y472927D01*
X415644Y473021D01*
X415561Y473110D01*
X415489Y473187D01*
X415461Y473220D01*
X415433Y473248D01*
X415428Y473254D01*
X415411Y473270D01*
X415389Y473292D01*
X415356Y473320D01*
X415317Y473348D01*
X415278Y473381D01*
X415184Y473447D01*
Y471559D01*
X414730D01*
Y474101D01*
X414735D01*
X414758D01*
X414791D01*
X414835Y474095D01*
D02*
G37*
G36*
X417377Y471050D02*
X417427Y471044D01*
X417487Y471039D01*
X417548Y471028D01*
X417620Y471011D01*
X417764Y470972D01*
X417842Y470945D01*
X417925Y470911D01*
X418003Y470873D01*
X418074Y470823D01*
X418152Y470773D01*
X418218Y470712D01*
X418224Y470706D01*
X418235Y470695D01*
X418252Y470679D01*
X418274Y470651D01*
X418302Y470618D01*
X418335Y470574D01*
X418362Y470529D01*
X418401Y470474D01*
X418434Y470419D01*
X418462Y470352D01*
X418523Y470203D01*
X418545Y470125D01*
X418562Y470037D01*
X418573Y469948D01*
X418578Y469854D01*
Y469815D01*
X418573Y469787D01*
Y469760D01*
X418567Y469721D01*
X418551Y469627D01*
X418529Y469521D01*
X418490Y469405D01*
X418440Y469289D01*
X418373Y469173D01*
Y469167D01*
X418362Y469162D01*
X418351Y469145D01*
X418335Y469123D01*
X418290Y469067D01*
X418229Y468996D01*
X418147Y468923D01*
X418047Y468840D01*
X417930Y468769D01*
X417798Y468702D01*
X417792D01*
X417781Y468697D01*
X417759Y468685D01*
X417731Y468674D01*
X417692Y468663D01*
X417643Y468647D01*
X417587Y468636D01*
X417526Y468619D01*
X417454Y468602D01*
X417371Y468586D01*
X417283Y468575D01*
X417188Y468564D01*
X417083Y468553D01*
X416973Y468541D01*
X416851Y468536D01*
X416723D01*
X416718D01*
X416690D01*
X416651D01*
X416602D01*
X416541Y468541D01*
X416469D01*
X416386Y468547D01*
X416303Y468558D01*
X416114Y468575D01*
X415915Y468602D01*
X415727Y468641D01*
X415633Y468669D01*
X415550Y468697D01*
X415544D01*
X415533Y468702D01*
X415511Y468713D01*
X415477Y468724D01*
X415444Y468741D01*
X415400Y468763D01*
X415306Y468818D01*
X415201Y468885D01*
X415090Y468962D01*
X414985Y469062D01*
X414891Y469173D01*
Y469178D01*
X414879Y469189D01*
X414868Y469206D01*
X414857Y469228D01*
X414841Y469261D01*
X414819Y469295D01*
X414796Y469339D01*
X414780Y469383D01*
X414735Y469488D01*
X414697Y469616D01*
X414675Y469754D01*
X414664Y469909D01*
Y469953D01*
X414669Y469981D01*
Y470020D01*
X414675Y470064D01*
X414697Y470169D01*
X414725Y470286D01*
X414769Y470407D01*
X414830Y470529D01*
X414868Y470590D01*
X414913Y470646D01*
X414918Y470651D01*
X414924Y470657D01*
X414940Y470673D01*
X414957Y470690D01*
X414985Y470712D01*
X415018Y470740D01*
X415095Y470795D01*
X415195Y470850D01*
X415317Y470906D01*
X415455Y470950D01*
X415616Y470983D01*
X415655Y470529D01*
X415649D01*
X415638Y470524D01*
X415627D01*
X415605Y470518D01*
X415544Y470502D01*
X415477Y470480D01*
X415400Y470452D01*
X415322Y470413D01*
X415251Y470369D01*
X415190Y470313D01*
X415184Y470308D01*
X415167Y470286D01*
X415145Y470247D01*
X415123Y470203D01*
X415095Y470142D01*
X415073Y470070D01*
X415057Y469987D01*
X415051Y469898D01*
Y469859D01*
X415057Y469821D01*
X415062Y469771D01*
X415073Y469710D01*
X415090Y469649D01*
X415112Y469582D01*
X415145Y469521D01*
X415151Y469516D01*
X415162Y469494D01*
X415184Y469461D01*
X415217Y469427D01*
X415256Y469383D01*
X415300Y469339D01*
X415350Y469295D01*
X415411Y469250D01*
X415417Y469245D01*
X415444Y469234D01*
X415483Y469211D01*
X415533Y469189D01*
X415599Y469162D01*
X415677Y469134D01*
X415765Y469106D01*
X415865Y469078D01*
X415871D01*
X415876Y469073D01*
X415893D01*
X415915Y469067D01*
X415970Y469056D01*
X416042Y469040D01*
X416131Y469029D01*
X416225Y469018D01*
X416330Y469012D01*
X416441Y469007D01*
X416446D01*
X416463D01*
X416491D01*
X416535D01*
X416524Y469012D01*
X416496Y469034D01*
X416458Y469067D01*
X416402Y469106D01*
X416347Y469162D01*
X416286Y469228D01*
X416225Y469306D01*
X416170Y469394D01*
X416164Y469405D01*
X416147Y469439D01*
X416125Y469488D01*
X416103Y469549D01*
X416076Y469632D01*
X416053Y469721D01*
X416037Y469821D01*
X416031Y469926D01*
Y469970D01*
X416037Y470003D01*
X416042Y470047D01*
X416048Y470092D01*
X416059Y470147D01*
X416076Y470203D01*
X416114Y470330D01*
X416142Y470396D01*
X416175Y470463D01*
X416214Y470535D01*
X416264Y470601D01*
X416314Y470668D01*
X416375Y470729D01*
X416380Y470734D01*
X416391Y470745D01*
X416408Y470756D01*
X416436Y470779D01*
X416474Y470806D01*
X416513Y470834D01*
X416563Y470862D01*
X416618Y470889D01*
X416679Y470922D01*
X416745Y470950D01*
X416823Y470978D01*
X416901Y471006D01*
X416989Y471028D01*
X417083Y471039D01*
X417177Y471050D01*
X417283Y471055D01*
X417288D01*
X417310D01*
X417338D01*
X417377Y471050D01*
D02*
G37*
G36*
X417270Y382878D02*
X417265D01*
X417242D01*
X417209D01*
X417165Y382884D01*
X417115Y382889D01*
X417060Y382900D01*
X417004Y382911D01*
X416943Y382934D01*
X416938D01*
X416932Y382939D01*
X416899Y382950D01*
X416849Y382972D01*
X416783Y383006D01*
X416705Y383050D01*
X416617Y383105D01*
X416528Y383166D01*
X416434Y383244D01*
X416428D01*
X416423Y383255D01*
X416390Y383283D01*
X416340Y383332D01*
X416268Y383404D01*
X416185Y383487D01*
X416085Y383593D01*
X415974Y383720D01*
X415858Y383858D01*
X415853Y383864D01*
X415836Y383886D01*
X415808Y383919D01*
X415775Y383958D01*
X415731Y384008D01*
X415681Y384069D01*
X415625Y384130D01*
X415564Y384202D01*
X415432Y384340D01*
X415299Y384478D01*
X415232Y384545D01*
X415166Y384606D01*
X415105Y384661D01*
X415044Y384706D01*
X415038D01*
X415033Y384717D01*
X415016Y384728D01*
X414994Y384739D01*
X414933Y384777D01*
X414861Y384822D01*
X414773Y384861D01*
X414679Y384899D01*
X414573Y384921D01*
X414474Y384933D01*
X414468D01*
X414463D01*
X414429Y384927D01*
X414374Y384921D01*
X414313Y384905D01*
X414236Y384883D01*
X414158Y384844D01*
X414081Y384794D01*
X414003Y384728D01*
X413992Y384717D01*
X413970Y384689D01*
X413942Y384650D01*
X413903Y384589D01*
X413870Y384512D01*
X413837Y384423D01*
X413815Y384318D01*
X413809Y384202D01*
Y384168D01*
X413815Y384146D01*
X413820Y384080D01*
X413837Y384002D01*
X413859Y383919D01*
X413898Y383825D01*
X413948Y383736D01*
X414014Y383653D01*
X414025Y383642D01*
X414053Y383620D01*
X414097Y383587D01*
X414164Y383554D01*
X414241Y383515D01*
X414341Y383482D01*
X414452Y383460D01*
X414579Y383449D01*
X414529Y382967D01*
X414524D01*
X414507Y382972D01*
X414479D01*
X414440Y382978D01*
X414396Y382989D01*
X414346Y383000D01*
X414286Y383017D01*
X414225Y383033D01*
X414092Y383078D01*
X413959Y383144D01*
X413892Y383183D01*
X413826Y383233D01*
X413765Y383283D01*
X413710Y383338D01*
X413704Y383343D01*
X413699Y383354D01*
X413682Y383371D01*
X413665Y383399D01*
X413643Y383432D01*
X413621Y383471D01*
X413593Y383515D01*
X413566Y383570D01*
X413538Y383631D01*
X413510Y383698D01*
X413488Y383770D01*
X413466Y383847D01*
X413449Y383930D01*
X413433Y384019D01*
X413427Y384113D01*
X413422Y384213D01*
Y384268D01*
X413427Y384307D01*
X413433Y384351D01*
X413438Y384407D01*
X413449Y384467D01*
X413460Y384528D01*
X413499Y384672D01*
X413554Y384816D01*
X413588Y384888D01*
X413627Y384960D01*
X413676Y385027D01*
X413732Y385088D01*
X413737Y385093D01*
X413743Y385104D01*
X413765Y385115D01*
X413787Y385137D01*
X413815Y385165D01*
X413854Y385193D01*
X413892Y385220D01*
X413942Y385254D01*
X414047Y385309D01*
X414180Y385364D01*
X414247Y385387D01*
X414324Y385398D01*
X414402Y385409D01*
X414485Y385414D01*
X414496D01*
X414524D01*
X414568Y385409D01*
X414629Y385403D01*
X414695Y385392D01*
X414773Y385370D01*
X414856Y385348D01*
X414939Y385315D01*
X414950Y385309D01*
X414978Y385298D01*
X415022Y385276D01*
X415083Y385243D01*
X415149Y385198D01*
X415232Y385143D01*
X415315Y385076D01*
X415410Y384999D01*
X415421Y384988D01*
X415454Y384960D01*
X415481Y384933D01*
X415509Y384905D01*
X415542Y384872D01*
X415587Y384827D01*
X415631Y384783D01*
X415681Y384728D01*
X415736Y384672D01*
X415797Y384606D01*
X415858Y384534D01*
X415930Y384456D01*
X416002Y384368D01*
X416079Y384279D01*
X416085Y384274D01*
X416096Y384263D01*
X416113Y384240D01*
X416135Y384213D01*
X416168Y384179D01*
X416201Y384141D01*
X416273Y384052D01*
X416356Y383958D01*
X416439Y383869D01*
X416511Y383792D01*
X416539Y383759D01*
X416567Y383731D01*
X416572Y383725D01*
X416589Y383709D01*
X416611Y383687D01*
X416644Y383659D01*
X416683Y383631D01*
X416722Y383598D01*
X416816Y383532D01*
Y385420D01*
X417270D01*
Y382878D01*
D02*
G37*
G36*
X416223Y382474D02*
X416268Y382468D01*
X416318Y382457D01*
X416373Y382446D01*
X416434Y382435D01*
X416567Y382391D01*
X416639Y382358D01*
X416705Y382324D01*
X416777Y382280D01*
X416849Y382230D01*
X416921Y382175D01*
X416988Y382109D01*
X416993Y382103D01*
X417004Y382092D01*
X417021Y382070D01*
X417043Y382042D01*
X417071Y382009D01*
X417098Y381965D01*
X417132Y381915D01*
X417159Y381854D01*
X417192Y381793D01*
X417226Y381721D01*
X417253Y381649D01*
X417281Y381566D01*
X417303Y381477D01*
X417320Y381383D01*
X417331Y381289D01*
X417337Y381184D01*
Y381134D01*
X417331Y381101D01*
X417325Y381057D01*
X417320Y381007D01*
X417309Y380951D01*
X417298Y380890D01*
X417265Y380757D01*
X417209Y380619D01*
X417176Y380547D01*
X417137Y380481D01*
X417087Y380414D01*
X417037Y380348D01*
X417032Y380342D01*
X417021Y380331D01*
X417004Y380314D01*
X416982Y380298D01*
X416954Y380270D01*
X416916Y380243D01*
X416877Y380209D01*
X416827Y380176D01*
X416772Y380143D01*
X416716Y380110D01*
X416583Y380049D01*
X416428Y379999D01*
X416345Y379982D01*
X416257Y379971D01*
X416196Y380442D01*
X416201D01*
X416212Y380447D01*
X416235Y380453D01*
X416262Y380458D01*
X416296Y380464D01*
X416334Y380475D01*
X416417Y380503D01*
X416517Y380542D01*
X416611Y380591D01*
X416700Y380647D01*
X416777Y380713D01*
X416783Y380724D01*
X416805Y380746D01*
X416833Y380791D01*
X416860Y380846D01*
X416894Y380913D01*
X416921Y380996D01*
X416943Y381090D01*
X416949Y381189D01*
Y381223D01*
X416943Y381245D01*
X416938Y381306D01*
X416921Y381383D01*
X416894Y381472D01*
X416855Y381566D01*
X416799Y381660D01*
X416722Y381749D01*
X416711Y381760D01*
X416678Y381787D01*
X416628Y381821D01*
X416561Y381865D01*
X416478Y381909D01*
X416384Y381942D01*
X416273Y381970D01*
X416152Y381981D01*
X416146D01*
X416135D01*
X416118D01*
X416096Y381976D01*
X416035Y381970D01*
X415963Y381954D01*
X415875Y381931D01*
X415786Y381893D01*
X415697Y381837D01*
X415614Y381765D01*
X415603Y381754D01*
X415581Y381726D01*
X415548Y381682D01*
X415509Y381621D01*
X415470Y381544D01*
X415437Y381450D01*
X415415Y381344D01*
X415404Y381228D01*
Y381178D01*
X415410Y381140D01*
X415415Y381090D01*
X415426Y381034D01*
X415437Y380968D01*
X415454Y380896D01*
X415038Y380951D01*
Y380979D01*
X415044Y381001D01*
Y381073D01*
X415033Y381134D01*
X415022Y381206D01*
X415005Y381289D01*
X414978Y381383D01*
X414939Y381472D01*
X414889Y381566D01*
Y381572D01*
X414883Y381577D01*
X414861Y381605D01*
X414823Y381643D01*
X414773Y381688D01*
X414701Y381732D01*
X414618Y381771D01*
X414524Y381799D01*
X414468Y381810D01*
X414407D01*
X414402D01*
X414396D01*
X414363D01*
X414319Y381799D01*
X414258Y381787D01*
X414191Y381765D01*
X414119Y381738D01*
X414047Y381693D01*
X413981Y381632D01*
X413975Y381627D01*
X413953Y381599D01*
X413926Y381560D01*
X413892Y381511D01*
X413865Y381444D01*
X413837Y381367D01*
X413815Y381278D01*
X413809Y381178D01*
Y381134D01*
X413820Y381084D01*
X413831Y381018D01*
X413854Y380946D01*
X413881Y380874D01*
X413926Y380796D01*
X413981Y380724D01*
X413986Y380719D01*
X414014Y380697D01*
X414053Y380663D01*
X414108Y380625D01*
X414180Y380586D01*
X414269Y380547D01*
X414374Y380514D01*
X414496Y380492D01*
X414413Y380021D01*
X414407D01*
X414391Y380027D01*
X414369Y380032D01*
X414335Y380038D01*
X414296Y380049D01*
X414252Y380065D01*
X414147Y380099D01*
X414025Y380154D01*
X413903Y380220D01*
X413787Y380303D01*
X413682Y380409D01*
X413676Y380414D01*
X413671Y380425D01*
X413660Y380442D01*
X413643Y380464D01*
X413621Y380492D01*
X413599Y380531D01*
X413577Y380569D01*
X413549Y380619D01*
X413505Y380730D01*
X413460Y380857D01*
X413433Y381007D01*
X413422Y381084D01*
Y381223D01*
X413427Y381283D01*
X413438Y381356D01*
X413455Y381444D01*
X413483Y381544D01*
X413516Y381643D01*
X413560Y381743D01*
Y381749D01*
X413566Y381754D01*
X413582Y381787D01*
X413615Y381837D01*
X413654Y381893D01*
X413710Y381959D01*
X413770Y382025D01*
X413843Y382092D01*
X413926Y382147D01*
X413937Y382153D01*
X413964Y382169D01*
X414014Y382192D01*
X414075Y382219D01*
X414147Y382247D01*
X414230Y382269D01*
X414324Y382286D01*
X414418Y382291D01*
X414429D01*
X414463D01*
X414507Y382286D01*
X414568Y382275D01*
X414640Y382258D01*
X414717Y382230D01*
X414795Y382197D01*
X414872Y382153D01*
X414883Y382147D01*
X414906Y382131D01*
X414944Y382098D01*
X414989Y382053D01*
X415038Y381998D01*
X415094Y381931D01*
X415144Y381854D01*
X415194Y381760D01*
Y381765D01*
X415199Y381776D01*
X415205Y381793D01*
X415210Y381815D01*
X415232Y381876D01*
X415266Y381954D01*
X415310Y382042D01*
X415365Y382131D01*
X415437Y382214D01*
X415520Y382291D01*
X415531Y382297D01*
X415564Y382319D01*
X415620Y382352D01*
X415692Y382385D01*
X415780Y382419D01*
X415886Y382452D01*
X416007Y382474D01*
X416140Y382480D01*
X416146D01*
X416163D01*
X416190D01*
X416223Y382474D01*
D02*
G37*
G36*
X417270Y379035D02*
X416473Y378532D01*
X416467D01*
X416456Y378521D01*
X416439Y378509D01*
X416417Y378493D01*
X416356Y378454D01*
X416279Y378404D01*
X416196Y378343D01*
X416107Y378282D01*
X416024Y378222D01*
X415947Y378166D01*
X415941Y378161D01*
X415919Y378144D01*
X415886Y378116D01*
X415847Y378078D01*
X415764Y377994D01*
X415725Y377950D01*
X415692Y377906D01*
X415686Y377900D01*
X415681Y377889D01*
X415670Y377867D01*
X415653Y377834D01*
X415636Y377801D01*
X415620Y377762D01*
X415592Y377673D01*
Y377668D01*
X415587Y377657D01*
Y377635D01*
X415581Y377607D01*
X415576Y377568D01*
Y377524D01*
X415570Y377463D01*
Y376810D01*
X417270D01*
Y376300D01*
X413438D01*
Y378078D01*
X413444Y378122D01*
Y378172D01*
X413449Y378288D01*
X413466Y378410D01*
X413483Y378543D01*
X413510Y378664D01*
X413527Y378725D01*
X413544Y378775D01*
Y378781D01*
X413549Y378786D01*
X413566Y378820D01*
X413588Y378869D01*
X413627Y378930D01*
X413676Y378997D01*
X413743Y379069D01*
X413820Y379135D01*
X413909Y379202D01*
X413914D01*
X413920Y379207D01*
X413953Y379229D01*
X414009Y379251D01*
X414081Y379285D01*
X414164Y379312D01*
X414263Y379340D01*
X414369Y379357D01*
X414485Y379362D01*
X414490D01*
X414501D01*
X414524D01*
X414551Y379357D01*
X414590D01*
X414629Y379351D01*
X414723Y379329D01*
X414834Y379296D01*
X414950Y379251D01*
X415066Y379185D01*
X415122Y379141D01*
X415177Y379096D01*
X415182Y379091D01*
X415188Y379085D01*
X415205Y379069D01*
X415221Y379047D01*
X415243Y379019D01*
X415266Y378986D01*
X415293Y378941D01*
X415326Y378897D01*
X415354Y378842D01*
X415382Y378781D01*
X415415Y378714D01*
X415443Y378642D01*
X415465Y378559D01*
X415493Y378476D01*
X415509Y378382D01*
X415526Y378282D01*
X415531Y378293D01*
X415542Y378316D01*
X415564Y378349D01*
X415587Y378393D01*
X415648Y378493D01*
X415686Y378543D01*
X415720Y378587D01*
X415731Y378598D01*
X415758Y378626D01*
X415803Y378670D01*
X415858Y378725D01*
X415936Y378786D01*
X416019Y378858D01*
X416118Y378930D01*
X416229Y379008D01*
X417270Y379667D01*
Y379035D01*
D02*
G37*
G36*
X506263Y388573D02*
X506334Y388562D01*
X506423Y388545D01*
X506523Y388517D01*
X506623Y388484D01*
X506722Y388440D01*
X506728D01*
X506733Y388434D01*
X506766Y388418D01*
X506816Y388385D01*
X506872Y388346D01*
X506938Y388290D01*
X507005Y388229D01*
X507071Y388158D01*
X507126Y388074D01*
X507132Y388063D01*
X507149Y388036D01*
X507171Y387986D01*
X507198Y387925D01*
X507226Y387853D01*
X507248Y387770D01*
X507265Y387676D01*
X507270Y387582D01*
Y387571D01*
Y387537D01*
X507265Y387493D01*
X507254Y387432D01*
X507237Y387360D01*
X507209Y387283D01*
X507176Y387205D01*
X507132Y387128D01*
X507126Y387117D01*
X507110Y387094D01*
X507076Y387056D01*
X507032Y387011D01*
X506977Y386962D01*
X506910Y386906D01*
X506833Y386856D01*
X506739Y386806D01*
X506744D01*
X506755Y386801D01*
X506772Y386795D01*
X506794Y386790D01*
X506855Y386768D01*
X506932Y386735D01*
X507021Y386690D01*
X507110Y386635D01*
X507193Y386563D01*
X507270Y386480D01*
X507276Y386469D01*
X507298Y386435D01*
X507331Y386380D01*
X507364Y386308D01*
X507398Y386219D01*
X507431Y386114D01*
X507453Y385993D01*
X507459Y385860D01*
Y385854D01*
Y385837D01*
Y385810D01*
X507453Y385776D01*
X507448Y385732D01*
X507436Y385682D01*
X507425Y385627D01*
X507414Y385566D01*
X507370Y385433D01*
X507337Y385361D01*
X507304Y385295D01*
X507259Y385223D01*
X507209Y385151D01*
X507154Y385079D01*
X507088Y385012D01*
X507082Y385007D01*
X507071Y384996D01*
X507049Y384979D01*
X507021Y384957D01*
X506988Y384929D01*
X506944Y384902D01*
X506894Y384868D01*
X506833Y384841D01*
X506772Y384808D01*
X506700Y384774D01*
X506628Y384747D01*
X506545Y384719D01*
X506456Y384697D01*
X506362Y384680D01*
X506268Y384669D01*
X506163Y384664D01*
X506113D01*
X506080Y384669D01*
X506035Y384675D01*
X505986Y384680D01*
X505930Y384691D01*
X505869Y384702D01*
X505737Y384735D01*
X505598Y384791D01*
X505526Y384824D01*
X505460Y384863D01*
X505393Y384913D01*
X505327Y384963D01*
X505321Y384968D01*
X505310Y384979D01*
X505294Y384996D01*
X505277Y385018D01*
X505249Y385046D01*
X505221Y385084D01*
X505188Y385123D01*
X505155Y385173D01*
X505122Y385228D01*
X505089Y385284D01*
X505028Y385417D01*
X504978Y385572D01*
X504961Y385655D01*
X504950Y385743D01*
X505421Y385804D01*
Y385799D01*
X505426Y385788D01*
X505432Y385765D01*
X505438Y385738D01*
X505443Y385704D01*
X505454Y385666D01*
X505482Y385583D01*
X505521Y385483D01*
X505570Y385389D01*
X505626Y385300D01*
X505692Y385223D01*
X505703Y385217D01*
X505725Y385195D01*
X505770Y385167D01*
X505825Y385140D01*
X505891Y385107D01*
X505975Y385079D01*
X506069Y385057D01*
X506168Y385051D01*
X506202D01*
X506224Y385057D01*
X506285Y385062D01*
X506362Y385079D01*
X506451Y385107D01*
X506545Y385145D01*
X506639Y385201D01*
X506728Y385278D01*
X506739Y385289D01*
X506766Y385322D01*
X506800Y385372D01*
X506844Y385439D01*
X506888Y385522D01*
X506922Y385616D01*
X506949Y385727D01*
X506960Y385849D01*
Y385854D01*
Y385865D01*
Y385882D01*
X506955Y385904D01*
X506949Y385965D01*
X506932Y386037D01*
X506910Y386125D01*
X506872Y386214D01*
X506816Y386303D01*
X506744Y386386D01*
X506733Y386397D01*
X506706Y386419D01*
X506661Y386452D01*
X506600Y386491D01*
X506523Y386530D01*
X506429Y386563D01*
X506323Y386585D01*
X506207Y386596D01*
X506157D01*
X506119Y386590D01*
X506069Y386585D01*
X506013Y386574D01*
X505947Y386563D01*
X505875Y386546D01*
X505930Y386962D01*
X505958D01*
X505980Y386956D01*
X506052D01*
X506113Y386967D01*
X506185Y386978D01*
X506268Y386995D01*
X506362Y387022D01*
X506451Y387061D01*
X506545Y387111D01*
X506550D01*
X506556Y387117D01*
X506584Y387139D01*
X506623Y387177D01*
X506667Y387227D01*
X506711Y387299D01*
X506750Y387382D01*
X506777Y387476D01*
X506789Y387532D01*
Y387593D01*
Y387598D01*
Y387604D01*
Y387637D01*
X506777Y387681D01*
X506766Y387742D01*
X506744Y387809D01*
X506717Y387881D01*
X506672Y387953D01*
X506611Y388019D01*
X506606Y388025D01*
X506578Y388047D01*
X506539Y388074D01*
X506490Y388108D01*
X506423Y388135D01*
X506346Y388163D01*
X506257Y388185D01*
X506157Y388191D01*
X506113D01*
X506063Y388180D01*
X505997Y388169D01*
X505925Y388146D01*
X505853Y388119D01*
X505775Y388074D01*
X505703Y388019D01*
X505698Y388013D01*
X505676Y387986D01*
X505642Y387947D01*
X505604Y387892D01*
X505565Y387820D01*
X505526Y387731D01*
X505493Y387626D01*
X505471Y387504D01*
X505000Y387587D01*
Y387593D01*
X505006Y387609D01*
X505011Y387631D01*
X505017Y387665D01*
X505028Y387704D01*
X505044Y387748D01*
X505078Y387853D01*
X505133Y387975D01*
X505199Y388097D01*
X505283Y388213D01*
X505388Y388318D01*
X505393Y388324D01*
X505404Y388329D01*
X505421Y388340D01*
X505443Y388357D01*
X505471Y388379D01*
X505509Y388401D01*
X505548Y388423D01*
X505598Y388451D01*
X505709Y388495D01*
X505836Y388540D01*
X505986Y388567D01*
X506063Y388578D01*
X506202D01*
X506263Y388573D01*
D02*
G37*
G36*
X503284D02*
X503355Y388562D01*
X503444Y388545D01*
X503544Y388517D01*
X503643Y388484D01*
X503743Y388440D01*
X503749D01*
X503754Y388434D01*
X503787Y388418D01*
X503837Y388385D01*
X503893Y388346D01*
X503959Y388290D01*
X504025Y388229D01*
X504092Y388158D01*
X504147Y388074D01*
X504153Y388063D01*
X504170Y388036D01*
X504192Y387986D01*
X504219Y387925D01*
X504247Y387853D01*
X504269Y387770D01*
X504286Y387676D01*
X504291Y387582D01*
Y387571D01*
Y387537D01*
X504286Y387493D01*
X504275Y387432D01*
X504258Y387360D01*
X504230Y387283D01*
X504197Y387205D01*
X504153Y387128D01*
X504147Y387117D01*
X504131Y387094D01*
X504098Y387056D01*
X504053Y387011D01*
X503998Y386962D01*
X503931Y386906D01*
X503854Y386856D01*
X503760Y386806D01*
X503765D01*
X503776Y386801D01*
X503793Y386795D01*
X503815Y386790D01*
X503876Y386768D01*
X503954Y386735D01*
X504042Y386690D01*
X504131Y386635D01*
X504214Y386563D01*
X504291Y386480D01*
X504297Y386469D01*
X504319Y386435D01*
X504352Y386380D01*
X504385Y386308D01*
X504419Y386219D01*
X504452Y386114D01*
X504474Y385993D01*
X504480Y385860D01*
Y385854D01*
Y385837D01*
Y385810D01*
X504474Y385776D01*
X504468Y385732D01*
X504457Y385682D01*
X504446Y385627D01*
X504435Y385566D01*
X504391Y385433D01*
X504358Y385361D01*
X504324Y385295D01*
X504280Y385223D01*
X504230Y385151D01*
X504175Y385079D01*
X504109Y385012D01*
X504103Y385007D01*
X504092Y384996D01*
X504070Y384979D01*
X504042Y384957D01*
X504009Y384929D01*
X503965Y384902D01*
X503915Y384868D01*
X503854Y384841D01*
X503793Y384808D01*
X503721Y384774D01*
X503649Y384747D01*
X503566Y384719D01*
X503477Y384697D01*
X503383Y384680D01*
X503289Y384669D01*
X503184Y384664D01*
X503134D01*
X503101Y384669D01*
X503056Y384675D01*
X503007Y384680D01*
X502951Y384691D01*
X502890Y384702D01*
X502757Y384735D01*
X502619Y384791D01*
X502547Y384824D01*
X502481Y384863D01*
X502414Y384913D01*
X502348Y384963D01*
X502342Y384968D01*
X502331Y384979D01*
X502314Y384996D01*
X502298Y385018D01*
X502270Y385046D01*
X502243Y385084D01*
X502209Y385123D01*
X502176Y385173D01*
X502143Y385228D01*
X502110Y385284D01*
X502049Y385417D01*
X501999Y385572D01*
X501982Y385655D01*
X501971Y385743D01*
X502442Y385804D01*
Y385799D01*
X502447Y385788D01*
X502453Y385765D01*
X502458Y385738D01*
X502464Y385704D01*
X502475Y385666D01*
X502503Y385583D01*
X502542Y385483D01*
X502591Y385389D01*
X502647Y385300D01*
X502713Y385223D01*
X502724Y385217D01*
X502746Y385195D01*
X502791Y385167D01*
X502846Y385140D01*
X502912Y385107D01*
X502996Y385079D01*
X503090Y385057D01*
X503189Y385051D01*
X503223D01*
X503245Y385057D01*
X503306Y385062D01*
X503383Y385079D01*
X503472Y385107D01*
X503566Y385145D01*
X503660Y385201D01*
X503749Y385278D01*
X503760Y385289D01*
X503787Y385322D01*
X503821Y385372D01*
X503865Y385439D01*
X503909Y385522D01*
X503942Y385616D01*
X503970Y385727D01*
X503981Y385849D01*
Y385854D01*
Y385865D01*
Y385882D01*
X503976Y385904D01*
X503970Y385965D01*
X503954Y386037D01*
X503931Y386125D01*
X503893Y386214D01*
X503837Y386303D01*
X503765Y386386D01*
X503754Y386397D01*
X503727Y386419D01*
X503682Y386452D01*
X503621Y386491D01*
X503544Y386530D01*
X503450Y386563D01*
X503344Y386585D01*
X503228Y386596D01*
X503178D01*
X503140Y386590D01*
X503090Y386585D01*
X503034Y386574D01*
X502968Y386563D01*
X502896Y386546D01*
X502951Y386962D01*
X502979D01*
X503001Y386956D01*
X503073D01*
X503134Y386967D01*
X503206Y386978D01*
X503289Y386995D01*
X503383Y387022D01*
X503472Y387061D01*
X503566Y387111D01*
X503572D01*
X503577Y387117D01*
X503605Y387139D01*
X503643Y387177D01*
X503688Y387227D01*
X503732Y387299D01*
X503771Y387382D01*
X503798Y387476D01*
X503810Y387532D01*
Y387593D01*
Y387598D01*
Y387604D01*
Y387637D01*
X503798Y387681D01*
X503787Y387742D01*
X503765Y387809D01*
X503738Y387881D01*
X503693Y387953D01*
X503632Y388019D01*
X503627Y388025D01*
X503599Y388047D01*
X503560Y388074D01*
X503511Y388108D01*
X503444Y388135D01*
X503367Y388163D01*
X503278Y388185D01*
X503178Y388191D01*
X503134D01*
X503084Y388180D01*
X503018Y388169D01*
X502946Y388146D01*
X502874Y388119D01*
X502796Y388074D01*
X502724Y388019D01*
X502719Y388013D01*
X502697Y387986D01*
X502663Y387947D01*
X502625Y387892D01*
X502586Y387820D01*
X502547Y387731D01*
X502514Y387626D01*
X502492Y387504D01*
X502021Y387587D01*
Y387593D01*
X502027Y387609D01*
X502032Y387631D01*
X502038Y387665D01*
X502049Y387704D01*
X502065Y387748D01*
X502099Y387853D01*
X502154Y387975D01*
X502220Y388097D01*
X502303Y388213D01*
X502409Y388318D01*
X502414Y388324D01*
X502425Y388329D01*
X502442Y388340D01*
X502464Y388357D01*
X502492Y388379D01*
X502531Y388401D01*
X502569Y388423D01*
X502619Y388451D01*
X502730Y388495D01*
X502857Y388540D01*
X503007Y388567D01*
X503084Y388578D01*
X503223D01*
X503284Y388573D01*
D02*
G37*
G36*
X500122Y388556D02*
X500172D01*
X500288Y388551D01*
X500410Y388534D01*
X500543Y388517D01*
X500664Y388490D01*
X500725Y388473D01*
X500775Y388456D01*
X500781D01*
X500786Y388451D01*
X500820Y388434D01*
X500869Y388412D01*
X500930Y388373D01*
X500997Y388324D01*
X501069Y388257D01*
X501135Y388180D01*
X501202Y388091D01*
Y388086D01*
X501207Y388080D01*
X501229Y388047D01*
X501251Y387991D01*
X501285Y387919D01*
X501312Y387836D01*
X501340Y387737D01*
X501357Y387631D01*
X501362Y387515D01*
Y387510D01*
Y387499D01*
Y387476D01*
X501357Y387449D01*
Y387410D01*
X501351Y387371D01*
X501329Y387277D01*
X501296Y387166D01*
X501251Y387050D01*
X501185Y386934D01*
X501141Y386878D01*
X501096Y386823D01*
X501091Y386818D01*
X501085Y386812D01*
X501069Y386795D01*
X501046Y386779D01*
X501019Y386757D01*
X500986Y386735D01*
X500941Y386707D01*
X500897Y386674D01*
X500842Y386646D01*
X500781Y386618D01*
X500714Y386585D01*
X500642Y386557D01*
X500559Y386535D01*
X500476Y386507D01*
X500382Y386491D01*
X500282Y386474D01*
X500293Y386469D01*
X500316Y386458D01*
X500349Y386435D01*
X500393Y386413D01*
X500493Y386352D01*
X500543Y386314D01*
X500587Y386280D01*
X500598Y386269D01*
X500626Y386242D01*
X500670Y386197D01*
X500725Y386142D01*
X500786Y386064D01*
X500858Y385981D01*
X500930Y385882D01*
X501008Y385771D01*
X501667Y384730D01*
X501035D01*
X500532Y385527D01*
Y385533D01*
X500521Y385544D01*
X500509Y385561D01*
X500493Y385583D01*
X500454Y385644D01*
X500404Y385721D01*
X500343Y385804D01*
X500282Y385893D01*
X500221Y385976D01*
X500166Y386053D01*
X500160Y386059D01*
X500144Y386081D01*
X500116Y386114D01*
X500078Y386153D01*
X499994Y386236D01*
X499950Y386275D01*
X499906Y386308D01*
X499900Y386314D01*
X499889Y386319D01*
X499867Y386330D01*
X499834Y386347D01*
X499801Y386363D01*
X499762Y386380D01*
X499673Y386408D01*
X499668D01*
X499657Y386413D01*
X499635D01*
X499607Y386419D01*
X499568Y386424D01*
X499524D01*
X499463Y386430D01*
X498810D01*
Y384730D01*
X498300D01*
Y388562D01*
X500078D01*
X500122Y388556D01*
D02*
G37*
G36*
X275562Y341922D02*
X275556Y341878D01*
Y341828D01*
X275551Y341712D01*
X275534Y341590D01*
X275517Y341457D01*
X275490Y341336D01*
X275473Y341275D01*
X275457Y341225D01*
Y341219D01*
X275451Y341214D01*
X275434Y341180D01*
X275412Y341131D01*
X275373Y341070D01*
X275324Y341003D01*
X275257Y340931D01*
X275180Y340865D01*
X275091Y340798D01*
X275086D01*
X275080Y340793D01*
X275047Y340771D01*
X274991Y340749D01*
X274919Y340715D01*
X274836Y340688D01*
X274737Y340660D01*
X274632Y340643D01*
X274515Y340638D01*
X274510D01*
X274499D01*
X274476D01*
X274449Y340643D01*
X274410D01*
X274371Y340649D01*
X274277Y340671D01*
X274166Y340704D01*
X274050Y340749D01*
X273934Y340815D01*
X273878Y340859D01*
X273823Y340904D01*
X273818Y340909D01*
X273812Y340915D01*
X273795Y340931D01*
X273779Y340953D01*
X273757Y340981D01*
X273734Y341014D01*
X273707Y341059D01*
X273673Y341103D01*
X273646Y341158D01*
X273618Y341219D01*
X273585Y341286D01*
X273557Y341358D01*
X273535Y341441D01*
X273507Y341524D01*
X273491Y341618D01*
X273474Y341718D01*
X273469Y341707D01*
X273458Y341684D01*
X273435Y341651D01*
X273413Y341607D01*
X273352Y341507D01*
X273314Y341457D01*
X273280Y341413D01*
X273269Y341402D01*
X273242Y341374D01*
X273197Y341330D01*
X273142Y341275D01*
X273064Y341214D01*
X272981Y341142D01*
X272882Y341070D01*
X272771Y340992D01*
X271730Y340333D01*
Y340965D01*
X272527Y341469D01*
X272533D01*
X272544Y341479D01*
X272561Y341491D01*
X272583Y341507D01*
X272644Y341546D01*
X272721Y341596D01*
X272804Y341657D01*
X272893Y341718D01*
X272976Y341778D01*
X273053Y341834D01*
X273059Y341839D01*
X273081Y341856D01*
X273114Y341884D01*
X273153Y341922D01*
X273236Y342006D01*
X273275Y342050D01*
X273308Y342094D01*
X273314Y342100D01*
X273319Y342111D01*
X273330Y342133D01*
X273347Y342166D01*
X273363Y342199D01*
X273380Y342238D01*
X273408Y342327D01*
Y342332D01*
X273413Y342343D01*
Y342365D01*
X273419Y342393D01*
X273424Y342432D01*
Y342476D01*
X273430Y342537D01*
Y343190D01*
X271730D01*
Y343700D01*
X275562D01*
Y341922D01*
D02*
G37*
G36*
X272804Y339558D02*
X272799D01*
X272788Y339553D01*
X272765Y339547D01*
X272738Y339542D01*
X272705Y339536D01*
X272666Y339525D01*
X272583Y339497D01*
X272483Y339459D01*
X272389Y339409D01*
X272300Y339353D01*
X272223Y339287D01*
X272217Y339276D01*
X272195Y339254D01*
X272167Y339209D01*
X272140Y339154D01*
X272106Y339087D01*
X272079Y339004D01*
X272057Y338910D01*
X272051Y338811D01*
Y338777D01*
X272057Y338755D01*
X272062Y338694D01*
X272079Y338617D01*
X272106Y338528D01*
X272145Y338434D01*
X272201Y338340D01*
X272278Y338251D01*
X272289Y338240D01*
X272323Y338213D01*
X272372Y338179D01*
X272439Y338135D01*
X272522Y338091D01*
X272616Y338058D01*
X272727Y338030D01*
X272848Y338019D01*
X272854D01*
X272865D01*
X272882D01*
X272904Y338024D01*
X272965Y338030D01*
X273037Y338046D01*
X273125Y338069D01*
X273214Y338107D01*
X273303Y338163D01*
X273386Y338235D01*
X273397Y338246D01*
X273419Y338274D01*
X273452Y338318D01*
X273491Y338379D01*
X273530Y338456D01*
X273563Y338550D01*
X273585Y338656D01*
X273596Y338772D01*
Y338822D01*
X273591Y338860D01*
X273585Y338910D01*
X273574Y338966D01*
X273563Y339032D01*
X273546Y339104D01*
X273962Y339049D01*
Y339021D01*
X273956Y338999D01*
Y338927D01*
X273967Y338866D01*
X273978Y338794D01*
X273995Y338711D01*
X274022Y338617D01*
X274061Y338528D01*
X274111Y338434D01*
Y338428D01*
X274116Y338423D01*
X274139Y338395D01*
X274177Y338357D01*
X274227Y338312D01*
X274299Y338268D01*
X274382Y338229D01*
X274476Y338201D01*
X274532Y338190D01*
X274593D01*
X274598D01*
X274604D01*
X274637D01*
X274681Y338201D01*
X274742Y338213D01*
X274809Y338235D01*
X274881Y338262D01*
X274953Y338307D01*
X275019Y338368D01*
X275025Y338373D01*
X275047Y338401D01*
X275075Y338440D01*
X275108Y338489D01*
X275135Y338556D01*
X275163Y338633D01*
X275185Y338722D01*
X275191Y338822D01*
Y338866D01*
X275180Y338916D01*
X275169Y338982D01*
X275146Y339054D01*
X275119Y339126D01*
X275075Y339204D01*
X275019Y339276D01*
X275014Y339281D01*
X274986Y339303D01*
X274947Y339337D01*
X274892Y339375D01*
X274820Y339414D01*
X274731Y339453D01*
X274626Y339486D01*
X274504Y339508D01*
X274587Y339979D01*
X274593D01*
X274609Y339973D01*
X274632Y339968D01*
X274665Y339962D01*
X274704Y339951D01*
X274748Y339935D01*
X274853Y339901D01*
X274975Y339846D01*
X275097Y339780D01*
X275213Y339697D01*
X275318Y339591D01*
X275324Y339586D01*
X275329Y339575D01*
X275340Y339558D01*
X275357Y339536D01*
X275379Y339508D01*
X275401Y339469D01*
X275423Y339431D01*
X275451Y339381D01*
X275495Y339270D01*
X275540Y339143D01*
X275567Y338993D01*
X275578Y338916D01*
Y338777D01*
X275573Y338717D01*
X275562Y338644D01*
X275545Y338556D01*
X275517Y338456D01*
X275484Y338357D01*
X275440Y338257D01*
Y338251D01*
X275434Y338246D01*
X275418Y338213D01*
X275385Y338163D01*
X275346Y338107D01*
X275290Y338041D01*
X275229Y337975D01*
X275158Y337908D01*
X275075Y337853D01*
X275063Y337847D01*
X275036Y337831D01*
X274986Y337808D01*
X274925Y337781D01*
X274853Y337753D01*
X274770Y337731D01*
X274676Y337714D01*
X274582Y337709D01*
X274571D01*
X274537D01*
X274493Y337714D01*
X274432Y337725D01*
X274360Y337742D01*
X274283Y337770D01*
X274205Y337803D01*
X274128Y337847D01*
X274116Y337853D01*
X274094Y337869D01*
X274056Y337902D01*
X274011Y337947D01*
X273962Y338002D01*
X273906Y338069D01*
X273856Y338146D01*
X273806Y338240D01*
Y338235D01*
X273801Y338224D01*
X273795Y338207D01*
X273790Y338185D01*
X273768Y338124D01*
X273734Y338046D01*
X273690Y337958D01*
X273635Y337869D01*
X273563Y337786D01*
X273480Y337709D01*
X273469Y337703D01*
X273435Y337681D01*
X273380Y337648D01*
X273308Y337615D01*
X273220Y337581D01*
X273114Y337548D01*
X272992Y337526D01*
X272860Y337520D01*
X272854D01*
X272837D01*
X272810D01*
X272777Y337526D01*
X272732Y337532D01*
X272682Y337543D01*
X272627Y337554D01*
X272566Y337565D01*
X272433Y337609D01*
X272361Y337642D01*
X272295Y337676D01*
X272223Y337720D01*
X272151Y337770D01*
X272079Y337825D01*
X272012Y337891D01*
X272007Y337897D01*
X271996Y337908D01*
X271979Y337930D01*
X271957Y337958D01*
X271929Y337991D01*
X271902Y338035D01*
X271868Y338085D01*
X271841Y338146D01*
X271807Y338207D01*
X271774Y338279D01*
X271747Y338351D01*
X271719Y338434D01*
X271697Y338523D01*
X271680Y338617D01*
X271669Y338711D01*
X271663Y338816D01*
Y338866D01*
X271669Y338899D01*
X271675Y338943D01*
X271680Y338993D01*
X271691Y339049D01*
X271702Y339110D01*
X271735Y339243D01*
X271791Y339381D01*
X271824Y339453D01*
X271863Y339519D01*
X271913Y339586D01*
X271963Y339652D01*
X271968Y339658D01*
X271979Y339669D01*
X271996Y339686D01*
X272018Y339702D01*
X272046Y339730D01*
X272084Y339757D01*
X272123Y339791D01*
X272173Y339824D01*
X272228Y339857D01*
X272284Y339890D01*
X272417Y339951D01*
X272572Y340001D01*
X272655Y340018D01*
X272743Y340029D01*
X272804Y339558D01*
D02*
G37*
G36*
X275512Y334541D02*
X275141D01*
X275135Y334547D01*
X275124Y334558D01*
X275102Y334580D01*
X275069Y334602D01*
X275030Y334636D01*
X274986Y334680D01*
X274930Y334724D01*
X274864Y334774D01*
X274798Y334824D01*
X274720Y334885D01*
X274632Y334946D01*
X274543Y335006D01*
X274443Y335073D01*
X274338Y335139D01*
X274222Y335206D01*
X274105Y335272D01*
X274100Y335278D01*
X274078Y335289D01*
X274044Y335306D01*
X273995Y335333D01*
X273934Y335361D01*
X273867Y335394D01*
X273790Y335433D01*
X273701Y335472D01*
X273602Y335516D01*
X273502Y335566D01*
X273391Y335610D01*
X273275Y335654D01*
X273037Y335743D01*
X272782Y335826D01*
X272777D01*
X272760Y335832D01*
X272732Y335837D01*
X272699Y335848D01*
X272655Y335859D01*
X272599Y335870D01*
X272538Y335887D01*
X272472Y335898D01*
X272395Y335915D01*
X272311Y335931D01*
X272134Y335959D01*
X271940Y335987D01*
X271730Y336003D01*
Y336485D01*
X271735D01*
X271752D01*
X271774D01*
X271807Y336479D01*
X271852D01*
X271907Y336474D01*
X271968Y336468D01*
X272034Y336463D01*
X272112Y336452D01*
X272190Y336441D01*
X272284Y336424D01*
X272378Y336408D01*
X272477Y336391D01*
X272588Y336369D01*
X272815Y336313D01*
X272821D01*
X272843Y336308D01*
X272876Y336297D01*
X272926Y336280D01*
X272981Y336264D01*
X273048Y336241D01*
X273125Y336219D01*
X273208Y336186D01*
X273303Y336153D01*
X273397Y336119D01*
X273607Y336036D01*
X273829Y335937D01*
X274050Y335826D01*
X274056Y335821D01*
X274078Y335809D01*
X274105Y335793D01*
X274150Y335771D01*
X274200Y335743D01*
X274261Y335704D01*
X274327Y335666D01*
X274399Y335621D01*
X274559Y335516D01*
X274726Y335405D01*
X274897Y335278D01*
X275058Y335145D01*
Y337022D01*
X275512D01*
Y334541D01*
D02*
G37*
G36*
X275562Y302922D02*
X275556Y302878D01*
Y302828D01*
X275551Y302712D01*
X275534Y302590D01*
X275517Y302457D01*
X275490Y302336D01*
X275473Y302275D01*
X275457Y302225D01*
Y302219D01*
X275451Y302214D01*
X275434Y302181D01*
X275412Y302131D01*
X275373Y302070D01*
X275324Y302003D01*
X275257Y301931D01*
X275180Y301865D01*
X275091Y301798D01*
X275086D01*
X275080Y301793D01*
X275047Y301771D01*
X274991Y301749D01*
X274919Y301715D01*
X274836Y301688D01*
X274737Y301660D01*
X274632Y301643D01*
X274515Y301638D01*
X274510D01*
X274499D01*
X274476D01*
X274449Y301643D01*
X274410D01*
X274371Y301649D01*
X274277Y301671D01*
X274166Y301704D01*
X274050Y301749D01*
X273934Y301815D01*
X273878Y301859D01*
X273823Y301904D01*
X273818Y301909D01*
X273812Y301915D01*
X273795Y301931D01*
X273779Y301954D01*
X273757Y301981D01*
X273734Y302014D01*
X273707Y302059D01*
X273673Y302103D01*
X273646Y302158D01*
X273618Y302219D01*
X273585Y302286D01*
X273557Y302358D01*
X273535Y302441D01*
X273507Y302524D01*
X273491Y302618D01*
X273474Y302718D01*
X273469Y302707D01*
X273458Y302684D01*
X273435Y302651D01*
X273413Y302607D01*
X273352Y302507D01*
X273314Y302457D01*
X273280Y302413D01*
X273269Y302402D01*
X273242Y302374D01*
X273197Y302330D01*
X273142Y302275D01*
X273064Y302214D01*
X272981Y302142D01*
X272882Y302070D01*
X272771Y301992D01*
X271730Y301333D01*
Y301965D01*
X272527Y302468D01*
X272533D01*
X272544Y302479D01*
X272561Y302491D01*
X272583Y302507D01*
X272644Y302546D01*
X272721Y302596D01*
X272804Y302657D01*
X272893Y302718D01*
X272976Y302778D01*
X273053Y302834D01*
X273059Y302840D01*
X273081Y302856D01*
X273114Y302884D01*
X273153Y302922D01*
X273236Y303006D01*
X273275Y303050D01*
X273308Y303094D01*
X273314Y303100D01*
X273319Y303111D01*
X273330Y303133D01*
X273347Y303166D01*
X273363Y303199D01*
X273380Y303238D01*
X273408Y303327D01*
Y303332D01*
X273413Y303343D01*
Y303365D01*
X273419Y303393D01*
X273424Y303432D01*
Y303476D01*
X273430Y303537D01*
Y304191D01*
X271730D01*
Y304700D01*
X275562D01*
Y302922D01*
D02*
G37*
G36*
X272804Y300558D02*
X272799D01*
X272788Y300553D01*
X272765Y300547D01*
X272738Y300541D01*
X272705Y300536D01*
X272666Y300525D01*
X272583Y300497D01*
X272483Y300459D01*
X272389Y300409D01*
X272300Y300353D01*
X272223Y300287D01*
X272217Y300276D01*
X272195Y300254D01*
X272167Y300209D01*
X272140Y300154D01*
X272106Y300088D01*
X272079Y300004D01*
X272057Y299910D01*
X272051Y299811D01*
Y299777D01*
X272057Y299755D01*
X272062Y299694D01*
X272079Y299617D01*
X272106Y299528D01*
X272145Y299434D01*
X272201Y299340D01*
X272278Y299251D01*
X272289Y299240D01*
X272323Y299213D01*
X272372Y299179D01*
X272439Y299135D01*
X272522Y299091D01*
X272616Y299058D01*
X272727Y299030D01*
X272848Y299019D01*
X272854D01*
X272865D01*
X272882D01*
X272904Y299024D01*
X272965Y299030D01*
X273037Y299046D01*
X273125Y299069D01*
X273214Y299107D01*
X273303Y299163D01*
X273386Y299235D01*
X273397Y299246D01*
X273419Y299273D01*
X273452Y299318D01*
X273491Y299379D01*
X273530Y299456D01*
X273563Y299550D01*
X273585Y299656D01*
X273596Y299772D01*
Y299822D01*
X273591Y299860D01*
X273585Y299910D01*
X273574Y299966D01*
X273563Y300032D01*
X273546Y300104D01*
X273962Y300049D01*
Y300021D01*
X273956Y299999D01*
Y299927D01*
X273967Y299866D01*
X273978Y299794D01*
X273995Y299711D01*
X274022Y299617D01*
X274061Y299528D01*
X274111Y299434D01*
Y299429D01*
X274116Y299423D01*
X274139Y299395D01*
X274177Y299357D01*
X274227Y299312D01*
X274299Y299268D01*
X274382Y299229D01*
X274476Y299202D01*
X274532Y299190D01*
X274593D01*
X274598D01*
X274604D01*
X274637D01*
X274681Y299202D01*
X274742Y299213D01*
X274809Y299235D01*
X274881Y299262D01*
X274953Y299307D01*
X275019Y299368D01*
X275025Y299373D01*
X275047Y299401D01*
X275075Y299440D01*
X275108Y299489D01*
X275135Y299556D01*
X275163Y299633D01*
X275185Y299722D01*
X275191Y299822D01*
Y299866D01*
X275180Y299916D01*
X275169Y299982D01*
X275146Y300054D01*
X275119Y300126D01*
X275075Y300204D01*
X275019Y300276D01*
X275014Y300281D01*
X274986Y300303D01*
X274947Y300337D01*
X274892Y300375D01*
X274820Y300414D01*
X274731Y300453D01*
X274626Y300486D01*
X274504Y300508D01*
X274587Y300979D01*
X274593D01*
X274609Y300973D01*
X274632Y300968D01*
X274665Y300962D01*
X274704Y300951D01*
X274748Y300935D01*
X274853Y300901D01*
X274975Y300846D01*
X275097Y300780D01*
X275213Y300697D01*
X275318Y300591D01*
X275324Y300586D01*
X275329Y300575D01*
X275340Y300558D01*
X275357Y300536D01*
X275379Y300508D01*
X275401Y300469D01*
X275423Y300431D01*
X275451Y300381D01*
X275495Y300270D01*
X275540Y300143D01*
X275567Y299993D01*
X275578Y299916D01*
Y299777D01*
X275573Y299716D01*
X275562Y299645D01*
X275545Y299556D01*
X275517Y299456D01*
X275484Y299357D01*
X275440Y299257D01*
Y299251D01*
X275434Y299246D01*
X275418Y299213D01*
X275385Y299163D01*
X275346Y299107D01*
X275290Y299041D01*
X275229Y298974D01*
X275158Y298908D01*
X275075Y298853D01*
X275063Y298847D01*
X275036Y298831D01*
X274986Y298808D01*
X274925Y298781D01*
X274853Y298753D01*
X274770Y298731D01*
X274676Y298714D01*
X274582Y298709D01*
X274571D01*
X274537D01*
X274493Y298714D01*
X274432Y298725D01*
X274360Y298742D01*
X274283Y298770D01*
X274205Y298803D01*
X274128Y298847D01*
X274116Y298853D01*
X274094Y298869D01*
X274056Y298902D01*
X274011Y298947D01*
X273962Y299002D01*
X273906Y299069D01*
X273856Y299146D01*
X273806Y299240D01*
Y299235D01*
X273801Y299224D01*
X273795Y299207D01*
X273790Y299185D01*
X273768Y299124D01*
X273734Y299046D01*
X273690Y298958D01*
X273635Y298869D01*
X273563Y298786D01*
X273480Y298709D01*
X273469Y298703D01*
X273435Y298681D01*
X273380Y298648D01*
X273308Y298615D01*
X273220Y298581D01*
X273114Y298548D01*
X272992Y298526D01*
X272860Y298520D01*
X272854D01*
X272837D01*
X272810D01*
X272777Y298526D01*
X272732Y298531D01*
X272682Y298543D01*
X272627Y298554D01*
X272566Y298565D01*
X272433Y298609D01*
X272361Y298642D01*
X272295Y298675D01*
X272223Y298720D01*
X272151Y298770D01*
X272079Y298825D01*
X272012Y298891D01*
X272007Y298897D01*
X271996Y298908D01*
X271979Y298930D01*
X271957Y298958D01*
X271929Y298991D01*
X271902Y299035D01*
X271868Y299085D01*
X271841Y299146D01*
X271807Y299207D01*
X271774Y299279D01*
X271747Y299351D01*
X271719Y299434D01*
X271697Y299523D01*
X271680Y299617D01*
X271669Y299711D01*
X271663Y299816D01*
Y299866D01*
X271669Y299899D01*
X271675Y299944D01*
X271680Y299993D01*
X271691Y300049D01*
X271702Y300110D01*
X271735Y300243D01*
X271791Y300381D01*
X271824Y300453D01*
X271863Y300519D01*
X271913Y300586D01*
X271963Y300652D01*
X271968Y300658D01*
X271979Y300669D01*
X271996Y300686D01*
X272018Y300702D01*
X272046Y300730D01*
X272084Y300758D01*
X272123Y300791D01*
X272173Y300824D01*
X272228Y300857D01*
X272284Y300890D01*
X272417Y300951D01*
X272572Y301001D01*
X272655Y301018D01*
X272743Y301029D01*
X272804Y300558D01*
D02*
G37*
G36*
X274377Y298050D02*
X274427Y298044D01*
X274487Y298039D01*
X274548Y298028D01*
X274620Y298011D01*
X274764Y297972D01*
X274842Y297945D01*
X274925Y297911D01*
X275002Y297873D01*
X275075Y297823D01*
X275152Y297773D01*
X275218Y297712D01*
X275224Y297707D01*
X275235Y297695D01*
X275252Y297679D01*
X275274Y297651D01*
X275301Y297618D01*
X275335Y297574D01*
X275362Y297529D01*
X275401Y297474D01*
X275434Y297418D01*
X275462Y297352D01*
X275523Y297203D01*
X275545Y297125D01*
X275562Y297036D01*
X275573Y296948D01*
X275578Y296854D01*
Y296815D01*
X275573Y296787D01*
Y296760D01*
X275567Y296721D01*
X275551Y296627D01*
X275529Y296521D01*
X275490Y296405D01*
X275440Y296289D01*
X275373Y296173D01*
Y296167D01*
X275362Y296162D01*
X275351Y296145D01*
X275335Y296123D01*
X275290Y296068D01*
X275229Y295996D01*
X275146Y295924D01*
X275047Y295840D01*
X274930Y295768D01*
X274798Y295702D01*
X274792D01*
X274781Y295697D01*
X274759Y295685D01*
X274731Y295674D01*
X274692Y295663D01*
X274643Y295647D01*
X274587Y295636D01*
X274526Y295619D01*
X274454Y295602D01*
X274371Y295586D01*
X274283Y295575D01*
X274188Y295564D01*
X274083Y295553D01*
X273973Y295541D01*
X273851Y295536D01*
X273723D01*
X273718D01*
X273690D01*
X273651D01*
X273602D01*
X273541Y295541D01*
X273469D01*
X273386Y295547D01*
X273303Y295558D01*
X273114Y295575D01*
X272915Y295602D01*
X272727Y295641D01*
X272633Y295669D01*
X272549Y295697D01*
X272544D01*
X272533Y295702D01*
X272511Y295713D01*
X272477Y295724D01*
X272444Y295741D01*
X272400Y295763D01*
X272306Y295818D01*
X272201Y295885D01*
X272090Y295962D01*
X271985Y296062D01*
X271891Y296173D01*
Y296178D01*
X271880Y296189D01*
X271868Y296206D01*
X271857Y296228D01*
X271841Y296261D01*
X271819Y296294D01*
X271796Y296339D01*
X271780Y296383D01*
X271735Y296488D01*
X271697Y296616D01*
X271675Y296754D01*
X271663Y296909D01*
Y296953D01*
X271669Y296981D01*
Y297020D01*
X271675Y297064D01*
X271697Y297169D01*
X271724Y297286D01*
X271769Y297407D01*
X271830Y297529D01*
X271868Y297590D01*
X271913Y297646D01*
X271918Y297651D01*
X271924Y297657D01*
X271940Y297673D01*
X271957Y297690D01*
X271985Y297712D01*
X272018Y297740D01*
X272095Y297795D01*
X272195Y297850D01*
X272317Y297906D01*
X272455Y297950D01*
X272616Y297983D01*
X272655Y297529D01*
X272649D01*
X272638Y297524D01*
X272627D01*
X272605Y297518D01*
X272544Y297502D01*
X272477Y297479D01*
X272400Y297452D01*
X272323Y297413D01*
X272250Y297369D01*
X272190Y297313D01*
X272184Y297308D01*
X272167Y297286D01*
X272145Y297247D01*
X272123Y297203D01*
X272095Y297142D01*
X272073Y297070D01*
X272057Y296987D01*
X272051Y296898D01*
Y296859D01*
X272057Y296821D01*
X272062Y296771D01*
X272073Y296710D01*
X272090Y296649D01*
X272112Y296582D01*
X272145Y296521D01*
X272151Y296516D01*
X272162Y296494D01*
X272184Y296461D01*
X272217Y296427D01*
X272256Y296383D01*
X272300Y296339D01*
X272350Y296294D01*
X272411Y296250D01*
X272417Y296245D01*
X272444Y296234D01*
X272483Y296211D01*
X272533Y296189D01*
X272599Y296162D01*
X272677Y296134D01*
X272765Y296106D01*
X272865Y296078D01*
X272871D01*
X272876Y296073D01*
X272893D01*
X272915Y296068D01*
X272970Y296056D01*
X273042Y296040D01*
X273131Y296029D01*
X273225Y296018D01*
X273330Y296012D01*
X273441Y296007D01*
X273447D01*
X273463D01*
X273491D01*
X273535D01*
X273524Y296012D01*
X273496Y296034D01*
X273458Y296068D01*
X273402Y296106D01*
X273347Y296162D01*
X273286Y296228D01*
X273225Y296306D01*
X273170Y296394D01*
X273164Y296405D01*
X273148Y296438D01*
X273125Y296488D01*
X273103Y296549D01*
X273076Y296632D01*
X273053Y296721D01*
X273037Y296821D01*
X273031Y296926D01*
Y296970D01*
X273037Y297003D01*
X273042Y297048D01*
X273048Y297092D01*
X273059Y297147D01*
X273076Y297203D01*
X273114Y297330D01*
X273142Y297396D01*
X273175Y297463D01*
X273214Y297535D01*
X273264Y297601D01*
X273314Y297668D01*
X273375Y297729D01*
X273380Y297734D01*
X273391Y297745D01*
X273408Y297756D01*
X273435Y297778D01*
X273474Y297806D01*
X273513Y297834D01*
X273563Y297861D01*
X273618Y297889D01*
X273679Y297922D01*
X273745Y297950D01*
X273823Y297978D01*
X273901Y298006D01*
X273989Y298028D01*
X274083Y298039D01*
X274177Y298050D01*
X274283Y298055D01*
X274288D01*
X274310D01*
X274338D01*
X274377Y298050D01*
D02*
G37*
G36*
X275562Y264923D02*
X275556Y264878D01*
Y264828D01*
X275551Y264712D01*
X275534Y264590D01*
X275517Y264457D01*
X275490Y264336D01*
X275473Y264275D01*
X275457Y264225D01*
Y264219D01*
X275451Y264214D01*
X275434Y264181D01*
X275412Y264131D01*
X275373Y264070D01*
X275324Y264003D01*
X275257Y263931D01*
X275180Y263865D01*
X275091Y263799D01*
X275086D01*
X275080Y263793D01*
X275047Y263771D01*
X274991Y263749D01*
X274919Y263715D01*
X274836Y263688D01*
X274737Y263660D01*
X274632Y263643D01*
X274515Y263638D01*
X274510D01*
X274499D01*
X274476D01*
X274449Y263643D01*
X274410D01*
X274371Y263649D01*
X274277Y263671D01*
X274166Y263704D01*
X274050Y263749D01*
X273934Y263815D01*
X273878Y263859D01*
X273823Y263904D01*
X273818Y263909D01*
X273812Y263915D01*
X273795Y263931D01*
X273779Y263953D01*
X273757Y263981D01*
X273734Y264014D01*
X273707Y264059D01*
X273673Y264103D01*
X273646Y264158D01*
X273618Y264219D01*
X273585Y264286D01*
X273557Y264358D01*
X273535Y264441D01*
X273507Y264524D01*
X273491Y264618D01*
X273474Y264718D01*
X273469Y264707D01*
X273458Y264684D01*
X273435Y264651D01*
X273413Y264607D01*
X273352Y264507D01*
X273314Y264457D01*
X273280Y264413D01*
X273269Y264402D01*
X273242Y264374D01*
X273197Y264330D01*
X273142Y264275D01*
X273064Y264214D01*
X272981Y264142D01*
X272882Y264070D01*
X272771Y263992D01*
X271730Y263333D01*
Y263965D01*
X272527Y264468D01*
X272533D01*
X272544Y264480D01*
X272561Y264491D01*
X272583Y264507D01*
X272644Y264546D01*
X272721Y264596D01*
X272804Y264657D01*
X272893Y264718D01*
X272976Y264779D01*
X273053Y264834D01*
X273059Y264839D01*
X273081Y264856D01*
X273114Y264884D01*
X273153Y264923D01*
X273236Y265006D01*
X273275Y265050D01*
X273308Y265094D01*
X273314Y265100D01*
X273319Y265111D01*
X273330Y265133D01*
X273347Y265166D01*
X273363Y265199D01*
X273380Y265238D01*
X273408Y265327D01*
Y265332D01*
X273413Y265343D01*
Y265366D01*
X273419Y265393D01*
X273424Y265432D01*
Y265476D01*
X273430Y265537D01*
Y266191D01*
X271730D01*
Y266700D01*
X275562D01*
Y264923D01*
D02*
G37*
G36*
Y261440D02*
Y261058D01*
X273081D01*
Y260537D01*
X272649D01*
Y261058D01*
X271730D01*
Y261528D01*
X272649D01*
Y263195D01*
X273081D01*
X275562Y261440D01*
D02*
G37*
G36*
X273790Y260050D02*
X273856D01*
X273928Y260044D01*
X274011Y260039D01*
X274183Y260022D01*
X274366Y259994D01*
X274548Y259961D01*
X274632Y259939D01*
X274715Y259917D01*
X274720D01*
X274731Y259911D01*
X274753Y259900D01*
X274781Y259889D01*
X274820Y259878D01*
X274858Y259856D01*
X274953Y259812D01*
X275052Y259756D01*
X275158Y259684D01*
X275263Y259601D01*
X275351Y259502D01*
Y259496D01*
X275362Y259491D01*
X275373Y259474D01*
X275385Y259452D01*
X275407Y259424D01*
X275423Y259391D01*
X275468Y259308D01*
X275506Y259208D01*
X275545Y259092D01*
X275567Y258953D01*
X275578Y258804D01*
Y258754D01*
X275573Y258693D01*
X275562Y258621D01*
X275545Y258538D01*
X275523Y258449D01*
X275495Y258355D01*
X275451Y258267D01*
Y258261D01*
X275445Y258256D01*
X275429Y258228D01*
X275401Y258184D01*
X275362Y258128D01*
X275307Y258067D01*
X275246Y258001D01*
X275174Y257940D01*
X275091Y257879D01*
X275080Y257874D01*
X275052Y257852D01*
X275002Y257829D01*
X274930Y257791D01*
X274847Y257757D01*
X274753Y257713D01*
X274643Y257674D01*
X274521Y257641D01*
X274515D01*
X274504Y257636D01*
X274487Y257630D01*
X274460Y257624D01*
X274427Y257619D01*
X274388Y257613D01*
X274338Y257602D01*
X274283Y257597D01*
X274222Y257586D01*
X274155Y257580D01*
X274078Y257575D01*
X274000Y257564D01*
X273912Y257558D01*
X273823D01*
X273723Y257553D01*
X273618D01*
X273613D01*
X273591D01*
X273552D01*
X273507D01*
X273447Y257558D01*
X273380D01*
X273308Y257564D01*
X273230Y257569D01*
X273053Y257586D01*
X272871Y257613D01*
X272693Y257647D01*
X272610Y257669D01*
X272527Y257696D01*
X272522D01*
X272511Y257702D01*
X272489Y257713D01*
X272461Y257724D01*
X272422Y257735D01*
X272383Y257757D01*
X272289Y257802D01*
X272190Y257857D01*
X272079Y257929D01*
X271979Y258012D01*
X271885Y258112D01*
Y258117D01*
X271874Y258123D01*
X271863Y258139D01*
X271852Y258162D01*
X271835Y258189D01*
X271813Y258217D01*
X271774Y258300D01*
X271735Y258400D01*
X271697Y258516D01*
X271675Y258654D01*
X271663Y258804D01*
Y258859D01*
X271669Y258898D01*
X271675Y258942D01*
X271686Y258998D01*
X271697Y259059D01*
X271713Y259125D01*
X271735Y259191D01*
X271758Y259263D01*
X271791Y259335D01*
X271830Y259408D01*
X271874Y259480D01*
X271929Y259551D01*
X271990Y259618D01*
X272057Y259679D01*
X272062Y259684D01*
X272079Y259695D01*
X272106Y259712D01*
X272151Y259740D01*
X272201Y259767D01*
X272267Y259795D01*
X272345Y259834D01*
X272433Y259867D01*
X272533Y259900D01*
X272649Y259933D01*
X272777Y259967D01*
X272920Y259994D01*
X273076Y260022D01*
X273242Y260039D01*
X273424Y260050D01*
X273618Y260055D01*
X273624D01*
X273646D01*
X273685D01*
X273729D01*
X273790Y260050D01*
D02*
G37*
G36*
X351467Y240480D02*
X350996D01*
Y243476D01*
X350990Y243470D01*
X350963Y243448D01*
X350929Y243415D01*
X350874Y243376D01*
X350813Y243326D01*
X350736Y243271D01*
X350647Y243210D01*
X350547Y243149D01*
X350542D01*
X350536Y243143D01*
X350503Y243121D01*
X350448Y243093D01*
X350381Y243060D01*
X350304Y243022D01*
X350221Y242983D01*
X350138Y242944D01*
X350055Y242911D01*
Y243365D01*
X350060D01*
X350071Y243376D01*
X350093Y243382D01*
X350121Y243398D01*
X350154Y243415D01*
X350193Y243437D01*
X350287Y243492D01*
X350398Y243553D01*
X350509Y243631D01*
X350625Y243719D01*
X350741Y243813D01*
X350747Y243819D01*
X350752Y243825D01*
X350769Y243841D01*
X350791Y243858D01*
X350841Y243913D01*
X350907Y243979D01*
X350974Y244057D01*
X351046Y244146D01*
X351107Y244234D01*
X351162Y244328D01*
X351467D01*
Y240480D01*
D02*
G37*
G36*
X348692Y241831D02*
X349213D01*
Y241399D01*
X348692D01*
Y240480D01*
X348222D01*
Y241399D01*
X346555D01*
Y241831D01*
X348310Y244312D01*
X348692D01*
Y241831D01*
D02*
G37*
G36*
X344872Y244306D02*
X344922D01*
X345038Y244301D01*
X345160Y244284D01*
X345293Y244267D01*
X345414Y244240D01*
X345475Y244223D01*
X345525Y244207D01*
X345531D01*
X345536Y244201D01*
X345569Y244184D01*
X345619Y244162D01*
X345680Y244123D01*
X345747Y244074D01*
X345819Y244007D01*
X345885Y243930D01*
X345951Y243841D01*
Y243836D01*
X345957Y243830D01*
X345979Y243797D01*
X346001Y243741D01*
X346035Y243669D01*
X346062Y243586D01*
X346090Y243487D01*
X346107Y243382D01*
X346112Y243265D01*
Y243260D01*
Y243249D01*
Y243226D01*
X346107Y243199D01*
Y243160D01*
X346101Y243121D01*
X346079Y243027D01*
X346046Y242916D01*
X346001Y242800D01*
X345935Y242684D01*
X345891Y242628D01*
X345846Y242573D01*
X345841Y242568D01*
X345835Y242562D01*
X345819Y242545D01*
X345797Y242529D01*
X345769Y242507D01*
X345736Y242484D01*
X345691Y242457D01*
X345647Y242423D01*
X345592Y242396D01*
X345531Y242368D01*
X345464Y242335D01*
X345392Y242307D01*
X345309Y242285D01*
X345226Y242257D01*
X345132Y242241D01*
X345032Y242224D01*
X345043Y242219D01*
X345066Y242208D01*
X345099Y242185D01*
X345143Y242163D01*
X345243Y242102D01*
X345293Y242064D01*
X345337Y242030D01*
X345348Y242019D01*
X345376Y241992D01*
X345420Y241947D01*
X345475Y241892D01*
X345536Y241814D01*
X345608Y241731D01*
X345680Y241632D01*
X345758Y241521D01*
X346417Y240480D01*
X345785D01*
X345281Y241277D01*
Y241283D01*
X345271Y241294D01*
X345259Y241311D01*
X345243Y241333D01*
X345204Y241394D01*
X345154Y241471D01*
X345093Y241554D01*
X345032Y241643D01*
X344971Y241726D01*
X344916Y241803D01*
X344911Y241809D01*
X344894Y241831D01*
X344866Y241864D01*
X344827Y241903D01*
X344744Y241986D01*
X344700Y242025D01*
X344656Y242058D01*
X344650Y242064D01*
X344639Y242069D01*
X344617Y242080D01*
X344584Y242097D01*
X344551Y242113D01*
X344512Y242130D01*
X344423Y242158D01*
X344418D01*
X344407Y242163D01*
X344384D01*
X344357Y242169D01*
X344318Y242174D01*
X344274D01*
X344213Y242180D01*
X343559D01*
Y240480D01*
X343050D01*
Y244312D01*
X344827D01*
X344872Y244306D01*
D02*
G37*
G36*
X426562Y332923D02*
X426556Y332878D01*
Y332828D01*
X426551Y332712D01*
X426534Y332590D01*
X426517Y332457D01*
X426490Y332336D01*
X426473Y332275D01*
X426456Y332225D01*
Y332219D01*
X426451Y332214D01*
X426434Y332180D01*
X426412Y332131D01*
X426373Y332070D01*
X426324Y332003D01*
X426257Y331931D01*
X426180Y331865D01*
X426091Y331799D01*
X426086D01*
X426080Y331793D01*
X426047Y331771D01*
X425991Y331749D01*
X425919Y331715D01*
X425836Y331688D01*
X425737Y331660D01*
X425631Y331643D01*
X425515Y331638D01*
X425510D01*
X425499D01*
X425476D01*
X425449Y331643D01*
X425410D01*
X425371Y331649D01*
X425277Y331671D01*
X425166Y331704D01*
X425050Y331749D01*
X424934Y331815D01*
X424878Y331859D01*
X424823Y331904D01*
X424818Y331909D01*
X424812Y331915D01*
X424795Y331931D01*
X424779Y331954D01*
X424757Y331981D01*
X424734Y332014D01*
X424707Y332059D01*
X424674Y332103D01*
X424646Y332158D01*
X424618Y332219D01*
X424585Y332286D01*
X424557Y332358D01*
X424535Y332441D01*
X424507Y332524D01*
X424491Y332618D01*
X424474Y332718D01*
X424469Y332707D01*
X424458Y332684D01*
X424435Y332651D01*
X424413Y332607D01*
X424352Y332507D01*
X424314Y332457D01*
X424280Y332413D01*
X424269Y332402D01*
X424242Y332374D01*
X424197Y332330D01*
X424142Y332275D01*
X424064Y332214D01*
X423981Y332142D01*
X423882Y332070D01*
X423771Y331992D01*
X422730Y331333D01*
Y331965D01*
X423527Y332468D01*
X423533D01*
X423544Y332480D01*
X423561Y332491D01*
X423583Y332507D01*
X423644Y332546D01*
X423721Y332596D01*
X423804Y332657D01*
X423893Y332718D01*
X423976Y332779D01*
X424053Y332834D01*
X424059Y332840D01*
X424081Y332856D01*
X424114Y332884D01*
X424153Y332923D01*
X424236Y333006D01*
X424275Y333050D01*
X424308Y333094D01*
X424314Y333100D01*
X424319Y333111D01*
X424330Y333133D01*
X424347Y333166D01*
X424364Y333199D01*
X424380Y333238D01*
X424408Y333327D01*
Y333332D01*
X424413Y333343D01*
Y333366D01*
X424419Y333393D01*
X424424Y333432D01*
Y333476D01*
X424430Y333537D01*
Y334190D01*
X422730D01*
Y334700D01*
X426562D01*
Y332923D01*
D02*
G37*
G36*
Y329440D02*
Y329058D01*
X424081D01*
Y328537D01*
X423649D01*
Y329058D01*
X422730D01*
Y329528D01*
X423649D01*
Y331195D01*
X424081D01*
X426562Y329440D01*
D02*
G37*
G36*
X423771Y327562D02*
X423765D01*
X423754D01*
X423738Y327557D01*
X423710Y327551D01*
X423649Y327535D01*
X423566Y327513D01*
X423483Y327480D01*
X423389Y327435D01*
X423306Y327380D01*
X423228Y327313D01*
X423223Y327302D01*
X423201Y327280D01*
X423173Y327236D01*
X423140Y327175D01*
X423106Y327108D01*
X423079Y327025D01*
X423057Y326931D01*
X423051Y326826D01*
Y326793D01*
X423057Y326771D01*
X423062Y326704D01*
X423084Y326627D01*
X423112Y326533D01*
X423156Y326438D01*
X423223Y326339D01*
X423262Y326295D01*
X423306Y326250D01*
X423311Y326245D01*
X423317Y326239D01*
X423334Y326228D01*
X423350Y326211D01*
X423411Y326173D01*
X423489Y326128D01*
X423583Y326090D01*
X423699Y326051D01*
X423837Y326023D01*
X423909Y326012D01*
X423987D01*
X423993D01*
X424003D01*
X424026D01*
X424053Y326018D01*
X424087D01*
X424125Y326023D01*
X424214Y326040D01*
X424319Y326068D01*
X424424Y326106D01*
X424524Y326162D01*
X424618Y326239D01*
X424624D01*
X424629Y326250D01*
X424657Y326278D01*
X424696Y326328D01*
X424740Y326394D01*
X424779Y326483D01*
X424818Y326582D01*
X424845Y326699D01*
X424856Y326765D01*
Y326870D01*
X424851Y326915D01*
X424845Y326970D01*
X424829Y327037D01*
X424812Y327103D01*
X424784Y327175D01*
X424751Y327247D01*
X424745Y327252D01*
X424734Y327275D01*
X424707Y327308D01*
X424679Y327352D01*
X424640Y327396D01*
X424590Y327441D01*
X424541Y327491D01*
X424480Y327529D01*
X424541Y327972D01*
X426512Y327601D01*
Y325696D01*
X426063D01*
Y327230D01*
X425028Y327435D01*
X425033Y327430D01*
X425039Y327419D01*
X425050Y327402D01*
X425067Y327374D01*
X425083Y327341D01*
X425105Y327302D01*
X425150Y327214D01*
X425194Y327103D01*
X425233Y326981D01*
X425261Y326848D01*
X425272Y326782D01*
Y326660D01*
X425266Y326627D01*
X425261Y326582D01*
X425255Y326533D01*
X425244Y326477D01*
X425227Y326416D01*
X425188Y326283D01*
X425161Y326211D01*
X425122Y326139D01*
X425083Y326068D01*
X425039Y325995D01*
X424984Y325929D01*
X424923Y325863D01*
X424917Y325857D01*
X424906Y325846D01*
X424889Y325829D01*
X424862Y325807D01*
X424823Y325779D01*
X424784Y325752D01*
X424734Y325719D01*
X424679Y325685D01*
X424618Y325658D01*
X424552Y325625D01*
X424474Y325597D01*
X424397Y325569D01*
X424314Y325547D01*
X424220Y325530D01*
X424125Y325519D01*
X424026Y325514D01*
X424020D01*
X424003D01*
X423976D01*
X423937Y325519D01*
X423893Y325525D01*
X423843Y325530D01*
X423782Y325541D01*
X423721Y325552D01*
X423577Y325586D01*
X423428Y325641D01*
X423350Y325674D01*
X423278Y325719D01*
X423201Y325763D01*
X423129Y325818D01*
X423123Y325824D01*
X423106Y325835D01*
X423084Y325857D01*
X423057Y325885D01*
X423023Y325924D01*
X422979Y325968D01*
X422940Y326023D01*
X422896Y326084D01*
X422852Y326151D01*
X422813Y326228D01*
X422774Y326311D01*
X422735Y326400D01*
X422708Y326494D01*
X422686Y326599D01*
X422669Y326710D01*
X422663Y326826D01*
Y326876D01*
X422669Y326915D01*
X422675Y326959D01*
X422680Y327009D01*
X422686Y327070D01*
X422702Y327131D01*
X422735Y327269D01*
X422785Y327407D01*
X422819Y327480D01*
X422857Y327551D01*
X422902Y327618D01*
X422952Y327684D01*
X422957Y327690D01*
X422963Y327701D01*
X422985Y327712D01*
X423007Y327734D01*
X423035Y327762D01*
X423068Y327789D01*
X423112Y327823D01*
X423162Y327850D01*
X423212Y327884D01*
X423273Y327917D01*
X423405Y327978D01*
X423561Y328028D01*
X423644Y328044D01*
X423732Y328055D01*
X423771Y327562D01*
D02*
G37*
G36*
X427562Y295923D02*
X427556Y295878D01*
Y295828D01*
X427551Y295712D01*
X427534Y295590D01*
X427518Y295457D01*
X427490Y295336D01*
X427473Y295275D01*
X427457Y295225D01*
Y295219D01*
X427451Y295214D01*
X427434Y295180D01*
X427412Y295131D01*
X427374Y295070D01*
X427324Y295003D01*
X427257Y294931D01*
X427180Y294865D01*
X427091Y294799D01*
X427086D01*
X427080Y294793D01*
X427047Y294771D01*
X426991Y294749D01*
X426919Y294715D01*
X426836Y294688D01*
X426737Y294660D01*
X426632Y294643D01*
X426515Y294638D01*
X426510D01*
X426499D01*
X426477D01*
X426449Y294643D01*
X426410D01*
X426371Y294649D01*
X426277Y294671D01*
X426166Y294704D01*
X426050Y294749D01*
X425934Y294815D01*
X425878Y294859D01*
X425823Y294904D01*
X425817Y294909D01*
X425812Y294915D01*
X425795Y294931D01*
X425779Y294953D01*
X425757Y294981D01*
X425734Y295014D01*
X425707Y295059D01*
X425674Y295103D01*
X425646Y295158D01*
X425618Y295219D01*
X425585Y295286D01*
X425557Y295358D01*
X425535Y295441D01*
X425508Y295524D01*
X425491Y295618D01*
X425474Y295718D01*
X425469Y295707D01*
X425458Y295684D01*
X425435Y295651D01*
X425413Y295607D01*
X425352Y295507D01*
X425314Y295457D01*
X425280Y295413D01*
X425269Y295402D01*
X425242Y295374D01*
X425197Y295330D01*
X425142Y295275D01*
X425065Y295214D01*
X424981Y295142D01*
X424882Y295070D01*
X424771Y294992D01*
X423730Y294333D01*
Y294965D01*
X424527Y295469D01*
X424533D01*
X424544Y295480D01*
X424561Y295491D01*
X424583Y295507D01*
X424644Y295546D01*
X424721Y295596D01*
X424804Y295657D01*
X424893Y295718D01*
X424976Y295779D01*
X425053Y295834D01*
X425059Y295840D01*
X425081Y295856D01*
X425114Y295884D01*
X425153Y295923D01*
X425236Y296006D01*
X425275Y296050D01*
X425308Y296094D01*
X425314Y296100D01*
X425319Y296111D01*
X425330Y296133D01*
X425347Y296166D01*
X425364Y296199D01*
X425380Y296238D01*
X425408Y296327D01*
Y296332D01*
X425413Y296343D01*
Y296366D01*
X425419Y296393D01*
X425424Y296432D01*
Y296476D01*
X425430Y296537D01*
Y297190D01*
X423730D01*
Y297700D01*
X427562D01*
Y295923D01*
D02*
G37*
G36*
Y292440D02*
Y292058D01*
X425081D01*
Y291537D01*
X424649D01*
Y292058D01*
X423730D01*
Y292528D01*
X424649D01*
Y294195D01*
X425081D01*
X427562Y292440D01*
D02*
G37*
G36*
X427512Y288541D02*
X427141D01*
X427135Y288547D01*
X427124Y288558D01*
X427102Y288580D01*
X427069Y288602D01*
X427030Y288636D01*
X426986Y288680D01*
X426931Y288724D01*
X426864Y288774D01*
X426798Y288824D01*
X426720Y288885D01*
X426632Y288946D01*
X426543Y289007D01*
X426443Y289073D01*
X426338Y289139D01*
X426222Y289206D01*
X426105Y289272D01*
X426100Y289278D01*
X426078Y289289D01*
X426045Y289306D01*
X425995Y289333D01*
X425934Y289361D01*
X425867Y289394D01*
X425790Y289433D01*
X425701Y289472D01*
X425602Y289516D01*
X425502Y289566D01*
X425391Y289610D01*
X425275Y289654D01*
X425037Y289743D01*
X424782Y289826D01*
X424776D01*
X424760Y289832D01*
X424732Y289837D01*
X424699Y289848D01*
X424655Y289859D01*
X424599Y289870D01*
X424538Y289887D01*
X424472Y289898D01*
X424394Y289915D01*
X424311Y289931D01*
X424134Y289959D01*
X423940Y289987D01*
X423730Y290003D01*
Y290485D01*
X423736D01*
X423752D01*
X423774D01*
X423807Y290480D01*
X423852D01*
X423907Y290474D01*
X423968Y290468D01*
X424035Y290463D01*
X424112Y290452D01*
X424190Y290441D01*
X424284Y290424D01*
X424378Y290408D01*
X424478Y290391D01*
X424588Y290369D01*
X424815Y290313D01*
X424821D01*
X424843Y290308D01*
X424876Y290297D01*
X424926Y290280D01*
X424981Y290264D01*
X425048Y290241D01*
X425125Y290219D01*
X425208Y290186D01*
X425303Y290153D01*
X425397Y290119D01*
X425607Y290037D01*
X425829Y289937D01*
X426050Y289826D01*
X426056Y289820D01*
X426078Y289809D01*
X426105Y289793D01*
X426150Y289771D01*
X426200Y289743D01*
X426260Y289704D01*
X426327Y289666D01*
X426399Y289621D01*
X426559Y289516D01*
X426726Y289405D01*
X426897Y289278D01*
X427058Y289145D01*
Y291022D01*
X427512D01*
Y288541D01*
D02*
G37*
G36*
X428562Y254923D02*
X428556Y254878D01*
Y254828D01*
X428551Y254712D01*
X428534Y254590D01*
X428517Y254457D01*
X428490Y254336D01*
X428473Y254275D01*
X428456Y254225D01*
Y254219D01*
X428451Y254214D01*
X428434Y254181D01*
X428412Y254131D01*
X428373Y254070D01*
X428324Y254003D01*
X428257Y253931D01*
X428180Y253865D01*
X428091Y253799D01*
X428086D01*
X428080Y253793D01*
X428047Y253771D01*
X427991Y253749D01*
X427919Y253715D01*
X427836Y253688D01*
X427737Y253660D01*
X427631Y253643D01*
X427515Y253638D01*
X427510D01*
X427499D01*
X427477D01*
X427449Y253643D01*
X427410D01*
X427371Y253649D01*
X427277Y253671D01*
X427166Y253704D01*
X427050Y253749D01*
X426934Y253815D01*
X426878Y253859D01*
X426823Y253904D01*
X426818Y253909D01*
X426812Y253915D01*
X426795Y253931D01*
X426779Y253953D01*
X426757Y253981D01*
X426735Y254014D01*
X426707Y254059D01*
X426674Y254103D01*
X426646Y254158D01*
X426618Y254219D01*
X426585Y254286D01*
X426557Y254358D01*
X426535Y254441D01*
X426507Y254524D01*
X426491Y254618D01*
X426474Y254718D01*
X426469Y254707D01*
X426458Y254684D01*
X426436Y254651D01*
X426413Y254607D01*
X426352Y254507D01*
X426314Y254457D01*
X426280Y254413D01*
X426269Y254402D01*
X426242Y254374D01*
X426197Y254330D01*
X426142Y254275D01*
X426064Y254214D01*
X425981Y254142D01*
X425882Y254070D01*
X425771Y253992D01*
X424730Y253333D01*
Y253965D01*
X425527Y254468D01*
X425533D01*
X425544Y254480D01*
X425561Y254491D01*
X425583Y254507D01*
X425644Y254546D01*
X425721Y254596D01*
X425804Y254657D01*
X425893Y254718D01*
X425976Y254779D01*
X426053Y254834D01*
X426059Y254839D01*
X426081Y254856D01*
X426114Y254884D01*
X426153Y254923D01*
X426236Y255006D01*
X426275Y255050D01*
X426308Y255094D01*
X426314Y255100D01*
X426319Y255111D01*
X426330Y255133D01*
X426347Y255166D01*
X426363Y255199D01*
X426380Y255238D01*
X426408Y255327D01*
Y255332D01*
X426413Y255343D01*
Y255366D01*
X426419Y255393D01*
X426424Y255432D01*
Y255476D01*
X426430Y255537D01*
Y256190D01*
X424730D01*
Y256700D01*
X428562D01*
Y254923D01*
D02*
G37*
G36*
Y251440D02*
Y251058D01*
X426081D01*
Y250537D01*
X425649D01*
Y251058D01*
X424730D01*
Y251528D01*
X425649D01*
Y253195D01*
X426081D01*
X428562Y251440D01*
D02*
G37*
G36*
X425893Y250055D02*
X425926D01*
X425965Y250050D01*
X426053Y250039D01*
X426153Y250017D01*
X426253Y249983D01*
X426358Y249933D01*
X426458Y249873D01*
X426463D01*
X426469Y249862D01*
X426496Y249839D01*
X426541Y249795D01*
X426596Y249734D01*
X426651Y249657D01*
X426712Y249562D01*
X426762Y249457D01*
X426801Y249330D01*
Y249335D01*
X426806Y249341D01*
X426812Y249358D01*
X426823Y249380D01*
X426845Y249430D01*
X426878Y249496D01*
X426923Y249568D01*
X426978Y249640D01*
X427039Y249706D01*
X427105Y249767D01*
X427117Y249773D01*
X427139Y249790D01*
X427183Y249812D01*
X427238Y249834D01*
X427310Y249862D01*
X427393Y249884D01*
X427487Y249900D01*
X427587Y249906D01*
X427593D01*
X427604D01*
X427626D01*
X427659Y249900D01*
X427692Y249895D01*
X427737Y249889D01*
X427831Y249867D01*
X427942Y249834D01*
X428058Y249778D01*
X428119Y249745D01*
X428180Y249706D01*
X428235Y249657D01*
X428290Y249607D01*
X428296Y249601D01*
X428302Y249590D01*
X428318Y249574D01*
X428335Y249551D01*
X428357Y249524D01*
X428379Y249485D01*
X428407Y249441D01*
X428434Y249396D01*
X428462Y249341D01*
X428490Y249280D01*
X428512Y249214D01*
X428534Y249142D01*
X428567Y248987D01*
X428573Y248898D01*
X428578Y248810D01*
Y248760D01*
X428573Y248726D01*
X428567Y248682D01*
X428562Y248632D01*
X428556Y248577D01*
X428540Y248521D01*
X428506Y248389D01*
X428456Y248256D01*
X428423Y248189D01*
X428385Y248123D01*
X428335Y248062D01*
X428285Y248001D01*
X428279Y247995D01*
X428274Y247990D01*
X428257Y247973D01*
X428235Y247951D01*
X428202Y247929D01*
X428169Y247901D01*
X428086Y247846D01*
X427980Y247791D01*
X427859Y247741D01*
X427720Y247702D01*
X427648Y247696D01*
X427571Y247691D01*
X427565D01*
X427560D01*
X427526D01*
X427477Y247696D01*
X427416Y247708D01*
X427338Y247724D01*
X427261Y247752D01*
X427183Y247785D01*
X427105Y247835D01*
X427094Y247840D01*
X427072Y247863D01*
X427039Y247896D01*
X426995Y247940D01*
X426945Y248001D01*
X426895Y248073D01*
X426845Y248156D01*
X426801Y248256D01*
Y248250D01*
X426795Y248239D01*
X426790Y248223D01*
X426779Y248200D01*
X426751Y248134D01*
X426712Y248056D01*
X426657Y247973D01*
X426596Y247885D01*
X426519Y247802D01*
X426430Y247724D01*
X426424D01*
X426419Y247719D01*
X426386Y247696D01*
X426330Y247663D01*
X426258Y247630D01*
X426170Y247597D01*
X426064Y247564D01*
X425948Y247541D01*
X425821Y247536D01*
X425815D01*
X425799D01*
X425771D01*
X425738Y247541D01*
X425699Y247547D01*
X425649Y247553D01*
X425594Y247564D01*
X425533Y247580D01*
X425406Y247619D01*
X425334Y247647D01*
X425267Y247685D01*
X425195Y247724D01*
X425129Y247768D01*
X425062Y247824D01*
X424996Y247885D01*
X424990Y247890D01*
X424979Y247901D01*
X424963Y247918D01*
X424946Y247946D01*
X424918Y247984D01*
X424891Y248023D01*
X424863Y248073D01*
X424830Y248128D01*
X424796Y248189D01*
X424769Y248261D01*
X424741Y248339D01*
X424713Y248416D01*
X424697Y248505D01*
X424680Y248599D01*
X424669Y248693D01*
X424664Y248798D01*
Y248854D01*
X424669Y248892D01*
X424675Y248942D01*
X424680Y248998D01*
X424691Y249059D01*
X424708Y249125D01*
X424747Y249275D01*
X424774Y249352D01*
X424802Y249424D01*
X424841Y249502D01*
X424885Y249579D01*
X424935Y249651D01*
X424996Y249718D01*
X425001Y249723D01*
X425012Y249734D01*
X425029Y249751D01*
X425057Y249773D01*
X425090Y249795D01*
X425129Y249828D01*
X425173Y249856D01*
X425228Y249889D01*
X425284Y249922D01*
X425350Y249950D01*
X425489Y250005D01*
X425572Y250028D01*
X425655Y250044D01*
X425743Y250055D01*
X425832Y250061D01*
X425838D01*
X425849D01*
X425871D01*
X425893Y250055D01*
D02*
G37*
G36*
X476213Y248573D02*
X476240D01*
X476279Y248567D01*
X476373Y248551D01*
X476478Y248528D01*
X476595Y248490D01*
X476711Y248440D01*
X476827Y248373D01*
X476833D01*
X476838Y248362D01*
X476855Y248351D01*
X476877Y248335D01*
X476932Y248290D01*
X477005Y248230D01*
X477076Y248146D01*
X477160Y248047D01*
X477231Y247931D01*
X477298Y247798D01*
Y247792D01*
X477304Y247781D01*
X477315Y247759D01*
X477326Y247731D01*
X477337Y247692D01*
X477353Y247642D01*
X477364Y247587D01*
X477381Y247526D01*
X477398Y247454D01*
X477414Y247371D01*
X477425Y247283D01*
X477436Y247188D01*
X477448Y247083D01*
X477458Y246973D01*
X477464Y246851D01*
Y246723D01*
Y246718D01*
Y246690D01*
Y246651D01*
Y246602D01*
X477458Y246541D01*
Y246469D01*
X477453Y246386D01*
X477442Y246303D01*
X477425Y246114D01*
X477398Y245915D01*
X477359Y245727D01*
X477331Y245632D01*
X477304Y245550D01*
Y245544D01*
X477298Y245533D01*
X477287Y245511D01*
X477276Y245478D01*
X477259Y245444D01*
X477237Y245400D01*
X477182Y245306D01*
X477115Y245201D01*
X477038Y245090D01*
X476938Y244985D01*
X476827Y244890D01*
X476822D01*
X476811Y244879D01*
X476794Y244868D01*
X476772Y244857D01*
X476739Y244841D01*
X476706Y244819D01*
X476661Y244796D01*
X476617Y244780D01*
X476512Y244736D01*
X476384Y244697D01*
X476246Y244675D01*
X476091Y244664D01*
X476046D01*
X476019Y244669D01*
X475980D01*
X475936Y244675D01*
X475831Y244697D01*
X475714Y244724D01*
X475592Y244769D01*
X475471Y244830D01*
X475410Y244868D01*
X475354Y244913D01*
X475349Y244918D01*
X475343Y244924D01*
X475327Y244940D01*
X475310Y244957D01*
X475288Y244985D01*
X475260Y245018D01*
X475205Y245095D01*
X475149Y245195D01*
X475094Y245317D01*
X475050Y245455D01*
X475017Y245616D01*
X475471Y245655D01*
Y245649D01*
X475476Y245638D01*
Y245627D01*
X475482Y245605D01*
X475498Y245544D01*
X475521Y245478D01*
X475548Y245400D01*
X475587Y245322D01*
X475631Y245250D01*
X475687Y245190D01*
X475692Y245184D01*
X475714Y245167D01*
X475753Y245145D01*
X475797Y245123D01*
X475858Y245095D01*
X475930Y245073D01*
X476013Y245057D01*
X476102Y245051D01*
X476141D01*
X476179Y245057D01*
X476229Y245062D01*
X476290Y245073D01*
X476351Y245090D01*
X476418Y245112D01*
X476478Y245145D01*
X476484Y245151D01*
X476506Y245162D01*
X476539Y245184D01*
X476573Y245217D01*
X476617Y245256D01*
X476661Y245300D01*
X476706Y245350D01*
X476750Y245411D01*
X476755Y245417D01*
X476766Y245444D01*
X476788Y245483D01*
X476811Y245533D01*
X476838Y245599D01*
X476866Y245677D01*
X476894Y245765D01*
X476921Y245865D01*
Y245871D01*
X476927Y245876D01*
Y245893D01*
X476932Y245915D01*
X476944Y245970D01*
X476960Y246042D01*
X476971Y246131D01*
X476982Y246225D01*
X476988Y246330D01*
X476993Y246441D01*
Y246446D01*
Y246463D01*
Y246491D01*
Y246535D01*
X476988Y246524D01*
X476966Y246496D01*
X476932Y246458D01*
X476894Y246402D01*
X476838Y246347D01*
X476772Y246286D01*
X476694Y246225D01*
X476606Y246170D01*
X476595Y246164D01*
X476562Y246147D01*
X476512Y246125D01*
X476451Y246103D01*
X476368Y246075D01*
X476279Y246053D01*
X476179Y246037D01*
X476074Y246031D01*
X476030D01*
X475997Y246037D01*
X475952Y246042D01*
X475908Y246048D01*
X475853Y246059D01*
X475797Y246075D01*
X475670Y246114D01*
X475604Y246142D01*
X475537Y246175D01*
X475465Y246214D01*
X475399Y246264D01*
X475332Y246314D01*
X475271Y246374D01*
X475266Y246380D01*
X475255Y246391D01*
X475244Y246408D01*
X475221Y246435D01*
X475194Y246474D01*
X475166Y246513D01*
X475138Y246563D01*
X475111Y246618D01*
X475078Y246679D01*
X475050Y246745D01*
X475022Y246823D01*
X474995Y246901D01*
X474972Y246989D01*
X474961Y247083D01*
X474950Y247177D01*
X474945Y247283D01*
Y247288D01*
Y247310D01*
Y247338D01*
X474950Y247377D01*
X474956Y247427D01*
X474961Y247488D01*
X474972Y247548D01*
X474989Y247620D01*
X475028Y247764D01*
X475055Y247842D01*
X475089Y247925D01*
X475127Y248002D01*
X475177Y248074D01*
X475227Y248152D01*
X475288Y248218D01*
X475294Y248224D01*
X475305Y248235D01*
X475321Y248252D01*
X475349Y248274D01*
X475382Y248302D01*
X475426Y248335D01*
X475471Y248362D01*
X475526Y248401D01*
X475581Y248434D01*
X475648Y248462D01*
X475797Y248523D01*
X475875Y248545D01*
X475964Y248562D01*
X476052Y248573D01*
X476146Y248578D01*
X476185D01*
X476213Y248573D01*
D02*
G37*
G36*
X473942Y246081D02*
X474463D01*
Y245649D01*
X473942D01*
Y244730D01*
X473472D01*
Y245649D01*
X471805D01*
Y246081D01*
X473560Y248562D01*
X473942D01*
Y246081D01*
D02*
G37*
G36*
X470122Y248556D02*
X470172D01*
X470288Y248551D01*
X470410Y248534D01*
X470543Y248517D01*
X470664Y248490D01*
X470725Y248473D01*
X470775Y248456D01*
X470781D01*
X470786Y248451D01*
X470819Y248434D01*
X470869Y248412D01*
X470930Y248373D01*
X470997Y248324D01*
X471069Y248257D01*
X471135Y248180D01*
X471202Y248091D01*
Y248085D01*
X471207Y248080D01*
X471229Y248047D01*
X471251Y247991D01*
X471285Y247919D01*
X471312Y247836D01*
X471340Y247737D01*
X471357Y247631D01*
X471362Y247515D01*
Y247510D01*
Y247499D01*
Y247476D01*
X471357Y247449D01*
Y247410D01*
X471351Y247371D01*
X471329Y247277D01*
X471296Y247166D01*
X471251Y247050D01*
X471185Y246934D01*
X471141Y246878D01*
X471096Y246823D01*
X471091Y246817D01*
X471085Y246812D01*
X471069Y246795D01*
X471046Y246779D01*
X471019Y246757D01*
X470985Y246734D01*
X470941Y246707D01*
X470897Y246674D01*
X470842Y246646D01*
X470781Y246618D01*
X470714Y246585D01*
X470642Y246557D01*
X470559Y246535D01*
X470476Y246507D01*
X470382Y246491D01*
X470282Y246474D01*
X470293Y246469D01*
X470316Y246458D01*
X470349Y246435D01*
X470393Y246413D01*
X470493Y246352D01*
X470543Y246314D01*
X470587Y246280D01*
X470598Y246269D01*
X470626Y246242D01*
X470670Y246197D01*
X470725Y246142D01*
X470786Y246064D01*
X470858Y245981D01*
X470930Y245882D01*
X471008Y245771D01*
X471667Y244730D01*
X471035D01*
X470532Y245527D01*
Y245533D01*
X470520Y245544D01*
X470509Y245560D01*
X470493Y245583D01*
X470454Y245644D01*
X470404Y245721D01*
X470343Y245804D01*
X470282Y245893D01*
X470221Y245976D01*
X470166Y246053D01*
X470160Y246059D01*
X470144Y246081D01*
X470116Y246114D01*
X470077Y246153D01*
X469994Y246236D01*
X469950Y246275D01*
X469906Y246308D01*
X469900Y246314D01*
X469889Y246319D01*
X469867Y246330D01*
X469834Y246347D01*
X469801Y246363D01*
X469762Y246380D01*
X469673Y246408D01*
X469668D01*
X469657Y246413D01*
X469635D01*
X469607Y246419D01*
X469568Y246424D01*
X469524D01*
X469463Y246430D01*
X468809D01*
Y244730D01*
X468300D01*
Y248562D01*
X470077D01*
X470122Y248556D01*
D02*
G37*
G36*
X271224Y427953D02*
X271268Y427948D01*
X271318Y427936D01*
X271373Y427925D01*
X271434Y427914D01*
X271567Y427870D01*
X271639Y427837D01*
X271705Y427803D01*
X271777Y427759D01*
X271849Y427709D01*
X271921Y427654D01*
X271988Y427588D01*
X271993Y427582D01*
X272004Y427571D01*
X272021Y427549D01*
X272043Y427521D01*
X272071Y427488D01*
X272098Y427444D01*
X272132Y427394D01*
X272159Y427333D01*
X272192Y427272D01*
X272226Y427200D01*
X272253Y427128D01*
X272281Y427045D01*
X272303Y426956D01*
X272320Y426862D01*
X272331Y426768D01*
X272336Y426663D01*
Y426613D01*
X272331Y426580D01*
X272325Y426535D01*
X272320Y426486D01*
X272309Y426430D01*
X272298Y426369D01*
X272264Y426236D01*
X272209Y426098D01*
X272176Y426026D01*
X272137Y425960D01*
X272087Y425893D01*
X272037Y425827D01*
X272032Y425821D01*
X272021Y425810D01*
X272004Y425793D01*
X271982Y425777D01*
X271954Y425749D01*
X271916Y425722D01*
X271877Y425688D01*
X271827Y425655D01*
X271772Y425622D01*
X271716Y425589D01*
X271583Y425528D01*
X271428Y425478D01*
X271345Y425461D01*
X271257Y425450D01*
X271196Y425921D01*
X271201D01*
X271212Y425926D01*
X271234Y425932D01*
X271262Y425938D01*
X271295Y425943D01*
X271334Y425954D01*
X271417Y425982D01*
X271517Y426021D01*
X271611Y426070D01*
X271700Y426126D01*
X271777Y426192D01*
X271783Y426203D01*
X271805Y426225D01*
X271833Y426270D01*
X271860Y426325D01*
X271894Y426392D01*
X271921Y426475D01*
X271943Y426569D01*
X271949Y426668D01*
Y426702D01*
X271943Y426724D01*
X271938Y426785D01*
X271921Y426862D01*
X271894Y426951D01*
X271855Y427045D01*
X271799Y427139D01*
X271722Y427228D01*
X271711Y427239D01*
X271677Y427266D01*
X271628Y427300D01*
X271561Y427344D01*
X271478Y427388D01*
X271384Y427421D01*
X271273Y427449D01*
X271152Y427460D01*
X271146D01*
X271135D01*
X271118D01*
X271096Y427455D01*
X271035Y427449D01*
X270963Y427433D01*
X270875Y427410D01*
X270786Y427372D01*
X270697Y427316D01*
X270614Y427244D01*
X270603Y427233D01*
X270581Y427206D01*
X270548Y427161D01*
X270509Y427100D01*
X270470Y427023D01*
X270437Y426929D01*
X270415Y426824D01*
X270404Y426707D01*
Y426657D01*
X270410Y426619D01*
X270415Y426569D01*
X270426Y426513D01*
X270437Y426447D01*
X270454Y426375D01*
X270039Y426430D01*
Y426458D01*
X270044Y426480D01*
Y426552D01*
X270033Y426613D01*
X270022Y426685D01*
X270005Y426768D01*
X269978Y426862D01*
X269939Y426951D01*
X269889Y427045D01*
Y427051D01*
X269883Y427056D01*
X269861Y427084D01*
X269823Y427122D01*
X269773Y427167D01*
X269701Y427211D01*
X269618Y427250D01*
X269524Y427277D01*
X269468Y427289D01*
X269407D01*
X269402D01*
X269396D01*
X269363D01*
X269319Y427277D01*
X269258Y427266D01*
X269191Y427244D01*
X269119Y427217D01*
X269047Y427172D01*
X268981Y427111D01*
X268975Y427106D01*
X268953Y427078D01*
X268925Y427039D01*
X268892Y426990D01*
X268865Y426923D01*
X268837Y426846D01*
X268815Y426757D01*
X268809Y426657D01*
Y426613D01*
X268820Y426563D01*
X268831Y426497D01*
X268853Y426425D01*
X268881Y426353D01*
X268925Y426275D01*
X268981Y426203D01*
X268986Y426198D01*
X269014Y426176D01*
X269053Y426142D01*
X269108Y426104D01*
X269180Y426065D01*
X269269Y426026D01*
X269374Y425993D01*
X269496Y425971D01*
X269413Y425500D01*
X269407D01*
X269391Y425506D01*
X269368Y425511D01*
X269335Y425517D01*
X269296Y425528D01*
X269252Y425544D01*
X269147Y425578D01*
X269025Y425633D01*
X268903Y425699D01*
X268787Y425783D01*
X268682Y425888D01*
X268676Y425893D01*
X268671Y425904D01*
X268660Y425921D01*
X268643Y425943D01*
X268621Y425971D01*
X268599Y426009D01*
X268577Y426048D01*
X268549Y426098D01*
X268505Y426209D01*
X268460Y426336D01*
X268433Y426486D01*
X268422Y426563D01*
Y426702D01*
X268427Y426763D01*
X268438Y426834D01*
X268455Y426923D01*
X268482Y427023D01*
X268516Y427122D01*
X268560Y427222D01*
Y427228D01*
X268566Y427233D01*
X268582Y427266D01*
X268615Y427316D01*
X268654Y427372D01*
X268710Y427438D01*
X268771Y427505D01*
X268843Y427571D01*
X268925Y427626D01*
X268937Y427632D01*
X268964Y427649D01*
X269014Y427671D01*
X269075Y427698D01*
X269147Y427726D01*
X269230Y427748D01*
X269324Y427765D01*
X269418Y427770D01*
X269429D01*
X269463D01*
X269507Y427765D01*
X269568Y427754D01*
X269640Y427737D01*
X269717Y427709D01*
X269795Y427676D01*
X269872Y427632D01*
X269883Y427626D01*
X269906Y427610D01*
X269944Y427576D01*
X269989Y427532D01*
X270039Y427477D01*
X270094Y427410D01*
X270144Y427333D01*
X270194Y427239D01*
Y427244D01*
X270199Y427255D01*
X270205Y427272D01*
X270210Y427294D01*
X270232Y427355D01*
X270266Y427433D01*
X270310Y427521D01*
X270365Y427610D01*
X270437Y427693D01*
X270520Y427770D01*
X270531Y427776D01*
X270564Y427798D01*
X270620Y427831D01*
X270692Y427864D01*
X270781Y427898D01*
X270886Y427931D01*
X271007Y427953D01*
X271140Y427959D01*
X271146D01*
X271163D01*
X271190D01*
X271224Y427953D01*
D02*
G37*
G36*
X272270Y422399D02*
X272264D01*
X272242D01*
X272209D01*
X272165Y422405D01*
X272115Y422410D01*
X272060Y422421D01*
X272004Y422433D01*
X271943Y422455D01*
X271938D01*
X271932Y422460D01*
X271899Y422471D01*
X271849Y422493D01*
X271783Y422527D01*
X271705Y422571D01*
X271617Y422626D01*
X271528Y422687D01*
X271434Y422765D01*
X271428D01*
X271423Y422776D01*
X271390Y422803D01*
X271340Y422853D01*
X271268Y422925D01*
X271185Y423008D01*
X271085Y423114D01*
X270974Y423241D01*
X270858Y423379D01*
X270853Y423385D01*
X270836Y423407D01*
X270808Y423440D01*
X270775Y423479D01*
X270731Y423529D01*
X270681Y423590D01*
X270625Y423651D01*
X270564Y423723D01*
X270432Y423861D01*
X270299Y423999D01*
X270232Y424066D01*
X270166Y424127D01*
X270105Y424182D01*
X270044Y424226D01*
X270039D01*
X270033Y424238D01*
X270016Y424249D01*
X269994Y424260D01*
X269933Y424299D01*
X269861Y424343D01*
X269773Y424381D01*
X269679Y424420D01*
X269573Y424442D01*
X269474Y424454D01*
X269468D01*
X269463D01*
X269429Y424448D01*
X269374Y424442D01*
X269313Y424426D01*
X269236Y424404D01*
X269158Y424365D01*
X269081Y424315D01*
X269003Y424249D01*
X268992Y424238D01*
X268970Y424210D01*
X268942Y424171D01*
X268903Y424110D01*
X268870Y424033D01*
X268837Y423944D01*
X268815Y423839D01*
X268809Y423723D01*
Y423689D01*
X268815Y423667D01*
X268820Y423601D01*
X268837Y423523D01*
X268859Y423440D01*
X268898Y423346D01*
X268948Y423257D01*
X269014Y423174D01*
X269025Y423163D01*
X269053Y423141D01*
X269097Y423108D01*
X269164Y423075D01*
X269241Y423036D01*
X269341Y423003D01*
X269452Y422981D01*
X269579Y422970D01*
X269529Y422488D01*
X269524D01*
X269507Y422493D01*
X269479D01*
X269440Y422499D01*
X269396Y422510D01*
X269346Y422521D01*
X269285Y422538D01*
X269224Y422554D01*
X269092Y422599D01*
X268959Y422665D01*
X268892Y422704D01*
X268826Y422754D01*
X268765Y422803D01*
X268710Y422859D01*
X268704Y422864D01*
X268699Y422875D01*
X268682Y422892D01*
X268665Y422920D01*
X268643Y422953D01*
X268621Y422992D01*
X268593Y423036D01*
X268566Y423091D01*
X268538Y423152D01*
X268510Y423219D01*
X268488Y423291D01*
X268466Y423368D01*
X268449Y423451D01*
X268433Y423540D01*
X268427Y423634D01*
X268422Y423734D01*
Y423789D01*
X268427Y423828D01*
X268433Y423872D01*
X268438Y423927D01*
X268449Y423988D01*
X268460Y424049D01*
X268499Y424193D01*
X268554Y424337D01*
X268588Y424409D01*
X268626Y424481D01*
X268676Y424548D01*
X268732Y424609D01*
X268737Y424614D01*
X268743Y424625D01*
X268765Y424636D01*
X268787Y424658D01*
X268815Y424686D01*
X268853Y424714D01*
X268892Y424742D01*
X268942Y424775D01*
X269047Y424830D01*
X269180Y424885D01*
X269247Y424908D01*
X269324Y424919D01*
X269402Y424930D01*
X269485Y424935D01*
X269496D01*
X269524D01*
X269568Y424930D01*
X269629Y424924D01*
X269695Y424913D01*
X269773Y424891D01*
X269856Y424869D01*
X269939Y424836D01*
X269950Y424830D01*
X269978Y424819D01*
X270022Y424797D01*
X270083Y424764D01*
X270149Y424719D01*
X270232Y424664D01*
X270315Y424598D01*
X270410Y424520D01*
X270421Y424509D01*
X270454Y424481D01*
X270481Y424454D01*
X270509Y424426D01*
X270542Y424393D01*
X270587Y424348D01*
X270631Y424304D01*
X270681Y424249D01*
X270736Y424193D01*
X270797Y424127D01*
X270858Y424055D01*
X270930Y423977D01*
X271002Y423889D01*
X271080Y423800D01*
X271085Y423795D01*
X271096Y423783D01*
X271113Y423761D01*
X271135Y423734D01*
X271168Y423700D01*
X271201Y423662D01*
X271273Y423573D01*
X271356Y423479D01*
X271439Y423390D01*
X271511Y423313D01*
X271539Y423280D01*
X271567Y423252D01*
X271572Y423246D01*
X271589Y423230D01*
X271611Y423208D01*
X271644Y423180D01*
X271683Y423152D01*
X271722Y423119D01*
X271816Y423053D01*
Y424941D01*
X272270D01*
Y422399D01*
D02*
G37*
G36*
Y421535D02*
X271473Y421031D01*
X271467D01*
X271456Y421021D01*
X271439Y421009D01*
X271417Y420993D01*
X271356Y420954D01*
X271279Y420904D01*
X271196Y420843D01*
X271107Y420782D01*
X271024Y420722D01*
X270947Y420666D01*
X270941Y420661D01*
X270919Y420644D01*
X270886Y420616D01*
X270847Y420578D01*
X270764Y420494D01*
X270725Y420450D01*
X270692Y420406D01*
X270686Y420400D01*
X270681Y420389D01*
X270670Y420367D01*
X270653Y420334D01*
X270637Y420301D01*
X270620Y420262D01*
X270592Y420173D01*
Y420168D01*
X270587Y420157D01*
Y420135D01*
X270581Y420107D01*
X270576Y420068D01*
Y420024D01*
X270570Y419963D01*
Y419310D01*
X272270D01*
Y418800D01*
X268438D01*
Y420578D01*
X268444Y420622D01*
Y420672D01*
X268449Y420788D01*
X268466Y420910D01*
X268482Y421043D01*
X268510Y421164D01*
X268527Y421225D01*
X268543Y421275D01*
Y421281D01*
X268549Y421286D01*
X268566Y421320D01*
X268588Y421369D01*
X268626Y421430D01*
X268676Y421497D01*
X268743Y421569D01*
X268820Y421635D01*
X268909Y421702D01*
X268914D01*
X268920Y421707D01*
X268953Y421729D01*
X269009Y421751D01*
X269081Y421785D01*
X269164Y421812D01*
X269263Y421840D01*
X269368Y421857D01*
X269485Y421862D01*
X269490D01*
X269501D01*
X269524D01*
X269551Y421857D01*
X269590D01*
X269629Y421851D01*
X269723Y421829D01*
X269834Y421796D01*
X269950Y421751D01*
X270066Y421685D01*
X270122Y421641D01*
X270177Y421596D01*
X270182Y421591D01*
X270188Y421585D01*
X270205Y421569D01*
X270221Y421547D01*
X270243Y421519D01*
X270266Y421486D01*
X270293Y421441D01*
X270326Y421397D01*
X270354Y421342D01*
X270382Y421281D01*
X270415Y421214D01*
X270443Y421142D01*
X270465Y421059D01*
X270493Y420976D01*
X270509Y420882D01*
X270526Y420782D01*
X270531Y420793D01*
X270542Y420816D01*
X270564Y420849D01*
X270587Y420893D01*
X270648Y420993D01*
X270686Y421043D01*
X270720Y421087D01*
X270731Y421098D01*
X270758Y421126D01*
X270803Y421170D01*
X270858Y421225D01*
X270935Y421286D01*
X271019Y421358D01*
X271118Y421430D01*
X271229Y421508D01*
X272270Y422167D01*
Y421535D01*
D02*
G37*
%LPC*%
G36*
X414490Y416842D02*
X414485D01*
X414479D01*
X414446Y416836D01*
X414396Y416831D01*
X414330Y416819D01*
X414263Y416792D01*
X414186Y416759D01*
X414114Y416709D01*
X414042Y416642D01*
X414036Y416631D01*
X414014Y416604D01*
X413986Y416559D01*
X413953Y416487D01*
X413920Y416404D01*
X413892Y416293D01*
X413870Y416166D01*
X413865Y416017D01*
Y414809D01*
X415133D01*
Y415950D01*
X415127Y416017D01*
X415122Y416094D01*
X415116Y416183D01*
X415105Y416271D01*
X415088Y416360D01*
X415066Y416437D01*
X415061Y416449D01*
X415050Y416471D01*
X415033Y416504D01*
X415011Y416548D01*
X414978Y416598D01*
X414939Y416648D01*
X414889Y416698D01*
X414834Y416736D01*
X414828Y416742D01*
X414806Y416753D01*
X414773Y416770D01*
X414728Y416792D01*
X414679Y416808D01*
X414623Y416825D01*
X414557Y416836D01*
X414490Y416842D01*
D02*
G37*
G36*
X277110Y480833D02*
X275842D01*
Y479692D01*
X275847Y479626D01*
X275853Y479549D01*
X275858Y479460D01*
X275870Y479371D01*
X275886Y479283D01*
X275908Y479205D01*
X275914Y479194D01*
X275925Y479172D01*
X275942Y479139D01*
X275964Y479095D01*
X275997Y479045D01*
X276036Y478995D01*
X276085Y478945D01*
X276141Y478906D01*
X276146Y478901D01*
X276169Y478890D01*
X276202Y478873D01*
X276246Y478851D01*
X276296Y478834D01*
X276351Y478818D01*
X276418Y478807D01*
X276484Y478801D01*
X276490D01*
X276495D01*
X276528Y478807D01*
X276578Y478812D01*
X276645Y478823D01*
X276711Y478851D01*
X276789Y478884D01*
X276861Y478934D01*
X276933Y479000D01*
X276938Y479011D01*
X276960Y479039D01*
X276988Y479083D01*
X277021Y479155D01*
X277055Y479239D01*
X277082Y479349D01*
X277104Y479477D01*
X277110Y479626D01*
Y480833D01*
D02*
G37*
G36*
X275135Y405191D02*
X273867D01*
Y404050D01*
X273873Y403983D01*
X273878Y403906D01*
X273884Y403817D01*
X273895Y403729D01*
X273912Y403640D01*
X273934Y403563D01*
X273939Y403551D01*
X273950Y403529D01*
X273967Y403496D01*
X273989Y403452D01*
X274022Y403402D01*
X274061Y403352D01*
X274111Y403302D01*
X274166Y403264D01*
X274172Y403258D01*
X274194Y403247D01*
X274227Y403230D01*
X274272Y403208D01*
X274321Y403192D01*
X274377Y403175D01*
X274443Y403164D01*
X274510Y403158D01*
X274515D01*
X274521D01*
X274554Y403164D01*
X274604Y403170D01*
X274670Y403181D01*
X274737Y403208D01*
X274814Y403241D01*
X274886Y403291D01*
X274958Y403358D01*
X274964Y403369D01*
X274986Y403396D01*
X275014Y403441D01*
X275047Y403513D01*
X275080Y403596D01*
X275108Y403707D01*
X275130Y403834D01*
X275135Y403983D01*
Y405191D01*
D02*
G37*
G36*
X273081Y398756D02*
Y397549D01*
X274798D01*
X273081Y398756D01*
D02*
G37*
G36*
X337017Y387135D02*
X335810D01*
Y385867D01*
X336950D01*
X337017Y385873D01*
X337094Y385878D01*
X337183Y385884D01*
X337271Y385895D01*
X337360Y385912D01*
X337437Y385934D01*
X337449Y385939D01*
X337471Y385950D01*
X337504Y385967D01*
X337548Y385989D01*
X337598Y386022D01*
X337648Y386061D01*
X337698Y386111D01*
X337736Y386166D01*
X337742Y386172D01*
X337753Y386194D01*
X337770Y386227D01*
X337792Y386272D01*
X337808Y386321D01*
X337825Y386377D01*
X337836Y386443D01*
X337842Y386510D01*
Y386515D01*
Y386521D01*
X337836Y386554D01*
X337831Y386604D01*
X337820Y386670D01*
X337792Y386737D01*
X337759Y386814D01*
X337709Y386886D01*
X337642Y386958D01*
X337631Y386964D01*
X337603Y386986D01*
X337559Y387014D01*
X337487Y387047D01*
X337404Y387080D01*
X337293Y387108D01*
X337166Y387130D01*
X337017Y387135D01*
D02*
G37*
G36*
X418135Y477191D02*
X416867D01*
Y476050D01*
X416873Y475983D01*
X416878Y475906D01*
X416884Y475817D01*
X416895Y475729D01*
X416912Y475640D01*
X416934Y475563D01*
X416939Y475551D01*
X416950Y475529D01*
X416967Y475496D01*
X416989Y475452D01*
X417022Y475402D01*
X417061Y475352D01*
X417111Y475302D01*
X417166Y475264D01*
X417172Y475258D01*
X417194Y475247D01*
X417227Y475230D01*
X417272Y475208D01*
X417321Y475192D01*
X417377Y475175D01*
X417443Y475164D01*
X417510Y475158D01*
X417515D01*
X417521D01*
X417554Y475164D01*
X417604Y475169D01*
X417670Y475181D01*
X417737Y475208D01*
X417814Y475241D01*
X417886Y475291D01*
X417958Y475358D01*
X417964Y475369D01*
X417986Y475396D01*
X418014Y475441D01*
X418047Y475513D01*
X418080Y475596D01*
X418108Y475707D01*
X418130Y475834D01*
X418135Y475983D01*
Y477191D01*
D02*
G37*
G36*
X417266Y470574D02*
X417261D01*
X417249D01*
X417233D01*
X417205Y470568D01*
X417172D01*
X417139Y470563D01*
X417056Y470546D01*
X416962Y470518D01*
X416862Y470485D01*
X416762Y470430D01*
X416674Y470358D01*
X416662Y470347D01*
X416640Y470319D01*
X416602Y470269D01*
X416563Y470208D01*
X416519Y470125D01*
X416480Y470031D01*
X416458Y469926D01*
X416446Y469809D01*
Y469776D01*
X416452Y469754D01*
X416458Y469693D01*
X416474Y469621D01*
X416502Y469533D01*
X416541Y469444D01*
X416596Y469355D01*
X416674Y469272D01*
X416685Y469261D01*
X416718Y469239D01*
X416768Y469206D01*
X416840Y469162D01*
X416928Y469123D01*
X417034Y469090D01*
X417161Y469067D01*
X417305Y469056D01*
X417310D01*
X417321D01*
X417344D01*
X417371Y469062D01*
X417410D01*
X417449Y469067D01*
X417537Y469084D01*
X417643Y469106D01*
X417753Y469145D01*
X417859Y469200D01*
X417953Y469272D01*
X417958D01*
X417964Y469283D01*
X417991Y469311D01*
X418030Y469355D01*
X418074Y469416D01*
X418113Y469494D01*
X418152Y469582D01*
X418180Y469682D01*
X418191Y469738D01*
Y469826D01*
X418185Y469848D01*
X418180Y469909D01*
X418158Y469981D01*
X418130Y470070D01*
X418080Y470164D01*
X418019Y470258D01*
X417975Y470302D01*
X417930Y470347D01*
X417925D01*
X417919Y470358D01*
X417903Y470369D01*
X417886Y470380D01*
X417831Y470419D01*
X417753Y470457D01*
X417659Y470502D01*
X417543Y470540D01*
X417410Y470563D01*
X417266Y470574D01*
D02*
G37*
G36*
X414490Y378842D02*
X414485D01*
X414479D01*
X414446Y378836D01*
X414396Y378831D01*
X414330Y378820D01*
X414263Y378792D01*
X414186Y378759D01*
X414114Y378709D01*
X414042Y378642D01*
X414036Y378631D01*
X414014Y378604D01*
X413986Y378559D01*
X413953Y378487D01*
X413920Y378404D01*
X413892Y378293D01*
X413870Y378166D01*
X413865Y378017D01*
Y376810D01*
X415133D01*
Y377950D01*
X415127Y378017D01*
X415122Y378094D01*
X415116Y378183D01*
X415105Y378271D01*
X415088Y378360D01*
X415066Y378437D01*
X415061Y378448D01*
X415050Y378471D01*
X415033Y378504D01*
X415011Y378548D01*
X414978Y378598D01*
X414939Y378648D01*
X414889Y378698D01*
X414834Y378736D01*
X414828Y378742D01*
X414806Y378753D01*
X414773Y378770D01*
X414728Y378792D01*
X414679Y378808D01*
X414623Y378825D01*
X414557Y378836D01*
X414490Y378842D01*
D02*
G37*
G36*
X500017Y388135D02*
X498810D01*
Y386867D01*
X499950D01*
X500017Y386873D01*
X500094Y386878D01*
X500183Y386884D01*
X500271Y386895D01*
X500360Y386912D01*
X500437Y386934D01*
X500448Y386939D01*
X500471Y386950D01*
X500504Y386967D01*
X500548Y386989D01*
X500598Y387022D01*
X500648Y387061D01*
X500698Y387111D01*
X500736Y387166D01*
X500742Y387172D01*
X500753Y387194D01*
X500770Y387227D01*
X500792Y387272D01*
X500808Y387321D01*
X500825Y387377D01*
X500836Y387443D01*
X500842Y387510D01*
Y387515D01*
Y387521D01*
X500836Y387554D01*
X500830Y387604D01*
X500820Y387670D01*
X500792Y387737D01*
X500759Y387814D01*
X500709Y387886D01*
X500642Y387958D01*
X500631Y387964D01*
X500603Y387986D01*
X500559Y388013D01*
X500487Y388047D01*
X500404Y388080D01*
X500293Y388108D01*
X500166Y388130D01*
X500017Y388135D01*
D02*
G37*
G36*
X275135Y343190D02*
X273867D01*
Y342050D01*
X273873Y341983D01*
X273878Y341906D01*
X273884Y341817D01*
X273895Y341729D01*
X273912Y341640D01*
X273934Y341563D01*
X273939Y341552D01*
X273950Y341529D01*
X273967Y341496D01*
X273989Y341452D01*
X274022Y341402D01*
X274061Y341352D01*
X274111Y341302D01*
X274166Y341264D01*
X274172Y341258D01*
X274194Y341247D01*
X274227Y341230D01*
X274272Y341208D01*
X274321Y341192D01*
X274377Y341175D01*
X274443Y341164D01*
X274510Y341158D01*
X274515D01*
X274521D01*
X274554Y341164D01*
X274604Y341169D01*
X274670Y341180D01*
X274737Y341208D01*
X274814Y341241D01*
X274886Y341291D01*
X274958Y341358D01*
X274964Y341369D01*
X274986Y341396D01*
X275014Y341441D01*
X275047Y341513D01*
X275080Y341596D01*
X275108Y341707D01*
X275130Y341834D01*
X275135Y341983D01*
Y343190D01*
D02*
G37*
G36*
Y304191D02*
X273867D01*
Y303050D01*
X273873Y302983D01*
X273878Y302906D01*
X273884Y302817D01*
X273895Y302729D01*
X273912Y302640D01*
X273934Y302563D01*
X273939Y302551D01*
X273950Y302529D01*
X273967Y302496D01*
X273989Y302452D01*
X274022Y302402D01*
X274061Y302352D01*
X274111Y302302D01*
X274166Y302264D01*
X274172Y302258D01*
X274194Y302247D01*
X274227Y302230D01*
X274272Y302208D01*
X274321Y302192D01*
X274377Y302175D01*
X274443Y302164D01*
X274510Y302158D01*
X274515D01*
X274521D01*
X274554Y302164D01*
X274604Y302169D01*
X274670Y302181D01*
X274737Y302208D01*
X274814Y302241D01*
X274886Y302291D01*
X274958Y302358D01*
X274964Y302369D01*
X274986Y302397D01*
X275014Y302441D01*
X275047Y302513D01*
X275080Y302596D01*
X275108Y302707D01*
X275130Y302834D01*
X275135Y302983D01*
Y304191D01*
D02*
G37*
G36*
X274266Y297574D02*
X274261D01*
X274249D01*
X274233D01*
X274205Y297568D01*
X274172D01*
X274139Y297563D01*
X274056Y297546D01*
X273962Y297518D01*
X273862Y297485D01*
X273762Y297430D01*
X273673Y297358D01*
X273662Y297346D01*
X273640Y297319D01*
X273602Y297269D01*
X273563Y297208D01*
X273519Y297125D01*
X273480Y297031D01*
X273458Y296926D01*
X273447Y296809D01*
Y296776D01*
X273452Y296754D01*
X273458Y296693D01*
X273474Y296621D01*
X273502Y296533D01*
X273541Y296444D01*
X273596Y296355D01*
X273673Y296272D01*
X273685Y296261D01*
X273718Y296239D01*
X273768Y296206D01*
X273840Y296162D01*
X273928Y296123D01*
X274034Y296090D01*
X274161Y296068D01*
X274305Y296056D01*
X274310D01*
X274321D01*
X274343D01*
X274371Y296062D01*
X274410D01*
X274449Y296068D01*
X274537Y296084D01*
X274643Y296106D01*
X274753Y296145D01*
X274858Y296200D01*
X274953Y296272D01*
X274958D01*
X274964Y296283D01*
X274991Y296311D01*
X275030Y296355D01*
X275075Y296416D01*
X275113Y296494D01*
X275152Y296582D01*
X275180Y296682D01*
X275191Y296737D01*
Y296826D01*
X275185Y296848D01*
X275180Y296909D01*
X275158Y296981D01*
X275130Y297070D01*
X275080Y297164D01*
X275019Y297258D01*
X274975Y297302D01*
X274930Y297346D01*
X274925D01*
X274919Y297358D01*
X274903Y297369D01*
X274886Y297380D01*
X274831Y297418D01*
X274753Y297457D01*
X274659Y297502D01*
X274543Y297540D01*
X274410Y297563D01*
X274266Y297574D01*
D02*
G37*
G36*
X275135Y266191D02*
X273867D01*
Y265050D01*
X273873Y264983D01*
X273878Y264906D01*
X273884Y264817D01*
X273895Y264729D01*
X273912Y264640D01*
X273934Y264563D01*
X273939Y264552D01*
X273950Y264529D01*
X273967Y264496D01*
X273989Y264452D01*
X274022Y264402D01*
X274061Y264352D01*
X274111Y264302D01*
X274166Y264264D01*
X274172Y264258D01*
X274194Y264247D01*
X274227Y264230D01*
X274272Y264208D01*
X274321Y264192D01*
X274377Y264175D01*
X274443Y264164D01*
X274510Y264158D01*
X274515D01*
X274521D01*
X274554Y264164D01*
X274604Y264170D01*
X274670Y264181D01*
X274737Y264208D01*
X274814Y264242D01*
X274886Y264291D01*
X274958Y264358D01*
X274964Y264369D01*
X274986Y264396D01*
X275014Y264441D01*
X275047Y264513D01*
X275080Y264596D01*
X275108Y264707D01*
X275130Y264834D01*
X275135Y264983D01*
Y266191D01*
D02*
G37*
G36*
X273081Y262735D02*
Y261528D01*
X274798D01*
X273081Y262735D01*
D02*
G37*
G36*
X273618Y259574D02*
X273607D01*
X273579D01*
X273530D01*
X273463Y259568D01*
X273391D01*
X273302Y259562D01*
X273208Y259557D01*
X273109Y259546D01*
X272893Y259518D01*
X272788Y259502D01*
X272688Y259480D01*
X272594Y259457D01*
X272505Y259424D01*
X272428Y259391D01*
X272361Y259352D01*
X272356D01*
X272350Y259341D01*
X272311Y259313D01*
X272262Y259263D01*
X272206Y259203D01*
X272151Y259119D01*
X272101Y259025D01*
X272062Y258920D01*
X272057Y258865D01*
X272051Y258804D01*
Y258771D01*
X272057Y258749D01*
X272068Y258693D01*
X272090Y258616D01*
X272129Y258533D01*
X272184Y258438D01*
X272217Y258394D01*
X272262Y258350D01*
X272306Y258306D01*
X272361Y258261D01*
X272367D01*
X272378Y258250D01*
X272394Y258239D01*
X272422Y258228D01*
X272461Y258206D01*
X272511Y258189D01*
X272566Y258167D01*
X272633Y258145D01*
X272716Y258128D01*
X272804Y258106D01*
X272909Y258084D01*
X273020Y258067D01*
X273153Y258056D01*
X273291Y258045D01*
X273447Y258034D01*
X273618D01*
X273624D01*
X273629D01*
X273657D01*
X273707D01*
X273773Y258040D01*
X273845D01*
X273934Y258045D01*
X274028Y258051D01*
X274133Y258062D01*
X274343Y258090D01*
X274449Y258106D01*
X274548Y258128D01*
X274643Y258151D01*
X274731Y258184D01*
X274809Y258217D01*
X274875Y258256D01*
X274881D01*
X274886Y258267D01*
X274903Y258278D01*
X274925Y258295D01*
X274975Y258344D01*
X275036Y258405D01*
X275091Y258488D01*
X275141Y258582D01*
X275163Y258632D01*
X275180Y258688D01*
X275185Y258749D01*
X275191Y258810D01*
Y258843D01*
X275185Y258865D01*
X275174Y258926D01*
X275158Y258998D01*
X275124Y259081D01*
X275074Y259169D01*
X275041Y259214D01*
X275008Y259258D01*
X274964Y259297D01*
X274914Y259335D01*
X274908D01*
X274897Y259347D01*
X274875Y259358D01*
X274847Y259374D01*
X274803Y259391D01*
X274753Y259413D01*
X274692Y259430D01*
X274620Y259452D01*
X274537Y259474D01*
X274443Y259496D01*
X274338Y259518D01*
X274222Y259535D01*
X274089Y259551D01*
X273945Y259562D01*
X273790Y259568D01*
X273618Y259574D01*
D02*
G37*
G36*
X348222Y243548D02*
X347015Y241831D01*
X348222D01*
Y243548D01*
D02*
G37*
G36*
X344767Y243885D02*
X343559D01*
Y242617D01*
X344700D01*
X344767Y242623D01*
X344844Y242628D01*
X344933Y242634D01*
X345021Y242645D01*
X345110Y242662D01*
X345187Y242684D01*
X345199Y242689D01*
X345221Y242700D01*
X345254Y242717D01*
X345298Y242739D01*
X345348Y242772D01*
X345398Y242811D01*
X345448Y242861D01*
X345486Y242916D01*
X345492Y242922D01*
X345503Y242944D01*
X345520Y242977D01*
X345542Y243022D01*
X345558Y243071D01*
X345575Y243127D01*
X345586Y243193D01*
X345592Y243260D01*
Y243265D01*
Y243271D01*
X345586Y243304D01*
X345580Y243354D01*
X345569Y243420D01*
X345542Y243487D01*
X345509Y243564D01*
X345459Y243636D01*
X345392Y243708D01*
X345381Y243714D01*
X345354Y243736D01*
X345309Y243764D01*
X345237Y243797D01*
X345154Y243830D01*
X345043Y243858D01*
X344916Y243880D01*
X344767Y243885D01*
D02*
G37*
G36*
X426135Y334190D02*
X424867D01*
Y333050D01*
X424873Y332983D01*
X424878Y332906D01*
X424884Y332817D01*
X424895Y332729D01*
X424912Y332640D01*
X424934Y332563D01*
X424939Y332551D01*
X424950Y332529D01*
X424967Y332496D01*
X424989Y332452D01*
X425022Y332402D01*
X425061Y332352D01*
X425111Y332302D01*
X425166Y332264D01*
X425172Y332258D01*
X425194Y332247D01*
X425227Y332230D01*
X425272Y332208D01*
X425321Y332192D01*
X425377Y332175D01*
X425443Y332164D01*
X425510Y332158D01*
X425515D01*
X425521D01*
X425554Y332164D01*
X425604Y332169D01*
X425670Y332180D01*
X425737Y332208D01*
X425814Y332241D01*
X425886Y332291D01*
X425958Y332358D01*
X425964Y332369D01*
X425986Y332397D01*
X426013Y332441D01*
X426047Y332513D01*
X426080Y332596D01*
X426108Y332707D01*
X426130Y332834D01*
X426135Y332983D01*
Y334190D01*
D02*
G37*
G36*
X424081Y330735D02*
Y329528D01*
X425798D01*
X424081Y330735D01*
D02*
G37*
G36*
X427135Y297190D02*
X425867D01*
Y296050D01*
X425873Y295983D01*
X425878Y295906D01*
X425884Y295817D01*
X425895Y295729D01*
X425912Y295640D01*
X425934Y295563D01*
X425939Y295551D01*
X425950Y295529D01*
X425967Y295496D01*
X425989Y295452D01*
X426022Y295402D01*
X426061Y295352D01*
X426111Y295302D01*
X426166Y295264D01*
X426172Y295258D01*
X426194Y295247D01*
X426227Y295230D01*
X426272Y295208D01*
X426321Y295192D01*
X426377Y295175D01*
X426443Y295164D01*
X426510Y295158D01*
X426515D01*
X426521D01*
X426554Y295164D01*
X426604Y295170D01*
X426670Y295180D01*
X426737Y295208D01*
X426814Y295241D01*
X426886Y295291D01*
X426958Y295358D01*
X426964Y295369D01*
X426986Y295396D01*
X427014Y295441D01*
X427047Y295513D01*
X427080Y295596D01*
X427108Y295707D01*
X427130Y295834D01*
X427135Y295983D01*
Y297190D01*
D02*
G37*
G36*
X425081Y293735D02*
Y292528D01*
X426798D01*
X425081Y293735D01*
D02*
G37*
G36*
X428135Y256190D02*
X426867D01*
Y255050D01*
X426873Y254983D01*
X426878Y254906D01*
X426884Y254817D01*
X426895Y254729D01*
X426912Y254640D01*
X426934Y254563D01*
X426939Y254552D01*
X426950Y254529D01*
X426967Y254496D01*
X426989Y254452D01*
X427022Y254402D01*
X427061Y254352D01*
X427111Y254302D01*
X427166Y254264D01*
X427172Y254258D01*
X427194Y254247D01*
X427227Y254230D01*
X427272Y254208D01*
X427321Y254192D01*
X427377Y254175D01*
X427443Y254164D01*
X427510Y254158D01*
X427515D01*
X427521D01*
X427554Y254164D01*
X427604Y254170D01*
X427670Y254181D01*
X427737Y254208D01*
X427814Y254242D01*
X427886Y254291D01*
X427958Y254358D01*
X427964Y254369D01*
X427986Y254396D01*
X428014Y254441D01*
X428047Y254513D01*
X428080Y254596D01*
X428108Y254707D01*
X428130Y254834D01*
X428135Y254983D01*
Y256190D01*
D02*
G37*
G36*
X426081Y252735D02*
Y251528D01*
X427798D01*
X426081Y252735D01*
D02*
G37*
G36*
X427598Y249424D02*
X427593D01*
X427587D01*
X427554Y249419D01*
X427504Y249413D01*
X427443Y249402D01*
X427371Y249380D01*
X427299Y249352D01*
X427222Y249308D01*
X427155Y249252D01*
X427150Y249247D01*
X427128Y249219D01*
X427100Y249181D01*
X427072Y249131D01*
X427039Y249064D01*
X427011Y248987D01*
X426989Y248898D01*
X426984Y248798D01*
Y248787D01*
X426989Y248754D01*
X426995Y248704D01*
X427006Y248638D01*
X427028Y248566D01*
X427056Y248494D01*
X427100Y248416D01*
X427155Y248350D01*
X427161Y248344D01*
X427188Y248322D01*
X427222Y248295D01*
X427272Y248261D01*
X427332Y248228D01*
X427405Y248200D01*
X427487Y248178D01*
X427576Y248173D01*
X427582D01*
X427587D01*
X427620D01*
X427670Y248184D01*
X427731Y248195D01*
X427798Y248217D01*
X427870Y248250D01*
X427942Y248295D01*
X428014Y248355D01*
X428019Y248361D01*
X428041Y248389D01*
X428069Y248427D01*
X428102Y248477D01*
X428135Y248544D01*
X428163Y248616D01*
X428185Y248704D01*
X428191Y248798D01*
Y248843D01*
X428180Y248892D01*
X428169Y248959D01*
X428147Y249031D01*
X428119Y249109D01*
X428074Y249181D01*
X428014Y249252D01*
X428008Y249258D01*
X427986Y249280D01*
X427947Y249308D01*
X427897Y249335D01*
X427836Y249369D01*
X427764Y249396D01*
X427687Y249419D01*
X427598Y249424D01*
D02*
G37*
G36*
X425832Y249579D02*
X425821D01*
X425799D01*
X425760Y249574D01*
X425710Y249568D01*
X425649Y249557D01*
X425583Y249540D01*
X425516Y249518D01*
X425444Y249491D01*
X425439Y249485D01*
X425411Y249474D01*
X425378Y249452D01*
X425339Y249419D01*
X425289Y249380D01*
X425239Y249330D01*
X425195Y249275D01*
X425151Y249208D01*
X425145Y249197D01*
X425134Y249175D01*
X425118Y249136D01*
X425101Y249086D01*
X425084Y249025D01*
X425068Y248953D01*
X425057Y248876D01*
X425051Y248798D01*
Y248765D01*
X425057Y248743D01*
X425062Y248677D01*
X425079Y248599D01*
X425107Y248510D01*
X425140Y248416D01*
X425195Y248328D01*
X425267Y248239D01*
X425278Y248228D01*
X425306Y248206D01*
X425356Y248167D01*
X425417Y248128D01*
X425494Y248090D01*
X425588Y248051D01*
X425699Y248029D01*
X425815Y248018D01*
X425821D01*
X425832D01*
X425849D01*
X425871Y248023D01*
X425932Y248029D01*
X426015Y248045D01*
X426098Y248073D01*
X426192Y248112D01*
X426286Y248167D01*
X426375Y248245D01*
X426386Y248256D01*
X426408Y248283D01*
X426446Y248333D01*
X426491Y248400D01*
X426530Y248483D01*
X426568Y248582D01*
X426590Y248693D01*
X426602Y248815D01*
Y248848D01*
X426596Y248870D01*
X426590Y248931D01*
X426574Y249009D01*
X426546Y249097D01*
X426507Y249186D01*
X426452Y249280D01*
X426380Y249363D01*
X426369Y249374D01*
X426341Y249396D01*
X426292Y249430D01*
X426231Y249468D01*
X426147Y249513D01*
X426053Y249546D01*
X425948Y249568D01*
X425832Y249579D01*
D02*
G37*
G36*
X476263Y248191D02*
X476174D01*
X476152Y248185D01*
X476091Y248180D01*
X476019Y248158D01*
X475930Y248130D01*
X475836Y248080D01*
X475742Y248019D01*
X475698Y247975D01*
X475653Y247931D01*
Y247925D01*
X475642Y247919D01*
X475631Y247903D01*
X475620Y247886D01*
X475581Y247831D01*
X475543Y247753D01*
X475498Y247659D01*
X475460Y247543D01*
X475438Y247410D01*
X475426Y247266D01*
Y247260D01*
Y247249D01*
Y247233D01*
X475432Y247205D01*
Y247172D01*
X475438Y247139D01*
X475454Y247056D01*
X475482Y246961D01*
X475515Y246862D01*
X475570Y246762D01*
X475642Y246674D01*
X475653Y246662D01*
X475681Y246640D01*
X475731Y246602D01*
X475792Y246563D01*
X475875Y246518D01*
X475969Y246480D01*
X476074Y246458D01*
X476190Y246446D01*
X476224D01*
X476246Y246452D01*
X476307Y246458D01*
X476379Y246474D01*
X476467Y246502D01*
X476556Y246541D01*
X476645Y246596D01*
X476728Y246674D01*
X476739Y246685D01*
X476761Y246718D01*
X476794Y246768D01*
X476838Y246840D01*
X476877Y246928D01*
X476910Y247033D01*
X476932Y247161D01*
X476944Y247305D01*
Y247310D01*
Y247321D01*
Y247344D01*
X476938Y247371D01*
Y247410D01*
X476932Y247449D01*
X476916Y247537D01*
X476894Y247642D01*
X476855Y247753D01*
X476800Y247859D01*
X476728Y247953D01*
Y247958D01*
X476716Y247964D01*
X476689Y247991D01*
X476645Y248030D01*
X476584Y248074D01*
X476506Y248113D01*
X476418Y248152D01*
X476318Y248180D01*
X476263Y248191D01*
D02*
G37*
G36*
X473472Y247798D02*
X472265Y246081D01*
X473472D01*
Y247798D01*
D02*
G37*
G36*
X470017Y248135D02*
X468809D01*
Y246867D01*
X469950D01*
X470017Y246873D01*
X470094Y246878D01*
X470183Y246884D01*
X470271Y246895D01*
X470360Y246912D01*
X470437Y246934D01*
X470448Y246939D01*
X470471Y246950D01*
X470504Y246967D01*
X470548Y246989D01*
X470598Y247022D01*
X470648Y247061D01*
X470698Y247111D01*
X470736Y247166D01*
X470742Y247172D01*
X470753Y247194D01*
X470770Y247227D01*
X470792Y247271D01*
X470808Y247321D01*
X470825Y247377D01*
X470836Y247443D01*
X470842Y247510D01*
Y247515D01*
Y247521D01*
X470836Y247554D01*
X470830Y247604D01*
X470819Y247670D01*
X470792Y247737D01*
X470759Y247814D01*
X470709Y247886D01*
X470642Y247958D01*
X470631Y247964D01*
X470603Y247986D01*
X470559Y248013D01*
X470487Y248047D01*
X470404Y248080D01*
X470293Y248108D01*
X470166Y248130D01*
X470017Y248135D01*
D02*
G37*
G36*
X269490Y421342D02*
X269485D01*
X269479D01*
X269446Y421336D01*
X269396Y421331D01*
X269330Y421320D01*
X269263Y421292D01*
X269186Y421259D01*
X269114Y421209D01*
X269042Y421142D01*
X269036Y421131D01*
X269014Y421104D01*
X268986Y421059D01*
X268953Y420987D01*
X268920Y420904D01*
X268892Y420793D01*
X268870Y420666D01*
X268865Y420517D01*
Y419310D01*
X270133D01*
Y420450D01*
X270127Y420517D01*
X270122Y420594D01*
X270116Y420683D01*
X270105Y420771D01*
X270088Y420860D01*
X270066Y420937D01*
X270061Y420948D01*
X270050Y420971D01*
X270033Y421004D01*
X270011Y421048D01*
X269978Y421098D01*
X269939Y421148D01*
X269889Y421198D01*
X269834Y421236D01*
X269828Y421242D01*
X269806Y421253D01*
X269773Y421270D01*
X269728Y421292D01*
X269679Y421308D01*
X269623Y421325D01*
X269557Y421336D01*
X269490Y421342D01*
D02*
G37*
%LPD*%
M02*
