G04*
G04 #@! TF.GenerationSoftware,Altium Limited,Altium Designer,26.6.0 (10)*
G04*
G04 Layer_Color=16711935*
G04 Board_Origin=29350000|14702756*
%FSLAX44Y44*%
%MOMM*%
G71*
G04*
G04 #@! TF.SameCoordinates,4A6F4C04-391A-4FDC-A87F-652DF65B7CFD*
G04*
G04*
G04 #@! TF.FilePolarity,Positive*
G04*
G01*
G75*
%ADD12C,0.2000*%
%ADD86C,0.1000*%
%ADD87R,0.6147X2.9200*%
D12*
X97000Y411000D02*
X197000D01*
X97000Y311000D02*
X197000D01*
Y411000D01*
X97000Y311000D02*
Y411000D01*
X168250Y149500D02*
Y170500D01*
X181750Y149500D02*
Y170500D01*
X168250Y149500D02*
X181750D01*
X168250Y170500D02*
X181750D01*
X90750Y459500D02*
X101750D01*
X90750Y465500D02*
X101750D01*
X90750Y459500D02*
Y465500D01*
X101750Y459500D02*
Y465500D01*
X486500Y255650D02*
X526500D01*
X486500Y343150D02*
X526500D01*
Y255650D02*
Y343150D01*
X486500Y255650D02*
Y343150D01*
X215250Y406250D02*
X224750D01*
X215250Y423750D02*
X224750D01*
X215250Y406250D02*
Y423750D01*
X224750Y406250D02*
Y423750D01*
X9650Y440400D02*
Y469600D01*
X55350Y440400D02*
Y469600D01*
X9650Y440400D02*
X55350D01*
X9650Y469600D02*
X55350D01*
X287250Y180250D02*
Y189750D01*
X269750Y180250D02*
Y189750D01*
Y180250D02*
X287250D01*
X269750Y189750D02*
X287250D01*
X293475Y457225D02*
Y474725D01*
X302975Y457225D02*
Y474725D01*
X293475Y457225D02*
X302975D01*
X293475Y474725D02*
X302975D01*
X293250Y421250D02*
Y438750D01*
X302750Y421250D02*
Y438750D01*
X293250Y421250D02*
X302750D01*
X293250Y438750D02*
X302750D01*
X593750Y400250D02*
Y409750D01*
X576250Y400250D02*
Y409750D01*
X593750D01*
X576250Y400250D02*
X593750D01*
X303750Y384250D02*
Y401750D01*
X294250Y384250D02*
Y401750D01*
X303750D01*
X294250Y384250D02*
X303750D01*
X356250Y366250D02*
Y375750D01*
X338750Y366250D02*
Y375750D01*
Y366250D02*
X356250D01*
X338750Y375750D02*
X356250D01*
X596250Y317750D02*
Y327250D01*
X578750Y317750D02*
Y327250D01*
X596250D01*
X578750Y317750D02*
X596250D01*
X578750Y232750D02*
X596250D01*
X578750Y242250D02*
X596250D01*
X578750Y232750D02*
Y242250D01*
X596250Y232750D02*
Y242250D01*
Y150250D02*
Y159750D01*
X578750Y150250D02*
Y159750D01*
X596250D01*
X578750Y150250D02*
X596250D01*
X445750Y457250D02*
Y474750D01*
X436250Y457250D02*
Y474750D01*
X445750D01*
X436250Y457250D02*
X445750D01*
X436250Y435750D02*
X445750D01*
X436250Y418250D02*
X445750D01*
Y435750D01*
X436250Y418250D02*
Y435750D01*
X437250Y397250D02*
X446750D01*
X437250Y379750D02*
X446750D01*
Y397250D01*
X437250Y379750D02*
Y397250D01*
X586250Y75250D02*
Y84750D01*
X568750Y75250D02*
Y84750D01*
X586250D01*
X568750Y75250D02*
X586250D01*
X520250Y367250D02*
Y376750D01*
X502750Y367250D02*
Y376750D01*
Y367250D02*
X520250D01*
X502750Y376750D02*
X520250D01*
X426250Y400250D02*
Y409750D01*
X408750Y400250D02*
Y409750D01*
X426250D01*
X408750Y400250D02*
X426250D01*
X428750Y317750D02*
Y327250D01*
X411250Y317750D02*
Y327250D01*
X428750D01*
X411250Y317750D02*
X428750D01*
X416250Y232750D02*
Y242250D01*
X398750Y232750D02*
Y242250D01*
X416250D01*
X398750Y232750D02*
X416250D01*
X296250Y322750D02*
X305750D01*
X296250Y340250D02*
X305750D01*
X296250Y322750D02*
Y340250D01*
X305750Y322750D02*
Y340250D01*
X296250Y283250D02*
X305750D01*
X296250Y300750D02*
X305750D01*
X296250Y283250D02*
Y300750D01*
X305750Y283250D02*
Y300750D01*
X295250Y245250D02*
X304750D01*
X295250Y262750D02*
X304750D01*
X295250Y245250D02*
Y262750D01*
X304750Y245250D02*
Y262750D01*
X386250Y147750D02*
Y157250D01*
X368750Y147750D02*
Y157250D01*
X386250D01*
X368750Y147750D02*
X386250D01*
X364500Y223750D02*
Y233250D01*
X347000Y223750D02*
Y233250D01*
Y223750D02*
X364500D01*
X347000Y233250D02*
X364500D01*
X387250Y62750D02*
Y72250D01*
X369750Y62750D02*
Y72250D01*
X387250D01*
X369750Y62750D02*
X387250D01*
X256250Y400250D02*
Y409750D01*
X238750Y400250D02*
Y409750D01*
X256250D01*
X238750Y400250D02*
X256250D01*
X253750Y317750D02*
Y327250D01*
X236250Y317750D02*
Y327250D01*
X253750D01*
X236250Y317750D02*
X253750D01*
X445250Y312750D02*
X454750D01*
X445250Y330250D02*
X454750D01*
X445250Y312750D02*
Y330250D01*
X454750Y312750D02*
Y330250D01*
X447000Y274750D02*
X456500D01*
X447000Y292250D02*
X456500D01*
X447000Y274750D02*
Y292250D01*
X456500Y274750D02*
Y292250D01*
X446250Y235750D02*
X455750D01*
X446250Y253250D02*
X455750D01*
X446250Y235750D02*
Y253250D01*
X455750Y235750D02*
Y253250D01*
X243250Y232250D02*
Y241750D01*
X225750Y232250D02*
Y241750D01*
X243250D01*
X225750Y232250D02*
X243250D01*
X513250Y241250D02*
Y250750D01*
X530750Y241250D02*
Y250750D01*
X513250D02*
X530750D01*
X513250Y241250D02*
X530750D01*
X218750Y147250D02*
Y156750D01*
X201250Y147250D02*
Y156750D01*
X218750D01*
X201250Y147250D02*
X218750D01*
X206250Y62750D02*
Y72250D01*
X188750Y62750D02*
Y72250D01*
X206250D01*
X188750Y62750D02*
X206250D01*
X82750Y375250D02*
Y384750D01*
X65250Y375250D02*
Y384750D01*
X82750D01*
X65250Y375250D02*
X82750D01*
X148000Y276500D02*
X165500D01*
X148000Y286000D02*
X165500D01*
Y276500D02*
Y286000D01*
X148000Y276500D02*
Y286000D01*
X166750Y434250D02*
Y443750D01*
X149250Y434250D02*
Y443750D01*
Y434250D02*
X166750D01*
X149250Y443750D02*
X166750D01*
X217250Y297250D02*
X226750D01*
X217250Y314750D02*
X226750D01*
X217250Y297250D02*
Y314750D01*
X226750Y297250D02*
Y314750D01*
X220500Y376500D02*
X230000D01*
X220500Y394000D02*
X230000D01*
X220500Y376500D02*
Y394000D01*
X230000Y376500D02*
Y394000D01*
X492150Y469600D02*
X537850D01*
X492150Y440400D02*
X537850D01*
Y469600D01*
X492150Y440400D02*
Y469600D01*
X489650Y387100D02*
X535350D01*
X489650Y357900D02*
X535350D01*
Y387100D01*
X489650Y357900D02*
Y387100D01*
Y302100D02*
X535350D01*
X489650Y272900D02*
X535350D01*
Y302100D01*
X489650Y272900D02*
Y302100D01*
X492150Y187900D02*
Y217100D01*
X537850Y187900D02*
Y217100D01*
X492150Y187900D02*
X537850D01*
X492150Y217100D02*
X537850D01*
X492150Y107900D02*
Y137100D01*
X537850Y107900D02*
Y137100D01*
X492150Y107900D02*
X537850D01*
X492150Y137100D02*
X537850D01*
X322150Y467100D02*
X367850D01*
X322150Y437900D02*
X367850D01*
Y467100D01*
X322150Y437900D02*
Y467100D01*
X322000Y384600D02*
X367700D01*
X322000Y355400D02*
X367700D01*
Y384600D01*
X322000Y355400D02*
Y384600D01*
X322150Y299600D02*
X367850D01*
X322150Y270400D02*
X367850D01*
Y299600D01*
X322150Y270400D02*
Y299600D01*
X279650Y214600D02*
X325350D01*
X279650Y185400D02*
X325350D01*
Y214600D01*
X279650Y185400D02*
Y214600D01*
X282150Y132100D02*
X327850D01*
X282150Y102900D02*
X327850D01*
Y132100D01*
X282150Y102900D02*
Y132100D01*
X152150Y469350D02*
X197850D01*
X152150Y440150D02*
X197850D01*
Y469350D01*
X152150Y440150D02*
Y469350D01*
X153400Y387100D02*
X199100D01*
X153400Y357900D02*
X199100D01*
Y387100D01*
X153400Y357900D02*
Y387100D01*
X152150Y271400D02*
Y300600D01*
X197850Y271400D02*
Y300600D01*
X152150Y271400D02*
X197850D01*
X152150Y300600D02*
X197850D01*
X117150Y187900D02*
Y217100D01*
X162850Y187900D02*
Y217100D01*
X117150Y187900D02*
X162850D01*
X117150Y217100D02*
X162850D01*
X117150Y100400D02*
Y129600D01*
X162850Y100400D02*
Y129600D01*
X117150Y100400D02*
X162850D01*
X117150Y129600D02*
X162850D01*
X615750Y459500D02*
X626750D01*
X615750Y465500D02*
X626750D01*
X615750Y459500D02*
Y465500D01*
X626750Y459500D02*
Y465500D01*
X612000Y377000D02*
X623000D01*
X612000Y383000D02*
X623000D01*
X612000Y377000D02*
Y383000D01*
X623000Y377000D02*
Y383000D01*
X620500Y292000D02*
Y298000D01*
X609500Y292000D02*
Y298000D01*
X620500D01*
X609500Y292000D02*
X620500D01*
X612000Y215500D02*
X623000D01*
X612000Y209500D02*
X623000D01*
Y215500D01*
X612000Y209500D02*
Y215500D01*
X609500Y127000D02*
X620500D01*
X609500Y133000D02*
X620500D01*
X609500Y127000D02*
Y133000D01*
X620500Y127000D02*
Y133000D01*
X449500Y463000D02*
Y469000D01*
X438500Y463000D02*
Y469000D01*
X449500D01*
X438500Y463000D02*
X449500D01*
X440750Y377000D02*
X451750D01*
X440750Y383000D02*
X451750D01*
X440750Y377000D02*
Y383000D01*
X451750Y377000D02*
Y383000D01*
X443250Y292000D02*
X454250D01*
X443250Y298000D02*
X454250D01*
X443250Y292000D02*
Y298000D01*
X454250Y292000D02*
Y298000D01*
X403250Y207000D02*
X414250D01*
X403250Y213000D02*
X414250D01*
X403250Y207000D02*
Y213000D01*
X414250Y207000D02*
Y213000D01*
X414500Y127000D02*
X425500D01*
X414500Y133000D02*
X425500D01*
X414500Y127000D02*
Y133000D01*
X425500Y127000D02*
Y133000D01*
X270750Y459500D02*
X281750D01*
X270750Y465500D02*
X281750D01*
X270750Y459500D02*
Y465500D01*
X281750Y459500D02*
Y465500D01*
X263250Y377000D02*
X274250D01*
X263250Y383000D02*
X274250D01*
X263250Y377000D02*
Y383000D01*
X274250Y377000D02*
Y383000D01*
X265500Y292000D02*
X276500D01*
X265500Y298000D02*
X276500D01*
X265500Y292000D02*
Y298000D01*
X276500Y292000D02*
Y298000D01*
X223250Y208000D02*
X234250D01*
X223250Y214000D02*
X234250D01*
X223250Y208000D02*
Y214000D01*
X234250Y208000D02*
Y214000D01*
X222000Y122000D02*
X233000D01*
X222000Y128000D02*
X233000D01*
X222000Y122000D02*
Y128000D01*
X233000Y122000D02*
Y128000D01*
X325000Y394250D02*
X365000D01*
X325000Y481750D02*
X365000D01*
Y394250D02*
Y481750D01*
X325000Y394250D02*
Y481750D01*
X488000Y397250D02*
X528000D01*
X488000Y484750D02*
X528000D01*
Y397250D02*
Y484750D01*
X488000Y397250D02*
Y484750D01*
X333000Y249250D02*
Y336750D01*
X373000Y249250D02*
Y336750D01*
X333000D02*
X373000D01*
X333000Y249250D02*
X373000D01*
D86*
X193000Y402000D02*
G03*
X193000Y402000I-5000J0D01*
G01*
X500500Y334400D02*
G03*
X500500Y334400I-5000J0D01*
G01*
X339000Y473000D02*
G03*
X339000Y473000I-5000J0D01*
G01*
X502000Y476000D02*
G03*
X502000Y476000I-5000J0D01*
G01*
X347000Y328000D02*
G03*
X347000Y328000I-5000J0D01*
G01*
D87*
X52277Y455000D02*
D03*
X534777Y455000D02*
D03*
X532277Y372500D02*
D03*
X532277Y287502D02*
D03*
X534777Y202500D02*
D03*
X534777Y122501D02*
D03*
X364777Y452500D02*
D03*
X364627Y370000D02*
D03*
X364777Y285001D02*
D03*
X322277Y200004D02*
D03*
X324776Y117503D02*
D03*
X194777Y454752D02*
D03*
X196027Y372500D02*
D03*
X194776Y286001D02*
D03*
X159776Y202497D02*
D03*
X159777Y115000D02*
D03*
M02*
