G04*
G04 #@! TF.GenerationSoftware,Altium Limited,Altium Designer,26.6.0 (10)*
G04*
G04 Layer_Color=8421504*
G04 Board_Origin=29350000|14702756*
%FSLAX44Y44*%
%MOMM*%
G71*
G04*
G04 #@! TF.SameCoordinates,4A6F4C04-391A-4FDC-A87F-652DF65B7CFD*
G04*
G04*
G04 #@! TF.FilePolarity,Positive*
G04*
G01*
G75*
%ADD15R,1.3000X0.2500*%
%ADD16R,1.3000X0.2500*%
G04:AMPARAMS|DCode=17|XSize=1.5397mm|YSize=0.5658mm|CornerRadius=0.2829mm|HoleSize=0mm|Usage=FLASHONLY|Rotation=0.000|XOffset=0mm|YOffset=0mm|HoleType=Round|Shape=RoundedRectangle|*
%AMROUNDEDRECTD17*
21,1,1.5397,0.0000,0,0,0.0*
21,1,0.9739,0.5658,0,0,0.0*
1,1,0.5658,0.4869,0.0000*
1,1,0.5658,-0.4869,0.0000*
1,1,0.5658,-0.4869,0.0000*
1,1,0.5658,0.4869,0.0000*
%
%ADD17ROUNDEDRECTD17*%
%ADD18R,1.5397X0.5658*%
%ADD19O,1.4500X0.4500*%
%ADD20O,0.4500X1.4500*%
%ADD21R,1.2200X1.2000*%
%ADD22R,1.4500X1.2000*%
G04:AMPARAMS|DCode=23|XSize=0.76mm|YSize=0.6604mm|CornerRadius=0.0825mm|HoleSize=0mm|Usage=FLASHONLY|Rotation=180.000|XOffset=0mm|YOffset=0mm|HoleType=Round|Shape=RoundedRectangle|*
%AMROUNDEDRECTD23*
21,1,0.7600,0.4953,0,0,180.0*
21,1,0.5949,0.6604,0,0,180.0*
1,1,0.1651,-0.2975,0.2477*
1,1,0.1651,0.2975,0.2477*
1,1,0.1651,0.2975,-0.2477*
1,1,0.1651,-0.2975,-0.2477*
%
%ADD23ROUNDEDRECTD23*%
%ADD24R,1.2000X1.4000*%
G04:AMPARAMS|DCode=25|XSize=1.7071mm|YSize=0.6158mm|CornerRadius=0.3079mm|HoleSize=0mm|Usage=FLASHONLY|Rotation=0.000|XOffset=0mm|YOffset=0mm|HoleType=Round|Shape=RoundedRectangle|*
%AMROUNDEDRECTD25*
21,1,1.7071,0.0000,0,0,0.0*
21,1,1.0913,0.6158,0,0,0.0*
1,1,0.6158,0.5457,0.0000*
1,1,0.6158,-0.5457,0.0000*
1,1,0.6158,-0.5457,0.0000*
1,1,0.6158,0.5457,0.0000*
%
%ADD25ROUNDEDRECTD25*%
%ADD26R,1.7071X0.6158*%
%ADD27R,0.8000X0.9000*%
%ADD28R,1.2000X1.2000*%
%ADD29R,1.7062X1.1546*%
%ADD30R,0.8582X0.8563*%
%ADD31R,2.2000X1.8000*%
%ADD32R,5.7000X3.5000*%
%ADD33R,1.3098X0.9061*%
%ADD34R,0.9500X1.3500*%
%ADD35R,1.3061X1.0582*%
%ADD36R,3.5000X2.3000*%
G04:AMPARAMS|DCode=37|XSize=0.6mm|YSize=1.45mm|CornerRadius=0.051mm|HoleSize=0mm|Usage=FLASHONLY|Rotation=90.000|XOffset=0mm|YOffset=0mm|HoleType=Round|Shape=RoundedRectangle|*
%AMROUNDEDRECTD37*
21,1,0.6000,1.3480,0,0,90.0*
21,1,0.4980,1.4500,0,0,90.0*
1,1,0.1020,0.6740,0.2490*
1,1,0.1020,0.6740,-0.2490*
1,1,0.1020,-0.6740,-0.2490*
1,1,0.1020,-0.6740,0.2490*
%
%ADD37ROUNDEDRECTD37*%
%ADD38R,1.0000X0.9500*%
%ADD39R,1.6000X2.0000*%
%ADD40R,1.2000X1.4000*%
%ADD41R,0.9500X1.0000*%
%ADD42R,1.1546X1.7062*%
%ADD43R,1.2000X1.2000*%
%ADD44R,0.9061X1.3098*%
G04:AMPARAMS|DCode=45|XSize=0.76mm|YSize=0.6604mm|CornerRadius=0.0825mm|HoleSize=0mm|Usage=FLASHONLY|Rotation=90.000|XOffset=0mm|YOffset=0mm|HoleType=Round|Shape=RoundedRectangle|*
%AMROUNDEDRECTD45*
21,1,0.7600,0.4953,0,0,90.0*
21,1,0.5949,0.6604,0,0,90.0*
1,1,0.1651,0.2477,0.2975*
1,1,0.1651,0.2477,-0.2975*
1,1,0.1651,-0.2477,-0.2975*
1,1,0.1651,-0.2477,0.2975*
%
%ADD45ROUNDEDRECTD45*%
D15*
X772745Y405714D02*
D03*
Y400714D02*
D03*
X772742Y395717D02*
D03*
Y390717D02*
D03*
X772745Y380714D02*
D03*
Y375714D02*
D03*
X772742Y370717D02*
D03*
Y365717D02*
D03*
Y360717D02*
D03*
X772745Y355714D02*
D03*
Y350714D02*
D03*
X772742Y340717D02*
D03*
Y335717D02*
D03*
X772745Y330714D02*
D03*
Y325714D02*
D03*
X772742Y315717D02*
D03*
Y310717D02*
D03*
X772745Y305714D02*
D03*
Y300714D02*
D03*
X772742Y290717D02*
D03*
Y285717D02*
D03*
X772745Y280714D02*
D03*
Y275714D02*
D03*
X772742Y265717D02*
D03*
Y260717D02*
D03*
X772745Y255714D02*
D03*
Y250714D02*
D03*
X772742Y240717D02*
D03*
Y235717D02*
D03*
X772745Y230714D02*
D03*
Y225714D02*
D03*
X772742Y215717D02*
D03*
Y210717D02*
D03*
X772745Y205714D02*
D03*
Y200714D02*
D03*
Y195714D02*
D03*
X772742Y190717D02*
D03*
Y185717D02*
D03*
X772745Y175714D02*
D03*
Y170714D02*
D03*
X772742Y165717D02*
D03*
Y160717D02*
D03*
D16*
X772751Y385714D02*
D03*
X772745Y345706D02*
D03*
Y320706D02*
D03*
Y295706D02*
D03*
Y270706D02*
D03*
Y245706D02*
D03*
Y220706D02*
D03*
X772751Y180714D02*
D03*
D17*
X362155Y55500D02*
D03*
Y74500D02*
D03*
Y65000D02*
D03*
X337845D02*
D03*
Y55500D02*
D03*
D18*
Y74500D02*
D03*
D19*
X203000Y374000D02*
D03*
Y400000D02*
D03*
Y361000D02*
D03*
Y341500D02*
D03*
X91000Y400000D02*
D03*
Y367500D02*
D03*
Y374000D02*
D03*
X203000Y322000D02*
D03*
X91000D02*
D03*
X203000Y387000D02*
D03*
Y393500D02*
D03*
Y380500D02*
D03*
X91000Y393500D02*
D03*
Y387000D02*
D03*
Y380500D02*
D03*
Y361000D02*
D03*
Y354500D02*
D03*
Y348000D02*
D03*
Y341500D02*
D03*
Y335000D02*
D03*
Y328500D02*
D03*
X203000D02*
D03*
Y335000D02*
D03*
Y348000D02*
D03*
Y354500D02*
D03*
Y367500D02*
D03*
D20*
X166500Y417000D02*
D03*
X153500D02*
D03*
X147000D02*
D03*
X134000Y305000D02*
D03*
X108000D02*
D03*
X186000D02*
D03*
X173000D02*
D03*
X179500D02*
D03*
X186000Y417000D02*
D03*
X179500D02*
D03*
X173000D02*
D03*
X160000D02*
D03*
X140500D02*
D03*
X134000D02*
D03*
X127500D02*
D03*
X121000D02*
D03*
X114500D02*
D03*
X108000D02*
D03*
X114500Y305000D02*
D03*
X121000D02*
D03*
X127500D02*
D03*
X140500D02*
D03*
X147000D02*
D03*
X153500D02*
D03*
X160000D02*
D03*
X166500D02*
D03*
D21*
X175000Y90950D02*
D03*
Y129050D02*
D03*
D22*
Y150000D02*
D03*
Y170000D02*
D03*
D23*
X416000Y420000D02*
D03*
Y434000D02*
D03*
X274974Y475643D02*
D03*
Y461643D02*
D03*
X273000Y386000D02*
D03*
Y400000D02*
D03*
X416000Y472000D02*
D03*
Y458000D02*
D03*
X416000Y396000D02*
D03*
Y382000D02*
D03*
X273000Y338000D02*
D03*
Y324000D02*
D03*
Y285000D02*
D03*
Y299000D02*
D03*
X273000Y247000D02*
D03*
Y261000D02*
D03*
X424000Y329000D02*
D03*
Y315000D02*
D03*
X425000Y292000D02*
D03*
Y278000D02*
D03*
X426000Y251000D02*
D03*
Y237000D02*
D03*
X271000Y424500D02*
D03*
Y438500D02*
D03*
D24*
X151000Y50000D02*
D03*
X171000D02*
D03*
D25*
X327994Y170000D02*
D03*
Y160500D02*
D03*
X352006Y179500D02*
D03*
Y160500D02*
D03*
D26*
X327994Y179500D02*
D03*
D27*
X150500Y182000D02*
D03*
X141000Y162000D02*
D03*
X131500Y182000D02*
D03*
D28*
X279000Y89000D02*
D03*
Y110000D02*
D03*
D29*
X225000Y330000D02*
D03*
Y355516D02*
D03*
D30*
X304000Y135990D02*
D03*
Y148010D02*
D03*
X305000Y107990D02*
D03*
Y120010D02*
D03*
X377000Y164990D02*
D03*
Y177010D02*
D03*
D31*
X829244Y427215D02*
D03*
Y139215D02*
D03*
D32*
X225000Y134770D02*
D03*
Y87770D02*
D03*
D33*
X279000Y154761D02*
D03*
Y139239D02*
D03*
D34*
X80000Y430000D02*
D03*
X95000D02*
D03*
D35*
X365761Y101000D02*
D03*
X350239D02*
D03*
D36*
X140000Y80000D02*
D03*
Y130000D02*
D03*
D37*
X533750Y299400D02*
D03*
X479250D02*
D03*
Y337500D02*
D03*
Y324800D02*
D03*
X533750Y261300D02*
D03*
Y274000D02*
D03*
Y286700D02*
D03*
Y312100D02*
D03*
Y324800D02*
D03*
Y337500D02*
D03*
X479250Y261300D02*
D03*
Y274000D02*
D03*
Y286700D02*
D03*
Y312100D02*
D03*
X372250Y438000D02*
D03*
Y412600D02*
D03*
Y399900D02*
D03*
X317750Y425300D02*
D03*
X372250Y450700D02*
D03*
X317750D02*
D03*
Y476100D02*
D03*
Y463400D02*
D03*
X372250Y476100D02*
D03*
Y463400D02*
D03*
X317750Y438000D02*
D03*
X372250Y425300D02*
D03*
X317750Y399900D02*
D03*
Y412600D02*
D03*
X535250Y441000D02*
D03*
X480750D02*
D03*
X535250Y479100D02*
D03*
Y466400D02*
D03*
Y402900D02*
D03*
Y415600D02*
D03*
Y428300D02*
D03*
Y453700D02*
D03*
X480750Y402900D02*
D03*
Y415600D02*
D03*
Y428300D02*
D03*
Y453700D02*
D03*
Y466400D02*
D03*
Y479100D02*
D03*
X380250Y293000D02*
D03*
Y280300D02*
D03*
X325750Y293000D02*
D03*
X380250Y254900D02*
D03*
Y267600D02*
D03*
X325750Y318400D02*
D03*
Y331100D02*
D03*
Y305700D02*
D03*
Y280300D02*
D03*
Y267600D02*
D03*
Y254900D02*
D03*
X380250Y331100D02*
D03*
Y318400D02*
D03*
Y305700D02*
D03*
D38*
X220000Y408500D02*
D03*
Y421500D02*
D03*
X298225Y459475D02*
D03*
Y472475D02*
D03*
X298000Y423500D02*
D03*
Y436500D02*
D03*
X299000Y399500D02*
D03*
Y386500D02*
D03*
X441000Y472500D02*
D03*
Y459500D02*
D03*
Y420500D02*
D03*
Y433500D02*
D03*
X442000Y382000D02*
D03*
Y395000D02*
D03*
X301000Y338000D02*
D03*
Y325000D02*
D03*
Y298500D02*
D03*
Y285500D02*
D03*
X300000Y260500D02*
D03*
Y247500D02*
D03*
X450000Y328000D02*
D03*
Y315000D02*
D03*
X451750Y290000D02*
D03*
Y277000D02*
D03*
X451000Y251000D02*
D03*
Y238000D02*
D03*
X222000Y299500D02*
D03*
Y312500D02*
D03*
X225250Y378750D02*
D03*
Y391750D02*
D03*
D39*
X151000Y25000D02*
D03*
X181000D02*
D03*
D40*
X256250Y35000D02*
D03*
X236250D02*
D03*
X256000Y55000D02*
D03*
X236000D02*
D03*
D41*
X285000Y185000D02*
D03*
X272000D02*
D03*
X341000Y371000D02*
D03*
X354000D02*
D03*
X505000Y372000D02*
D03*
X518000D02*
D03*
X349250Y228500D02*
D03*
X362250D02*
D03*
X528500Y246000D02*
D03*
X515500D02*
D03*
X163250Y281250D02*
D03*
X150250D02*
D03*
X164500Y439000D02*
D03*
X151500D02*
D03*
D42*
X412758Y365000D02*
D03*
X387242D02*
D03*
D43*
X225500Y177000D02*
D03*
X204500D02*
D03*
D44*
X200239Y25000D02*
D03*
X215761D02*
D03*
D45*
X355000Y385000D02*
D03*
X341000D02*
D03*
X504000Y386000D02*
D03*
X518000D02*
D03*
X348750Y241750D02*
D03*
X362750D02*
D03*
X474000Y246000D02*
D03*
X488000D02*
D03*
M02*
