G04*
G04 #@! TF.GenerationSoftware,Altium Limited,Altium Designer,26.6.0 (10)*
G04*
G04 Layer_Color=32768*
G04 Board_Origin=29350000|14702756*
%FSLAX44Y44*%
%MOMM*%
G71*
G04*
G04 #@! TF.SameCoordinates,4A6F4C04-391A-4FDC-A87F-652DF65B7CFD*
G04*
G04*
G04 #@! TF.FilePolarity,Positive*
G04*
G01*
G75*
%ADD12C,0.2000*%
D12*
X411250Y427000D02*
X420750Y427000D01*
X416000Y422250D02*
Y431750D01*
X422000Y415000D02*
Y439000D01*
X410000Y415000D02*
Y439000D01*
X422000D01*
X410000Y415000D02*
X422000D01*
X314459Y150000D02*
Y190000D01*
Y150000D02*
X365541D01*
Y190000D01*
X314459D02*
X365541D01*
X125000Y187500D02*
X157000D01*
X125000Y156500D02*
Y187500D01*
Y156500D02*
X157000D01*
Y187500D01*
X271250Y82000D02*
X286750D01*
Y117000D01*
X271250D02*
X286750D01*
X271250Y82000D02*
Y117000D01*
X215000Y362289D02*
X235000D01*
X215000Y323227D02*
Y362289D01*
Y323227D02*
X235000D01*
Y362289D01*
X298250Y130709D02*
X309750D01*
Y153291D01*
X298250D02*
X309750D01*
X298250Y130709D02*
Y153291D01*
X765244Y129215D02*
Y437215D01*
Y129215D02*
X845744D01*
Y437215D01*
X765244D02*
X845744D01*
X271000Y133709D02*
X287000D01*
Y160291D01*
X271000D02*
X287000D01*
X271000Y133709D02*
Y160291D01*
X73500Y438500D02*
X101500D01*
Y421500D02*
Y438500D01*
X73500Y421500D02*
X101500D01*
X73500D02*
Y438500D01*
X338709Y90709D02*
Y111291D01*
Y90709D02*
X377291D01*
Y111291D01*
X338709D02*
X377291D01*
X299250Y102709D02*
X310750D01*
Y125291D01*
X299250D02*
X310750D01*
X299250Y102709D02*
Y125291D01*
X371250Y159709D02*
Y182291D01*
X382750D01*
Y159709D02*
Y182291D01*
X371250Y159709D02*
X382750D01*
X380469Y375000D02*
X419531D01*
Y355000D02*
Y375000D01*
X380469Y355000D02*
X419531D01*
X380469D02*
Y375000D01*
X197500Y169250D02*
X232500D01*
X197500D02*
Y184750D01*
X232500D01*
Y169250D02*
Y184750D01*
X221291Y17000D02*
Y33000D01*
X194709D02*
X221291D01*
X194709Y17000D02*
Y33000D01*
Y17000D02*
X221291D01*
X268974Y480643D02*
X280975D01*
X268974Y456643D02*
X280975D01*
Y480643D01*
X268974Y456643D02*
Y480643D01*
X274974Y463893D02*
Y473393D01*
X270224Y468643D02*
X279725Y468643D01*
X268250Y393000D02*
X277750Y393000D01*
X273000Y388250D02*
Y397750D01*
X267000Y381000D02*
Y405000D01*
X279000Y381000D02*
Y405000D01*
X267000Y381000D02*
X279000D01*
X267000Y405000D02*
X279000D01*
X348000Y380250D02*
X348000Y389750D01*
X343250Y385000D02*
X352750D01*
X336000Y379000D02*
X360000D01*
X336000Y391000D02*
X360000D01*
Y379000D02*
Y391000D01*
X336000Y379000D02*
Y391000D01*
X411250Y465000D02*
X420750Y465000D01*
X416000Y460250D02*
Y469750D01*
X410000Y453000D02*
Y477000D01*
X422000Y453000D02*
Y477000D01*
X410000Y453000D02*
X422000D01*
X410000Y477000D02*
X422000D01*
X411250Y389000D02*
X420750Y389000D01*
X416000Y384250D02*
Y393750D01*
X422000Y377000D02*
Y401000D01*
X410000Y377000D02*
Y401000D01*
X422000D01*
X410000Y377000D02*
X422000D01*
X511000Y381250D02*
X511000Y390750D01*
X506250Y386000D02*
X515750D01*
X499000Y380000D02*
X523000D01*
X499000Y392000D02*
X523000D01*
Y380000D02*
Y392000D01*
X499000Y380000D02*
Y392000D01*
X267000Y343000D02*
X279000D01*
X267000Y319000D02*
X279000D01*
Y343000D01*
X267000Y319000D02*
Y343000D01*
X273000Y326250D02*
Y335750D01*
X268250Y331000D02*
X277750Y331000D01*
X268250Y292000D02*
X277750Y292000D01*
X273000Y287250D02*
Y296750D01*
X267000Y280000D02*
Y304000D01*
X279000Y280000D02*
Y304000D01*
X267000Y280000D02*
X279000D01*
X267000Y304000D02*
X279000D01*
X268250Y254000D02*
X277750Y254000D01*
X273000Y249250D02*
Y258750D01*
X267000Y242000D02*
Y266000D01*
X279000Y242000D02*
Y266000D01*
X267000Y242000D02*
X279000D01*
X267000Y266000D02*
X279000D01*
X343750Y235750D02*
Y247750D01*
X367750Y235750D02*
Y247750D01*
X343750D02*
X367750D01*
X343750Y235750D02*
X367750D01*
X351000Y241750D02*
X360500D01*
X355750Y237000D02*
X355750Y246500D01*
X418000Y334000D02*
X430000D01*
X418000Y310000D02*
X430000D01*
Y334000D01*
X418000Y310000D02*
Y334000D01*
X424000Y317250D02*
Y326750D01*
X419250Y322000D02*
X428750Y322000D01*
X419000Y297000D02*
X431000D01*
X419000Y273000D02*
X431000D01*
Y297000D01*
X419000Y273000D02*
Y297000D01*
X425000Y280250D02*
Y289750D01*
X420250Y285000D02*
X429750Y285000D01*
X420000Y256000D02*
X432000D01*
X420000Y232000D02*
X432000D01*
Y256000D01*
X420000Y232000D02*
Y256000D01*
X426000Y239250D02*
Y248750D01*
X421250Y244000D02*
X430750Y244000D01*
X469000Y240000D02*
Y252000D01*
X493000Y240000D02*
Y252000D01*
X469000D02*
X493000D01*
X469000Y240000D02*
X493000D01*
X476250Y246000D02*
X485750D01*
X481000Y241250D02*
X481000Y250750D01*
X266250Y431500D02*
X275750Y431500D01*
X271000Y426750D02*
Y436250D01*
X277000Y419500D02*
Y443500D01*
X265000Y419500D02*
Y443500D01*
X277000D01*
X265000Y419500D02*
X277000D01*
M02*
