G04*
G04 #@! TF.GenerationSoftware,Altium Limited,Altium Designer,26.6.0 (10)*
G04*
G04 Layer_Physical_Order=1*
G04 Layer_Color=255*
G04 Board_Origin=29350000|14702756*
%FSLAX44Y44*%
%MOMM*%
G71*
G04*
G04 #@! TF.SameCoordinates,4A6F4C04-391A-4FDC-A87F-652DF65B7CFD*
G04*
G04*
G04 #@! TF.FilePolarity,Positive*
G04*
G01*
G75*
%ADD12C,0.2000*%
G04:AMPARAMS|DCode=17|XSize=1.5397mm|YSize=0.5658mm|CornerRadius=0.2829mm|HoleSize=0mm|Usage=FLASHONLY|Rotation=0.000|XOffset=0mm|YOffset=0mm|HoleType=Round|Shape=RoundedRectangle|*
%AMROUNDEDRECTD17*
21,1,1.5397,0.0000,0,0,0.0*
21,1,0.9739,0.5658,0,0,0.0*
1,1,0.5658,0.4869,0.0000*
1,1,0.5658,-0.4869,0.0000*
1,1,0.5658,-0.4869,0.0000*
1,1,0.5658,0.4869,0.0000*
%
%ADD17ROUNDEDRECTD17*%
%ADD18R,1.5397X0.5658*%
%ADD19O,1.4500X0.4500*%
%ADD20O,0.4500X1.4500*%
%ADD21R,1.2200X1.2000*%
%ADD22R,1.4500X1.2000*%
G04:AMPARAMS|DCode=23|XSize=0.76mm|YSize=0.6604mm|CornerRadius=0.0825mm|HoleSize=0mm|Usage=FLASHONLY|Rotation=180.000|XOffset=0mm|YOffset=0mm|HoleType=Round|Shape=RoundedRectangle|*
%AMROUNDEDRECTD23*
21,1,0.7600,0.4953,0,0,180.0*
21,1,0.5949,0.6604,0,0,180.0*
1,1,0.1651,-0.2975,0.2477*
1,1,0.1651,0.2975,0.2477*
1,1,0.1651,0.2975,-0.2477*
1,1,0.1651,-0.2975,-0.2477*
%
%ADD23ROUNDEDRECTD23*%
%ADD24R,1.2000X1.4000*%
G04:AMPARAMS|DCode=25|XSize=1.7071mm|YSize=0.6158mm|CornerRadius=0.3079mm|HoleSize=0mm|Usage=FLASHONLY|Rotation=0.000|XOffset=0mm|YOffset=0mm|HoleType=Round|Shape=RoundedRectangle|*
%AMROUNDEDRECTD25*
21,1,1.7071,0.0000,0,0,0.0*
21,1,1.0913,0.6158,0,0,0.0*
1,1,0.6158,0.5457,0.0000*
1,1,0.6158,-0.5457,0.0000*
1,1,0.6158,-0.5457,0.0000*
1,1,0.6158,0.5457,0.0000*
%
%ADD25ROUNDEDRECTD25*%
%ADD26R,1.7071X0.6158*%
%ADD27R,0.8000X0.9000*%
%ADD28R,1.2000X1.2000*%
%ADD29R,1.7062X1.1546*%
%ADD30R,0.8582X0.8563*%
%ADD31R,2.2000X1.8000*%
%ADD32R,5.7000X3.5000*%
%ADD33R,1.3098X0.9061*%
%ADD34R,0.9500X1.3500*%
%ADD35R,1.3061X1.0582*%
%ADD36R,3.5000X2.3000*%
G04:AMPARAMS|DCode=37|XSize=0.6mm|YSize=1.45mm|CornerRadius=0.051mm|HoleSize=0mm|Usage=FLASHONLY|Rotation=90.000|XOffset=0mm|YOffset=0mm|HoleType=Round|Shape=RoundedRectangle|*
%AMROUNDEDRECTD37*
21,1,0.6000,1.3480,0,0,90.0*
21,1,0.4980,1.4500,0,0,90.0*
1,1,0.1020,0.6740,0.2490*
1,1,0.1020,0.6740,-0.2490*
1,1,0.1020,-0.6740,-0.2490*
1,1,0.1020,-0.6740,0.2490*
%
%ADD37ROUNDEDRECTD37*%
%ADD38R,1.0000X0.9500*%
%ADD39R,1.6000X2.0000*%
%ADD40R,1.2000X1.4000*%
%ADD41R,0.9500X1.0000*%
%ADD42R,1.1546X1.7062*%
%ADD43R,1.2000X1.2000*%
%ADD44R,0.9061X1.3098*%
G04:AMPARAMS|DCode=45|XSize=0.76mm|YSize=0.6604mm|CornerRadius=0.0825mm|HoleSize=0mm|Usage=FLASHONLY|Rotation=90.000|XOffset=0mm|YOffset=0mm|HoleType=Round|Shape=RoundedRectangle|*
%AMROUNDEDRECTD45*
21,1,0.7600,0.4953,0,0,90.0*
21,1,0.5949,0.6604,0,0,90.0*
1,1,0.1651,0.2477,0.2975*
1,1,0.1651,0.2477,-0.2975*
1,1,0.1651,-0.2477,-0.2975*
1,1,0.1651,-0.2477,0.2975*
%
%ADD45ROUNDEDRECTD45*%
%ADD52R,1.3000X0.3000*%
%ADD61C,1.5700*%
%ADD62R,1.5700X1.5700*%
%ADD67C,0.4000*%
%ADD68C,0.1500*%
%ADD69C,2.2000*%
%ADD70R,2.2000X2.2000*%
%ADD71C,6.2000*%
%ADD72C,0.5000*%
%ADD73C,0.4000*%
G36*
X577171Y550503D02*
Y542161D01*
X575671Y541964D01*
X575179Y543802D01*
X573882Y546048D01*
X572048Y547882D01*
X569802Y549179D01*
X567297Y549850D01*
X564703D01*
X562198Y549179D01*
X559952Y547882D01*
X558118Y546048D01*
X556821Y543802D01*
X556150Y541297D01*
Y538703D01*
X556821Y536198D01*
X558118Y533952D01*
X559952Y532118D01*
X562198Y530821D01*
X564703Y530150D01*
X567297D01*
X569802Y530821D01*
X572048Y532118D01*
X573882Y533952D01*
X575179Y536198D01*
X575671Y538036D01*
X577171Y537839D01*
Y518848D01*
X575682Y518610D01*
X574314Y520980D01*
X572380Y522914D01*
X570010Y524282D01*
X567368Y524990D01*
X567270D01*
Y514600D01*
Y504210D01*
X567368D01*
X570010Y504918D01*
X572380Y506286D01*
X574314Y508220D01*
X575682Y510590D01*
X577171Y510352D01*
Y508646D01*
X559337Y490812D01*
X558674Y489820D01*
X558441Y488649D01*
X558441Y488649D01*
Y474158D01*
X557056Y473584D01*
X549398Y481241D01*
Y483294D01*
X549165Y484464D01*
X548502Y485457D01*
X548502Y485457D01*
X543451Y490508D01*
X542459Y491171D01*
X541288Y491404D01*
X541288Y491403D01*
X502254D01*
X499671Y493986D01*
X499671Y493987D01*
X495584Y498073D01*
X494592Y498736D01*
X493422Y498969D01*
X493421Y498969D01*
X468079D01*
X468078Y498969D01*
X466908Y498736D01*
X465916Y498073D01*
X465916Y498073D01*
X459501Y491659D01*
X431299D01*
X431299Y491659D01*
X430128Y491426D01*
X430094Y491403D01*
X420395D01*
X419224Y491171D01*
X418232Y490508D01*
X402927Y475203D01*
X402264Y474211D01*
X402031Y473040D01*
X402031Y473040D01*
Y468348D01*
X401934Y468296D01*
X400500Y469230D01*
Y470046D01*
X399891Y471516D01*
X399515Y471892D01*
Y476905D01*
X401443Y478834D01*
X402106Y479826D01*
X402339Y480996D01*
X402339Y480997D01*
Y487970D01*
X402106Y489141D01*
X401443Y490133D01*
X391163Y500413D01*
X390171Y501076D01*
X389000Y501309D01*
X389000Y501309D01*
X378518D01*
X377896Y502809D01*
X378389Y503301D01*
X379045Y504886D01*
X374116D01*
Y506156D01*
X372846D01*
Y511975D01*
X372616Y512201D01*
X372446Y512543D01*
X372650Y513303D01*
Y515897D01*
X371979Y518402D01*
X370682Y520648D01*
X368848Y522482D01*
X366602Y523779D01*
X364097Y524450D01*
X361503D01*
X358998Y523779D01*
X356752Y522482D01*
X354918Y520648D01*
X353621Y518402D01*
X352950Y515897D01*
Y513303D01*
X353621Y510798D01*
X354918Y508552D01*
X355275Y508195D01*
X354701Y506809D01*
X349456D01*
X349145Y507561D01*
X347727Y508978D01*
X347004Y509278D01*
X346521Y510699D01*
X346579Y510798D01*
X347250Y513303D01*
Y515897D01*
X346579Y518402D01*
X345282Y520648D01*
X343448Y522482D01*
X341202Y523779D01*
X338697Y524450D01*
X336103D01*
X333598Y523779D01*
X331352Y522482D01*
X329518Y520648D01*
X328720Y519265D01*
X327220Y519667D01*
Y525494D01*
X332932Y531206D01*
X333598Y530821D01*
X336103Y530150D01*
X338697D01*
X341202Y530821D01*
X343448Y532118D01*
X345282Y533952D01*
X346579Y536198D01*
X347250Y538703D01*
Y541297D01*
X346579Y543802D01*
X345282Y546048D01*
X343448Y547882D01*
X341202Y549179D01*
X338697Y549850D01*
X336103D01*
X333598Y549179D01*
X331352Y547882D01*
X329518Y546048D01*
X328221Y543802D01*
X327550Y541297D01*
Y538703D01*
X328221Y536198D01*
X328606Y535532D01*
X321998Y528924D01*
X321335Y527931D01*
X321102Y526761D01*
X321102Y526761D01*
Y521324D01*
X319602Y520928D01*
X318048Y522482D01*
X315802Y523779D01*
X313297Y524450D01*
X310703D01*
X308198Y523779D01*
X305952Y522482D01*
X304118Y520648D01*
X302821Y518402D01*
X302150Y515897D01*
Y513303D01*
X302679Y511330D01*
X296657Y505309D01*
X293207D01*
X292774Y506402D01*
X292739Y506809D01*
X294482Y508552D01*
X295779Y510798D01*
X296450Y513303D01*
Y515897D01*
X295779Y518402D01*
X294482Y520648D01*
X292648Y522482D01*
X291834Y522952D01*
X291761Y523215D01*
X291887Y524654D01*
X292437Y525021D01*
X300885Y533470D01*
X300885Y533470D01*
X301548Y534462D01*
X303109Y534620D01*
X303686Y533620D01*
X305620Y531686D01*
X307990Y530318D01*
X310632Y529610D01*
X310730D01*
Y540000D01*
X312000D01*
Y541270D01*
X322390D01*
Y541368D01*
X321682Y544010D01*
X320314Y546380D01*
X318380Y548314D01*
X316010Y549682D01*
X313985Y550224D01*
X313310Y551573D01*
X313294Y551890D01*
X313328Y551941D01*
X575733D01*
X577171Y550503D01*
D02*
G37*
G36*
X128802Y522857D02*
X128152Y522482D01*
X126318Y520648D01*
X125021Y518402D01*
X124350Y515897D01*
Y513303D01*
X125021Y510798D01*
X126318Y508552D01*
X128152Y506718D01*
X129376Y506011D01*
X129550Y505110D01*
X129487Y504216D01*
X123030Y497759D01*
X121559Y498052D01*
X121368Y498513D01*
X119950Y499931D01*
X118365Y500588D01*
Y495658D01*
X115825D01*
Y500588D01*
X114240Y499931D01*
X113027Y498717D01*
X107979D01*
X107979Y498717D01*
X106809Y498484D01*
X105816Y497821D01*
X105816Y497821D01*
X99505Y491510D01*
X98119Y492084D01*
Y510610D01*
X99619Y510807D01*
X99621Y510798D01*
X100918Y508552D01*
X102752Y506718D01*
X104998Y505421D01*
X107503Y504750D01*
X110097D01*
X112602Y505421D01*
X114848Y506718D01*
X116682Y508552D01*
X117979Y510798D01*
X118650Y513303D01*
Y515897D01*
X117979Y518402D01*
X116682Y520648D01*
X114848Y522482D01*
X114198Y522857D01*
X114600Y524357D01*
X128400D01*
X128802Y522857D01*
D02*
G37*
G36*
X826879Y559750D02*
X850000Y532650D01*
Y29500D01*
X819649Y-171D01*
X521914Y-171D01*
X521340Y1214D01*
X553000Y32874D01*
X554500Y32253D01*
Y31355D01*
X555185Y29701D01*
X556451Y28435D01*
X558105Y27750D01*
X559895D01*
X561549Y28435D01*
X562815Y29701D01*
X563500Y31355D01*
Y32424D01*
X570970Y39894D01*
X572441Y39602D01*
X572521Y39410D01*
X573938Y37992D01*
X575523Y37336D01*
Y42265D01*
X578063D01*
Y37336D01*
X579648Y37992D01*
X580063Y38407D01*
X581468Y37691D01*
X581460Y37640D01*
Y36270D01*
X613730D01*
Y68540D01*
X612360D01*
X607146Y67714D01*
X602125Y66083D01*
X597421Y63686D01*
X593150Y60583D01*
X591682Y59115D01*
X590401Y59955D01*
X590559Y60750D01*
Y132262D01*
X590559Y132262D01*
X590326Y133433D01*
X589663Y134425D01*
X589663Y134425D01*
X573048Y151039D01*
Y215518D01*
X586222Y228691D01*
X653750D01*
X653750Y228691D01*
X654921Y228924D01*
X655913Y229587D01*
X688982Y262656D01*
X763704D01*
Y261985D01*
X772744D01*
X781784D01*
Y264755D01*
X781244D01*
Y266675D01*
X781784D01*
Y269445D01*
X772744D01*
X763704D01*
Y268774D01*
X687715D01*
X686545Y268541D01*
X685552Y267878D01*
X685552Y267878D01*
X653471Y235796D01*
X653281Y235834D01*
X652787Y237461D01*
X687982Y272656D01*
X763704D01*
Y271985D01*
X772744D01*
X781784D01*
Y274755D01*
X781244D01*
Y276675D01*
X781784D01*
Y279445D01*
X772744D01*
X763704D01*
Y278774D01*
X690310D01*
X689735Y280160D01*
X692017Y282441D01*
X755945D01*
X756701Y281685D01*
X758355Y281000D01*
X760145D01*
X761799Y281685D01*
X762204Y282090D01*
X762456Y281985D01*
X772744D01*
X781784D01*
Y284755D01*
X781244D01*
Y286675D01*
X781784D01*
Y289445D01*
X772744D01*
X763704D01*
Y289255D01*
X762204Y288910D01*
X761799Y289315D01*
X760145Y290000D01*
X758355D01*
X756701Y289315D01*
X755945Y288559D01*
X690750D01*
X689579Y288326D01*
X688587Y287663D01*
X688587Y287663D01*
X646733Y245809D01*
X625068D01*
X624261Y246795D01*
X624172Y247309D01*
X627154Y250290D01*
X628038Y251613D01*
X628348Y253174D01*
Y330845D01*
X628770Y331863D01*
Y333653D01*
X628085Y335307D01*
X627578Y335813D01*
Y404087D01*
X628000Y405105D01*
Y406895D01*
X627315Y408549D01*
X626049Y409815D01*
X624395Y410500D01*
X622605D01*
X620951Y409815D01*
X619685Y408549D01*
X619000Y406895D01*
Y405105D01*
X619422Y404087D01*
Y333799D01*
X619422Y333798D01*
X619732Y332238D01*
X619770Y332181D01*
Y331863D01*
X620192Y330845D01*
Y256892D01*
X618692Y256593D01*
X618273Y257605D01*
X616855Y259023D01*
X615270Y259679D01*
Y254750D01*
X612730D01*
Y259679D01*
X611145Y259023D01*
X609727Y257605D01*
X609628Y257366D01*
X609131Y257267D01*
X607477Y257952D01*
X605687D01*
X604033Y257267D01*
X602767Y256001D01*
X602082Y254347D01*
Y252557D01*
X602767Y250903D01*
X604033Y249638D01*
X605687Y248952D01*
X606757D01*
X613650Y242059D01*
X613029Y240559D01*
X576250D01*
X575079Y240326D01*
X574087Y239663D01*
X574087Y239663D01*
X565945Y231520D01*
X564559Y232094D01*
Y339922D01*
X568280Y343643D01*
X568280Y343643D01*
X568943Y344636D01*
X569176Y345806D01*
Y360193D01*
X570676Y361195D01*
X571126Y361009D01*
X572916D01*
X574570Y361694D01*
X575836Y362960D01*
X576521Y364614D01*
Y365321D01*
X576986Y366677D01*
X578157Y366910D01*
X579149Y367573D01*
X594663Y383087D01*
X594663Y383087D01*
X595326Y384080D01*
X595559Y385250D01*
X595559Y385250D01*
Y421191D01*
X705733D01*
X707191Y420966D01*
X707424Y419796D01*
X708087Y418803D01*
X762838Y364052D01*
X763704Y363474D01*
Y360743D01*
X762204Y360122D01*
X752892Y369433D01*
Y370288D01*
X752207Y371941D01*
X750941Y373207D01*
X749287Y373892D01*
X747497D01*
X745843Y373207D01*
X744577Y371941D01*
X743892Y370288D01*
Y368497D01*
X744577Y366843D01*
X745843Y365578D01*
X747497Y364892D01*
X748782D01*
X760122Y353552D01*
X760122Y353552D01*
X761114Y352889D01*
X762285Y352656D01*
X763704D01*
Y351985D01*
X772744D01*
X781784D01*
Y354755D01*
X781244D01*
Y356675D01*
X781784D01*
Y359445D01*
X772744D01*
Y361985D01*
X781784D01*
Y364755D01*
X781244D01*
Y366675D01*
X781784D01*
Y369445D01*
X772744D01*
Y371985D01*
X781784D01*
Y374755D01*
X781244D01*
Y376675D01*
X781784D01*
Y379445D01*
X772744D01*
Y381985D01*
X781784D01*
Y384755D01*
X781244D01*
Y386675D01*
X781784D01*
Y389445D01*
X772744D01*
Y391985D01*
X781784D01*
Y394755D01*
X781244D01*
Y396675D01*
X781784D01*
Y399445D01*
X772744D01*
Y401985D01*
X781784D01*
Y404755D01*
X781244D01*
Y409215D01*
X768569D01*
X731343Y446441D01*
X731965Y447941D01*
X765980D01*
X766843Y447077D01*
X768497Y446392D01*
X770287D01*
X771942Y447077D01*
X773207Y448343D01*
X773892Y449997D01*
Y451787D01*
X773207Y453442D01*
X771942Y454707D01*
X770287Y455392D01*
X768497D01*
X766843Y454707D01*
X766195Y454059D01*
X631055D01*
X630299Y454815D01*
X628645Y455500D01*
X626855D01*
X625201Y454815D01*
X623935Y453549D01*
X623250Y451895D01*
Y450105D01*
X622654Y449213D01*
X578061D01*
X577305Y449969D01*
X575652Y450654D01*
X573861D01*
X572207Y449969D01*
X570942Y448703D01*
X570256Y447049D01*
Y445259D01*
X570942Y443605D01*
X572207Y442339D01*
X572584Y442183D01*
X572752Y441968D01*
X573086Y440351D01*
X572851Y439999D01*
X572618Y438828D01*
X572618Y438828D01*
Y403354D01*
X571807Y402813D01*
X570968Y401973D01*
X570903Y402000D01*
X569113D01*
X567459Y401315D01*
X566193Y400049D01*
X566059Y399724D01*
X564559Y400022D01*
Y487382D01*
X582393Y505216D01*
X583056Y506208D01*
X583289Y507379D01*
Y510055D01*
X584789Y510415D01*
X586314Y507421D01*
X589417Y503150D01*
X593150Y499417D01*
X597421Y496314D01*
X602125Y493917D01*
X607146Y492286D01*
X612360Y491460D01*
X613730D01*
Y525000D01*
X615000D01*
Y526270D01*
X648540D01*
Y527640D01*
X647714Y532854D01*
X646083Y537875D01*
X643686Y542579D01*
X640583Y546850D01*
X636850Y550583D01*
X632579Y553686D01*
X627875Y556083D01*
X622854Y557714D01*
X617892Y558500D01*
X618010Y560000D01*
X825482D01*
X826879Y559750D01*
D02*
G37*
G36*
X36270Y491460D02*
X37640D01*
X42854Y492286D01*
X47875Y493917D01*
X52579Y496314D01*
X56850Y499417D01*
X60583Y503150D01*
X63686Y507421D01*
X65251Y510493D01*
X66751Y510133D01*
Y496077D01*
X31202Y460528D01*
X30133D01*
X28479Y459843D01*
X27213Y458577D01*
X26528Y456923D01*
Y455133D01*
X27213Y453479D01*
X26112Y452515D01*
X25605Y453023D01*
X24020Y453679D01*
Y448750D01*
Y443821D01*
X25605Y444477D01*
X26569Y445441D01*
X44440D01*
X44440Y445441D01*
X45227Y445598D01*
X46055Y444304D01*
X25199Y423448D01*
X24536Y422456D01*
X24303Y421285D01*
X24303Y421285D01*
Y387639D01*
X24303Y387639D01*
X24536Y386468D01*
X25199Y385476D01*
X38699Y371975D01*
X38125Y370590D01*
X1063D01*
X3Y371651D01*
X253Y512337D01*
X338Y512337D01*
Y512337D01*
X1766Y514398D01*
X3250Y514180D01*
X3917Y512125D01*
X6314Y507421D01*
X9417Y503150D01*
X13150Y499417D01*
X17421Y496314D01*
X22125Y493917D01*
X27146Y492286D01*
X32360Y491460D01*
X33730D01*
Y525000D01*
X36270D01*
Y491460D01*
D02*
G37*
G36*
X92001Y490251D02*
X82176Y480425D01*
X80688Y481059D01*
X80023Y482665D01*
X78605Y484083D01*
X77020Y484739D01*
Y479810D01*
X75750D01*
Y478540D01*
X70154D01*
X43173Y451559D01*
X35044D01*
X34423Y453059D01*
X34843Y453479D01*
X35528Y455133D01*
Y456202D01*
X71973Y492647D01*
X71973Y492647D01*
X72636Y493639D01*
X72869Y494810D01*
Y503532D01*
X73550Y504750D01*
X92001D01*
Y490251D01*
D02*
G37*
G36*
X205477Y478367D02*
X204821Y476782D01*
X209750D01*
Y474242D01*
X204821D01*
X204901Y474048D01*
X204068Y472801D01*
X197204D01*
X196702Y473136D01*
X195531Y473369D01*
X195531Y473369D01*
X166676D01*
X166102Y474754D01*
X171159Y479811D01*
X204800D01*
X205477Y478367D01*
D02*
G37*
G36*
X269157Y478311D02*
X269119Y478119D01*
Y473166D01*
X269338Y472064D01*
X269963Y471129D01*
X270898Y470505D01*
X272000Y470285D01*
X277949D01*
X279051Y470505D01*
X279986Y471129D01*
X280611Y472064D01*
X280714Y472584D01*
X291225D01*
Y466765D01*
X290685D01*
Y460745D01*
X298225D01*
Y458205D01*
X290685D01*
Y452185D01*
X290685D01*
X291419Y450793D01*
X291408Y450685D01*
X290209Y449884D01*
X290209Y449884D01*
X286116Y445791D01*
X285461Y444810D01*
X283853Y443202D01*
X282969Y441879D01*
X282658Y440318D01*
X282658Y440318D01*
Y423552D01*
X282658Y423552D01*
X282750Y423090D01*
Y422144D01*
X283435Y420490D01*
X284701Y419224D01*
X286355Y418539D01*
X288145D01*
X288960Y418876D01*
X290460Y417925D01*
Y416210D01*
X296730D01*
Y423500D01*
X299270D01*
Y416210D01*
X299506D01*
X300080Y414824D01*
X295565Y410309D01*
X283535D01*
X279059Y414785D01*
Y417372D01*
X279963Y418276D01*
X279963Y418276D01*
X280626Y419268D01*
X280859Y420439D01*
Y433226D01*
X280859Y433227D01*
X280626Y434397D01*
X279963Y435389D01*
X276991Y438361D01*
X276855Y438452D01*
Y440976D01*
X276636Y442079D01*
X276012Y443014D01*
X275077Y443638D01*
X273974Y443857D01*
X268025D01*
X266923Y443638D01*
X265988Y443014D01*
X265364Y442079D01*
X265145Y440976D01*
Y436023D01*
X265364Y434921D01*
X265988Y433987D01*
X266923Y433362D01*
X268025Y433143D01*
X273558D01*
X274741Y431959D01*
Y430487D01*
X273974Y429857D01*
X268025D01*
X266923Y429638D01*
X266718Y429501D01*
X258107Y438113D01*
Y444448D01*
X258107Y444448D01*
X257874Y445618D01*
X257211Y446611D01*
X255576Y448245D01*
X256150Y449631D01*
X264690D01*
X264690Y449631D01*
X265861Y449864D01*
X266853Y450527D01*
X271633Y455307D01*
X271633Y455307D01*
X272286Y456285D01*
X277949D01*
X279051Y456505D01*
X279986Y457129D01*
X280611Y458064D01*
X280830Y459166D01*
Y464119D01*
X280611Y465222D01*
X279986Y466156D01*
X279051Y466781D01*
X277949Y467000D01*
X272000D01*
X270898Y466781D01*
X269963Y466156D01*
X269338Y465222D01*
X269119Y464119D01*
Y461943D01*
X267307Y460131D01*
X266644Y459138D01*
X266602Y458928D01*
X263423Y455749D01*
X255078D01*
X254627Y456050D01*
X253456Y456283D01*
X253456Y456283D01*
X244020D01*
X244020Y456283D01*
X242850Y456050D01*
X242399Y455749D01*
X238158D01*
X232198Y461709D01*
X232238Y463629D01*
X232815Y464206D01*
X233500Y465860D01*
Y467650D01*
X232815Y469304D01*
X231549Y470570D01*
X232215Y471864D01*
X232384Y471794D01*
Y476723D01*
X233654D01*
Y477993D01*
X238584D01*
X238452Y478311D01*
X239454Y479811D01*
X268066D01*
X269157Y478311D01*
D02*
G37*
G36*
X341561Y470447D02*
X341561Y470447D01*
X342554Y469784D01*
X343724Y469551D01*
X346226D01*
X347441Y468336D01*
Y464055D01*
X346685Y463299D01*
X346000Y461645D01*
Y459855D01*
X346685Y458201D01*
X347951Y456935D01*
X348675Y456635D01*
Y455011D01*
X348201Y454815D01*
X346935Y453549D01*
X346250Y451895D01*
Y450105D01*
X346935Y448451D01*
X348201Y447185D01*
X349855Y446500D01*
X351645D01*
X353299Y447185D01*
X354565Y448451D01*
X355250Y450105D01*
Y451174D01*
X363223Y459147D01*
X363700Y459100D01*
X364531Y458546D01*
X365510Y458351D01*
X378990D01*
X380211Y457064D01*
Y457036D01*
X378990Y455749D01*
X365510D01*
X364531Y455554D01*
X363700Y455000D01*
X363146Y454169D01*
X362951Y453190D01*
Y448210D01*
X363146Y447231D01*
X363700Y446400D01*
X364531Y445846D01*
X365510Y445651D01*
X374983D01*
X375367Y445100D01*
X374582Y443600D01*
X373520D01*
Y438000D01*
X370980D01*
Y443600D01*
X365510D01*
X364320Y443363D01*
X363311Y442689D01*
X362637Y441680D01*
X362513Y441059D01*
X349267D01*
X343596Y446730D01*
X333071D01*
X333727Y445145D01*
X334566Y444306D01*
Y421694D01*
X333727Y420855D01*
X333071Y419270D01*
X338000D01*
Y416730D01*
X333071D01*
X333727Y415145D01*
X334870Y414002D01*
X335267Y412278D01*
X329837Y406848D01*
X329174Y405855D01*
X328945Y404706D01*
X328158Y403919D01*
X326307Y404189D01*
X326300Y404200D01*
X325469Y404754D01*
X324490Y404949D01*
X320809D01*
Y407551D01*
X324490D01*
X325469Y407746D01*
X326300Y408300D01*
X326854Y409131D01*
X327049Y410110D01*
Y415090D01*
X326854Y416069D01*
X326300Y416900D01*
X325469Y417454D01*
X324490Y417649D01*
X313516D01*
X312942Y419035D01*
X313933Y420025D01*
X313933Y420026D01*
X314083Y420251D01*
X324490D01*
X325469Y420446D01*
X326300Y421000D01*
X326854Y421831D01*
X327049Y422810D01*
Y427790D01*
X326854Y428769D01*
X326300Y429600D01*
X325469Y430154D01*
X324490Y430349D01*
X312777D01*
X311675Y431451D01*
X312296Y432951D01*
X324490D01*
X325469Y433146D01*
X326300Y433700D01*
X326854Y434531D01*
X327049Y435510D01*
Y440490D01*
X326854Y441469D01*
X326300Y442300D01*
X325469Y442854D01*
X324490Y443049D01*
X314219D01*
X313003Y444265D01*
X313577Y445651D01*
X324490D01*
X325469Y445846D01*
X326300Y446400D01*
X326854Y447231D01*
X327049Y448210D01*
Y453190D01*
X326854Y454169D01*
X326300Y455000D01*
X325469Y455554D01*
X324490Y455749D01*
X312777D01*
X311675Y456851D01*
X312296Y458351D01*
X324490D01*
X325469Y458546D01*
X326300Y459100D01*
X326854Y459931D01*
X327049Y460910D01*
Y465890D01*
X326854Y466869D01*
X326300Y467700D01*
X325469Y468254D01*
X324490Y468449D01*
X320809D01*
Y471051D01*
X324490D01*
X325469Y471246D01*
X326300Y471800D01*
X326854Y472631D01*
X326936Y473041D01*
X338967D01*
X341561Y470447D01*
D02*
G37*
G36*
X498824Y486182D02*
X498824Y486182D01*
X499816Y485519D01*
X500987Y485286D01*
X500987Y485286D01*
X527029D01*
X527157Y484947D01*
X527279Y483786D01*
X526700Y483400D01*
X526146Y482569D01*
X525951Y481590D01*
Y476610D01*
X526146Y475631D01*
X526700Y474800D01*
X527531Y474246D01*
X528510Y474051D01*
X532191D01*
Y471449D01*
X528510D01*
X527531Y471254D01*
X526700Y470700D01*
X526146Y469869D01*
X525951Y468890D01*
Y463910D01*
X526146Y462931D01*
X526118Y462864D01*
X525774Y462796D01*
X524781Y462133D01*
X522567Y459919D01*
X521904Y458926D01*
X521671Y457756D01*
X521671Y457756D01*
Y441997D01*
X501809Y422135D01*
X500309Y422756D01*
Y477939D01*
X500076Y479110D01*
X499413Y480102D01*
X499413Y480102D01*
X497329Y482186D01*
Y484398D01*
X497096Y485569D01*
X496654Y486231D01*
X497819Y487187D01*
X498824Y486182D01*
D02*
G37*
G36*
X72710Y439041D02*
Y431270D01*
X80000D01*
Y430000D01*
X81270D01*
Y420710D01*
X87290D01*
Y420710D01*
X88250Y421250D01*
X91941D01*
Y416672D01*
X90954Y415685D01*
X89885D01*
X88231Y415000D01*
X86965Y413734D01*
X86280Y412080D01*
Y410290D01*
X86404Y409991D01*
X85570Y408744D01*
X83115D01*
X81945Y408511D01*
X80952Y407848D01*
X75897Y402793D01*
X75234Y401801D01*
X75001Y400630D01*
X75001Y400630D01*
Y400573D01*
X73501Y399645D01*
X72645Y400000D01*
X70855D01*
X69201Y399315D01*
X68445Y398559D01*
X61684D01*
X61684Y398559D01*
X60513Y398326D01*
X59521Y397663D01*
X59521Y397663D01*
X56622Y394764D01*
X49755D01*
X49499Y395020D01*
Y399438D01*
X49266Y400608D01*
X48603Y401601D01*
X48603Y401601D01*
X46559Y403645D01*
Y413315D01*
X46559Y413315D01*
X47073Y413941D01*
X52000D01*
X52000Y413941D01*
X53170Y414174D01*
X54163Y414837D01*
X56076Y416750D01*
X57145D01*
X58799Y417435D01*
X60065Y418701D01*
X60750Y420355D01*
Y422145D01*
X60065Y423799D01*
X58799Y425065D01*
X58500Y425189D01*
X58208Y426660D01*
X71473Y439926D01*
X72710Y439041D01*
D02*
G37*
G36*
X442270Y413210D02*
X446711D01*
Y406118D01*
X446711Y406118D01*
X446944Y404947D01*
X447607Y403955D01*
X448312Y403250D01*
X447691Y401750D01*
X439576D01*
X436663Y404663D01*
X435671Y405326D01*
X434500Y405559D01*
X434500Y405559D01*
X421562D01*
X420988Y406945D01*
X423744Y409701D01*
X429954D01*
X430185Y409655D01*
X430579Y409734D01*
X430980D01*
X431351Y409888D01*
X431745Y409966D01*
X432079Y410189D01*
X432450Y410343D01*
X432734Y410627D01*
X433069Y410850D01*
X433292Y411184D01*
X433576Y411468D01*
X433729Y411839D01*
X433952Y412173D01*
X434031Y412567D01*
X434185Y412938D01*
Y413210D01*
X439730D01*
Y420500D01*
X442270D01*
Y413210D01*
D02*
G37*
G36*
X435000Y397674D02*
Y391248D01*
X434462Y390867D01*
X433500Y390476D01*
X432173Y391026D01*
Y386096D01*
Y380861D01*
X433016Y380017D01*
X433926Y379410D01*
X434460Y379303D01*
Y374710D01*
X440975D01*
X441596Y373210D01*
X441185Y372799D01*
X440500Y371145D01*
Y369355D01*
X441185Y367701D01*
X442451Y366435D01*
X444105Y365750D01*
X445895D01*
X447549Y366435D01*
X448815Y367701D01*
X449469Y369281D01*
X450477Y369482D01*
X451469Y370145D01*
X452883Y371559D01*
X452884Y371559D01*
X453547Y372551D01*
X453779Y373722D01*
X453779Y373722D01*
Y375440D01*
X453829Y375688D01*
Y387691D01*
X495000D01*
X495000Y387691D01*
X496171Y387924D01*
X497163Y388587D01*
X498643Y387946D01*
Y384470D01*
X497884Y383712D01*
X497501Y383636D01*
X496509Y382973D01*
X494277Y380741D01*
X493614Y379749D01*
X493381Y378578D01*
X493381Y378578D01*
Y365422D01*
X493381Y365422D01*
X493614Y364251D01*
X494277Y363259D01*
X495699Y361837D01*
X496691Y361174D01*
X497862Y360941D01*
X497862Y360941D01*
X499363D01*
X500146Y359770D01*
X510168D01*
X510951Y360941D01*
X525081D01*
X525081Y360941D01*
X526252Y361174D01*
X527244Y361837D01*
X527910Y362503D01*
X528309Y362523D01*
X529698Y362169D01*
X530087Y361587D01*
X531259Y360416D01*
X531259Y360416D01*
X532251Y359753D01*
X533422Y359520D01*
X533422Y359520D01*
X534402D01*
X535250Y358671D01*
Y358414D01*
X535935Y356760D01*
X537201Y355494D01*
X537648Y355309D01*
X537349Y353809D01*
X532561D01*
X532561Y353809D01*
X531390Y353576D01*
X530398Y352913D01*
X524196Y346711D01*
X522426Y347063D01*
X522098Y347855D01*
X520680Y349273D01*
X519095Y349929D01*
Y345000D01*
X517825D01*
Y343730D01*
X512896D01*
X513553Y342145D01*
X514970Y340727D01*
X515968Y340314D01*
X516849Y339445D01*
X516900Y338460D01*
X516823Y338071D01*
X516823Y338071D01*
Y337229D01*
X515652Y336446D01*
Y331435D01*
X513111D01*
Y336364D01*
X511527Y335708D01*
X510313Y334494D01*
X508232D01*
X504309Y338417D01*
Y343707D01*
X505500Y344899D01*
X506157Y346484D01*
X501227D01*
Y349024D01*
X506823D01*
X507320Y349520D01*
X507320Y349520D01*
X507983Y350513D01*
X508216Y351683D01*
X508216Y351683D01*
Y354431D01*
X509430Y355645D01*
X510086Y357230D01*
X500228D01*
X500884Y355645D01*
X502085Y354445D01*
Y352937D01*
X501942Y352794D01*
X500225D01*
X500033Y352714D01*
X498786Y353548D01*
Y354051D01*
X498554Y355221D01*
X497890Y356213D01*
X497890Y356213D01*
X490263Y363841D01*
X489271Y364504D01*
X488100Y364737D01*
X488100Y364737D01*
X451946D01*
X450775Y364504D01*
X449783Y363841D01*
X435001Y349059D01*
X410465D01*
X409503Y350021D01*
Y350478D01*
X408818Y352132D01*
X408521Y352429D01*
X409142Y353929D01*
X411488D01*
Y365000D01*
X414028D01*
Y353929D01*
X421071D01*
Y359634D01*
X422571Y360637D01*
X422730Y360571D01*
Y365500D01*
X424000D01*
Y366770D01*
X428929D01*
X428273Y368355D01*
X426855Y369773D01*
X426804Y369794D01*
Y371443D01*
X426590Y372516D01*
X426037Y373344D01*
Y376044D01*
X426733Y376740D01*
X427340Y377649D01*
X427554Y378722D01*
Y380405D01*
X429054Y381407D01*
X429632Y381167D01*
Y386096D01*
Y391026D01*
X428048Y390369D01*
X426630Y388951D01*
X426539Y388732D01*
X424750D01*
X423677Y388518D01*
X422767Y387910D01*
X422325Y387248D01*
X422036Y387086D01*
X421292Y386887D01*
X420589Y386796D01*
X420077Y387138D01*
X418974Y387357D01*
X413026D01*
X411923Y387138D01*
X410988Y386514D01*
X410364Y385579D01*
X410145Y384477D01*
Y383383D01*
X408390D01*
X408390Y383383D01*
X407219Y383150D01*
X406227Y382487D01*
X397594Y373854D01*
X396094Y374475D01*
Y382576D01*
X408759Y395241D01*
X410145Y394667D01*
Y393523D01*
X410364Y392421D01*
X410988Y391487D01*
X411923Y390862D01*
X413026Y390643D01*
X418974D01*
X420077Y390862D01*
X421012Y391487D01*
X421636Y392421D01*
X421855Y393523D01*
Y398476D01*
X422647Y399441D01*
X433233D01*
X435000Y397674D01*
D02*
G37*
G36*
X134607Y393154D02*
X134500Y392895D01*
Y391105D01*
X135185Y389451D01*
X136451Y388185D01*
X137488Y387756D01*
X137544Y387540D01*
X136997Y386040D01*
X135145Y385273D01*
X134431Y384559D01*
X132767D01*
X132596Y384730D01*
X122071D01*
X122727Y383145D01*
X124145Y381727D01*
X125997Y380960D01*
X126687D01*
X127505Y380051D01*
X127782Y378663D01*
X127782Y378663D01*
X116374Y367255D01*
X114874Y367876D01*
Y369642D01*
X118928Y373697D01*
X118928Y373697D01*
X119591Y374689D01*
X119824Y375860D01*
X119824Y375860D01*
Y377964D01*
X119824Y377964D01*
X119591Y379134D01*
X118928Y380127D01*
X118928Y380127D01*
X111884Y387171D01*
X111894Y387384D01*
X112363Y388671D01*
X116795D01*
X116795Y388671D01*
X117966Y388904D01*
X118958Y389567D01*
X124045Y394655D01*
X133605D01*
X134607Y393154D01*
D02*
G37*
G36*
X147422Y361599D02*
X142859Y357037D01*
X141975Y355714D01*
X141665Y354153D01*
X141665Y354153D01*
Y345426D01*
X140268Y345104D01*
X140165Y345103D01*
X138917Y346351D01*
X137263Y347036D01*
X135473D01*
X133819Y346351D01*
X132553Y345085D01*
X131868Y343431D01*
Y342361D01*
X124935Y335429D01*
X124092D01*
X124092Y335429D01*
X122921Y335196D01*
X121929Y334533D01*
X121929Y334533D01*
X112337Y324941D01*
X111674Y323949D01*
X111441Y322778D01*
X111441Y322778D01*
Y315053D01*
X110118Y314345D01*
X109869Y314512D01*
X109270Y314631D01*
Y305000D01*
X106730D01*
Y314631D01*
X106131Y314512D01*
X104547Y313453D01*
X103488Y311869D01*
X103116Y310000D01*
Y307918D01*
X101730Y307344D01*
X98258Y310817D01*
X97266Y311480D01*
X96095Y311712D01*
X96095Y311712D01*
X90749D01*
X89966Y312884D01*
X84955D01*
Y315424D01*
X89884D01*
X89804Y315616D01*
X90806Y317116D01*
X96000D01*
X97869Y317488D01*
X99453Y318547D01*
X100512Y320131D01*
X100631Y320730D01*
X91000D01*
Y323270D01*
X100631D01*
X100512Y323869D01*
X100345Y324118D01*
X101053Y325441D01*
X104834D01*
X104834Y325441D01*
X106005Y325674D01*
X106997Y326337D01*
X114380Y333720D01*
X115043Y334712D01*
X115276Y335883D01*
Y336504D01*
X116792Y338019D01*
X117195D01*
X118849Y338705D01*
X120115Y339970D01*
X120800Y341624D01*
Y343415D01*
X120336Y344536D01*
X121108Y346036D01*
X121585D01*
X121585Y346036D01*
X122756Y346269D01*
X123748Y346932D01*
X127128Y350312D01*
X127128Y350312D01*
X127791Y351304D01*
X128024Y352475D01*
X128126Y353299D01*
X129663Y353508D01*
X130254Y352082D01*
X131671Y350664D01*
X133256Y350008D01*
Y354937D01*
X134526D01*
Y356207D01*
X139455D01*
X138799Y357792D01*
X137381Y359210D01*
X136258Y359675D01*
X136794Y361061D01*
X138584D01*
X140238Y361746D01*
X141504Y363012D01*
X142189Y364666D01*
Y366456D01*
X141504Y368110D01*
X140909Y368705D01*
X141090Y369616D01*
X142356Y370881D01*
X143041Y372535D01*
Y374325D01*
X142356Y375979D01*
X141232Y377104D01*
X142273Y378145D01*
X142929Y379730D01*
X138000D01*
Y382270D01*
X142929D01*
X142309Y383767D01*
X142329Y383907D01*
X142407Y384097D01*
X143028Y385220D01*
X147422D01*
Y361599D01*
D02*
G37*
G36*
X546191Y348628D02*
Y285017D01*
X544379Y283204D01*
X542996Y283943D01*
X543049Y284210D01*
Y289190D01*
X542854Y290169D01*
X542300Y291000D01*
X541469Y291554D01*
X540490Y291749D01*
X529432D01*
X528669Y293249D01*
X529070Y293800D01*
X532480D01*
Y299400D01*
Y305000D01*
X529983D01*
X529219Y306500D01*
X529621Y307051D01*
X540490D01*
X541469Y307246D01*
X542300Y307800D01*
X542854Y308631D01*
X543049Y309610D01*
Y314590D01*
X542854Y315569D01*
X542300Y316400D01*
X541469Y316954D01*
X540490Y317149D01*
X529196D01*
X528575Y318649D01*
X529677Y319751D01*
X540490D01*
X541469Y319946D01*
X542300Y320500D01*
X542854Y321331D01*
X543049Y322310D01*
Y327290D01*
X542854Y328269D01*
X542300Y329100D01*
X541469Y329654D01*
X540490Y329849D01*
X537309D01*
Y332451D01*
X540490D01*
X541469Y332646D01*
X542300Y333200D01*
X542854Y334031D01*
X543049Y335010D01*
Y339990D01*
X542854Y340969D01*
X542300Y341800D01*
X541469Y342354D01*
X540490Y342549D01*
X530645D01*
X530071Y343935D01*
X533828Y347691D01*
X542028D01*
X542028Y347691D01*
X543199Y347924D01*
X544191Y348587D01*
X544805Y349202D01*
X546191Y348628D01*
D02*
G37*
G36*
X311989Y355270D02*
X317000D01*
Y352730D01*
X312071D01*
X312727Y351145D01*
X314145Y349727D01*
X314196Y349706D01*
Y344804D01*
X308540D01*
Y345290D01*
X302270D01*
Y338000D01*
X299730D01*
Y345290D01*
X293460D01*
Y341059D01*
X283861D01*
X283861Y341059D01*
X282691Y340826D01*
X281698Y340163D01*
X281698Y340163D01*
X280241Y338706D01*
X278855Y339280D01*
Y340476D01*
X278636Y341579D01*
X278012Y342514D01*
X277077Y343138D01*
X275975Y343357D01*
X274475D01*
X273674Y344857D01*
X273687Y344877D01*
X289350D01*
X289350Y344877D01*
X290520Y345110D01*
X291513Y345773D01*
X302181Y356441D01*
X311206D01*
X311989Y355270D01*
D02*
G37*
G36*
X469951Y338223D02*
Y335010D01*
X470146Y334031D01*
X470700Y333200D01*
X471531Y332646D01*
X472510Y332451D01*
X476691D01*
Y329849D01*
X472510D01*
X471531Y329654D01*
X470700Y329100D01*
X470146Y328269D01*
X469951Y327290D01*
Y322310D01*
X470146Y321331D01*
X470700Y320500D01*
X471531Y319946D01*
X472510Y319751D01*
X485990D01*
X486419Y319409D01*
Y318472D01*
X485060Y317149D01*
X472510D01*
X471531Y316954D01*
X470700Y316400D01*
X470146Y315569D01*
X469984Y314759D01*
X457000D01*
Y320710D01*
X457540D01*
Y326730D01*
X450000D01*
X442460D01*
Y320710D01*
X443000D01*
Y318059D01*
X429739D01*
X429636Y318579D01*
X429012Y319513D01*
X428077Y320138D01*
X426974Y320357D01*
X421026D01*
X419923Y320138D01*
X418988Y319513D01*
X418364Y318579D01*
X418145Y317477D01*
Y312523D01*
X418364Y311421D01*
X418988Y310486D01*
X419923Y309862D01*
X421026Y309643D01*
X426974D01*
X428077Y309862D01*
X429012Y310486D01*
X429212Y310786D01*
X429416Y310805D01*
X430094Y309362D01*
X426946Y306214D01*
X413803D01*
X409236Y310781D01*
X408815Y311799D01*
X407549Y313065D01*
X405895Y313750D01*
X404105D01*
X403146Y313353D01*
X401646Y314220D01*
Y320820D01*
X406767Y325941D01*
X418260D01*
X418364Y325421D01*
X418988Y324487D01*
X419923Y323862D01*
X421026Y323643D01*
X426974D01*
X428077Y323862D01*
X429012Y324487D01*
X429636Y325421D01*
X429855Y326524D01*
Y331477D01*
X429636Y332579D01*
X429012Y333514D01*
X428372Y333941D01*
X428629Y335441D01*
X441023D01*
X441791Y335360D01*
X442460Y334053D01*
Y329270D01*
X450000D01*
X457540D01*
Y330964D01*
X462036Y335460D01*
X462982D01*
X464835Y336227D01*
X466253Y337645D01*
X466884Y339169D01*
X467970Y339597D01*
X468520Y339654D01*
X469951Y338223D01*
D02*
G37*
G36*
X400129Y350642D02*
X400503Y350334D01*
Y348688D01*
X401188Y347034D01*
X402454Y345768D01*
X404108Y345083D01*
X405790D01*
X407035Y343837D01*
X407035Y343837D01*
X408028Y343174D01*
X408855Y343010D01*
Y341480D01*
X408079Y341326D01*
X407087Y340663D01*
X407087Y340663D01*
X392424Y326000D01*
X391761Y325008D01*
X391528Y323837D01*
X391528Y323837D01*
Y306146D01*
X390028Y305393D01*
X389549Y305750D01*
Y308190D01*
X389354Y309169D01*
X388800Y310000D01*
X387969Y310554D01*
X386990Y310749D01*
X373510D01*
X372531Y310554D01*
X371700Y310000D01*
X371146Y309169D01*
X370951Y308190D01*
Y303210D01*
X371146Y302231D01*
X371700Y301400D01*
X372531Y300846D01*
X373510Y300651D01*
X384379D01*
X384781Y300100D01*
X384017Y298600D01*
X381520D01*
Y293000D01*
Y287400D01*
X386990D01*
X388180Y287637D01*
X389189Y288311D01*
X389863Y289320D01*
X390100Y290510D01*
Y293653D01*
X391600Y294275D01*
X397691Y288183D01*
Y269960D01*
X396444Y269126D01*
X396145Y269250D01*
X394355D01*
X394291Y269223D01*
X393751Y269763D01*
X392759Y270426D01*
X391588Y270659D01*
X391588Y270659D01*
X389436D01*
X389354Y271069D01*
X388800Y271900D01*
X387969Y272454D01*
X386990Y272649D01*
X374796D01*
X374175Y274149D01*
X375277Y275251D01*
X386990D01*
X387969Y275446D01*
X388800Y276000D01*
X389354Y276831D01*
X389549Y277810D01*
Y282790D01*
X389354Y283769D01*
X388800Y284600D01*
X387969Y285154D01*
X386990Y285349D01*
X375932D01*
X375169Y286849D01*
X375570Y287400D01*
X378980D01*
Y291730D01*
X370400D01*
Y291726D01*
X365302Y286628D01*
X363920Y287367D01*
X364059Y288065D01*
X364059Y288065D01*
Y306048D01*
X371913Y313902D01*
X371913Y313902D01*
X371939Y313941D01*
X372531Y313546D01*
X373510Y313351D01*
X386990D01*
X387969Y313546D01*
X388800Y314100D01*
X389354Y314931D01*
X389549Y315910D01*
Y320890D01*
X389354Y321869D01*
X388800Y322700D01*
X387969Y323254D01*
X386990Y323449D01*
X383309D01*
Y326051D01*
X386990D01*
X387969Y326246D01*
X388800Y326800D01*
X389354Y327631D01*
X389549Y328610D01*
Y331823D01*
X392339Y334613D01*
X392339Y334613D01*
X392731Y335200D01*
X393299Y335435D01*
X394565Y336701D01*
X395250Y338355D01*
Y340145D01*
X394565Y341799D01*
X393299Y343065D01*
X393000Y343189D01*
X392707Y344660D01*
X399129Y351082D01*
X400129Y350642D01*
D02*
G37*
G36*
X495087Y330573D02*
X513824Y311837D01*
X513824Y311837D01*
X514816Y311174D01*
X515987Y310941D01*
X515987Y310941D01*
X521214D01*
X521214Y310941D01*
X522062Y311110D01*
X522876Y310037D01*
X522947Y309872D01*
X514629Y301554D01*
X513966Y300562D01*
X513733Y299391D01*
X513733Y299391D01*
Y299124D01*
X513668Y299097D01*
X512403Y297832D01*
X511717Y296178D01*
Y296079D01*
X510257Y295982D01*
X509490Y297835D01*
X508072Y299253D01*
X506488Y299909D01*
Y294980D01*
X505218D01*
Y293710D01*
X500288D01*
X500945Y292125D01*
X502363Y290707D01*
X503246Y290341D01*
X502948Y288841D01*
X497670D01*
X496500Y288608D01*
X495508Y287945D01*
X495508Y287945D01*
X488647Y281085D01*
X487984Y280093D01*
X487964Y279994D01*
X487057Y278955D01*
X486280Y278992D01*
X485990Y279049D01*
X474277D01*
X473175Y280151D01*
X473796Y281651D01*
X485990D01*
X486969Y281846D01*
X487800Y282400D01*
X488354Y283231D01*
X488549Y284210D01*
Y289190D01*
X488354Y290169D01*
X487800Y291000D01*
X486969Y291554D01*
X485990Y291749D01*
X474277D01*
X473175Y292851D01*
X473796Y294351D01*
X485990D01*
X486969Y294546D01*
X487800Y295100D01*
X488354Y295931D01*
X488549Y296910D01*
Y301890D01*
X488354Y302869D01*
X487800Y303700D01*
X486969Y304254D01*
X485990Y304449D01*
X472510D01*
X471531Y304254D01*
X470937Y303858D01*
X446036D01*
X445282Y304985D01*
X443518Y306750D01*
X444139Y308250D01*
X457000D01*
Y308641D01*
X470144D01*
X470146Y308631D01*
X470700Y307800D01*
X471531Y307246D01*
X472510Y307051D01*
X485990D01*
X486969Y307246D01*
X487800Y307800D01*
X488354Y308631D01*
X489841Y308416D01*
X490000Y308355D01*
X490685Y306701D01*
X491951Y305435D01*
X493605Y304750D01*
X495395D01*
X497049Y305435D01*
X498315Y306701D01*
X499000Y308355D01*
Y310145D01*
X498315Y311799D01*
X497049Y313065D01*
X495395Y313750D01*
X494326D01*
X493559Y314517D01*
Y330161D01*
X495059Y330616D01*
X495087Y330573D01*
D02*
G37*
G36*
X294000Y318250D02*
X297941D01*
Y314750D01*
X297941Y314750D01*
X298174Y313580D01*
X298837Y312587D01*
X304249Y307176D01*
X303674Y305790D01*
X302270D01*
Y298500D01*
X299730D01*
Y305790D01*
X293460D01*
Y305309D01*
X285156D01*
X273208Y317257D01*
X273782Y318643D01*
X275975D01*
X277077Y318862D01*
X278012Y319486D01*
X278636Y320421D01*
X278739Y320941D01*
X294000D01*
Y318250D01*
D02*
G37*
G36*
X194632Y305070D02*
Y287172D01*
X194632Y287172D01*
X194804Y286309D01*
X194237Y285258D01*
X193858Y284809D01*
X187750D01*
X186579Y284576D01*
X185587Y283913D01*
X175983Y274309D01*
X170540D01*
Y279980D01*
X163250D01*
Y282520D01*
X170540D01*
Y288790D01*
X170119D01*
X169151Y290290D01*
X169448Y291007D01*
X164519D01*
Y293547D01*
X169448D01*
X169079Y294438D01*
X169786Y296098D01*
X170715Y296415D01*
X171342Y295997D01*
X173000Y295667D01*
X174658Y295997D01*
X175316Y296436D01*
X176816Y295634D01*
Y293680D01*
X176435Y293299D01*
X175750Y291645D01*
Y289855D01*
X176435Y288201D01*
X177701Y286935D01*
X179355Y286250D01*
X181145D01*
X182799Y286935D01*
X184065Y288201D01*
X184750Y289855D01*
Y291645D01*
X184065Y293299D01*
X183538Y293826D01*
X183636Y294845D01*
X185085Y295849D01*
X186000Y295667D01*
X187658Y295997D01*
X189064Y296936D01*
X190003Y298342D01*
X190333Y300000D01*
Y307409D01*
X191719Y307983D01*
X194632Y305070D01*
D02*
G37*
G36*
X191835Y369441D02*
X188866Y366473D01*
X187982Y365150D01*
X187672Y363589D01*
X187672Y363589D01*
Y358411D01*
X187672Y358411D01*
X187982Y356851D01*
X188866Y355527D01*
X192154Y352240D01*
X192274Y351909D01*
Y350591D01*
X192154Y350260D01*
X188866Y346973D01*
X187982Y345649D01*
X187672Y344089D01*
X187672Y344089D01*
Y338911D01*
X187672Y338911D01*
X187982Y337351D01*
X188866Y336027D01*
X192682Y332212D01*
X193292Y331804D01*
X193951Y330265D01*
X193928Y329814D01*
X193667Y328500D01*
X193997Y326842D01*
X194808Y325628D01*
X194547Y325453D01*
X193488Y323869D01*
X193369Y323270D01*
X203000D01*
Y322000D01*
X204270D01*
Y316404D01*
X205316Y315358D01*
Y295444D01*
X204727Y294855D01*
X204071Y293270D01*
X209000D01*
Y290730D01*
X204071D01*
X204142Y290559D01*
X203139Y289059D01*
X200750D01*
Y306337D01*
X200517Y307507D01*
X199854Y308500D01*
X199854Y308500D01*
X187263Y321091D01*
X187315Y321353D01*
X188733Y322771D01*
X189389Y324356D01*
X184460D01*
Y325626D01*
X183190D01*
Y330555D01*
X181605Y329898D01*
X180793Y329087D01*
X179027Y328961D01*
X179049Y330435D01*
X180315Y331701D01*
X181000Y333355D01*
Y334424D01*
X183913Y337337D01*
X183913Y337337D01*
X184576Y338329D01*
X184809Y339500D01*
X184809Y339500D01*
Y366499D01*
X189251Y370941D01*
X191213D01*
X191835Y369441D01*
D02*
G37*
G36*
X464355Y281500D02*
X464612D01*
X465560Y280553D01*
Y280176D01*
X465793Y279006D01*
X466455Y278013D01*
X467075Y277599D01*
X469951Y274723D01*
Y271510D01*
X470146Y270531D01*
X470700Y269700D01*
X471531Y269146D01*
X472510Y268951D01*
X476691D01*
Y266349D01*
X472510D01*
X471531Y266154D01*
X470700Y265600D01*
X470146Y264769D01*
X469951Y263790D01*
Y258810D01*
X470019Y258465D01*
X469920Y256916D01*
X468927Y256253D01*
X468927Y256253D01*
X468434Y255760D01*
X466963Y256052D01*
X466884Y256244D01*
X465466Y257662D01*
X463881Y258318D01*
Y253389D01*
X461341D01*
Y258318D01*
X460040Y257779D01*
X458540Y258290D01*
Y258290D01*
X454059D01*
Y263500D01*
X454059Y263500D01*
X453826Y264671D01*
X453163Y265663D01*
X453163Y265663D01*
X449962Y268864D01*
X450536Y270250D01*
X458750D01*
Y279342D01*
X459163Y279424D01*
X460155Y280087D01*
X461417Y281348D01*
X462701Y282185D01*
X464355Y281500D01*
D02*
G37*
G36*
X294094Y274087D02*
X294095Y274087D01*
X295087Y273424D01*
X296257Y273191D01*
X296257Y273191D01*
X305448D01*
X305837Y272609D01*
X307009Y271437D01*
X307009Y271437D01*
X308001Y270774D01*
X309172Y270541D01*
X309172Y270541D01*
X316080D01*
X316451Y270090D01*
Y265110D01*
X316646Y264131D01*
X317200Y263300D01*
X318031Y262746D01*
X319010Y262551D01*
X322691D01*
Y259949D01*
X319010D01*
X318031Y259754D01*
X317200Y259200D01*
X316646Y258369D01*
X316451Y257390D01*
Y256048D01*
X314951Y255427D01*
X314855Y255523D01*
X313270Y256179D01*
Y251250D01*
X310730D01*
Y256179D01*
X309145Y255523D01*
X309040Y255418D01*
X307540Y256039D01*
Y259230D01*
X300000D01*
Y260500D01*
X298730D01*
Y267790D01*
X296675D01*
X290054Y274411D01*
Y276006D01*
X291230Y276600D01*
X291554Y276628D01*
X294094Y274087D01*
D02*
G37*
G36*
X202831Y257091D02*
X202441Y256150D01*
X207370D01*
Y253610D01*
X202441D01*
X202463Y253556D01*
X201630Y252309D01*
X139944D01*
X135162Y257091D01*
X135783Y258591D01*
X201994D01*
X202831Y257091D01*
D02*
G37*
G36*
X447941Y262233D02*
Y258290D01*
X443460D01*
Y252270D01*
X451000D01*
Y249730D01*
X443460D01*
Y243710D01*
X444000D01*
Y240059D01*
X431740D01*
X431636Y240579D01*
X431012Y241514D01*
X430077Y242138D01*
X428974Y242357D01*
X423306D01*
X422845Y243030D01*
X422637Y243810D01*
X424470Y245643D01*
X428974D01*
X430077Y245862D01*
X431012Y246486D01*
X431636Y247421D01*
X431855Y248524D01*
Y251221D01*
X433355Y251843D01*
X433451Y251747D01*
X435105Y251062D01*
X436895D01*
X438549Y251747D01*
X439815Y253013D01*
X440500Y254667D01*
Y256457D01*
X440078Y257475D01*
Y262561D01*
X440384Y262866D01*
X440384Y262866D01*
X440818Y263516D01*
X441315Y264013D01*
X442000Y265667D01*
Y266053D01*
X443500Y266674D01*
X447941Y262233D01*
D02*
G37*
G36*
X71676Y298000D02*
X71520Y297271D01*
X71142Y296412D01*
X69701Y295815D01*
X68435Y294549D01*
X67750Y292895D01*
Y291105D01*
X68435Y289451D01*
X69701Y288185D01*
X69867Y288116D01*
X70035Y287870D01*
X70473Y286242D01*
X70071Y285270D01*
X75000D01*
Y284000D01*
X76270D01*
Y278404D01*
X82997Y271678D01*
Y263235D01*
X81783Y262021D01*
X81126Y260436D01*
X90985D01*
X90328Y262021D01*
X89114Y263235D01*
Y272217D01*
X90614Y272838D01*
X114168Y249285D01*
X113594Y247899D01*
X111175D01*
X105351Y253723D01*
X104358Y254386D01*
X103188Y254619D01*
X103188Y254619D01*
X90757D01*
X90136Y256119D01*
X90328Y256311D01*
X90985Y257896D01*
X81126D01*
X81783Y256311D01*
X81975Y256119D01*
X81354Y254619D01*
X80435D01*
X80435Y254619D01*
X79265Y254386D01*
X78273Y253723D01*
X78273Y253723D01*
X74174Y249625D01*
X73105D01*
X72328Y249303D01*
X70828Y250277D01*
Y264323D01*
X70518Y265883D01*
X69634Y267206D01*
X69634Y267206D01*
X60828Y276012D01*
Y306887D01*
X62214Y307461D01*
X71676Y298000D01*
D02*
G37*
G36*
X481971Y250806D02*
X482753Y249531D01*
X482643Y248974D01*
Y243025D01*
X482862Y241923D01*
X483486Y240988D01*
X484421Y240364D01*
X484941Y240261D01*
Y236750D01*
X484941Y236750D01*
X485174Y235579D01*
X485837Y234587D01*
X490087Y230337D01*
X491079Y229674D01*
X492250Y229441D01*
X492250Y229441D01*
X511578D01*
X511578Y229441D01*
X512749Y229674D01*
X513741Y230337D01*
X514913Y231509D01*
X514913Y231509D01*
X515576Y232501D01*
X515809Y233672D01*
X515809Y233672D01*
Y239000D01*
X521210D01*
Y238460D01*
X521691D01*
Y234048D01*
X507087Y219444D01*
X506424Y218451D01*
X506191Y217281D01*
X506191Y217281D01*
Y211319D01*
X504977Y210105D01*
X504321Y208520D01*
X509250D01*
Y205980D01*
X504239D01*
X503456Y204809D01*
X478200D01*
X478200Y204809D01*
X477029Y204576D01*
X476037Y203913D01*
X475886Y203762D01*
X475661Y203817D01*
X474500Y204497D01*
Y205895D01*
X473815Y207549D01*
X472549Y208815D01*
X470895Y209500D01*
X469826D01*
X462992Y216334D01*
X462000Y216997D01*
X460829Y217230D01*
X460829Y217230D01*
X454955D01*
X454604Y218489D01*
X454594Y218730D01*
X455815Y219951D01*
X456500Y221605D01*
Y223395D01*
X455815Y225049D01*
X455173Y225691D01*
X455794Y227191D01*
X458748D01*
X458748Y227191D01*
X459919Y227424D01*
X460911Y228087D01*
X472968Y240145D01*
X476476D01*
X477579Y240364D01*
X478513Y240988D01*
X479138Y241923D01*
X479357Y243025D01*
Y248974D01*
X479246Y249531D01*
X480029Y250806D01*
X480304Y251031D01*
X481696D01*
X481971Y250806D01*
D02*
G37*
G36*
X268615Y201087D02*
X268615Y201087D01*
X269608Y200424D01*
X270778Y200191D01*
X288686D01*
X289519Y198944D01*
X289518Y198941D01*
X294447D01*
Y197671D01*
X295717D01*
Y192308D01*
X316755Y171270D01*
X327994D01*
Y168730D01*
X317062D01*
X317245Y167808D01*
X318487Y165949D01*
X318896Y165675D01*
Y164175D01*
X318876Y164162D01*
X317754Y162482D01*
X317359Y160500D01*
X317754Y158518D01*
X318876Y156838D01*
X320556Y155716D01*
X322538Y155321D01*
X324936D01*
Y146790D01*
X323436Y146168D01*
X315160Y154444D01*
Y157649D01*
X315160Y157649D01*
X314927Y158819D01*
X314264Y159812D01*
X314264Y159812D01*
X291750Y182326D01*
Y191710D01*
X292894Y192859D01*
X293177Y192742D01*
Y196401D01*
X289518D01*
X290175Y194816D01*
X291491Y193500D01*
X291445Y193019D01*
X291049Y192000D01*
X265250D01*
Y178000D01*
X265250D01*
X265238Y176505D01*
X258040Y169307D01*
X255459D01*
X253899Y168997D01*
X252575Y168113D01*
X252575Y168113D01*
X244187Y159725D01*
X243303Y158402D01*
X242993Y156841D01*
X242993Y156841D01*
Y154270D01*
X229078D01*
Y156727D01*
X233281Y160929D01*
X234299Y161351D01*
X235565Y162617D01*
X236250Y164271D01*
Y165020D01*
X236401Y165196D01*
X237750Y165899D01*
X238855Y165441D01*
X240645D01*
X242299Y166126D01*
X243565Y167392D01*
X244250Y169046D01*
Y170836D01*
X243565Y172490D01*
X242809Y173246D01*
Y188040D01*
X242804Y188063D01*
X242937Y188261D01*
X243170Y189432D01*
X243170Y189432D01*
Y191806D01*
X243926Y192562D01*
X244611Y194216D01*
Y196006D01*
X243926Y197660D01*
X242660Y198926D01*
X241006Y199611D01*
X239216D01*
X237562Y198926D01*
X236296Y197660D01*
X236137Y197275D01*
X234513D01*
X234273Y197855D01*
X233392Y198736D01*
X240081Y205425D01*
X240081Y205425D01*
X244310Y209654D01*
Y215250D01*
X245580D01*
Y216520D01*
X251102D01*
X251940Y216985D01*
X252658Y217044D01*
X268615Y201087D01*
D02*
G37*
G36*
X363034Y175314D02*
X363312Y174901D01*
X363936Y173395D01*
X365354Y171977D01*
X366075Y171679D01*
Y170857D01*
X366288Y169784D01*
X366896Y168874D01*
X367775Y167996D01*
X368684Y167388D01*
X369757Y167175D01*
X370169D01*
Y166260D01*
X377000D01*
Y163720D01*
X370169D01*
Y158169D01*
X374196D01*
Y151279D01*
X374410Y150206D01*
X375017Y149296D01*
X378568Y145745D01*
X378508Y145016D01*
X377645Y143750D01*
X375855D01*
X374201Y143065D01*
X372935Y141799D01*
X372514Y140781D01*
X370956Y139224D01*
X369291D01*
X369291Y139224D01*
X367731Y138913D01*
X366407Y138029D01*
X366407Y138029D01*
X362877Y134499D01*
X361993Y133176D01*
X361682Y131615D01*
X361683Y131615D01*
Y108291D01*
X341709D01*
X340809Y109418D01*
Y135087D01*
X340809Y135087D01*
X340576Y136257D01*
X339913Y137250D01*
X339913Y137250D01*
X331053Y146109D01*
Y155321D01*
X333451D01*
X335433Y155716D01*
X337113Y156838D01*
X337687Y157698D01*
X338644Y158337D01*
X340001Y159694D01*
X341629Y159201D01*
X341765Y158518D01*
X342887Y156838D01*
X344567Y155716D01*
X346549Y155321D01*
X357462D01*
X359444Y155716D01*
X361124Y156838D01*
X362246Y158518D01*
X362641Y160500D01*
X362246Y162482D01*
X361124Y164162D01*
X359444Y165284D01*
X357462Y165679D01*
X346549D01*
X346406Y165650D01*
X345059Y166912D01*
Y171777D01*
X344826Y172947D01*
X344682Y173163D01*
X344872Y173701D01*
X345583Y174513D01*
X346549Y174321D01*
X357462D01*
X359444Y174716D01*
X361124Y175838D01*
X361153Y175882D01*
X361669Y175985D01*
X363034Y175314D01*
D02*
G37*
G36*
X145624Y224944D02*
X145500Y224645D01*
Y222855D01*
X146185Y221201D01*
X147451Y219935D01*
X149105Y219250D01*
X150895D01*
X152549Y219935D01*
X153305Y220691D01*
X196124D01*
X200228Y216587D01*
X201220Y215924D01*
X202390Y215691D01*
X202391Y215691D01*
X239268D01*
X239268Y215691D01*
X239473Y215505D01*
X239543Y213539D01*
X235755Y209751D01*
X235755Y209751D01*
X227391Y201387D01*
X226728Y200395D01*
X226495Y199224D01*
X226495Y199224D01*
Y198623D01*
X225727Y197855D01*
X225071Y196270D01*
X230000D01*
Y195000D01*
X231270D01*
Y190071D01*
X232855Y190727D01*
X234273Y192145D01*
X234559Y192836D01*
X236182D01*
X236296Y192562D01*
X237052Y191806D01*
Y190662D01*
X236464Y189781D01*
X236231Y188611D01*
X236231Y188611D01*
Y188500D01*
X236231Y188500D01*
X236464Y187329D01*
X236691Y186989D01*
Y173246D01*
X235935Y172490D01*
X235540Y171536D01*
X234040Y171835D01*
Y175730D01*
X225500D01*
X216960D01*
Y168460D01*
X216960D01*
X216769Y167039D01*
X190000D01*
X189220Y166884D01*
X188558Y166442D01*
X188116Y165780D01*
X187961Y165000D01*
Y163627D01*
X186461Y163104D01*
X185468Y163768D01*
X184250Y164010D01*
Y173674D01*
X184517Y173941D01*
X196500D01*
Y169000D01*
X212500D01*
Y185000D01*
X196500D01*
Y180059D01*
X183250D01*
X182079Y179826D01*
X181087Y179163D01*
X179924Y178000D01*
X166578D01*
Y190959D01*
X166268Y192520D01*
X165384Y193843D01*
X165384Y193843D01*
X161033Y198194D01*
X159710Y199078D01*
X158149Y199388D01*
X158149Y199388D01*
X135252D01*
X132783Y201857D01*
Y220022D01*
X132783Y220022D01*
X132473Y221583D01*
X131589Y222906D01*
X129731Y224764D01*
X130091Y225766D01*
X130425Y226191D01*
X144790D01*
X145624Y224944D01*
D02*
G37*
G36*
X265645Y163256D02*
X265622Y163143D01*
X265622Y163143D01*
Y135452D01*
X264122Y134742D01*
X262895Y135250D01*
X261105D01*
X259451Y134565D01*
X258185Y133299D01*
X258140Y133189D01*
X257540Y132913D01*
X256623Y133500D01*
X225000D01*
Y136040D01*
X256040D01*
Y154810D01*
X252929D01*
X252308Y156310D01*
X257148Y161151D01*
X259729D01*
X259729Y161151D01*
X261290Y161461D01*
X262613Y162345D01*
X264262Y163995D01*
X265645Y163256D01*
D02*
G37*
G36*
X558441Y218639D02*
Y103901D01*
X558441Y103901D01*
X558674Y102730D01*
X559337Y101738D01*
X564009Y97066D01*
X564009Y97066D01*
X565001Y96403D01*
X566172Y96171D01*
X566172Y96171D01*
X572715D01*
X573718Y94670D01*
X573500Y94145D01*
Y92355D01*
X574185Y90701D01*
X575441Y89445D01*
Y81701D01*
X545334Y51594D01*
X543565Y51946D01*
X543315Y52549D01*
X542049Y53815D01*
X540395Y54500D01*
X538605D01*
X536951Y53815D01*
X535685Y52549D01*
X535263Y51531D01*
X517811Y34078D01*
X473522D01*
X472901Y35578D01*
X475163Y37840D01*
X475163Y37840D01*
X475826Y38832D01*
X476059Y40003D01*
X476059Y40003D01*
Y185810D01*
X477230Y186593D01*
Y191604D01*
X479770D01*
Y186675D01*
X481355Y187331D01*
X482569Y188545D01*
X484021D01*
X484021Y188545D01*
X484320Y188605D01*
X503941Y168983D01*
Y165799D01*
X502727Y164585D01*
X501960Y162733D01*
Y161016D01*
X501753Y160809D01*
X494819D01*
X493605Y162023D01*
X492020Y162679D01*
Y157750D01*
Y152821D01*
X493605Y153477D01*
X494819Y154691D01*
X503020D01*
X503020Y154691D01*
X504190Y154924D01*
X505183Y155587D01*
X505730Y156134D01*
Y161730D01*
X508270D01*
Y156801D01*
X509855Y157457D01*
X511273Y158875D01*
X511441Y159282D01*
X512941Y158984D01*
Y127305D01*
X512185Y126549D01*
X511500Y124895D01*
Y123105D01*
X512185Y121451D01*
X513451Y120185D01*
X515105Y119500D01*
X516895D01*
X518549Y120185D01*
X519815Y121451D01*
X520500Y123105D01*
Y124895D01*
X519815Y126549D01*
X519059Y127305D01*
Y180111D01*
X556163Y217215D01*
X556163Y217215D01*
X556826Y218207D01*
X556941Y218787D01*
X558441Y218639D01*
D02*
G37*
G36*
X224431Y163614D02*
X222116Y161300D01*
X221232Y159977D01*
X220922Y158416D01*
X220922Y158416D01*
Y154810D01*
X194562D01*
X193960Y154810D01*
X192935Y155885D01*
X192913Y155997D01*
X192029Y157320D01*
X192029Y157320D01*
X190000Y159349D01*
Y165000D01*
X223857D01*
X224431Y163614D01*
D02*
G37*
G36*
X377446Y132219D02*
Y126386D01*
X377660Y125313D01*
X378267Y124404D01*
X380196Y122475D01*
Y121078D01*
X380101Y120983D01*
X379493Y120073D01*
X379279Y119000D01*
Y118578D01*
X379145Y118523D01*
X377727Y117105D01*
X377071Y115520D01*
X382000D01*
Y114250D01*
X383270D01*
Y108362D01*
X383440Y107824D01*
X383495Y107263D01*
X375677Y99445D01*
X374291Y100019D01*
Y108291D01*
X369839D01*
Y129926D01*
X370981Y131067D01*
X372645D01*
X372645Y131067D01*
X374206Y131378D01*
X375529Y132262D01*
X376060Y132793D01*
X377446Y132219D01*
D02*
G37*
G36*
X399681Y155660D02*
X400699Y155239D01*
X404672Y151266D01*
Y116666D01*
X403172Y116099D01*
X401770Y116679D01*
Y111750D01*
Y106821D01*
X403172Y107401D01*
X404672Y106834D01*
Y46913D01*
X404250Y45895D01*
Y44505D01*
X403063Y43817D01*
X402864Y43769D01*
X397559Y49075D01*
Y105890D01*
X399059Y106892D01*
X399230Y106821D01*
Y111750D01*
Y116679D01*
X399059Y116608D01*
X397559Y117611D01*
Y155661D01*
X399059Y156283D01*
X399681Y155660D01*
D02*
G37*
G36*
X134460Y169040D02*
Y163270D01*
X141000D01*
Y162000D01*
X142270D01*
Y154960D01*
X146491D01*
X147441Y153888D01*
X147674Y152718D01*
X148337Y151725D01*
X154637Y145426D01*
X154063Y144040D01*
X141270D01*
Y130000D01*
X140000D01*
Y128730D01*
X119960D01*
Y115960D01*
X118858Y115000D01*
X102628D01*
X102114Y116918D01*
X100403Y119882D01*
X97982Y122303D01*
X95018Y124014D01*
X91712Y124900D01*
X88288D01*
X84982Y124014D01*
X82018Y122303D01*
X80559Y120843D01*
X79059Y121465D01*
Y136460D01*
X88730D01*
Y150000D01*
Y163540D01*
X79059D01*
Y170000D01*
X133358D01*
X134460Y169040D01*
D02*
G37*
G36*
X158251Y114944D02*
X158251Y114944D01*
X158484Y113773D01*
X159147Y112781D01*
X171478Y100450D01*
X170857Y98950D01*
X166900D01*
Y82950D01*
X167941D01*
Y59000D01*
X163000D01*
Y41000D01*
X177941D01*
Y37000D01*
X171000D01*
Y13000D01*
X191000D01*
Y21941D01*
X193709D01*
Y16451D01*
X206769D01*
Y32189D01*
X206881Y32300D01*
X209230D01*
Y16451D01*
X217965D01*
X223482Y10935D01*
X222908Y9549D01*
X142249D01*
Y12460D01*
X149730D01*
Y23730D01*
X140460D01*
Y21076D01*
X139074Y20502D01*
X121749Y37827D01*
Y65960D01*
X123372D01*
X124365Y64460D01*
X124085Y63784D01*
X133943D01*
X133663Y64460D01*
X134656Y65960D01*
X138730D01*
Y80000D01*
Y94040D01*
X125937D01*
X125363Y95426D01*
X128147Y98209D01*
X128147Y98209D01*
X136092Y106154D01*
X136451Y105795D01*
X138105Y105110D01*
X139895D01*
X141549Y105795D01*
X142815Y107061D01*
X143500Y108715D01*
Y110505D01*
X142815Y112159D01*
X141549Y113425D01*
X139895Y114110D01*
X138105D01*
X136451Y113425D01*
X135695Y112669D01*
X135222D01*
X135222Y112669D01*
X134051Y112436D01*
X133059Y111773D01*
X133059Y111773D01*
X123821Y102535D01*
X123821Y102535D01*
X123821Y102535D01*
X116527Y95241D01*
X115864Y94249D01*
X115631Y93078D01*
X115631Y93078D01*
Y37433D01*
X114131Y36812D01*
X79402Y71540D01*
X79147Y101483D01*
X80642Y102109D01*
X81686Y101065D01*
X84774Y99283D01*
X88217Y98360D01*
X88730D01*
Y111900D01*
X91270D01*
Y98360D01*
X91783D01*
X95226Y99283D01*
X98314Y101065D01*
X100835Y103586D01*
X102617Y106674D01*
X103540Y110117D01*
Y112961D01*
X118858D01*
X119180Y113025D01*
X119507Y113067D01*
X119568Y113102D01*
X119638Y113116D01*
X119912Y113299D01*
X120197Y113462D01*
X121299Y114422D01*
X121343Y114479D01*
X121402Y114518D01*
X121585Y114792D01*
X121786Y115052D01*
X121804Y115120D01*
X121844Y115180D01*
X121908Y115502D01*
X121994Y115820D01*
X123233Y116500D01*
X158251D01*
Y114944D01*
D02*
G37*
G36*
X62672Y235405D02*
Y56402D01*
X61245Y55938D01*
X60583Y56850D01*
X56850Y60583D01*
X52579Y63686D01*
X47875Y66083D01*
X42854Y67714D01*
X38059Y68474D01*
Y103483D01*
X40230Y105654D01*
Y109980D01*
X35904D01*
X32837Y106913D01*
X32174Y105920D01*
X31941Y104750D01*
X31941Y104750D01*
Y68474D01*
X27146Y67714D01*
X22125Y66083D01*
X17421Y63686D01*
X13150Y60583D01*
X9417Y56850D01*
X6314Y52579D01*
X3917Y47875D01*
X2391Y43176D01*
X916Y42603D01*
X-250Y44000D01*
X-577Y45365D01*
X-336Y180590D01*
X59809D01*
Y235953D01*
X61247Y236357D01*
X62672Y235405D01*
D02*
G37*
G36*
X391441Y101552D02*
Y47808D01*
X391441Y47808D01*
X391674Y46637D01*
X392337Y45645D01*
X420895Y17087D01*
X420895Y17087D01*
X421887Y16424D01*
X423058Y16191D01*
X423058Y16191D01*
X516244D01*
X516866Y14691D01*
X511723Y9549D01*
X276926D01*
X276352Y10935D01*
X312779Y47361D01*
X327399D01*
X328063Y46698D01*
X329055Y46035D01*
X330226Y45802D01*
X346226D01*
X346227Y45802D01*
X347397Y46035D01*
X348389Y46698D01*
X351516Y49825D01*
X352179Y50817D01*
X352483Y51017D01*
X353817Y51360D01*
X355191Y50442D01*
X357286Y50026D01*
X360885D01*
Y55500D01*
X362155D01*
Y56770D01*
X372246D01*
X372082Y57595D01*
X370895Y59371D01*
X370444Y59673D01*
Y61477D01*
X370506Y61518D01*
X371573Y63116D01*
X371948Y65000D01*
X371573Y66884D01*
X370506Y68482D01*
X369958Y68848D01*
Y70652D01*
X370506Y71018D01*
X371573Y72616D01*
X371948Y74500D01*
X371573Y76384D01*
X370506Y77982D01*
X368909Y79049D01*
X367024Y79424D01*
X357492D01*
Y81011D01*
X357492Y81011D01*
X357259Y82182D01*
X356596Y83174D01*
X356596Y83174D01*
X351389Y88382D01*
X350396Y89045D01*
X349226Y89278D01*
X349226Y89278D01*
X335518D01*
X335220Y90778D01*
X336281Y91217D01*
X337547Y92483D01*
X338232Y94137D01*
Y95206D01*
X339813Y96788D01*
X340209Y97381D01*
X341709Y96925D01*
Y93709D01*
X351220D01*
X351463Y92491D01*
X352347Y91168D01*
X354690Y88825D01*
X354690Y88825D01*
X356013Y87941D01*
X357574Y87631D01*
X368816D01*
X369650Y86383D01*
X369534Y86105D01*
Y84314D01*
X370219Y82660D01*
X371485Y81395D01*
X373139Y80709D01*
X374929D01*
X375485Y80940D01*
X380508D01*
X380955Y80493D01*
Y37714D01*
X379455Y37416D01*
X379273Y37855D01*
X377855Y39273D01*
X376270Y39929D01*
Y35000D01*
Y30071D01*
X377855Y30727D01*
X379273Y32145D01*
X379480Y32647D01*
X381104D01*
X381185Y32451D01*
X382451Y31185D01*
X384105Y30500D01*
X385895D01*
X387549Y31185D01*
X388815Y32451D01*
X389500Y34105D01*
Y35895D01*
X389111Y36834D01*
Y82182D01*
X389111Y82182D01*
X388801Y83743D01*
X387917Y85066D01*
X385081Y87902D01*
X383758Y88786D01*
X382197Y89096D01*
X382197Y89096D01*
X379063D01*
X378489Y90482D01*
X379175Y91168D01*
X379175Y91168D01*
X379656Y91889D01*
X389941Y102174D01*
X391441Y101552D01*
D02*
G37*
G36*
X266883Y57034D02*
X266883Y57034D01*
X267875Y56371D01*
X269046Y56138D01*
X285376D01*
X285997Y54638D01*
X285621Y54262D01*
X284965Y52677D01*
X289894D01*
Y50137D01*
X284965D01*
X285621Y48552D01*
X286982Y47192D01*
X287256Y46835D01*
X287503Y45592D01*
X272052Y30140D01*
X270581Y30433D01*
X270509Y30605D01*
X269092Y32023D01*
X267507Y32679D01*
Y27750D01*
X264967D01*
Y33730D01*
X256250D01*
Y36270D01*
X264790D01*
Y44064D01*
X264790Y44540D01*
X264790Y44540D01*
X264540Y45460D01*
X264540Y45460D01*
Y53730D01*
X256000D01*
Y56270D01*
X264540D01*
Y57417D01*
X265926Y57991D01*
X266883Y57034D01*
D02*
G37*
G36*
X90423Y23809D02*
X90098Y22794D01*
X89620Y22309D01*
X68253D01*
X66660Y23902D01*
X67714Y27146D01*
X68540Y32360D01*
Y33730D01*
X35000D01*
Y36270D01*
X68540D01*
Y37640D01*
X67714Y42854D01*
X66972Y45139D01*
X68287Y45946D01*
X90423Y23809D01*
D02*
G37*
G36*
X119770Y14321D02*
X121355Y14977D01*
X122773Y16395D01*
X123066Y17104D01*
X124836Y17456D01*
X131051Y11240D01*
Y4386D01*
X131051Y4386D01*
X131284Y3215D01*
X131947Y2223D01*
X132956Y1215D01*
X132381Y-171D01*
X37900D01*
X37792Y-2D01*
X38548Y1604D01*
X42854Y2286D01*
X47875Y3917D01*
X52579Y6314D01*
X56850Y9417D01*
X60583Y13150D01*
X63131Y16658D01*
X64688Y17053D01*
X65104Y16900D01*
X65815Y16424D01*
X66986Y16191D01*
X114431D01*
X115645Y14977D01*
X117230Y14321D01*
Y19250D01*
X119770D01*
Y14321D01*
D02*
G37*
%LPC*%
G36*
X491168Y550390D02*
X491070D01*
Y541270D01*
X500190D01*
Y541368D01*
X499482Y544010D01*
X498114Y546380D01*
X496180Y548314D01*
X493810Y549682D01*
X491168Y550390D01*
D02*
G37*
G36*
X488530D02*
X488432D01*
X485790Y549682D01*
X483420Y548314D01*
X481486Y546380D01*
X480118Y544010D01*
X479410Y541368D01*
Y541270D01*
X488530D01*
Y550390D01*
D02*
G37*
G36*
X440368D02*
X440270D01*
Y541270D01*
X449390D01*
Y541368D01*
X448682Y544010D01*
X447314Y546380D01*
X445380Y548314D01*
X443010Y549682D01*
X440368Y550390D01*
D02*
G37*
G36*
X437730D02*
X437632D01*
X434990Y549682D01*
X432620Y548314D01*
X430686Y546380D01*
X429318Y544010D01*
X428610Y541368D01*
Y541270D01*
X437730D01*
Y550390D01*
D02*
G37*
G36*
X541897Y549850D02*
X539303D01*
X536798Y549179D01*
X534552Y547882D01*
X532718Y546048D01*
X531421Y543802D01*
X530750Y541297D01*
Y538703D01*
X531421Y536198D01*
X532718Y533952D01*
X534552Y532118D01*
X536798Y530821D01*
X539303Y530150D01*
X541897D01*
X544402Y530821D01*
X546648Y532118D01*
X548482Y533952D01*
X549779Y536198D01*
X550450Y538703D01*
Y541297D01*
X549779Y543802D01*
X548482Y546048D01*
X546648Y547882D01*
X544402Y549179D01*
X541897Y549850D01*
D02*
G37*
G36*
X516497D02*
X513903D01*
X511398Y549179D01*
X509152Y547882D01*
X507318Y546048D01*
X506021Y543802D01*
X505350Y541297D01*
Y538703D01*
X506021Y536198D01*
X507318Y533952D01*
X509152Y532118D01*
X511398Y530821D01*
X513903Y530150D01*
X516497D01*
X519002Y530821D01*
X521248Y532118D01*
X523082Y533952D01*
X524379Y536198D01*
X525050Y538703D01*
Y541297D01*
X524379Y543802D01*
X523082Y546048D01*
X521248Y547882D01*
X519002Y549179D01*
X516497Y549850D01*
D02*
G37*
G36*
X465697D02*
X463103D01*
X460598Y549179D01*
X458352Y547882D01*
X456518Y546048D01*
X455221Y543802D01*
X454550Y541297D01*
Y538703D01*
X455221Y536198D01*
X456518Y533952D01*
X458352Y532118D01*
X460598Y530821D01*
X463103Y530150D01*
X465697D01*
X468202Y530821D01*
X470448Y532118D01*
X472282Y533952D01*
X473579Y536198D01*
X474250Y538703D01*
Y541297D01*
X473579Y543802D01*
X472282Y546048D01*
X470448Y547882D01*
X468202Y549179D01*
X465697Y549850D01*
D02*
G37*
G36*
X414897D02*
X412303D01*
X409798Y549179D01*
X407552Y547882D01*
X405718Y546048D01*
X404421Y543802D01*
X403750Y541297D01*
Y538703D01*
X404421Y536198D01*
X405718Y533952D01*
X407552Y532118D01*
X409798Y530821D01*
X412303Y530150D01*
X414897D01*
X417402Y530821D01*
X419648Y532118D01*
X421482Y533952D01*
X422779Y536198D01*
X423450Y538703D01*
Y541297D01*
X422779Y543802D01*
X421482Y546048D01*
X419648Y547882D01*
X417402Y549179D01*
X414897Y549850D01*
D02*
G37*
G36*
X389497D02*
X386903D01*
X384398Y549179D01*
X382152Y547882D01*
X380318Y546048D01*
X379021Y543802D01*
X378350Y541297D01*
Y538703D01*
X379021Y536198D01*
X380318Y533952D01*
X382152Y532118D01*
X384398Y530821D01*
X386903Y530150D01*
X389497D01*
X392002Y530821D01*
X394248Y532118D01*
X396082Y533952D01*
X397379Y536198D01*
X398050Y538703D01*
Y541297D01*
X397379Y543802D01*
X396082Y546048D01*
X394248Y547882D01*
X392002Y549179D01*
X389497Y549850D01*
D02*
G37*
G36*
X364097D02*
X361503D01*
X358998Y549179D01*
X356752Y547882D01*
X354918Y546048D01*
X353621Y543802D01*
X352950Y541297D01*
Y538703D01*
X353621Y536198D01*
X354918Y533952D01*
X356752Y532118D01*
X358998Y530821D01*
X361503Y530150D01*
X364097D01*
X366602Y530821D01*
X368848Y532118D01*
X370682Y533952D01*
X371979Y536198D01*
X372650Y538703D01*
Y541297D01*
X371979Y543802D01*
X370682Y546048D01*
X368848Y547882D01*
X366602Y549179D01*
X364097Y549850D01*
D02*
G37*
G36*
X500190Y538730D02*
X491070D01*
Y529610D01*
X491168D01*
X493810Y530318D01*
X496180Y531686D01*
X498114Y533620D01*
X499482Y535990D01*
X500190Y538632D01*
Y538730D01*
D02*
G37*
G36*
X488530D02*
X479410D01*
Y538632D01*
X480118Y535990D01*
X481486Y533620D01*
X483420Y531686D01*
X485790Y530318D01*
X488432Y529610D01*
X488530D01*
Y538730D01*
D02*
G37*
G36*
X449390D02*
X440270D01*
Y529610D01*
X440368D01*
X443010Y530318D01*
X445380Y531686D01*
X447314Y533620D01*
X448682Y535990D01*
X449390Y538632D01*
Y538730D01*
D02*
G37*
G36*
X437730D02*
X428610D01*
Y538632D01*
X429318Y535990D01*
X430686Y533620D01*
X432620Y531686D01*
X434990Y530318D01*
X437632Y529610D01*
X437730D01*
Y538730D01*
D02*
G37*
G36*
X322390D02*
X313270D01*
Y529610D01*
X313368D01*
X316010Y530318D01*
X318380Y531686D01*
X320314Y533620D01*
X321682Y535990D01*
X322390Y538632D01*
Y538730D01*
D02*
G37*
G36*
X564730Y524990D02*
X564632D01*
X561990Y524282D01*
X559620Y522914D01*
X557686Y520980D01*
X556318Y518610D01*
X555610Y515968D01*
Y515870D01*
X564730D01*
Y524990D01*
D02*
G37*
G36*
X389568D02*
X389470D01*
Y515870D01*
X398590D01*
Y515968D01*
X397882Y518610D01*
X396514Y520980D01*
X394580Y522914D01*
X392210Y524282D01*
X389568Y524990D01*
D02*
G37*
G36*
X386930D02*
X386832D01*
X384190Y524282D01*
X381820Y522914D01*
X379886Y520980D01*
X378518Y518610D01*
X377810Y515968D01*
Y515870D01*
X386930D01*
Y524990D01*
D02*
G37*
G36*
Y513330D02*
X377810D01*
Y513232D01*
X378367Y511154D01*
X377022Y510378D01*
X376971Y510429D01*
X375386Y511085D01*
Y507426D01*
X380089D01*
X380106Y507437D01*
X380542Y507565D01*
X381820Y506286D01*
X384190Y504918D01*
X386832Y504210D01*
X386930D01*
Y513330D01*
D02*
G37*
G36*
X541897Y524450D02*
X539303D01*
X536798Y523779D01*
X534552Y522482D01*
X532718Y520648D01*
X531421Y518402D01*
X530750Y515897D01*
Y513303D01*
X531421Y510798D01*
X532718Y508552D01*
X534552Y506718D01*
X536798Y505421D01*
X539303Y504750D01*
X541897D01*
X544402Y505421D01*
X546648Y506718D01*
X548482Y508552D01*
X549779Y510798D01*
X550450Y513303D01*
Y515897D01*
X549779Y518402D01*
X548482Y520648D01*
X546648Y522482D01*
X544402Y523779D01*
X541897Y524450D01*
D02*
G37*
G36*
X516497D02*
X513903D01*
X511398Y523779D01*
X509152Y522482D01*
X507318Y520648D01*
X506021Y518402D01*
X505350Y515897D01*
Y513303D01*
X506021Y510798D01*
X507318Y508552D01*
X509152Y506718D01*
X511398Y505421D01*
X513903Y504750D01*
X516497D01*
X519002Y505421D01*
X521248Y506718D01*
X523082Y508552D01*
X524379Y510798D01*
X525050Y513303D01*
Y515897D01*
X524379Y518402D01*
X523082Y520648D01*
X521248Y522482D01*
X519002Y523779D01*
X516497Y524450D01*
D02*
G37*
G36*
X491097D02*
X488503D01*
X485998Y523779D01*
X483752Y522482D01*
X481918Y520648D01*
X480621Y518402D01*
X479950Y515897D01*
Y513303D01*
X480621Y510798D01*
X481918Y508552D01*
X483752Y506718D01*
X485998Y505421D01*
X488503Y504750D01*
X491097D01*
X493602Y505421D01*
X495848Y506718D01*
X497682Y508552D01*
X498979Y510798D01*
X499650Y513303D01*
Y515897D01*
X498979Y518402D01*
X497682Y520648D01*
X495848Y522482D01*
X493602Y523779D01*
X491097Y524450D01*
D02*
G37*
G36*
X465697D02*
X463103D01*
X460598Y523779D01*
X458352Y522482D01*
X456518Y520648D01*
X455221Y518402D01*
X454550Y515897D01*
Y513303D01*
X455221Y510798D01*
X456518Y508552D01*
X458352Y506718D01*
X460598Y505421D01*
X463103Y504750D01*
X465697D01*
X468202Y505421D01*
X470448Y506718D01*
X472282Y508552D01*
X473579Y510798D01*
X474250Y513303D01*
Y515897D01*
X473579Y518402D01*
X472282Y520648D01*
X470448Y522482D01*
X468202Y523779D01*
X465697Y524450D01*
D02*
G37*
G36*
X440297D02*
X437703D01*
X435198Y523779D01*
X432952Y522482D01*
X431118Y520648D01*
X429821Y518402D01*
X429150Y515897D01*
Y513303D01*
X429821Y510798D01*
X431118Y508552D01*
X432952Y506718D01*
X435198Y505421D01*
X437703Y504750D01*
X440297D01*
X442802Y505421D01*
X445048Y506718D01*
X446882Y508552D01*
X448179Y510798D01*
X448850Y513303D01*
Y515897D01*
X448179Y518402D01*
X446882Y520648D01*
X445048Y522482D01*
X442802Y523779D01*
X440297Y524450D01*
D02*
G37*
G36*
X414897D02*
X412303D01*
X409798Y523779D01*
X407552Y522482D01*
X405718Y520648D01*
X404421Y518402D01*
X403750Y515897D01*
Y513303D01*
X404421Y510798D01*
X405718Y508552D01*
X407552Y506718D01*
X409798Y505421D01*
X412303Y504750D01*
X414897D01*
X417402Y505421D01*
X419648Y506718D01*
X421482Y508552D01*
X422779Y510798D01*
X423450Y513303D01*
Y515897D01*
X422779Y518402D01*
X421482Y520648D01*
X419648Y522482D01*
X417402Y523779D01*
X414897Y524450D01*
D02*
G37*
G36*
X564730Y513330D02*
X555610D01*
Y513232D01*
X556318Y510590D01*
X557686Y508220D01*
X559620Y506286D01*
X561990Y504918D01*
X564632Y504210D01*
X564730D01*
Y513330D01*
D02*
G37*
G36*
X398590D02*
X389470D01*
Y504210D01*
X389568D01*
X392210Y504918D01*
X394580Y506286D01*
X396514Y508220D01*
X397882Y510590D01*
X398590Y513232D01*
Y513330D01*
D02*
G37*
G36*
X643679Y495230D02*
X640020D01*
Y491571D01*
X641605Y492227D01*
X643023Y493645D01*
X643679Y495230D01*
D02*
G37*
G36*
X648540Y523730D02*
X616270D01*
Y491460D01*
X617640D01*
X622854Y492286D01*
X627875Y493917D01*
X632210Y496126D01*
X633421Y495624D01*
X633779Y495332D01*
X634477Y493645D01*
X635895Y492227D01*
X637480Y491571D01*
Y496500D01*
X638750D01*
Y497770D01*
X643679D01*
X643023Y499355D01*
X641605Y500773D01*
X640701Y501147D01*
X640349Y502916D01*
X640583Y503150D01*
X643686Y507421D01*
X646083Y512125D01*
X647714Y517146D01*
X648540Y522360D01*
Y523730D01*
D02*
G37*
G36*
X573895Y488000D02*
X572105D01*
X570451Y487315D01*
X569185Y486049D01*
X568500Y484395D01*
Y482605D01*
X569185Y480951D01*
X570451Y479685D01*
X572105Y479000D01*
X573895D01*
X575549Y479685D01*
X576305Y480441D01*
X645234D01*
X646097Y479577D01*
X647751Y478892D01*
X649541D01*
X651195Y479577D01*
X652461Y480843D01*
X653146Y482497D01*
Y484287D01*
X652461Y485941D01*
X651195Y487207D01*
X649541Y487892D01*
X647751D01*
X646097Y487207D01*
X645449Y486559D01*
X576305D01*
X575549Y487315D01*
X573895Y488000D01*
D02*
G37*
G36*
X616145Y477932D02*
X614355D01*
X612701Y477247D01*
X611435Y475981D01*
X610750Y474327D01*
Y472537D01*
X611435Y470883D01*
X612701Y469617D01*
X614355Y468932D01*
X616145D01*
X617799Y469617D01*
X618498Y470316D01*
X750820D01*
X751701Y469435D01*
X753355Y468750D01*
X755145D01*
X756799Y469435D01*
X758065Y470701D01*
X758750Y472355D01*
Y474145D01*
X758065Y475799D01*
X756799Y477065D01*
X755145Y477750D01*
X753355D01*
X751701Y477065D01*
X751070Y476434D01*
X618612D01*
X617799Y477247D01*
X616145Y477932D01*
D02*
G37*
G36*
X842244Y438215D02*
X816244D01*
Y416215D01*
X842244D01*
Y438215D01*
D02*
G37*
G36*
X719895Y382750D02*
X718105D01*
X716451Y382065D01*
X715185Y380799D01*
X714500Y379145D01*
Y377355D01*
X715185Y375701D01*
X715941Y374945D01*
Y323222D01*
X715941Y323222D01*
X716174Y322051D01*
X716837Y321059D01*
X734809Y303087D01*
X735801Y302424D01*
X736972Y302191D01*
X755445D01*
X756201Y301435D01*
X757855Y300750D01*
X759645D01*
X761299Y301435D01*
X762204Y302340D01*
X763704Y302221D01*
Y301985D01*
X772744D01*
X781784D01*
Y304755D01*
X781244D01*
Y306675D01*
X781784D01*
Y309445D01*
X772744D01*
Y311985D01*
X781784D01*
Y314755D01*
X781244D01*
Y316675D01*
X781784D01*
Y319445D01*
X772744D01*
X763704D01*
Y318774D01*
X737429D01*
X737315Y319049D01*
X736049Y320315D01*
X734395Y321000D01*
X732605D01*
X730951Y320315D01*
X729685Y319049D01*
X729561Y318750D01*
X728090Y318458D01*
X722059Y324489D01*
Y359311D01*
X723559Y359609D01*
X723935Y358701D01*
X724691Y357945D01*
Y353750D01*
X724691Y353750D01*
X724924Y352579D01*
X725587Y351587D01*
X751000Y326174D01*
Y325105D01*
X751685Y323451D01*
X752951Y322185D01*
X754605Y321500D01*
X756395D01*
X758049Y322185D01*
X758663Y322799D01*
X763704D01*
Y321985D01*
X772744D01*
X781784D01*
Y324755D01*
X781244D01*
Y326675D01*
X781784D01*
Y329445D01*
X772744D01*
Y331985D01*
X781784D01*
Y334755D01*
X781244D01*
Y336675D01*
X781784D01*
Y339445D01*
X772744D01*
Y341985D01*
X781784D01*
Y344755D01*
X781244D01*
Y346675D01*
X781784D01*
Y349445D01*
X772744D01*
X763704D01*
Y348416D01*
X757448D01*
X757049Y348815D01*
X755395Y349500D01*
X753605D01*
X751951Y348815D01*
X750685Y347549D01*
X750000Y345895D01*
Y345725D01*
X748500Y345104D01*
X739264Y354340D01*
Y355409D01*
X738579Y357063D01*
X737313Y358329D01*
X735659Y359014D01*
X733869D01*
X733204Y358739D01*
X732056Y359887D01*
X732250Y360355D01*
Y362145D01*
X731565Y363799D01*
X730299Y365065D01*
X728645Y365750D01*
X726855D01*
X725201Y365065D01*
X723935Y363799D01*
X723559Y362891D01*
X722059Y363189D01*
Y374945D01*
X722815Y375701D01*
X723500Y377355D01*
Y379145D01*
X722815Y380799D01*
X721549Y382065D01*
X719895Y382750D01*
D02*
G37*
G36*
X636218Y314500D02*
X634428D01*
X632774Y313815D01*
X631508Y312549D01*
X630823Y310895D01*
Y309105D01*
X631508Y307451D01*
X632774Y306185D01*
X634428Y305500D01*
X636218D01*
X637872Y306185D01*
X638629Y306941D01*
X649620D01*
X650623Y305441D01*
X650500Y305145D01*
Y303355D01*
X651185Y301701D01*
X652451Y300435D01*
X654105Y299750D01*
X655174D01*
X661372Y293552D01*
X661372Y293552D01*
X662364Y292889D01*
X663535Y292656D01*
X763704D01*
Y291985D01*
X772744D01*
X781784D01*
Y294755D01*
X781244D01*
Y296675D01*
X781784D01*
Y299445D01*
X772744D01*
X763704D01*
Y298774D01*
X664802D01*
X659500Y304076D01*
Y305145D01*
X659377Y305441D01*
X660380Y306941D01*
X716386D01*
X716876Y305760D01*
X718141Y304495D01*
X719795Y303810D01*
X721586D01*
X723240Y304495D01*
X724505Y305760D01*
X725190Y307414D01*
Y309205D01*
X724505Y310859D01*
X723240Y312125D01*
X721586Y312810D01*
X719795D01*
X719541Y312704D01*
X719359Y312826D01*
X718188Y313059D01*
X718188Y313059D01*
X638629D01*
X637872Y313815D01*
X636218Y314500D01*
D02*
G37*
G36*
X819264Y286644D02*
Y282985D01*
X822923D01*
X822266Y284570D01*
X820848Y285988D01*
X819264Y286644D01*
D02*
G37*
G36*
X822923Y280445D02*
X819264D01*
Y276786D01*
X820848Y277442D01*
X822266Y278860D01*
X822923Y280445D01*
D02*
G37*
G36*
X791895Y477500D02*
X790105D01*
X788451Y476815D01*
X787185Y475549D01*
X786500Y473895D01*
Y472105D01*
X787185Y470451D01*
X788451Y469185D01*
X790105Y468500D01*
X791174D01*
X804441Y455233D01*
Y110767D01*
X795483Y101809D01*
X780767D01*
X722096Y160480D01*
Y161963D01*
X721863Y163134D01*
X721200Y164126D01*
X721200Y164126D01*
X698345Y186981D01*
X698638Y188452D01*
X698941Y188577D01*
X700207Y189843D01*
X700892Y191497D01*
Y192567D01*
X760982Y252656D01*
X763704D01*
Y251985D01*
X772744D01*
X781784D01*
Y254755D01*
X781244D01*
Y256675D01*
X781784D01*
Y259445D01*
X772744D01*
X763704D01*
Y258774D01*
X759715D01*
X759715Y258774D01*
X758545Y258541D01*
X757552Y257878D01*
X696567Y196892D01*
X695497D01*
X693843Y196207D01*
X692578Y194941D01*
X692452Y194638D01*
X690981Y194345D01*
X662500Y222826D01*
Y223895D01*
X661815Y225549D01*
X660549Y226815D01*
X658895Y227500D01*
X657105D01*
X655451Y226815D01*
X654185Y225549D01*
X653500Y223895D01*
Y222105D01*
X654185Y220451D01*
X655451Y219185D01*
X657105Y218500D01*
X658174D01*
X715978Y160696D01*
Y159213D01*
X715978Y159213D01*
X716211Y158042D01*
X716874Y157050D01*
X777337Y96587D01*
X777337Y96587D01*
X778329Y95924D01*
X778909Y95809D01*
X778761Y94309D01*
X774517D01*
X744163Y124663D01*
X743170Y125326D01*
X742000Y125559D01*
X742000Y125559D01*
X622289D01*
X621537Y126310D01*
X619883Y126995D01*
X618093D01*
X616439Y126310D01*
X615173Y125044D01*
X614488Y123390D01*
Y121600D01*
X615173Y119946D01*
X616439Y118680D01*
X618093Y117995D01*
X619883D01*
X621537Y118680D01*
X622298Y119441D01*
X740733D01*
X771087Y89087D01*
X772079Y88424D01*
X773250Y88191D01*
X795250D01*
X795250Y88191D01*
X796421Y88424D01*
X797413Y89087D01*
X813663Y105337D01*
X814326Y106329D01*
X814559Y107500D01*
X814559Y107500D01*
Y276063D01*
X816059Y277061D01*
X816724Y276786D01*
Y281715D01*
Y286644D01*
X816059Y286369D01*
X814559Y287368D01*
Y447000D01*
X815145D01*
X816799Y447685D01*
X818065Y448951D01*
X818750Y450605D01*
Y452395D01*
X818065Y454049D01*
X816799Y455315D01*
X815145Y456000D01*
X813355D01*
X812059Y455463D01*
X810559Y456133D01*
Y456500D01*
X810559Y456500D01*
X810326Y457671D01*
X809663Y458663D01*
X795500Y472826D01*
Y473895D01*
X794815Y475549D01*
X793549Y476815D01*
X791895Y477500D01*
D02*
G37*
G36*
X674595Y196512D02*
X672805D01*
X671151Y195827D01*
X670383Y195059D01*
X586840D01*
X586191Y195707D01*
X584538Y196392D01*
X582747D01*
X581093Y195707D01*
X579827Y194441D01*
X579142Y192787D01*
Y190997D01*
X579827Y189343D01*
X581093Y188078D01*
X582747Y187392D01*
X584538D01*
X586191Y188078D01*
X587055Y188941D01*
X670406D01*
X671151Y188197D01*
X672805Y187512D01*
X674595D01*
X676249Y188197D01*
X677515Y189463D01*
X678200Y191117D01*
Y192907D01*
X677515Y194561D01*
X676249Y195827D01*
X674595Y196512D01*
D02*
G37*
G36*
X781784Y249445D02*
X772744D01*
X763704D01*
Y246675D01*
X764244D01*
Y237215D01*
Y227215D01*
Y217215D01*
Y207215D01*
Y197215D01*
Y187215D01*
Y177215D01*
Y167215D01*
Y157215D01*
X781244D01*
Y167215D01*
Y177215D01*
Y187215D01*
Y197215D01*
Y207215D01*
Y217215D01*
Y227215D01*
Y237215D01*
Y246675D01*
X781784D01*
Y249445D01*
D02*
G37*
G36*
X842244Y150215D02*
X816244D01*
Y128215D01*
X842244D01*
Y150215D01*
D02*
G37*
G36*
X626270Y99738D02*
Y96079D01*
X629929D01*
X629273Y97663D01*
X627855Y99081D01*
X626270Y99738D01*
D02*
G37*
G36*
X623730D02*
X622145Y99081D01*
X620727Y97663D01*
X620071Y96079D01*
X623730D01*
Y99738D01*
D02*
G37*
G36*
X629929Y93539D02*
X626270D01*
Y89879D01*
X627855Y90536D01*
X629273Y91954D01*
X629929Y93539D01*
D02*
G37*
G36*
X623730D02*
X620071D01*
X620727Y91954D01*
X622145Y90536D01*
X623730Y89879D01*
Y93539D01*
D02*
G37*
G36*
X617640Y68540D02*
X616270D01*
Y36270D01*
X648540D01*
Y37640D01*
X647714Y42854D01*
X646083Y47875D01*
X643686Y52579D01*
X640583Y56850D01*
X636850Y60583D01*
X632579Y63686D01*
X627875Y66083D01*
X622854Y67714D01*
X617640Y68540D01*
D02*
G37*
G36*
X648540Y33730D02*
X616270D01*
Y1460D01*
X617640D01*
X622854Y2286D01*
X627875Y3917D01*
X632579Y6314D01*
X636850Y9417D01*
X640583Y13150D01*
X643686Y17421D01*
X646083Y22125D01*
X647714Y27146D01*
X648540Y32360D01*
Y33730D01*
D02*
G37*
G36*
X613730D02*
X581460D01*
Y32360D01*
X582286Y27146D01*
X583917Y22125D01*
X586314Y17421D01*
X589417Y13150D01*
X593150Y9417D01*
X597421Y6314D01*
X602125Y3917D01*
X607146Y2286D01*
X612360Y1460D01*
X613730D01*
Y33730D01*
D02*
G37*
G36*
X21480Y453679D02*
X19895Y453023D01*
X18477Y451605D01*
X17821Y450020D01*
X21480D01*
Y453679D01*
D02*
G37*
G36*
Y447480D02*
X17821D01*
X18477Y445895D01*
X19895Y444477D01*
X21480Y443821D01*
Y447480D01*
D02*
G37*
G36*
X74480Y484739D02*
X72895Y484083D01*
X71477Y482665D01*
X70821Y481080D01*
X74480D01*
Y484739D01*
D02*
G37*
G36*
X238584Y475453D02*
X234925D01*
Y471794D01*
X236509Y472450D01*
X237927Y473868D01*
X238584Y475453D01*
D02*
G37*
G36*
X263500Y469500D02*
X261710D01*
X260056Y468815D01*
X258957Y467716D01*
X253992D01*
X253578Y468130D01*
X251924Y468815D01*
X250134D01*
X248480Y468130D01*
X247214Y466864D01*
X246529Y465210D01*
Y463420D01*
X247214Y461766D01*
X248480Y460500D01*
X250134Y459815D01*
X251924D01*
X253578Y460500D01*
X254677Y461599D01*
X259642D01*
X260056Y461185D01*
X261710Y460500D01*
X263500D01*
X265154Y461185D01*
X266420Y462451D01*
X267105Y464105D01*
Y465895D01*
X266420Y467549D01*
X265154Y468815D01*
X263500Y469500D01*
D02*
G37*
G36*
X339270Y452929D02*
Y449270D01*
X342929D01*
X342273Y450855D01*
X340855Y452273D01*
X339270Y452929D01*
D02*
G37*
G36*
X336730D02*
X335145Y452273D01*
X333727Y450855D01*
X333071Y449270D01*
X336730D01*
Y452929D01*
D02*
G37*
G36*
X511534Y464839D02*
Y461180D01*
X515193D01*
X514537Y462765D01*
X513119Y464183D01*
X511534Y464839D01*
D02*
G37*
G36*
X508994D02*
X507409Y464183D01*
X505991Y462765D01*
X505335Y461180D01*
X508994D01*
Y464839D01*
D02*
G37*
G36*
X515193Y458640D02*
X505335D01*
X505991Y457055D01*
X507198Y455848D01*
Y451826D01*
X505977Y450605D01*
X505321Y449020D01*
X515179D01*
X514523Y450605D01*
X513316Y451812D01*
Y455834D01*
X514537Y457055D01*
X515193Y458640D01*
D02*
G37*
G36*
X515179Y446480D02*
X511520D01*
Y442821D01*
X513105Y443477D01*
X514523Y444895D01*
X515179Y446480D01*
D02*
G37*
G36*
X508980D02*
X505321D01*
X505977Y444895D01*
X507395Y443477D01*
X508980Y442821D01*
Y446480D01*
D02*
G37*
G36*
X78730Y428730D02*
X72710D01*
Y420710D01*
X78730D01*
Y428730D01*
D02*
G37*
G36*
X428929Y364230D02*
X425270D01*
Y360571D01*
X426855Y361227D01*
X428273Y362645D01*
X428929Y364230D01*
D02*
G37*
G36*
X516555Y349929D02*
X514970Y349273D01*
X513553Y347855D01*
X512896Y346270D01*
X516555D01*
Y349929D01*
D02*
G37*
G36*
X128270Y390929D02*
Y387270D01*
X131929D01*
X131273Y388855D01*
X129855Y390273D01*
X128270Y390929D01*
D02*
G37*
G36*
X125730D02*
X124145Y390273D01*
X122727Y388855D01*
X122071Y387270D01*
X125730D01*
Y390929D01*
D02*
G37*
G36*
X139455Y353667D02*
X135796D01*
Y350008D01*
X137381Y350664D01*
X138799Y352082D01*
X139455Y353667D01*
D02*
G37*
G36*
X540490Y305000D02*
X535020D01*
Y300670D01*
X543600D01*
Y301890D01*
X543363Y303080D01*
X542689Y304089D01*
X541680Y304763D01*
X540490Y305000D01*
D02*
G37*
G36*
X543600Y298130D02*
X535020D01*
Y293800D01*
X540490D01*
X541680Y294037D01*
X542689Y294711D01*
X543363Y295720D01*
X543600Y296910D01*
Y298130D01*
D02*
G37*
G36*
X378980Y298600D02*
X373510D01*
X372320Y298363D01*
X371311Y297689D01*
X370637Y296680D01*
X370400Y295490D01*
Y294270D01*
X378980D01*
Y298600D01*
D02*
G37*
G36*
X503947Y299909D02*
X502363Y299253D01*
X500945Y297835D01*
X500288Y296250D01*
X503947D01*
Y299909D01*
D02*
G37*
G36*
X185730Y330555D02*
Y326896D01*
X189389D01*
X188733Y328481D01*
X187315Y329898D01*
X185730Y330555D01*
D02*
G37*
G36*
X201730Y320730D02*
X193369D01*
X193488Y320131D01*
X194547Y318547D01*
X196131Y317488D01*
X198000Y317116D01*
X201730D01*
Y320730D01*
D02*
G37*
G36*
X307540Y267790D02*
X301270D01*
Y261770D01*
X307540D01*
Y267790D01*
D02*
G37*
G36*
X73730Y282730D02*
X70071D01*
X70727Y281145D01*
X72145Y279727D01*
X73730Y279071D01*
Y282730D01*
D02*
G37*
G36*
X250509Y213980D02*
X246850D01*
Y210321D01*
X248435Y210977D01*
X249853Y212395D01*
X250509Y213980D01*
D02*
G37*
G36*
X228730Y193730D02*
X225071D01*
X225727Y192145D01*
X227145Y190727D01*
X228730Y190071D01*
Y193730D01*
D02*
G37*
G36*
X234040Y185540D02*
X226770D01*
Y178270D01*
X234040D01*
Y185540D01*
D02*
G37*
G36*
X224230D02*
X216960D01*
Y178270D01*
X224230D01*
Y185540D01*
D02*
G37*
G36*
X489480Y162679D02*
X487895Y162023D01*
X486477Y160605D01*
X485821Y159020D01*
X489480D01*
Y162679D01*
D02*
G37*
G36*
Y156480D02*
X485821D01*
X486477Y154895D01*
X487895Y153477D01*
X489480Y152821D01*
Y156480D01*
D02*
G37*
G36*
X507061Y115804D02*
Y112145D01*
X510720D01*
X510064Y113730D01*
X508646Y115148D01*
X507061Y115804D01*
D02*
G37*
G36*
X504521D02*
X502936Y115148D01*
X501519Y113730D01*
X500862Y112145D01*
X504521D01*
Y115804D01*
D02*
G37*
G36*
X510720Y109605D02*
X500862D01*
X501519Y108020D01*
X502936Y106602D01*
X504296Y106039D01*
Y88841D01*
X503082Y87628D01*
X502426Y86043D01*
X512284D01*
X511628Y87628D01*
X510414Y88841D01*
Y108499D01*
X510414Y108500D01*
X510365Y108746D01*
X510720Y109605D01*
D02*
G37*
G36*
X512284Y83503D02*
X508625D01*
Y79844D01*
X510210Y80500D01*
X511628Y81918D01*
X512284Y83503D01*
D02*
G37*
G36*
X506085D02*
X502426D01*
X503082Y81918D01*
X504500Y80500D01*
X506085Y79844D01*
Y83503D01*
D02*
G37*
G36*
X380730Y112980D02*
X377071D01*
X377727Y111395D01*
X379145Y109977D01*
X380730Y109321D01*
Y112980D01*
D02*
G37*
G36*
X139730Y160730D02*
X134460D01*
Y154960D01*
X139730D01*
Y160730D01*
D02*
G37*
G36*
X103540Y163540D02*
X91270D01*
Y151270D01*
X103540D01*
Y163540D01*
D02*
G37*
G36*
Y148730D02*
X91270D01*
Y136460D01*
X103540D01*
Y148730D01*
D02*
G37*
G36*
X138730Y144040D02*
X119960D01*
Y131270D01*
X138730D01*
Y144040D01*
D02*
G37*
G36*
X160040Y94040D02*
X141270D01*
Y81270D01*
X160040D01*
Y94040D01*
D02*
G37*
G36*
Y78730D02*
X141270D01*
Y65960D01*
X160040D01*
Y78730D01*
D02*
G37*
G36*
X133943Y61244D02*
X130284D01*
Y57585D01*
X131869Y58241D01*
X133287Y59659D01*
X133943Y61244D01*
D02*
G37*
G36*
X127744D02*
X124085D01*
X124741Y59659D01*
X126159Y58241D01*
X127744Y57585D01*
Y61244D01*
D02*
G37*
G36*
X159540Y59540D02*
X152270D01*
Y51270D01*
X159540D01*
Y59540D01*
D02*
G37*
G36*
X149730D02*
X142460D01*
Y51270D01*
X149730D01*
Y59540D01*
D02*
G37*
G36*
X159540Y48730D02*
X152270D01*
Y40460D01*
X159540D01*
Y48730D01*
D02*
G37*
G36*
X149730D02*
X142460D01*
Y40460D01*
X149730D01*
Y48730D01*
D02*
G37*
G36*
X161540Y37540D02*
X152270D01*
Y26270D01*
X161540D01*
Y37540D01*
D02*
G37*
G36*
X149730D02*
X140460D01*
Y26270D01*
X149730D01*
Y37540D01*
D02*
G37*
G36*
X161540Y23730D02*
X152270D01*
Y12460D01*
X161540D01*
Y23730D01*
D02*
G37*
G36*
X42770Y116179D02*
Y112520D01*
X46429D01*
X45773Y114105D01*
X44355Y115523D01*
X42770Y116179D01*
D02*
G37*
G36*
X40230D02*
X38645Y115523D01*
X37227Y114105D01*
X36571Y112520D01*
X40230D01*
Y116179D01*
D02*
G37*
G36*
X46429Y109980D02*
X42770D01*
Y106321D01*
X44355Y106977D01*
X45773Y108395D01*
X46429Y109980D01*
D02*
G37*
G36*
X372246Y54230D02*
X363425D01*
Y50026D01*
X367024D01*
X369119Y50442D01*
X370895Y51629D01*
X372082Y53405D01*
X372246Y54230D01*
D02*
G37*
G36*
X373730Y39929D02*
X372145Y39273D01*
X370727Y37855D01*
X370071Y36270D01*
X373730D01*
Y39929D01*
D02*
G37*
G36*
Y33730D02*
X370071D01*
X370727Y32145D01*
X372145Y30727D01*
X373730Y30071D01*
Y33730D01*
D02*
G37*
G36*
X89708Y12473D02*
Y8814D01*
X93367D01*
X92711Y10399D01*
X91293Y11817D01*
X89708Y12473D01*
D02*
G37*
G36*
X87168D02*
X85583Y11817D01*
X84165Y10399D01*
X83509Y8814D01*
X87168D01*
Y12473D01*
D02*
G37*
G36*
X93367Y6274D02*
X89708D01*
Y2615D01*
X91293Y3271D01*
X92711Y4689D01*
X93367Y6274D01*
D02*
G37*
G36*
X87168D02*
X83509D01*
X84165Y4689D01*
X85583Y3271D01*
X87168Y2615D01*
Y6274D01*
D02*
G37*
%LPD*%
D12*
X615250Y473432D02*
X615307Y473375D01*
X754125D01*
X180773Y389339D02*
X181505Y388607D01*
X177935Y394881D02*
X180773Y392043D01*
X171509Y391027D02*
Y395119D01*
X180773Y389339D02*
Y392043D01*
X170935Y395693D02*
X171509Y395119D01*
Y391027D02*
X179453Y383082D01*
X177935Y394881D02*
Y395693D01*
X181505Y388399D02*
X185481Y384423D01*
X181505Y388399D02*
Y388607D01*
X167250Y372278D02*
Y381469D01*
X126995Y319779D02*
X130666Y323450D01*
X124719Y319779D02*
X126995D01*
X130666Y323450D02*
X131102D01*
X240111Y189432D02*
Y195111D01*
X239290Y188611D02*
X240111Y189432D01*
X239290Y188500D02*
Y188611D01*
X32861Y408808D02*
X33250Y408419D01*
Y403308D02*
Y408419D01*
Y403308D02*
X34250Y402308D01*
X27362Y387639D02*
X51750Y363250D01*
X27362Y421285D02*
X95060Y488984D01*
X27362Y387639D02*
Y421285D01*
X34250Y389238D02*
Y402308D01*
X43239Y380249D02*
X65423D01*
X34250Y389238D02*
X43239Y380249D01*
X65423D02*
X78060Y392886D01*
X95060Y488984D02*
Y517350D01*
X135222Y109610D02*
X139000D01*
X139000Y109610D01*
X125984Y100372D02*
X135222Y109610D01*
X125984Y100372D02*
X125984D01*
X118690Y93078D02*
X125984Y100372D01*
X95572Y444577D02*
X136895Y485900D01*
X153000D01*
X229554Y195446D02*
Y199224D01*
X237918Y207588D02*
X237918D01*
X229554Y199224D02*
X237918Y207588D01*
X229554Y195446D02*
X230000Y195000D01*
X237918Y207588D02*
X245580Y215250D01*
X315249Y337100D02*
X333944D01*
X310500Y332351D02*
X315249Y337100D01*
X310500Y323725D02*
Y332351D01*
X490500Y313250D02*
X494500Y309250D01*
X490500Y313250D02*
Y341689D01*
X483923Y348266D02*
X490500Y341689D01*
X460038Y471000D02*
X467750D01*
X458538Y472500D02*
X460038Y471000D01*
X456528Y459250D02*
X468963Y446815D01*
X452222Y459250D02*
X456528D01*
X445000Y463250D02*
X458185D01*
X449000Y456028D02*
X452222Y459250D01*
X458185Y463250D02*
X467935Y453500D01*
X455250D02*
X460250Y448500D01*
X454500Y453500D02*
X455250D01*
X811500Y448750D02*
X814250Y451500D01*
X811500Y107500D02*
Y448750D01*
X35000Y104750D02*
X41500Y111250D01*
X35000Y35000D02*
Y104750D01*
X76000Y111884D02*
Y222911D01*
X77250Y224161D01*
Y224973D01*
X73750Y317222D02*
Y326146D01*
Y317222D02*
X82318Y308654D01*
X65750Y313908D02*
Y337278D01*
Y313908D02*
X79004Y300654D01*
X73750Y326146D02*
X80750Y333146D01*
X69750Y315565D02*
Y333500D01*
X75250Y339000D01*
X65750Y337278D02*
X76500Y348028D01*
X61750Y342250D02*
X69861Y350361D01*
X61750Y312251D02*
Y342250D01*
X69750Y315565D02*
X80661Y304654D01*
X61750Y312251D02*
X77348Y296654D01*
X51750Y249448D02*
Y363250D01*
Y249448D02*
X59793Y240707D01*
X114500Y322778D02*
X124092Y332370D01*
X126202D01*
X136368Y342536D01*
X131189Y366629D02*
X133189D01*
X133684Y366135D02*
X137115D01*
X133189Y366629D02*
X133684Y366135D01*
X137115D02*
X137689Y365561D01*
X124965Y360405D02*
X131189Y366629D01*
X79639Y324257D02*
X80213Y323683D01*
X80750Y333146D02*
Y350175D01*
X82223Y323683D02*
X83428Y322478D01*
X90522D01*
X80213Y323683D02*
X82223D01*
X719037Y159213D02*
X779500Y98750D01*
X719037Y159213D02*
Y161963D01*
X658000Y223000D02*
X719037Y161963D01*
X779500Y98750D02*
X796750D01*
X719819Y308369D02*
X720631D01*
X718188Y310000D02*
X719819Y308369D01*
X635323Y310000D02*
X718188D01*
X655000Y304250D02*
X663535Y295715D01*
X772744D01*
X550500Y421421D02*
X556750Y427671D01*
X546270Y399559D02*
Y422848D01*
X550500Y398133D02*
Y421421D01*
X546270Y422848D02*
X552750Y429328D01*
X541230Y451770D02*
X552750Y440250D01*
X748500Y369500D02*
X762285Y355715D01*
X772744D01*
X619000Y122500D02*
X742000D01*
X773250Y91250D01*
X795250D01*
X811500Y107500D01*
X796750Y98750D02*
X807500Y109500D01*
Y456500D01*
X627750Y451000D02*
X769500D01*
X625472Y445500D02*
X727959D01*
X767744Y405715D01*
X624818Y446154D02*
X625472Y445500D01*
X574756Y446154D02*
X624818D01*
X759715Y255715D02*
X772744D01*
X696392Y192392D02*
X759715Y255715D01*
X583750Y192000D02*
X673750D01*
X583642Y191892D02*
X583750Y192000D01*
X584955Y231750D02*
X653750D01*
X687715Y265715D01*
X569990Y216784D02*
X584955Y231750D01*
X791000Y473000D02*
X807500Y456500D01*
X687715Y265715D02*
X772744D01*
X754125Y473375D02*
X754250Y473250D01*
X587500Y60750D02*
Y132262D01*
X559000Y32250D02*
X587500Y60750D01*
X517210Y1410D02*
X583500Y67700D01*
X137086Y1410D02*
X517210D01*
X583500Y67700D02*
Y97058D01*
X569990Y149772D02*
X587500Y132262D01*
X569990Y149772D02*
Y216784D01*
X517316Y19250D02*
X578500Y80434D01*
X578000Y93250D02*
X578500Y92750D01*
Y80434D02*
Y92750D01*
X581328Y99229D02*
X583500Y97058D01*
X561500Y103901D02*
X566172Y99229D01*
X581328D01*
X565990Y122010D02*
X578250Y109750D01*
X565990Y122010D02*
Y227240D01*
X576250Y237500D01*
X648500D01*
X686715Y275715D01*
X772744D01*
X561500Y103901D02*
Y341189D01*
X690750Y285500D02*
X759250D01*
X648000Y242750D02*
X690750Y285500D01*
X617285Y242750D02*
X648000D01*
X606582Y253452D02*
X617285Y242750D01*
X759358Y285608D02*
X772636D01*
X759250Y285500D02*
X759358Y285608D01*
X772636D02*
X772744Y285715D01*
X735961Y315926D02*
X736172Y315715D01*
X734074Y315926D02*
X735961D01*
X736172Y315715D02*
X772744D01*
X733500Y316500D02*
X734074Y315926D01*
X719000Y323222D02*
Y378250D01*
Y323222D02*
X736972Y305250D01*
X758750D01*
X727750Y353750D02*
X755500Y326000D01*
X573000Y483500D02*
X648646D01*
X771494Y405715D02*
X771804Y406025D01*
X767744Y405715D02*
X771494D01*
X648213Y441000D02*
X719750D01*
X764535Y396215D01*
X582172Y435000D02*
X715750D01*
X764535Y386215D01*
X709078Y424250D02*
X710250Y423078D01*
X593672Y424250D02*
X709078D01*
X710250Y420966D02*
Y423078D01*
X586716Y428966D02*
X712250D01*
X710250Y420966D02*
X765001Y366215D01*
X712250Y428966D02*
X765001Y376215D01*
X561500Y488649D02*
X580230Y507379D01*
X561500Y372000D02*
Y488649D01*
X556574Y385956D02*
X557479Y385051D01*
X556574Y385956D02*
Y388977D01*
X550500Y383674D02*
Y391829D01*
X555426Y396755D01*
X552110Y377682D02*
X557479Y383051D01*
X555426Y399977D02*
X556000Y400551D01*
X549328Y382503D02*
X550500Y383674D01*
X557479Y383051D02*
Y385051D01*
X555426Y396755D02*
Y399977D01*
X543457Y391090D02*
X550500Y398133D01*
X533422Y382503D02*
X549328D01*
X556000Y389551D02*
X556574Y388977D01*
X758983Y305483D02*
X772511D01*
X772744Y305715D01*
X758750Y305250D02*
X758983Y305483D01*
X734764Y354514D02*
X752204Y337074D01*
X754926D02*
X755892Y336108D01*
X752204Y337074D02*
X754926D01*
X727750Y353750D02*
Y361250D01*
X755642Y325858D02*
X772601D01*
X755500Y326000D02*
X755642Y325858D01*
X772601D02*
X772744Y325715D01*
X755892Y336108D02*
X772351D01*
X772744Y335715D01*
X754858Y345358D02*
X772386D01*
X754500Y345000D02*
X754858Y345358D01*
X772386D02*
X772744Y345715D01*
X592500Y385250D02*
Y423078D01*
X569000Y373000D02*
X585000Y389000D01*
X572021Y365509D02*
Y366185D01*
X575572Y369736D01*
X555083Y355676D02*
X559926D01*
X560500Y356250D01*
X553730Y354323D02*
X555083Y355676D01*
X553730Y262989D02*
Y354323D01*
X549250Y355500D02*
X558750Y365000D01*
X549250Y283750D02*
Y355500D01*
X558750Y365000D02*
X559500D01*
X566117Y345806D02*
Y367383D01*
X561500Y341189D02*
X566117Y345806D01*
X575572Y369736D02*
X576986D01*
X592500Y385250D01*
X561500Y372000D02*
X566117Y367383D01*
X592500Y423078D02*
X593672Y424250D01*
X765001Y366215D02*
X772244D01*
X772744Y365715D01*
X765001Y376215D02*
X772244D01*
X568974Y380924D02*
X569174D01*
X581000Y392750D01*
X554000Y219378D02*
Y262719D01*
X553730Y262989D02*
X554000Y262719D01*
X535668Y362579D02*
X538938Y359309D01*
X532250Y363750D02*
X533422Y362579D01*
X545250Y353972D02*
Y367511D01*
X547030Y369291D02*
Y369786D01*
X545250Y367511D02*
X547030Y369291D01*
Y369786D02*
X552110Y374866D01*
X533422Y362579D02*
X535668D01*
X542028Y350750D02*
X545250Y353972D01*
X516000Y181378D02*
X554000Y219378D01*
X538938Y359309D02*
X539750D01*
X552110Y374866D02*
Y377682D01*
X585000Y389000D02*
Y427250D01*
X581000Y392750D02*
Y433828D01*
X574262Y400650D02*
X575677Y402064D01*
X570820Y397500D02*
X573970Y400650D01*
X570008Y397500D02*
X570820D01*
X573970Y400650D02*
X574262D01*
X585000Y427250D02*
X586716Y428966D01*
X575677Y402064D02*
Y438828D01*
X581000Y433828D02*
X582172Y435000D01*
X764535Y386215D02*
X772244D01*
X647213Y440000D02*
X648213Y441000D01*
X576848Y440000D02*
X647213D01*
X764535Y396215D02*
X772244D01*
X575677Y438828D02*
X576848Y440000D01*
X772244Y376215D02*
X772744Y375715D01*
X532250Y368470D02*
Y381331D01*
X542841Y396130D02*
X546270Y399559D01*
X532250Y381331D02*
X533422Y382503D01*
X531340Y391090D02*
X543457D01*
X528620Y396130D02*
X542841D01*
X526520Y386270D02*
X531340Y391090D01*
X772244Y386215D02*
X772744Y385715D01*
X772244Y396215D02*
X772744Y395715D01*
X546339Y479974D02*
X556750Y469563D01*
X552750Y429328D02*
Y440250D01*
X556750Y427671D02*
Y469563D01*
X546676Y435574D02*
X547250Y435000D01*
X544926Y435574D02*
X546676D01*
X577000Y555000D02*
X580230Y551770D01*
Y507379D02*
Y551770D01*
X310510Y555000D02*
X577000D01*
X35000Y35000D02*
X51236D01*
X66986Y19250D01*
X118500D01*
X71750Y57750D02*
X104750Y24750D01*
X105000D01*
X71750Y57750D02*
Y231845D01*
X76000Y111884D02*
X76000Y111867D01*
X74799Y233681D02*
X80035Y232743D01*
X71750Y231845D02*
X73032Y233127D01*
X73586Y233681D01*
X74799D01*
X76000Y111867D02*
X76354Y70262D01*
X76933Y69684D02*
X134110Y12507D01*
X76354Y70262D02*
X76933Y69684D01*
X134110Y4386D02*
Y12507D01*
X344872Y504706D02*
X345684D01*
X346640Y503750D01*
X367294D01*
X369521Y505976D01*
X373937D01*
X374511Y506550D01*
X346743Y231007D02*
X349250Y228500D01*
X426222Y453895D02*
X430028D01*
X422951Y464194D02*
X427750Y459394D01*
X430028Y453895D02*
X431884Y455750D01*
X425919Y453591D02*
X426222Y453895D01*
X431884Y455750D02*
X437250D01*
X420906Y453591D02*
X425919D01*
X301000Y314750D02*
X308618Y307132D01*
X324318D01*
X318291Y99981D02*
Y102867D01*
X315051Y86844D02*
Y96741D01*
X318291Y99981D01*
Y102867D02*
X319500Y104076D01*
X295750Y80250D02*
X308457D01*
X312354Y84146D02*
X314918Y81582D01*
X312354Y84146D02*
X315051Y86844D01*
X308957Y80750D02*
X312354Y84146D01*
X212297Y361000D02*
X213469Y362172D01*
Y362531D01*
X216555Y365617D01*
X203000Y361000D02*
X212297D01*
X216555Y365617D02*
X217117D01*
X309935Y289658D02*
Y290558D01*
Y289658D02*
X311750Y287843D01*
Y287031D02*
Y287843D01*
Y287000D02*
X333244D01*
X303586Y230270D02*
X304323Y231007D01*
X297823Y230270D02*
X303586D01*
X304323Y231007D02*
X334743D01*
X531000Y441000D02*
X539500D01*
X544926Y435574D01*
X510250Y460000D02*
X510257Y459993D01*
Y447757D02*
Y459993D01*
X510250Y447750D02*
X510257Y447757D01*
X515074Y425074D02*
X531000Y441000D01*
X519124Y400270D02*
X519698Y400844D01*
X519124Y396524D02*
Y400270D01*
X515563Y392963D02*
X519124Y396524D01*
X515074Y421074D02*
Y425074D01*
X513721Y392963D02*
X515563D01*
X511428Y390671D02*
X513721Y392963D01*
X511428Y382185D02*
Y390671D01*
X508480Y379237D02*
X511428Y382185D01*
X508480Y375480D02*
Y379237D01*
X505000Y372000D02*
X508480Y375480D01*
X501250Y347776D02*
X505157Y351683D01*
Y358500D01*
X501227Y347754D02*
X501250D01*
Y347776D01*
Y337150D02*
Y347754D01*
Y337150D02*
X506965Y331435D01*
X514381D01*
X441000Y472500D02*
X458538D01*
X337625Y447625D02*
X338000Y448000D01*
X387426Y426837D02*
Y429975D01*
Y426837D02*
X388000Y426262D01*
X348000Y438000D02*
X372250D01*
X338000Y448000D02*
X348000Y438000D01*
X337625Y418375D02*
Y447625D01*
X374250Y436000D02*
X381401D01*
X387426Y429975D01*
X372250Y438000D02*
X374250Y436000D01*
X461980Y339730D02*
Y340500D01*
X450250Y328000D02*
X461980Y339730D01*
X450000Y328000D02*
X450250D01*
X337625Y418375D02*
X338000Y418000D01*
X413258Y365500D02*
X424000D01*
X412758Y365000D02*
X413258Y365500D01*
X529500Y299400D02*
X533750D01*
X505218Y294168D02*
Y294980D01*
X520963Y292250D02*
X522350D01*
X529500Y299400D01*
X509217Y289783D02*
X518496D01*
X520963Y292250D01*
X505218Y294168D02*
X507801Y291585D01*
Y291199D02*
Y291585D01*
Y291199D02*
X509217Y289783D01*
X524750Y242250D02*
X528500Y246000D01*
X524750Y232781D02*
Y242250D01*
X545443Y233520D02*
X545800Y233163D01*
Y222772D02*
Y233163D01*
X509250Y207250D02*
Y217281D01*
X520778Y197750D02*
X545800Y222772D01*
X509250Y217281D02*
X524750Y232781D01*
X507000Y161730D02*
Y170250D01*
X490167Y197750D02*
X520778D01*
X484834Y192416D02*
X490167Y197750D01*
X484021Y191604D02*
X484834Y192416D01*
X507000Y170250D01*
X478500Y191604D02*
X484021D01*
X505750Y110105D02*
Y110500D01*
X503020Y157750D02*
X507000Y161730D01*
X505750Y110105D02*
X507355Y108500D01*
Y84773D02*
Y108500D01*
X490750Y157750D02*
X503020D01*
X435899Y297041D02*
Y297853D01*
X450865Y289365D02*
Y290000D01*
X447750Y286250D02*
X450865Y289365D01*
X433485Y294627D02*
X435899Y297041D01*
X447007Y286250D02*
X447750D01*
X433485Y291821D02*
Y294627D01*
X431800Y290136D02*
X433485Y291821D01*
X442778Y282021D02*
X447007Y286250D01*
X436979Y282021D02*
X442778D01*
X441104Y273104D02*
X441396D01*
X451000Y263500D01*
X431800Y285050D02*
X431805Y285045D01*
X432193Y284657D02*
X434343D01*
X431800Y285050D02*
Y290136D01*
X435793Y273000D02*
X441000D01*
X434491Y271698D02*
X435793Y273000D01*
X434343Y284657D02*
X436979Y282021D01*
X376000Y293000D02*
X380250D01*
X421179Y285040D02*
X431800D01*
X347500Y288000D02*
X351500Y292000D01*
X345879Y288000D02*
X347500D01*
X333244Y287000D02*
X336000Y284244D01*
Y284144D02*
Y284244D01*
X418200Y273939D02*
Y282061D01*
Y273939D02*
X420441Y271698D01*
X418200Y282061D02*
X421179Y285040D01*
X354500Y271500D02*
X376000Y293000D01*
X420441Y271698D02*
X434491D01*
X347000Y271500D02*
X354500D01*
X339840Y281961D02*
X345879Y288000D01*
X336000Y284144D02*
X338183Y281961D01*
X339840D01*
X461799Y253389D02*
X462611D01*
X451000Y251000D02*
X459410D01*
X461799Y253389D01*
X451000Y251000D02*
Y263500D01*
X334743Y231007D02*
X346743D01*
X337737Y234000D02*
X338500D01*
X334743Y231007D02*
X337737Y234000D01*
X319500Y104076D02*
Y122278D01*
X246250Y440500D02*
X246824Y439926D01*
Y435176D02*
Y439926D01*
X297750Y423500D02*
X298000D01*
X266913Y416948D02*
X279800Y404061D01*
X282500Y399500D02*
X299000D01*
X279800Y402200D02*
Y404061D01*
Y402200D02*
X282500Y399500D01*
X246824Y435176D02*
X265052Y416948D01*
X266913D01*
X226391Y476723D02*
X233654D01*
X223418Y473750D02*
X226391Y476723D01*
X218411Y475512D02*
X220173Y473750D01*
X223418D01*
X209750Y475512D02*
X218411D01*
X207800Y409772D02*
X209072Y408500D01*
X220000D01*
X206750Y409772D02*
X207800D01*
X225000Y378750D02*
X225250D01*
X221250Y374750D02*
Y375000D01*
X225000Y378750D01*
X217500Y371000D02*
X221250Y374750D01*
X206988Y401155D02*
Y409772D01*
X205833Y400000D02*
X206988Y401155D01*
X203000Y400000D02*
X205833D01*
X283861Y338000D02*
X301000D01*
X277559Y331698D02*
X283861Y338000D01*
X269837Y331698D02*
X277559D01*
X266200Y328061D02*
X269837Y331698D01*
X222242Y330000D02*
Y342242D01*
Y330000D02*
X225000D01*
X221883Y343102D02*
Y345360D01*
X222242Y342242D02*
Y342742D01*
X217500Y366000D02*
Y371000D01*
X217117Y365617D02*
X217500Y366000D01*
X221500Y345742D02*
X221883Y345360D01*
Y343102D02*
X222242Y342742D01*
X216070Y342242D02*
X222242D01*
X217992Y325750D02*
X222242Y330000D01*
X203000Y341500D02*
X215327D01*
X216070Y342242D01*
X214250Y325750D02*
X217992D01*
X167980Y456230D02*
X168250Y456500D01*
X167980Y442480D02*
Y456230D01*
X164500Y439000D02*
X167980Y442480D01*
X161020Y435520D02*
X164500Y439000D01*
X161020Y433382D02*
Y435520D01*
X155630Y430190D02*
X157828D01*
X161020Y433382D01*
X153500Y428060D02*
X155630Y430190D01*
X166500Y411324D02*
Y417000D01*
X165250Y410074D02*
X166500Y411324D01*
X165250Y409743D02*
Y410074D01*
X161987Y406480D02*
X165250Y409743D01*
X153875Y410318D02*
X157714Y406480D01*
X161987D01*
X153500Y417000D02*
Y428060D01*
Y417000D02*
X153875Y416625D01*
X147000Y417000D02*
X153500D01*
X153875Y410318D02*
Y416625D01*
X107979Y495658D02*
X117095D01*
X96348Y484027D02*
X107979Y495658D01*
X96348Y478783D02*
Y484027D01*
X84755Y467190D02*
X96348Y478783D01*
X84750Y467190D02*
X84755D01*
X22750Y448750D02*
X23000Y448500D01*
X44440D01*
X87750Y439750D02*
Y445250D01*
X80000Y432000D02*
X87750Y439750D01*
X44440Y448500D02*
X75750Y479810D01*
X80000Y430000D02*
Y432000D01*
X127000Y386000D02*
X131500Y381500D01*
X137500D02*
X138000Y381000D01*
X131500Y381500D02*
X137500D01*
X133891Y354937D02*
X134526D01*
X110334Y397500D02*
X111000D01*
X91000Y400000D02*
X107834D01*
X110334Y397500D01*
X103431Y374000D02*
X108000Y378569D01*
X91000Y374000D02*
X103431D01*
X91000Y367500D02*
Y374000D01*
X301000Y298500D02*
X301250D01*
X306414Y293336D01*
X297250Y302250D02*
X301000Y298500D01*
X306414Y293336D02*
X307157D01*
X309935Y290558D01*
X266200Y319939D02*
X283889Y302250D01*
X297250D01*
X266200Y319939D02*
Y328061D01*
X304010Y135990D02*
X312507Y127493D01*
X314285D01*
X319500Y122278D01*
X294500Y81500D02*
X295750Y80250D01*
X286758Y82930D02*
X288188Y81500D01*
X294500D01*
X283060Y84940D02*
X285070Y82930D01*
X286758D01*
X210875Y322375D02*
X214250Y325750D01*
X207875Y322375D02*
X210875D01*
X218750Y296500D02*
X221750Y299500D01*
X210250Y296500D02*
X218750D01*
X208375Y294625D02*
X210250Y296500D01*
X207500Y322000D02*
X207875Y322375D01*
X206595Y322000D02*
X207000Y321595D01*
X203000Y322000D02*
X206595D01*
X203000D02*
X208375Y316625D01*
Y294625D02*
Y316625D01*
Y294187D02*
Y294625D01*
X134701Y300025D02*
Y304291D01*
X208426Y292574D02*
X209000Y292000D01*
X208375Y294187D02*
X208426Y294136D01*
Y292574D02*
Y294136D01*
X164519Y283519D02*
Y292277D01*
X162890Y281890D02*
X164519Y283519D01*
X90522Y322478D02*
X91000Y322000D01*
X132750Y297825D02*
Y298074D01*
X133305Y292277D02*
X164519D01*
X132750Y298074D02*
X134701Y300025D01*
X130000Y295075D02*
X132750Y297825D01*
X130000Y289250D02*
Y295075D01*
X130278Y289250D02*
X133305Y292277D01*
X130000Y289250D02*
X130278D01*
X75000Y284000D02*
X86055Y272945D01*
Y259166D02*
Y272945D01*
X129770Y90230D02*
X140000Y80000D01*
X430361Y230500D02*
X432576Y232715D01*
X442293D01*
X437529Y220755D02*
Y221215D01*
X458748Y230250D02*
X474000Y245502D01*
X442293Y232715D02*
X444757Y230250D01*
X458748D01*
X412186Y230500D02*
X430361D01*
X437529Y220755D02*
X444114Y214171D01*
X131500Y182000D02*
Y182500D01*
X163042Y154730D02*
X170270D01*
X131500Y182500D02*
X138500Y189500D01*
X157500Y160272D02*
X163042Y154730D01*
X138500Y189500D02*
X155743D01*
X157500Y160272D02*
Y187743D01*
X155743Y189500D02*
X157500Y187743D01*
X328232Y90384D02*
X332396Y86219D01*
X337650Y98951D02*
Y100306D01*
X333732Y95032D02*
X337650Y98951D01*
X328232Y90384D02*
Y95779D01*
X328291Y95839D01*
Y98725D01*
X329500Y99934D01*
X337650Y100306D02*
X337750Y100406D01*
X151284Y394299D02*
X154882Y390700D01*
X122778Y397713D02*
X144928D01*
X148342Y394299D02*
X151284D01*
X154882Y390700D02*
X164878D01*
X144928Y397713D02*
X148342Y394299D01*
X138230Y322800D02*
Y326310D01*
X127875Y312445D02*
X138230Y322800D01*
X268750Y119792D02*
Y133078D01*
X257228Y108270D02*
X268750Y119792D01*
X256500Y108270D02*
X257228D01*
X236000Y87770D02*
X256500Y108270D01*
X262500Y75536D02*
X268455Y69581D01*
X262500Y75536D02*
Y90000D01*
X263243Y65000D02*
X269046Y59197D01*
X303015Y67500D02*
X317099D01*
X298231Y62716D02*
X303015Y67500D01*
X317099D02*
X327000Y77401D01*
X269046Y59197D02*
X286419D01*
X289938Y62716D01*
X327000Y77401D02*
Y78425D01*
X329714Y81139D01*
X347122D01*
X329500Y99934D02*
Y102763D01*
X337750Y100406D02*
Y135087D01*
X329500Y102763D02*
X331440Y104703D01*
X264059Y236750D02*
X280040Y220770D01*
X260773Y232750D02*
X276753Y216770D01*
X335324Y224769D02*
X335343Y224750D01*
X276753Y216770D02*
X331474D01*
X338713Y209530D01*
X295545Y224769D02*
X335324D01*
X280040Y220770D02*
X333667D01*
X283500Y236814D02*
Y237500D01*
Y236814D02*
X295545Y224769D01*
X333667Y220770D02*
X339826Y214610D01*
X335343Y224750D02*
X337862D01*
X342922Y219690D01*
X380220Y187750D02*
X394500Y173470D01*
X347411Y187750D02*
X380220D01*
X341231Y193929D02*
X347411Y187750D01*
X80661Y304654D02*
X91021D01*
X98750Y296168D02*
X106059Y288860D01*
X91021Y304654D02*
X98750Y296925D01*
X128927Y259000D02*
X138677Y249250D01*
X94750Y294512D02*
X125802Y263460D01*
X90750Y292855D02*
X124605Y259000D01*
X128927D01*
X94750Y294512D02*
Y295268D01*
X89364Y300654D02*
X94750Y295268D01*
X138677Y249250D02*
X205832D01*
X98750Y296168D02*
Y296925D01*
X79004Y300654D02*
X89364D01*
X125802Y263460D02*
X132638D01*
X106059Y288860D02*
X110570D01*
X132638Y263460D02*
X132848Y263250D01*
X134448Y261650D01*
X209648D01*
X497862Y364000D02*
X525081D01*
X496440Y365422D02*
Y378578D01*
Y365422D02*
X497862Y364000D01*
X451946Y361678D02*
X488100D01*
X436268Y346000D02*
X451946Y361678D01*
X378469Y369237D02*
Y377815D01*
X374469Y379472D02*
X406500Y411503D01*
X414352Y413698D02*
Y418352D01*
X340999Y354750D02*
X351743D01*
X402500Y413160D02*
Y419204D01*
X397179Y407839D02*
X402500Y413160D01*
X374469Y377476D02*
Y379472D01*
X406500Y411503D02*
Y422388D01*
X378469Y377815D02*
X414352Y413698D01*
Y418352D02*
X416000Y420000D01*
X394383Y407839D02*
X397179D01*
X409198Y346000D02*
X436268D01*
X405615Y349583D02*
X409198Y346000D01*
X405003Y349583D02*
X405615D01*
X391880Y210194D02*
X412186Y230500D01*
X444114Y214171D02*
X460829D01*
X264704Y277000D02*
X275861D01*
X257278Y275231D02*
Y285500D01*
X214705Y262250D02*
X245231D01*
X232984Y240750D02*
X265716D01*
X265768Y240698D01*
X255843Y268139D02*
X264704Y277000D01*
X255843Y266913D02*
Y268139D01*
X247180Y258250D02*
X255843Y266913D01*
X225291Y258250D02*
X247180D01*
X128602Y271626D02*
X129574Y270653D01*
X279861Y243000D02*
X285778D01*
X209705Y267250D02*
X214705Y262250D01*
X239268Y218750D02*
X241268Y220750D01*
X239611Y224750D02*
X254935D01*
X212332Y242750D02*
X229327D01*
X254935Y224750D02*
X272435Y207250D01*
X251254Y268274D02*
Y269207D01*
X237611Y222750D02*
X239611Y224750D01*
X285778Y243000D02*
X288028Y240750D01*
X237954Y228750D02*
X257645D01*
X234641Y236750D02*
X264059D01*
X257645Y228750D02*
X274235Y212160D01*
X245231Y262250D02*
X251254Y268274D01*
X265768Y240698D02*
X277559D01*
X253278Y220750D02*
X270778Y203250D01*
X288028Y240750D02*
X292757D01*
X236297Y232750D02*
X260773D01*
X224291Y257250D02*
X225291Y258250D01*
X232640Y234750D02*
X234641Y236750D01*
X256750Y244750D02*
X273000Y261000D01*
X235954Y226750D02*
X237954Y228750D01*
X292757Y240750D02*
X294007Y239500D01*
X241268Y220750D02*
X253278D01*
X251254Y269207D02*
X257278Y275231D01*
X129574Y270653D02*
X131102D01*
X134505Y267250D01*
X231327Y244750D02*
X256750D01*
X134505Y267250D02*
X209705D01*
X229327Y242750D02*
X231327Y244750D01*
X234297Y230750D02*
X236297Y232750D01*
X222772Y257250D02*
X224291D01*
X230984Y238750D02*
X232984Y240750D01*
X215048Y256250D02*
X221772D01*
X222772Y257250D01*
X209648Y261650D02*
X215048Y256250D01*
X275861Y277000D02*
X281500Y282639D01*
X273000Y247000D02*
X299500D01*
X309481Y243500D02*
X338185D01*
X306828Y246152D02*
X309481Y243500D01*
X338185D02*
X345435Y250750D01*
X366314D02*
X367802Y252238D01*
Y272102D02*
X376000Y280300D01*
X367802Y252238D02*
Y272102D01*
X299500Y247000D02*
X300000Y247500D01*
X376000Y280300D02*
X380250D01*
X300000Y247500D02*
X301348Y246152D01*
X306828D01*
X345435Y250750D02*
X366314D01*
X271000Y16250D02*
X310250Y55500D01*
X337845D01*
X230928Y16250D02*
X271000D01*
X82318Y308654D02*
X96095D01*
X102750Y301999D01*
X77348Y296654D02*
X87708D01*
X90750Y293611D01*
X80035Y232743D02*
X81207Y231571D01*
Y228793D02*
Y231571D01*
X80435Y251560D02*
X103188D01*
X74000Y245125D02*
X80435Y251560D01*
X79260Y240506D02*
X83423Y245540D01*
X84403Y246520D01*
X76750Y364500D02*
X77562D01*
X69250Y364222D02*
X76500Y356972D01*
X77562Y364500D02*
X80750Y361312D01*
X76500Y348028D02*
Y356972D01*
X90688Y361312D02*
X91000Y361000D01*
X80750Y361312D02*
X90688D01*
X69250Y364222D02*
Y371175D01*
X532250Y363750D02*
Y368470D01*
X225888Y430750D02*
X239170D01*
X262230Y407690D01*
X218365Y438273D02*
X225888Y430750D01*
X177250Y271250D02*
X187750Y281750D01*
X197691Y287172D02*
X198863Y286000D01*
X187750Y281750D02*
X234000D01*
X228750Y286000D02*
X248000Y305250D01*
X234000Y281750D02*
X253080Y300830D01*
X198863Y286000D02*
X228750D01*
X216708Y438273D02*
X218365D01*
X220022Y442273D02*
X224506Y437789D01*
X211528Y438750D02*
X215051Y442273D01*
X220022D01*
X199722Y438750D02*
X211528D01*
X212259Y433824D02*
X216708Y438273D01*
X209574Y433824D02*
X212259D01*
X198550Y435922D02*
Y437578D01*
X213250Y448250D02*
X219702D01*
X198550Y435922D02*
X208500Y425972D01*
X209000Y433250D02*
X209574Y433824D01*
X198550Y437578D02*
X199722Y438750D01*
X209250Y444250D02*
X213250Y448250D01*
X219702D02*
X225952Y442000D01*
X169742Y465770D02*
X193651D01*
X194219Y465202D01*
X195531Y470310D02*
X196099Y469742D01*
X194219Y465202D02*
X215273D01*
X196099Y469742D02*
X217154D01*
X217686Y469210D01*
X215273Y465202D02*
X219172Y461303D01*
X164516Y470310D02*
X195531D01*
X304243Y487130D02*
X306903Y489790D01*
X163097Y487130D02*
X304243D01*
X155206Y479239D02*
X163097Y487130D01*
X149197Y462175D02*
X169892Y482870D01*
X380763D02*
X381573Y482060D01*
X169892Y482870D02*
X380763D01*
X217686Y469210D02*
X220189D01*
X502750Y417093D02*
Y418750D01*
X504019Y415824D02*
X508426D01*
X502750Y417093D02*
X504019Y415824D01*
X508426D02*
X509000Y415250D01*
X502750Y418750D02*
X524730Y440730D01*
X168739Y401918D02*
X186103D01*
X169273Y387223D02*
X172750Y383747D01*
X155833Y401940D02*
X163104D01*
X164221Y397400D02*
X168739Y401918D01*
X163104Y401940D02*
X167622Y406458D01*
X164878Y390700D02*
X168355Y387223D01*
X172750Y372435D02*
Y383747D01*
X167622Y406458D02*
X195896D01*
X168355Y387223D02*
X169273D01*
X153953Y397400D02*
X164221D01*
X129944Y376500D02*
X134660D01*
X137730Y373430D02*
X138541D01*
X134660Y376500D02*
X137730Y373430D01*
X135750Y332500D02*
X136324Y331926D01*
Y328216D02*
Y331926D01*
Y328216D02*
X138230Y326310D01*
X106500Y476888D02*
Y486000D01*
X101033Y471421D02*
X106500Y476888D01*
X467856Y462107D02*
X468668D01*
X470962Y464400D01*
X478750D01*
X480750Y466400D01*
X298500Y362743D02*
X299257Y363500D01*
X277472Y372000D02*
X316434D01*
X290722Y368000D02*
X322092D01*
X316434Y372000D02*
X338934Y394500D01*
X279452Y356730D02*
X290722Y368000D01*
X276185Y356730D02*
X279452D01*
X322092Y368000D02*
X330500Y359592D01*
X293243Y362743D02*
X298500D01*
X293000Y362500D02*
X293243Y362743D01*
X273318Y367847D02*
X277472Y372000D01*
X299257Y363500D02*
X320935D01*
X503750Y250250D02*
X505676Y248324D01*
X503750Y250250D02*
Y272750D01*
X352464Y285903D02*
X353181D01*
X349062Y282500D02*
X352464Y285903D01*
X342672Y277000D02*
X353876D01*
X341500Y275828D02*
X342672Y277000D01*
X341500Y274772D02*
Y275828D01*
X353181Y285903D02*
X357000Y289722D01*
X348250Y282500D02*
X349062D01*
X353876Y277000D02*
X359750Y282874D01*
X309172Y273600D02*
X340328D01*
X341500Y274772D01*
X357000Y289722D02*
Y298065D01*
X497250Y406500D02*
Y477939D01*
X494270Y480919D02*
X497250Y477939D01*
X460250Y441440D02*
Y448500D01*
X480750Y402900D02*
Y415600D01*
X452988Y402900D02*
X480750D01*
X449770Y430960D02*
X460250Y441440D01*
X449770Y406118D02*
X452988Y402900D01*
X449770Y406118D02*
Y430960D01*
X441250Y459500D02*
X445000Y463250D01*
X467935Y453500D02*
X471278D01*
X471528Y453750D01*
X480700D01*
X480750Y453700D01*
X437250Y455750D02*
X441000Y459500D01*
X416498Y458000D02*
X420906Y453591D01*
X416000Y458000D02*
X416498D01*
X445000Y449507D02*
X449000Y453507D01*
Y456028D01*
X468963Y444496D02*
Y446815D01*
X454810Y411888D02*
Y430343D01*
X468963Y444496D01*
X476500Y428300D02*
X480750D01*
X416000Y434000D02*
X441750D01*
X469730Y421530D02*
X476500Y428300D01*
X441750Y434000D02*
X445000Y437250D01*
Y449507D01*
X469730Y409428D02*
Y421530D01*
X468242Y407940D02*
X469730Y409428D01*
X458758Y407940D02*
X468242D01*
X454810Y411888D02*
X458758Y407940D01*
X512000Y404500D02*
X514907D01*
X516657Y406250D02*
X518685D01*
X514907Y404500D02*
X516657Y406250D01*
X531000Y415600D02*
X535250D01*
X518685Y406250D02*
X518779Y406344D01*
X521744D01*
X531000Y415600D01*
X535250Y402900D02*
Y414778D01*
Y415600D01*
X501110Y393610D02*
X512000Y404500D01*
X497860Y393610D02*
X501110D01*
X495000Y390750D02*
X497860Y393610D01*
X452258Y390750D02*
X495000D01*
X450770Y389262D02*
X452258Y390750D01*
X450721Y375639D02*
X450770Y375688D01*
Y389262D01*
X450721Y373722D02*
Y375639D01*
X449306Y372308D02*
X450721Y373722D01*
X445812Y370250D02*
X447869Y372308D01*
X449306D01*
X445000Y370250D02*
X445812D01*
X476500Y441000D02*
X480750D01*
X342000Y166019D02*
Y171777D01*
X336086Y177691D02*
X342000Y171777D01*
X336481Y160500D02*
X342000Y166019D01*
X329804Y177691D02*
X336086D01*
X327994Y160500D02*
X333694D01*
X336481D01*
X327994Y179500D02*
X329804Y177691D01*
X327994Y144842D02*
Y159965D01*
Y144842D02*
X337750Y135087D01*
X510343Y408500D02*
X513250D01*
X523014Y416236D02*
Y420314D01*
X531000Y428300D01*
X517028Y410250D02*
X523014Y416236D01*
X515000Y410250D02*
X517028D01*
X513250Y408500D02*
X515000Y410250D01*
X531000Y428300D02*
X535250D01*
X500533Y398690D02*
X510343Y408500D01*
X494690Y398690D02*
X500533D01*
X491790Y395790D02*
X494690Y398690D01*
X441210Y395790D02*
X491790D01*
X434500Y402500D02*
X441210Y395790D01*
X419252Y402500D02*
X434500D01*
X417807Y401054D02*
X419252Y402500D01*
X417807Y397807D02*
Y401054D01*
X416000Y396000D02*
X417807Y397807D01*
X480750Y466400D02*
Y479100D01*
X483923Y348266D02*
Y349923D01*
X488000Y354000D01*
X535250Y466400D02*
Y479100D01*
X531663Y466400D02*
X535250D01*
X529933Y464670D02*
X531663Y466400D01*
X528445Y459970D02*
X529933Y461458D01*
Y464670D01*
X526944Y459970D02*
X528445D01*
X524730Y457756D02*
X526944Y459970D01*
X524730Y440730D02*
Y457756D01*
X520032Y388530D02*
X521021D01*
X528620Y396130D01*
X518000Y386498D02*
X520032Y388530D01*
X539500Y453700D02*
X541230Y451970D01*
Y451770D02*
Y451970D01*
X535250Y453700D02*
X539500D01*
X518000Y372000D02*
Y386498D01*
X308000Y274772D02*
X309172Y273600D01*
X308000Y274772D02*
Y275078D01*
X351743Y354750D02*
X374469Y377476D01*
X330500Y359592D02*
X339342Y350750D01*
X334500Y361249D02*
X340999Y354750D01*
X352247Y350750D02*
X360250Y342747D01*
X339342Y350750D02*
X352247D01*
X301000Y314750D02*
Y324000D01*
X272000Y185000D02*
X273500Y183500D01*
Y167250D02*
Y183500D01*
X270950Y164700D02*
X273500Y167250D01*
X36771Y418969D02*
Y419745D01*
Y418969D02*
X41011Y414729D01*
X42086D02*
X43500Y413315D01*
X41011Y414729D02*
X42086D01*
X81752Y454530D02*
X98397D01*
X53544Y426322D02*
X81752Y454530D01*
X51706Y426322D02*
X53544D01*
X51887Y430322D02*
X80635Y459070D01*
X47883Y422500D02*
X51706Y426322D01*
X47750Y422500D02*
X47883D01*
X45472Y417000D02*
X52000D01*
X56250Y421250D01*
X80635Y459070D02*
X95809D01*
X47794Y430322D02*
X51887D01*
X42250Y424778D02*
X47794Y430322D01*
X42250Y420222D02*
Y424778D01*
Y420222D02*
X45472Y417000D01*
X43500Y402378D02*
Y413315D01*
X31028Y456028D02*
X69810Y494810D01*
X116795Y391730D02*
X122778Y397713D01*
X120128Y433060D02*
X125162D01*
X133522Y417478D02*
X134000Y417000D01*
X133522Y417478D02*
Y424700D01*
X125162Y433060D02*
X133522Y424700D01*
X273498Y285000D02*
X282998Y294500D01*
X304500Y281750D02*
X308972D01*
X292768Y279740D02*
X296257Y276250D01*
X292768Y279740D02*
Y287010D01*
X281500Y282639D02*
Y287278D01*
X296257Y276250D02*
X306828D01*
X282998Y294500D02*
X290935D01*
X284722Y290500D02*
X289278D01*
X292768Y287010D01*
X290935Y294500D02*
X294685Y290750D01*
X295500D01*
X304500Y281750D01*
X281500Y287278D02*
X284722Y290500D01*
X263080Y291302D02*
X271828D01*
X273000Y292474D02*
Y299000D01*
X271828Y291302D02*
X273000Y292474D01*
X277559Y240698D02*
X279861Y243000D01*
X294007Y239500D02*
X340058D01*
X204175Y245250D02*
X210675Y238750D01*
X121000Y316060D02*
X124719Y319779D01*
X121000Y305000D02*
Y316060D01*
X127875Y305375D02*
Y312445D01*
X127500Y305000D02*
X127875Y305375D01*
X114500Y305000D02*
Y322778D01*
X155060Y342327D02*
X168250Y355517D01*
X155060Y330010D02*
X172625Y312445D01*
X155060Y330010D02*
Y342327D01*
X171000Y331307D02*
Y345996D01*
X172750Y372435D02*
X177750Y367435D01*
X181750Y367766D02*
X187984Y374000D01*
X174922Y317663D02*
X178987D01*
X167000Y325585D02*
Y348514D01*
X173750Y355263D02*
Y365778D01*
X171000Y331307D02*
X183057Y319250D01*
X176500Y334250D02*
X181750Y339500D01*
X167000Y325585D02*
X174922Y317663D01*
X171000Y345996D02*
X177750Y352746D01*
X181750Y339500D02*
Y367766D01*
X168250Y355517D02*
Y363500D01*
X177750Y352746D02*
Y367435D01*
X167000Y348514D02*
X173750Y355263D01*
X167250Y372278D02*
X173750Y365778D01*
X187984Y374000D02*
X203000D01*
X390176Y338676D02*
X390750Y339250D01*
X390176Y336776D02*
Y338676D01*
X384500Y331100D02*
X390176Y336776D01*
X380250Y318400D02*
Y331100D01*
X384500D01*
X349250Y319250D02*
Y343059D01*
X345809Y346500D02*
X349250Y343059D01*
X337935Y346500D02*
X345809D01*
X320935Y363500D02*
X326500Y357935D01*
Y357935D02*
Y357935D01*
Y357935D02*
X337935Y346500D01*
X179453Y382291D02*
Y383082D01*
X183091Y378653D02*
X189169D01*
X179453Y382291D02*
X183091Y378653D01*
X189169D02*
X191016Y380500D01*
X324161Y510271D02*
Y526761D01*
X337400Y540000D01*
X313760Y499870D02*
X324161Y510271D01*
X302728Y499870D02*
X313760D01*
X133949Y497210D02*
X300068D01*
X302728Y499870D01*
X95809Y459070D02*
X133949Y497210D01*
X184750Y311926D02*
X186000Y310676D01*
X184750Y311926D02*
Y312175D01*
X186000Y305000D02*
Y310676D01*
X181675Y315250D02*
X184750Y312175D01*
X181401Y315250D02*
X181675D01*
X178987Y317663D02*
X181401Y315250D01*
X257278Y285500D02*
X263080Y291302D01*
X91375Y348375D02*
X99972D01*
X108558Y356960D01*
X110405D01*
X129944Y376500D01*
X91000Y348000D02*
X91375Y348375D01*
X128602Y271626D02*
X128602D01*
X124037Y276190D02*
X128602Y271626D01*
X110570Y288860D02*
X123240Y276190D01*
X124037D01*
X349505Y488240D02*
X382634D01*
X410130Y466628D02*
X415502Y472000D01*
X410130Y464102D02*
Y466628D01*
X406310Y460282D02*
X410130Y464102D01*
X406310Y453310D02*
Y460282D01*
X401310Y448310D02*
X406310Y453310D01*
X391648Y448310D02*
X401310D01*
X415502Y472000D02*
X416000D01*
X107360Y417640D02*
X108000Y417000D01*
X103520Y426480D02*
X107360Y422640D01*
X103520Y445398D02*
X137362Y479239D01*
X155206D01*
X107360Y417640D02*
Y422640D01*
X103520Y426480D02*
Y445398D01*
X306903Y489790D02*
X347955D01*
X349505Y488240D01*
X387456Y452502D02*
Y483418D01*
Y452502D02*
X391648Y448310D01*
X382634Y488240D02*
X387456Y483418D01*
X410910Y250776D02*
Y269915D01*
X410200Y270625D02*
Y285375D01*
Y270625D02*
X410910Y269915D01*
X405500Y329000D02*
X424000D01*
X398587Y322087D02*
X405500Y329000D01*
X398587Y305981D02*
Y322087D01*
Y305981D02*
X410910Y293658D01*
X339826Y214610D02*
X349287D01*
X202518Y241250D02*
X209018Y234750D01*
X232640D01*
X135215Y241250D02*
X202518D01*
X78278Y289500D02*
X118938Y248840D01*
X127625D02*
X135215Y241250D01*
X118938Y248840D02*
X127625D01*
X376640Y216506D02*
X410910Y250776D01*
X349287Y214610D02*
X352787Y211110D01*
X376640Y216318D02*
Y216506D01*
X352787Y211110D02*
X371432D01*
X376640Y216318D01*
X91000Y328500D02*
X104834D01*
X116300Y341854D02*
Y342519D01*
X104834Y328500D02*
X112217Y335883D01*
Y337771D02*
X116300Y341854D01*
X112217Y335883D02*
Y337771D01*
X410910Y286085D02*
Y293658D01*
X410200Y285375D02*
X410910Y286085D01*
X72250Y292000D02*
X73062D01*
X75562Y289500D01*
X78278D01*
X172625Y305375D02*
Y312445D01*
Y305375D02*
X173000Y305000D01*
X95060Y517350D02*
X105126Y527416D01*
X274016D01*
X286600Y540000D01*
X205832Y249250D02*
X212332Y242750D01*
X104648Y344088D02*
Y346630D01*
X118725Y354394D02*
X119195Y354865D01*
X104648Y346630D02*
X110438Y352420D01*
X112285D01*
X114259Y354394D01*
X118725D01*
X91000Y341500D02*
X102060D01*
X104648Y344088D01*
X90750Y292855D02*
Y293611D01*
X191016Y380500D02*
X203000D01*
X264690Y452690D02*
X269470Y457470D01*
X243486Y452690D02*
X244020Y453224D01*
X253456D02*
X253990Y452690D01*
X244020Y453224D02*
X253456D01*
X253990Y452690D02*
X264690D01*
X236891D02*
X243486D01*
X269470Y457470D02*
Y457968D01*
X271502Y460000D01*
X272000D01*
X118640Y434548D02*
Y438640D01*
Y434548D02*
X120128Y433060D01*
X118640Y438640D02*
X127810Y447810D01*
X145721D01*
X147684Y449773D01*
X153745D01*
X169742Y465770D01*
X219172Y461303D02*
X228278D01*
X236891Y452690D01*
X340058Y239500D02*
X340558Y240000D01*
X210675Y238750D02*
X230984D01*
X136871Y245250D02*
X204175D01*
X128821Y253300D02*
X136871Y245250D01*
X125375Y253300D02*
X128821D01*
X109728Y345290D02*
X112318Y347880D01*
X109728Y341984D02*
Y345290D01*
X342308Y241750D02*
X348750D01*
X114166Y347880D02*
X115380Y349095D01*
X124965Y352475D02*
Y360405D01*
X91000Y335000D02*
X102744D01*
X109728Y341984D01*
X341308Y240750D02*
X342308Y241750D01*
X115380Y349095D02*
X121585D01*
X124965Y352475D01*
X112318Y347880D02*
X114166D01*
X123675Y255000D02*
X125375Y253300D01*
X85566Y290205D02*
Y291017D01*
Y290205D02*
X88588Y287183D01*
Y284847D02*
Y287183D01*
X121138Y255000D02*
X123675D01*
X88588Y284847D02*
X102472Y270963D01*
X105175D02*
X121138Y255000D01*
X102472Y270963D02*
X105175D01*
X83115Y405685D02*
X111739D01*
X78060Y400630D02*
X83115Y405685D01*
X111739D02*
X115506Y401918D01*
X78060Y392886D02*
Y400630D01*
X115506Y401918D02*
X146380D01*
X149919Y398379D02*
X152974D01*
X153953Y397400D01*
X146380Y401918D02*
X149919Y398379D01*
X191687Y393790D02*
X202710D01*
X203000Y393500D01*
X189483Y395994D02*
X191687Y393790D01*
X189483Y395994D02*
Y398538D01*
X186103Y401918D02*
X189483Y398538D01*
X179875Y291125D02*
X180250Y290750D01*
X179875Y291125D02*
Y304625D01*
X179500Y305000D02*
X179875Y304625D01*
X134110Y4386D02*
X137086Y1410D01*
X290274Y527184D02*
X298722Y535632D01*
Y543212D01*
X272628Y517118D02*
X282694Y527184D01*
X290274D01*
X263718Y517118D02*
X272628D01*
X261200Y514600D02*
X263718Y517118D01*
X298722Y543212D02*
X310510Y555000D01*
X197691Y287172D02*
Y306337D01*
X184778Y319250D02*
X197691Y306337D01*
X248000Y305250D02*
Y320848D01*
X183057Y319250D02*
X184778D01*
X106840Y393500D02*
X108610Y391730D01*
X91000Y393500D02*
X106840D01*
X108610Y391730D02*
X116795D01*
X248000Y320848D02*
X258200Y331048D01*
Y335150D01*
X346972Y313750D02*
X351528D01*
X343750Y316972D02*
X346972Y313750D01*
X343750Y316972D02*
Y334096D01*
X362528Y314500D02*
X365750Y317722D01*
X352278Y314500D02*
X362528D01*
X365750Y356518D02*
X378469Y369237D01*
X351528Y313750D02*
X352278Y314500D01*
X365750Y317722D02*
Y356518D01*
X258200Y335150D02*
X270986Y347936D01*
X289350D01*
X300914Y359500D01*
X319278D02*
X322500Y356278D01*
Y355346D02*
X343750Y334096D01*
X322500Y355346D02*
Y356278D01*
X300914Y359500D02*
X319278D01*
X414200Y272282D02*
Y283718D01*
Y272282D02*
X415990Y270492D01*
X200861Y237250D02*
X207361Y230750D01*
X234297D01*
X133558Y237250D02*
X200861D01*
X109908Y244840D02*
X125968D01*
X133558Y237250D01*
X350683Y206030D02*
X373536D01*
X381720Y214402D02*
X415990Y248672D01*
X381720Y214214D02*
Y214402D01*
X373536Y206030D02*
X381720Y214214D01*
X347183Y209530D02*
X350683Y206030D01*
X338713Y209530D02*
X347183D01*
X420180Y289698D02*
X422698D01*
X425000Y292000D01*
X415990Y248672D02*
Y270492D01*
X414200Y283718D02*
X420180Y289698D01*
X103188Y251560D02*
X109908Y244840D01*
X356500Y397500D02*
Y404750D01*
X353500Y394500D02*
X356500Y397500D01*
X272847Y367847D02*
X273318D01*
X329500Y499422D02*
Y506700D01*
X337400Y514600D01*
X330672Y498250D02*
X389000D01*
X329500Y499422D02*
X330672Y498250D01*
X389000D02*
X399280Y487970D01*
X396456Y478172D02*
X399280Y480996D01*
Y487970D01*
X396456Y469294D02*
X396500Y469250D01*
X396456Y469294D02*
Y478172D01*
X338934Y394500D02*
X353500D01*
X187155Y417375D02*
X195847D01*
X199472Y421000D01*
X200000D01*
X186000Y417000D02*
X186780D01*
X187155Y417375D01*
X249772Y542518D02*
X258682D01*
X261200Y540000D01*
X240630Y551660D02*
X249772Y542518D01*
X69810Y494810D02*
Y542900D01*
X78570Y551660D02*
X240630D01*
X69810Y542900D02*
X78570Y551660D01*
X253080Y300830D02*
Y319307D01*
X136162Y271250D02*
X177250D01*
X116000Y291412D02*
X136162Y271250D01*
X80750Y350175D02*
X83825Y353250D01*
X270698Y335698D02*
X273000Y338000D01*
X262200Y329718D02*
X268180Y335698D01*
X270698D01*
X253080Y319307D02*
X262200Y328427D01*
Y329718D01*
X85323Y354500D02*
X91000D01*
X84073Y353250D02*
X85323Y354500D01*
X83825Y353250D02*
X84073D01*
X102750Y297825D02*
X106635Y293940D01*
X102750Y297825D02*
Y301999D01*
X116000Y291412D02*
Y293940D01*
X106635D02*
X116000D01*
X95000Y415405D02*
Y430000D01*
X90780Y411185D02*
X95000Y415405D01*
X160375Y417375D02*
Y424445D01*
X169060Y428060D02*
X177000Y436000D01*
X95572Y430572D02*
Y444577D01*
X177000Y436000D02*
Y460000D01*
X160375Y424445D02*
X163990Y428060D01*
X169060D01*
X160000Y417000D02*
X160375Y417375D01*
X95000Y430000D02*
X95572Y430572D01*
X246079Y448099D02*
X246124Y448144D01*
X228443Y448099D02*
X246079D01*
X246124Y448144D02*
X251352D01*
X255048Y444448D01*
Y436846D02*
Y444448D01*
X267016Y424878D02*
X271122D01*
X255048Y436846D02*
X267016Y424878D01*
X117621Y428020D02*
X123494D01*
X127020Y424493D01*
X113600Y432041D02*
Y440728D01*
Y432041D02*
X117621Y428020D01*
X127125Y417375D02*
Y423761D01*
Y417375D02*
X127500Y417000D01*
X127020Y423866D02*
X127125Y423761D01*
X127020Y423866D02*
Y424493D01*
X113600Y440728D02*
X125762Y452890D01*
X143617D01*
X147822Y457095D01*
X151301D02*
X164516Y470310D01*
X147822Y457095D02*
X151301D01*
X226239Y450303D02*
X228443Y448099D01*
X226000Y455803D02*
X226239Y455564D01*
X222500Y466899D02*
X228857D01*
X220189Y469210D02*
X222500Y466899D01*
X226239Y450303D02*
Y455564D01*
X228857Y466899D02*
X229000Y466755D01*
X306828Y276250D02*
X308000Y275078D01*
X359750Y282874D02*
Y286815D01*
X361000Y288065D01*
Y307315D01*
X382255Y338533D02*
X398674Y354952D01*
Y370608D01*
X373489Y338533D02*
X382255D01*
X414324Y380325D02*
X416000Y382000D01*
X408390Y380325D02*
X414324D01*
X398674Y370608D02*
X408390Y380325D01*
X369750Y334794D02*
X373489Y338533D01*
X361000Y307315D02*
X369750Y316065D01*
Y334794D01*
X84949Y386625D02*
X89000D01*
X83825Y385750D02*
X84073D01*
X84949Y386625D01*
X69250Y371175D02*
X83825Y385750D01*
X199204Y233250D02*
X205704Y226750D01*
X235954D01*
X131901Y233250D02*
X199204D01*
X125391Y239760D02*
X131901Y233250D01*
X106730Y239760D02*
X125391D01*
X328899Y212160D02*
X336609Y204450D01*
X345079D01*
X348579Y200950D01*
X375641D02*
X386800Y212109D01*
X348579Y200950D02*
X375641D01*
X386800Y212109D02*
Y212298D01*
X425502Y251000D01*
X426000D01*
X274235Y212160D02*
X328899D01*
X84403Y246520D02*
X99970D01*
X106730Y239760D01*
X226578Y399940D02*
X234558Y407920D01*
X310274Y514600D02*
X312000D01*
X115730Y488793D02*
X116200Y489264D01*
X118861D01*
X203000Y387000D02*
X203375Y387375D01*
X209761D02*
X209826Y387440D01*
X210510D02*
X214060Y390990D01*
X209826Y387440D02*
X210510D01*
X203375Y387375D02*
X209761D01*
X118861Y489264D02*
X131847Y502250D01*
X297924D01*
X310274Y514600D01*
X234558Y407920D02*
Y415942D01*
X234250Y416250D02*
X234558Y415942D01*
X225952Y442000D02*
X236750D01*
X215548Y399940D02*
X226578D01*
X214060Y398452D02*
X215548Y399940D01*
X214060Y390990D02*
Y398452D01*
X208500Y418222D02*
Y425972D01*
X204437Y415000D02*
X205278D01*
X195896Y406458D02*
X204437Y415000D01*
X205278D02*
X208500Y418222D01*
X225270Y437789D02*
X226579Y436480D01*
X272502Y400000D02*
X273000D01*
X151800Y402919D02*
X154854D01*
X155833Y401940D01*
X148260Y406458D02*
X151800Y402919D01*
X124472Y406458D02*
X148260D01*
X121375Y409555D02*
X124472Y406458D01*
X121000Y417000D02*
X121375Y416625D01*
Y409555D02*
Y416625D01*
X266770Y405732D02*
X272502Y400000D01*
X226579Y436480D02*
X239860D01*
X266770Y409570D01*
Y405732D02*
Y409570D01*
X224506Y437789D02*
X225270D01*
X335900Y383173D02*
X339173D01*
X341000Y385000D01*
X114125Y417375D02*
X114500Y417000D01*
X114020Y423866D02*
X114125Y423761D01*
X114020Y423866D02*
Y424493D01*
X114125Y417375D02*
Y423761D01*
X108560Y429954D02*
X114020Y424493D01*
X108560Y443310D02*
X127425Y462175D01*
X149197D01*
X108560Y429954D02*
Y443310D01*
X326751Y374025D02*
X335900Y383173D01*
X381573Y482060D02*
X381629D01*
X383270Y449504D02*
Y480419D01*
X381629Y482060D02*
X383270Y480419D01*
X405912Y422977D02*
X406500Y422388D01*
X334500Y361249D02*
Y361249D01*
X326751Y368997D02*
Y374025D01*
Y368997D02*
X334500Y361249D01*
X405912Y422977D02*
Y426862D01*
X383270Y449504D02*
X405912Y426862D01*
X525081Y364000D02*
X526520Y365438D01*
Y386270D01*
X108014Y362730D02*
Y363396D01*
X111815Y367196D01*
Y370909D01*
X116765Y375860D01*
X106329Y385058D02*
X109671D01*
X116765Y375860D02*
Y377964D01*
X91000Y380500D02*
X101771D01*
X109671Y385058D02*
X116765Y377964D01*
X101771Y380500D02*
X106329Y385058D01*
X498672Y380810D02*
X499308D01*
X496440Y378578D02*
X498672Y380810D01*
X499308D02*
X504000Y385502D01*
Y386000D01*
X460769Y488600D02*
X468078Y495910D01*
X497508Y491824D02*
X500987Y488345D01*
X497508Y491824D02*
Y491824D01*
X431299Y488600D02*
X460769D01*
X431043Y488345D02*
X431299Y488600D01*
X468078Y495910D02*
X493422D01*
X497508Y491824D01*
X541288Y488345D02*
X546339Y483294D01*
X420395Y488345D02*
X431043D01*
X500987D02*
X541288D01*
X546339Y479974D02*
Y483294D01*
X394958Y453390D02*
X397920D01*
X399408Y454878D02*
Y460508D01*
X397920Y453390D02*
X399408Y454878D01*
X136037Y492170D02*
X302156D01*
X98397Y454530D02*
X136037Y492170D01*
X350622Y494250D02*
X351592Y493280D01*
X302156Y492170D02*
X304236Y494250D01*
X350622D01*
X399408Y460508D02*
X405090Y466190D01*
Y473040D01*
X420395Y488345D01*
X383250Y493280D02*
X391456Y485075D01*
Y456892D02*
Y485075D01*
Y456892D02*
X394958Y453390D01*
X351592Y493280D02*
X383250D01*
X197547Y229250D02*
X204047Y222750D01*
X237611D01*
X130244Y229250D02*
X197547D01*
X125744Y233750D02*
X130244Y229250D01*
X109028Y233750D02*
X125744D01*
X107018Y235760D02*
X109028Y233750D01*
X334866Y199009D02*
X343336D01*
X346475Y195870D01*
X377745D01*
X391880Y210005D01*
Y210194D01*
X474000Y245502D02*
Y246000D01*
X326625Y207250D02*
X334866Y199009D01*
X272435Y207250D02*
X326625D01*
X99238Y241595D02*
X105073Y235760D01*
X107018D01*
X92069Y240824D02*
X92840Y241595D01*
X87000Y240250D02*
X87574Y240824D01*
X92069D01*
X92840Y241595D02*
X99238D01*
X262262Y464657D02*
X262605Y465000D01*
X251029Y464315D02*
X251372Y464657D01*
X262262D01*
X394500Y47808D02*
X423058Y19250D01*
X394500Y47808D02*
Y173470D01*
X490810Y278922D02*
X497670Y285783D01*
X516791Y299391D02*
X529100Y311700D01*
X520153Y285783D02*
X520670Y286300D01*
X534250D01*
X497670Y285783D02*
X520153D01*
X516791Y295856D02*
Y299391D01*
X516217Y295282D02*
X516791Y295856D01*
X529100Y311700D02*
X534250D01*
X544770Y279270D02*
X549250Y283750D01*
X544770Y256844D02*
Y279270D01*
X518600Y320310D02*
Y327876D01*
X523190Y315979D02*
X524910Y317700D01*
X521214Y314000D02*
X523190Y315976D01*
X515987Y314000D02*
X521214D01*
X523190Y315976D02*
Y315979D01*
X517996Y272904D02*
X518662D01*
X516508Y271416D02*
X517996Y272904D01*
X490810Y256621D02*
Y278922D01*
X415250Y37750D02*
Y44557D01*
X418722Y48028D01*
X423278D01*
X434278Y37029D01*
X423058Y19250D02*
X517316D01*
X324318Y307132D02*
X325750Y305700D01*
X301000Y324000D02*
Y325000D01*
X310472Y280250D02*
X325700D01*
X308972Y281750D02*
X310472Y280250D01*
X338348Y257248D02*
Y259036D01*
X341750Y262438D01*
X336000Y254900D02*
X338348Y257248D01*
X341750Y262438D02*
Y263250D01*
X380250Y267600D02*
X391588D01*
X394438Y264750D02*
X395250D01*
X391588Y267600D02*
X394438Y264750D01*
X394587Y302797D02*
X405830Y291554D01*
X384500Y305700D02*
X400750Y289450D01*
X405830Y252881D02*
Y291554D01*
X400750Y260061D02*
Y289450D01*
X371560Y218611D02*
X405830Y252881D01*
X382439Y241750D02*
X400750Y260061D01*
X450000Y277000D02*
X452000D01*
X449000Y278000D02*
X450000Y277000D01*
X425000Y278000D02*
X449000D01*
X470200Y291500D02*
X475400Y286300D01*
X457993Y282250D02*
X459750Y284007D01*
X468618Y280176D02*
Y281820D01*
X465250Y285188D02*
X468618Y281820D01*
X475400Y286300D02*
X479750D01*
X459750Y288278D02*
X462972Y291500D01*
X459750Y284007D02*
Y288278D01*
X452000Y277000D02*
X457250Y282250D01*
X468618Y280176D02*
X468824D01*
X465250Y285188D02*
Y286000D01*
X462972Y291500D02*
X470200D01*
X457250Y282250D02*
X457993D01*
X468824Y280176D02*
X475400Y273600D01*
X473000Y196550D02*
X478200Y201750D01*
X434278Y37029D02*
X470025D01*
X473000Y40003D01*
Y196550D01*
X478200Y201750D02*
X511528D01*
X460829Y214171D02*
X470000Y205000D01*
X516000Y124000D02*
Y181378D01*
X515333Y217695D02*
X536710Y239072D01*
X515333Y205555D02*
Y217695D01*
X511528Y201750D02*
X515333Y205555D01*
X522000Y215312D02*
X538564Y231876D01*
X522000Y206750D02*
Y215312D01*
X538564Y231876D02*
Y234655D01*
X536710Y239072D02*
Y252928D01*
X538564Y234655D02*
X541250Y237340D01*
X505676Y246574D02*
X506250Y246000D01*
X505676Y246574D02*
Y248324D01*
X488000Y236750D02*
X492250Y232500D01*
X511578D01*
X497250Y332736D02*
Y340596D01*
X524910Y317700D02*
Y319310D01*
X530000Y324400D01*
X495728Y342119D02*
X497250Y340596D01*
Y332736D02*
X515987Y314000D01*
X530000Y324400D02*
X534250D01*
X519882Y329157D02*
Y338071D01*
X532561Y350750D01*
X518600Y327876D02*
X519882Y329157D01*
X488100Y361678D02*
X495728Y354051D01*
Y342119D02*
Y354051D01*
X532561Y350750D02*
X542028D01*
X43500Y402378D02*
X46440Y399438D01*
Y393753D02*
Y399438D01*
X289938Y62716D02*
X298231D01*
X225000Y87770D02*
X246960Y65810D01*
X262404D02*
X263214Y65000D01*
X246960Y65810D02*
X262404D01*
X263214Y65000D02*
X263243D01*
X227172Y11570D02*
X272662D01*
X226440Y20738D02*
X230928Y16250D01*
X311512Y50420D02*
X328666D01*
X272662Y11570D02*
X311512Y50420D01*
X475400Y273600D02*
X479750D01*
X445250Y347500D02*
X465298D01*
X470020Y342778D01*
Y342480D02*
Y342778D01*
Y342480D02*
X475000Y337500D01*
X441750Y338500D02*
Y344000D01*
X445250Y347500D01*
X475000Y337500D02*
X479250D01*
X394587Y323837D02*
X409250Y338500D01*
X441750D01*
X394587Y302797D02*
Y323837D01*
X541250Y237340D02*
Y252561D01*
X511578Y232500D02*
X512750Y233672D01*
Y243250D01*
X534250Y260900D02*
Y273600D01*
Y255388D02*
X536710Y252928D01*
X534250Y255388D02*
Y260900D01*
X541250Y252561D02*
X544500Y255811D01*
X342922Y219690D02*
X351391D01*
X422951Y464194D02*
Y469729D01*
X434282Y481060D01*
X463892D01*
X362116Y462366D02*
Y470216D01*
X350750Y451000D02*
X362116Y462366D01*
X347493Y472610D02*
X350500Y469603D01*
Y460750D02*
Y469603D01*
X341500Y401562D02*
X343500Y403562D01*
X341500Y400750D02*
Y401562D01*
X202390Y218750D02*
X239268D01*
X197390Y223750D02*
X202390Y218750D01*
X150000Y223750D02*
X197390D01*
X298225Y472475D02*
X301975Y468725D01*
X302968D01*
X307500Y464193D01*
Y456700D02*
Y464193D01*
Y456700D02*
X313500Y450700D01*
X317750D01*
X295057Y475643D02*
X298225Y472475D01*
X274974Y475643D02*
X295057D01*
X271748Y438250D02*
X273800Y436198D01*
X274828D01*
X276000Y413518D02*
Y418639D01*
X274828Y436198D02*
X277800Y433227D01*
X271748Y438250D02*
Y438871D01*
X276000Y418639D02*
X277800Y420439D01*
Y433227D01*
X276000Y413518D02*
X282268Y407250D01*
X296832D01*
X311770Y422188D01*
X262230Y370685D02*
Y407690D01*
Y370685D02*
X276185Y356730D01*
X332000Y403435D02*
Y404685D01*
X341935Y408500D02*
X353245Y419810D01*
X341472Y408500D02*
X341935D01*
X336500Y403528D02*
X341472Y408500D01*
X353245Y419810D02*
X359609D01*
X359078Y431300D02*
X380444D01*
X336500Y403065D02*
Y403528D01*
X336000Y402565D02*
X336500Y403065D01*
X340278Y412500D02*
X359078Y431300D01*
X336000Y401778D02*
Y402565D01*
X339815Y412500D02*
X340278D01*
X332000Y404685D02*
X339815Y412500D01*
X320722Y386500D02*
X336000Y401778D01*
X351326Y411854D02*
X357310D01*
X343500Y404028D02*
X351326Y411854D01*
X343500Y403562D02*
Y404028D01*
X328515Y399950D02*
X332000Y403435D01*
X317800Y399950D02*
X328515D01*
X299000Y386500D02*
X320722D01*
X317750Y399900D02*
X317800Y399950D01*
X370250Y423300D02*
X372250Y425300D01*
X359609Y419810D02*
X363099Y423300D01*
X370250D01*
X325750Y254900D02*
X336000D01*
X345000Y295500D02*
Y304408D01*
X340000Y290500D02*
X345000Y295500D01*
X339750Y315315D02*
X357000Y298065D01*
X337708Y311700D02*
X345000Y304408D01*
X330500Y359592D02*
Y359592D01*
X360250Y320000D02*
Y342747D01*
X333944Y337100D02*
X339750Y331294D01*
Y315315D02*
Y331294D01*
X328300Y311700D02*
X337708D01*
X364056Y418600D02*
X379744D01*
X382500Y421356D02*
Y429244D01*
X379744Y418600D02*
X382500Y421356D01*
X380444Y431300D02*
X382500Y429244D01*
X357310Y411854D02*
X364056Y418600D01*
X382500Y412812D02*
X385688Y416000D01*
X372462Y412812D02*
X382500D01*
X372250Y412600D02*
X372462Y412812D01*
X379154Y392610D02*
X394383Y407839D01*
X362112Y392610D02*
X379154D01*
X399491Y422213D02*
X402500Y419204D01*
X399491Y422213D02*
Y426098D01*
X385688Y416000D02*
X386500D01*
X378230Y447359D02*
X399491Y426098D01*
X331440Y104703D02*
Y133838D01*
X332396Y86219D02*
X349226D01*
X326428Y313572D02*
X328300Y311700D01*
X424000Y315000D02*
X450000D01*
X450000Y315000D01*
X273000Y285000D02*
X273498D01*
X325700Y280250D02*
X325750Y280300D01*
X46440Y393753D02*
X48488Y391705D01*
X57889D01*
X81207Y228793D02*
X90000Y220000D01*
X239290Y188500D02*
X239750Y188040D01*
Y169941D02*
Y188040D01*
X285000Y184750D02*
X312101Y157649D01*
Y153177D02*
Y157649D01*
Y153177D02*
X331440Y133838D01*
X326428Y313572D02*
Y317722D01*
X325750Y318400D02*
X326428Y317722D01*
X325750Y318400D02*
Y331100D01*
X494270Y480919D02*
Y484398D01*
X372250Y399900D02*
Y412600D01*
X463892Y481060D02*
X471202Y488370D01*
X490298D01*
X494270Y484398D01*
X311770Y422188D02*
Y423570D01*
X313500Y425300D01*
X317750D01*
X298000Y436500D02*
X300879Y433621D01*
X305179D02*
X313500Y425300D01*
X300879Y433621D02*
X305179D01*
X376500Y450700D02*
X378230Y448970D01*
X372250Y450700D02*
X376500D01*
X355000Y385498D02*
X362112Y392610D01*
X355000Y372000D02*
Y385498D01*
X354000Y371000D02*
X355000Y372000D01*
X378230Y447359D02*
Y448970D01*
X317750Y463400D02*
Y476100D01*
X340234D01*
X343724Y472610D01*
X347493D01*
X372250Y463400D02*
Y476100D01*
X362116Y470216D02*
X368000Y476100D01*
X372250D01*
X273000Y386000D02*
X298500D01*
X299000Y386500D01*
X458480Y241480D02*
X471090Y254090D01*
X454480Y241480D02*
X458480D01*
X471090Y254090D02*
X488279D01*
X380250Y254900D02*
Y267600D01*
X323441Y203250D02*
X332762Y193929D01*
X270778Y203250D02*
X323441D01*
X544500Y255811D02*
Y256574D01*
X544770Y256844D01*
X268681Y163143D02*
X270238Y164700D01*
X270950D01*
X543783Y37283D02*
X544216D01*
X512990Y6490D02*
X543783Y37283D01*
X118690Y36560D02*
X139190Y16060D01*
Y7978D02*
X140678Y6490D01*
X512990D01*
X139190Y7978D02*
Y16060D01*
X118690Y36560D02*
Y93078D01*
X332762Y193929D02*
X341231D01*
X170270Y154730D02*
X175000Y150000D01*
X150500Y153888D02*
Y182000D01*
X268681Y133147D02*
Y163143D01*
Y133147D02*
X268750Y133078D01*
X225000Y87770D02*
X236000D01*
X354892Y216190D02*
X369328D01*
X351391Y219690D02*
X354892Y216190D01*
X371560Y218422D02*
Y218611D01*
X369328Y216190D02*
X371560Y218422D01*
X479750Y324400D02*
Y337100D01*
X512750Y243250D02*
X515500Y246000D01*
Y271416D02*
X516508D01*
X515500Y246000D02*
Y271416D01*
X488000Y236750D02*
Y246000D01*
X450000Y315000D02*
X453300Y311700D01*
X479750D01*
X534250Y324400D02*
Y337100D01*
X479750Y260900D02*
Y273600D01*
X488279Y254090D02*
X490810Y256621D01*
X450000Y237000D02*
X454480Y241480D01*
X362750Y241750D02*
X382439D01*
X363000Y225000D02*
Y240000D01*
X273000Y324000D02*
X300000D01*
X380250Y305700D02*
X384500D01*
X363000Y225000D02*
X363000Y225000D01*
X317750Y399900D02*
Y412600D01*
X61684Y395500D02*
X71750D01*
X349353Y72932D02*
Y78907D01*
X57889Y391705D02*
X61684Y395500D01*
X325750Y254900D02*
Y267600D01*
X285000Y184750D02*
Y185000D01*
X215761Y22981D02*
X227172Y11570D01*
X181000Y25000D02*
Y27000D01*
Y66388D01*
X226440Y20738D02*
Y30788D01*
X328666Y50420D02*
X330226Y48861D01*
X221869Y35359D02*
X226440Y30788D01*
X215761Y22981D02*
Y25000D01*
X349226Y86219D02*
X354434Y81011D01*
X347122Y81139D02*
X349353Y78907D01*
X346227Y48861D02*
X349353Y51988D01*
X330226Y48861D02*
X346227D01*
X349353Y51988D02*
Y58361D01*
X205614Y35359D02*
X221869D01*
X203985Y33730D02*
X205614Y35359D01*
X187730Y33730D02*
X203985D01*
X181000Y27000D02*
X187730Y33730D01*
X171000Y50000D02*
Y86950D01*
X175000Y90950D01*
Y101254D01*
X161310Y114944D02*
X175000Y101254D01*
X161310Y114944D02*
Y143078D01*
X150500Y153888D02*
X161310Y143078D01*
X183250Y177000D02*
X204500D01*
X176250Y170000D02*
X183250Y177000D01*
X175000Y108438D02*
Y129050D01*
Y108438D02*
X184910Y98528D01*
Y70298D02*
Y98528D01*
X181000Y66388D02*
X184910Y70298D01*
X181000Y25000D02*
X200239D01*
X354434Y77547D02*
X357481Y74500D01*
X357286Y65000D02*
X362155D01*
X349353Y72932D02*
X357286Y65000D01*
X357481Y74500D02*
X362155D01*
X354434Y77547D02*
Y81011D01*
X279000Y110000D02*
Y139239D01*
X426000Y237000D02*
X450000D01*
X175000Y129050D02*
Y150000D01*
X342714Y65000D02*
X349353Y58361D01*
X337845Y65000D02*
X342714D01*
X175000Y170000D02*
X176250D01*
D17*
X362155Y55500D02*
D03*
Y74500D02*
D03*
Y65000D02*
D03*
X337845D02*
D03*
Y55500D02*
D03*
D18*
Y74500D02*
D03*
D19*
X203000Y374000D02*
D03*
Y400000D02*
D03*
Y361000D02*
D03*
Y341500D02*
D03*
X91000Y400000D02*
D03*
Y367500D02*
D03*
Y374000D02*
D03*
X203000Y322000D02*
D03*
X91000D02*
D03*
X203000Y387000D02*
D03*
Y393500D02*
D03*
Y380500D02*
D03*
X91000Y393500D02*
D03*
Y387000D02*
D03*
Y380500D02*
D03*
Y361000D02*
D03*
Y354500D02*
D03*
Y348000D02*
D03*
Y341500D02*
D03*
Y335000D02*
D03*
Y328500D02*
D03*
X203000D02*
D03*
Y335000D02*
D03*
Y348000D02*
D03*
Y354500D02*
D03*
Y367500D02*
D03*
D20*
X166500Y417000D02*
D03*
X153500D02*
D03*
X147000D02*
D03*
X134000Y305000D02*
D03*
X108000D02*
D03*
X186000D02*
D03*
X173000D02*
D03*
X179500D02*
D03*
X186000Y417000D02*
D03*
X179500D02*
D03*
X173000D02*
D03*
X160000D02*
D03*
X140500D02*
D03*
X134000D02*
D03*
X127500D02*
D03*
X121000D02*
D03*
X114500D02*
D03*
X108000D02*
D03*
X114500Y305000D02*
D03*
X121000D02*
D03*
X127500D02*
D03*
X140500D02*
D03*
X147000D02*
D03*
X153500D02*
D03*
X160000D02*
D03*
X166500D02*
D03*
D21*
X175000Y90950D02*
D03*
Y129050D02*
D03*
D22*
Y150000D02*
D03*
Y170000D02*
D03*
D23*
X416000Y420000D02*
D03*
Y434000D02*
D03*
X274974Y475643D02*
D03*
Y461643D02*
D03*
X273000Y386000D02*
D03*
Y400000D02*
D03*
X416000Y472000D02*
D03*
Y458000D02*
D03*
X416000Y396000D02*
D03*
Y382000D02*
D03*
X273000Y338000D02*
D03*
Y324000D02*
D03*
Y285000D02*
D03*
Y299000D02*
D03*
X273000Y247000D02*
D03*
Y261000D02*
D03*
X424000Y329000D02*
D03*
Y315000D02*
D03*
X425000Y292000D02*
D03*
Y278000D02*
D03*
X426000Y251000D02*
D03*
Y237000D02*
D03*
X271000Y424500D02*
D03*
Y438500D02*
D03*
D24*
X151000Y50000D02*
D03*
X171000D02*
D03*
D25*
X327994Y170000D02*
D03*
Y160500D02*
D03*
X352006Y179500D02*
D03*
Y160500D02*
D03*
D26*
X327994Y179500D02*
D03*
D27*
X150500Y182000D02*
D03*
X141000Y162000D02*
D03*
X131500Y182000D02*
D03*
D28*
X279000Y89000D02*
D03*
Y110000D02*
D03*
D29*
X225000Y330000D02*
D03*
Y355516D02*
D03*
D30*
X304000Y135990D02*
D03*
Y148010D02*
D03*
X305000Y107990D02*
D03*
Y120010D02*
D03*
X377000Y164990D02*
D03*
Y177010D02*
D03*
D31*
X829244Y427215D02*
D03*
Y139215D02*
D03*
D32*
X225000Y134770D02*
D03*
Y87770D02*
D03*
D33*
X279000Y154761D02*
D03*
Y139239D02*
D03*
D34*
X80000Y430000D02*
D03*
X95000D02*
D03*
D35*
X365761Y101000D02*
D03*
X350239D02*
D03*
D36*
X140000Y80000D02*
D03*
Y130000D02*
D03*
D37*
X533750Y299400D02*
D03*
X479250D02*
D03*
Y337500D02*
D03*
Y324800D02*
D03*
X533750Y261300D02*
D03*
Y274000D02*
D03*
Y286700D02*
D03*
Y312100D02*
D03*
Y324800D02*
D03*
Y337500D02*
D03*
X479250Y261300D02*
D03*
Y274000D02*
D03*
Y286700D02*
D03*
Y312100D02*
D03*
X372250Y438000D02*
D03*
Y412600D02*
D03*
Y399900D02*
D03*
X317750Y425300D02*
D03*
X372250Y450700D02*
D03*
X317750D02*
D03*
Y476100D02*
D03*
Y463400D02*
D03*
X372250Y476100D02*
D03*
Y463400D02*
D03*
X317750Y438000D02*
D03*
X372250Y425300D02*
D03*
X317750Y399900D02*
D03*
Y412600D02*
D03*
X535250Y441000D02*
D03*
X480750D02*
D03*
X535250Y479100D02*
D03*
Y466400D02*
D03*
Y402900D02*
D03*
Y415600D02*
D03*
Y428300D02*
D03*
Y453700D02*
D03*
X480750Y402900D02*
D03*
Y415600D02*
D03*
Y428300D02*
D03*
Y453700D02*
D03*
Y466400D02*
D03*
Y479100D02*
D03*
X380250Y293000D02*
D03*
Y280300D02*
D03*
X325750Y293000D02*
D03*
X380250Y254900D02*
D03*
Y267600D02*
D03*
X325750Y318400D02*
D03*
Y331100D02*
D03*
Y305700D02*
D03*
Y280300D02*
D03*
Y267600D02*
D03*
Y254900D02*
D03*
X380250Y331100D02*
D03*
Y318400D02*
D03*
Y305700D02*
D03*
D38*
X220000Y408500D02*
D03*
Y421500D02*
D03*
X298225Y459475D02*
D03*
Y472475D02*
D03*
X298000Y423500D02*
D03*
Y436500D02*
D03*
X299000Y399500D02*
D03*
Y386500D02*
D03*
X441000Y472500D02*
D03*
Y459500D02*
D03*
Y420500D02*
D03*
Y433500D02*
D03*
X442000Y382000D02*
D03*
Y395000D02*
D03*
X301000Y338000D02*
D03*
Y325000D02*
D03*
Y298500D02*
D03*
Y285500D02*
D03*
X300000Y260500D02*
D03*
Y247500D02*
D03*
X450000Y328000D02*
D03*
Y315000D02*
D03*
X451750Y290000D02*
D03*
Y277000D02*
D03*
X451000Y251000D02*
D03*
Y238000D02*
D03*
X222000Y299500D02*
D03*
Y312500D02*
D03*
X225250Y378750D02*
D03*
Y391750D02*
D03*
D39*
X151000Y25000D02*
D03*
X181000D02*
D03*
D40*
X256250Y35000D02*
D03*
X236250D02*
D03*
X256000Y55000D02*
D03*
X236000D02*
D03*
D41*
X285000Y185000D02*
D03*
X272000D02*
D03*
X341000Y371000D02*
D03*
X354000D02*
D03*
X505000Y372000D02*
D03*
X518000D02*
D03*
X349250Y228500D02*
D03*
X362250D02*
D03*
X528500Y246000D02*
D03*
X515500D02*
D03*
X163250Y281250D02*
D03*
X150250D02*
D03*
X164500Y439000D02*
D03*
X151500D02*
D03*
D42*
X412758Y365000D02*
D03*
X387242D02*
D03*
D43*
X225500Y177000D02*
D03*
X204500D02*
D03*
D44*
X200239Y25000D02*
D03*
X215761D02*
D03*
D45*
X355000Y385000D02*
D03*
X341000D02*
D03*
X504000Y386000D02*
D03*
X518000D02*
D03*
X348750Y241750D02*
D03*
X362750D02*
D03*
X474000Y246000D02*
D03*
X488000D02*
D03*
D52*
X772744Y400715D02*
D03*
Y390715D02*
D03*
Y380715D02*
D03*
Y360715D02*
D03*
Y370715D02*
D03*
Y330715D02*
D03*
Y320715D02*
D03*
Y340715D02*
D03*
Y350715D02*
D03*
Y290715D02*
D03*
Y280715D02*
D03*
Y310715D02*
D03*
Y300715D02*
D03*
Y260715D02*
D03*
Y270715D02*
D03*
Y250715D02*
D03*
Y305715D02*
D03*
Y325715D02*
D03*
Y345715D02*
D03*
Y335715D02*
D03*
Y405715D02*
D03*
Y315715D02*
D03*
Y395715D02*
D03*
Y375715D02*
D03*
Y365715D02*
D03*
Y295715D02*
D03*
Y285715D02*
D03*
Y275715D02*
D03*
Y265715D02*
D03*
Y255715D02*
D03*
Y245715D02*
D03*
Y240715D02*
D03*
Y235715D02*
D03*
Y230715D02*
D03*
Y225715D02*
D03*
Y220715D02*
D03*
Y215715D02*
D03*
Y210715D02*
D03*
Y205715D02*
D03*
Y200715D02*
D03*
Y195715D02*
D03*
Y190715D02*
D03*
Y185715D02*
D03*
Y180715D02*
D03*
Y175715D02*
D03*
Y170715D02*
D03*
Y165715D02*
D03*
Y160715D02*
D03*
Y355715D02*
D03*
Y385715D02*
D03*
D61*
X566000Y514600D02*
D03*
X489800Y540000D02*
D03*
X439000D02*
D03*
X388200Y514600D02*
D03*
X312000Y540000D02*
D03*
X235800D02*
D03*
X134200D02*
D03*
X337400Y514600D02*
D03*
X362800Y540000D02*
D03*
X261200D02*
D03*
X312000Y514600D02*
D03*
X337400Y540000D02*
D03*
X286600D02*
D03*
X362800Y514600D02*
D03*
X261200D02*
D03*
X566000Y540000D02*
D03*
X540600D02*
D03*
X515200D02*
D03*
X464400D02*
D03*
X413600D02*
D03*
X388200D02*
D03*
X210400D02*
D03*
X185000D02*
D03*
X159600D02*
D03*
X108800D02*
D03*
X83400D02*
D03*
X540600Y514600D02*
D03*
X515200D02*
D03*
X489800D02*
D03*
X464400D02*
D03*
X439000D02*
D03*
X413600D02*
D03*
X286600D02*
D03*
X235800D02*
D03*
X210400D02*
D03*
X185000D02*
D03*
X159600D02*
D03*
X134200D02*
D03*
X108800D02*
D03*
D62*
X83400D02*
D03*
D67*
X145743Y322993D02*
Y354153D01*
X56750Y364249D02*
X58249Y365749D01*
Y374749D01*
X56750Y274323D02*
Y364249D01*
Y274323D02*
X66750Y264323D01*
X624270Y253174D02*
Y333028D01*
X623500Y333798D02*
Y406000D01*
Y333798D02*
X624270Y333028D01*
X619753Y248657D02*
X624270Y253174D01*
X66750Y53250D02*
X95000Y25000D01*
X66750Y53250D02*
Y264323D01*
X314898Y299602D02*
X321500Y293000D01*
X310500Y300176D02*
X311074Y299602D01*
X314898D01*
X434837Y227715D02*
X440222D01*
X402230Y195107D02*
X434837Y227715D01*
X402230Y159475D02*
Y195107D01*
X442686Y225250D02*
X442692D01*
X440222Y227715D02*
X442686Y225250D01*
X442692D02*
X445251Y222691D01*
X162500Y162343D02*
X164843Y160000D01*
X183907D01*
X162500Y162343D02*
Y190959D01*
X158149Y195310D02*
X162500Y190959D01*
X313291Y102052D02*
Y113928D01*
X323291Y97910D02*
Y100796D01*
X309491Y117729D02*
X313291Y113928D01*
X307281Y117729D02*
X309491D01*
X305000Y120010D02*
X307281Y117729D01*
X322000Y96619D02*
X323291Y97910D01*
Y100796D02*
X324500Y102005D01*
X308663Y90135D02*
Y97424D01*
X322000Y79472D02*
Y96619D01*
X308663Y97424D02*
X313291Y102052D01*
X151500Y359910D02*
Y386956D01*
X149157Y389299D02*
X151500Y386956D01*
X142513Y389299D02*
X149157D01*
X145743Y354153D02*
X151500Y359910D01*
X186250Y157332D02*
X189145Y154437D01*
X186250Y157332D02*
Y157657D01*
X183907Y160000D02*
X186250Y157657D01*
X194843Y113270D02*
X255157D01*
X257500Y115613D01*
X192500D02*
X194843Y113270D01*
X257500Y115613D02*
Y126250D01*
X262000Y130750D01*
X189145Y119293D02*
X192500Y115938D01*
Y115613D02*
Y115938D01*
X306278Y87750D02*
X308663Y90135D01*
X293472Y87750D02*
X306278D01*
X289000Y92222D02*
X293472Y87750D01*
X271343Y99000D02*
X286657D01*
X269000Y96657D02*
X271343Y99000D01*
X291411Y108293D02*
X295209Y104495D01*
Y97984D02*
X295400Y97793D01*
X289000Y92222D02*
Y96657D01*
X291411Y108293D02*
Y152411D01*
X295209Y97984D02*
Y104495D01*
X269500Y78528D02*
X275750Y72278D01*
X286657Y99000D02*
X289000Y96657D01*
X269000Y81343D02*
Y96657D01*
X269500Y78528D02*
Y80843D01*
X269000Y81343D02*
X269500Y80843D01*
X275750Y66540D02*
X278093Y64197D01*
X275750Y66540D02*
Y72278D01*
X278093Y64197D02*
X282305D01*
X300540Y52861D02*
Y56019D01*
X318847Y62000D02*
X329716Y72869D01*
X300540Y56019D02*
X306250Y61729D01*
Y62000D01*
X268929Y21250D02*
X300540Y52861D01*
X315028Y72500D02*
X322000Y79472D01*
X306059Y62000D02*
X318847D01*
X290608Y72500D02*
X315028D01*
X282305Y64197D02*
X290608Y72500D01*
X324500Y102005D02*
Y124349D01*
X324188Y124661D02*
X324500Y124349D01*
X324188Y124661D02*
Y132500D01*
X200139Y335096D02*
X200235Y335000D01*
X195565Y335096D02*
X200139D01*
X191750Y338911D02*
X195565Y335096D01*
X191750Y338911D02*
Y344089D01*
X195565Y347904D01*
X202904D01*
X203000Y348000D01*
X195565Y367404D02*
X202904D01*
X191750Y363589D02*
X195565Y367404D01*
X191750Y358411D02*
Y363589D01*
Y358411D02*
X195565Y354596D01*
X202904D01*
X203000Y354500D01*
X224234Y354750D02*
X225000Y355516D01*
X208385Y354750D02*
X224234D01*
X203000Y354500D02*
X208135D01*
X208385Y354750D01*
X225500Y391750D02*
X229750Y387500D01*
X231907D02*
X234250Y385157D01*
X231243Y369336D02*
X234250Y372343D01*
X227470Y355516D02*
X231243Y359289D01*
Y369336D01*
X229750Y387500D02*
X231907D01*
X234250Y372343D02*
Y385157D01*
X263316Y305041D02*
Y315045D01*
X262820Y298514D02*
Y304545D01*
X263316Y305041D01*
X363750Y182750D02*
X371250D01*
X360913Y179913D02*
X363750Y182750D01*
X346962Y179913D02*
X360913D01*
X346549Y179500D02*
X346962Y179913D01*
X369291Y135146D02*
X372645D01*
X379228Y174791D02*
X383839D01*
X386750Y139376D02*
Y171881D01*
X377010Y177010D02*
X379228Y174791D01*
X383839D02*
X386750Y171881D01*
X372645Y135146D02*
X376750Y139250D01*
X386750Y139376D02*
X388500Y137626D01*
X382197Y85018D02*
X385033Y82182D01*
X354770Y95827D02*
Y97709D01*
X351478Y101000D02*
X354770Y97709D01*
X355230Y94052D02*
X357574Y91709D01*
X373948D01*
X374226Y85018D02*
X382197D01*
X355230Y94052D02*
Y95366D01*
X376291Y94291D02*
X388500Y106500D01*
X354770Y95827D02*
X355230Y95366D01*
X374034Y85210D02*
X374226Y85018D01*
X373948Y91709D02*
X376291Y94052D01*
X388500Y106500D02*
Y137626D01*
X376291Y94052D02*
Y94291D01*
X411577Y403302D02*
X422055Y413780D01*
X411027Y403302D02*
X411577D01*
X408200Y400450D02*
Y400475D01*
X411027Y403302D01*
X392015Y384265D02*
X408200Y400450D01*
X422055Y413780D02*
X430139D01*
X392015Y369773D02*
Y384265D01*
X442399Y300381D02*
Y302101D01*
X435500Y309000D02*
X442399Y302101D01*
Y300381D02*
X443000Y299779D01*
X440500Y287791D02*
X442750Y290041D01*
X440500Y287521D02*
Y287791D01*
X442750Y290041D02*
Y296407D01*
X443000Y296657D02*
Y299779D01*
X442750Y296407D02*
X443000Y296657D01*
X445251Y222691D02*
X451809D01*
X452000Y222500D01*
X289000Y442581D02*
Y442907D01*
X293093Y447000D01*
X304500D01*
X286736Y440318D02*
X289000Y442581D01*
X304500Y447000D02*
X313500Y438000D01*
X243472Y268540D02*
Y279166D01*
X242952Y268021D02*
X243472Y268540D01*
X242952Y267750D02*
Y268021D01*
X280800Y264061D02*
Y265475D01*
X265200Y264061D02*
Y265475D01*
X280800Y264061D02*
X283750Y261111D01*
X277973Y268302D02*
X280800Y265475D01*
X250889Y249750D02*
X265200Y264061D01*
Y265475D02*
X268027Y268302D01*
X277973D01*
X245210Y25912D02*
X249872Y21250D01*
X268929D01*
X292000Y153000D02*
X296052Y148948D01*
X303062D01*
X304000Y148010D01*
X371250Y182750D02*
X376990Y177010D01*
X324095Y195250D02*
X331726Y187619D01*
X308250Y195250D02*
X324095D01*
X430139Y413780D02*
X430185Y413734D01*
X278500Y155261D02*
Y175500D01*
Y155261D02*
X279000Y154761D01*
X259729Y165229D02*
X268500Y174000D01*
X255459Y165229D02*
X259729D01*
X247071Y156841D02*
X255459Y165229D01*
X283750Y252500D02*
Y261111D01*
X408750Y45000D02*
Y152955D01*
X402230Y159475D02*
X408750Y152955D01*
X385033Y35033D02*
Y82182D01*
X385000Y35000D02*
X385033Y35033D01*
X424000Y37500D02*
X431500Y30000D01*
X519500D01*
X461080Y425580D02*
X476500Y441000D01*
X461080Y418000D02*
Y425580D01*
X443000Y299779D02*
X478971D01*
X387242Y365000D02*
X392015Y369773D01*
X387242Y363961D02*
Y365000D01*
X382469Y359188D02*
X387242Y363961D01*
X380750Y350312D02*
X382469Y352031D01*
Y359188D01*
X380750Y349500D02*
Y350312D01*
X437500Y265750D02*
Y266562D01*
X436000Y264250D02*
X437500Y265750D01*
X436000Y255562D02*
Y264250D01*
X428636Y302136D02*
X435500Y309000D01*
X412114Y302136D02*
X428636D01*
X405000Y309250D02*
X412114Y302136D01*
X519500Y30000D02*
X539500Y50000D01*
X337516Y74171D02*
X337845Y74500D01*
X331019Y74171D02*
X337516D01*
X329716Y72869D02*
X329717D01*
X331019Y74171D01*
X313500Y438000D02*
X317750D01*
X286736Y423552D02*
Y440318D01*
Y423552D02*
X287250Y423039D01*
X263750Y350318D02*
Y361387D01*
X262578Y349146D02*
X263750Y350318D01*
X248416Y351834D02*
Y388797D01*
X257584Y349146D02*
X262578D01*
X255949Y347512D02*
X257584Y349146D01*
X248416Y351834D02*
X252738Y347512D01*
X255949D01*
X243472Y279166D02*
X262820Y298514D01*
X228812Y249750D02*
X250889D01*
X226500Y248250D02*
X227312D01*
X228812Y249750D01*
X291411Y152411D02*
X292000Y153000D01*
X279000Y154761D02*
X290239D01*
X292000Y153000D01*
X231750Y165166D02*
X231750D01*
X247071Y149770D02*
Y156841D01*
X232071Y134770D02*
X247071Y149770D01*
X225000Y158416D02*
X231750Y165166D01*
X225000Y134770D02*
X232071D01*
X225000D02*
Y158416D01*
X236250Y34000D02*
X239750Y30500D01*
X236250Y34000D02*
Y35000D01*
X239750Y30500D02*
X240750D01*
X236000Y55000D02*
Y56000D01*
X232000Y60000D02*
X236000Y56000D01*
X236250Y35000D02*
Y54750D01*
X245210Y25912D02*
Y26040D01*
X240750Y30500D02*
X245210Y26040D01*
X220000Y60000D02*
X232000D01*
X139812Y392000D02*
X142513Y389299D01*
X139000Y392000D02*
X139812D01*
X130250Y435750D02*
X130824Y435176D01*
X132074D01*
X140500Y426750D01*
X130250Y435750D02*
X130899D01*
X134149Y439000D01*
X151500D01*
X140500Y305000D02*
Y317750D01*
X145743Y322993D01*
X225250Y391750D02*
X225500D01*
X365761Y131615D02*
X369291Y135146D01*
X138750Y283500D02*
X139562D01*
X141782Y281280D01*
X149280D01*
X189145Y119293D02*
Y154437D01*
X365761Y101000D02*
Y131615D01*
X140500Y417000D02*
Y426750D01*
X149280Y281280D02*
X149890Y281890D01*
X133562Y195310D02*
X158149D01*
X128705Y200168D02*
Y220022D01*
X122767Y225960D02*
X128705Y220022D01*
Y200168D02*
X133562Y195310D01*
X95607Y235607D02*
X105253Y225960D01*
X122767D01*
X350239Y101000D02*
X351478D01*
X376990Y177010D02*
X377000D01*
X220000Y421500D02*
X222250Y423750D01*
X237299D01*
X242310Y418739D01*
X228250Y389000D02*
X242310Y403060D01*
X203000Y348000D02*
Y354500D01*
X225750Y308750D02*
X229496D01*
X222000Y312500D02*
X225750Y308750D01*
X229496D02*
X235193Y303052D01*
X203000Y328500D02*
Y335000D01*
X235619Y340813D02*
X238571Y337861D01*
X233879Y340813D02*
X235619D01*
X238571Y322139D02*
Y337861D01*
X235619Y319187D02*
X238571Y322139D01*
X224250Y312712D02*
Y313962D01*
X235619Y319187D02*
X235619D01*
X224250Y313962D02*
X224500Y314212D01*
X230644D01*
X235619Y319187D01*
X346549Y179500D02*
Y179688D01*
X338618Y187619D02*
X346549Y179688D01*
X331726Y187619D02*
X338618D01*
X242310Y403060D02*
Y418739D01*
X229750Y344942D02*
X233879Y340813D01*
X229322Y355250D02*
X229750Y354822D01*
Y344942D02*
Y354822D01*
D68*
X369757Y169979D02*
X372012D01*
X368879Y170857D02*
X369757Y169979D01*
X368879Y170857D02*
Y175580D01*
X373459Y168521D02*
Y168531D01*
Y168521D02*
X376990Y164990D01*
X372012Y169979D02*
X373459Y168531D01*
X376990Y164990D02*
X377000D01*
X278492Y88492D02*
X279000Y89000D01*
X278492Y78728D02*
Y88492D01*
X368209Y176250D02*
X368879Y175580D01*
X382000Y136575D02*
Y146279D01*
X380250Y134825D02*
X382000Y136575D01*
X377000Y151279D02*
X382000Y146279D01*
X383000Y119917D02*
Y123636D01*
X382083Y119000D02*
X383000Y119917D01*
X382083Y114333D02*
Y119000D01*
X382000Y114250D02*
X382083Y114333D01*
X432165Y468500D02*
X437000D01*
X441000Y472500D01*
X431785Y468120D02*
X432165Y468500D01*
X429120Y468120D02*
X431785D01*
X428451Y467450D02*
X429120Y468120D01*
X419887Y448395D02*
X424841D01*
X429770Y443465D01*
X419236Y427271D02*
X422007Y424500D01*
X409450Y437958D02*
X419887Y448395D01*
X409450Y430042D02*
Y437958D01*
Y430042D02*
X412221Y427271D01*
X419236D01*
X437000Y424500D02*
X441000Y420500D01*
X422007Y424500D02*
X437000D01*
X430902Y386096D02*
X434999Y382000D01*
X442000D01*
X430734Y385928D02*
X430902Y386096D01*
X424750Y385928D02*
X430734D01*
X424750Y378722D02*
Y385928D01*
X423233Y377205D02*
X424750Y378722D01*
X423233Y372210D02*
X424000Y371443D01*
Y365500D02*
Y371443D01*
X423233Y372210D02*
Y377205D01*
X341000Y371000D02*
X345000Y367000D01*
X347500Y360250D02*
Y361197D01*
X345000Y363697D02*
Y367000D01*
Y363697D02*
X347500Y361197D01*
X380250Y126386D02*
X383000Y123636D01*
X377000Y151279D02*
Y164990D01*
X380250Y126386D02*
Y134825D01*
X321991Y170000D02*
X327994D01*
X317000Y343213D02*
Y354000D01*
X305000Y342000D02*
X315787D01*
X317000Y343213D01*
X301000Y338000D02*
X305000Y342000D01*
X287250Y276500D02*
Y284750D01*
X295750Y264500D02*
X299750Y260500D01*
X295750Y264500D02*
Y264750D01*
X299750Y260500D02*
X300000D01*
X287000Y285000D02*
X287250Y284750D01*
Y273250D02*
Y276500D01*
X266059Y273052D02*
X283802D01*
X287250Y273250D02*
X295750Y264750D01*
X283802Y273052D02*
X287250Y276500D01*
X259593Y265359D02*
Y266586D01*
X266059Y273052D01*
X248734Y254500D02*
X259593Y265359D01*
X294319Y197671D02*
X321991Y170000D01*
X303990Y135990D02*
X304000D01*
X298604Y130604D02*
X303990Y135990D01*
X298604Y128354D02*
Y130604D01*
X298009Y127759D02*
X298604Y128354D01*
X297959Y114589D02*
Y127809D01*
Y114589D02*
X299570Y112978D01*
X297934Y127834D02*
X297959Y127809D01*
X304990Y107990D02*
X305000D01*
X299570Y112978D02*
X300002D01*
X304990Y107990D01*
X256250Y34000D02*
X261500Y28750D01*
X264289D02*
X265289Y27750D01*
X266237D01*
X261500Y28750D02*
X264289D01*
X226844Y254500D02*
X248734D01*
X224325Y253500D02*
X225844D01*
X226844Y254500D01*
X223325Y252500D02*
X224325Y253500D01*
X256250Y34000D02*
Y35000D01*
X211785Y254210D02*
X213495Y252500D01*
X223325D01*
X208040Y254210D02*
X211785D01*
X207370Y254880D02*
X208040Y254210D01*
D69*
X90000Y111900D02*
D03*
D70*
Y150000D02*
D03*
D71*
X35000Y525000D02*
D03*
X615000D02*
D03*
Y35000D02*
D03*
X35000D02*
D03*
D72*
X615250Y473432D02*
D03*
X170935Y395693D02*
D03*
X177935D02*
D03*
X167250Y381469D02*
D03*
X131102Y323450D02*
D03*
X145743Y322993D02*
D03*
X240111Y195111D02*
D03*
X32861Y408808D02*
D03*
X58249Y374749D02*
D03*
X454500Y453500D02*
D03*
X136368Y342536D02*
D03*
X137689Y365561D02*
D03*
X84955Y314154D02*
D03*
X79639Y324257D02*
D03*
X658000Y223000D02*
D03*
X635323Y310000D02*
D03*
X655000Y304250D02*
D03*
X374116Y506156D02*
D03*
X614000Y254750D02*
D03*
X648646Y483392D02*
D03*
X748392Y369392D02*
D03*
X618988Y122495D02*
D03*
X814250Y451500D02*
D03*
X769392Y450892D02*
D03*
X627750Y451000D02*
D03*
X696392Y192392D02*
D03*
X673700Y192012D02*
D03*
X583642Y191892D02*
D03*
X791000Y473000D02*
D03*
X754250Y473250D02*
D03*
X576793Y42265D02*
D03*
X559000Y32250D02*
D03*
X578000Y93250D02*
D03*
X578142Y109642D02*
D03*
X606582Y253452D02*
D03*
X759250Y285500D02*
D03*
X720691Y308310D02*
D03*
X733500Y316500D02*
D03*
X755500Y326000D02*
D03*
X573000Y483500D02*
D03*
X556000Y400551D02*
D03*
Y389551D02*
D03*
X719000Y378250D02*
D03*
X758750Y305250D02*
D03*
X734764Y354514D02*
D03*
X727750Y361250D02*
D03*
X755500Y336500D02*
D03*
X754500Y345000D02*
D03*
X572021Y365509D02*
D03*
X560500Y356250D02*
D03*
X559500Y365000D02*
D03*
X517825Y345000D02*
D03*
X568750Y373250D02*
D03*
X568974Y380924D02*
D03*
X539750Y359309D02*
D03*
X570008Y397500D02*
D03*
X574756Y446154D02*
D03*
X623500Y406000D02*
D03*
X547250Y435000D02*
D03*
X624270Y332758D02*
D03*
X619753Y248657D02*
D03*
X625000Y94809D02*
D03*
X638750Y496500D02*
D03*
X817994Y281715D02*
D03*
X88438Y7544D02*
D03*
X105000Y24750D02*
D03*
X95000Y25000D02*
D03*
X41500Y111250D02*
D03*
X77250Y224973D02*
D03*
X118500Y19250D02*
D03*
X427750Y459394D02*
D03*
X467750Y471000D02*
D03*
X310500Y323725D02*
D03*
Y300176D02*
D03*
X278492Y78728D02*
D03*
X308457Y80250D02*
D03*
X314918Y81582D02*
D03*
X311750Y287031D02*
D03*
X312000Y251250D02*
D03*
X297823Y230270D02*
D03*
X368209Y176250D02*
D03*
X382000Y114250D02*
D03*
X510264Y459910D02*
D03*
X510250Y447750D02*
D03*
X519698Y400844D02*
D03*
X515074Y421074D02*
D03*
X505157Y358500D02*
D03*
X501227Y347754D02*
D03*
X514381Y331435D02*
D03*
X428451Y467450D02*
D03*
X429770Y443465D02*
D03*
X344872Y504706D02*
D03*
X338000Y448000D02*
D03*
X388000Y426262D02*
D03*
X430902Y386096D02*
D03*
X461980Y340500D02*
D03*
X424000Y365500D02*
D03*
X338000Y418000D02*
D03*
X347500Y360250D02*
D03*
X505218Y294980D02*
D03*
X545443Y233520D02*
D03*
X509250Y207250D02*
D03*
X462611Y253389D02*
D03*
X478500Y191604D02*
D03*
X507000Y161730D02*
D03*
X505791Y110875D02*
D03*
X507355Y84773D02*
D03*
X490750Y157750D02*
D03*
X435899Y297853D02*
D03*
X351500Y292000D02*
D03*
X347000Y271500D02*
D03*
X400500Y111750D02*
D03*
X338500Y234000D02*
D03*
X375000Y35000D02*
D03*
X246250Y440500D02*
D03*
X233654Y476723D02*
D03*
X209750Y475512D02*
D03*
X206988Y409772D02*
D03*
X185481Y384423D02*
D03*
X317000Y354000D02*
D03*
X184460Y325626D02*
D03*
X168250Y456500D02*
D03*
X117095Y495658D02*
D03*
X84750Y467190D02*
D03*
X75750Y479810D02*
D03*
X87750Y445250D02*
D03*
X22750Y448750D02*
D03*
X127000Y386000D02*
D03*
X138000Y381000D02*
D03*
X134526Y354937D02*
D03*
X111000Y397500D02*
D03*
X108000Y378569D02*
D03*
X287000Y285000D02*
D03*
X262778Y283222D02*
D03*
X297934Y127834D02*
D03*
X294447Y197671D02*
D03*
X289894Y51407D02*
D03*
X266237Y27750D02*
D03*
X209000Y292000D02*
D03*
X164519Y292277D02*
D03*
X130000Y289250D02*
D03*
X75000Y284000D02*
D03*
X245580Y215250D02*
D03*
X230000Y195000D02*
D03*
X207370Y254880D02*
D03*
X86055Y259166D02*
D03*
X129014Y62514D02*
D03*
X437529Y221215D02*
D03*
X333732Y95032D02*
D03*
X295400Y97793D02*
D03*
X262500Y90000D02*
D03*
X268455Y69581D02*
D03*
X306250Y62000D02*
D03*
X263316Y315045D02*
D03*
X376750Y139250D02*
D03*
X374034Y85210D02*
D03*
X405003Y349583D02*
D03*
X415250Y37750D02*
D03*
X242952Y267750D02*
D03*
X59793Y240707D02*
D03*
X79260Y240506D02*
D03*
X74000Y245125D02*
D03*
X69861Y350361D02*
D03*
X76750Y364500D02*
D03*
X209000Y433250D02*
D03*
X209250Y444250D02*
D03*
X509000Y415250D02*
D03*
X138541Y373430D02*
D03*
X135750Y332500D02*
D03*
X106500Y486000D02*
D03*
X467856Y462107D02*
D03*
X293000Y362500D02*
D03*
X503750Y272750D02*
D03*
X308250Y195250D02*
D03*
X348250Y282500D02*
D03*
X497250Y406500D02*
D03*
X445000Y370250D02*
D03*
X283750Y252500D02*
D03*
X424000Y37500D02*
D03*
X385000Y35000D02*
D03*
X408750Y45000D02*
D03*
X461080Y418000D02*
D03*
X440500Y287521D02*
D03*
X380750Y349500D02*
D03*
X435500Y309000D02*
D03*
X405000Y309250D02*
D03*
X437500Y266562D02*
D03*
X436000Y255562D02*
D03*
X452000Y222500D02*
D03*
X539500Y50000D02*
D03*
X402230Y159475D02*
D03*
X287250Y423039D02*
D03*
X263750Y361387D02*
D03*
X248416Y388797D02*
D03*
X226500Y248250D02*
D03*
X231750Y165166D02*
D03*
X220000Y60000D02*
D03*
X494500Y309250D02*
D03*
X488000Y354000D02*
D03*
X36771Y419745D02*
D03*
X56250Y421250D02*
D03*
X47750Y422500D02*
D03*
X31028Y456028D02*
D03*
X139000Y392000D02*
D03*
X130250Y435750D02*
D03*
X283500Y237500D02*
D03*
X168250Y363500D02*
D03*
X176500Y334250D02*
D03*
X390750Y339250D02*
D03*
X349250Y319250D02*
D03*
X75250Y339000D02*
D03*
X138750Y283500D02*
D03*
X324188Y132500D02*
D03*
X262000Y130750D02*
D03*
X95607Y235607D02*
D03*
X116300Y342519D02*
D03*
X72250Y292000D02*
D03*
X119195Y354865D02*
D03*
X85566Y291017D02*
D03*
X235193Y303052D02*
D03*
X180250Y290750D02*
D03*
X356500Y404750D02*
D03*
X272847Y367847D02*
D03*
X200000Y421000D02*
D03*
X90780Y411185D02*
D03*
X153000Y485900D02*
D03*
X177000Y460000D02*
D03*
X226000Y455803D02*
D03*
X229000Y466755D02*
D03*
X115730Y488793D02*
D03*
X234250Y416250D02*
D03*
X236750Y442000D02*
D03*
X108014Y362730D02*
D03*
X87000Y240250D02*
D03*
X251029Y464315D02*
D03*
X262605Y465000D02*
D03*
X516217Y295282D02*
D03*
X518600Y320310D02*
D03*
X518662Y272904D02*
D03*
X341750Y263250D02*
D03*
X395250Y264750D02*
D03*
X465250Y286000D02*
D03*
X470000Y205000D02*
D03*
X522000Y206750D02*
D03*
X506250Y246000D02*
D03*
X341500Y400750D02*
D03*
X150000Y223750D02*
D03*
X340000Y290500D02*
D03*
X360250Y320000D02*
D03*
X386500Y416000D02*
D03*
X90000Y220000D02*
D03*
X350500Y460750D02*
D03*
X350750Y451000D02*
D03*
X239750Y169941D02*
D03*
X544216Y37283D02*
D03*
X139000Y109610D02*
D03*
X516000Y124000D02*
D03*
X99031Y471158D02*
D03*
X71750Y395500D02*
D03*
D73*
X441000Y273000D02*
D03*
X431800Y285040D02*
D03*
X217500Y366000D02*
D03*
X221500Y345742D02*
D03*
X430185Y413734D02*
D03*
X278500Y175500D02*
D03*
X268500Y174000D02*
D03*
X396500Y469250D02*
D03*
M02*
