G04*
G04 #@! TF.GenerationSoftware,Altium Limited,Altium Designer,26.6.0 (10)*
G04*
G04 Layer_Color=12632256*
G04 Board_Origin=29350000|14702756*
%FSLAX44Y44*%
%MOMM*%
G71*
G04*
G04 #@! TF.SameCoordinates,4A6F4C04-391A-4FDC-A87F-652DF65B7CFD*
G04*
G04*
G04 #@! TF.FilePolarity,Positive*
G04*
G01*
G75*
%ADD61C,1.5700*%
%ADD62R,1.5700X1.5700*%
%ADD69C,2.2000*%
%ADD70R,2.2000X2.2000*%
%ADD71C,6.2000*%
D61*
X566000Y514600D02*
D03*
X489800Y540000D02*
D03*
X439000D02*
D03*
X388200Y514600D02*
D03*
X312000Y540000D02*
D03*
X235800D02*
D03*
X134200D02*
D03*
X337400Y514600D02*
D03*
X362800Y540000D02*
D03*
X261200D02*
D03*
X312000Y514600D02*
D03*
X337400Y540000D02*
D03*
X286600D02*
D03*
X362800Y514600D02*
D03*
X261200D02*
D03*
X566000Y540000D02*
D03*
X540600D02*
D03*
X515200D02*
D03*
X464400D02*
D03*
X413600D02*
D03*
X388200D02*
D03*
X210400D02*
D03*
X185000D02*
D03*
X159600D02*
D03*
X108800D02*
D03*
X83400D02*
D03*
X540600Y514600D02*
D03*
X515200D02*
D03*
X489800D02*
D03*
X464400D02*
D03*
X439000D02*
D03*
X413600D02*
D03*
X286600D02*
D03*
X235800D02*
D03*
X210400D02*
D03*
X185000D02*
D03*
X159600D02*
D03*
X134200D02*
D03*
X108800D02*
D03*
D62*
X83400D02*
D03*
D69*
X90000Y111900D02*
D03*
D70*
Y150000D02*
D03*
D71*
X35000Y525000D02*
D03*
X615000D02*
D03*
Y35000D02*
D03*
X35000D02*
D03*
M02*
