G04*
G04 #@! TF.GenerationSoftware,Altium Limited,Altium Designer,26.6.0 (10)*
G04*
G04 Layer_Color=2752767*
G04 Board_Origin=29350000|14702756*
%FSLAX44Y44*%
%MOMM*%
G71*
G04*
G04 #@! TF.SameCoordinates,4A6F4C04-391A-4FDC-A87F-652DF65B7CFD*
G04*
G04*
G04 #@! TF.FilePolarity,Positive*
G04*
G01*
G75*
%ADD82C,0.1270*%
%ADD89C,0.1693*%
D82*
X560920Y509520D02*
X563460Y514600D01*
X560920Y519680D01*
X566000Y517140D01*
X571080Y519680D01*
X568540Y514600D01*
X571080Y509520D01*
X566000Y512060D01*
X560920Y509520D01*
X484720Y534920D02*
X487260Y540000D01*
X484720Y545080D01*
X489800Y542540D01*
X494880Y545080D01*
X492340Y540000D01*
X494880Y534920D01*
X489800Y537460D01*
X484720Y534920D01*
X433920D02*
X436460Y540000D01*
X433920Y545080D01*
X439000Y542540D01*
X444080Y545080D01*
X441540Y540000D01*
X444080Y534920D01*
X439000Y537460D01*
X433920Y534920D01*
X383120Y509520D02*
X385660Y514600D01*
X383120Y519680D01*
X388200Y517140D01*
X393280Y519680D01*
X390740Y514600D01*
X393280Y509520D01*
X388200Y512060D01*
X383120Y509520D01*
X306920Y534920D02*
X309460Y540000D01*
X306920Y545080D01*
X312000Y542540D01*
X317080Y545080D01*
X314540Y540000D01*
X317080Y534920D01*
X312000Y537460D01*
X306920Y534920D01*
X230720D02*
X233260Y540000D01*
X230720Y545080D01*
X235800Y542540D01*
X240880Y545080D01*
X238340Y540000D01*
X240880Y534920D01*
X235800Y537460D01*
X230720Y534920D01*
X129120D02*
X131660Y540000D01*
X129120Y545080D01*
X134200Y542540D01*
X139280Y545080D01*
X136740Y540000D01*
X139280Y534920D01*
X134200Y537460D01*
X129120Y534920D01*
X332320Y509520D02*
X334860Y514600D01*
X332320Y519680D01*
X337400Y517140D01*
X342480Y519680D01*
X339940Y514600D01*
X342480Y509520D01*
X337400Y512060D01*
X332320Y509520D01*
X357720Y534920D02*
X360260Y540000D01*
X357720Y545080D01*
X362800Y542540D01*
X367880Y545080D01*
X365340Y540000D01*
X367880Y534920D01*
X362800Y537460D01*
X357720Y534920D01*
X256120D02*
X258660Y540000D01*
X256120Y545080D01*
X261200Y542540D01*
X266280Y545080D01*
X263740Y540000D01*
X266280Y534920D01*
X261200Y537460D01*
X256120Y534920D01*
X306920Y509520D02*
X309460Y514600D01*
X306920Y519680D01*
X312000Y517140D01*
X317080Y519680D01*
X314540Y514600D01*
X317080Y509520D01*
X312000Y512060D01*
X306920Y509520D01*
X332320Y534920D02*
X334860Y540000D01*
X332320Y545080D01*
X337400Y542540D01*
X342480Y545080D01*
X339940Y540000D01*
X342480Y534920D01*
X337400Y537460D01*
X332320Y534920D01*
X281520D02*
X284060Y540000D01*
X281520Y545080D01*
X286600Y542540D01*
X291680Y545080D01*
X289140Y540000D01*
X291680Y534920D01*
X286600Y537460D01*
X281520Y534920D01*
X357720Y509520D02*
X360260Y514600D01*
X357720Y519680D01*
X362800Y517140D01*
X367880Y519680D01*
X365340Y514600D01*
X367880Y509520D01*
X362800Y512060D01*
X357720Y509520D01*
X256120D02*
X258660Y514600D01*
X256120Y519680D01*
X261200Y517140D01*
X266280Y519680D01*
X263740Y514600D01*
X266280Y509520D01*
X261200Y512060D01*
X256120Y509520D01*
X560920Y534920D02*
X563460Y540000D01*
X560920Y545080D01*
X566000Y542540D01*
X571080Y545080D01*
X568540Y540000D01*
X571080Y534920D01*
X566000Y537460D01*
X560920Y534920D01*
X535520D02*
X538060Y540000D01*
X535520Y545080D01*
X540600Y542540D01*
X545680Y545080D01*
X543140Y540000D01*
X545680Y534920D01*
X540600Y537460D01*
X535520Y534920D01*
X510120D02*
X512660Y540000D01*
X510120Y545080D01*
X515200Y542540D01*
X520280Y545080D01*
X517740Y540000D01*
X520280Y534920D01*
X515200Y537460D01*
X510120Y534920D01*
X459320D02*
X461860Y540000D01*
X459320Y545080D01*
X464400Y542540D01*
X469480Y545080D01*
X466940Y540000D01*
X469480Y534920D01*
X464400Y537460D01*
X459320Y534920D01*
X408520D02*
X411060Y540000D01*
X408520Y545080D01*
X413600Y542540D01*
X418680Y545080D01*
X416140Y540000D01*
X418680Y534920D01*
X413600Y537460D01*
X408520Y534920D01*
X383120D02*
X385660Y540000D01*
X383120Y545080D01*
X388200Y542540D01*
X393280Y545080D01*
X390740Y540000D01*
X393280Y534920D01*
X388200Y537460D01*
X383120Y534920D01*
X205320D02*
X207860Y540000D01*
X205320Y545080D01*
X210400Y542540D01*
X215480Y545080D01*
X212940Y540000D01*
X215480Y534920D01*
X210400Y537460D01*
X205320Y534920D01*
X179920D02*
X182460Y540000D01*
X179920Y545080D01*
X185000Y542540D01*
X190080Y545080D01*
X187540Y540000D01*
X190080Y534920D01*
X185000Y537460D01*
X179920Y534920D01*
X154520D02*
X157060Y540000D01*
X154520Y545080D01*
X159600Y542540D01*
X164680Y545080D01*
X162140Y540000D01*
X164680Y534920D01*
X159600Y537460D01*
X154520Y534920D01*
X103720D02*
X106260Y540000D01*
X103720Y545080D01*
X108800Y542540D01*
X113880Y545080D01*
X111340Y540000D01*
X113880Y534920D01*
X108800Y537460D01*
X103720Y534920D01*
X78320D02*
X80860Y540000D01*
X78320Y545080D01*
X83400Y542540D01*
X88480Y545080D01*
X85940Y540000D01*
X88480Y534920D01*
X83400Y537460D01*
X78320Y534920D01*
X535520Y509520D02*
X538060Y514600D01*
X535520Y519680D01*
X540600Y517140D01*
X545680Y519680D01*
X543140Y514600D01*
X545680Y509520D01*
X540600Y512060D01*
X535520Y509520D01*
X510120D02*
X512660Y514600D01*
X510120Y519680D01*
X515200Y517140D01*
X520280Y519680D01*
X517740Y514600D01*
X520280Y509520D01*
X515200Y512060D01*
X510120Y509520D01*
X484720D02*
X487260Y514600D01*
X484720Y519680D01*
X489800Y517140D01*
X494880Y519680D01*
X492340Y514600D01*
X494880Y509520D01*
X489800Y512060D01*
X484720Y509520D01*
X459320D02*
X461860Y514600D01*
X459320Y519680D01*
X464400Y517140D01*
X469480Y519680D01*
X466940Y514600D01*
X469480Y509520D01*
X464400Y512060D01*
X459320Y509520D01*
X433920D02*
X436460Y514600D01*
X433920Y519680D01*
X439000Y517140D01*
X444080Y519680D01*
X441540Y514600D01*
X444080Y509520D01*
X439000Y512060D01*
X433920Y509520D01*
X408520D02*
X411060Y514600D01*
X408520Y519680D01*
X413600Y517140D01*
X418680Y519680D01*
X416140Y514600D01*
X418680Y509520D01*
X413600Y512060D01*
X408520Y509520D01*
X281520D02*
X284060Y514600D01*
X281520Y519680D01*
X286600Y517140D01*
X291680Y519680D01*
X289140Y514600D01*
X291680Y509520D01*
X286600Y512060D01*
X281520Y509520D01*
X230720D02*
X233260Y514600D01*
X230720Y519680D01*
X235800Y517140D01*
X240880Y519680D01*
X238340Y514600D01*
X240880Y509520D01*
X235800Y512060D01*
X230720Y509520D01*
X205320D02*
X207860Y514600D01*
X205320Y519680D01*
X210400Y517140D01*
X215480Y519680D01*
X212940Y514600D01*
X215480Y509520D01*
X210400Y512060D01*
X205320Y509520D01*
X179920D02*
X182460Y514600D01*
X179920Y519680D01*
X185000Y517140D01*
X190080Y519680D01*
X187540Y514600D01*
X190080Y509520D01*
X185000Y512060D01*
X179920Y509520D01*
X154520D02*
X157060Y514600D01*
X154520Y519680D01*
X159600Y517140D01*
X164680Y519680D01*
X162140Y514600D01*
X164680Y509520D01*
X159600Y512060D01*
X154520Y509520D01*
X129120D02*
X131660Y514600D01*
X129120Y519680D01*
X134200Y517140D01*
X139280Y519680D01*
X136740Y514600D01*
X139280Y509520D01*
X134200Y512060D01*
X129120Y509520D01*
X103720D02*
X106260Y514600D01*
X103720Y519680D01*
X108800Y517140D01*
X113880Y519680D01*
X111340Y514600D01*
X113880Y509520D01*
X108800Y512060D01*
X103720Y509520D01*
X78320D02*
X80860Y514600D01*
X78320Y519680D01*
X83400Y517140D01*
X88480Y519680D01*
X85940Y514600D01*
X88480Y509520D01*
X83400Y512060D01*
X78320Y509520D01*
X90000Y106820D02*
X92540Y109360D01*
X95080D01*
X92540Y111900D01*
X95080Y114440D01*
X92540D01*
X90000Y116980D01*
X87460Y114440D01*
X84920D01*
X87460Y111900D01*
X84920Y109360D01*
X87460D01*
X90000Y106820D01*
Y144920D02*
X92540Y147460D01*
X95080D01*
X92540Y150000D01*
X95080Y152540D01*
X92540D01*
X90000Y155080D01*
X87460Y152540D01*
X84920D01*
X87460Y150000D01*
X84920Y147460D01*
X87460D01*
X90000Y144920D01*
X615250Y468352D02*
X610170Y478512D01*
X620330D01*
X615250Y468352D01*
X170935Y390613D02*
X165855Y400773D01*
X176015D01*
X170935Y390613D01*
X177935D02*
X172855Y400773D01*
X183015D01*
X177935Y390613D01*
X167250Y376389D02*
X162170Y386549D01*
X172330D01*
X167250Y376389D01*
X131102Y318370D02*
X126022Y328530D01*
X136182D01*
X131102Y318370D01*
X145743Y317913D02*
X140663Y328073D01*
X150823D01*
X145743Y317913D01*
X240111Y190031D02*
X235031Y200191D01*
X245191D01*
X240111Y190031D01*
X32861Y403728D02*
X27782Y413888D01*
X37942D01*
X32861Y403728D01*
X58249Y369669D02*
X53169Y379829D01*
X63329D01*
X58249Y369669D01*
X454500Y448420D02*
X449420Y458580D01*
X459580D01*
X454500Y448420D01*
X136368Y337456D02*
X131288Y347616D01*
X141448D01*
X136368Y337456D01*
X137689Y360481D02*
X132609Y370641D01*
X142769D01*
X137689Y360481D01*
X84955Y309074D02*
X79875Y319234D01*
X90035D01*
X84955Y309074D01*
X79639Y319177D02*
X74559Y329337D01*
X84719D01*
X79639Y319177D01*
X658000Y217920D02*
X652920Y228080D01*
X663080D01*
X658000Y217920D01*
X635323Y304920D02*
X630243Y315080D01*
X640403D01*
X635323Y304920D01*
X655000Y299170D02*
X649920Y309330D01*
X660080D01*
X655000Y299170D01*
X374116Y501076D02*
X369036Y511236D01*
X379196D01*
X374116Y501076D01*
X614000Y249670D02*
X608920Y259830D01*
X619080D01*
X614000Y249670D01*
X648646Y478312D02*
X643566Y488472D01*
X653726D01*
X648646Y478312D01*
X748392Y364312D02*
X743312Y374472D01*
X753472D01*
X748392Y364312D01*
X618988Y117415D02*
X613908Y127575D01*
X624068D01*
X618988Y117415D01*
X814250Y446420D02*
X809170Y456580D01*
X819330D01*
X814250Y446420D01*
X769392Y445812D02*
X764312Y455972D01*
X774472D01*
X769392Y445812D01*
X627750Y445920D02*
X622670Y456080D01*
X632830D01*
X627750Y445920D01*
X696392Y187312D02*
X691312Y197472D01*
X701472D01*
X696392Y187312D01*
X673700Y186932D02*
X668620Y197092D01*
X678780D01*
X673700Y186932D01*
X583642Y186812D02*
X578562Y196972D01*
X588722D01*
X583642Y186812D01*
X791000Y467920D02*
X785920Y478080D01*
X796080D01*
X791000Y467920D01*
X754250Y468170D02*
X749170Y478330D01*
X759330D01*
X754250Y468170D01*
X576793Y37185D02*
X571713Y47345D01*
X581873D01*
X576793Y37185D01*
X559000Y27170D02*
X553920Y37330D01*
X564080D01*
X559000Y27170D01*
X578000Y88170D02*
X572920Y98330D01*
X583080D01*
X578000Y88170D01*
X578142Y104562D02*
X573062Y114722D01*
X583222D01*
X578142Y104562D01*
X606582Y248372D02*
X601502Y258532D01*
X611662D01*
X606582Y248372D01*
X759250Y280420D02*
X754170Y290580D01*
X764330D01*
X759250Y280420D01*
X720691Y303230D02*
X715611Y313390D01*
X725770D01*
X720691Y303230D01*
X733500Y311420D02*
X728420Y321580D01*
X738580D01*
X733500Y311420D01*
X755500Y320920D02*
X750420Y331080D01*
X760580D01*
X755500Y320920D01*
X573000Y478420D02*
X567920Y488580D01*
X578080D01*
X573000Y478420D01*
X556000Y395471D02*
X550920Y405631D01*
X561080D01*
X556000Y395471D01*
Y384471D02*
X550920Y394631D01*
X561080D01*
X556000Y384471D01*
X719000Y373170D02*
X713920Y383330D01*
X724080D01*
X719000Y373170D01*
X758750Y300170D02*
X753670Y310330D01*
X763830D01*
X758750Y300170D01*
X734764Y349434D02*
X729684Y359594D01*
X739844D01*
X734764Y349434D01*
X727750Y356170D02*
X722670Y366330D01*
X732830D01*
X727750Y356170D01*
X755500Y331420D02*
X750420Y341580D01*
X760580D01*
X755500Y331420D01*
X754500Y339920D02*
X749420Y350080D01*
X759580D01*
X754500Y339920D01*
X572021Y360429D02*
X566941Y370589D01*
X577101D01*
X572021Y360429D01*
X560500Y351170D02*
X555420Y361330D01*
X565580D01*
X560500Y351170D01*
X559500Y359920D02*
X554420Y370080D01*
X564580D01*
X559500Y359920D01*
X517825Y339920D02*
X512745Y350080D01*
X522905D01*
X517825Y339920D01*
X568750Y368170D02*
X563670Y378330D01*
X573830D01*
X568750Y368170D01*
X568974Y375844D02*
X563894Y386004D01*
X574054D01*
X568974Y375844D01*
X539750Y354229D02*
X534670Y364389D01*
X544830D01*
X539750Y354229D01*
X570008Y392420D02*
X564928Y402580D01*
X575088D01*
X570008Y392420D01*
X574756Y441074D02*
X569676Y451234D01*
X579836D01*
X574756Y441074D01*
X623500Y400920D02*
X618420Y411080D01*
X628580D01*
X623500Y400920D01*
X547250Y429920D02*
X542170Y440080D01*
X552330D01*
X547250Y429920D01*
X624270Y327678D02*
X619190Y337838D01*
X629350D01*
X624270Y327678D01*
X619753Y243577D02*
X614673Y253737D01*
X624833D01*
X619753Y243577D01*
X625000Y89728D02*
X619920Y99888D01*
X630080D01*
X625000Y89728D01*
X638750Y491420D02*
X633670Y501580D01*
X643830D01*
X638750Y491420D01*
X817994Y276635D02*
X812914Y286795D01*
X823074D01*
X817994Y276635D01*
X88438Y2464D02*
X83358Y12624D01*
X93518D01*
X88438Y2464D01*
X105000Y19670D02*
X99920Y29830D01*
X110080D01*
X105000Y19670D01*
X95000Y19920D02*
X89920Y30080D01*
X100080D01*
X95000Y19920D01*
X41500Y106170D02*
X36420Y116330D01*
X46580D01*
X41500Y106170D01*
X77250Y219893D02*
X72170Y230053D01*
X82330D01*
X77250Y219893D01*
X118500Y14170D02*
X113420Y24330D01*
X123580D01*
X118500Y14170D01*
X427750Y454314D02*
X422670Y464474D01*
X432830D01*
X427750Y454314D01*
X467750Y465920D02*
X462670Y476080D01*
X472830D01*
X467750Y465920D01*
X310500Y318645D02*
X305420Y328805D01*
X315580D01*
X310500Y318645D01*
Y295096D02*
X305420Y305256D01*
X315580D01*
X310500Y295096D01*
X278492Y73648D02*
X273412Y83808D01*
X283572D01*
X278492Y73648D01*
X308457Y75170D02*
X303377Y85330D01*
X313537D01*
X308457Y75170D01*
X314918Y76502D02*
X309838Y86662D01*
X319998D01*
X314918Y76502D01*
X311750Y281951D02*
X306670Y292111D01*
X316830D01*
X311750Y281951D01*
X312000Y246170D02*
X306920Y256330D01*
X317080D01*
X312000Y246170D01*
X297823Y225189D02*
X292743Y235350D01*
X302903D01*
X297823Y225189D01*
X368209Y171170D02*
X363129Y181330D01*
X373289D01*
X368209Y171170D01*
X382000Y109170D02*
X376920Y119330D01*
X387080D01*
X382000Y109170D01*
X510264Y454830D02*
X505184Y464990D01*
X515344D01*
X510264Y454830D01*
X510250Y442670D02*
X505170Y452830D01*
X515330D01*
X510250Y442670D01*
X519698Y395764D02*
X514618Y405924D01*
X524778D01*
X519698Y395764D01*
X515074Y415994D02*
X509994Y426154D01*
X520154D01*
X515074Y415994D01*
X505157Y353420D02*
X500077Y363580D01*
X510237D01*
X505157Y353420D01*
X501227Y342674D02*
X496147Y352834D01*
X506307D01*
X501227Y342674D01*
X514381Y326355D02*
X509301Y336515D01*
X519462D01*
X514381Y326355D01*
X428451Y462370D02*
X423371Y472530D01*
X433531D01*
X428451Y462370D01*
X429770Y438385D02*
X424690Y448545D01*
X434850D01*
X429770Y438385D01*
X344872Y499626D02*
X339792Y509786D01*
X349952D01*
X344872Y499626D01*
X338000Y442920D02*
X332920Y453080D01*
X343080D01*
X338000Y442920D01*
X388000Y421182D02*
X382920Y431342D01*
X393080D01*
X388000Y421182D01*
X430902Y381016D02*
X425822Y391176D01*
X435983D01*
X430902Y381016D01*
X461980Y335420D02*
X456900Y345580D01*
X467060D01*
X461980Y335420D01*
X424000Y360420D02*
X418920Y370580D01*
X429080D01*
X424000Y360420D01*
X338000Y412920D02*
X332920Y423080D01*
X343080D01*
X338000Y412920D01*
X347500Y355170D02*
X342420Y365330D01*
X352580D01*
X347500Y355170D01*
X505218Y289900D02*
X500137Y300060D01*
X510298D01*
X505218Y289900D01*
X545443Y228440D02*
X540363Y238600D01*
X550523D01*
X545443Y228440D01*
X509250Y202170D02*
X504170Y212330D01*
X514330D01*
X509250Y202170D01*
X462611Y248309D02*
X457531Y258469D01*
X467691D01*
X462611Y248309D01*
X478500Y186524D02*
X473420Y196684D01*
X483580D01*
X478500Y186524D01*
X507000Y156650D02*
X501920Y166810D01*
X512080D01*
X507000Y156650D01*
X505791Y105795D02*
X500711Y115955D01*
X510871D01*
X505791Y105795D01*
X507355Y79693D02*
X502275Y89853D01*
X512435D01*
X507355Y79693D01*
X490750Y152670D02*
X485670Y162830D01*
X495830D01*
X490750Y152670D01*
X435899Y292773D02*
X430819Y302933D01*
X440979D01*
X435899Y292773D01*
X441000Y267920D02*
X435920Y278080D01*
X446080D01*
X441000Y267920D01*
X431800Y279960D02*
X426720Y290120D01*
X436880D01*
X431800Y279960D01*
X351500Y286920D02*
X346420Y297080D01*
X356580D01*
X351500Y286920D01*
X347000Y266420D02*
X341920Y276580D01*
X352080D01*
X347000Y266420D01*
X400500Y106670D02*
X395420Y116830D01*
X405580D01*
X400500Y106670D01*
X338500Y228920D02*
X333420Y239080D01*
X343580D01*
X338500Y228920D01*
X375000Y29920D02*
X369920Y40080D01*
X380080D01*
X375000Y29920D01*
X246250Y435420D02*
X241170Y445580D01*
X251330D01*
X246250Y435420D01*
X233654Y471643D02*
X228575Y481803D01*
X238734D01*
X233654Y471643D01*
X209750Y470432D02*
X204670Y480592D01*
X214830D01*
X209750Y470432D01*
X206988Y404692D02*
X201908Y414852D01*
X212068D01*
X206988Y404692D01*
X185481Y379343D02*
X180401Y389503D01*
X190561D01*
X185481Y379343D01*
X317000Y348920D02*
X311920Y359080D01*
X322080D01*
X317000Y348920D01*
X212420Y360920D02*
X214960D01*
X217500Y363460D01*
X220040Y360920D01*
X222580D01*
Y363460D01*
X220040Y366000D01*
X222580Y368540D01*
Y371080D01*
X220040D01*
X217500Y368540D01*
X214960Y371080D01*
X212420D01*
Y368540D01*
X214960Y366000D01*
X212420Y363460D01*
Y360920D01*
X216420Y340662D02*
X218960D01*
X221500Y343202D01*
X224040Y340662D01*
X226580D01*
Y343202D01*
X224040Y345742D01*
X226580Y348282D01*
Y350822D01*
X224040D01*
X221500Y348282D01*
X218960Y350822D01*
X216420D01*
Y348282D01*
X218960Y345742D01*
X216420Y343202D01*
Y340662D01*
X184460Y320546D02*
X179380Y330706D01*
X189540D01*
X184460Y320546D01*
X168250Y451420D02*
X163170Y461580D01*
X173330D01*
X168250Y451420D01*
X117095Y490578D02*
X112015Y500738D01*
X122175D01*
X117095Y490578D01*
X84750Y462110D02*
X79670Y472270D01*
X89830D01*
X84750Y462110D01*
X75750Y474730D02*
X70670Y484890D01*
X80830D01*
X75750Y474730D01*
X87750Y440170D02*
X82670Y450330D01*
X92830D01*
X87750Y440170D01*
X22750Y443670D02*
X17670Y453830D01*
X27830D01*
X22750Y443670D01*
X127000Y380920D02*
X121920Y391080D01*
X132080D01*
X127000Y380920D01*
X138000Y375920D02*
X132920Y386080D01*
X143080D01*
X138000Y375920D01*
X134526Y349857D02*
X129446Y360017D01*
X139606D01*
X134526Y349857D01*
X111000Y392420D02*
X105920Y402580D01*
X116080D01*
X111000Y392420D01*
X108000Y373489D02*
X102920Y383649D01*
X113080D01*
X108000Y373489D01*
X287000Y279920D02*
X281920Y290080D01*
X292080D01*
X287000Y279920D01*
X262778Y278142D02*
X257698Y288302D01*
X267858D01*
X262778Y278142D01*
X297934Y122754D02*
X292854Y132914D01*
X303014D01*
X297934Y122754D01*
X294447Y192591D02*
X289367Y202751D01*
X299527D01*
X294447Y192591D01*
X289894Y46327D02*
X284814Y56487D01*
X294974D01*
X289894Y46327D01*
X266237Y22670D02*
X261157Y32830D01*
X271317D01*
X266237Y22670D01*
X209000Y286920D02*
X203920Y297080D01*
X214080D01*
X209000Y286920D01*
X164519Y287197D02*
X159439Y297357D01*
X169599D01*
X164519Y287197D01*
X130000Y284170D02*
X124920Y294330D01*
X135080D01*
X130000Y284170D01*
X75000Y278920D02*
X69920Y289080D01*
X80080D01*
X75000Y278920D01*
X245580Y210170D02*
X240500Y220330D01*
X250660D01*
X245580Y210170D01*
X230000Y189920D02*
X224920Y200080D01*
X235080D01*
X230000Y189920D01*
X207370Y249800D02*
X202290Y259960D01*
X212450D01*
X207370Y249800D01*
X86055Y254086D02*
X80975Y264246D01*
X91135D01*
X86055Y254086D01*
X129014Y57434D02*
X123934Y67594D01*
X134094D01*
X129014Y57434D01*
X437529Y216134D02*
X432449Y226294D01*
X442609D01*
X437529Y216134D01*
X333732Y89952D02*
X328652Y100112D01*
X338812D01*
X333732Y89952D01*
X295400Y92713D02*
X290320Y102873D01*
X300480D01*
X295400Y92713D01*
X262500Y84920D02*
X257420Y95080D01*
X267580D01*
X262500Y84920D01*
X268455Y64501D02*
X263375Y74661D01*
X273535D01*
X268455Y64501D01*
X306250Y56920D02*
X301170Y67080D01*
X311330D01*
X306250Y56920D01*
X263316Y309965D02*
X258236Y320125D01*
X268396D01*
X263316Y309965D01*
X376750Y134170D02*
X371670Y144330D01*
X381830D01*
X376750Y134170D01*
X374034Y80129D02*
X368954Y90289D01*
X379114D01*
X374034Y80129D01*
X405003Y344503D02*
X399923Y354663D01*
X410083D01*
X405003Y344503D01*
X415250Y32670D02*
X410170Y42830D01*
X420330D01*
X415250Y32670D01*
X242952Y262670D02*
X237873Y272830D01*
X248032D01*
X242952Y262670D01*
X59793Y235627D02*
X54713Y245787D01*
X64873D01*
X59793Y235627D01*
X79260Y235426D02*
X74180Y245586D01*
X84340D01*
X79260Y235426D01*
X74000Y240045D02*
X68920Y250205D01*
X79080D01*
X74000Y240045D01*
X69861Y345281D02*
X64781Y355441D01*
X74941D01*
X69861Y345281D01*
X76750Y359420D02*
X71670Y369580D01*
X81830D01*
X76750Y359420D01*
X209000Y428170D02*
X203920Y438330D01*
X214080D01*
X209000Y428170D01*
X209250Y439170D02*
X204170Y449330D01*
X214330D01*
X209250Y439170D01*
X509000Y410170D02*
X503920Y420330D01*
X514080D01*
X509000Y410170D01*
X138541Y368350D02*
X133461Y378510D01*
X143621D01*
X138541Y368350D01*
X135750Y327420D02*
X130670Y337580D01*
X140830D01*
X135750Y327420D01*
X106500Y480920D02*
X101420Y491080D01*
X111580D01*
X106500Y480920D01*
X467856Y457026D02*
X462776Y467187D01*
X472937D01*
X467856Y457026D01*
X293000Y357420D02*
X287920Y367580D01*
X298080D01*
X293000Y357420D01*
X503750Y267670D02*
X498670Y277830D01*
X508830D01*
X503750Y267670D01*
X308250Y190170D02*
X303170Y200330D01*
X313330D01*
X308250Y190170D01*
X348250Y277420D02*
X343170Y287580D01*
X353330D01*
X348250Y277420D01*
X497250Y401420D02*
X492170Y411580D01*
X502330D01*
X497250Y401420D01*
X445000Y365170D02*
X439920Y375330D01*
X450080D01*
X445000Y365170D01*
X430185Y408654D02*
X425105Y418814D01*
X435265D01*
X430185Y408654D01*
X275960Y172960D02*
Y170420D01*
X281040D01*
Y172960D01*
X283580D01*
Y178040D01*
X281040D01*
Y180580D01*
X275960D01*
Y178040D01*
X273420D01*
Y172960D01*
X275960D01*
X265960Y171460D02*
Y168920D01*
X271040D01*
Y171460D01*
X273580D01*
Y176540D01*
X271040D01*
Y179080D01*
X265960D01*
Y176540D01*
X263420D01*
Y171460D01*
X265960D01*
X283750Y247420D02*
X278670Y257580D01*
X288830D01*
X283750Y247420D01*
X424000Y32420D02*
X418920Y42580D01*
X429080D01*
X424000Y32420D01*
X385000Y29920D02*
X379920Y40080D01*
X390080D01*
X385000Y29920D01*
X408750Y39920D02*
X403670Y50080D01*
X413830D01*
X408750Y39920D01*
X461080Y412920D02*
X456000Y423080D01*
X466160D01*
X461080Y412920D01*
X440500Y282441D02*
X435420Y292601D01*
X445580D01*
X440500Y282441D01*
X380750Y344420D02*
X375670Y354580D01*
X385830D01*
X380750Y344420D01*
X435500Y303920D02*
X430420Y314080D01*
X440580D01*
X435500Y303920D01*
X405000Y304170D02*
X399920Y314330D01*
X410080D01*
X405000Y304170D01*
X437500Y261482D02*
X432420Y271642D01*
X442580D01*
X437500Y261482D01*
X436000Y250482D02*
X430920Y260642D01*
X441080D01*
X436000Y250482D01*
X452000Y217420D02*
X446920Y227580D01*
X457080D01*
X452000Y217420D01*
X539500Y44920D02*
X534420Y55080D01*
X544580D01*
X539500Y44920D01*
X402230Y154395D02*
X397150Y164555D01*
X407310D01*
X402230Y154395D01*
X287250Y417959D02*
X282170Y428119D01*
X292330D01*
X287250Y417959D01*
X263750Y356307D02*
X258670Y366467D01*
X268830D01*
X263750Y356307D01*
X248416Y383717D02*
X243336Y393876D01*
X253496D01*
X248416Y383717D01*
X226500Y243170D02*
X221420Y253330D01*
X231580D01*
X226500Y243170D01*
X231750Y160086D02*
X226670Y170246D01*
X236830D01*
X231750Y160086D01*
X220000Y54920D02*
X214920Y65080D01*
X225080D01*
X220000Y54920D01*
X494500Y304170D02*
X489420Y314330D01*
X499580D01*
X494500Y304170D01*
X488000Y348920D02*
X482920Y359080D01*
X493080D01*
X488000Y348920D01*
X36771Y414665D02*
X31691Y424825D01*
X41851D01*
X36771Y414665D01*
X56250Y416170D02*
X51170Y426330D01*
X61330D01*
X56250Y416170D01*
X47750Y417420D02*
X42670Y427580D01*
X52830D01*
X47750Y417420D01*
X31028Y450948D02*
X25948Y461108D01*
X36108D01*
X31028Y450948D01*
X139000Y386920D02*
X133920Y397080D01*
X144080D01*
X139000Y386920D01*
X130250Y430670D02*
X125170Y440830D01*
X135330D01*
X130250Y430670D01*
X283500Y232420D02*
X278420Y242580D01*
X288580D01*
X283500Y232420D01*
X168250Y358420D02*
X163170Y368580D01*
X173330D01*
X168250Y358420D01*
X176500Y329170D02*
X171420Y339330D01*
X181580D01*
X176500Y329170D01*
X390750Y334170D02*
X385670Y344330D01*
X395830D01*
X390750Y334170D01*
X349250Y314170D02*
X344170Y324330D01*
X354330D01*
X349250Y314170D01*
X75250Y333920D02*
X70170Y344080D01*
X80330D01*
X75250Y333920D01*
X138750Y278420D02*
X133670Y288580D01*
X143830D01*
X138750Y278420D01*
X324188Y127420D02*
X319108Y137580D01*
X329268D01*
X324188Y127420D01*
X262000Y125670D02*
X256920Y135830D01*
X267080D01*
X262000Y125670D01*
X95607Y230527D02*
X90527Y240687D01*
X100687D01*
X95607Y230527D01*
X116300Y337439D02*
X111220Y347599D01*
X121380D01*
X116300Y337439D01*
X72250Y286920D02*
X67170Y297080D01*
X77330D01*
X72250Y286920D01*
X119195Y349785D02*
X114115Y359945D01*
X124275D01*
X119195Y349785D01*
X85566Y285937D02*
X80486Y296097D01*
X90646D01*
X85566Y285937D01*
X235193Y297972D02*
X230113Y308132D01*
X240273D01*
X235193Y297972D01*
X180250Y285670D02*
X175170Y295830D01*
X185330D01*
X180250Y285670D01*
X356500Y399670D02*
X351420Y409830D01*
X361580D01*
X356500Y399670D01*
X272847Y362767D02*
X267767Y372927D01*
X277927D01*
X272847Y362767D01*
X393960Y466710D02*
Y464170D01*
X399040D01*
Y466710D01*
X401580D01*
Y471790D01*
X399040D01*
Y474330D01*
X393960D01*
Y471790D01*
X391420D01*
Y466710D01*
X393960D01*
X200000Y415920D02*
X194920Y426080D01*
X205080D01*
X200000Y415920D01*
X90780Y406105D02*
X85700Y416265D01*
X95860D01*
X90780Y406105D01*
X153000Y480820D02*
X147920Y490980D01*
X158080D01*
X153000Y480820D01*
X177000Y454920D02*
X171920Y465080D01*
X182080D01*
X177000Y454920D01*
X226000Y450723D02*
X220920Y460883D01*
X231080D01*
X226000Y450723D01*
X229000Y461675D02*
X223920Y471835D01*
X234080D01*
X229000Y461675D01*
X115730Y483713D02*
X110650Y493873D01*
X120810D01*
X115730Y483713D01*
X234250Y411170D02*
X229170Y421330D01*
X239330D01*
X234250Y411170D01*
X236750Y436920D02*
X231670Y447080D01*
X241830D01*
X236750Y436920D01*
X108014Y357650D02*
X102935Y367810D01*
X113095D01*
X108014Y357650D01*
X87000Y235170D02*
X81920Y245330D01*
X92080D01*
X87000Y235170D01*
X251029Y459235D02*
X245949Y469395D01*
X256109D01*
X251029Y459235D01*
X262605Y459920D02*
X257525Y470080D01*
X267685D01*
X262605Y459920D01*
X516217Y290203D02*
X511138Y300362D01*
X521297D01*
X516217Y290203D01*
X518600Y315230D02*
X513520Y325390D01*
X523680D01*
X518600Y315230D01*
X518662Y267824D02*
X513582Y277984D01*
X523742D01*
X518662Y267824D01*
X341750Y258170D02*
X336670Y268330D01*
X346830D01*
X341750Y258170D01*
X395250Y259670D02*
X390170Y269830D01*
X400330D01*
X395250Y259670D01*
X465250Y280920D02*
X460170Y291080D01*
X470330D01*
X465250Y280920D01*
X470000Y199920D02*
X464920Y210080D01*
X475080D01*
X470000Y199920D01*
X522000Y201670D02*
X516920Y211830D01*
X527080D01*
X522000Y201670D01*
X506250Y240920D02*
X501170Y251080D01*
X511330D01*
X506250Y240920D01*
X341500Y395670D02*
X336420Y405830D01*
X346580D01*
X341500Y395670D01*
X150000Y218670D02*
X144920Y228830D01*
X155080D01*
X150000Y218670D01*
X340000Y285420D02*
X334920Y295580D01*
X345080D01*
X340000Y285420D01*
X360250Y314920D02*
X355170Y325080D01*
X365330D01*
X360250Y314920D01*
X386500Y410920D02*
X381420Y421080D01*
X391580D01*
X386500Y410920D01*
X90000Y214920D02*
X84920Y225080D01*
X95080D01*
X90000Y214920D01*
X350500Y455670D02*
X345420Y465830D01*
X355580D01*
X350500Y455670D01*
X350750Y445920D02*
X345670Y456080D01*
X355830D01*
X350750Y445920D01*
X239750Y164861D02*
X234670Y175021D01*
X244830D01*
X239750Y164861D01*
X544216Y32204D02*
X539137Y42364D01*
X549296D01*
X544216Y32204D01*
X139000Y104530D02*
X133920Y114690D01*
X144080D01*
X139000Y104530D01*
X516000Y118920D02*
X510920Y129080D01*
X521080D01*
X516000Y118920D01*
X99031Y466078D02*
X93951Y476238D01*
X104111D01*
X99031Y466078D01*
X71750Y390420D02*
X66670Y400580D01*
X76830D01*
X71750Y390420D01*
D89*
X40080Y525000D02*
G03*
X40080Y525000I-5080J0D01*
G01*
X620080D02*
G03*
X620080Y525000I-5080J0D01*
G01*
Y35000D02*
G03*
X620080Y35000I-5080J0D01*
G01*
X40080D02*
G03*
X40080Y35000I-5080J0D01*
G01*
M02*
