G04*
G04 #@! TF.GenerationSoftware,Altium Limited,Altium Designer,26.6.0 (10)*
G04*
G04 Layer_Color=8388736*
G04 Board_Origin=29350000|14702756*
%FSLAX44Y44*%
%MOMM*%
G71*
G04*
G04 #@! TF.SameCoordinates,4A6F4C04-391A-4FDC-A87F-652DF65B7CFD*
G04*
G04*
G04 #@! TF.FilePolarity,Negative*
G04*
G01*
G75*
G04:AMPARAMS|DCode=17|XSize=1.5397mm|YSize=0.5658mm|CornerRadius=0.2829mm|HoleSize=0mm|Usage=FLASHONLY|Rotation=0.000|XOffset=0mm|YOffset=0mm|HoleType=Round|Shape=RoundedRectangle|*
%AMROUNDEDRECTD17*
21,1,1.5397,0.0000,0,0,0.0*
21,1,0.9739,0.5658,0,0,0.0*
1,1,0.5658,0.4869,0.0000*
1,1,0.5658,-0.4869,0.0000*
1,1,0.5658,-0.4869,0.0000*
1,1,0.5658,0.4869,0.0000*
%
%ADD17ROUNDEDRECTD17*%
%ADD18R,1.5397X0.5658*%
G04:AMPARAMS|DCode=25|XSize=1.7071mm|YSize=0.6158mm|CornerRadius=0.3079mm|HoleSize=0mm|Usage=FLASHONLY|Rotation=0.000|XOffset=0mm|YOffset=0mm|HoleType=Round|Shape=RoundedRectangle|*
%AMROUNDEDRECTD25*
21,1,1.7071,0.0000,0,0,0.0*
21,1,1.0913,0.6158,0,0,0.0*
1,1,0.6158,0.5457,0.0000*
1,1,0.6158,-0.5457,0.0000*
1,1,0.6158,-0.5457,0.0000*
1,1,0.6158,0.5457,0.0000*
%
%ADD25ROUNDEDRECTD25*%
%ADD26R,1.7071X0.6158*%
%ADD27R,0.8000X0.9000*%
%ADD28R,1.2000X1.2000*%
%ADD29R,1.7062X1.1546*%
%ADD30R,0.8582X0.8563*%
%ADD31R,2.2000X1.8000*%
%ADD33R,1.3098X0.9061*%
%ADD34R,0.9500X1.3500*%
%ADD35R,1.3061X1.0582*%
%ADD42R,1.1546X1.7062*%
%ADD43R,1.2000X1.2000*%
%ADD44R,0.9061X1.3098*%
%ADD46O,1.6532X0.6532*%
%ADD47O,0.6532X1.6532*%
%ADD48R,1.4232X1.4032*%
%ADD49R,1.6532X1.4032*%
G04:AMPARAMS|DCode=50|XSize=0.9632mm|YSize=0.8636mm|CornerRadius=0.1842mm|HoleSize=0mm|Usage=FLASHONLY|Rotation=180.000|XOffset=0mm|YOffset=0mm|HoleType=Round|Shape=RoundedRectangle|*
%AMROUNDEDRECTD50*
21,1,0.9632,0.4953,0,0,180.0*
21,1,0.5949,0.8636,0,0,180.0*
1,1,0.3683,-0.2975,0.2477*
1,1,0.3683,0.2975,0.2477*
1,1,0.3683,0.2975,-0.2477*
1,1,0.3683,-0.2975,-0.2477*
%
%ADD50ROUNDEDRECTD50*%
%ADD51R,1.4032X1.6032*%
%ADD52R,1.3000X0.3000*%
%ADD53R,5.9032X3.7032*%
%ADD54R,3.7000X2.5000*%
G04:AMPARAMS|DCode=55|XSize=0.8032mm|YSize=1.6532mm|CornerRadius=0.1526mm|HoleSize=0mm|Usage=FLASHONLY|Rotation=90.000|XOffset=0mm|YOffset=0mm|HoleType=Round|Shape=RoundedRectangle|*
%AMROUNDEDRECTD55*
21,1,0.8032,1.3480,0,0,90.0*
21,1,0.4980,1.6532,0,0,90.0*
1,1,0.3052,0.6740,0.2490*
1,1,0.3052,0.6740,-0.2490*
1,1,0.3052,-0.6740,-0.2490*
1,1,0.3052,-0.6740,0.2490*
%
%ADD55ROUNDEDRECTD55*%
%ADD56R,1.2032X1.1532*%
%ADD57R,1.8032X2.2032*%
%ADD58R,1.4032X1.6032*%
%ADD59R,1.1532X1.2032*%
G04:AMPARAMS|DCode=60|XSize=0.9632mm|YSize=0.8636mm|CornerRadius=0.1842mm|HoleSize=0mm|Usage=FLASHONLY|Rotation=90.000|XOffset=0mm|YOffset=0mm|HoleType=Round|Shape=RoundedRectangle|*
%AMROUNDEDRECTD60*
21,1,0.9632,0.4953,0,0,90.0*
21,1,0.5949,0.8636,0,0,90.0*
1,1,0.3683,0.2477,0.2975*
1,1,0.3683,0.2477,-0.2975*
1,1,0.3683,-0.2477,-0.2975*
1,1,0.3683,-0.2477,0.2975*
%
%ADD60ROUNDEDRECTD60*%
%ADD61C,1.5700*%
%ADD62R,1.5700X1.5700*%
%ADD63C,2.4032*%
%ADD64R,2.4032X2.4032*%
%ADD65C,5.6000*%
%ADD66C,6.4032*%
D17*
X362155Y55500D02*
D03*
Y74500D02*
D03*
Y65000D02*
D03*
X337845D02*
D03*
Y55500D02*
D03*
D18*
Y74500D02*
D03*
D25*
X327994Y170000D02*
D03*
Y160500D02*
D03*
X352006Y179500D02*
D03*
Y160500D02*
D03*
D26*
X327994Y179500D02*
D03*
D27*
X150500Y182000D02*
D03*
X141000Y162000D02*
D03*
X131500Y182000D02*
D03*
D28*
X279000Y89000D02*
D03*
Y110000D02*
D03*
D29*
X225000Y330000D02*
D03*
Y355516D02*
D03*
D30*
X304000Y135990D02*
D03*
Y148010D02*
D03*
X305000Y107990D02*
D03*
Y120010D02*
D03*
X377000Y164990D02*
D03*
Y177010D02*
D03*
D31*
X829244Y427215D02*
D03*
Y139215D02*
D03*
D33*
X279000Y154761D02*
D03*
Y139239D02*
D03*
D34*
X80000Y430000D02*
D03*
X95000D02*
D03*
D35*
X365761Y101000D02*
D03*
X350239D02*
D03*
D42*
X412758Y365000D02*
D03*
X387242D02*
D03*
D43*
X225500Y177000D02*
D03*
X204500D02*
D03*
D44*
X200239Y25000D02*
D03*
X215761D02*
D03*
D46*
X203000Y374000D02*
D03*
Y400000D02*
D03*
Y361000D02*
D03*
Y341500D02*
D03*
X91000Y400000D02*
D03*
Y367500D02*
D03*
Y374000D02*
D03*
X203000Y322000D02*
D03*
X91000D02*
D03*
X203000Y387000D02*
D03*
Y393500D02*
D03*
Y380500D02*
D03*
X91000Y393500D02*
D03*
Y387000D02*
D03*
Y380500D02*
D03*
Y361000D02*
D03*
Y354500D02*
D03*
Y348000D02*
D03*
Y341500D02*
D03*
Y335000D02*
D03*
Y328500D02*
D03*
X203000D02*
D03*
Y335000D02*
D03*
Y348000D02*
D03*
Y354500D02*
D03*
Y367500D02*
D03*
D47*
X166500Y417000D02*
D03*
X153500D02*
D03*
X147000D02*
D03*
X134000Y305000D02*
D03*
X108000D02*
D03*
X186000D02*
D03*
X173000D02*
D03*
X179500D02*
D03*
X186000Y417000D02*
D03*
X179500D02*
D03*
X173000D02*
D03*
X160000D02*
D03*
X140500D02*
D03*
X134000D02*
D03*
X127500D02*
D03*
X121000D02*
D03*
X114500D02*
D03*
X108000D02*
D03*
X114500Y305000D02*
D03*
X121000D02*
D03*
X127500D02*
D03*
X140500D02*
D03*
X147000D02*
D03*
X153500D02*
D03*
X160000D02*
D03*
X166500D02*
D03*
D48*
X175000Y90950D02*
D03*
Y129050D02*
D03*
D49*
Y150000D02*
D03*
Y170000D02*
D03*
D50*
X416000Y420000D02*
D03*
Y434000D02*
D03*
X274974Y475643D02*
D03*
Y461643D02*
D03*
X273000Y386000D02*
D03*
Y400000D02*
D03*
X416000Y472000D02*
D03*
Y458000D02*
D03*
X416000Y396000D02*
D03*
Y382000D02*
D03*
X273000Y338000D02*
D03*
Y324000D02*
D03*
Y285000D02*
D03*
Y299000D02*
D03*
X273000Y247000D02*
D03*
Y261000D02*
D03*
X424000Y329000D02*
D03*
Y315000D02*
D03*
X425000Y292000D02*
D03*
Y278000D02*
D03*
X426000Y251000D02*
D03*
Y237000D02*
D03*
X271000Y424500D02*
D03*
Y438500D02*
D03*
D51*
X151000Y50000D02*
D03*
X171000D02*
D03*
D52*
X772744Y400715D02*
D03*
Y390715D02*
D03*
Y380715D02*
D03*
Y360715D02*
D03*
Y370715D02*
D03*
Y330715D02*
D03*
Y320715D02*
D03*
Y340715D02*
D03*
Y350715D02*
D03*
Y290715D02*
D03*
Y280715D02*
D03*
Y310715D02*
D03*
Y300715D02*
D03*
Y260715D02*
D03*
Y270715D02*
D03*
Y250715D02*
D03*
Y305715D02*
D03*
Y325715D02*
D03*
Y345715D02*
D03*
Y335715D02*
D03*
Y405715D02*
D03*
Y315715D02*
D03*
Y395715D02*
D03*
Y375715D02*
D03*
Y365715D02*
D03*
Y295715D02*
D03*
Y285715D02*
D03*
Y275715D02*
D03*
Y265715D02*
D03*
Y255715D02*
D03*
Y245715D02*
D03*
Y240715D02*
D03*
Y235715D02*
D03*
Y230715D02*
D03*
Y225715D02*
D03*
Y220715D02*
D03*
Y215715D02*
D03*
Y210715D02*
D03*
Y205715D02*
D03*
Y200715D02*
D03*
Y195715D02*
D03*
Y190715D02*
D03*
Y185715D02*
D03*
Y180715D02*
D03*
Y175715D02*
D03*
Y170715D02*
D03*
Y165715D02*
D03*
Y160715D02*
D03*
Y355715D02*
D03*
Y385715D02*
D03*
D53*
X225000Y134770D02*
D03*
Y87770D02*
D03*
D54*
X140000Y80000D02*
D03*
Y130000D02*
D03*
D55*
X533750Y299400D02*
D03*
X479250D02*
D03*
Y337500D02*
D03*
Y324800D02*
D03*
X533750Y261300D02*
D03*
Y274000D02*
D03*
Y286700D02*
D03*
Y312100D02*
D03*
Y324800D02*
D03*
Y337500D02*
D03*
X479250Y261300D02*
D03*
Y274000D02*
D03*
Y286700D02*
D03*
Y312100D02*
D03*
X372250Y438000D02*
D03*
Y412600D02*
D03*
Y399900D02*
D03*
X317750Y425300D02*
D03*
X372250Y450700D02*
D03*
X317750D02*
D03*
Y476100D02*
D03*
Y463400D02*
D03*
X372250Y476100D02*
D03*
Y463400D02*
D03*
X317750Y438000D02*
D03*
X372250Y425300D02*
D03*
X317750Y399900D02*
D03*
Y412600D02*
D03*
X535250Y441000D02*
D03*
X480750D02*
D03*
X535250Y479100D02*
D03*
Y466400D02*
D03*
Y402900D02*
D03*
Y415600D02*
D03*
Y428300D02*
D03*
Y453700D02*
D03*
X480750Y402900D02*
D03*
Y415600D02*
D03*
Y428300D02*
D03*
Y453700D02*
D03*
Y466400D02*
D03*
Y479100D02*
D03*
X380250Y293000D02*
D03*
Y280300D02*
D03*
X325750Y293000D02*
D03*
X380250Y254900D02*
D03*
Y267600D02*
D03*
X325750Y318400D02*
D03*
Y331100D02*
D03*
Y305700D02*
D03*
Y280300D02*
D03*
Y267600D02*
D03*
Y254900D02*
D03*
X380250Y331100D02*
D03*
Y318400D02*
D03*
Y305700D02*
D03*
D56*
X220000Y408500D02*
D03*
Y421500D02*
D03*
X298225Y459475D02*
D03*
Y472475D02*
D03*
X298000Y423500D02*
D03*
Y436500D02*
D03*
X299000Y399500D02*
D03*
Y386500D02*
D03*
X441000Y472500D02*
D03*
Y459500D02*
D03*
Y420500D02*
D03*
Y433500D02*
D03*
X442000Y382000D02*
D03*
Y395000D02*
D03*
X301000Y338000D02*
D03*
Y325000D02*
D03*
Y298500D02*
D03*
Y285500D02*
D03*
X300000Y260500D02*
D03*
Y247500D02*
D03*
X450000Y328000D02*
D03*
Y315000D02*
D03*
X451750Y290000D02*
D03*
Y277000D02*
D03*
X451000Y251000D02*
D03*
Y238000D02*
D03*
X222000Y299500D02*
D03*
Y312500D02*
D03*
X225250Y378750D02*
D03*
Y391750D02*
D03*
D57*
X151000Y25000D02*
D03*
X181000D02*
D03*
D58*
X256250Y35000D02*
D03*
X236250D02*
D03*
X256000Y55000D02*
D03*
X236000D02*
D03*
D59*
X285000Y185000D02*
D03*
X272000D02*
D03*
X341000Y371000D02*
D03*
X354000D02*
D03*
X505000Y372000D02*
D03*
X518000D02*
D03*
X349250Y228500D02*
D03*
X362250D02*
D03*
X528500Y246000D02*
D03*
X515500D02*
D03*
X163250Y281250D02*
D03*
X150250D02*
D03*
X164500Y439000D02*
D03*
X151500D02*
D03*
D60*
X355000Y385000D02*
D03*
X341000D02*
D03*
X504000Y386000D02*
D03*
X518000D02*
D03*
X348750Y241750D02*
D03*
X362750D02*
D03*
X474000Y246000D02*
D03*
X488000D02*
D03*
D61*
X566000Y514600D02*
D03*
X489800Y540000D02*
D03*
X439000D02*
D03*
X388200Y514600D02*
D03*
X312000Y540000D02*
D03*
X235800D02*
D03*
X134200D02*
D03*
X337400Y514600D02*
D03*
X362800Y540000D02*
D03*
X261200D02*
D03*
X312000Y514600D02*
D03*
X337400Y540000D02*
D03*
X286600D02*
D03*
X362800Y514600D02*
D03*
X261200D02*
D03*
X566000Y540000D02*
D03*
X540600D02*
D03*
X515200D02*
D03*
X464400D02*
D03*
X413600D02*
D03*
X388200D02*
D03*
X210400D02*
D03*
X185000D02*
D03*
X159600D02*
D03*
X108800D02*
D03*
X83400D02*
D03*
X540600Y514600D02*
D03*
X515200D02*
D03*
X489800D02*
D03*
X464400D02*
D03*
X439000D02*
D03*
X413600D02*
D03*
X286600D02*
D03*
X235800D02*
D03*
X210400D02*
D03*
X185000D02*
D03*
X159600D02*
D03*
X134200D02*
D03*
X108800D02*
D03*
D62*
X83400D02*
D03*
D63*
X90000Y111900D02*
D03*
D64*
Y150000D02*
D03*
D65*
X35000Y525000D02*
D03*
X615000D02*
D03*
D66*
Y35000D02*
D03*
X35000D02*
D03*
M02*
