G04*
G04 #@! TF.GenerationSoftware,Altium Limited,Altium Designer,26.6.0 (10)*
G04*
G04 Layer_Color=8388736*
G04 Board_Origin=29350000|14702756*
%FSLAX44Y44*%
%MOMM*%
G71*
G04*
G04 #@! TF.SameCoordinates,4A6F4C04-391A-4FDC-A87F-652DF65B7CFD*
G04*
G04*
G04 #@! TF.FilePolarity,Positive*
G04*
G01*
G75*
%ADD12C,0.2000*%
D12*
X342000Y79500D02*
X358000D01*
Y50500D02*
Y79500D01*
X342000Y50500D02*
X358000D01*
X342000D02*
Y79500D01*
X332000Y155000D02*
Y185000D01*
Y155000D02*
X348000D01*
Y185000D01*
X332000D02*
X348000D01*
X126000Y179000D02*
X156000D01*
X126000Y165000D02*
Y179000D01*
Y165000D02*
X156000D01*
Y179000D01*
X272250Y89000D02*
X285750D01*
Y110000D01*
X272250D02*
X285750D01*
X272250Y89000D02*
Y110000D01*
X217000Y358758D02*
X233000D01*
X217000Y326758D02*
Y358758D01*
Y326758D02*
X233000D01*
Y358758D01*
X300000Y134000D02*
X308000D01*
Y150000D01*
X300000D02*
X308000D01*
X300000Y134000D02*
Y150000D01*
X776744Y132715D02*
Y433715D01*
Y132715D02*
X844744D01*
Y433715D01*
X776744D02*
X844744D01*
X272750Y137000D02*
X285250D01*
Y157000D01*
X272750D02*
X285250D01*
X272750Y137000D02*
Y157000D01*
X76500Y437250D02*
X98500D01*
Y422750D02*
Y437250D01*
X76500Y422750D02*
X98500D01*
X76500D02*
Y437250D01*
X350000Y97000D02*
Y105000D01*
Y97000D02*
X366000D01*
Y105000D01*
X350000D02*
X366000D01*
X301000Y106000D02*
X309000D01*
Y122000D01*
X301000D02*
X309000D01*
X301000Y106000D02*
Y122000D01*
X373000Y163000D02*
Y179000D01*
X381000D01*
Y163000D02*
Y179000D01*
X373000Y163000D02*
X381000D01*
X384000Y373000D02*
X416000D01*
Y357000D02*
Y373000D01*
X384000Y357000D02*
X416000D01*
X384000D02*
Y373000D01*
X204500Y170250D02*
X225500D01*
X204500D02*
Y183750D01*
X225500D01*
Y170250D02*
Y183750D01*
X218000Y18750D02*
Y31250D01*
X198000D02*
X218000D01*
X198000Y18750D02*
Y31250D01*
Y18750D02*
X218000D01*
M02*
