G04*
G04 #@! TF.GenerationSoftware,Altium Limited,Altium Designer,26.6.0 (10)*
G04*
G04 Layer_Color=32896*
G04 Board_Origin=29350000|14702756*
%FSLAX44Y44*%
%MOMM*%
G71*
G04*
G04 #@! TF.SameCoordinates,4A6F4C04-391A-4FDC-A87F-652DF65B7CFD*
G04*
G04*
G04 #@! TF.FilePolarity,Positive*
G04*
G01*
G75*
%ADD12C,0.2000*%
G36*
X333280Y525534D02*
X332494D01*
Y530536D01*
X332485Y530527D01*
X332439Y530490D01*
X332383Y530434D01*
X332290Y530369D01*
X332189Y530286D01*
X332059Y530194D01*
X331912Y530092D01*
X331745Y529990D01*
X331736D01*
X331726Y529981D01*
X331671Y529944D01*
X331579Y529898D01*
X331468Y529842D01*
X331338Y529778D01*
X331199Y529713D01*
X331061Y529648D01*
X330922Y529593D01*
Y530351D01*
X330931D01*
X330950Y530369D01*
X330987Y530379D01*
X331033Y530406D01*
X331089Y530434D01*
X331153Y530471D01*
X331311Y530564D01*
X331495Y530665D01*
X331680Y530795D01*
X331875Y530943D01*
X332069Y531100D01*
X332078Y531109D01*
X332087Y531118D01*
X332115Y531146D01*
X332152Y531174D01*
X332235Y531266D01*
X332346Y531377D01*
X332457Y531507D01*
X332577Y531655D01*
X332679Y531802D01*
X332771Y531960D01*
X333280D01*
Y525534D01*
D02*
G37*
G36*
X327446Y531923D02*
X327603Y531913D01*
X327769Y531904D01*
X327927Y531886D01*
X328065Y531867D01*
X328084D01*
X328148Y531849D01*
X328232Y531830D01*
X328343Y531802D01*
X328463Y531756D01*
X328592Y531701D01*
X328731Y531636D01*
X328851Y531562D01*
X328870Y531553D01*
X328907Y531525D01*
X328962Y531470D01*
X329036Y531405D01*
X329119Y531322D01*
X329202Y531211D01*
X329295Y531091D01*
X329369Y530952D01*
X329378Y530933D01*
X329397Y530887D01*
X329434Y530804D01*
X329471Y530693D01*
X329498Y530564D01*
X329535Y530416D01*
X329554Y530249D01*
X329563Y530074D01*
Y530064D01*
Y530037D01*
Y530000D01*
X329554Y529935D01*
X329545Y529870D01*
X329535Y529787D01*
X329517Y529695D01*
X329498Y529593D01*
X329434Y529380D01*
X329397Y529269D01*
X329341Y529149D01*
X329277Y529029D01*
X329212Y528918D01*
X329128Y528807D01*
X329036Y528696D01*
X329027Y528687D01*
X329008Y528668D01*
X328981Y528641D01*
X328934Y528613D01*
X328879Y528567D01*
X328805Y528520D01*
X328713Y528465D01*
X328611Y528419D01*
X328491Y528363D01*
X328352Y528308D01*
X328204Y528261D01*
X328028Y528224D01*
X327843Y528187D01*
X327640Y528160D01*
X327409Y528141D01*
X327169Y528132D01*
X325532D01*
Y525534D01*
X324681D01*
Y531932D01*
X327307D01*
X327446Y531923D01*
D02*
G37*
G36*
X81535Y450100D02*
X81617Y449982D01*
X81713Y449863D01*
X81801Y449760D01*
X81890Y449671D01*
X81957Y449597D01*
X81986Y449575D01*
X82008Y449553D01*
X82016Y449546D01*
X82023Y449538D01*
X82178Y449412D01*
X82333Y449294D01*
X82481Y449191D01*
X82629Y449109D01*
X82755Y449036D01*
X82807Y449006D01*
X82851Y448984D01*
X82888Y448962D01*
X82917Y448954D01*
X82932Y448940D01*
X82940D01*
Y448333D01*
X82829Y448378D01*
X82718Y448429D01*
X82607Y448481D01*
X82503Y448533D01*
X82415Y448577D01*
X82341Y448614D01*
X82297Y448644D01*
X82289Y448651D01*
X82282D01*
X82149Y448732D01*
X82030Y448814D01*
X81927Y448888D01*
X81846Y448954D01*
X81772Y449006D01*
X81727Y449050D01*
X81691Y449080D01*
X81683Y449087D01*
Y445089D01*
X81055D01*
Y450226D01*
X81461D01*
X81535Y450100D01*
D02*
G37*
G36*
X77780Y450218D02*
X77921Y450203D01*
X78054Y450174D01*
X78180Y450137D01*
X78290Y450085D01*
X78401Y450041D01*
X78497Y449982D01*
X78586Y449930D01*
X78660Y449878D01*
X78734Y449819D01*
X78793Y449775D01*
X78837Y449730D01*
X78874Y449686D01*
X78904Y449656D01*
X78919Y449642D01*
X78926Y449634D01*
X79022Y449501D01*
X79103Y449346D01*
X79177Y449183D01*
X79244Y449013D01*
X79296Y448836D01*
X79340Y448659D01*
X79377Y448474D01*
X79406Y448304D01*
X79429Y448134D01*
X79443Y447979D01*
X79458Y447838D01*
X79466Y447720D01*
Y447616D01*
X79473Y447542D01*
Y447513D01*
Y447491D01*
Y447483D01*
Y447476D01*
X79466Y447239D01*
X79451Y447018D01*
X79429Y446811D01*
X79392Y446619D01*
X79355Y446449D01*
X79318Y446293D01*
X79274Y446153D01*
X79222Y446027D01*
X79177Y445924D01*
X79133Y445828D01*
X79096Y445754D01*
X79052Y445687D01*
X79022Y445635D01*
X79000Y445606D01*
X78985Y445584D01*
X78978Y445576D01*
X78882Y445473D01*
X78778Y445384D01*
X78675Y445310D01*
X78571Y445244D01*
X78460Y445185D01*
X78357Y445140D01*
X78253Y445103D01*
X78150Y445074D01*
X78061Y445052D01*
X77973Y445029D01*
X77899Y445015D01*
X77832Y445007D01*
X77773D01*
X77736Y445000D01*
X77699D01*
X77529Y445007D01*
X77374Y445037D01*
X77234Y445066D01*
X77108Y445111D01*
X77012Y445148D01*
X76938Y445185D01*
X76908Y445192D01*
X76886Y445207D01*
X76879Y445214D01*
X76871D01*
X76746Y445303D01*
X76627Y445406D01*
X76531Y445510D01*
X76450Y445613D01*
X76384Y445709D01*
X76339Y445783D01*
X76324Y445813D01*
X76310Y445835D01*
X76302Y445843D01*
Y445850D01*
X76228Y446005D01*
X76177Y446168D01*
X76139Y446315D01*
X76117Y446456D01*
X76095Y446574D01*
Y446619D01*
X76088Y446663D01*
Y446700D01*
Y446722D01*
Y446737D01*
Y446744D01*
X76095Y446877D01*
X76110Y447003D01*
X76132Y447129D01*
X76154Y447239D01*
X76191Y447343D01*
X76228Y447446D01*
X76265Y447535D01*
X76310Y447616D01*
X76354Y447690D01*
X76391Y447757D01*
X76428Y447809D01*
X76465Y447860D01*
X76487Y447897D01*
X76509Y447920D01*
X76524Y447934D01*
X76531Y447942D01*
X76613Y448023D01*
X76701Y448097D01*
X76797Y448156D01*
X76886Y448208D01*
X76975Y448260D01*
X77063Y448296D01*
X77234Y448348D01*
X77307Y448370D01*
X77381Y448385D01*
X77440Y448392D01*
X77500Y448400D01*
X77544Y448407D01*
X77603D01*
X77736Y448400D01*
X77862Y448378D01*
X77980Y448356D01*
X78084Y448326D01*
X78172Y448289D01*
X78239Y448267D01*
X78283Y448245D01*
X78290Y448237D01*
X78298D01*
X78416Y448163D01*
X78520Y448082D01*
X78616Y448001D01*
X78690Y447912D01*
X78756Y447838D01*
X78808Y447779D01*
X78837Y447735D01*
X78845Y447727D01*
Y447860D01*
X78837Y447993D01*
X78830Y448112D01*
X78815Y448230D01*
X78808Y448333D01*
X78793Y448429D01*
X78778Y448518D01*
X78756Y448600D01*
X78741Y448673D01*
X78727Y448732D01*
X78712Y448784D01*
X78704Y448829D01*
X78690Y448858D01*
X78682Y448880D01*
X78675Y448895D01*
Y448903D01*
X78601Y449050D01*
X78527Y449183D01*
X78446Y449287D01*
X78372Y449376D01*
X78305Y449450D01*
X78253Y449501D01*
X78217Y449531D01*
X78202Y449538D01*
X78113Y449597D01*
X78024Y449634D01*
X77936Y449664D01*
X77847Y449686D01*
X77780Y449701D01*
X77721Y449708D01*
X77670D01*
X77537Y449693D01*
X77411Y449664D01*
X77307Y449619D01*
X77211Y449575D01*
X77137Y449523D01*
X77086Y449479D01*
X77056Y449450D01*
X77041Y449435D01*
X76990Y449368D01*
X76938Y449287D01*
X76894Y449198D01*
X76864Y449109D01*
X76834Y449028D01*
X76812Y448962D01*
X76805Y448917D01*
X76797Y448910D01*
Y448903D01*
X76169Y448954D01*
X76213Y449161D01*
X76280Y449346D01*
X76354Y449509D01*
X76435Y449642D01*
X76516Y449745D01*
X76546Y449790D01*
X76583Y449827D01*
X76605Y449849D01*
X76627Y449871D01*
X76635Y449878D01*
X76642Y449886D01*
X76716Y449945D01*
X76797Y449996D01*
X76960Y450085D01*
X77123Y450144D01*
X77278Y450181D01*
X77418Y450211D01*
X77477Y450218D01*
X77529D01*
X77573Y450226D01*
X77633D01*
X77780Y450218D01*
D02*
G37*
G36*
X87500Y445089D02*
X86820D01*
Y447410D01*
X84418D01*
Y448016D01*
X86820D01*
Y449597D01*
X84041D01*
Y450203D01*
X87500D01*
Y445089D01*
D02*
G37*
G36*
X109924Y394993D02*
X110057Y394985D01*
X110182Y394970D01*
X110293Y394956D01*
X110397Y394941D01*
X110493Y394919D01*
X110582Y394904D01*
X110663Y394889D01*
X110729Y394867D01*
X110788Y394852D01*
X110833Y394837D01*
X110870Y394823D01*
X110899Y394815D01*
X110914Y394808D01*
X110922D01*
X111084Y394726D01*
X111232Y394623D01*
X111350Y394520D01*
X111454Y394409D01*
X111535Y394313D01*
X111594Y394231D01*
X111609Y394202D01*
X111624Y394180D01*
X111638Y394165D01*
Y394157D01*
X111720Y393973D01*
X111779Y393780D01*
X111823Y393581D01*
X111853Y393396D01*
X111860Y393315D01*
X111868Y393233D01*
X111875Y393159D01*
Y393100D01*
X111882Y393049D01*
Y392982D01*
X111868Y392716D01*
X111853Y392598D01*
X111838Y392487D01*
X111816Y392376D01*
X111794Y392280D01*
X111772Y392191D01*
X111742Y392110D01*
X111713Y392036D01*
X111690Y391977D01*
X111668Y391918D01*
X111646Y391873D01*
X111624Y391837D01*
X111616Y391814D01*
X111602Y391800D01*
Y391792D01*
X111491Y391629D01*
X111365Y391497D01*
X111247Y391393D01*
X111129Y391304D01*
X111025Y391238D01*
X110944Y391193D01*
X110914Y391179D01*
X110892Y391164D01*
X110877Y391157D01*
X110870D01*
X110781Y391127D01*
X110685Y391097D01*
X110485Y391053D01*
X110279Y391023D01*
X110079Y391001D01*
X109990Y390994D01*
X109902Y390987D01*
X109828D01*
X109761Y390979D01*
X109709D01*
X109672D01*
X109643D01*
X109635D01*
X106679D01*
Y391659D01*
X109635D01*
X109805D01*
X109968Y391674D01*
X110108Y391689D01*
X110242Y391711D01*
X110360Y391733D01*
X110471Y391763D01*
X110567Y391785D01*
X110648Y391814D01*
X110715Y391844D01*
X110781Y391873D01*
X110826Y391903D01*
X110870Y391925D01*
X110899Y391947D01*
X110922Y391962D01*
X110929Y391969D01*
X110936Y391977D01*
X110996Y392043D01*
X111047Y392117D01*
X111129Y392280D01*
X111188Y392450D01*
X111225Y392627D01*
X111254Y392790D01*
X111262Y392856D01*
Y392923D01*
X111269Y392967D01*
Y393041D01*
X111262Y393196D01*
X111239Y393337D01*
X111217Y393470D01*
X111180Y393573D01*
X111151Y393662D01*
X111129Y393729D01*
X111106Y393766D01*
X111099Y393780D01*
X111032Y393884D01*
X110951Y393973D01*
X110870Y394047D01*
X110796Y394098D01*
X110722Y394143D01*
X110670Y394180D01*
X110633Y394194D01*
X110618Y394202D01*
X110552Y394224D01*
X110485Y394239D01*
X110330Y394268D01*
X110168Y394290D01*
X110005Y394305D01*
X109865Y394313D01*
X109798D01*
X109746Y394320D01*
X109702D01*
X109665D01*
X109643D01*
X109635D01*
X106679D01*
Y395000D01*
X109635D01*
X109783D01*
X109924Y394993D01*
D02*
G37*
G36*
X111794Y386803D02*
X111188D01*
Y389323D01*
X111062Y389235D01*
X111010Y389190D01*
X110958Y389153D01*
X110914Y389116D01*
X110885Y389087D01*
X110862Y389065D01*
X110855Y389057D01*
X110818Y389020D01*
X110781Y388976D01*
X110685Y388872D01*
X110574Y388754D01*
X110463Y388629D01*
X110367Y388510D01*
X110323Y388459D01*
X110279Y388414D01*
X110249Y388377D01*
X110227Y388348D01*
X110212Y388333D01*
X110205Y388326D01*
X110101Y388207D01*
X110005Y388089D01*
X109909Y387986D01*
X109828Y387890D01*
X109746Y387801D01*
X109672Y387727D01*
X109606Y387653D01*
X109547Y387594D01*
X109488Y387535D01*
X109443Y387490D01*
X109406Y387453D01*
X109369Y387416D01*
X109325Y387379D01*
X109310Y387365D01*
X109185Y387261D01*
X109074Y387173D01*
X108963Y387099D01*
X108874Y387039D01*
X108793Y386995D01*
X108734Y386965D01*
X108697Y386951D01*
X108682Y386943D01*
X108571Y386899D01*
X108460Y386870D01*
X108357Y386840D01*
X108268Y386825D01*
X108187Y386818D01*
X108128Y386810D01*
X108091D01*
X108076D01*
X107965Y386818D01*
X107861Y386833D01*
X107758Y386847D01*
X107669Y386877D01*
X107492Y386951D01*
X107352Y387025D01*
X107285Y387069D01*
X107233Y387106D01*
X107182Y387143D01*
X107145Y387180D01*
X107115Y387210D01*
X107085Y387224D01*
X107078Y387239D01*
X107071Y387246D01*
X106997Y387328D01*
X106930Y387416D01*
X106878Y387513D01*
X106834Y387609D01*
X106760Y387801D01*
X106708Y387993D01*
X106694Y388074D01*
X106679Y388156D01*
X106671Y388229D01*
X106664Y388289D01*
X106657Y388340D01*
Y388414D01*
X106664Y388547D01*
X106671Y388673D01*
X106694Y388791D01*
X106716Y388902D01*
X106745Y389006D01*
X106775Y389102D01*
X106812Y389190D01*
X106849Y389272D01*
X106886Y389346D01*
X106923Y389405D01*
X106952Y389456D01*
X106982Y389501D01*
X107004Y389538D01*
X107026Y389560D01*
X107034Y389575D01*
X107041Y389582D01*
X107115Y389656D01*
X107196Y389723D01*
X107285Y389789D01*
X107374Y389841D01*
X107551Y389930D01*
X107729Y389989D01*
X107810Y390011D01*
X107891Y390033D01*
X107958Y390048D01*
X108017Y390062D01*
X108069Y390070D01*
X108105D01*
X108128Y390077D01*
X108135D01*
X108202Y389434D01*
X108032Y389420D01*
X107884Y389390D01*
X107751Y389346D01*
X107647Y389294D01*
X107558Y389249D01*
X107499Y389205D01*
X107462Y389176D01*
X107448Y389161D01*
X107359Y389050D01*
X107292Y388932D01*
X107241Y388806D01*
X107211Y388695D01*
X107189Y388592D01*
X107182Y388503D01*
X107174Y388473D01*
Y388429D01*
X107182Y388274D01*
X107211Y388133D01*
X107255Y388015D01*
X107300Y387912D01*
X107352Y387830D01*
X107388Y387779D01*
X107418Y387742D01*
X107433Y387727D01*
X107536Y387638D01*
X107640Y387572D01*
X107743Y387520D01*
X107847Y387490D01*
X107928Y387468D01*
X108002Y387461D01*
X108046Y387453D01*
X108054D01*
X108061D01*
X108194Y387468D01*
X108335Y387498D01*
X108460Y387550D01*
X108579Y387601D01*
X108675Y387660D01*
X108756Y387712D01*
X108785Y387727D01*
X108808Y387742D01*
X108815Y387756D01*
X108822D01*
X108904Y387816D01*
X108985Y387890D01*
X109074Y387971D01*
X109162Y388060D01*
X109340Y388244D01*
X109517Y388429D01*
X109599Y388525D01*
X109672Y388606D01*
X109739Y388688D01*
X109798Y388754D01*
X109842Y388806D01*
X109879Y388850D01*
X109902Y388880D01*
X109909Y388887D01*
X110064Y389072D01*
X110212Y389242D01*
X110345Y389383D01*
X110456Y389493D01*
X110552Y389590D01*
X110618Y389656D01*
X110663Y389693D01*
X110670Y389708D01*
X110678D01*
X110803Y389811D01*
X110922Y389893D01*
X111040Y389967D01*
X111143Y390026D01*
X111232Y390070D01*
X111299Y390099D01*
X111343Y390114D01*
X111350Y390122D01*
X111358D01*
X111439Y390151D01*
X111513Y390166D01*
X111587Y390181D01*
X111653Y390188D01*
X111713Y390196D01*
X111757D01*
X111786D01*
X111794D01*
Y386803D01*
D02*
G37*
G36*
X110559Y386108D02*
X110670Y386086D01*
X110877Y386019D01*
X111055Y385938D01*
X111129Y385894D01*
X111202Y385849D01*
X111269Y385805D01*
X111321Y385761D01*
X111372Y385724D01*
X111409Y385687D01*
X111439Y385665D01*
X111461Y385643D01*
X111476Y385628D01*
X111483Y385620D01*
X111550Y385532D01*
X111616Y385443D01*
X111668Y385354D01*
X111713Y385258D01*
X111786Y385073D01*
X111831Y384896D01*
X111846Y384815D01*
X111860Y384741D01*
X111868Y384674D01*
X111875Y384615D01*
X111882Y384571D01*
Y384504D01*
X111875Y384364D01*
X111860Y384238D01*
X111838Y384113D01*
X111809Y383994D01*
X111772Y383883D01*
X111735Y383787D01*
X111690Y383691D01*
X111646Y383610D01*
X111609Y383529D01*
X111565Y383462D01*
X111528Y383403D01*
X111491Y383358D01*
X111461Y383322D01*
X111439Y383292D01*
X111424Y383277D01*
X111417Y383270D01*
X111328Y383181D01*
X111232Y383107D01*
X111136Y383041D01*
X111040Y382982D01*
X110951Y382937D01*
X110855Y382893D01*
X110678Y382834D01*
X110596Y382819D01*
X110522Y382804D01*
X110456Y382789D01*
X110397Y382782D01*
X110352Y382775D01*
X110316D01*
X110293D01*
X110286D01*
X110108Y382782D01*
X109946Y382812D01*
X109805Y382856D01*
X109687Y382900D01*
X109591Y382945D01*
X109517Y382989D01*
X109473Y383018D01*
X109458Y383026D01*
X109347Y383129D01*
X109251Y383240D01*
X109177Y383358D01*
X109118Y383477D01*
X109074Y383580D01*
X109044Y383662D01*
X109037Y383691D01*
X109029Y383713D01*
X109022Y383728D01*
Y383736D01*
X108955Y383610D01*
X108889Y383506D01*
X108815Y383418D01*
X108749Y383344D01*
X108689Y383285D01*
X108638Y383240D01*
X108608Y383218D01*
X108593Y383211D01*
X108490Y383152D01*
X108386Y383107D01*
X108283Y383070D01*
X108187Y383048D01*
X108105Y383033D01*
X108046Y383026D01*
X108002D01*
X107987D01*
X107861Y383033D01*
X107736Y383055D01*
X107625Y383085D01*
X107529Y383122D01*
X107448Y383159D01*
X107381Y383189D01*
X107344Y383211D01*
X107329Y383218D01*
X107219Y383292D01*
X107122Y383381D01*
X107041Y383469D01*
X106967Y383558D01*
X106915Y383632D01*
X106871Y383699D01*
X106849Y383743D01*
X106841Y383750D01*
Y383758D01*
X106782Y383891D01*
X106738Y384024D01*
X106701Y384157D01*
X106679Y384275D01*
X106664Y384371D01*
X106657Y384453D01*
Y384637D01*
X106671Y384741D01*
X106708Y384940D01*
X106768Y385110D01*
X106827Y385258D01*
X106864Y385325D01*
X106893Y385376D01*
X106923Y385428D01*
X106952Y385465D01*
X106975Y385495D01*
X106989Y385517D01*
X106997Y385532D01*
X107004Y385539D01*
X107145Y385679D01*
X107300Y385790D01*
X107462Y385879D01*
X107625Y385953D01*
X107765Y385997D01*
X107825Y386019D01*
X107876Y386034D01*
X107921Y386042D01*
X107950Y386049D01*
X107972Y386056D01*
X107980D01*
X108091Y385428D01*
X107928Y385399D01*
X107788Y385354D01*
X107669Y385303D01*
X107573Y385251D01*
X107499Y385199D01*
X107448Y385155D01*
X107411Y385125D01*
X107403Y385118D01*
X107329Y385022D01*
X107270Y384918D01*
X107233Y384822D01*
X107204Y384726D01*
X107189Y384637D01*
X107174Y384571D01*
Y384512D01*
X107182Y384379D01*
X107211Y384260D01*
X107248Y384157D01*
X107285Y384068D01*
X107329Y384002D01*
X107366Y383950D01*
X107396Y383913D01*
X107403Y383905D01*
X107492Y383824D01*
X107588Y383765D01*
X107684Y383728D01*
X107773Y383699D01*
X107854Y383684D01*
X107913Y383669D01*
X107958D01*
X107965D01*
X107972D01*
X108054D01*
X108128Y383684D01*
X108253Y383721D01*
X108364Y383773D01*
X108460Y383832D01*
X108527Y383891D01*
X108579Y383942D01*
X108608Y383979D01*
X108616Y383987D01*
Y383994D01*
X108682Y384120D01*
X108734Y384238D01*
X108771Y384364D01*
X108793Y384475D01*
X108808Y384571D01*
X108822Y384652D01*
Y384748D01*
X108815Y384778D01*
Y384815D01*
X109369Y384889D01*
X109347Y384793D01*
X109332Y384704D01*
X109318Y384630D01*
X109310Y384563D01*
X109303Y384512D01*
Y384445D01*
X109318Y384290D01*
X109347Y384149D01*
X109392Y384024D01*
X109443Y383920D01*
X109495Y383839D01*
X109539Y383780D01*
X109569Y383743D01*
X109584Y383728D01*
X109695Y383632D01*
X109813Y383558D01*
X109931Y383506D01*
X110049Y383477D01*
X110146Y383455D01*
X110227Y383447D01*
X110256Y383440D01*
X110279D01*
X110293D01*
X110301D01*
X110463Y383455D01*
X110611Y383492D01*
X110737Y383536D01*
X110848Y383595D01*
X110936Y383654D01*
X111003Y383699D01*
X111047Y383736D01*
X111062Y383750D01*
X111166Y383868D01*
X111239Y383994D01*
X111291Y384120D01*
X111328Y384238D01*
X111350Y384342D01*
X111358Y384423D01*
X111365Y384453D01*
Y384497D01*
X111358Y384630D01*
X111328Y384756D01*
X111291Y384866D01*
X111247Y384955D01*
X111210Y385029D01*
X111173Y385088D01*
X111143Y385118D01*
X111136Y385132D01*
X111032Y385221D01*
X110914Y385295D01*
X110788Y385362D01*
X110655Y385413D01*
X110545Y385450D01*
X110493Y385465D01*
X110449Y385472D01*
X110412Y385480D01*
X110382Y385487D01*
X110367Y385495D01*
X110360D01*
X110441Y386123D01*
X110559Y386108D01*
D02*
G37*
G36*
X569035Y465011D02*
X569117Y464893D01*
X569213Y464775D01*
X569301Y464671D01*
X569390Y464582D01*
X569457Y464509D01*
X569486Y464486D01*
X569508Y464464D01*
X569516Y464457D01*
X569523Y464450D01*
X569678Y464324D01*
X569833Y464206D01*
X569981Y464102D01*
X570129Y464021D01*
X570255Y463947D01*
X570307Y463917D01*
X570351Y463895D01*
X570388Y463873D01*
X570418Y463866D01*
X570432Y463851D01*
X570440D01*
Y463245D01*
X570329Y463289D01*
X570218Y463341D01*
X570107Y463392D01*
X570004Y463444D01*
X569915Y463489D01*
X569841Y463526D01*
X569797Y463555D01*
X569789Y463563D01*
X569782D01*
X569649Y463644D01*
X569530Y463725D01*
X569427Y463799D01*
X569346Y463866D01*
X569272Y463917D01*
X569227Y463962D01*
X569190Y463991D01*
X569183Y463999D01*
Y460000D01*
X568555D01*
Y465137D01*
X568961D01*
X569035Y465011D01*
D02*
G37*
G36*
X575000Y460000D02*
X574320D01*
Y462321D01*
X571918D01*
Y462927D01*
X574320D01*
Y464509D01*
X571541D01*
Y465115D01*
X575000D01*
Y460000D01*
D02*
G37*
G36*
X561861Y382630D02*
X561986Y382622D01*
X562104Y382600D01*
X562215Y382578D01*
X562319Y382548D01*
X562415Y382519D01*
X562504Y382482D01*
X562585Y382445D01*
X562659Y382408D01*
X562718Y382371D01*
X562770Y382341D01*
X562814Y382312D01*
X562851Y382290D01*
X562873Y382267D01*
X562888Y382260D01*
X562895Y382253D01*
X562969Y382179D01*
X563036Y382097D01*
X563102Y382009D01*
X563154Y381920D01*
X563243Y381743D01*
X563302Y381565D01*
X563324Y381484D01*
X563346Y381403D01*
X563361Y381336D01*
X563376Y381277D01*
X563383Y381225D01*
Y381188D01*
X563391Y381166D01*
Y381159D01*
X562747Y381092D01*
X562733Y381262D01*
X562703Y381410D01*
X562659Y381543D01*
X562607Y381646D01*
X562563Y381735D01*
X562518Y381794D01*
X562489Y381831D01*
X562474Y381846D01*
X562363Y381935D01*
X562245Y382001D01*
X562119Y382053D01*
X562008Y382082D01*
X561905Y382105D01*
X561816Y382112D01*
X561787Y382119D01*
X561742D01*
X561587Y382112D01*
X561447Y382082D01*
X561328Y382038D01*
X561225Y381994D01*
X561143Y381942D01*
X561092Y381905D01*
X561055Y381876D01*
X561040Y381861D01*
X560951Y381757D01*
X560885Y381654D01*
X560833Y381550D01*
X560803Y381447D01*
X560781Y381366D01*
X560774Y381292D01*
X560767Y381247D01*
Y381240D01*
Y381232D01*
X560781Y381100D01*
X560811Y380959D01*
X560863Y380833D01*
X560914Y380715D01*
X560974Y380619D01*
X561025Y380538D01*
X561040Y380508D01*
X561055Y380486D01*
X561070Y380479D01*
Y380471D01*
X561129Y380390D01*
X561203Y380309D01*
X561284Y380220D01*
X561373Y380131D01*
X561557Y379954D01*
X561742Y379776D01*
X561838Y379695D01*
X561920Y379621D01*
X562001Y379555D01*
X562067Y379496D01*
X562119Y379451D01*
X562164Y379414D01*
X562193Y379392D01*
X562201Y379385D01*
X562385Y379230D01*
X562555Y379082D01*
X562696Y378949D01*
X562807Y378838D01*
X562903Y378742D01*
X562969Y378675D01*
X563006Y378631D01*
X563021Y378623D01*
Y378616D01*
X563124Y378490D01*
X563206Y378372D01*
X563280Y378254D01*
X563339Y378150D01*
X563383Y378062D01*
X563413Y377995D01*
X563428Y377951D01*
X563435Y377943D01*
Y377936D01*
X563464Y377855D01*
X563479Y377781D01*
X563494Y377707D01*
X563501Y377640D01*
X563509Y377581D01*
Y377537D01*
Y377507D01*
Y377500D01*
X560116D01*
Y378106D01*
X562637D01*
X562548Y378232D01*
X562504Y378283D01*
X562467Y378335D01*
X562430Y378380D01*
X562400Y378409D01*
X562378Y378431D01*
X562370Y378439D01*
X562333Y378475D01*
X562289Y378512D01*
X562186Y378609D01*
X562067Y378719D01*
X561942Y378830D01*
X561824Y378926D01*
X561772Y378971D01*
X561727Y379015D01*
X561690Y379045D01*
X561661Y379067D01*
X561646Y379082D01*
X561639Y379089D01*
X561521Y379193D01*
X561402Y379289D01*
X561299Y379385D01*
X561203Y379466D01*
X561114Y379547D01*
X561040Y379621D01*
X560966Y379688D01*
X560907Y379747D01*
X560848Y379806D01*
X560803Y379850D01*
X560767Y379887D01*
X560730Y379924D01*
X560693Y379969D01*
X560678Y379983D01*
X560574Y380109D01*
X560486Y380220D01*
X560412Y380331D01*
X560353Y380420D01*
X560308Y380501D01*
X560279Y380560D01*
X560264Y380597D01*
X560257Y380612D01*
X560212Y380723D01*
X560183Y380833D01*
X560153Y380937D01*
X560138Y381026D01*
X560131Y381107D01*
X560123Y381166D01*
Y381203D01*
Y381218D01*
X560131Y381329D01*
X560146Y381432D01*
X560160Y381536D01*
X560190Y381624D01*
X560264Y381802D01*
X560338Y381942D01*
X560382Y382009D01*
X560419Y382060D01*
X560456Y382112D01*
X560493Y382149D01*
X560523Y382179D01*
X560537Y382208D01*
X560552Y382216D01*
X560560Y382223D01*
X560641Y382297D01*
X560730Y382363D01*
X560826Y382415D01*
X560922Y382459D01*
X561114Y382533D01*
X561306Y382585D01*
X561387Y382600D01*
X561469Y382615D01*
X561543Y382622D01*
X561602Y382630D01*
X561654Y382637D01*
X561727D01*
X561861Y382630D01*
D02*
G37*
G36*
X567500Y377500D02*
X566820D01*
Y379821D01*
X564418D01*
Y380427D01*
X566820D01*
Y382009D01*
X564041D01*
Y382615D01*
X567500D01*
Y377500D01*
D02*
G37*
G36*
X562030Y297711D02*
X562230Y297674D01*
X562400Y297615D01*
X562548Y297556D01*
X562614Y297519D01*
X562666Y297489D01*
X562718Y297460D01*
X562755Y297430D01*
X562784Y297408D01*
X562807Y297393D01*
X562821Y297386D01*
X562829Y297378D01*
X562969Y297238D01*
X563080Y297083D01*
X563169Y296920D01*
X563243Y296757D01*
X563287Y296617D01*
X563309Y296558D01*
X563324Y296506D01*
X563331Y296462D01*
X563339Y296432D01*
X563346Y296410D01*
Y296402D01*
X562718Y296292D01*
X562688Y296454D01*
X562644Y296595D01*
X562592Y296713D01*
X562541Y296809D01*
X562489Y296883D01*
X562444Y296935D01*
X562415Y296972D01*
X562407Y296979D01*
X562311Y297053D01*
X562208Y297112D01*
X562112Y297149D01*
X562016Y297179D01*
X561927Y297193D01*
X561861Y297208D01*
X561801D01*
X561668Y297201D01*
X561550Y297171D01*
X561447Y297134D01*
X561358Y297097D01*
X561291Y297053D01*
X561240Y297016D01*
X561203Y296987D01*
X561195Y296979D01*
X561114Y296890D01*
X561055Y296794D01*
X561018Y296698D01*
X560988Y296609D01*
X560974Y296528D01*
X560959Y296469D01*
Y296425D01*
Y296417D01*
Y296410D01*
Y296329D01*
X560974Y296255D01*
X561011Y296129D01*
X561062Y296018D01*
X561121Y295922D01*
X561180Y295856D01*
X561232Y295804D01*
X561269Y295774D01*
X561277Y295767D01*
X561284D01*
X561410Y295700D01*
X561528Y295649D01*
X561654Y295612D01*
X561764Y295590D01*
X561861Y295575D01*
X561942Y295560D01*
X562038D01*
X562067Y295567D01*
X562104D01*
X562178Y295013D01*
X562082Y295035D01*
X561993Y295050D01*
X561920Y295065D01*
X561853Y295072D01*
X561801Y295079D01*
X561735D01*
X561580Y295065D01*
X561439Y295035D01*
X561314Y294991D01*
X561210Y294939D01*
X561129Y294887D01*
X561070Y294843D01*
X561033Y294813D01*
X561018Y294799D01*
X560922Y294688D01*
X560848Y294569D01*
X560796Y294451D01*
X560767Y294333D01*
X560744Y294237D01*
X560737Y294156D01*
X560730Y294126D01*
Y294104D01*
Y294089D01*
Y294082D01*
X560744Y293919D01*
X560781Y293771D01*
X560826Y293645D01*
X560885Y293535D01*
X560944Y293446D01*
X560988Y293379D01*
X561025Y293335D01*
X561040Y293320D01*
X561158Y293217D01*
X561284Y293143D01*
X561410Y293091D01*
X561528Y293054D01*
X561631Y293032D01*
X561713Y293025D01*
X561742Y293017D01*
X561787D01*
X561920Y293025D01*
X562045Y293054D01*
X562156Y293091D01*
X562245Y293136D01*
X562319Y293172D01*
X562378Y293209D01*
X562407Y293239D01*
X562422Y293246D01*
X562511Y293350D01*
X562585Y293468D01*
X562651Y293594D01*
X562703Y293727D01*
X562740Y293838D01*
X562755Y293890D01*
X562762Y293934D01*
X562770Y293971D01*
X562777Y294000D01*
X562784Y294015D01*
Y294023D01*
X563413Y293941D01*
X563398Y293823D01*
X563376Y293712D01*
X563309Y293505D01*
X563228Y293328D01*
X563184Y293254D01*
X563139Y293180D01*
X563095Y293113D01*
X563050Y293062D01*
X563014Y293010D01*
X562977Y292973D01*
X562954Y292943D01*
X562932Y292921D01*
X562918Y292906D01*
X562910Y292899D01*
X562821Y292833D01*
X562733Y292766D01*
X562644Y292714D01*
X562548Y292670D01*
X562363Y292596D01*
X562186Y292552D01*
X562104Y292537D01*
X562030Y292522D01*
X561964Y292515D01*
X561905Y292507D01*
X561861Y292500D01*
X561794D01*
X561654Y292507D01*
X561528Y292522D01*
X561402Y292544D01*
X561284Y292574D01*
X561173Y292611D01*
X561077Y292648D01*
X560981Y292692D01*
X560900Y292736D01*
X560818Y292773D01*
X560752Y292818D01*
X560693Y292855D01*
X560648Y292892D01*
X560611Y292921D01*
X560582Y292943D01*
X560567Y292958D01*
X560560Y292966D01*
X560471Y293054D01*
X560397Y293150D01*
X560331Y293246D01*
X560271Y293342D01*
X560227Y293431D01*
X560183Y293527D01*
X560123Y293705D01*
X560109Y293786D01*
X560094Y293860D01*
X560079Y293926D01*
X560072Y293986D01*
X560064Y294030D01*
Y294067D01*
Y294089D01*
Y294096D01*
X560072Y294274D01*
X560101Y294436D01*
X560146Y294577D01*
X560190Y294695D01*
X560234Y294791D01*
X560279Y294865D01*
X560308Y294909D01*
X560316Y294924D01*
X560419Y295035D01*
X560530Y295131D01*
X560648Y295205D01*
X560767Y295264D01*
X560870Y295309D01*
X560951Y295338D01*
X560981Y295346D01*
X561003Y295353D01*
X561018Y295360D01*
X561025D01*
X560900Y295427D01*
X560796Y295493D01*
X560707Y295567D01*
X560634Y295634D01*
X560574Y295693D01*
X560530Y295745D01*
X560508Y295774D01*
X560500Y295789D01*
X560441Y295893D01*
X560397Y295996D01*
X560360Y296099D01*
X560338Y296196D01*
X560323Y296277D01*
X560316Y296336D01*
Y296380D01*
Y296395D01*
X560323Y296521D01*
X560345Y296646D01*
X560375Y296757D01*
X560412Y296853D01*
X560449Y296935D01*
X560478Y297001D01*
X560500Y297038D01*
X560508Y297053D01*
X560582Y297164D01*
X560671Y297260D01*
X560759Y297341D01*
X560848Y297415D01*
X560922Y297467D01*
X560988Y297511D01*
X561033Y297533D01*
X561040Y297541D01*
X561047D01*
X561180Y297600D01*
X561314Y297644D01*
X561447Y297681D01*
X561565Y297703D01*
X561661Y297718D01*
X561742Y297726D01*
X561927D01*
X562030Y297711D01*
D02*
G37*
G36*
X567500Y292589D02*
X566820D01*
Y294909D01*
X564418D01*
Y295516D01*
X566820D01*
Y297097D01*
X564041D01*
Y297703D01*
X567500D01*
Y292589D01*
D02*
G37*
G36*
Y210000D02*
X566820D01*
Y212321D01*
X564418D01*
Y212927D01*
X566820D01*
Y214509D01*
X564041D01*
Y215115D01*
X567500D01*
Y210000D01*
D02*
G37*
G36*
X563634Y211803D02*
Y211227D01*
X561410D01*
Y210000D01*
X560781D01*
Y211227D01*
X560087D01*
Y211803D01*
X560781D01*
Y215115D01*
X561291D01*
X563634Y211803D01*
D02*
G37*
G36*
X563309Y130006D02*
X562718Y129924D01*
X562666Y130006D01*
X562600Y130072D01*
X562541Y130139D01*
X562481Y130190D01*
X562422Y130227D01*
X562378Y130264D01*
X562348Y130279D01*
X562341Y130286D01*
X562245Y130331D01*
X562149Y130368D01*
X562060Y130390D01*
X561971Y130412D01*
X561898Y130420D01*
X561838Y130427D01*
X561698D01*
X561609Y130412D01*
X561454Y130375D01*
X561321Y130323D01*
X561203Y130272D01*
X561114Y130212D01*
X561047Y130161D01*
X561011Y130124D01*
X560996Y130116D01*
Y130109D01*
X560892Y129983D01*
X560818Y129850D01*
X560767Y129710D01*
X560730Y129570D01*
X560707Y129451D01*
X560700Y129399D01*
Y129355D01*
X560693Y129318D01*
Y129289D01*
Y129274D01*
Y129266D01*
Y129163D01*
X560707Y129067D01*
X560744Y128882D01*
X560796Y128727D01*
X560848Y128601D01*
X560907Y128498D01*
X560959Y128416D01*
X560981Y128394D01*
X560996Y128372D01*
X561003Y128365D01*
X561011Y128357D01*
X561070Y128298D01*
X561129Y128246D01*
X561262Y128158D01*
X561387Y128099D01*
X561513Y128062D01*
X561617Y128032D01*
X561705Y128025D01*
X561735Y128017D01*
X561779D01*
X561920Y128025D01*
X562045Y128054D01*
X562156Y128091D01*
X562245Y128135D01*
X562326Y128180D01*
X562385Y128217D01*
X562415Y128246D01*
X562430Y128254D01*
X562518Y128357D01*
X562592Y128468D01*
X562651Y128594D01*
X562696Y128705D01*
X562725Y128815D01*
X562747Y128897D01*
X562755Y128934D01*
X562762Y128956D01*
Y128971D01*
Y128978D01*
X563420Y128926D01*
X563405Y128808D01*
X563383Y128697D01*
X563317Y128490D01*
X563235Y128313D01*
X563191Y128232D01*
X563147Y128165D01*
X563110Y128099D01*
X563065Y128039D01*
X563028Y127995D01*
X562991Y127958D01*
X562962Y127929D01*
X562947Y127899D01*
X562932Y127892D01*
X562925Y127884D01*
X562836Y127818D01*
X562747Y127759D01*
X562651Y127707D01*
X562555Y127662D01*
X562370Y127596D01*
X562186Y127552D01*
X562104Y127529D01*
X562023Y127522D01*
X561957Y127515D01*
X561898Y127507D01*
X561846Y127500D01*
X561779D01*
X561624Y127507D01*
X561476Y127529D01*
X561336Y127559D01*
X561210Y127596D01*
X561092Y127648D01*
X560981Y127699D01*
X560877Y127751D01*
X560789Y127810D01*
X560707Y127869D01*
X560634Y127921D01*
X560574Y127980D01*
X560523Y128025D01*
X560486Y128062D01*
X560456Y128091D01*
X560441Y128113D01*
X560434Y128121D01*
X560360Y128217D01*
X560301Y128320D01*
X560242Y128416D01*
X560197Y128520D01*
X560123Y128720D01*
X560079Y128912D01*
X560064Y128993D01*
X560050Y129074D01*
X560042Y129141D01*
X560035Y129200D01*
X560027Y129252D01*
Y129289D01*
Y129311D01*
Y129318D01*
X560035Y129451D01*
X560050Y129577D01*
X560072Y129703D01*
X560101Y129813D01*
X560138Y129917D01*
X560175Y130020D01*
X560220Y130109D01*
X560257Y130190D01*
X560301Y130264D01*
X560345Y130331D01*
X560382Y130382D01*
X560419Y130434D01*
X560449Y130471D01*
X560471Y130493D01*
X560486Y130508D01*
X560493Y130516D01*
X560582Y130597D01*
X560671Y130671D01*
X560767Y130730D01*
X560863Y130782D01*
X560959Y130833D01*
X561055Y130870D01*
X561232Y130922D01*
X561314Y130944D01*
X561387Y130959D01*
X561454Y130966D01*
X561513Y130974D01*
X561557Y130981D01*
X561720D01*
X561809Y130966D01*
X561986Y130929D01*
X562149Y130878D01*
X562297Y130819D01*
X562415Y130759D01*
X562467Y130730D01*
X562511Y130708D01*
X562548Y130686D01*
X562570Y130671D01*
X562585Y130663D01*
X562592Y130656D01*
X562319Y132038D01*
X560271D01*
Y132637D01*
X562814D01*
X563309Y130006D01*
D02*
G37*
G36*
X567500Y127589D02*
X566820D01*
Y129909D01*
X564418D01*
Y130516D01*
X566820D01*
Y132097D01*
X564041D01*
Y132703D01*
X567500D01*
Y127589D01*
D02*
G37*
G36*
X392007Y460468D02*
X392147Y460453D01*
X392281Y460424D01*
X392406Y460387D01*
X392517Y460335D01*
X392628Y460291D01*
X392724Y460232D01*
X392813Y460180D01*
X392887Y460128D01*
X392961Y460069D01*
X393020Y460025D01*
X393064Y459980D01*
X393101Y459936D01*
X393130Y459906D01*
X393145Y459892D01*
X393153Y459884D01*
X393249Y459751D01*
X393330Y459596D01*
X393404Y459433D01*
X393470Y459263D01*
X393522Y459086D01*
X393567Y458909D01*
X393604Y458724D01*
X393633Y458554D01*
X393655Y458384D01*
X393670Y458229D01*
X393685Y458088D01*
X393692Y457970D01*
Y457866D01*
X393700Y457793D01*
Y457763D01*
Y457741D01*
Y457733D01*
Y457726D01*
X393692Y457490D01*
X393677Y457268D01*
X393655Y457061D01*
X393618Y456869D01*
X393581Y456699D01*
X393544Y456543D01*
X393500Y456403D01*
X393448Y456277D01*
X393404Y456174D01*
X393360Y456078D01*
X393323Y456004D01*
X393278Y455937D01*
X393249Y455886D01*
X393227Y455856D01*
X393212Y455834D01*
X393204Y455826D01*
X393108Y455723D01*
X393005Y455634D01*
X392901Y455560D01*
X392798Y455494D01*
X392687Y455435D01*
X392584Y455390D01*
X392480Y455353D01*
X392377Y455324D01*
X392288Y455302D01*
X392199Y455279D01*
X392125Y455265D01*
X392059Y455257D01*
X392000D01*
X391963Y455250D01*
X391926D01*
X391756Y455257D01*
X391600Y455287D01*
X391460Y455316D01*
X391334Y455361D01*
X391238Y455398D01*
X391164Y455435D01*
X391135Y455442D01*
X391113Y455457D01*
X391105Y455464D01*
X391098D01*
X390972Y455553D01*
X390854Y455656D01*
X390758Y455760D01*
X390677Y455863D01*
X390610Y455959D01*
X390566Y456033D01*
X390551Y456063D01*
X390536Y456085D01*
X390529Y456092D01*
Y456100D01*
X390455Y456255D01*
X390403Y456418D01*
X390366Y456566D01*
X390344Y456706D01*
X390322Y456824D01*
Y456869D01*
X390314Y456913D01*
Y456950D01*
Y456972D01*
Y456987D01*
Y456994D01*
X390322Y457127D01*
X390337Y457253D01*
X390359Y457379D01*
X390381Y457490D01*
X390418Y457593D01*
X390455Y457696D01*
X390492Y457785D01*
X390536Y457866D01*
X390580Y457940D01*
X390617Y458007D01*
X390654Y458059D01*
X390691Y458110D01*
X390714Y458147D01*
X390736Y458170D01*
X390751Y458184D01*
X390758Y458192D01*
X390839Y458273D01*
X390928Y458347D01*
X391024Y458406D01*
X391113Y458458D01*
X391201Y458509D01*
X391290Y458546D01*
X391460Y458598D01*
X391534Y458620D01*
X391608Y458635D01*
X391667Y458643D01*
X391726Y458650D01*
X391771Y458657D01*
X391830D01*
X391963Y458650D01*
X392088Y458628D01*
X392207Y458606D01*
X392310Y458576D01*
X392399Y458539D01*
X392465Y458517D01*
X392510Y458495D01*
X392517Y458487D01*
X392524D01*
X392643Y458413D01*
X392746Y458332D01*
X392842Y458251D01*
X392916Y458162D01*
X392983Y458088D01*
X393034Y458029D01*
X393064Y457985D01*
X393071Y457977D01*
Y458110D01*
X393064Y458243D01*
X393057Y458362D01*
X393042Y458480D01*
X393034Y458583D01*
X393020Y458680D01*
X393005Y458768D01*
X392983Y458849D01*
X392968Y458923D01*
X392953Y458983D01*
X392938Y459034D01*
X392931Y459079D01*
X392916Y459108D01*
X392909Y459130D01*
X392901Y459145D01*
Y459152D01*
X392827Y459300D01*
X392753Y459433D01*
X392672Y459537D01*
X392598Y459626D01*
X392532Y459700D01*
X392480Y459751D01*
X392443Y459781D01*
X392428Y459788D01*
X392340Y459847D01*
X392251Y459884D01*
X392162Y459914D01*
X392074Y459936D01*
X392007Y459951D01*
X391948Y459958D01*
X391896D01*
X391763Y459943D01*
X391637Y459914D01*
X391534Y459869D01*
X391438Y459825D01*
X391364Y459773D01*
X391312Y459729D01*
X391283Y459700D01*
X391268Y459685D01*
X391216Y459618D01*
X391164Y459537D01*
X391120Y459448D01*
X391091Y459360D01*
X391061Y459278D01*
X391039Y459212D01*
X391031Y459167D01*
X391024Y459160D01*
Y459152D01*
X390396Y459204D01*
X390440Y459411D01*
X390507Y459596D01*
X390580Y459759D01*
X390662Y459892D01*
X390743Y459995D01*
X390773Y460039D01*
X390810Y460076D01*
X390832Y460099D01*
X390854Y460121D01*
X390861Y460128D01*
X390869Y460136D01*
X390943Y460195D01*
X391024Y460247D01*
X391187Y460335D01*
X391349Y460394D01*
X391504Y460431D01*
X391645Y460461D01*
X391704Y460468D01*
X391756D01*
X391800Y460476D01*
X391859D01*
X392007Y460468D01*
D02*
G37*
G36*
X397750Y455339D02*
X397070D01*
Y457659D01*
X394668D01*
Y458266D01*
X397070D01*
Y459847D01*
X394291D01*
Y460453D01*
X397750D01*
Y455339D01*
D02*
G37*
G36*
X400000Y375000D02*
X399320D01*
Y377321D01*
X396918D01*
Y377927D01*
X399320D01*
Y379509D01*
X396541D01*
Y380115D01*
X400000D01*
Y375000D01*
D02*
G37*
G36*
X395876Y379442D02*
X393370D01*
X393547Y379228D01*
X393717Y378999D01*
X393865Y378777D01*
X394006Y378563D01*
X394065Y378466D01*
X394117Y378378D01*
X394168Y378296D01*
X394205Y378230D01*
X394235Y378171D01*
X394257Y378134D01*
X394272Y378104D01*
X394279Y378097D01*
X394427Y377801D01*
X394560Y377506D01*
X394671Y377225D01*
X394715Y377099D01*
X394760Y376973D01*
X394804Y376862D01*
X394833Y376759D01*
X394863Y376670D01*
X394885Y376596D01*
X394907Y376530D01*
X394922Y376486D01*
X394930Y376456D01*
Y376449D01*
X395004Y376146D01*
X395033Y375998D01*
X395055Y375865D01*
X395077Y375739D01*
X395100Y375613D01*
X395114Y375510D01*
X395129Y375406D01*
X395137Y375318D01*
X395144Y375236D01*
X395151Y375163D01*
Y375103D01*
X395159Y375059D01*
Y375029D01*
Y375007D01*
Y375000D01*
X394516D01*
X394493Y375281D01*
X394457Y375540D01*
X394420Y375776D01*
X394397Y375887D01*
X394375Y375990D01*
X394361Y376079D01*
X394338Y376160D01*
X394324Y376234D01*
X394309Y376293D01*
X394294Y376338D01*
X394287Y376375D01*
X394279Y376397D01*
Y376404D01*
X394168Y376744D01*
X394050Y377062D01*
X393991Y377217D01*
X393932Y377365D01*
X393865Y377498D01*
X393806Y377631D01*
X393754Y377749D01*
X393703Y377853D01*
X393658Y377942D01*
X393621Y378023D01*
X393584Y378089D01*
X393562Y378134D01*
X393547Y378163D01*
X393540Y378171D01*
X393451Y378326D01*
X393363Y378481D01*
X393274Y378622D01*
X393185Y378755D01*
X393104Y378873D01*
X393023Y378991D01*
X392941Y379095D01*
X392875Y379183D01*
X392808Y379272D01*
X392749Y379346D01*
X392690Y379405D01*
X392646Y379457D01*
X392616Y379501D01*
X392587Y379531D01*
X392572Y379546D01*
X392564Y379553D01*
Y380048D01*
X395876D01*
Y379442D01*
D02*
G37*
G36*
X402500Y290089D02*
X401820D01*
Y292409D01*
X399418D01*
Y293016D01*
X401820D01*
Y294597D01*
X399041D01*
Y295203D01*
X402500D01*
Y290089D01*
D02*
G37*
G36*
X396875Y295218D02*
X396993Y295211D01*
X397201Y295166D01*
X397297Y295137D01*
X397385Y295107D01*
X397467Y295070D01*
X397541Y295033D01*
X397600Y294996D01*
X397659Y294960D01*
X397710Y294930D01*
X397747Y294900D01*
X397777Y294878D01*
X397799Y294856D01*
X397814Y294849D01*
X397821Y294841D01*
X397888Y294767D01*
X397954Y294693D01*
X398006Y294612D01*
X398050Y294531D01*
X398124Y294376D01*
X398169Y294228D01*
X398198Y294102D01*
X398206Y294043D01*
X398213Y293999D01*
X398220Y293954D01*
Y293925D01*
Y293910D01*
Y293902D01*
X398213Y293769D01*
X398191Y293644D01*
X398161Y293533D01*
X398124Y293437D01*
X398095Y293363D01*
X398065Y293304D01*
X398043Y293274D01*
X398036Y293260D01*
X397954Y293171D01*
X397866Y293090D01*
X397770Y293016D01*
X397674Y292956D01*
X397585Y292912D01*
X397518Y292882D01*
X397489Y292868D01*
X397467Y292860D01*
X397459Y292853D01*
X397452D01*
X397622Y292801D01*
X397762Y292735D01*
X397888Y292653D01*
X397991Y292579D01*
X398073Y292506D01*
X398132Y292446D01*
X398161Y292409D01*
X398176Y292402D01*
Y292395D01*
X398257Y292262D01*
X398324Y292121D01*
X398368Y291988D01*
X398398Y291855D01*
X398413Y291737D01*
X398420Y291685D01*
Y291641D01*
X398428Y291611D01*
Y291582D01*
Y291567D01*
Y291560D01*
X398420Y291441D01*
X398405Y291323D01*
X398383Y291212D01*
X398354Y291101D01*
X398280Y290916D01*
X398243Y290828D01*
X398198Y290754D01*
X398154Y290680D01*
X398117Y290621D01*
X398073Y290569D01*
X398043Y290525D01*
X398014Y290488D01*
X397991Y290466D01*
X397977Y290451D01*
X397969Y290443D01*
X397881Y290362D01*
X397784Y290296D01*
X397681Y290236D01*
X397578Y290185D01*
X397481Y290148D01*
X397378Y290111D01*
X397178Y290059D01*
X397090Y290037D01*
X397008Y290022D01*
X396934Y290015D01*
X396868Y290007D01*
X396816Y290000D01*
X396742D01*
X396602Y290007D01*
X396476Y290022D01*
X396351Y290044D01*
X396232Y290066D01*
X396129Y290103D01*
X396025Y290140D01*
X395929Y290177D01*
X395848Y290222D01*
X395774Y290266D01*
X395707Y290303D01*
X395656Y290340D01*
X395604Y290377D01*
X395567Y290399D01*
X395545Y290421D01*
X395530Y290436D01*
X395523Y290443D01*
X395441Y290532D01*
X395367Y290621D01*
X395308Y290709D01*
X395257Y290805D01*
X395205Y290894D01*
X395168Y290990D01*
X395116Y291160D01*
X395094Y291242D01*
X395079Y291315D01*
X395072Y291382D01*
X395064Y291434D01*
X395057Y291478D01*
Y291515D01*
Y291537D01*
Y291545D01*
X395064Y291715D01*
X395094Y291870D01*
X395138Y292010D01*
X395183Y292129D01*
X395227Y292225D01*
X395271Y292299D01*
X395301Y292343D01*
X395308Y292350D01*
Y292358D01*
X395412Y292476D01*
X395523Y292579D01*
X395641Y292661D01*
X395752Y292735D01*
X395855Y292786D01*
X395944Y292823D01*
X395974Y292838D01*
X395996Y292846D01*
X396011Y292853D01*
X396018D01*
X395885Y292912D01*
X395774Y292979D01*
X395678Y293045D01*
X395597Y293112D01*
X395537Y293171D01*
X395493Y293215D01*
X395463Y293245D01*
X395456Y293260D01*
X395390Y293363D01*
X395345Y293466D01*
X395308Y293570D01*
X395286Y293673D01*
X395271Y293755D01*
X395264Y293821D01*
Y293866D01*
Y293873D01*
Y293880D01*
X395271Y293984D01*
X395279Y294080D01*
X395331Y294265D01*
X395397Y294427D01*
X395471Y294568D01*
X395545Y294679D01*
X395582Y294723D01*
X395611Y294767D01*
X395641Y294797D01*
X395663Y294819D01*
X395671Y294827D01*
X395678Y294834D01*
X395759Y294900D01*
X395840Y294967D01*
X395929Y295019D01*
X396018Y295063D01*
X396195Y295130D01*
X396373Y295174D01*
X396447Y295196D01*
X396521Y295203D01*
X396587Y295211D01*
X396646Y295218D01*
X396690Y295226D01*
X396757D01*
X396875Y295218D01*
D02*
G37*
G36*
X352942Y212718D02*
X353060Y212703D01*
X353178Y212681D01*
X353282Y212652D01*
X353481Y212570D01*
X353570Y212533D01*
X353644Y212489D01*
X353718Y212437D01*
X353777Y212400D01*
X353836Y212356D01*
X353881Y212319D01*
X353918Y212290D01*
X353940Y212267D01*
X353954Y212253D01*
X353962Y212245D01*
X354043Y212156D01*
X354110Y212053D01*
X354176Y211957D01*
X354228Y211853D01*
X354272Y211742D01*
X354309Y211639D01*
X354361Y211447D01*
X354383Y211351D01*
X354398Y211269D01*
X354405Y211188D01*
X354413Y211122D01*
X354420Y211070D01*
Y211033D01*
Y211003D01*
Y210996D01*
X354413Y210856D01*
X354398Y210730D01*
X354383Y210604D01*
X354353Y210486D01*
X354317Y210382D01*
X354280Y210279D01*
X354243Y210190D01*
X354198Y210109D01*
X354161Y210035D01*
X354124Y209969D01*
X354087Y209917D01*
X354050Y209865D01*
X354021Y209828D01*
X354006Y209806D01*
X353991Y209791D01*
X353984Y209784D01*
X353903Y209702D01*
X353814Y209636D01*
X353725Y209569D01*
X353629Y209518D01*
X353540Y209473D01*
X353452Y209436D01*
X353282Y209385D01*
X353208Y209363D01*
X353134Y209348D01*
X353075Y209340D01*
X353016Y209333D01*
X352971Y209326D01*
X352912D01*
X352772Y209333D01*
X352639Y209355D01*
X352520Y209385D01*
X352410Y209422D01*
X352328Y209451D01*
X352262Y209481D01*
X352217Y209503D01*
X352203Y209510D01*
X352084Y209584D01*
X351981Y209666D01*
X351892Y209747D01*
X351818Y209821D01*
X351767Y209895D01*
X351722Y209946D01*
X351693Y209983D01*
X351685Y209998D01*
Y209939D01*
Y209902D01*
Y209880D01*
Y209872D01*
X351693Y209725D01*
X351700Y209584D01*
X351715Y209459D01*
X351730Y209340D01*
X351752Y209244D01*
X351767Y209170D01*
X351774Y209141D01*
Y209119D01*
X351781Y209111D01*
Y209104D01*
X351818Y208971D01*
X351855Y208853D01*
X351892Y208749D01*
X351929Y208660D01*
X351959Y208594D01*
X351988Y208542D01*
X352003Y208505D01*
X352010Y208498D01*
X352070Y208416D01*
X352129Y208350D01*
X352188Y208291D01*
X352247Y208239D01*
X352291Y208195D01*
X352336Y208165D01*
X352365Y208150D01*
X352373Y208143D01*
X352454Y208099D01*
X352543Y208069D01*
X352624Y208047D01*
X352705Y208032D01*
X352772Y208025D01*
X352823Y208017D01*
X352875D01*
X352994Y208025D01*
X353104Y208047D01*
X353200Y208076D01*
X353282Y208113D01*
X353341Y208143D01*
X353393Y208172D01*
X353422Y208195D01*
X353430Y208202D01*
X353503Y208283D01*
X353563Y208379D01*
X353614Y208483D01*
X353651Y208586D01*
X353681Y208675D01*
X353703Y208756D01*
X353711Y208786D01*
Y208801D01*
X353718Y208815D01*
Y208823D01*
X354324Y208771D01*
X354280Y208557D01*
X354221Y208372D01*
X354147Y208209D01*
X354073Y208076D01*
X353999Y207973D01*
X353962Y207929D01*
X353932Y207892D01*
X353910Y207869D01*
X353888Y207847D01*
X353881Y207840D01*
X353873Y207833D01*
X353799Y207773D01*
X353718Y207722D01*
X353555Y207640D01*
X353393Y207581D01*
X353237Y207544D01*
X353097Y207515D01*
X353038Y207507D01*
X352986D01*
X352949Y207500D01*
X352890D01*
X352683Y207515D01*
X352498Y207544D01*
X352328Y207596D01*
X352188Y207655D01*
X352129Y207677D01*
X352070Y207707D01*
X352025Y207736D01*
X351981Y207759D01*
X351951Y207773D01*
X351929Y207788D01*
X351914Y207803D01*
X351907D01*
X351759Y207929D01*
X351626Y208069D01*
X351523Y208217D01*
X351434Y208357D01*
X351360Y208483D01*
X351330Y208542D01*
X351308Y208586D01*
X351293Y208631D01*
X351279Y208660D01*
X351271Y208675D01*
Y208682D01*
X351234Y208793D01*
X351197Y208919D01*
X351146Y209170D01*
X351109Y209436D01*
X351087Y209688D01*
X351072Y209799D01*
X351064Y209909D01*
Y210005D01*
X351057Y210087D01*
Y210153D01*
Y210205D01*
Y210242D01*
Y210250D01*
Y210420D01*
X351064Y210582D01*
X351079Y210730D01*
X351094Y210870D01*
X351109Y210996D01*
X351124Y211114D01*
X351146Y211225D01*
X351168Y211321D01*
X351190Y211402D01*
X351205Y211476D01*
X351227Y211543D01*
X351242Y211595D01*
X351256Y211632D01*
X351271Y211661D01*
X351279Y211676D01*
Y211683D01*
X351367Y211861D01*
X351464Y212016D01*
X351574Y212149D01*
X351670Y212260D01*
X351767Y212341D01*
X351841Y212400D01*
X351870Y212423D01*
X351892Y212437D01*
X351900Y212452D01*
X351907D01*
X352062Y212541D01*
X352217Y212607D01*
X352373Y212659D01*
X352513Y212689D01*
X352639Y212711D01*
X352691Y212718D01*
X352727D01*
X352764Y212726D01*
X352816D01*
X352942Y212718D01*
D02*
G37*
G36*
X358500Y207589D02*
X357820D01*
Y209909D01*
X355418D01*
Y210516D01*
X357820D01*
Y212097D01*
X355041D01*
Y212703D01*
X358500D01*
Y207589D01*
D02*
G37*
G36*
X351535Y127600D02*
X351617Y127482D01*
X351713Y127363D01*
X351801Y127260D01*
X351890Y127171D01*
X351957Y127097D01*
X351986Y127075D01*
X352008Y127053D01*
X352016Y127046D01*
X352023Y127038D01*
X352178Y126912D01*
X352333Y126794D01*
X352481Y126691D01*
X352629Y126609D01*
X352755Y126536D01*
X352807Y126506D01*
X352851Y126484D01*
X352888Y126462D01*
X352918Y126454D01*
X352932Y126440D01*
X352940D01*
Y125833D01*
X352829Y125878D01*
X352718Y125929D01*
X352607Y125981D01*
X352504Y126033D01*
X352415Y126077D01*
X352341Y126114D01*
X352297Y126144D01*
X352289Y126151D01*
X352282D01*
X352149Y126233D01*
X352030Y126314D01*
X351927Y126388D01*
X351846Y126454D01*
X351772Y126506D01*
X351727Y126550D01*
X351690Y126580D01*
X351683Y126587D01*
Y122589D01*
X351055D01*
Y127726D01*
X351461D01*
X351535Y127600D01*
D02*
G37*
G36*
X357500Y122589D02*
X356820D01*
Y124909D01*
X354418D01*
Y125516D01*
X356820D01*
Y127097D01*
X354041D01*
Y127703D01*
X357500D01*
Y122589D01*
D02*
G37*
G36*
X347973Y127711D02*
X348157Y127681D01*
X348313Y127629D01*
X348446Y127578D01*
X348557Y127519D01*
X348601Y127497D01*
X348638Y127467D01*
X348667Y127452D01*
X348690Y127437D01*
X348697Y127423D01*
X348704D01*
X348837Y127304D01*
X348948Y127164D01*
X349044Y127023D01*
X349118Y126890D01*
X349177Y126765D01*
X349207Y126713D01*
X349222Y126661D01*
X349236Y126624D01*
X349251Y126595D01*
X349259Y126580D01*
Y126573D01*
X349288Y126462D01*
X349318Y126351D01*
X349362Y126107D01*
X349399Y125863D01*
X349421Y125634D01*
X349429Y125523D01*
X349436Y125427D01*
Y125338D01*
X349444Y125257D01*
Y125198D01*
Y125146D01*
Y125116D01*
Y125109D01*
X349436Y124850D01*
X349421Y124606D01*
X349399Y124385D01*
X349362Y124178D01*
X349325Y123986D01*
X349281Y123816D01*
X349236Y123660D01*
X349192Y123527D01*
X349148Y123409D01*
X349096Y123306D01*
X349059Y123217D01*
X349022Y123150D01*
X348985Y123091D01*
X348963Y123054D01*
X348948Y123032D01*
X348941Y123025D01*
X348860Y122936D01*
X348771Y122855D01*
X348675Y122781D01*
X348579Y122722D01*
X348483Y122670D01*
X348386Y122626D01*
X348290Y122596D01*
X348202Y122566D01*
X348113Y122544D01*
X348032Y122529D01*
X347958Y122515D01*
X347899Y122507D01*
X347847Y122500D01*
X347773D01*
X347574Y122515D01*
X347389Y122544D01*
X347234Y122596D01*
X347100Y122648D01*
X346990Y122699D01*
X346953Y122729D01*
X346916Y122751D01*
X346886Y122766D01*
X346864Y122781D01*
X346856Y122795D01*
X346849D01*
X346716Y122921D01*
X346605Y123054D01*
X346509Y123202D01*
X346435Y123335D01*
X346376Y123461D01*
X346347Y123512D01*
X346332Y123564D01*
X346317Y123601D01*
X346302Y123631D01*
X346295Y123645D01*
Y123653D01*
X346258Y123764D01*
X346228Y123875D01*
X346184Y124111D01*
X346147Y124355D01*
X346125Y124592D01*
X346117Y124695D01*
X346110Y124791D01*
Y124880D01*
X346103Y124961D01*
Y125020D01*
Y125072D01*
Y125102D01*
Y125109D01*
Y125250D01*
X346110Y125382D01*
Y125501D01*
X346117Y125619D01*
X346132Y125723D01*
X346139Y125826D01*
X346147Y125915D01*
X346162Y125996D01*
X346169Y126070D01*
X346184Y126137D01*
X346191Y126188D01*
X346199Y126233D01*
X346206Y126270D01*
X346213Y126292D01*
X346221Y126306D01*
Y126314D01*
X346265Y126476D01*
X346317Y126624D01*
X346376Y126750D01*
X346420Y126861D01*
X346472Y126957D01*
X346502Y127023D01*
X346531Y127060D01*
X346539Y127075D01*
X346620Y127186D01*
X346701Y127282D01*
X346790Y127363D01*
X346871Y127437D01*
X346945Y127489D01*
X347004Y127526D01*
X347041Y127548D01*
X347049Y127556D01*
X347056D01*
X347174Y127615D01*
X347300Y127652D01*
X347418Y127681D01*
X347529Y127703D01*
X347625Y127718D01*
X347706Y127726D01*
X347773D01*
X347973Y127711D01*
D02*
G37*
G36*
X221535Y465011D02*
X221617Y464893D01*
X221713Y464775D01*
X221801Y464671D01*
X221890Y464582D01*
X221957Y464509D01*
X221986Y464486D01*
X222008Y464464D01*
X222016Y464457D01*
X222023Y464450D01*
X222178Y464324D01*
X222334Y464206D01*
X222481Y464102D01*
X222629Y464021D01*
X222755Y463947D01*
X222807Y463917D01*
X222851Y463895D01*
X222888Y463873D01*
X222917Y463866D01*
X222932Y463851D01*
X222940D01*
Y463245D01*
X222829Y463289D01*
X222718Y463341D01*
X222607Y463392D01*
X222504Y463444D01*
X222415Y463489D01*
X222341Y463526D01*
X222297Y463555D01*
X222289Y463563D01*
X222282D01*
X222149Y463644D01*
X222031Y463725D01*
X221927Y463799D01*
X221846Y463866D01*
X221772Y463917D01*
X221727Y463962D01*
X221691Y463991D01*
X221683Y463999D01*
Y460000D01*
X221055D01*
Y465137D01*
X221461D01*
X221535Y465011D01*
D02*
G37*
G36*
X217559D02*
X217640Y464893D01*
X217736Y464775D01*
X217825Y464671D01*
X217913Y464582D01*
X217980Y464509D01*
X218010Y464486D01*
X218032Y464464D01*
X218039Y464457D01*
X218046Y464450D01*
X218202Y464324D01*
X218357Y464206D01*
X218505Y464102D01*
X218653Y464021D01*
X218778Y463947D01*
X218830Y463917D01*
X218874Y463895D01*
X218911Y463873D01*
X218941Y463866D01*
X218956Y463851D01*
X218963D01*
Y463245D01*
X218852Y463289D01*
X218741Y463341D01*
X218630Y463392D01*
X218527Y463444D01*
X218438Y463489D01*
X218364Y463526D01*
X218320Y463555D01*
X218313Y463563D01*
X218305D01*
X218172Y463644D01*
X218054Y463725D01*
X217950Y463799D01*
X217869Y463866D01*
X217795Y463917D01*
X217751Y463962D01*
X217714Y463991D01*
X217707Y463999D01*
Y460000D01*
X217078D01*
Y465137D01*
X217485D01*
X217559Y465011D01*
D02*
G37*
G36*
X227500Y460000D02*
X226820D01*
Y462321D01*
X224418D01*
Y462927D01*
X226820D01*
Y464509D01*
X224041D01*
Y465115D01*
X227500D01*
Y460000D01*
D02*
G37*
G36*
X220384Y382630D02*
X220510Y382622D01*
X220628Y382600D01*
X220739Y382578D01*
X220842Y382548D01*
X220938Y382519D01*
X221027Y382482D01*
X221108Y382445D01*
X221182Y382408D01*
X221241Y382371D01*
X221293Y382341D01*
X221337Y382312D01*
X221374Y382290D01*
X221397Y382267D01*
X221411Y382260D01*
X221419Y382253D01*
X221493Y382179D01*
X221559Y382097D01*
X221626Y382009D01*
X221677Y381920D01*
X221766Y381743D01*
X221825Y381565D01*
X221847Y381484D01*
X221870Y381403D01*
X221884Y381336D01*
X221899Y381277D01*
X221907Y381225D01*
Y381188D01*
X221914Y381166D01*
Y381159D01*
X221271Y381092D01*
X221256Y381262D01*
X221227Y381410D01*
X221182Y381543D01*
X221130Y381646D01*
X221086Y381735D01*
X221042Y381794D01*
X221012Y381831D01*
X220997Y381846D01*
X220886Y381935D01*
X220768Y382001D01*
X220643Y382053D01*
X220532Y382082D01*
X220428Y382105D01*
X220340Y382112D01*
X220310Y382119D01*
X220266D01*
X220110Y382112D01*
X219970Y382082D01*
X219852Y382038D01*
X219748Y381994D01*
X219667Y381942D01*
X219615Y381905D01*
X219578Y381876D01*
X219564Y381861D01*
X219475Y381757D01*
X219408Y381654D01*
X219356Y381550D01*
X219327Y381447D01*
X219305Y381366D01*
X219297Y381292D01*
X219290Y381247D01*
Y381240D01*
Y381232D01*
X219305Y381100D01*
X219334Y380959D01*
X219386Y380833D01*
X219438Y380715D01*
X219497Y380619D01*
X219549Y380538D01*
X219564Y380508D01*
X219578Y380486D01*
X219593Y380479D01*
Y380471D01*
X219652Y380390D01*
X219726Y380309D01*
X219807Y380220D01*
X219896Y380131D01*
X220081Y379954D01*
X220266Y379776D01*
X220362Y379695D01*
X220443Y379621D01*
X220524Y379555D01*
X220591Y379496D01*
X220643Y379451D01*
X220687Y379414D01*
X220716Y379392D01*
X220724Y379385D01*
X220909Y379230D01*
X221079Y379082D01*
X221219Y378949D01*
X221330Y378838D01*
X221426Y378742D01*
X221493Y378675D01*
X221530Y378631D01*
X221544Y378623D01*
Y378616D01*
X221648Y378490D01*
X221729Y378372D01*
X221803Y378254D01*
X221862Y378150D01*
X221907Y378062D01*
X221936Y377995D01*
X221951Y377951D01*
X221958Y377943D01*
Y377936D01*
X221988Y377855D01*
X222003Y377781D01*
X222017Y377707D01*
X222025Y377640D01*
X222032Y377581D01*
Y377537D01*
Y377507D01*
Y377500D01*
X218640D01*
Y378106D01*
X221160D01*
X221071Y378232D01*
X221027Y378283D01*
X220990Y378335D01*
X220953Y378380D01*
X220924Y378409D01*
X220901Y378431D01*
X220894Y378439D01*
X220857Y378475D01*
X220813Y378512D01*
X220709Y378609D01*
X220591Y378719D01*
X220465Y378830D01*
X220347Y378926D01*
X220295Y378971D01*
X220251Y379015D01*
X220214Y379045D01*
X220184Y379067D01*
X220170Y379082D01*
X220162Y379089D01*
X220044Y379193D01*
X219926Y379289D01*
X219822Y379385D01*
X219726Y379466D01*
X219637Y379547D01*
X219564Y379621D01*
X219490Y379688D01*
X219430Y379747D01*
X219371Y379806D01*
X219327Y379850D01*
X219290Y379887D01*
X219253Y379924D01*
X219216Y379969D01*
X219201Y379983D01*
X219098Y380109D01*
X219009Y380220D01*
X218935Y380331D01*
X218876Y380420D01*
X218832Y380501D01*
X218802Y380560D01*
X218787Y380597D01*
X218780Y380612D01*
X218736Y380723D01*
X218706Y380833D01*
X218676Y380937D01*
X218662Y381026D01*
X218654Y381107D01*
X218647Y381166D01*
Y381203D01*
Y381218D01*
X218654Y381329D01*
X218669Y381432D01*
X218684Y381536D01*
X218713Y381624D01*
X218787Y381802D01*
X218861Y381942D01*
X218906Y382009D01*
X218943Y382060D01*
X218979Y382112D01*
X219016Y382149D01*
X219046Y382179D01*
X219061Y382208D01*
X219076Y382216D01*
X219083Y382223D01*
X219164Y382297D01*
X219253Y382363D01*
X219349Y382415D01*
X219445Y382459D01*
X219637Y382533D01*
X219830Y382585D01*
X219911Y382600D01*
X219992Y382615D01*
X220066Y382622D01*
X220125Y382630D01*
X220177Y382637D01*
X220251D01*
X220384Y382630D01*
D02*
G37*
G36*
X224035Y382511D02*
X224117Y382393D01*
X224213Y382275D01*
X224301Y382171D01*
X224390Y382082D01*
X224457Y382009D01*
X224486Y381987D01*
X224508Y381964D01*
X224516Y381957D01*
X224523Y381950D01*
X224678Y381824D01*
X224834Y381706D01*
X224981Y381602D01*
X225129Y381521D01*
X225255Y381447D01*
X225307Y381417D01*
X225351Y381395D01*
X225388Y381373D01*
X225417Y381366D01*
X225432Y381351D01*
X225440D01*
Y380745D01*
X225329Y380789D01*
X225218Y380841D01*
X225107Y380892D01*
X225004Y380944D01*
X224915Y380989D01*
X224841Y381026D01*
X224797Y381055D01*
X224789Y381063D01*
X224782D01*
X224649Y381144D01*
X224531Y381225D01*
X224427Y381299D01*
X224346Y381366D01*
X224272Y381417D01*
X224227Y381462D01*
X224191Y381491D01*
X224183Y381499D01*
Y377500D01*
X223555D01*
Y382637D01*
X223961D01*
X224035Y382511D01*
D02*
G37*
G36*
X230000Y377500D02*
X229320D01*
Y379821D01*
X226918D01*
Y380427D01*
X229320D01*
Y382009D01*
X226541D01*
Y382615D01*
X230000D01*
Y377500D01*
D02*
G37*
G36*
X223054Y297711D02*
X223253Y297674D01*
X223424Y297615D01*
X223571Y297556D01*
X223638Y297519D01*
X223690Y297489D01*
X223741Y297460D01*
X223778Y297430D01*
X223808Y297408D01*
X223830Y297393D01*
X223845Y297386D01*
X223852Y297378D01*
X223993Y297238D01*
X224104Y297083D01*
X224192Y296920D01*
X224266Y296757D01*
X224310Y296617D01*
X224333Y296558D01*
X224347Y296506D01*
X224355Y296462D01*
X224362Y296432D01*
X224370Y296410D01*
Y296402D01*
X223741Y296292D01*
X223712Y296454D01*
X223667Y296595D01*
X223616Y296713D01*
X223564Y296809D01*
X223512Y296883D01*
X223468Y296935D01*
X223438Y296972D01*
X223431Y296979D01*
X223335Y297053D01*
X223231Y297112D01*
X223135Y297149D01*
X223039Y297179D01*
X222950Y297193D01*
X222884Y297208D01*
X222825D01*
X222692Y297201D01*
X222574Y297171D01*
X222470Y297134D01*
X222381Y297097D01*
X222315Y297053D01*
X222263Y297016D01*
X222226Y296987D01*
X222219Y296979D01*
X222137Y296890D01*
X222078Y296794D01*
X222041Y296698D01*
X222012Y296609D01*
X221997Y296528D01*
X221982Y296469D01*
Y296425D01*
Y296417D01*
Y296410D01*
Y296329D01*
X221997Y296255D01*
X222034Y296129D01*
X222086Y296018D01*
X222145Y295922D01*
X222204Y295856D01*
X222256Y295804D01*
X222293Y295774D01*
X222300Y295767D01*
X222307D01*
X222433Y295700D01*
X222551Y295649D01*
X222677Y295612D01*
X222788Y295590D01*
X222884Y295575D01*
X222965Y295560D01*
X223061D01*
X223091Y295567D01*
X223128D01*
X223202Y295013D01*
X223106Y295035D01*
X223017Y295050D01*
X222943Y295065D01*
X222876Y295072D01*
X222825Y295079D01*
X222758D01*
X222603Y295065D01*
X222463Y295035D01*
X222337Y294991D01*
X222234Y294939D01*
X222152Y294887D01*
X222093Y294843D01*
X222056Y294813D01*
X222041Y294799D01*
X221945Y294688D01*
X221871Y294569D01*
X221819Y294451D01*
X221790Y294333D01*
X221768Y294237D01*
X221760Y294156D01*
X221753Y294126D01*
Y294104D01*
Y294089D01*
Y294082D01*
X221768Y293919D01*
X221805Y293771D01*
X221849Y293645D01*
X221908Y293535D01*
X221967Y293446D01*
X222012Y293379D01*
X222049Y293335D01*
X222064Y293320D01*
X222182Y293217D01*
X222307Y293143D01*
X222433Y293091D01*
X222551Y293054D01*
X222655Y293032D01*
X222736Y293025D01*
X222766Y293017D01*
X222810D01*
X222943Y293025D01*
X223069Y293054D01*
X223180Y293091D01*
X223268Y293136D01*
X223342Y293172D01*
X223401Y293209D01*
X223431Y293239D01*
X223446Y293246D01*
X223534Y293350D01*
X223608Y293468D01*
X223675Y293594D01*
X223727Y293727D01*
X223764Y293838D01*
X223778Y293890D01*
X223786Y293934D01*
X223793Y293971D01*
X223800Y294000D01*
X223808Y294015D01*
Y294023D01*
X224436Y293941D01*
X224421Y293823D01*
X224399Y293712D01*
X224333Y293505D01*
X224251Y293328D01*
X224207Y293254D01*
X224163Y293180D01*
X224118Y293113D01*
X224074Y293062D01*
X224037Y293010D01*
X224000Y292973D01*
X223978Y292943D01*
X223956Y292921D01*
X223941Y292906D01*
X223934Y292899D01*
X223845Y292833D01*
X223756Y292766D01*
X223667Y292714D01*
X223571Y292670D01*
X223386Y292596D01*
X223209Y292552D01*
X223128Y292537D01*
X223054Y292522D01*
X222987Y292515D01*
X222928Y292507D01*
X222884Y292500D01*
X222817D01*
X222677Y292507D01*
X222551Y292522D01*
X222426Y292544D01*
X222307Y292574D01*
X222197Y292611D01*
X222100Y292648D01*
X222004Y292692D01*
X221923Y292736D01*
X221842Y292773D01*
X221775Y292818D01*
X221716Y292855D01*
X221672Y292892D01*
X221635Y292921D01*
X221605Y292943D01*
X221590Y292958D01*
X221583Y292966D01*
X221494Y293054D01*
X221420Y293150D01*
X221354Y293246D01*
X221295Y293342D01*
X221250Y293431D01*
X221206Y293527D01*
X221147Y293705D01*
X221132Y293786D01*
X221117Y293860D01*
X221103Y293926D01*
X221095Y293986D01*
X221088Y294030D01*
Y294067D01*
Y294089D01*
Y294096D01*
X221095Y294274D01*
X221125Y294436D01*
X221169Y294577D01*
X221213Y294695D01*
X221258Y294791D01*
X221302Y294865D01*
X221332Y294909D01*
X221339Y294924D01*
X221443Y295035D01*
X221553Y295131D01*
X221672Y295205D01*
X221790Y295264D01*
X221894Y295309D01*
X221975Y295338D01*
X222004Y295346D01*
X222027Y295353D01*
X222041Y295360D01*
X222049D01*
X221923Y295427D01*
X221819Y295493D01*
X221731Y295567D01*
X221657Y295634D01*
X221598Y295693D01*
X221553Y295745D01*
X221531Y295774D01*
X221524Y295789D01*
X221465Y295893D01*
X221420Y295996D01*
X221383Y296099D01*
X221361Y296196D01*
X221346Y296277D01*
X221339Y296336D01*
Y296380D01*
Y296395D01*
X221346Y296521D01*
X221369Y296646D01*
X221398Y296757D01*
X221435Y296853D01*
X221472Y296935D01*
X221502Y297001D01*
X221524Y297038D01*
X221531Y297053D01*
X221605Y297164D01*
X221694Y297260D01*
X221783Y297341D01*
X221871Y297415D01*
X221945Y297467D01*
X222012Y297511D01*
X222056Y297533D01*
X222064Y297541D01*
X222071D01*
X222204Y297600D01*
X222337Y297644D01*
X222470Y297681D01*
X222588Y297703D01*
X222684Y297718D01*
X222766Y297726D01*
X222950D01*
X223054Y297711D01*
D02*
G37*
G36*
X226535Y297600D02*
X226617Y297482D01*
X226713Y297363D01*
X226801Y297260D01*
X226890Y297171D01*
X226957Y297097D01*
X226986Y297075D01*
X227008Y297053D01*
X227016Y297046D01*
X227023Y297038D01*
X227178Y296912D01*
X227334Y296794D01*
X227481Y296691D01*
X227629Y296609D01*
X227755Y296536D01*
X227807Y296506D01*
X227851Y296484D01*
X227888Y296462D01*
X227917Y296454D01*
X227932Y296439D01*
X227940D01*
Y295833D01*
X227829Y295878D01*
X227718Y295930D01*
X227607Y295981D01*
X227504Y296033D01*
X227415Y296077D01*
X227341Y296114D01*
X227297Y296144D01*
X227289Y296151D01*
X227282D01*
X227149Y296232D01*
X227031Y296314D01*
X226927Y296388D01*
X226846Y296454D01*
X226772Y296506D01*
X226727Y296550D01*
X226691Y296580D01*
X226683Y296587D01*
Y292589D01*
X226055D01*
Y297726D01*
X226461D01*
X226535Y297600D01*
D02*
G37*
G36*
X232500Y292589D02*
X231820D01*
Y294909D01*
X229418D01*
Y295516D01*
X231820D01*
Y297097D01*
X229041D01*
Y297703D01*
X232500D01*
Y292589D01*
D02*
G37*
G36*
X192035Y212011D02*
X192117Y211893D01*
X192213Y211775D01*
X192301Y211671D01*
X192390Y211583D01*
X192457Y211509D01*
X192486Y211486D01*
X192508Y211464D01*
X192516Y211457D01*
X192523Y211450D01*
X192678Y211324D01*
X192833Y211206D01*
X192981Y211102D01*
X193129Y211021D01*
X193255Y210947D01*
X193307Y210917D01*
X193351Y210895D01*
X193388Y210873D01*
X193417Y210866D01*
X193432Y210851D01*
X193440D01*
Y210245D01*
X193329Y210289D01*
X193218Y210341D01*
X193107Y210392D01*
X193004Y210444D01*
X192915Y210489D01*
X192841Y210526D01*
X192797Y210555D01*
X192789Y210562D01*
X192782D01*
X192649Y210644D01*
X192530Y210725D01*
X192427Y210799D01*
X192346Y210866D01*
X192272Y210917D01*
X192227Y210962D01*
X192190Y210991D01*
X192183Y210999D01*
Y207000D01*
X191555D01*
Y212137D01*
X191961D01*
X192035Y212011D01*
D02*
G37*
G36*
X198000Y207000D02*
X197320D01*
Y209321D01*
X194918D01*
Y209927D01*
X197320D01*
Y211509D01*
X194541D01*
Y212115D01*
X198000D01*
Y207000D01*
D02*
G37*
G36*
X190158Y208803D02*
Y208227D01*
X187933D01*
Y207000D01*
X187305D01*
Y208227D01*
X186610D01*
Y208803D01*
X187305D01*
Y212115D01*
X187815D01*
X190158Y208803D01*
D02*
G37*
G36*
X191535Y125100D02*
X191617Y124982D01*
X191713Y124863D01*
X191801Y124760D01*
X191890Y124671D01*
X191957Y124597D01*
X191986Y124575D01*
X192008Y124553D01*
X192016Y124546D01*
X192023Y124538D01*
X192178Y124412D01*
X192334Y124294D01*
X192481Y124191D01*
X192629Y124109D01*
X192755Y124036D01*
X192807Y124006D01*
X192851Y123984D01*
X192888Y123962D01*
X192917Y123954D01*
X192932Y123940D01*
X192940D01*
Y123333D01*
X192829Y123378D01*
X192718Y123429D01*
X192607Y123481D01*
X192504Y123533D01*
X192415Y123577D01*
X192341Y123614D01*
X192297Y123644D01*
X192289Y123651D01*
X192282D01*
X192149Y123733D01*
X192031Y123814D01*
X191927Y123888D01*
X191846Y123954D01*
X191772Y124006D01*
X191728Y124050D01*
X191691Y124080D01*
X191683Y124087D01*
Y120089D01*
X191055D01*
Y125226D01*
X191461D01*
X191535Y125100D01*
D02*
G37*
G36*
X189333Y122506D02*
X188741Y122424D01*
X188690Y122506D01*
X188623Y122572D01*
X188564Y122639D01*
X188505Y122690D01*
X188446Y122727D01*
X188401Y122764D01*
X188372Y122779D01*
X188364Y122786D01*
X188268Y122831D01*
X188172Y122868D01*
X188083Y122890D01*
X187995Y122912D01*
X187921Y122920D01*
X187862Y122927D01*
X187721D01*
X187633Y122912D01*
X187477Y122875D01*
X187344Y122823D01*
X187226Y122772D01*
X187137Y122712D01*
X187071Y122661D01*
X187034Y122624D01*
X187019Y122616D01*
Y122609D01*
X186916Y122483D01*
X186842Y122350D01*
X186790Y122210D01*
X186753Y122070D01*
X186731Y121951D01*
X186723Y121899D01*
Y121855D01*
X186716Y121818D01*
Y121789D01*
Y121774D01*
Y121766D01*
Y121663D01*
X186731Y121567D01*
X186768Y121382D01*
X186820Y121227D01*
X186871Y121101D01*
X186930Y120998D01*
X186982Y120916D01*
X187004Y120894D01*
X187019Y120872D01*
X187027Y120865D01*
X187034Y120857D01*
X187093Y120798D01*
X187152Y120746D01*
X187285Y120658D01*
X187411Y120599D01*
X187537Y120562D01*
X187640Y120532D01*
X187729Y120525D01*
X187758Y120517D01*
X187803D01*
X187943Y120525D01*
X188069Y120554D01*
X188180Y120591D01*
X188268Y120635D01*
X188350Y120680D01*
X188409Y120717D01*
X188438Y120746D01*
X188453Y120754D01*
X188542Y120857D01*
X188616Y120968D01*
X188675Y121094D01*
X188719Y121205D01*
X188749Y121315D01*
X188771Y121397D01*
X188778Y121434D01*
X188786Y121456D01*
Y121471D01*
Y121478D01*
X189443Y121426D01*
X189429Y121308D01*
X189407Y121197D01*
X189340Y120990D01*
X189259Y120813D01*
X189214Y120732D01*
X189170Y120665D01*
X189133Y120599D01*
X189089Y120539D01*
X189052Y120495D01*
X189015Y120458D01*
X188985Y120429D01*
X188971Y120399D01*
X188956Y120392D01*
X188948Y120384D01*
X188860Y120318D01*
X188771Y120259D01*
X188675Y120207D01*
X188579Y120162D01*
X188394Y120096D01*
X188209Y120052D01*
X188128Y120029D01*
X188046Y120022D01*
X187980Y120015D01*
X187921Y120007D01*
X187869Y120000D01*
X187803D01*
X187647Y120007D01*
X187500Y120029D01*
X187359Y120059D01*
X187234Y120096D01*
X187115Y120148D01*
X187004Y120199D01*
X186901Y120251D01*
X186812Y120310D01*
X186731Y120369D01*
X186657Y120421D01*
X186598Y120480D01*
X186546Y120525D01*
X186509Y120562D01*
X186480Y120591D01*
X186465Y120613D01*
X186457Y120621D01*
X186383Y120717D01*
X186324Y120820D01*
X186265Y120916D01*
X186221Y121020D01*
X186147Y121219D01*
X186103Y121412D01*
X186088Y121493D01*
X186073Y121574D01*
X186066Y121641D01*
X186058Y121700D01*
X186051Y121752D01*
Y121789D01*
Y121811D01*
Y121818D01*
X186058Y121951D01*
X186073Y122077D01*
X186095Y122203D01*
X186125Y122313D01*
X186162Y122417D01*
X186199Y122520D01*
X186243Y122609D01*
X186280Y122690D01*
X186324Y122764D01*
X186369Y122831D01*
X186406Y122882D01*
X186443Y122934D01*
X186472Y122971D01*
X186494Y122993D01*
X186509Y123008D01*
X186516Y123016D01*
X186605Y123097D01*
X186694Y123171D01*
X186790Y123230D01*
X186886Y123282D01*
X186982Y123333D01*
X187078Y123370D01*
X187256Y123422D01*
X187337Y123444D01*
X187411Y123459D01*
X187477Y123466D01*
X187537Y123474D01*
X187581Y123481D01*
X187743D01*
X187832Y123466D01*
X188010Y123429D01*
X188172Y123378D01*
X188320Y123319D01*
X188438Y123259D01*
X188490Y123230D01*
X188534Y123208D01*
X188571Y123186D01*
X188594Y123171D01*
X188608Y123163D01*
X188616Y123156D01*
X188342Y124538D01*
X186295D01*
Y125137D01*
X188837D01*
X189333Y122506D01*
D02*
G37*
G36*
X197500Y120089D02*
X196820D01*
Y122409D01*
X194418D01*
Y123016D01*
X196820D01*
Y124597D01*
X194041D01*
Y125203D01*
X197500D01*
Y120089D01*
D02*
G37*
G36*
X624924Y94493D02*
X625057Y94485D01*
X625182Y94470D01*
X625293Y94456D01*
X625397Y94441D01*
X625493Y94419D01*
X625582Y94404D01*
X625663Y94389D01*
X625729Y94367D01*
X625788Y94352D01*
X625833Y94337D01*
X625870Y94323D01*
X625899Y94315D01*
X625914Y94308D01*
X625922D01*
X626084Y94227D01*
X626232Y94123D01*
X626350Y94019D01*
X626454Y93909D01*
X626535Y93813D01*
X626594Y93731D01*
X626609Y93702D01*
X626624Y93680D01*
X626638Y93665D01*
Y93657D01*
X626720Y93473D01*
X626779Y93280D01*
X626823Y93081D01*
X626853Y92896D01*
X626860Y92815D01*
X626868Y92733D01*
X626875Y92660D01*
Y92600D01*
X626882Y92549D01*
Y92482D01*
X626868Y92216D01*
X626853Y92098D01*
X626838Y91987D01*
X626816Y91876D01*
X626794Y91780D01*
X626772Y91691D01*
X626742Y91610D01*
X626712Y91536D01*
X626690Y91477D01*
X626668Y91418D01*
X626646Y91373D01*
X626624Y91336D01*
X626616Y91314D01*
X626602Y91299D01*
Y91292D01*
X626491Y91130D01*
X626365Y90997D01*
X626247Y90893D01*
X626129Y90804D01*
X626025Y90738D01*
X625944Y90693D01*
X625914Y90679D01*
X625892Y90664D01*
X625877Y90656D01*
X625870D01*
X625781Y90627D01*
X625685Y90597D01*
X625485Y90553D01*
X625279Y90523D01*
X625079Y90501D01*
X624990Y90494D01*
X624902Y90486D01*
X624828D01*
X624761Y90479D01*
X624709D01*
X624672D01*
X624643D01*
X624636D01*
X621679D01*
Y91159D01*
X624636D01*
X624805D01*
X624968Y91174D01*
X625108Y91189D01*
X625242Y91211D01*
X625360Y91233D01*
X625471Y91263D01*
X625567Y91285D01*
X625648Y91314D01*
X625715Y91344D01*
X625781Y91373D01*
X625826Y91403D01*
X625870Y91425D01*
X625899Y91447D01*
X625922Y91462D01*
X625929Y91469D01*
X625936Y91477D01*
X625995Y91543D01*
X626047Y91617D01*
X626129Y91780D01*
X626188Y91950D01*
X626225Y92127D01*
X626254Y92290D01*
X626262Y92357D01*
Y92423D01*
X626269Y92467D01*
Y92541D01*
X626262Y92697D01*
X626239Y92837D01*
X626217Y92970D01*
X626180Y93073D01*
X626151Y93162D01*
X626129Y93229D01*
X626106Y93266D01*
X626099Y93280D01*
X626032Y93384D01*
X625951Y93473D01*
X625870Y93546D01*
X625796Y93598D01*
X625722Y93643D01*
X625670Y93680D01*
X625633Y93694D01*
X625619Y93702D01*
X625552Y93724D01*
X625485Y93739D01*
X625330Y93768D01*
X625168Y93790D01*
X625005Y93805D01*
X624865Y93813D01*
X624798D01*
X624746Y93820D01*
X624702D01*
X624665D01*
X624643D01*
X624636D01*
X621679D01*
Y94500D01*
X624636D01*
X624783D01*
X624924Y94493D01*
D02*
G37*
G36*
X625567Y87596D02*
X626794D01*
Y86968D01*
X625567D01*
Y86273D01*
X624990D01*
Y86968D01*
X621679D01*
Y87478D01*
X624990Y89821D01*
X625567D01*
Y87596D01*
D02*
G37*
G36*
X454924Y419993D02*
X455057Y419985D01*
X455182Y419970D01*
X455293Y419956D01*
X455397Y419941D01*
X455493Y419919D01*
X455582Y419904D01*
X455663Y419889D01*
X455729Y419867D01*
X455788Y419852D01*
X455833Y419837D01*
X455870Y419823D01*
X455899Y419815D01*
X455914Y419808D01*
X455922D01*
X456084Y419726D01*
X456232Y419623D01*
X456350Y419520D01*
X456454Y419409D01*
X456535Y419313D01*
X456594Y419231D01*
X456609Y419202D01*
X456624Y419180D01*
X456638Y419165D01*
Y419157D01*
X456720Y418973D01*
X456779Y418780D01*
X456823Y418581D01*
X456853Y418396D01*
X456860Y418315D01*
X456868Y418233D01*
X456875Y418159D01*
Y418100D01*
X456882Y418049D01*
Y417982D01*
X456868Y417716D01*
X456853Y417598D01*
X456838Y417487D01*
X456816Y417376D01*
X456794Y417280D01*
X456772Y417191D01*
X456742Y417110D01*
X456712Y417036D01*
X456690Y416977D01*
X456668Y416918D01*
X456646Y416873D01*
X456624Y416837D01*
X456616Y416814D01*
X456602Y416800D01*
Y416792D01*
X456491Y416629D01*
X456365Y416497D01*
X456247Y416393D01*
X456129Y416304D01*
X456025Y416238D01*
X455944Y416193D01*
X455914Y416179D01*
X455892Y416164D01*
X455877Y416157D01*
X455870D01*
X455781Y416127D01*
X455685Y416097D01*
X455485Y416053D01*
X455279Y416023D01*
X455079Y416001D01*
X454990Y415994D01*
X454902Y415987D01*
X454828D01*
X454761Y415979D01*
X454709D01*
X454672D01*
X454643D01*
X454636D01*
X451679D01*
Y416659D01*
X454636D01*
X454805D01*
X454968Y416674D01*
X455108Y416689D01*
X455242Y416711D01*
X455360Y416733D01*
X455471Y416763D01*
X455567Y416785D01*
X455648Y416814D01*
X455715Y416844D01*
X455781Y416873D01*
X455826Y416903D01*
X455870Y416925D01*
X455899Y416947D01*
X455922Y416962D01*
X455929Y416969D01*
X455936Y416977D01*
X455995Y417043D01*
X456047Y417117D01*
X456129Y417280D01*
X456188Y417450D01*
X456225Y417627D01*
X456254Y417790D01*
X456262Y417856D01*
Y417923D01*
X456269Y417967D01*
Y418041D01*
X456262Y418196D01*
X456239Y418337D01*
X456217Y418470D01*
X456180Y418573D01*
X456151Y418662D01*
X456129Y418729D01*
X456106Y418766D01*
X456099Y418780D01*
X456032Y418884D01*
X455951Y418973D01*
X455870Y419047D01*
X455796Y419098D01*
X455722Y419143D01*
X455670Y419180D01*
X455633Y419194D01*
X455619Y419202D01*
X455552Y419224D01*
X455485Y419239D01*
X455330Y419268D01*
X455168Y419290D01*
X455005Y419305D01*
X454865Y419313D01*
X454798D01*
X454746Y419320D01*
X454702D01*
X454665D01*
X454643D01*
X454636D01*
X451679D01*
Y420000D01*
X454636D01*
X454783D01*
X454924Y419993D01*
D02*
G37*
G36*
X455574Y415092D02*
X455685Y415070D01*
X455892Y415003D01*
X456069Y414922D01*
X456151Y414878D01*
X456217Y414833D01*
X456284Y414796D01*
X456343Y414752D01*
X456387Y414715D01*
X456424Y414678D01*
X456454Y414649D01*
X456483Y414634D01*
X456491Y414619D01*
X456498Y414612D01*
X456565Y414523D01*
X456624Y414434D01*
X456675Y414338D01*
X456720Y414242D01*
X456786Y414057D01*
X456831Y413872D01*
X456853Y413791D01*
X456860Y413710D01*
X456868Y413643D01*
X456875Y413584D01*
X456882Y413532D01*
Y413466D01*
X456875Y413311D01*
X456853Y413163D01*
X456823Y413022D01*
X456786Y412897D01*
X456735Y412779D01*
X456683Y412668D01*
X456631Y412564D01*
X456572Y412476D01*
X456513Y412394D01*
X456461Y412320D01*
X456402Y412261D01*
X456358Y412210D01*
X456321Y412173D01*
X456291Y412143D01*
X456269Y412128D01*
X456262Y412121D01*
X456166Y412047D01*
X456062Y411988D01*
X455966Y411929D01*
X455862Y411884D01*
X455663Y411810D01*
X455471Y411766D01*
X455389Y411751D01*
X455308Y411736D01*
X455242Y411729D01*
X455182Y411722D01*
X455131Y411714D01*
X455094D01*
X455072D01*
X455064D01*
X454931Y411722D01*
X454805Y411736D01*
X454680Y411759D01*
X454569Y411788D01*
X454465Y411825D01*
X454362Y411862D01*
X454273Y411906D01*
X454192Y411943D01*
X454118Y411988D01*
X454052Y412032D01*
X454000Y412069D01*
X453948Y412106D01*
X453911Y412136D01*
X453889Y412158D01*
X453874Y412173D01*
X453867Y412180D01*
X453786Y412269D01*
X453712Y412357D01*
X453652Y412453D01*
X453601Y412550D01*
X453549Y412646D01*
X453512Y412742D01*
X453460Y412919D01*
X453438Y413000D01*
X453423Y413074D01*
X453416Y413141D01*
X453409Y413200D01*
X453401Y413244D01*
Y413407D01*
X453416Y413496D01*
X453453Y413673D01*
X453505Y413836D01*
X453564Y413983D01*
X453623Y414102D01*
X453652Y414153D01*
X453675Y414198D01*
X453697Y414235D01*
X453712Y414257D01*
X453719Y414272D01*
X453726Y414279D01*
X452344Y414006D01*
Y411958D01*
X451745D01*
Y414501D01*
X454377Y414996D01*
X454458Y414405D01*
X454377Y414353D01*
X454310Y414286D01*
X454244Y414227D01*
X454192Y414168D01*
X454155Y414109D01*
X454118Y414065D01*
X454103Y414035D01*
X454096Y414028D01*
X454052Y413932D01*
X454015Y413836D01*
X453992Y413747D01*
X453970Y413658D01*
X453963Y413584D01*
X453955Y413525D01*
Y413385D01*
X453970Y413296D01*
X454007Y413141D01*
X454059Y413008D01*
X454111Y412890D01*
X454170Y412801D01*
X454221Y412734D01*
X454258Y412697D01*
X454266Y412682D01*
X454273D01*
X454399Y412579D01*
X454532Y412505D01*
X454672Y412453D01*
X454813Y412416D01*
X454931Y412394D01*
X454983Y412387D01*
X455027D01*
X455064Y412379D01*
X455094D01*
X455108D01*
X455116D01*
X455219D01*
X455316Y412394D01*
X455500Y412431D01*
X455656Y412483D01*
X455781Y412535D01*
X455885Y412594D01*
X455966Y412646D01*
X455988Y412668D01*
X456010Y412682D01*
X456018Y412690D01*
X456025Y412697D01*
X456084Y412756D01*
X456136Y412816D01*
X456225Y412949D01*
X456284Y413074D01*
X456321Y413200D01*
X456350Y413303D01*
X456358Y413392D01*
X456365Y413422D01*
Y413466D01*
X456358Y413606D01*
X456328Y413732D01*
X456291Y413843D01*
X456247Y413932D01*
X456202Y414013D01*
X456166Y414072D01*
X456136Y414102D01*
X456129Y414116D01*
X456025Y414205D01*
X455914Y414279D01*
X455788Y414338D01*
X455678Y414383D01*
X455567Y414412D01*
X455485Y414434D01*
X455448Y414442D01*
X455426Y414449D01*
X455412D01*
X455404D01*
X455456Y415107D01*
X455574Y415092D01*
D02*
G37*
G36*
X622424Y419993D02*
X622557Y419985D01*
X622682Y419970D01*
X622793Y419956D01*
X622897Y419941D01*
X622993Y419919D01*
X623082Y419904D01*
X623163Y419889D01*
X623229Y419867D01*
X623288Y419852D01*
X623333Y419837D01*
X623370Y419823D01*
X623399Y419815D01*
X623414Y419808D01*
X623422D01*
X623584Y419726D01*
X623732Y419623D01*
X623850Y419520D01*
X623954Y419409D01*
X624035Y419313D01*
X624094Y419231D01*
X624109Y419202D01*
X624124Y419180D01*
X624138Y419165D01*
Y419157D01*
X624220Y418973D01*
X624279Y418780D01*
X624323Y418581D01*
X624353Y418396D01*
X624360Y418315D01*
X624368Y418233D01*
X624375Y418159D01*
Y418100D01*
X624382Y418049D01*
Y417982D01*
X624368Y417716D01*
X624353Y417598D01*
X624338Y417487D01*
X624316Y417376D01*
X624294Y417280D01*
X624272Y417191D01*
X624242Y417110D01*
X624212Y417036D01*
X624190Y416977D01*
X624168Y416918D01*
X624146Y416873D01*
X624124Y416837D01*
X624116Y416814D01*
X624102Y416800D01*
Y416792D01*
X623991Y416629D01*
X623865Y416497D01*
X623747Y416393D01*
X623629Y416304D01*
X623525Y416238D01*
X623444Y416193D01*
X623414Y416179D01*
X623392Y416164D01*
X623377Y416157D01*
X623370D01*
X623281Y416127D01*
X623185Y416097D01*
X622985Y416053D01*
X622779Y416023D01*
X622579Y416001D01*
X622490Y415994D01*
X622402Y415987D01*
X622328D01*
X622261Y415979D01*
X622209D01*
X622172D01*
X622143D01*
X622136D01*
X619179D01*
Y416659D01*
X622136D01*
X622305D01*
X622468Y416674D01*
X622608Y416689D01*
X622742Y416711D01*
X622860Y416733D01*
X622971Y416763D01*
X623067Y416785D01*
X623148Y416814D01*
X623215Y416844D01*
X623281Y416873D01*
X623326Y416903D01*
X623370Y416925D01*
X623399Y416947D01*
X623422Y416962D01*
X623429Y416969D01*
X623436Y416977D01*
X623495Y417043D01*
X623547Y417117D01*
X623629Y417280D01*
X623688Y417450D01*
X623725Y417627D01*
X623754Y417790D01*
X623762Y417856D01*
Y417923D01*
X623769Y417967D01*
Y418041D01*
X623762Y418196D01*
X623739Y418337D01*
X623717Y418470D01*
X623680Y418573D01*
X623651Y418662D01*
X623629Y418729D01*
X623606Y418766D01*
X623599Y418780D01*
X623532Y418884D01*
X623451Y418973D01*
X623370Y419047D01*
X623296Y419098D01*
X623222Y419143D01*
X623170Y419180D01*
X623133Y419194D01*
X623119Y419202D01*
X623052Y419224D01*
X622985Y419239D01*
X622830Y419268D01*
X622668Y419290D01*
X622505Y419305D01*
X622365Y419313D01*
X622298D01*
X622246Y419320D01*
X622202D01*
X622165D01*
X622143D01*
X622136D01*
X619179D01*
Y420000D01*
X622136D01*
X622283D01*
X622424Y419993D01*
D02*
G37*
G36*
X622941Y415107D02*
X623059Y415092D01*
X623170Y415070D01*
X623281Y415040D01*
X623466Y414967D01*
X623555Y414930D01*
X623629Y414885D01*
X623702Y414841D01*
X623762Y414804D01*
X623813Y414759D01*
X623858Y414730D01*
X623895Y414700D01*
X623917Y414678D01*
X623932Y414663D01*
X623939Y414656D01*
X624020Y414567D01*
X624087Y414471D01*
X624146Y414368D01*
X624198Y414264D01*
X624235Y414168D01*
X624272Y414065D01*
X624323Y413865D01*
X624346Y413776D01*
X624360Y413695D01*
X624368Y413621D01*
X624375Y413555D01*
X624382Y413503D01*
Y413429D01*
X624375Y413289D01*
X624360Y413163D01*
X624338Y413037D01*
X624316Y412919D01*
X624279Y412816D01*
X624242Y412712D01*
X624205Y412616D01*
X624161Y412535D01*
X624116Y412461D01*
X624079Y412394D01*
X624042Y412342D01*
X624006Y412291D01*
X623983Y412254D01*
X623961Y412232D01*
X623946Y412217D01*
X623939Y412210D01*
X623850Y412128D01*
X623762Y412054D01*
X623673Y411995D01*
X623577Y411943D01*
X623488Y411892D01*
X623392Y411855D01*
X623222Y411803D01*
X623141Y411781D01*
X623067Y411766D01*
X623000Y411759D01*
X622948Y411751D01*
X622904Y411744D01*
X622867D01*
X622845D01*
X622838D01*
X622668Y411751D01*
X622512Y411781D01*
X622372Y411825D01*
X622254Y411870D01*
X622158Y411914D01*
X622084Y411958D01*
X622039Y411988D01*
X622032Y411995D01*
X622025D01*
X621906Y412099D01*
X621803Y412210D01*
X621721Y412328D01*
X621648Y412439D01*
X621596Y412542D01*
X621559Y412631D01*
X621544Y412660D01*
X621537Y412682D01*
X621529Y412697D01*
Y412705D01*
X621470Y412572D01*
X621404Y412461D01*
X621337Y412365D01*
X621271Y412283D01*
X621212Y412224D01*
X621167Y412180D01*
X621138Y412150D01*
X621123Y412143D01*
X621019Y412076D01*
X620916Y412032D01*
X620812Y411995D01*
X620709Y411973D01*
X620628Y411958D01*
X620561Y411951D01*
X620517D01*
X620509D01*
X620502D01*
X620398Y411958D01*
X620302Y411965D01*
X620118Y412017D01*
X619955Y412084D01*
X619815Y412158D01*
X619704Y412232D01*
X619659Y412269D01*
X619615Y412298D01*
X619585Y412328D01*
X619563Y412350D01*
X619556Y412357D01*
X619548Y412365D01*
X619482Y412446D01*
X619415Y412527D01*
X619364Y412616D01*
X619319Y412705D01*
X619253Y412882D01*
X619208Y413060D01*
X619186Y413133D01*
X619179Y413207D01*
X619171Y413274D01*
X619164Y413333D01*
X619157Y413377D01*
Y413444D01*
X619164Y413562D01*
X619171Y413680D01*
X619216Y413887D01*
X619245Y413983D01*
X619275Y414072D01*
X619312Y414153D01*
X619349Y414227D01*
X619386Y414286D01*
X619423Y414346D01*
X619452Y414397D01*
X619482Y414434D01*
X619504Y414464D01*
X619526Y414486D01*
X619534Y414501D01*
X619541Y414508D01*
X619615Y414575D01*
X619689Y414641D01*
X619770Y414693D01*
X619851Y414737D01*
X620007Y414811D01*
X620155Y414856D01*
X620280Y414885D01*
X620339Y414893D01*
X620384Y414900D01*
X620428Y414907D01*
X620458D01*
X620472D01*
X620480D01*
X620613Y414900D01*
X620738Y414878D01*
X620849Y414848D01*
X620945Y414811D01*
X621019Y414782D01*
X621078Y414752D01*
X621108Y414730D01*
X621123Y414723D01*
X621212Y414641D01*
X621293Y414552D01*
X621367Y414456D01*
X621426Y414360D01*
X621470Y414272D01*
X621500Y414205D01*
X621515Y414176D01*
X621522Y414153D01*
X621529Y414146D01*
Y414139D01*
X621581Y414309D01*
X621648Y414449D01*
X621729Y414575D01*
X621803Y414678D01*
X621877Y414759D01*
X621936Y414819D01*
X621973Y414848D01*
X621980Y414863D01*
X621988D01*
X622121Y414944D01*
X622261Y415011D01*
X622394Y415055D01*
X622527Y415085D01*
X622645Y415099D01*
X622697Y415107D01*
X622742D01*
X622771Y415114D01*
X622801D01*
X622816D01*
X622823D01*
X622941Y415107D01*
D02*
G37*
G36*
X622424Y334993D02*
X622557Y334985D01*
X622682Y334970D01*
X622793Y334956D01*
X622897Y334941D01*
X622993Y334919D01*
X623082Y334904D01*
X623163Y334889D01*
X623229Y334867D01*
X623288Y334852D01*
X623333Y334837D01*
X623370Y334823D01*
X623399Y334815D01*
X623414Y334808D01*
X623422D01*
X623584Y334726D01*
X623732Y334623D01*
X623850Y334520D01*
X623954Y334409D01*
X624035Y334313D01*
X624094Y334231D01*
X624109Y334202D01*
X624124Y334179D01*
X624138Y334165D01*
Y334157D01*
X624220Y333973D01*
X624279Y333780D01*
X624323Y333581D01*
X624353Y333396D01*
X624360Y333315D01*
X624368Y333233D01*
X624375Y333159D01*
Y333100D01*
X624382Y333049D01*
Y332982D01*
X624368Y332716D01*
X624353Y332598D01*
X624338Y332487D01*
X624316Y332376D01*
X624294Y332280D01*
X624272Y332191D01*
X624242Y332110D01*
X624212Y332036D01*
X624190Y331977D01*
X624168Y331918D01*
X624146Y331873D01*
X624124Y331837D01*
X624116Y331814D01*
X624102Y331800D01*
Y331792D01*
X623991Y331629D01*
X623865Y331497D01*
X623747Y331393D01*
X623629Y331304D01*
X623525Y331238D01*
X623444Y331193D01*
X623414Y331179D01*
X623392Y331164D01*
X623377Y331157D01*
X623370D01*
X623281Y331127D01*
X623185Y331097D01*
X622985Y331053D01*
X622779Y331023D01*
X622579Y331001D01*
X622490Y330994D01*
X622402Y330987D01*
X622328D01*
X622261Y330979D01*
X622209D01*
X622172D01*
X622143D01*
X622136D01*
X619179D01*
Y331659D01*
X622136D01*
X622305D01*
X622468Y331674D01*
X622608Y331689D01*
X622742Y331711D01*
X622860Y331733D01*
X622971Y331763D01*
X623067Y331785D01*
X623148Y331814D01*
X623215Y331844D01*
X623281Y331873D01*
X623326Y331903D01*
X623370Y331925D01*
X623399Y331947D01*
X623422Y331962D01*
X623429Y331969D01*
X623436Y331977D01*
X623495Y332043D01*
X623547Y332117D01*
X623629Y332280D01*
X623688Y332450D01*
X623725Y332627D01*
X623754Y332790D01*
X623762Y332856D01*
Y332923D01*
X623769Y332967D01*
Y333041D01*
X623762Y333196D01*
X623739Y333337D01*
X623717Y333470D01*
X623680Y333573D01*
X623651Y333662D01*
X623629Y333729D01*
X623606Y333766D01*
X623599Y333780D01*
X623532Y333884D01*
X623451Y333973D01*
X623370Y334047D01*
X623296Y334098D01*
X623222Y334143D01*
X623170Y334179D01*
X623133Y334194D01*
X623119Y334202D01*
X623052Y334224D01*
X622985Y334239D01*
X622830Y334268D01*
X622668Y334290D01*
X622505Y334305D01*
X622365Y334313D01*
X622298D01*
X622246Y334320D01*
X622202D01*
X622165D01*
X622143D01*
X622136D01*
X619179D01*
Y335000D01*
X622136D01*
X622283D01*
X622424Y334993D01*
D02*
G37*
G36*
X621027Y330099D02*
X621152Y330085D01*
X621278Y330070D01*
X621396Y330040D01*
X621500Y330003D01*
X621603Y329966D01*
X621692Y329930D01*
X621773Y329885D01*
X621847Y329848D01*
X621914Y329811D01*
X621965Y329774D01*
X622017Y329737D01*
X622054Y329708D01*
X622076Y329693D01*
X622091Y329678D01*
X622099Y329671D01*
X622180Y329590D01*
X622246Y329501D01*
X622313Y329412D01*
X622365Y329316D01*
X622409Y329227D01*
X622446Y329139D01*
X622498Y328969D01*
X622520Y328895D01*
X622535Y328821D01*
X622542Y328762D01*
X622549Y328703D01*
X622557Y328658D01*
Y328599D01*
X622549Y328459D01*
X622527Y328326D01*
X622498Y328207D01*
X622461Y328096D01*
X622431Y328015D01*
X622402Y327949D01*
X622379Y327904D01*
X622372Y327890D01*
X622298Y327771D01*
X622217Y327668D01*
X622136Y327579D01*
X622062Y327505D01*
X621988Y327453D01*
X621936Y327409D01*
X621899Y327379D01*
X621884Y327372D01*
X621943D01*
X621980D01*
X622002D01*
X622010D01*
X622158Y327379D01*
X622298Y327387D01*
X622424Y327402D01*
X622542Y327416D01*
X622638Y327439D01*
X622712Y327453D01*
X622742Y327461D01*
X622764D01*
X622771Y327468D01*
X622779D01*
X622912Y327505D01*
X623030Y327542D01*
X623133Y327579D01*
X623222Y327616D01*
X623288Y327645D01*
X623340Y327675D01*
X623377Y327690D01*
X623385Y327697D01*
X623466Y327756D01*
X623532Y327816D01*
X623592Y327875D01*
X623643Y327934D01*
X623688Y327978D01*
X623717Y328022D01*
X623732Y328052D01*
X623739Y328060D01*
X623784Y328141D01*
X623813Y328229D01*
X623835Y328311D01*
X623850Y328392D01*
X623858Y328459D01*
X623865Y328510D01*
Y328562D01*
X623858Y328680D01*
X623835Y328791D01*
X623806Y328887D01*
X623769Y328969D01*
X623739Y329028D01*
X623710Y329080D01*
X623688Y329109D01*
X623680Y329116D01*
X623599Y329190D01*
X623503Y329249D01*
X623399Y329301D01*
X623296Y329338D01*
X623207Y329368D01*
X623126Y329390D01*
X623096Y329397D01*
X623082D01*
X623067Y329405D01*
X623059D01*
X623111Y330011D01*
X623326Y329966D01*
X623510Y329907D01*
X623673Y329833D01*
X623806Y329759D01*
X623909Y329686D01*
X623954Y329649D01*
X623991Y329619D01*
X624013Y329597D01*
X624035Y329575D01*
X624042Y329567D01*
X624050Y329560D01*
X624109Y329486D01*
X624161Y329405D01*
X624242Y329242D01*
X624301Y329080D01*
X624338Y328924D01*
X624368Y328784D01*
X624375Y328725D01*
Y328673D01*
X624382Y328636D01*
Y328577D01*
X624368Y328370D01*
X624338Y328185D01*
X624286Y328015D01*
X624227Y327875D01*
X624205Y327816D01*
X624175Y327756D01*
X624146Y327712D01*
X624124Y327668D01*
X624109Y327638D01*
X624094Y327616D01*
X624079Y327601D01*
Y327594D01*
X623954Y327446D01*
X623813Y327313D01*
X623666Y327210D01*
X623525Y327121D01*
X623399Y327047D01*
X623340Y327017D01*
X623296Y326995D01*
X623252Y326980D01*
X623222Y326965D01*
X623207Y326958D01*
X623200D01*
X623089Y326921D01*
X622963Y326884D01*
X622712Y326833D01*
X622446Y326796D01*
X622195Y326773D01*
X622084Y326759D01*
X621973Y326751D01*
X621877D01*
X621796Y326744D01*
X621729D01*
X621677D01*
X621640D01*
X621633D01*
X621463D01*
X621300Y326751D01*
X621152Y326766D01*
X621012Y326781D01*
X620886Y326796D01*
X620768Y326810D01*
X620657Y326833D01*
X620561Y326855D01*
X620480Y326877D01*
X620406Y326892D01*
X620339Y326914D01*
X620288Y326929D01*
X620251Y326943D01*
X620221Y326958D01*
X620206Y326965D01*
X620199D01*
X620022Y327054D01*
X619866Y327150D01*
X619733Y327261D01*
X619622Y327357D01*
X619541Y327453D01*
X619482Y327527D01*
X619460Y327557D01*
X619445Y327579D01*
X619430Y327586D01*
Y327594D01*
X619342Y327749D01*
X619275Y327904D01*
X619223Y328060D01*
X619194Y328200D01*
X619171Y328326D01*
X619164Y328377D01*
Y328414D01*
X619157Y328451D01*
Y328503D01*
X619164Y328629D01*
X619179Y328747D01*
X619201Y328865D01*
X619231Y328969D01*
X619312Y329168D01*
X619349Y329257D01*
X619393Y329331D01*
X619445Y329405D01*
X619482Y329464D01*
X619526Y329523D01*
X619563Y329567D01*
X619593Y329604D01*
X619615Y329626D01*
X619630Y329641D01*
X619637Y329649D01*
X619726Y329730D01*
X619829Y329796D01*
X619925Y329863D01*
X620029Y329915D01*
X620140Y329959D01*
X620243Y329996D01*
X620435Y330048D01*
X620532Y330070D01*
X620613Y330085D01*
X620694Y330092D01*
X620761Y330099D01*
X620812Y330107D01*
X620849D01*
X620879D01*
X620886D01*
X621027Y330099D01*
D02*
G37*
G36*
X622924Y252993D02*
X623057Y252985D01*
X623182Y252970D01*
X623293Y252956D01*
X623397Y252941D01*
X623493Y252919D01*
X623582Y252904D01*
X623663Y252889D01*
X623729Y252867D01*
X623788Y252852D01*
X623833Y252837D01*
X623870Y252823D01*
X623899Y252815D01*
X623914Y252808D01*
X623922D01*
X624084Y252726D01*
X624232Y252623D01*
X624350Y252520D01*
X624454Y252409D01*
X624535Y252313D01*
X624594Y252231D01*
X624609Y252202D01*
X624624Y252180D01*
X624638Y252165D01*
Y252157D01*
X624720Y251973D01*
X624779Y251780D01*
X624823Y251581D01*
X624853Y251396D01*
X624860Y251315D01*
X624868Y251234D01*
X624875Y251159D01*
Y251100D01*
X624882Y251049D01*
Y250982D01*
X624868Y250716D01*
X624853Y250598D01*
X624838Y250487D01*
X624816Y250376D01*
X624794Y250280D01*
X624772Y250191D01*
X624742Y250110D01*
X624712Y250036D01*
X624690Y249977D01*
X624668Y249918D01*
X624646Y249873D01*
X624624Y249837D01*
X624616Y249814D01*
X624602Y249799D01*
Y249792D01*
X624491Y249629D01*
X624365Y249496D01*
X624247Y249393D01*
X624128Y249304D01*
X624025Y249238D01*
X623944Y249193D01*
X623914Y249179D01*
X623892Y249164D01*
X623877Y249156D01*
X623870D01*
X623781Y249127D01*
X623685Y249097D01*
X623485Y249053D01*
X623279Y249023D01*
X623079Y249001D01*
X622990Y248994D01*
X622901Y248986D01*
X622828D01*
X622761Y248979D01*
X622709D01*
X622672D01*
X622643D01*
X622635D01*
X619679D01*
Y249659D01*
X622635D01*
X622805D01*
X622968Y249674D01*
X623108Y249689D01*
X623242Y249711D01*
X623360Y249733D01*
X623471Y249763D01*
X623567Y249785D01*
X623648Y249814D01*
X623715Y249844D01*
X623781Y249873D01*
X623825Y249903D01*
X623870Y249925D01*
X623899Y249947D01*
X623922Y249962D01*
X623929Y249970D01*
X623936Y249977D01*
X623996Y250043D01*
X624047Y250117D01*
X624128Y250280D01*
X624188Y250450D01*
X624225Y250627D01*
X624254Y250790D01*
X624262Y250856D01*
Y250923D01*
X624269Y250967D01*
Y251041D01*
X624262Y251196D01*
X624239Y251337D01*
X624217Y251470D01*
X624180Y251574D01*
X624151Y251662D01*
X624128Y251729D01*
X624106Y251766D01*
X624099Y251780D01*
X624032Y251884D01*
X623951Y251973D01*
X623870Y252047D01*
X623796Y252098D01*
X623722Y252143D01*
X623670Y252180D01*
X623633Y252194D01*
X623619Y252202D01*
X623552Y252224D01*
X623485Y252239D01*
X623330Y252268D01*
X623168Y252290D01*
X623005Y252305D01*
X622865Y252313D01*
X622798D01*
X622746Y252320D01*
X622702D01*
X622665D01*
X622643D01*
X622635D01*
X619679D01*
Y253000D01*
X622635D01*
X622783D01*
X622924Y252993D01*
D02*
G37*
G36*
X621505Y247516D02*
X621453Y247405D01*
X621401Y247294D01*
X621349Y247190D01*
X621305Y247102D01*
X621268Y247028D01*
X621239Y246983D01*
X621231Y246976D01*
Y246969D01*
X621150Y246836D01*
X621068Y246717D01*
X620995Y246614D01*
X620928Y246532D01*
X620876Y246459D01*
X620832Y246414D01*
X620802Y246377D01*
X620795Y246370D01*
X624794D01*
Y245742D01*
X619657D01*
Y246148D01*
X619782Y246222D01*
X619901Y246303D01*
X620019Y246399D01*
X620122Y246488D01*
X620211Y246577D01*
X620285Y246643D01*
X620307Y246673D01*
X620329Y246695D01*
X620337Y246702D01*
X620344Y246710D01*
X620470Y246865D01*
X620588Y247020D01*
X620691Y247168D01*
X620773Y247316D01*
X620847Y247442D01*
X620876Y247493D01*
X620899Y247538D01*
X620921Y247575D01*
X620928Y247604D01*
X620943Y247619D01*
Y247626D01*
X621549D01*
X621505Y247516D01*
D02*
G37*
G36*
X622532Y244123D02*
X622776Y244108D01*
X622998Y244086D01*
X623205Y244049D01*
X623397Y244012D01*
X623567Y243968D01*
X623722Y243923D01*
X623855Y243879D01*
X623973Y243835D01*
X624077Y243783D01*
X624165Y243746D01*
X624232Y243709D01*
X624291Y243672D01*
X624328Y243650D01*
X624350Y243635D01*
X624358Y243628D01*
X624446Y243546D01*
X624528Y243458D01*
X624602Y243362D01*
X624661Y243265D01*
X624712Y243169D01*
X624757Y243073D01*
X624786Y242977D01*
X624816Y242889D01*
X624838Y242800D01*
X624853Y242719D01*
X624868Y242645D01*
X624875Y242586D01*
X624882Y242534D01*
Y242460D01*
X624868Y242260D01*
X624838Y242076D01*
X624786Y241920D01*
X624735Y241787D01*
X624683Y241676D01*
X624653Y241639D01*
X624631Y241602D01*
X624616Y241573D01*
X624602Y241551D01*
X624587Y241543D01*
Y241536D01*
X624461Y241403D01*
X624328Y241292D01*
X624180Y241196D01*
X624047Y241122D01*
X623922Y241063D01*
X623870Y241033D01*
X623818Y241019D01*
X623781Y241004D01*
X623752Y240989D01*
X623737Y240982D01*
X623729D01*
X623619Y240945D01*
X623508Y240915D01*
X623271Y240871D01*
X623027Y240834D01*
X622791Y240812D01*
X622687Y240804D01*
X622591Y240797D01*
X622502D01*
X622421Y240789D01*
X622362D01*
X622310D01*
X622281D01*
X622273D01*
X622133D01*
X622000Y240797D01*
X621881D01*
X621763Y240804D01*
X621660Y240819D01*
X621556Y240826D01*
X621468Y240834D01*
X621386Y240849D01*
X621312Y240856D01*
X621246Y240871D01*
X621194Y240878D01*
X621150Y240886D01*
X621113Y240893D01*
X621091Y240900D01*
X621076Y240908D01*
X621068D01*
X620906Y240952D01*
X620758Y241004D01*
X620632Y241063D01*
X620522Y241107D01*
X620425Y241159D01*
X620359Y241189D01*
X620322Y241218D01*
X620307Y241225D01*
X620196Y241307D01*
X620100Y241388D01*
X620019Y241477D01*
X619945Y241558D01*
X619893Y241632D01*
X619856Y241691D01*
X619834Y241728D01*
X619827Y241735D01*
Y241743D01*
X619768Y241861D01*
X619731Y241987D01*
X619701Y242105D01*
X619679Y242216D01*
X619664Y242312D01*
X619657Y242393D01*
Y242460D01*
X619672Y242659D01*
X619701Y242844D01*
X619753Y242999D01*
X619805Y243132D01*
X619864Y243243D01*
X619886Y243288D01*
X619915Y243325D01*
X619930Y243354D01*
X619945Y243376D01*
X619960Y243384D01*
Y243391D01*
X620078Y243524D01*
X620219Y243635D01*
X620359Y243731D01*
X620492Y243805D01*
X620618Y243864D01*
X620669Y243894D01*
X620721Y243909D01*
X620758Y243923D01*
X620788Y243938D01*
X620802Y243946D01*
X620810D01*
X620921Y243975D01*
X621031Y244005D01*
X621275Y244049D01*
X621519Y244086D01*
X621749Y244108D01*
X621859Y244116D01*
X621955Y244123D01*
X622044D01*
X622126Y244130D01*
X622185D01*
X622236D01*
X622266D01*
X622273D01*
X622532Y244123D01*
D02*
G37*
G36*
X625190Y168898D02*
X625323Y168891D01*
X625449Y168876D01*
X625560Y168861D01*
X625663Y168847D01*
X625760Y168824D01*
X625848Y168810D01*
X625930Y168795D01*
X625996Y168773D01*
X626055Y168758D01*
X626100Y168743D01*
X626137Y168728D01*
X626166Y168721D01*
X626181Y168714D01*
X626188D01*
X626351Y168632D01*
X626499Y168529D01*
X626617Y168425D01*
X626721Y168314D01*
X626802Y168218D01*
X626861Y168137D01*
X626876Y168107D01*
X626890Y168085D01*
X626905Y168071D01*
Y168063D01*
X626987Y167878D01*
X627046Y167686D01*
X627090Y167487D01*
X627120Y167302D01*
X627127Y167220D01*
X627134Y167139D01*
X627142Y167065D01*
Y167006D01*
X627149Y166954D01*
Y166888D01*
X627134Y166622D01*
X627120Y166504D01*
X627105Y166393D01*
X627083Y166282D01*
X627061Y166186D01*
X627038Y166097D01*
X627009Y166016D01*
X626979Y165942D01*
X626957Y165883D01*
X626935Y165823D01*
X626913Y165779D01*
X626890Y165742D01*
X626883Y165720D01*
X626868Y165705D01*
Y165698D01*
X626757Y165535D01*
X626632Y165402D01*
X626513Y165299D01*
X626395Y165210D01*
X626292Y165144D01*
X626211Y165099D01*
X626181Y165084D01*
X626159Y165070D01*
X626144Y165062D01*
X626137D01*
X626048Y165033D01*
X625952Y165003D01*
X625752Y164959D01*
X625545Y164929D01*
X625346Y164907D01*
X625257Y164900D01*
X625168Y164892D01*
X625094D01*
X625028Y164885D01*
X624976D01*
X624939D01*
X624910D01*
X624902D01*
X621946D01*
Y165565D01*
X624902D01*
X625072D01*
X625235Y165580D01*
X625375Y165594D01*
X625508Y165617D01*
X625626Y165639D01*
X625737Y165668D01*
X625834Y165690D01*
X625915Y165720D01*
X625981Y165750D01*
X626048Y165779D01*
X626092Y165809D01*
X626137Y165831D01*
X626166Y165853D01*
X626188Y165868D01*
X626196Y165875D01*
X626203Y165883D01*
X626262Y165949D01*
X626314Y166023D01*
X626395Y166186D01*
X626454Y166356D01*
X626491Y166533D01*
X626521Y166696D01*
X626528Y166762D01*
Y166829D01*
X626536Y166873D01*
Y166947D01*
X626528Y167102D01*
X626506Y167243D01*
X626484Y167376D01*
X626447Y167479D01*
X626417Y167568D01*
X626395Y167634D01*
X626373Y167671D01*
X626366Y167686D01*
X626299Y167790D01*
X626218Y167878D01*
X626137Y167952D01*
X626063Y168004D01*
X625989Y168048D01*
X625937Y168085D01*
X625900Y168100D01*
X625885Y168107D01*
X625819Y168130D01*
X625752Y168144D01*
X625597Y168174D01*
X625434Y168196D01*
X625272Y168211D01*
X625131Y168218D01*
X625065D01*
X625013Y168226D01*
X624969D01*
X624932D01*
X624910D01*
X624902D01*
X621946D01*
Y168906D01*
X624902D01*
X625050D01*
X625190Y168898D01*
D02*
G37*
G36*
X623771Y163421D02*
X623720Y163310D01*
X623668Y163200D01*
X623616Y163096D01*
X623572Y163007D01*
X623535Y162934D01*
X623505Y162889D01*
X623498Y162882D01*
Y162874D01*
X623416Y162741D01*
X623335Y162623D01*
X623261Y162520D01*
X623195Y162438D01*
X623143Y162364D01*
X623099Y162320D01*
X623069Y162283D01*
X623062Y162276D01*
X627061D01*
Y161647D01*
X621923D01*
Y162054D01*
X622049Y162128D01*
X622167Y162209D01*
X622286Y162305D01*
X622389Y162394D01*
X622478Y162483D01*
X622552Y162549D01*
X622574Y162579D01*
X622596Y162601D01*
X622603Y162608D01*
X622611Y162616D01*
X622737Y162771D01*
X622855Y162926D01*
X622958Y163074D01*
X623040Y163222D01*
X623114Y163347D01*
X623143Y163399D01*
X623165Y163444D01*
X623187Y163480D01*
X623195Y163510D01*
X623209Y163525D01*
Y163532D01*
X623816D01*
X623771Y163421D01*
D02*
G37*
G36*
Y159445D02*
X623720Y159334D01*
X623668Y159223D01*
X623616Y159120D01*
X623572Y159031D01*
X623535Y158957D01*
X623505Y158913D01*
X623498Y158905D01*
Y158898D01*
X623416Y158765D01*
X623335Y158646D01*
X623261Y158543D01*
X623195Y158462D01*
X623143Y158388D01*
X623099Y158343D01*
X623069Y158307D01*
X623062Y158299D01*
X627061D01*
Y157671D01*
X621923D01*
Y158077D01*
X622049Y158151D01*
X622167Y158233D01*
X622286Y158329D01*
X622389Y158417D01*
X622478Y158506D01*
X622552Y158573D01*
X622574Y158602D01*
X622596Y158624D01*
X622603Y158632D01*
X622611Y158639D01*
X622737Y158794D01*
X622855Y158949D01*
X622958Y159097D01*
X623040Y159245D01*
X623114Y159371D01*
X623143Y159423D01*
X623165Y159467D01*
X623187Y159504D01*
X623195Y159533D01*
X623209Y159548D01*
Y159556D01*
X623816D01*
X623771Y159445D01*
D02*
G37*
G36*
X454924Y337493D02*
X455057Y337485D01*
X455182Y337470D01*
X455293Y337456D01*
X455397Y337441D01*
X455493Y337419D01*
X455582Y337404D01*
X455663Y337389D01*
X455729Y337367D01*
X455788Y337352D01*
X455833Y337337D01*
X455870Y337323D01*
X455899Y337315D01*
X455914Y337308D01*
X455922D01*
X456084Y337226D01*
X456232Y337123D01*
X456350Y337020D01*
X456454Y336909D01*
X456535Y336813D01*
X456594Y336731D01*
X456609Y336702D01*
X456624Y336680D01*
X456638Y336665D01*
Y336657D01*
X456720Y336473D01*
X456779Y336280D01*
X456823Y336081D01*
X456853Y335896D01*
X456860Y335815D01*
X456868Y335733D01*
X456875Y335660D01*
Y335600D01*
X456882Y335549D01*
Y335482D01*
X456868Y335216D01*
X456853Y335098D01*
X456838Y334987D01*
X456816Y334876D01*
X456794Y334780D01*
X456772Y334691D01*
X456742Y334610D01*
X456712Y334536D01*
X456690Y334477D01*
X456668Y334418D01*
X456646Y334373D01*
X456624Y334337D01*
X456616Y334314D01*
X456602Y334300D01*
Y334292D01*
X456491Y334129D01*
X456365Y333997D01*
X456247Y333893D01*
X456129Y333804D01*
X456025Y333738D01*
X455944Y333693D01*
X455914Y333679D01*
X455892Y333664D01*
X455877Y333657D01*
X455870D01*
X455781Y333627D01*
X455685Y333597D01*
X455485Y333553D01*
X455279Y333523D01*
X455079Y333501D01*
X454990Y333494D01*
X454902Y333487D01*
X454828D01*
X454761Y333479D01*
X454709D01*
X454672D01*
X454643D01*
X454636D01*
X451679D01*
Y334159D01*
X454636D01*
X454805D01*
X454968Y334174D01*
X455108Y334189D01*
X455242Y334211D01*
X455360Y334233D01*
X455471Y334263D01*
X455567Y334285D01*
X455648Y334314D01*
X455715Y334344D01*
X455781Y334373D01*
X455826Y334403D01*
X455870Y334425D01*
X455899Y334447D01*
X455922Y334462D01*
X455929Y334469D01*
X455936Y334477D01*
X455995Y334543D01*
X456047Y334617D01*
X456129Y334780D01*
X456188Y334950D01*
X456225Y335127D01*
X456254Y335290D01*
X456262Y335356D01*
Y335423D01*
X456269Y335467D01*
Y335541D01*
X456262Y335696D01*
X456239Y335837D01*
X456217Y335970D01*
X456180Y336073D01*
X456151Y336162D01*
X456129Y336229D01*
X456106Y336266D01*
X456099Y336280D01*
X456032Y336384D01*
X455951Y336473D01*
X455870Y336547D01*
X455796Y336598D01*
X455722Y336643D01*
X455670Y336680D01*
X455633Y336694D01*
X455619Y336702D01*
X455552Y336724D01*
X455485Y336739D01*
X455330Y336768D01*
X455168Y336790D01*
X455005Y336805D01*
X454865Y336813D01*
X454798D01*
X454746Y336820D01*
X454702D01*
X454665D01*
X454643D01*
X454636D01*
X451679D01*
Y337500D01*
X454636D01*
X454783D01*
X454924Y337493D01*
D02*
G37*
G36*
X453505Y332016D02*
X453453Y331905D01*
X453401Y331794D01*
X453349Y331690D01*
X453305Y331602D01*
X453268Y331528D01*
X453238Y331483D01*
X453231Y331476D01*
Y331469D01*
X453150Y331336D01*
X453069Y331217D01*
X452995Y331114D01*
X452928Y331032D01*
X452876Y330959D01*
X452832Y330914D01*
X452802Y330877D01*
X452795Y330870D01*
X456794D01*
Y330242D01*
X451657D01*
Y330648D01*
X451782Y330722D01*
X451901Y330803D01*
X452019Y330900D01*
X452122Y330988D01*
X452211Y331077D01*
X452285Y331143D01*
X452307Y331173D01*
X452329Y331195D01*
X452337Y331203D01*
X452344Y331210D01*
X452470Y331365D01*
X452588Y331520D01*
X452691Y331668D01*
X452773Y331816D01*
X452847Y331942D01*
X452876Y331993D01*
X452898Y332038D01*
X452921Y332075D01*
X452928Y332104D01*
X452943Y332119D01*
Y332127D01*
X453549D01*
X453505Y332016D01*
D02*
G37*
G36*
X456794Y325326D02*
X456188D01*
Y327847D01*
X456062Y327758D01*
X456010Y327714D01*
X455959Y327677D01*
X455914Y327640D01*
X455885Y327610D01*
X455862Y327588D01*
X455855Y327581D01*
X455818Y327544D01*
X455781Y327499D01*
X455685Y327396D01*
X455574Y327278D01*
X455463Y327152D01*
X455367Y327034D01*
X455323Y326982D01*
X455279Y326938D01*
X455249Y326901D01*
X455227Y326871D01*
X455212Y326856D01*
X455205Y326849D01*
X455101Y326731D01*
X455005Y326613D01*
X454909Y326509D01*
X454828Y326413D01*
X454746Y326324D01*
X454672Y326250D01*
X454606Y326176D01*
X454547Y326117D01*
X454488Y326058D01*
X454443Y326014D01*
X454406Y325977D01*
X454369Y325940D01*
X454325Y325903D01*
X454310Y325888D01*
X454185Y325785D01*
X454074Y325696D01*
X453963Y325622D01*
X453874Y325563D01*
X453793Y325519D01*
X453734Y325489D01*
X453697Y325474D01*
X453682Y325467D01*
X453571Y325423D01*
X453460Y325393D01*
X453357Y325363D01*
X453268Y325349D01*
X453187Y325341D01*
X453128Y325334D01*
X453091D01*
X453076D01*
X452965Y325341D01*
X452862Y325356D01*
X452758Y325371D01*
X452669Y325400D01*
X452492Y325474D01*
X452351Y325548D01*
X452285Y325592D01*
X452233Y325629D01*
X452182Y325666D01*
X452145Y325703D01*
X452115Y325733D01*
X452085Y325748D01*
X452078Y325762D01*
X452071Y325770D01*
X451997Y325851D01*
X451930Y325940D01*
X451879Y326036D01*
X451834Y326132D01*
X451760Y326324D01*
X451708Y326516D01*
X451694Y326598D01*
X451679Y326679D01*
X451671Y326753D01*
X451664Y326812D01*
X451657Y326864D01*
Y326938D01*
X451664Y327071D01*
X451671Y327196D01*
X451694Y327315D01*
X451716Y327425D01*
X451745Y327529D01*
X451775Y327625D01*
X451812Y327714D01*
X451849Y327795D01*
X451886Y327869D01*
X451923Y327928D01*
X451952Y327980D01*
X451982Y328024D01*
X452004Y328061D01*
X452026Y328083D01*
X452034Y328098D01*
X452041Y328106D01*
X452115Y328180D01*
X452196Y328246D01*
X452285Y328312D01*
X452374Y328364D01*
X452551Y328453D01*
X452729Y328512D01*
X452810Y328534D01*
X452891Y328556D01*
X452958Y328571D01*
X453017Y328586D01*
X453069Y328593D01*
X453105D01*
X453128Y328601D01*
X453135D01*
X453201Y327958D01*
X453032Y327943D01*
X452884Y327913D01*
X452751Y327869D01*
X452647Y327817D01*
X452559Y327773D01*
X452499Y327729D01*
X452462Y327699D01*
X452448Y327684D01*
X452359Y327573D01*
X452292Y327455D01*
X452241Y327329D01*
X452211Y327219D01*
X452189Y327115D01*
X452182Y327026D01*
X452174Y326997D01*
Y326953D01*
X452182Y326797D01*
X452211Y326657D01*
X452255Y326539D01*
X452300Y326435D01*
X452351Y326354D01*
X452388Y326302D01*
X452418Y326265D01*
X452433Y326250D01*
X452536Y326162D01*
X452640Y326095D01*
X452743Y326043D01*
X452847Y326014D01*
X452928Y325992D01*
X453002Y325984D01*
X453046Y325977D01*
X453054D01*
X453061D01*
X453194Y325992D01*
X453335Y326021D01*
X453460Y326073D01*
X453578Y326125D01*
X453675Y326184D01*
X453756Y326236D01*
X453786Y326250D01*
X453808Y326265D01*
X453815Y326280D01*
X453822D01*
X453904Y326339D01*
X453985Y326413D01*
X454074Y326494D01*
X454162Y326583D01*
X454340Y326768D01*
X454517Y326953D01*
X454599Y327049D01*
X454672Y327130D01*
X454739Y327211D01*
X454798Y327278D01*
X454842Y327329D01*
X454879Y327374D01*
X454902Y327403D01*
X454909Y327411D01*
X455064Y327595D01*
X455212Y327766D01*
X455345Y327906D01*
X455456Y328017D01*
X455552Y328113D01*
X455619Y328180D01*
X455663Y328216D01*
X455670Y328231D01*
X455678D01*
X455803Y328335D01*
X455922Y328416D01*
X456040Y328490D01*
X456143Y328549D01*
X456232Y328593D01*
X456298Y328623D01*
X456343Y328638D01*
X456350Y328645D01*
X456358D01*
X456439Y328675D01*
X456513Y328689D01*
X456587Y328704D01*
X456653Y328712D01*
X456712Y328719D01*
X456757D01*
X456786D01*
X456794D01*
Y325326D01*
D02*
G37*
G36*
X454424Y250493D02*
X454557Y250485D01*
X454682Y250470D01*
X454793Y250456D01*
X454897Y250441D01*
X454993Y250419D01*
X455082Y250404D01*
X455163Y250389D01*
X455229Y250367D01*
X455289Y250352D01*
X455333Y250337D01*
X455370Y250323D01*
X455399Y250315D01*
X455414Y250308D01*
X455422D01*
X455584Y250226D01*
X455732Y250123D01*
X455850Y250020D01*
X455954Y249909D01*
X456035Y249813D01*
X456094Y249731D01*
X456109Y249702D01*
X456124Y249680D01*
X456138Y249665D01*
Y249657D01*
X456220Y249473D01*
X456279Y249280D01*
X456323Y249081D01*
X456353Y248896D01*
X456360Y248815D01*
X456368Y248734D01*
X456375Y248659D01*
Y248600D01*
X456382Y248549D01*
Y248482D01*
X456368Y248216D01*
X456353Y248098D01*
X456338Y247987D01*
X456316Y247876D01*
X456294Y247780D01*
X456272Y247691D01*
X456242Y247610D01*
X456212Y247536D01*
X456190Y247477D01*
X456168Y247418D01*
X456146Y247373D01*
X456124Y247337D01*
X456116Y247314D01*
X456102Y247299D01*
Y247292D01*
X455991Y247129D01*
X455865Y246996D01*
X455747Y246893D01*
X455629Y246804D01*
X455525Y246738D01*
X455444Y246693D01*
X455414Y246679D01*
X455392Y246664D01*
X455377Y246656D01*
X455370D01*
X455281Y246627D01*
X455185Y246597D01*
X454986Y246553D01*
X454779Y246523D01*
X454579Y246501D01*
X454490Y246494D01*
X454402Y246486D01*
X454328D01*
X454261Y246479D01*
X454209D01*
X454172D01*
X454143D01*
X454136D01*
X451179D01*
Y247159D01*
X454136D01*
X454305D01*
X454468Y247174D01*
X454608Y247189D01*
X454742Y247211D01*
X454860Y247233D01*
X454971Y247263D01*
X455067Y247285D01*
X455148Y247314D01*
X455215Y247344D01*
X455281Y247373D01*
X455326Y247403D01*
X455370Y247425D01*
X455399Y247447D01*
X455422Y247462D01*
X455429Y247470D01*
X455436Y247477D01*
X455495Y247543D01*
X455547Y247617D01*
X455629Y247780D01*
X455688Y247950D01*
X455725Y248127D01*
X455754Y248290D01*
X455762Y248356D01*
Y248423D01*
X455769Y248467D01*
Y248541D01*
X455762Y248696D01*
X455739Y248837D01*
X455717Y248970D01*
X455680Y249074D01*
X455651Y249162D01*
X455629Y249229D01*
X455606Y249266D01*
X455599Y249280D01*
X455532Y249384D01*
X455451Y249473D01*
X455370Y249547D01*
X455296Y249598D01*
X455222Y249643D01*
X455170Y249680D01*
X455133Y249694D01*
X455118Y249702D01*
X455052Y249724D01*
X454986Y249739D01*
X454830Y249768D01*
X454668Y249790D01*
X454505Y249805D01*
X454365Y249813D01*
X454298D01*
X454246Y249820D01*
X454202D01*
X454165D01*
X454143D01*
X454136D01*
X451179D01*
Y250500D01*
X454136D01*
X454283D01*
X454424Y250493D01*
D02*
G37*
G36*
X453005Y245016D02*
X452953Y244905D01*
X452901Y244794D01*
X452849Y244690D01*
X452805Y244602D01*
X452768Y244528D01*
X452738Y244483D01*
X452731Y244476D01*
Y244469D01*
X452650Y244336D01*
X452569Y244217D01*
X452495Y244114D01*
X452428Y244032D01*
X452376Y243959D01*
X452332Y243914D01*
X452302Y243877D01*
X452295Y243870D01*
X456294D01*
Y243242D01*
X451157D01*
Y243648D01*
X451282Y243722D01*
X451401Y243803D01*
X451519Y243899D01*
X451622Y243988D01*
X451711Y244077D01*
X451785Y244143D01*
X451807Y244173D01*
X451829Y244195D01*
X451837Y244202D01*
X451844Y244210D01*
X451970Y244365D01*
X452088Y244520D01*
X452192Y244668D01*
X452273Y244816D01*
X452347Y244942D01*
X452376Y244993D01*
X452398Y245038D01*
X452421Y245075D01*
X452428Y245104D01*
X452443Y245119D01*
Y245126D01*
X453049D01*
X453005Y245016D01*
D02*
G37*
G36*
X455059Y241608D02*
X455170Y241586D01*
X455377Y241520D01*
X455555Y241438D01*
X455629Y241394D01*
X455702Y241350D01*
X455769Y241305D01*
X455821Y241261D01*
X455872Y241224D01*
X455909Y241187D01*
X455939Y241165D01*
X455961Y241143D01*
X455976Y241128D01*
X455983Y241120D01*
X456050Y241032D01*
X456116Y240943D01*
X456168Y240854D01*
X456212Y240758D01*
X456286Y240573D01*
X456331Y240396D01*
X456345Y240315D01*
X456360Y240241D01*
X456368Y240174D01*
X456375Y240115D01*
X456382Y240071D01*
Y240004D01*
X456375Y239864D01*
X456360Y239738D01*
X456338Y239613D01*
X456309Y239494D01*
X456272Y239383D01*
X456235Y239287D01*
X456190Y239191D01*
X456146Y239110D01*
X456109Y239029D01*
X456065Y238962D01*
X456028Y238903D01*
X455991Y238859D01*
X455961Y238822D01*
X455939Y238792D01*
X455924Y238777D01*
X455917Y238770D01*
X455828Y238681D01*
X455732Y238607D01*
X455636Y238541D01*
X455540Y238482D01*
X455451Y238437D01*
X455355Y238393D01*
X455178Y238334D01*
X455096Y238319D01*
X455022Y238304D01*
X454956Y238289D01*
X454897Y238282D01*
X454852Y238275D01*
X454815D01*
X454793D01*
X454786D01*
X454608Y238282D01*
X454446Y238312D01*
X454305Y238356D01*
X454187Y238400D01*
X454091Y238445D01*
X454017Y238489D01*
X453973Y238519D01*
X453958Y238526D01*
X453847Y238629D01*
X453751Y238740D01*
X453677Y238859D01*
X453618Y238977D01*
X453574Y239080D01*
X453544Y239162D01*
X453537Y239191D01*
X453529Y239213D01*
X453522Y239228D01*
Y239235D01*
X453456Y239110D01*
X453389Y239006D01*
X453315Y238918D01*
X453248Y238844D01*
X453189Y238785D01*
X453138Y238740D01*
X453108Y238718D01*
X453093Y238711D01*
X452990Y238652D01*
X452886Y238607D01*
X452783Y238570D01*
X452687Y238548D01*
X452605Y238533D01*
X452546Y238526D01*
X452502D01*
X452487D01*
X452361Y238533D01*
X452236Y238556D01*
X452125Y238585D01*
X452029Y238622D01*
X451948Y238659D01*
X451881Y238689D01*
X451844Y238711D01*
X451829Y238718D01*
X451718Y238792D01*
X451622Y238881D01*
X451541Y238969D01*
X451467Y239058D01*
X451415Y239132D01*
X451371Y239199D01*
X451349Y239243D01*
X451342Y239250D01*
Y239258D01*
X451282Y239391D01*
X451238Y239524D01*
X451201Y239657D01*
X451179Y239775D01*
X451164Y239871D01*
X451157Y239953D01*
Y240137D01*
X451171Y240241D01*
X451208Y240440D01*
X451268Y240610D01*
X451327Y240758D01*
X451364Y240825D01*
X451393Y240876D01*
X451423Y240928D01*
X451452Y240965D01*
X451475Y240995D01*
X451489Y241017D01*
X451497Y241032D01*
X451504Y241039D01*
X451645Y241180D01*
X451800Y241290D01*
X451962Y241379D01*
X452125Y241453D01*
X452265Y241497D01*
X452325Y241520D01*
X452376Y241534D01*
X452421Y241542D01*
X452450Y241549D01*
X452472Y241556D01*
X452480D01*
X452591Y240928D01*
X452428Y240899D01*
X452288Y240854D01*
X452169Y240802D01*
X452073Y240751D01*
X451999Y240699D01*
X451948Y240655D01*
X451911Y240625D01*
X451903Y240618D01*
X451829Y240522D01*
X451770Y240418D01*
X451733Y240322D01*
X451704Y240226D01*
X451689Y240137D01*
X451674Y240071D01*
Y240012D01*
X451682Y239879D01*
X451711Y239760D01*
X451748Y239657D01*
X451785Y239568D01*
X451829Y239502D01*
X451866Y239450D01*
X451896Y239413D01*
X451903Y239405D01*
X451992Y239324D01*
X452088Y239265D01*
X452184Y239228D01*
X452273Y239199D01*
X452354Y239184D01*
X452413Y239169D01*
X452458D01*
X452465D01*
X452472D01*
X452554D01*
X452628Y239184D01*
X452753Y239221D01*
X452864Y239272D01*
X452960Y239332D01*
X453027Y239391D01*
X453078Y239443D01*
X453108Y239479D01*
X453116Y239487D01*
Y239494D01*
X453182Y239620D01*
X453234Y239738D01*
X453271Y239864D01*
X453293Y239975D01*
X453308Y240071D01*
X453322Y240152D01*
Y240248D01*
X453315Y240278D01*
Y240315D01*
X453869Y240389D01*
X453847Y240292D01*
X453832Y240204D01*
X453818Y240130D01*
X453810Y240063D01*
X453803Y240012D01*
Y239945D01*
X453818Y239790D01*
X453847Y239649D01*
X453891Y239524D01*
X453943Y239420D01*
X453995Y239339D01*
X454039Y239280D01*
X454069Y239243D01*
X454084Y239228D01*
X454195Y239132D01*
X454313Y239058D01*
X454431Y239006D01*
X454549Y238977D01*
X454646Y238955D01*
X454727Y238947D01*
X454756Y238940D01*
X454779D01*
X454793D01*
X454801D01*
X454963Y238955D01*
X455111Y238992D01*
X455237Y239036D01*
X455348Y239095D01*
X455436Y239154D01*
X455503Y239199D01*
X455547Y239235D01*
X455562Y239250D01*
X455666Y239369D01*
X455739Y239494D01*
X455791Y239620D01*
X455828Y239738D01*
X455850Y239842D01*
X455858Y239923D01*
X455865Y239953D01*
Y239997D01*
X455858Y240130D01*
X455828Y240256D01*
X455791Y240366D01*
X455747Y240455D01*
X455710Y240529D01*
X455673Y240588D01*
X455643Y240618D01*
X455636Y240632D01*
X455532Y240721D01*
X455414Y240795D01*
X455289Y240862D01*
X455155Y240913D01*
X455045Y240950D01*
X454993Y240965D01*
X454949Y240972D01*
X454912Y240980D01*
X454882Y240987D01*
X454867Y240995D01*
X454860D01*
X454941Y241623D01*
X455059Y241608D01*
D02*
G37*
G36*
X412424Y164493D02*
X412557Y164485D01*
X412682Y164470D01*
X412793Y164456D01*
X412897Y164441D01*
X412993Y164419D01*
X413082Y164404D01*
X413163Y164389D01*
X413229Y164367D01*
X413288Y164352D01*
X413333Y164337D01*
X413370Y164323D01*
X413399Y164315D01*
X413414Y164308D01*
X413422D01*
X413584Y164226D01*
X413732Y164123D01*
X413850Y164020D01*
X413954Y163909D01*
X414035Y163813D01*
X414094Y163731D01*
X414109Y163702D01*
X414124Y163680D01*
X414138Y163665D01*
Y163657D01*
X414220Y163473D01*
X414279Y163280D01*
X414323Y163081D01*
X414353Y162896D01*
X414360Y162815D01*
X414368Y162733D01*
X414375Y162659D01*
Y162600D01*
X414382Y162549D01*
Y162482D01*
X414368Y162216D01*
X414353Y162098D01*
X414338Y161987D01*
X414316Y161876D01*
X414294Y161780D01*
X414272Y161691D01*
X414242Y161610D01*
X414212Y161536D01*
X414190Y161477D01*
X414168Y161418D01*
X414146Y161373D01*
X414124Y161336D01*
X414116Y161314D01*
X414102Y161299D01*
Y161292D01*
X413991Y161129D01*
X413865Y160996D01*
X413747Y160893D01*
X413629Y160804D01*
X413525Y160738D01*
X413444Y160693D01*
X413414Y160679D01*
X413392Y160664D01*
X413377Y160657D01*
X413370D01*
X413281Y160627D01*
X413185Y160597D01*
X412985Y160553D01*
X412779Y160523D01*
X412579Y160501D01*
X412490Y160494D01*
X412402Y160487D01*
X412328D01*
X412261Y160479D01*
X412209D01*
X412172D01*
X412143D01*
X412135D01*
X409179D01*
Y161159D01*
X412135D01*
X412305D01*
X412468Y161174D01*
X412608Y161189D01*
X412742Y161211D01*
X412860Y161233D01*
X412971Y161263D01*
X413067Y161285D01*
X413148Y161314D01*
X413215Y161344D01*
X413281Y161373D01*
X413326Y161403D01*
X413370Y161425D01*
X413399Y161447D01*
X413422Y161462D01*
X413429Y161469D01*
X413436Y161477D01*
X413495Y161543D01*
X413547Y161617D01*
X413629Y161780D01*
X413688Y161950D01*
X413725Y162127D01*
X413754Y162290D01*
X413762Y162356D01*
Y162423D01*
X413769Y162467D01*
Y162541D01*
X413762Y162696D01*
X413739Y162837D01*
X413717Y162970D01*
X413680Y163074D01*
X413651Y163162D01*
X413629Y163229D01*
X413606Y163266D01*
X413599Y163280D01*
X413532Y163384D01*
X413451Y163473D01*
X413370Y163547D01*
X413296Y163598D01*
X413222Y163643D01*
X413170Y163680D01*
X413133Y163694D01*
X413119Y163702D01*
X413052Y163724D01*
X412985Y163739D01*
X412830Y163768D01*
X412668Y163790D01*
X412505Y163805D01*
X412365Y163813D01*
X412298D01*
X412246Y163820D01*
X412202D01*
X412165D01*
X412143D01*
X412135D01*
X409179D01*
Y164500D01*
X412135D01*
X412283D01*
X412424Y164493D01*
D02*
G37*
G36*
X411005Y159016D02*
X410953Y158905D01*
X410901Y158794D01*
X410849Y158690D01*
X410805Y158602D01*
X410768Y158528D01*
X410738Y158483D01*
X410731Y158476D01*
Y158469D01*
X410650Y158336D01*
X410569Y158217D01*
X410495Y158114D01*
X410428Y158033D01*
X410376Y157959D01*
X410332Y157914D01*
X410302Y157877D01*
X410295Y157870D01*
X414294D01*
Y157242D01*
X409157D01*
Y157648D01*
X409282Y157722D01*
X409401Y157803D01*
X409519Y157900D01*
X409622Y157988D01*
X409711Y158077D01*
X409785Y158143D01*
X409807Y158173D01*
X409829Y158195D01*
X409837Y158202D01*
X409844Y158210D01*
X409970Y158365D01*
X410088Y158520D01*
X410191Y158668D01*
X410273Y158816D01*
X410347Y158942D01*
X410376Y158993D01*
X410398Y159038D01*
X410421Y159075D01*
X410428Y159104D01*
X410443Y159119D01*
Y159127D01*
X411049D01*
X411005Y159016D01*
D02*
G37*
G36*
X413074Y155616D02*
X413185Y155593D01*
X413392Y155527D01*
X413569Y155445D01*
X413651Y155401D01*
X413717Y155357D01*
X413784Y155320D01*
X413843Y155275D01*
X413887Y155239D01*
X413924Y155202D01*
X413954Y155172D01*
X413983Y155157D01*
X413991Y155142D01*
X413998Y155135D01*
X414065Y155046D01*
X414124Y154958D01*
X414175Y154862D01*
X414220Y154766D01*
X414286Y154581D01*
X414331Y154396D01*
X414353Y154315D01*
X414360Y154233D01*
X414368Y154167D01*
X414375Y154108D01*
X414382Y154056D01*
Y153989D01*
X414375Y153834D01*
X414353Y153686D01*
X414323Y153546D01*
X414286Y153420D01*
X414235Y153302D01*
X414183Y153191D01*
X414131Y153088D01*
X414072Y152999D01*
X414013Y152918D01*
X413961Y152844D01*
X413902Y152785D01*
X413858Y152733D01*
X413821Y152696D01*
X413791Y152666D01*
X413769Y152652D01*
X413762Y152644D01*
X413666Y152570D01*
X413562Y152511D01*
X413466Y152452D01*
X413362Y152408D01*
X413163Y152334D01*
X412971Y152289D01*
X412889Y152275D01*
X412808Y152260D01*
X412742Y152253D01*
X412682Y152245D01*
X412631Y152238D01*
X412594D01*
X412571D01*
X412564D01*
X412431Y152245D01*
X412305Y152260D01*
X412180Y152282D01*
X412069Y152312D01*
X411965Y152348D01*
X411862Y152386D01*
X411773Y152430D01*
X411692Y152467D01*
X411618Y152511D01*
X411552Y152556D01*
X411500Y152592D01*
X411448Y152629D01*
X411411Y152659D01*
X411389Y152681D01*
X411374Y152696D01*
X411367Y152703D01*
X411285Y152792D01*
X411212Y152881D01*
X411152Y152977D01*
X411101Y153073D01*
X411049Y153169D01*
X411012Y153265D01*
X410960Y153442D01*
X410938Y153524D01*
X410923Y153598D01*
X410916Y153664D01*
X410909Y153723D01*
X410901Y153768D01*
Y153930D01*
X410916Y154019D01*
X410953Y154196D01*
X411005Y154359D01*
X411064Y154507D01*
X411123Y154625D01*
X411152Y154677D01*
X411175Y154721D01*
X411197Y154758D01*
X411212Y154780D01*
X411219Y154795D01*
X411226Y154803D01*
X409844Y154529D01*
Y152482D01*
X409245D01*
Y155024D01*
X411877Y155520D01*
X411958Y154928D01*
X411877Y154876D01*
X411810Y154810D01*
X411744Y154751D01*
X411692Y154692D01*
X411655Y154633D01*
X411618Y154588D01*
X411603Y154559D01*
X411596Y154551D01*
X411552Y154455D01*
X411515Y154359D01*
X411492Y154270D01*
X411470Y154182D01*
X411463Y154108D01*
X411455Y154049D01*
Y153908D01*
X411470Y153819D01*
X411507Y153664D01*
X411559Y153531D01*
X411611Y153413D01*
X411670Y153324D01*
X411721Y153258D01*
X411758Y153221D01*
X411766Y153206D01*
X411773D01*
X411899Y153103D01*
X412032Y153028D01*
X412172Y152977D01*
X412313Y152940D01*
X412431Y152918D01*
X412483Y152910D01*
X412527D01*
X412564Y152903D01*
X412594D01*
X412608D01*
X412616D01*
X412719D01*
X412816Y152918D01*
X413000Y152955D01*
X413156Y153006D01*
X413281Y153058D01*
X413385Y153117D01*
X413466Y153169D01*
X413488Y153191D01*
X413510Y153206D01*
X413518Y153213D01*
X413525Y153221D01*
X413584Y153280D01*
X413636Y153339D01*
X413725Y153472D01*
X413784Y153598D01*
X413821Y153723D01*
X413850Y153827D01*
X413858Y153916D01*
X413865Y153945D01*
Y153989D01*
X413858Y154130D01*
X413828Y154256D01*
X413791Y154366D01*
X413747Y154455D01*
X413702Y154536D01*
X413666Y154595D01*
X413636Y154625D01*
X413629Y154640D01*
X413525Y154729D01*
X413414Y154803D01*
X413288Y154862D01*
X413178Y154906D01*
X413067Y154936D01*
X412985Y154958D01*
X412948Y154965D01*
X412926Y154972D01*
X412911D01*
X412904D01*
X412956Y155630D01*
X413074Y155616D01*
D02*
G37*
G36*
X412424Y79993D02*
X412557Y79985D01*
X412682Y79970D01*
X412793Y79956D01*
X412897Y79941D01*
X412993Y79919D01*
X413082Y79904D01*
X413163Y79889D01*
X413229Y79867D01*
X413288Y79852D01*
X413333Y79837D01*
X413370Y79823D01*
X413399Y79815D01*
X413414Y79808D01*
X413422D01*
X413584Y79727D01*
X413732Y79623D01*
X413850Y79520D01*
X413954Y79409D01*
X414035Y79313D01*
X414094Y79231D01*
X414109Y79202D01*
X414124Y79180D01*
X414138Y79165D01*
Y79157D01*
X414220Y78973D01*
X414279Y78780D01*
X414323Y78581D01*
X414353Y78396D01*
X414360Y78315D01*
X414368Y78233D01*
X414375Y78159D01*
Y78100D01*
X414382Y78049D01*
Y77982D01*
X414368Y77716D01*
X414353Y77598D01*
X414338Y77487D01*
X414316Y77376D01*
X414294Y77280D01*
X414272Y77191D01*
X414242Y77110D01*
X414212Y77036D01*
X414190Y76977D01*
X414168Y76918D01*
X414146Y76873D01*
X414124Y76837D01*
X414116Y76814D01*
X414102Y76800D01*
Y76792D01*
X413991Y76630D01*
X413865Y76497D01*
X413747Y76393D01*
X413629Y76304D01*
X413525Y76238D01*
X413444Y76193D01*
X413414Y76179D01*
X413392Y76164D01*
X413377Y76157D01*
X413370D01*
X413281Y76127D01*
X413185Y76097D01*
X412985Y76053D01*
X412779Y76023D01*
X412579Y76001D01*
X412490Y75994D01*
X412402Y75986D01*
X412328D01*
X412261Y75979D01*
X412209D01*
X412172D01*
X412143D01*
X412135D01*
X409179D01*
Y76659D01*
X412135D01*
X412305D01*
X412468Y76674D01*
X412608Y76689D01*
X412742Y76711D01*
X412860Y76733D01*
X412971Y76763D01*
X413067Y76785D01*
X413148Y76814D01*
X413215Y76844D01*
X413281Y76873D01*
X413326Y76903D01*
X413370Y76925D01*
X413399Y76947D01*
X413422Y76962D01*
X413429Y76969D01*
X413436Y76977D01*
X413495Y77043D01*
X413547Y77117D01*
X413629Y77280D01*
X413688Y77450D01*
X413725Y77627D01*
X413754Y77790D01*
X413762Y77856D01*
Y77923D01*
X413769Y77967D01*
Y78041D01*
X413762Y78197D01*
X413739Y78337D01*
X413717Y78470D01*
X413680Y78573D01*
X413651Y78662D01*
X413629Y78729D01*
X413606Y78766D01*
X413599Y78780D01*
X413532Y78884D01*
X413451Y78973D01*
X413370Y79047D01*
X413296Y79098D01*
X413222Y79143D01*
X413170Y79180D01*
X413133Y79194D01*
X413119Y79202D01*
X413052Y79224D01*
X412985Y79239D01*
X412830Y79268D01*
X412668Y79290D01*
X412505Y79305D01*
X412365Y79313D01*
X412298D01*
X412246Y79320D01*
X412202D01*
X412165D01*
X412143D01*
X412135D01*
X409179D01*
Y80000D01*
X412135D01*
X412283D01*
X412424Y79993D01*
D02*
G37*
G36*
X411005Y74516D02*
X410953Y74405D01*
X410901Y74294D01*
X410849Y74190D01*
X410805Y74102D01*
X410768Y74028D01*
X410738Y73983D01*
X410731Y73976D01*
Y73969D01*
X410650Y73836D01*
X410569Y73717D01*
X410495Y73614D01*
X410428Y73533D01*
X410376Y73459D01*
X410332Y73414D01*
X410302Y73377D01*
X410295Y73370D01*
X414294D01*
Y72742D01*
X409157D01*
Y73148D01*
X409282Y73222D01*
X409401Y73303D01*
X409519Y73400D01*
X409622Y73488D01*
X409711Y73577D01*
X409785Y73643D01*
X409807Y73673D01*
X409829Y73695D01*
X409837Y73703D01*
X409844Y73710D01*
X409970Y73865D01*
X410088Y74020D01*
X410191Y74168D01*
X410273Y74316D01*
X410347Y74442D01*
X410376Y74493D01*
X410398Y74538D01*
X410421Y74575D01*
X410428Y74604D01*
X410443Y74619D01*
Y74626D01*
X411049D01*
X411005Y74516D01*
D02*
G37*
G36*
X412143Y71153D02*
X412365Y71138D01*
X412571Y71115D01*
X412764Y71079D01*
X412934Y71042D01*
X413089Y71005D01*
X413229Y70960D01*
X413355Y70909D01*
X413459Y70864D01*
X413555Y70820D01*
X413629Y70783D01*
X413695Y70739D01*
X413747Y70709D01*
X413776Y70687D01*
X413798Y70672D01*
X413806Y70665D01*
X413909Y70569D01*
X413998Y70465D01*
X414072Y70362D01*
X414138Y70258D01*
X414198Y70147D01*
X414242Y70044D01*
X414279Y69940D01*
X414309Y69837D01*
X414331Y69748D01*
X414353Y69659D01*
X414368Y69585D01*
X414375Y69519D01*
Y69460D01*
X414382Y69423D01*
Y69386D01*
X414375Y69216D01*
X414346Y69061D01*
X414316Y68920D01*
X414272Y68795D01*
X414235Y68699D01*
X414198Y68625D01*
X414190Y68595D01*
X414175Y68573D01*
X414168Y68566D01*
Y68558D01*
X414079Y68432D01*
X413976Y68314D01*
X413872Y68218D01*
X413769Y68137D01*
X413673Y68070D01*
X413599Y68026D01*
X413569Y68011D01*
X413547Y67996D01*
X413540Y67989D01*
X413532D01*
X413377Y67915D01*
X413215Y67863D01*
X413067Y67826D01*
X412926Y67804D01*
X412808Y67782D01*
X412764D01*
X412719Y67775D01*
X412682D01*
X412660D01*
X412645D01*
X412638D01*
X412505Y67782D01*
X412379Y67797D01*
X412254Y67819D01*
X412143Y67841D01*
X412039Y67878D01*
X411936Y67915D01*
X411847Y67952D01*
X411766Y67996D01*
X411692Y68041D01*
X411625Y68078D01*
X411574Y68115D01*
X411522Y68152D01*
X411485Y68174D01*
X411463Y68196D01*
X411448Y68211D01*
X411441Y68218D01*
X411359Y68299D01*
X411285Y68388D01*
X411226Y68484D01*
X411175Y68573D01*
X411123Y68662D01*
X411086Y68750D01*
X411034Y68920D01*
X411012Y68994D01*
X410997Y69068D01*
X410990Y69127D01*
X410982Y69186D01*
X410975Y69231D01*
Y69290D01*
X410982Y69423D01*
X411005Y69549D01*
X411027Y69667D01*
X411056Y69770D01*
X411093Y69859D01*
X411115Y69925D01*
X411138Y69970D01*
X411145Y69977D01*
Y69985D01*
X411219Y70103D01*
X411300Y70206D01*
X411381Y70303D01*
X411470Y70376D01*
X411544Y70443D01*
X411603Y70495D01*
X411648Y70524D01*
X411655Y70532D01*
X411522D01*
X411389Y70524D01*
X411271Y70517D01*
X411152Y70502D01*
X411049Y70495D01*
X410953Y70480D01*
X410864Y70465D01*
X410783Y70443D01*
X410709Y70428D01*
X410650Y70413D01*
X410598Y70399D01*
X410554Y70391D01*
X410524Y70376D01*
X410502Y70369D01*
X410487Y70362D01*
X410480D01*
X410332Y70288D01*
X410199Y70214D01*
X410095Y70132D01*
X410007Y70059D01*
X409933Y69992D01*
X409881Y69940D01*
X409851Y69903D01*
X409844Y69889D01*
X409785Y69800D01*
X409748Y69711D01*
X409719Y69623D01*
X409696Y69534D01*
X409682Y69467D01*
X409674Y69408D01*
Y69356D01*
X409689Y69223D01*
X409719Y69098D01*
X409763Y68994D01*
X409807Y68898D01*
X409859Y68824D01*
X409903Y68773D01*
X409933Y68743D01*
X409948Y68728D01*
X410014Y68676D01*
X410095Y68625D01*
X410184Y68580D01*
X410273Y68551D01*
X410354Y68521D01*
X410421Y68499D01*
X410465Y68492D01*
X410472Y68484D01*
X410480D01*
X410428Y67856D01*
X410221Y67900D01*
X410036Y67967D01*
X409874Y68041D01*
X409741Y68122D01*
X409637Y68203D01*
X409593Y68233D01*
X409556Y68270D01*
X409534Y68292D01*
X409511Y68314D01*
X409504Y68322D01*
X409497Y68329D01*
X409438Y68403D01*
X409386Y68484D01*
X409297Y68647D01*
X409238Y68809D01*
X409201Y68965D01*
X409171Y69105D01*
X409164Y69164D01*
Y69216D01*
X409157Y69260D01*
Y69319D01*
X409164Y69467D01*
X409179Y69608D01*
X409208Y69741D01*
X409245Y69866D01*
X409297Y69977D01*
X409342Y70088D01*
X409401Y70184D01*
X409452Y70273D01*
X409504Y70347D01*
X409563Y70421D01*
X409608Y70480D01*
X409652Y70524D01*
X409696Y70561D01*
X409726Y70591D01*
X409741Y70606D01*
X409748Y70613D01*
X409881Y70709D01*
X410036Y70790D01*
X410199Y70864D01*
X410369Y70931D01*
X410546Y70982D01*
X410724Y71027D01*
X410909Y71064D01*
X411078Y71093D01*
X411249Y71115D01*
X411404Y71130D01*
X411544Y71145D01*
X411662Y71153D01*
X411766D01*
X411840Y71160D01*
X411869D01*
X411892D01*
X411899D01*
X411906D01*
X412143Y71153D01*
D02*
G37*
G36*
X282424Y419493D02*
X282557Y419485D01*
X282682Y419470D01*
X282793Y419456D01*
X282897Y419441D01*
X282993Y419419D01*
X283082Y419404D01*
X283163Y419389D01*
X283229Y419367D01*
X283288Y419352D01*
X283333Y419337D01*
X283370Y419323D01*
X283399Y419315D01*
X283414Y419308D01*
X283422D01*
X283584Y419226D01*
X283732Y419123D01*
X283850Y419020D01*
X283954Y418909D01*
X284035Y418813D01*
X284094Y418731D01*
X284109Y418702D01*
X284124Y418680D01*
X284139Y418665D01*
Y418657D01*
X284220Y418473D01*
X284279Y418280D01*
X284323Y418081D01*
X284353Y417896D01*
X284360Y417815D01*
X284368Y417733D01*
X284375Y417659D01*
Y417600D01*
X284382Y417549D01*
Y417482D01*
X284368Y417216D01*
X284353Y417098D01*
X284338Y416987D01*
X284316Y416876D01*
X284294Y416780D01*
X284272Y416691D01*
X284242Y416610D01*
X284212Y416536D01*
X284190Y416477D01*
X284168Y416418D01*
X284146Y416373D01*
X284124Y416337D01*
X284116Y416314D01*
X284102Y416300D01*
Y416292D01*
X283991Y416129D01*
X283865Y415997D01*
X283747Y415893D01*
X283629Y415804D01*
X283525Y415738D01*
X283444Y415693D01*
X283414Y415679D01*
X283392Y415664D01*
X283377Y415657D01*
X283370D01*
X283281Y415627D01*
X283185Y415597D01*
X282985Y415553D01*
X282778Y415523D01*
X282579Y415501D01*
X282490Y415494D01*
X282402Y415486D01*
X282328D01*
X282261Y415479D01*
X282209D01*
X282172D01*
X282143D01*
X282136D01*
X279179D01*
Y416159D01*
X282136D01*
X282306D01*
X282468Y416174D01*
X282609Y416189D01*
X282742Y416211D01*
X282860Y416233D01*
X282971Y416263D01*
X283067Y416285D01*
X283148Y416314D01*
X283215Y416344D01*
X283281Y416373D01*
X283326Y416403D01*
X283370Y416425D01*
X283399Y416447D01*
X283422Y416462D01*
X283429Y416469D01*
X283436Y416477D01*
X283496Y416543D01*
X283547Y416617D01*
X283629Y416780D01*
X283688Y416950D01*
X283725Y417127D01*
X283754Y417290D01*
X283762Y417356D01*
Y417423D01*
X283769Y417467D01*
Y417541D01*
X283762Y417696D01*
X283739Y417837D01*
X283717Y417970D01*
X283680Y418074D01*
X283651Y418162D01*
X283629Y418229D01*
X283606Y418266D01*
X283599Y418280D01*
X283532Y418384D01*
X283451Y418473D01*
X283370Y418546D01*
X283296Y418598D01*
X283222Y418643D01*
X283170Y418680D01*
X283133Y418694D01*
X283118Y418702D01*
X283052Y418724D01*
X282985Y418739D01*
X282830Y418768D01*
X282668Y418790D01*
X282505Y418805D01*
X282365Y418813D01*
X282298D01*
X282246Y418820D01*
X282202D01*
X282165D01*
X282143D01*
X282136D01*
X279179D01*
Y419500D01*
X282136D01*
X282283D01*
X282424Y419493D01*
D02*
G37*
G36*
X281005Y414016D02*
X280953Y413905D01*
X280901Y413794D01*
X280849Y413690D01*
X280805Y413602D01*
X280768Y413528D01*
X280739Y413483D01*
X280731Y413476D01*
Y413469D01*
X280650Y413336D01*
X280569Y413217D01*
X280495Y413114D01*
X280428Y413032D01*
X280376Y412959D01*
X280332Y412914D01*
X280302Y412877D01*
X280295Y412870D01*
X284294D01*
Y412242D01*
X279157D01*
Y412648D01*
X279282Y412722D01*
X279401Y412803D01*
X279519Y412900D01*
X279622Y412988D01*
X279711Y413077D01*
X279785Y413143D01*
X279807Y413173D01*
X279829Y413195D01*
X279837Y413203D01*
X279844Y413210D01*
X279970Y413365D01*
X280088Y413520D01*
X280191Y413668D01*
X280273Y413816D01*
X280347Y413942D01*
X280376Y413993D01*
X280399Y414038D01*
X280421Y414075D01*
X280428Y414104D01*
X280443Y414119D01*
Y414127D01*
X281049D01*
X281005Y414016D01*
D02*
G37*
G36*
X279851Y408080D02*
X280066Y408258D01*
X280295Y408428D01*
X280517Y408576D01*
X280731Y408716D01*
X280827Y408775D01*
X280916Y408827D01*
X280997Y408879D01*
X281064Y408915D01*
X281123Y408945D01*
X281160Y408967D01*
X281189Y408982D01*
X281197Y408989D01*
X281492Y409137D01*
X281788Y409270D01*
X282069Y409381D01*
X282195Y409426D01*
X282320Y409470D01*
X282431Y409514D01*
X282535Y409544D01*
X282623Y409573D01*
X282697Y409595D01*
X282764Y409618D01*
X282808Y409632D01*
X282838Y409640D01*
X282845D01*
X283148Y409714D01*
X283296Y409743D01*
X283429Y409766D01*
X283555Y409788D01*
X283680Y409810D01*
X283784Y409825D01*
X283887Y409839D01*
X283976Y409847D01*
X284057Y409854D01*
X284131Y409862D01*
X284190D01*
X284235Y409869D01*
X284264D01*
X284286D01*
X284294D01*
Y409226D01*
X284013Y409204D01*
X283754Y409167D01*
X283518Y409130D01*
X283407Y409108D01*
X283303Y409086D01*
X283215Y409071D01*
X283133Y409049D01*
X283059Y409034D01*
X283000Y409019D01*
X282956Y409004D01*
X282919Y408997D01*
X282897Y408989D01*
X282889D01*
X282549Y408879D01*
X282232Y408760D01*
X282076Y408701D01*
X281929Y408642D01*
X281795Y408576D01*
X281662Y408516D01*
X281544Y408465D01*
X281441Y408413D01*
X281352Y408369D01*
X281271Y408332D01*
X281204Y408295D01*
X281160Y408273D01*
X281130Y408258D01*
X281123Y408250D01*
X280968Y408162D01*
X280812Y408073D01*
X280672Y407984D01*
X280539Y407896D01*
X280421Y407814D01*
X280302Y407733D01*
X280199Y407652D01*
X280110Y407585D01*
X280021Y407519D01*
X279948Y407459D01*
X279888Y407400D01*
X279837Y407356D01*
X279792Y407326D01*
X279763Y407297D01*
X279748Y407282D01*
X279741Y407275D01*
X279245D01*
Y410586D01*
X279851D01*
Y408080D01*
D02*
G37*
G36*
X282424Y337493D02*
X282557Y337485D01*
X282682Y337470D01*
X282793Y337456D01*
X282897Y337441D01*
X282993Y337419D01*
X283082Y337404D01*
X283163Y337389D01*
X283229Y337367D01*
X283288Y337352D01*
X283333Y337337D01*
X283370Y337323D01*
X283399Y337315D01*
X283414Y337308D01*
X283422D01*
X283584Y337226D01*
X283732Y337123D01*
X283850Y337020D01*
X283954Y336909D01*
X284035Y336813D01*
X284094Y336731D01*
X284109Y336702D01*
X284124Y336680D01*
X284139Y336665D01*
Y336657D01*
X284220Y336473D01*
X284279Y336280D01*
X284323Y336081D01*
X284353Y335896D01*
X284360Y335815D01*
X284368Y335733D01*
X284375Y335660D01*
Y335600D01*
X284382Y335549D01*
Y335482D01*
X284368Y335216D01*
X284353Y335098D01*
X284338Y334987D01*
X284316Y334876D01*
X284294Y334780D01*
X284272Y334691D01*
X284242Y334610D01*
X284212Y334536D01*
X284190Y334477D01*
X284168Y334418D01*
X284146Y334373D01*
X284124Y334337D01*
X284116Y334314D01*
X284102Y334300D01*
Y334292D01*
X283991Y334129D01*
X283865Y333997D01*
X283747Y333893D01*
X283629Y333804D01*
X283525Y333738D01*
X283444Y333693D01*
X283414Y333679D01*
X283392Y333664D01*
X283377Y333657D01*
X283370D01*
X283281Y333627D01*
X283185Y333597D01*
X282985Y333553D01*
X282778Y333523D01*
X282579Y333501D01*
X282490Y333494D01*
X282402Y333487D01*
X282328D01*
X282261Y333479D01*
X282209D01*
X282172D01*
X282143D01*
X282136D01*
X279179D01*
Y334159D01*
X282136D01*
X282306D01*
X282468Y334174D01*
X282609Y334189D01*
X282742Y334211D01*
X282860Y334233D01*
X282971Y334263D01*
X283067Y334285D01*
X283148Y334314D01*
X283215Y334344D01*
X283281Y334373D01*
X283326Y334403D01*
X283370Y334425D01*
X283399Y334447D01*
X283422Y334462D01*
X283429Y334469D01*
X283436Y334477D01*
X283496Y334543D01*
X283547Y334617D01*
X283629Y334780D01*
X283688Y334950D01*
X283725Y335127D01*
X283754Y335290D01*
X283762Y335356D01*
Y335423D01*
X283769Y335467D01*
Y335541D01*
X283762Y335696D01*
X283739Y335837D01*
X283717Y335970D01*
X283680Y336073D01*
X283651Y336162D01*
X283629Y336229D01*
X283606Y336266D01*
X283599Y336280D01*
X283532Y336384D01*
X283451Y336473D01*
X283370Y336547D01*
X283296Y336598D01*
X283222Y336643D01*
X283170Y336680D01*
X283133Y336694D01*
X283118Y336702D01*
X283052Y336724D01*
X282985Y336739D01*
X282830Y336768D01*
X282668Y336790D01*
X282505Y336805D01*
X282365Y336813D01*
X282298D01*
X282246Y336820D01*
X282202D01*
X282165D01*
X282143D01*
X282136D01*
X279179D01*
Y337500D01*
X282136D01*
X282283D01*
X282424Y337493D01*
D02*
G37*
G36*
X281005Y332016D02*
X280953Y331905D01*
X280901Y331794D01*
X280849Y331690D01*
X280805Y331602D01*
X280768Y331528D01*
X280739Y331483D01*
X280731Y331476D01*
Y331469D01*
X280650Y331336D01*
X280569Y331217D01*
X280495Y331114D01*
X280428Y331032D01*
X280376Y330959D01*
X280332Y330914D01*
X280302Y330877D01*
X280295Y330870D01*
X284294D01*
Y330242D01*
X279157D01*
Y330648D01*
X279282Y330722D01*
X279401Y330803D01*
X279519Y330900D01*
X279622Y330988D01*
X279711Y331077D01*
X279785Y331143D01*
X279807Y331173D01*
X279829Y331195D01*
X279837Y331203D01*
X279844Y331210D01*
X279970Y331365D01*
X280088Y331520D01*
X280191Y331668D01*
X280273Y331816D01*
X280347Y331942D01*
X280376Y331993D01*
X280399Y332038D01*
X280421Y332075D01*
X280428Y332104D01*
X280443Y332119D01*
Y332127D01*
X281049D01*
X281005Y332016D01*
D02*
G37*
G36*
X282941Y328630D02*
X283059Y328615D01*
X283170Y328593D01*
X283281Y328564D01*
X283466Y328490D01*
X283555Y328453D01*
X283629Y328409D01*
X283702Y328364D01*
X283762Y328327D01*
X283813Y328283D01*
X283858Y328253D01*
X283895Y328224D01*
X283917Y328202D01*
X283932Y328187D01*
X283939Y328180D01*
X284020Y328091D01*
X284087Y327995D01*
X284146Y327891D01*
X284198Y327788D01*
X284235Y327692D01*
X284272Y327588D01*
X284323Y327389D01*
X284345Y327300D01*
X284360Y327219D01*
X284368Y327145D01*
X284375Y327078D01*
X284382Y327026D01*
Y326953D01*
X284375Y326812D01*
X284360Y326686D01*
X284338Y326561D01*
X284316Y326442D01*
X284279Y326339D01*
X284242Y326236D01*
X284205Y326139D01*
X284161Y326058D01*
X284116Y325984D01*
X284079Y325918D01*
X284042Y325866D01*
X284006Y325814D01*
X283983Y325777D01*
X283961Y325755D01*
X283946Y325740D01*
X283939Y325733D01*
X283850Y325652D01*
X283762Y325578D01*
X283673Y325519D01*
X283577Y325467D01*
X283488Y325415D01*
X283392Y325378D01*
X283222Y325326D01*
X283141Y325304D01*
X283067Y325289D01*
X283000Y325282D01*
X282948Y325275D01*
X282904Y325267D01*
X282867D01*
X282845D01*
X282838D01*
X282668Y325275D01*
X282512Y325304D01*
X282372Y325349D01*
X282254Y325393D01*
X282158Y325437D01*
X282084Y325482D01*
X282039Y325511D01*
X282032Y325519D01*
X282025D01*
X281906Y325622D01*
X281803Y325733D01*
X281721Y325851D01*
X281648Y325962D01*
X281596Y326065D01*
X281559Y326154D01*
X281544Y326184D01*
X281537Y326206D01*
X281529Y326221D01*
Y326228D01*
X281470Y326095D01*
X281404Y325984D01*
X281337Y325888D01*
X281271Y325807D01*
X281211Y325748D01*
X281167Y325703D01*
X281138Y325674D01*
X281123Y325666D01*
X281019Y325600D01*
X280916Y325555D01*
X280812Y325519D01*
X280709Y325496D01*
X280628Y325482D01*
X280561Y325474D01*
X280517D01*
X280509D01*
X280502D01*
X280399Y325482D01*
X280302Y325489D01*
X280118Y325541D01*
X279955Y325607D01*
X279815Y325681D01*
X279704Y325755D01*
X279659Y325792D01*
X279615Y325822D01*
X279585Y325851D01*
X279563Y325873D01*
X279556Y325881D01*
X279548Y325888D01*
X279482Y325969D01*
X279415Y326051D01*
X279364Y326139D01*
X279319Y326228D01*
X279253Y326405D01*
X279209Y326583D01*
X279186Y326657D01*
X279179Y326731D01*
X279172Y326797D01*
X279164Y326856D01*
X279157Y326901D01*
Y326967D01*
X279164Y327085D01*
X279172Y327204D01*
X279216Y327411D01*
X279245Y327507D01*
X279275Y327595D01*
X279312Y327677D01*
X279349Y327751D01*
X279386Y327810D01*
X279423Y327869D01*
X279452Y327921D01*
X279482Y327958D01*
X279504Y327987D01*
X279526Y328009D01*
X279534Y328024D01*
X279541Y328032D01*
X279615Y328098D01*
X279689Y328165D01*
X279770Y328216D01*
X279851Y328261D01*
X280007Y328335D01*
X280155Y328379D01*
X280280Y328409D01*
X280339Y328416D01*
X280384Y328423D01*
X280428Y328431D01*
X280458D01*
X280472D01*
X280480D01*
X280613Y328423D01*
X280739Y328401D01*
X280849Y328372D01*
X280945Y328335D01*
X281019Y328305D01*
X281078Y328275D01*
X281108Y328253D01*
X281123Y328246D01*
X281211Y328165D01*
X281293Y328076D01*
X281367Y327980D01*
X281426Y327884D01*
X281470Y327795D01*
X281500Y327729D01*
X281515Y327699D01*
X281522Y327677D01*
X281529Y327669D01*
Y327662D01*
X281581Y327832D01*
X281648Y327972D01*
X281729Y328098D01*
X281803Y328202D01*
X281877Y328283D01*
X281936Y328342D01*
X281973Y328372D01*
X281980Y328386D01*
X281988D01*
X282121Y328468D01*
X282261Y328534D01*
X282394Y328579D01*
X282527Y328608D01*
X282645Y328623D01*
X282697Y328630D01*
X282742D01*
X282771Y328638D01*
X282801D01*
X282815D01*
X282823D01*
X282941Y328630D01*
D02*
G37*
G36*
X282424Y251993D02*
X282557Y251985D01*
X282682Y251970D01*
X282793Y251956D01*
X282897Y251941D01*
X282993Y251919D01*
X283082Y251904D01*
X283163Y251889D01*
X283229Y251867D01*
X283288Y251852D01*
X283333Y251837D01*
X283370Y251823D01*
X283399Y251815D01*
X283414Y251808D01*
X283422D01*
X283584Y251726D01*
X283732Y251623D01*
X283850Y251520D01*
X283954Y251409D01*
X284035Y251313D01*
X284094Y251231D01*
X284109Y251202D01*
X284124Y251180D01*
X284139Y251165D01*
Y251157D01*
X284220Y250973D01*
X284279Y250780D01*
X284323Y250581D01*
X284353Y250396D01*
X284360Y250315D01*
X284368Y250233D01*
X284375Y250159D01*
Y250100D01*
X284382Y250049D01*
Y249982D01*
X284368Y249716D01*
X284353Y249598D01*
X284338Y249487D01*
X284316Y249376D01*
X284294Y249280D01*
X284272Y249191D01*
X284242Y249110D01*
X284212Y249036D01*
X284190Y248977D01*
X284168Y248918D01*
X284146Y248873D01*
X284124Y248836D01*
X284116Y248814D01*
X284102Y248799D01*
Y248792D01*
X283991Y248629D01*
X283865Y248496D01*
X283747Y248393D01*
X283629Y248304D01*
X283525Y248238D01*
X283444Y248193D01*
X283414Y248179D01*
X283392Y248164D01*
X283377Y248157D01*
X283370D01*
X283281Y248127D01*
X283185Y248097D01*
X282985Y248053D01*
X282778Y248023D01*
X282579Y248001D01*
X282490Y247994D01*
X282402Y247987D01*
X282328D01*
X282261Y247979D01*
X282209D01*
X282172D01*
X282143D01*
X282136D01*
X279179D01*
Y248659D01*
X282136D01*
X282306D01*
X282468Y248674D01*
X282609Y248689D01*
X282742Y248711D01*
X282860Y248733D01*
X282971Y248763D01*
X283067Y248785D01*
X283148Y248814D01*
X283215Y248844D01*
X283281Y248873D01*
X283326Y248903D01*
X283370Y248925D01*
X283399Y248947D01*
X283422Y248962D01*
X283429Y248969D01*
X283436Y248977D01*
X283496Y249043D01*
X283547Y249117D01*
X283629Y249280D01*
X283688Y249450D01*
X283725Y249627D01*
X283754Y249790D01*
X283762Y249856D01*
Y249923D01*
X283769Y249967D01*
Y250041D01*
X283762Y250196D01*
X283739Y250337D01*
X283717Y250470D01*
X283680Y250574D01*
X283651Y250662D01*
X283629Y250729D01*
X283606Y250766D01*
X283599Y250780D01*
X283532Y250884D01*
X283451Y250973D01*
X283370Y251047D01*
X283296Y251098D01*
X283222Y251143D01*
X283170Y251180D01*
X283133Y251194D01*
X283118Y251202D01*
X283052Y251224D01*
X282985Y251239D01*
X282830Y251268D01*
X282668Y251290D01*
X282505Y251305D01*
X282365Y251313D01*
X282298D01*
X282246Y251320D01*
X282202D01*
X282165D01*
X282143D01*
X282136D01*
X279179D01*
Y252000D01*
X282136D01*
X282283D01*
X282424Y251993D01*
D02*
G37*
G36*
X284294Y243803D02*
X283688D01*
Y246323D01*
X283562Y246235D01*
X283510Y246190D01*
X283458Y246153D01*
X283414Y246116D01*
X283385Y246087D01*
X283362Y246065D01*
X283355Y246057D01*
X283318Y246020D01*
X283281Y245976D01*
X283185Y245872D01*
X283074Y245754D01*
X282963Y245629D01*
X282867Y245510D01*
X282823Y245459D01*
X282778Y245414D01*
X282749Y245377D01*
X282727Y245348D01*
X282712Y245333D01*
X282705Y245326D01*
X282601Y245207D01*
X282505Y245089D01*
X282409Y244986D01*
X282328Y244890D01*
X282246Y244801D01*
X282172Y244727D01*
X282106Y244653D01*
X282047Y244594D01*
X281988Y244535D01*
X281943Y244490D01*
X281906Y244453D01*
X281869Y244416D01*
X281825Y244380D01*
X281810Y244365D01*
X281685Y244261D01*
X281574Y244172D01*
X281463Y244099D01*
X281374Y244039D01*
X281293Y243995D01*
X281234Y243966D01*
X281197Y243951D01*
X281182Y243943D01*
X281071Y243899D01*
X280960Y243869D01*
X280857Y243840D01*
X280768Y243825D01*
X280687Y243818D01*
X280628Y243810D01*
X280591D01*
X280576D01*
X280465Y243818D01*
X280361Y243832D01*
X280258Y243847D01*
X280169Y243877D01*
X279992Y243951D01*
X279851Y244025D01*
X279785Y244069D01*
X279733Y244106D01*
X279681Y244143D01*
X279645Y244180D01*
X279615Y244209D01*
X279585Y244224D01*
X279578Y244239D01*
X279571Y244246D01*
X279497Y244328D01*
X279430Y244416D01*
X279379Y244513D01*
X279334Y244609D01*
X279260Y244801D01*
X279209Y244993D01*
X279194Y245074D01*
X279179Y245156D01*
X279172Y245229D01*
X279164Y245289D01*
X279157Y245340D01*
Y245414D01*
X279164Y245547D01*
X279172Y245673D01*
X279194Y245791D01*
X279216Y245902D01*
X279245Y246006D01*
X279275Y246102D01*
X279312Y246190D01*
X279349Y246272D01*
X279386Y246346D01*
X279423Y246405D01*
X279452Y246457D01*
X279482Y246501D01*
X279504Y246538D01*
X279526Y246560D01*
X279534Y246575D01*
X279541Y246582D01*
X279615Y246656D01*
X279696Y246723D01*
X279785Y246789D01*
X279874Y246841D01*
X280051Y246929D01*
X280229Y246989D01*
X280310Y247011D01*
X280391Y247033D01*
X280458Y247048D01*
X280517Y247062D01*
X280569Y247070D01*
X280605D01*
X280628Y247077D01*
X280635D01*
X280702Y246434D01*
X280532Y246420D01*
X280384Y246390D01*
X280251Y246346D01*
X280147Y246294D01*
X280058Y246250D01*
X279999Y246205D01*
X279962Y246176D01*
X279948Y246161D01*
X279859Y246050D01*
X279792Y245932D01*
X279741Y245806D01*
X279711Y245695D01*
X279689Y245592D01*
X279681Y245503D01*
X279674Y245473D01*
Y245429D01*
X279681Y245274D01*
X279711Y245133D01*
X279755Y245015D01*
X279800Y244912D01*
X279851Y244830D01*
X279888Y244779D01*
X279918Y244742D01*
X279933Y244727D01*
X280036Y244638D01*
X280140Y244572D01*
X280243Y244520D01*
X280347Y244490D01*
X280428Y244468D01*
X280502Y244461D01*
X280546Y244453D01*
X280554D01*
X280561D01*
X280694Y244468D01*
X280835Y244498D01*
X280960Y244550D01*
X281078Y244601D01*
X281175Y244660D01*
X281256Y244712D01*
X281285Y244727D01*
X281308Y244742D01*
X281315Y244756D01*
X281322D01*
X281404Y244816D01*
X281485Y244890D01*
X281574Y244971D01*
X281662Y245060D01*
X281840Y245244D01*
X282017Y245429D01*
X282099Y245525D01*
X282172Y245606D01*
X282239Y245688D01*
X282298Y245754D01*
X282342Y245806D01*
X282379Y245850D01*
X282402Y245880D01*
X282409Y245887D01*
X282564Y246072D01*
X282712Y246242D01*
X282845Y246383D01*
X282956Y246493D01*
X283052Y246590D01*
X283118Y246656D01*
X283163Y246693D01*
X283170Y246708D01*
X283178D01*
X283303Y246811D01*
X283422Y246893D01*
X283540Y246966D01*
X283643Y247026D01*
X283732Y247070D01*
X283799Y247099D01*
X283843Y247114D01*
X283850Y247122D01*
X283858D01*
X283939Y247151D01*
X284013Y247166D01*
X284087Y247181D01*
X284153Y247188D01*
X284212Y247196D01*
X284257D01*
X284286D01*
X284294D01*
Y243803D01*
D02*
G37*
G36*
X282032Y243123D02*
X282276Y243108D01*
X282498Y243086D01*
X282705Y243049D01*
X282897Y243012D01*
X283067Y242968D01*
X283222Y242923D01*
X283355Y242879D01*
X283473Y242835D01*
X283577Y242783D01*
X283666Y242746D01*
X283732Y242709D01*
X283791Y242672D01*
X283828Y242650D01*
X283850Y242635D01*
X283858Y242628D01*
X283946Y242546D01*
X284028Y242458D01*
X284102Y242362D01*
X284161Y242265D01*
X284212Y242169D01*
X284257Y242073D01*
X284286Y241977D01*
X284316Y241889D01*
X284338Y241800D01*
X284353Y241719D01*
X284368Y241645D01*
X284375Y241586D01*
X284382Y241534D01*
Y241460D01*
X284368Y241260D01*
X284338Y241075D01*
X284286Y240920D01*
X284235Y240787D01*
X284183Y240676D01*
X284153Y240639D01*
X284131Y240602D01*
X284116Y240573D01*
X284102Y240551D01*
X284087Y240543D01*
Y240536D01*
X283961Y240403D01*
X283828Y240292D01*
X283680Y240196D01*
X283547Y240122D01*
X283422Y240063D01*
X283370Y240033D01*
X283318Y240019D01*
X283281Y240004D01*
X283252Y239989D01*
X283237Y239982D01*
X283229D01*
X283118Y239945D01*
X283008Y239915D01*
X282771Y239871D01*
X282527Y239834D01*
X282291Y239812D01*
X282187Y239804D01*
X282091Y239797D01*
X282002D01*
X281921Y239789D01*
X281862D01*
X281810D01*
X281781D01*
X281773D01*
X281633D01*
X281500Y239797D01*
X281381D01*
X281263Y239804D01*
X281160Y239819D01*
X281056Y239826D01*
X280968Y239834D01*
X280886Y239848D01*
X280812Y239856D01*
X280746Y239871D01*
X280694Y239878D01*
X280650Y239886D01*
X280613Y239893D01*
X280591Y239900D01*
X280576Y239908D01*
X280569D01*
X280406Y239952D01*
X280258Y240004D01*
X280132Y240063D01*
X280021Y240107D01*
X279925Y240159D01*
X279859Y240189D01*
X279822Y240218D01*
X279807Y240226D01*
X279696Y240307D01*
X279600Y240388D01*
X279519Y240477D01*
X279445Y240558D01*
X279393Y240632D01*
X279356Y240691D01*
X279334Y240728D01*
X279327Y240735D01*
Y240743D01*
X279268Y240861D01*
X279231Y240987D01*
X279201Y241105D01*
X279179Y241216D01*
X279164Y241312D01*
X279157Y241393D01*
Y241460D01*
X279172Y241659D01*
X279201Y241844D01*
X279253Y241999D01*
X279305Y242132D01*
X279364Y242243D01*
X279386Y242288D01*
X279415Y242325D01*
X279430Y242354D01*
X279445Y242376D01*
X279460Y242384D01*
Y242391D01*
X279578Y242524D01*
X279718Y242635D01*
X279859Y242731D01*
X279992Y242805D01*
X280118Y242864D01*
X280169Y242894D01*
X280221Y242909D01*
X280258Y242923D01*
X280288Y242938D01*
X280302Y242945D01*
X280310D01*
X280421Y242975D01*
X280532Y243005D01*
X280775Y243049D01*
X281019Y243086D01*
X281248Y243108D01*
X281359Y243116D01*
X281455Y243123D01*
X281544D01*
X281625Y243130D01*
X281685D01*
X281736D01*
X281766D01*
X281773D01*
X282032Y243123D01*
D02*
G37*
G36*
X244424Y166993D02*
X244557Y166985D01*
X244682Y166970D01*
X244793Y166956D01*
X244897Y166941D01*
X244993Y166919D01*
X245082Y166904D01*
X245163Y166889D01*
X245229Y166867D01*
X245289Y166852D01*
X245333Y166837D01*
X245370Y166823D01*
X245399Y166815D01*
X245414Y166808D01*
X245422D01*
X245584Y166726D01*
X245732Y166623D01*
X245850Y166520D01*
X245954Y166409D01*
X246035Y166313D01*
X246094Y166231D01*
X246109Y166202D01*
X246124Y166180D01*
X246138Y166165D01*
Y166157D01*
X246220Y165973D01*
X246279Y165780D01*
X246323Y165581D01*
X246353Y165396D01*
X246360Y165315D01*
X246368Y165233D01*
X246375Y165159D01*
Y165100D01*
X246382Y165049D01*
Y164982D01*
X246368Y164716D01*
X246353Y164598D01*
X246338Y164487D01*
X246316Y164376D01*
X246294Y164280D01*
X246272Y164191D01*
X246242Y164110D01*
X246212Y164036D01*
X246190Y163977D01*
X246168Y163918D01*
X246146Y163873D01*
X246124Y163836D01*
X246116Y163814D01*
X246102Y163799D01*
Y163792D01*
X245991Y163629D01*
X245865Y163496D01*
X245747Y163393D01*
X245629Y163304D01*
X245525Y163238D01*
X245444Y163193D01*
X245414Y163179D01*
X245392Y163164D01*
X245377Y163157D01*
X245370D01*
X245281Y163127D01*
X245185Y163097D01*
X244986Y163053D01*
X244778Y163023D01*
X244579Y163001D01*
X244490Y162994D01*
X244401Y162987D01*
X244328D01*
X244261Y162979D01*
X244209D01*
X244172D01*
X244143D01*
X244135D01*
X241179D01*
Y163659D01*
X244135D01*
X244305D01*
X244468Y163674D01*
X244608Y163689D01*
X244741Y163711D01*
X244860Y163733D01*
X244971Y163763D01*
X245067Y163785D01*
X245148Y163814D01*
X245215Y163844D01*
X245281Y163873D01*
X245326Y163903D01*
X245370Y163925D01*
X245399Y163947D01*
X245422Y163962D01*
X245429Y163969D01*
X245436Y163977D01*
X245495Y164043D01*
X245547Y164117D01*
X245629Y164280D01*
X245688Y164450D01*
X245725Y164627D01*
X245754Y164790D01*
X245762Y164856D01*
Y164923D01*
X245769Y164967D01*
Y165041D01*
X245762Y165196D01*
X245739Y165337D01*
X245717Y165470D01*
X245680Y165574D01*
X245651Y165662D01*
X245629Y165729D01*
X245606Y165766D01*
X245599Y165780D01*
X245532Y165884D01*
X245451Y165973D01*
X245370Y166047D01*
X245296Y166098D01*
X245222Y166143D01*
X245170Y166180D01*
X245133Y166194D01*
X245119Y166202D01*
X245052Y166224D01*
X244986Y166239D01*
X244830Y166268D01*
X244668Y166290D01*
X244505Y166305D01*
X244365Y166313D01*
X244298D01*
X244246Y166320D01*
X244202D01*
X244165D01*
X244143D01*
X244135D01*
X241179D01*
Y167000D01*
X244135D01*
X244283D01*
X244424Y166993D01*
D02*
G37*
G36*
X246294Y158803D02*
X245688D01*
Y161323D01*
X245562Y161235D01*
X245510Y161190D01*
X245459Y161153D01*
X245414Y161116D01*
X245385Y161087D01*
X245362Y161065D01*
X245355Y161057D01*
X245318Y161020D01*
X245281Y160976D01*
X245185Y160872D01*
X245074Y160754D01*
X244963Y160629D01*
X244867Y160510D01*
X244823Y160459D01*
X244778Y160414D01*
X244749Y160377D01*
X244727Y160348D01*
X244712Y160333D01*
X244705Y160326D01*
X244601Y160207D01*
X244505Y160089D01*
X244409Y159986D01*
X244328Y159889D01*
X244246Y159801D01*
X244172Y159727D01*
X244106Y159653D01*
X244047Y159594D01*
X243988Y159535D01*
X243943Y159490D01*
X243906Y159453D01*
X243869Y159416D01*
X243825Y159380D01*
X243810Y159365D01*
X243685Y159261D01*
X243574Y159172D01*
X243463Y159099D01*
X243374Y159039D01*
X243293Y158995D01*
X243234Y158966D01*
X243197Y158951D01*
X243182Y158943D01*
X243071Y158899D01*
X242960Y158869D01*
X242857Y158840D01*
X242768Y158825D01*
X242687Y158818D01*
X242628Y158810D01*
X242591D01*
X242576D01*
X242465Y158818D01*
X242362Y158833D01*
X242258Y158847D01*
X242169Y158877D01*
X241992Y158951D01*
X241852Y159025D01*
X241785Y159069D01*
X241733Y159106D01*
X241681Y159143D01*
X241645Y159180D01*
X241615Y159209D01*
X241585Y159224D01*
X241578Y159239D01*
X241571Y159246D01*
X241497Y159328D01*
X241430Y159416D01*
X241378Y159513D01*
X241334Y159609D01*
X241260Y159801D01*
X241208Y159993D01*
X241194Y160074D01*
X241179Y160156D01*
X241171Y160229D01*
X241164Y160289D01*
X241157Y160340D01*
Y160414D01*
X241164Y160547D01*
X241171Y160673D01*
X241194Y160791D01*
X241216Y160902D01*
X241245Y161006D01*
X241275Y161102D01*
X241312Y161190D01*
X241349Y161272D01*
X241386Y161346D01*
X241423Y161405D01*
X241452Y161456D01*
X241482Y161501D01*
X241504Y161538D01*
X241526Y161560D01*
X241534Y161575D01*
X241541Y161582D01*
X241615Y161656D01*
X241696Y161723D01*
X241785Y161789D01*
X241874Y161841D01*
X242051Y161929D01*
X242229Y161989D01*
X242310Y162011D01*
X242391Y162033D01*
X242458Y162048D01*
X242517Y162062D01*
X242568Y162070D01*
X242605D01*
X242628Y162077D01*
X242635D01*
X242701Y161434D01*
X242532Y161420D01*
X242384Y161390D01*
X242251Y161346D01*
X242147Y161294D01*
X242059Y161250D01*
X241999Y161205D01*
X241962Y161176D01*
X241948Y161161D01*
X241859Y161050D01*
X241792Y160932D01*
X241741Y160806D01*
X241711Y160695D01*
X241689Y160592D01*
X241681Y160503D01*
X241674Y160473D01*
Y160429D01*
X241681Y160274D01*
X241711Y160133D01*
X241755Y160015D01*
X241800Y159912D01*
X241852Y159830D01*
X241889Y159779D01*
X241918Y159742D01*
X241933Y159727D01*
X242036Y159638D01*
X242140Y159572D01*
X242243Y159520D01*
X242347Y159490D01*
X242428Y159468D01*
X242502Y159461D01*
X242546Y159453D01*
X242554D01*
X242561D01*
X242694Y159468D01*
X242835Y159498D01*
X242960Y159550D01*
X243078Y159601D01*
X243175Y159660D01*
X243256Y159712D01*
X243285Y159727D01*
X243308Y159742D01*
X243315Y159756D01*
X243322D01*
X243404Y159816D01*
X243485Y159889D01*
X243574Y159971D01*
X243662Y160060D01*
X243840Y160244D01*
X244017Y160429D01*
X244098Y160525D01*
X244172Y160606D01*
X244239Y160688D01*
X244298Y160754D01*
X244342Y160806D01*
X244379Y160850D01*
X244401Y160880D01*
X244409Y160887D01*
X244564Y161072D01*
X244712Y161242D01*
X244845Y161383D01*
X244956Y161493D01*
X245052Y161590D01*
X245119Y161656D01*
X245163Y161693D01*
X245170Y161708D01*
X245178D01*
X245303Y161811D01*
X245422Y161893D01*
X245540Y161966D01*
X245643Y162026D01*
X245732Y162070D01*
X245798Y162099D01*
X245843Y162114D01*
X245850Y162122D01*
X245858D01*
X245939Y162151D01*
X246013Y162166D01*
X246087Y162181D01*
X246153Y162188D01*
X246212Y162196D01*
X246257D01*
X246286D01*
X246294D01*
Y158803D01*
D02*
G37*
G36*
X243005Y157539D02*
X242953Y157428D01*
X242901Y157317D01*
X242849Y157214D01*
X242805Y157125D01*
X242768Y157051D01*
X242738Y157007D01*
X242731Y156999D01*
Y156992D01*
X242650Y156859D01*
X242568Y156741D01*
X242495Y156637D01*
X242428Y156556D01*
X242376Y156482D01*
X242332Y156438D01*
X242302Y156401D01*
X242295Y156393D01*
X246294D01*
Y155765D01*
X241157D01*
Y156172D01*
X241282Y156245D01*
X241401Y156327D01*
X241519Y156423D01*
X241622Y156512D01*
X241711Y156600D01*
X241785Y156667D01*
X241807Y156696D01*
X241829Y156719D01*
X241837Y156726D01*
X241844Y156733D01*
X241970Y156889D01*
X242088Y157044D01*
X242192Y157192D01*
X242273Y157339D01*
X242347Y157465D01*
X242376Y157517D01*
X242398Y157561D01*
X242421Y157598D01*
X242428Y157628D01*
X242443Y157642D01*
Y157650D01*
X243049D01*
X243005Y157539D01*
D02*
G37*
G36*
X242424Y81993D02*
X242557Y81985D01*
X242682Y81970D01*
X242793Y81956D01*
X242897Y81941D01*
X242993Y81919D01*
X243082Y81904D01*
X243163Y81889D01*
X243229Y81867D01*
X243288Y81852D01*
X243333Y81837D01*
X243370Y81823D01*
X243399Y81815D01*
X243414Y81808D01*
X243422D01*
X243584Y81727D01*
X243732Y81623D01*
X243850Y81519D01*
X243954Y81409D01*
X244035Y81313D01*
X244094Y81231D01*
X244109Y81202D01*
X244124Y81180D01*
X244139Y81165D01*
Y81157D01*
X244220Y80973D01*
X244279Y80780D01*
X244323Y80581D01*
X244353Y80396D01*
X244360Y80315D01*
X244368Y80233D01*
X244375Y80160D01*
Y80100D01*
X244382Y80049D01*
Y79982D01*
X244368Y79716D01*
X244353Y79598D01*
X244338Y79487D01*
X244316Y79376D01*
X244294Y79280D01*
X244272Y79191D01*
X244242Y79110D01*
X244212Y79036D01*
X244190Y78977D01*
X244168Y78918D01*
X244146Y78873D01*
X244124Y78836D01*
X244116Y78814D01*
X244102Y78800D01*
Y78792D01*
X243991Y78629D01*
X243865Y78496D01*
X243747Y78393D01*
X243629Y78304D01*
X243525Y78238D01*
X243444Y78193D01*
X243414Y78179D01*
X243392Y78164D01*
X243377Y78156D01*
X243370D01*
X243281Y78127D01*
X243185Y78097D01*
X242985Y78053D01*
X242778Y78023D01*
X242579Y78001D01*
X242490Y77994D01*
X242402Y77986D01*
X242328D01*
X242261Y77979D01*
X242209D01*
X242172D01*
X242143D01*
X242136D01*
X239179D01*
Y78659D01*
X242136D01*
X242306D01*
X242468Y78674D01*
X242609Y78689D01*
X242742Y78711D01*
X242860Y78733D01*
X242971Y78763D01*
X243067Y78785D01*
X243148Y78814D01*
X243215Y78844D01*
X243281Y78873D01*
X243326Y78903D01*
X243370Y78925D01*
X243399Y78947D01*
X243422Y78962D01*
X243429Y78969D01*
X243436Y78977D01*
X243496Y79043D01*
X243547Y79117D01*
X243629Y79280D01*
X243688Y79450D01*
X243725Y79627D01*
X243754Y79790D01*
X243762Y79857D01*
Y79923D01*
X243769Y79967D01*
Y80041D01*
X243762Y80197D01*
X243739Y80337D01*
X243717Y80470D01*
X243680Y80573D01*
X243651Y80662D01*
X243629Y80729D01*
X243606Y80766D01*
X243599Y80780D01*
X243532Y80884D01*
X243451Y80973D01*
X243370Y81046D01*
X243296Y81098D01*
X243222Y81143D01*
X243170Y81180D01*
X243133Y81194D01*
X243118Y81202D01*
X243052Y81224D01*
X242985Y81239D01*
X242830Y81268D01*
X242668Y81290D01*
X242505Y81305D01*
X242365Y81313D01*
X242298D01*
X242246Y81320D01*
X242202D01*
X242165D01*
X242143D01*
X242136D01*
X239179D01*
Y82000D01*
X242136D01*
X242283D01*
X242424Y81993D01*
D02*
G37*
G36*
X244294Y73803D02*
X243688D01*
Y76323D01*
X243562Y76235D01*
X243510Y76190D01*
X243458Y76153D01*
X243414Y76116D01*
X243385Y76087D01*
X243362Y76065D01*
X243355Y76057D01*
X243318Y76020D01*
X243281Y75976D01*
X243185Y75873D01*
X243074Y75754D01*
X242963Y75629D01*
X242867Y75510D01*
X242823Y75459D01*
X242778Y75414D01*
X242749Y75377D01*
X242727Y75348D01*
X242712Y75333D01*
X242705Y75326D01*
X242601Y75207D01*
X242505Y75089D01*
X242409Y74985D01*
X242328Y74889D01*
X242246Y74801D01*
X242172Y74727D01*
X242106Y74653D01*
X242047Y74594D01*
X241988Y74535D01*
X241943Y74490D01*
X241906Y74453D01*
X241869Y74416D01*
X241825Y74380D01*
X241810Y74365D01*
X241685Y74261D01*
X241574Y74173D01*
X241463Y74099D01*
X241374Y74040D01*
X241293Y73995D01*
X241234Y73966D01*
X241197Y73951D01*
X241182Y73943D01*
X241071Y73899D01*
X240960Y73869D01*
X240857Y73840D01*
X240768Y73825D01*
X240687Y73818D01*
X240628Y73810D01*
X240591D01*
X240576D01*
X240465Y73818D01*
X240361Y73833D01*
X240258Y73847D01*
X240169Y73877D01*
X239992Y73951D01*
X239851Y74025D01*
X239785Y74069D01*
X239733Y74106D01*
X239681Y74143D01*
X239645Y74180D01*
X239615Y74209D01*
X239585Y74224D01*
X239578Y74239D01*
X239571Y74246D01*
X239497Y74328D01*
X239430Y74416D01*
X239379Y74513D01*
X239334Y74609D01*
X239260Y74801D01*
X239209Y74993D01*
X239194Y75074D01*
X239179Y75156D01*
X239172Y75230D01*
X239164Y75289D01*
X239157Y75340D01*
Y75414D01*
X239164Y75547D01*
X239172Y75673D01*
X239194Y75791D01*
X239216Y75902D01*
X239245Y76006D01*
X239275Y76102D01*
X239312Y76190D01*
X239349Y76272D01*
X239386Y76346D01*
X239423Y76405D01*
X239452Y76456D01*
X239482Y76501D01*
X239504Y76538D01*
X239526Y76560D01*
X239534Y76575D01*
X239541Y76582D01*
X239615Y76656D01*
X239696Y76722D01*
X239785Y76789D01*
X239874Y76841D01*
X240051Y76929D01*
X240229Y76989D01*
X240310Y77011D01*
X240391Y77033D01*
X240458Y77048D01*
X240517Y77063D01*
X240569Y77070D01*
X240605D01*
X240628Y77077D01*
X240635D01*
X240702Y76434D01*
X240532Y76420D01*
X240384Y76390D01*
X240251Y76346D01*
X240147Y76294D01*
X240058Y76249D01*
X239999Y76205D01*
X239962Y76176D01*
X239948Y76161D01*
X239859Y76050D01*
X239792Y75932D01*
X239741Y75806D01*
X239711Y75695D01*
X239689Y75592D01*
X239681Y75503D01*
X239674Y75473D01*
Y75429D01*
X239681Y75274D01*
X239711Y75133D01*
X239755Y75015D01*
X239800Y74912D01*
X239851Y74830D01*
X239888Y74779D01*
X239918Y74742D01*
X239933Y74727D01*
X240036Y74638D01*
X240140Y74572D01*
X240243Y74520D01*
X240347Y74490D01*
X240428Y74468D01*
X240502Y74461D01*
X240546Y74453D01*
X240554D01*
X240561D01*
X240694Y74468D01*
X240835Y74498D01*
X240960Y74549D01*
X241078Y74601D01*
X241175Y74660D01*
X241256Y74712D01*
X241285Y74727D01*
X241308Y74742D01*
X241315Y74756D01*
X241322D01*
X241404Y74816D01*
X241485Y74889D01*
X241574Y74971D01*
X241662Y75059D01*
X241840Y75244D01*
X242017Y75429D01*
X242099Y75525D01*
X242172Y75606D01*
X242239Y75688D01*
X242298Y75754D01*
X242342Y75806D01*
X242379Y75850D01*
X242402Y75880D01*
X242409Y75887D01*
X242564Y76072D01*
X242712Y76242D01*
X242845Y76382D01*
X242956Y76493D01*
X243052Y76589D01*
X243118Y76656D01*
X243163Y76693D01*
X243170Y76708D01*
X243178D01*
X243303Y76811D01*
X243422Y76892D01*
X243540Y76966D01*
X243643Y77026D01*
X243732Y77070D01*
X243799Y77099D01*
X243843Y77114D01*
X243850Y77122D01*
X243858D01*
X243939Y77151D01*
X244013Y77166D01*
X244087Y77181D01*
X244153Y77188D01*
X244212Y77196D01*
X244257D01*
X244286D01*
X244294D01*
Y73803D01*
D02*
G37*
G36*
Y69826D02*
X243688D01*
Y72347D01*
X243562Y72258D01*
X243510Y72214D01*
X243458Y72177D01*
X243414Y72140D01*
X243385Y72110D01*
X243362Y72088D01*
X243355Y72081D01*
X243318Y72044D01*
X243281Y71999D01*
X243185Y71896D01*
X243074Y71778D01*
X242963Y71652D01*
X242867Y71534D01*
X242823Y71482D01*
X242778Y71438D01*
X242749Y71401D01*
X242727Y71371D01*
X242712Y71356D01*
X242705Y71349D01*
X242601Y71231D01*
X242505Y71112D01*
X242409Y71009D01*
X242328Y70913D01*
X242246Y70824D01*
X242172Y70750D01*
X242106Y70676D01*
X242047Y70617D01*
X241988Y70558D01*
X241943Y70514D01*
X241906Y70477D01*
X241869Y70440D01*
X241825Y70403D01*
X241810Y70388D01*
X241685Y70285D01*
X241574Y70196D01*
X241463Y70122D01*
X241374Y70063D01*
X241293Y70019D01*
X241234Y69989D01*
X241197Y69974D01*
X241182Y69967D01*
X241071Y69922D01*
X240960Y69893D01*
X240857Y69863D01*
X240768Y69848D01*
X240687Y69841D01*
X240628Y69834D01*
X240591D01*
X240576D01*
X240465Y69841D01*
X240361Y69856D01*
X240258Y69871D01*
X240169Y69900D01*
X239992Y69974D01*
X239851Y70048D01*
X239785Y70092D01*
X239733Y70129D01*
X239681Y70166D01*
X239645Y70203D01*
X239615Y70233D01*
X239585Y70248D01*
X239578Y70262D01*
X239571Y70270D01*
X239497Y70351D01*
X239430Y70440D01*
X239379Y70536D01*
X239334Y70632D01*
X239260Y70824D01*
X239209Y71016D01*
X239194Y71098D01*
X239179Y71179D01*
X239172Y71253D01*
X239164Y71312D01*
X239157Y71364D01*
Y71438D01*
X239164Y71571D01*
X239172Y71696D01*
X239194Y71815D01*
X239216Y71926D01*
X239245Y72029D01*
X239275Y72125D01*
X239312Y72214D01*
X239349Y72295D01*
X239386Y72369D01*
X239423Y72428D01*
X239452Y72480D01*
X239482Y72524D01*
X239504Y72561D01*
X239526Y72583D01*
X239534Y72598D01*
X239541Y72606D01*
X239615Y72679D01*
X239696Y72746D01*
X239785Y72812D01*
X239874Y72864D01*
X240051Y72953D01*
X240229Y73012D01*
X240310Y73034D01*
X240391Y73056D01*
X240458Y73071D01*
X240517Y73086D01*
X240569Y73093D01*
X240605D01*
X240628Y73101D01*
X240635D01*
X240702Y72458D01*
X240532Y72443D01*
X240384Y72413D01*
X240251Y72369D01*
X240147Y72317D01*
X240058Y72273D01*
X239999Y72229D01*
X239962Y72199D01*
X239948Y72184D01*
X239859Y72073D01*
X239792Y71955D01*
X239741Y71829D01*
X239711Y71719D01*
X239689Y71615D01*
X239681Y71526D01*
X239674Y71497D01*
Y71452D01*
X239681Y71297D01*
X239711Y71157D01*
X239755Y71038D01*
X239800Y70935D01*
X239851Y70854D01*
X239888Y70802D01*
X239918Y70765D01*
X239933Y70750D01*
X240036Y70662D01*
X240140Y70595D01*
X240243Y70543D01*
X240347Y70514D01*
X240428Y70492D01*
X240502Y70484D01*
X240546Y70477D01*
X240554D01*
X240561D01*
X240694Y70492D01*
X240835Y70521D01*
X240960Y70573D01*
X241078Y70625D01*
X241175Y70684D01*
X241256Y70736D01*
X241285Y70750D01*
X241308Y70765D01*
X241315Y70780D01*
X241322D01*
X241404Y70839D01*
X241485Y70913D01*
X241574Y70994D01*
X241662Y71083D01*
X241840Y71268D01*
X242017Y71452D01*
X242099Y71549D01*
X242172Y71630D01*
X242239Y71711D01*
X242298Y71778D01*
X242342Y71829D01*
X242379Y71874D01*
X242402Y71903D01*
X242409Y71911D01*
X242564Y72095D01*
X242712Y72266D01*
X242845Y72406D01*
X242956Y72517D01*
X243052Y72613D01*
X243118Y72679D01*
X243163Y72716D01*
X243170Y72731D01*
X243178D01*
X243303Y72835D01*
X243422Y72916D01*
X243540Y72990D01*
X243643Y73049D01*
X243732Y73093D01*
X243799Y73123D01*
X243843Y73138D01*
X243850Y73145D01*
X243858D01*
X243939Y73175D01*
X244013Y73189D01*
X244087Y73204D01*
X244153Y73212D01*
X244212Y73219D01*
X244257D01*
X244286D01*
X244294D01*
Y69826D01*
D02*
G37*
%LPC*%
G36*
X327363Y531174D02*
X325532D01*
Y528890D01*
X327252D01*
X327316Y528899D01*
X327381D01*
X327455Y528909D01*
X327631Y528927D01*
X327825Y528964D01*
X328019Y529020D01*
X328195Y529094D01*
X328278Y529140D01*
X328343Y529195D01*
X328361Y529214D01*
X328398Y529251D01*
X328454Y529325D01*
X328518Y529417D01*
X328583Y529537D01*
X328638Y529685D01*
X328675Y529852D01*
X328694Y530046D01*
Y530055D01*
Y530064D01*
Y530111D01*
X328685Y530194D01*
X328666Y530286D01*
X328648Y530388D01*
X328611Y530508D01*
X328555Y530619D01*
X328491Y530730D01*
X328481Y530739D01*
X328454Y530776D01*
X328407Y530822D01*
X328352Y530887D01*
X328269Y530952D01*
X328176Y531007D01*
X328074Y531063D01*
X327954Y531109D01*
X327945D01*
X327908Y531118D01*
X327853Y531128D01*
X327779Y531146D01*
X327668Y531155D01*
X327529Y531165D01*
X327363Y531174D01*
D02*
G37*
G36*
X77773Y447853D02*
X77729D01*
X77573Y447838D01*
X77433Y447801D01*
X77315Y447757D01*
X77211Y447698D01*
X77130Y447639D01*
X77071Y447594D01*
X77034Y447557D01*
X77019Y447542D01*
X76923Y447417D01*
X76849Y447284D01*
X76797Y447143D01*
X76768Y447010D01*
X76746Y446892D01*
X76738Y446840D01*
Y446796D01*
X76731Y446759D01*
Y446730D01*
Y446715D01*
Y446707D01*
X76746Y446508D01*
X76775Y446338D01*
X76820Y446190D01*
X76871Y446064D01*
X76930Y445968D01*
X76975Y445894D01*
X77004Y445850D01*
X77019Y445843D01*
Y445835D01*
X77071Y445776D01*
X77130Y445732D01*
X77248Y445650D01*
X77366Y445599D01*
X77470Y445554D01*
X77566Y445532D01*
X77640Y445525D01*
X77670Y445517D01*
X77706D01*
X77810Y445525D01*
X77906Y445539D01*
X77995Y445569D01*
X78069Y445599D01*
X78135Y445621D01*
X78187Y445650D01*
X78217Y445665D01*
X78231Y445672D01*
X78320Y445739D01*
X78394Y445806D01*
X78460Y445887D01*
X78512Y445953D01*
X78556Y446020D01*
X78586Y446072D01*
X78608Y446109D01*
X78616Y446123D01*
X78660Y446234D01*
X78690Y446345D01*
X78719Y446449D01*
X78734Y446545D01*
X78741Y446626D01*
X78749Y446693D01*
Y446730D01*
Y446744D01*
X78734Y446922D01*
X78704Y447077D01*
X78653Y447217D01*
X78601Y447328D01*
X78549Y447424D01*
X78497Y447491D01*
X78468Y447528D01*
X78453Y447542D01*
X78335Y447646D01*
X78217Y447720D01*
X78091Y447779D01*
X77980Y447816D01*
X77877Y447838D01*
X77803Y447846D01*
X77773Y447853D01*
D02*
G37*
G36*
X561410Y214095D02*
Y211803D01*
X563021D01*
X561410Y214095D01*
D02*
G37*
G36*
X392000Y458103D02*
X391955D01*
X391800Y458088D01*
X391660Y458051D01*
X391541Y458007D01*
X391438Y457948D01*
X391357Y457889D01*
X391297Y457844D01*
X391260Y457807D01*
X391246Y457793D01*
X391150Y457667D01*
X391076Y457534D01*
X391024Y457393D01*
X390994Y457260D01*
X390972Y457142D01*
X390965Y457090D01*
Y457046D01*
X390957Y457009D01*
Y456979D01*
Y456965D01*
Y456957D01*
X390972Y456758D01*
X391002Y456588D01*
X391046Y456440D01*
X391098Y456314D01*
X391157Y456218D01*
X391201Y456144D01*
X391231Y456100D01*
X391246Y456092D01*
Y456085D01*
X391297Y456026D01*
X391357Y455982D01*
X391475Y455900D01*
X391593Y455849D01*
X391697Y455804D01*
X391793Y455782D01*
X391867Y455775D01*
X391896Y455767D01*
X391933D01*
X392037Y455775D01*
X392133Y455789D01*
X392221Y455819D01*
X392295Y455849D01*
X392362Y455871D01*
X392413Y455900D01*
X392443Y455915D01*
X392458Y455923D01*
X392547Y455989D01*
X392621Y456055D01*
X392687Y456137D01*
X392739Y456203D01*
X392783Y456270D01*
X392813Y456322D01*
X392835Y456359D01*
X392842Y456373D01*
X392887Y456484D01*
X392916Y456595D01*
X392946Y456699D01*
X392961Y456795D01*
X392968Y456876D01*
X392975Y456942D01*
Y456979D01*
Y456994D01*
X392961Y457172D01*
X392931Y457327D01*
X392879Y457467D01*
X392827Y457578D01*
X392776Y457674D01*
X392724Y457741D01*
X392694Y457778D01*
X392680Y457793D01*
X392561Y457896D01*
X392443Y457970D01*
X392318Y458029D01*
X392207Y458066D01*
X392103Y458088D01*
X392029Y458096D01*
X392000Y458103D01*
D02*
G37*
G36*
X396801Y294708D02*
X396742D01*
X396617Y294701D01*
X396498Y294671D01*
X396402Y294634D01*
X396314Y294590D01*
X396247Y294546D01*
X396195Y294509D01*
X396158Y294479D01*
X396151Y294472D01*
X396070Y294376D01*
X396011Y294279D01*
X395966Y294183D01*
X395937Y294095D01*
X395922Y294013D01*
X395907Y293947D01*
Y293902D01*
Y293895D01*
Y293888D01*
X395914Y293769D01*
X395944Y293659D01*
X395981Y293563D01*
X396025Y293481D01*
X396070Y293415D01*
X396107Y293370D01*
X396136Y293333D01*
X396143Y293326D01*
X396232Y293252D01*
X396336Y293193D01*
X396432Y293156D01*
X396528Y293126D01*
X396617Y293112D01*
X396683Y293104D01*
X396727Y293097D01*
X396742D01*
X396875Y293104D01*
X396993Y293134D01*
X397097Y293171D01*
X397186Y293215D01*
X397252Y293252D01*
X397304Y293289D01*
X397341Y293319D01*
X397348Y293326D01*
X397422Y293415D01*
X397481Y293518D01*
X397518Y293614D01*
X397548Y293710D01*
X397563Y293792D01*
X397570Y293858D01*
X397578Y293902D01*
Y293910D01*
Y293917D01*
X397570Y294036D01*
X397541Y294139D01*
X397504Y294235D01*
X397459Y294317D01*
X397422Y294383D01*
X397385Y294435D01*
X397356Y294464D01*
X397348Y294472D01*
X397252Y294553D01*
X397156Y294612D01*
X397053Y294649D01*
X396957Y294679D01*
X396868Y294693D01*
X396801Y294708D01*
D02*
G37*
G36*
X396809Y292587D02*
X396764D01*
X396602Y292572D01*
X396454Y292542D01*
X396321Y292491D01*
X396210Y292439D01*
X396121Y292380D01*
X396055Y292328D01*
X396018Y292299D01*
X396003Y292284D01*
X395900Y292166D01*
X395826Y292040D01*
X395774Y291914D01*
X395737Y291803D01*
X395715Y291693D01*
X395707Y291611D01*
X395700Y291582D01*
Y291560D01*
Y291545D01*
Y291537D01*
X395715Y291382D01*
X395744Y291234D01*
X395796Y291109D01*
X395848Y291005D01*
X395900Y290924D01*
X395951Y290857D01*
X395981Y290820D01*
X395996Y290805D01*
X396114Y290709D01*
X396232Y290636D01*
X396358Y290591D01*
X396476Y290554D01*
X396580Y290532D01*
X396668Y290525D01*
X396698Y290517D01*
X396742D01*
X396846Y290525D01*
X396949Y290539D01*
X397045Y290562D01*
X397127Y290584D01*
X397193Y290606D01*
X397245Y290628D01*
X397274Y290643D01*
X397289Y290650D01*
X397378Y290709D01*
X397452Y290769D01*
X397518Y290835D01*
X397570Y290902D01*
X397614Y290953D01*
X397644Y290998D01*
X397659Y291035D01*
X397666Y291042D01*
X397703Y291138D01*
X397733Y291227D01*
X397755Y291315D01*
X397770Y291397D01*
X397777Y291463D01*
X397784Y291515D01*
Y291545D01*
Y291560D01*
X397770Y291715D01*
X397740Y291855D01*
X397696Y291981D01*
X397637Y292092D01*
X397585Y292173D01*
X397541Y292239D01*
X397511Y292276D01*
X397496Y292291D01*
X397385Y292387D01*
X397260Y292461D01*
X397141Y292513D01*
X397023Y292550D01*
X396920Y292572D01*
X396838Y292579D01*
X396809Y292587D01*
D02*
G37*
G36*
X352779Y212208D02*
X352661D01*
X352587Y212193D01*
X352454Y212156D01*
X352336Y212105D01*
X352232Y212053D01*
X352151Y211994D01*
X352092Y211942D01*
X352055Y211905D01*
X352040Y211898D01*
Y211890D01*
X351944Y211765D01*
X351870Y211624D01*
X351818Y211476D01*
X351789Y211336D01*
X351767Y211218D01*
X351759Y211166D01*
Y211114D01*
X351752Y211077D01*
Y211048D01*
Y211033D01*
Y211026D01*
X351767Y210833D01*
X351796Y210663D01*
X351841Y210523D01*
X351892Y210405D01*
X351951Y210309D01*
X351996Y210242D01*
X352025Y210198D01*
X352040Y210183D01*
X352151Y210079D01*
X352269Y210005D01*
X352387Y209954D01*
X352506Y209917D01*
X352602Y209895D01*
X352683Y209887D01*
X352713Y209880D01*
X352757D01*
X352912Y209895D01*
X353053Y209924D01*
X353178Y209976D01*
X353289Y210035D01*
X353371Y210087D01*
X353437Y210139D01*
X353474Y210168D01*
X353489Y210183D01*
X353585Y210301D01*
X353659Y210434D01*
X353703Y210567D01*
X353740Y210693D01*
X353762Y210804D01*
X353770Y210848D01*
Y210893D01*
X353777Y210930D01*
Y210952D01*
Y210966D01*
Y210974D01*
X353762Y211166D01*
X353733Y211343D01*
X353681Y211499D01*
X353622Y211624D01*
X353570Y211728D01*
X353518Y211802D01*
X353503Y211824D01*
X353489Y211846D01*
X353474Y211853D01*
Y211861D01*
X353415Y211920D01*
X353356Y211979D01*
X353230Y212060D01*
X353104Y212127D01*
X352986Y212164D01*
X352890Y212193D01*
X352809Y212201D01*
X352779Y212208D01*
D02*
G37*
G36*
X347825Y127208D02*
X347780D01*
X347699Y127201D01*
X347618Y127193D01*
X347544Y127171D01*
X347477Y127142D01*
X347352Y127075D01*
X347241Y127001D01*
X347160Y126920D01*
X347093Y126853D01*
X347071Y126824D01*
X347056Y126802D01*
X347041Y126794D01*
Y126787D01*
X346990Y126698D01*
X346945Y126595D01*
X346901Y126476D01*
X346871Y126351D01*
X346842Y126218D01*
X346820Y126077D01*
X346783Y125796D01*
X346768Y125656D01*
X346760Y125530D01*
X346753Y125412D01*
Y125316D01*
X346746Y125227D01*
Y125161D01*
Y125124D01*
Y125116D01*
Y125109D01*
Y124880D01*
X346760Y124673D01*
X346775Y124488D01*
X346790Y124311D01*
X346812Y124163D01*
X346842Y124023D01*
X346871Y123904D01*
X346894Y123793D01*
X346923Y123705D01*
X346953Y123631D01*
X346975Y123564D01*
X347004Y123512D01*
X347019Y123476D01*
X347034Y123453D01*
X347049Y123439D01*
Y123431D01*
X347108Y123357D01*
X347167Y123298D01*
X347226Y123239D01*
X347285Y123195D01*
X347411Y123121D01*
X347522Y123069D01*
X347625Y123040D01*
X347699Y123025D01*
X347729Y123017D01*
X347773D01*
X347854Y123025D01*
X347928Y123032D01*
X348069Y123084D01*
X348194Y123150D01*
X348305Y123224D01*
X348386Y123298D01*
X348453Y123365D01*
X348490Y123416D01*
X348505Y123424D01*
Y123431D01*
X348557Y123520D01*
X348601Y123623D01*
X348645Y123742D01*
X348675Y123867D01*
X348704Y124000D01*
X348727Y124141D01*
X348764Y124429D01*
X348778Y124562D01*
X348786Y124688D01*
X348793Y124806D01*
Y124902D01*
X348800Y124991D01*
Y125057D01*
Y125094D01*
Y125109D01*
X348793Y125338D01*
X348786Y125545D01*
X348771Y125737D01*
X348749Y125915D01*
X348727Y126070D01*
X348697Y126210D01*
X348667Y126336D01*
X348638Y126447D01*
X348608Y126543D01*
X348586Y126624D01*
X348557Y126691D01*
X348534Y126750D01*
X348512Y126787D01*
X348497Y126817D01*
X348483Y126831D01*
Y126839D01*
X348431Y126905D01*
X348379Y126964D01*
X348320Y127009D01*
X348261Y127053D01*
X348143Y127120D01*
X348032Y127164D01*
X347936Y127186D01*
X347854Y127201D01*
X347825Y127208D01*
D02*
G37*
G36*
X187933Y211095D02*
Y208803D01*
X189544D01*
X187933Y211095D01*
D02*
G37*
G36*
X624990Y89208D02*
X622699Y87596D01*
X624990D01*
Y89208D01*
D02*
G37*
G36*
X620480Y414264D02*
X620472D01*
X620465D01*
X620347Y414257D01*
X620243Y414227D01*
X620147Y414190D01*
X620066Y414146D01*
X619999Y414109D01*
X619948Y414072D01*
X619918Y414043D01*
X619911Y414035D01*
X619829Y413939D01*
X619770Y413843D01*
X619733Y413740D01*
X619704Y413643D01*
X619689Y413555D01*
X619674Y413488D01*
Y413429D01*
X619682Y413303D01*
X619711Y413185D01*
X619748Y413089D01*
X619792Y413000D01*
X619837Y412934D01*
X619874Y412882D01*
X619903Y412845D01*
X619911Y412838D01*
X620007Y412756D01*
X620103Y412697D01*
X620199Y412653D01*
X620288Y412623D01*
X620369Y412609D01*
X620435Y412594D01*
X620480D01*
X620487D01*
X620495D01*
X620613Y412601D01*
X620724Y412631D01*
X620820Y412668D01*
X620901Y412712D01*
X620968Y412756D01*
X621012Y412793D01*
X621049Y412823D01*
X621056Y412830D01*
X621130Y412919D01*
X621189Y413022D01*
X621226Y413119D01*
X621256Y413215D01*
X621271Y413303D01*
X621278Y413370D01*
X621285Y413414D01*
Y413429D01*
X621278Y413562D01*
X621249Y413680D01*
X621212Y413784D01*
X621167Y413872D01*
X621130Y413939D01*
X621093Y413991D01*
X621064Y414028D01*
X621056Y414035D01*
X620968Y414109D01*
X620864Y414168D01*
X620768Y414205D01*
X620672Y414235D01*
X620591Y414249D01*
X620524Y414257D01*
X620480Y414264D01*
D02*
G37*
G36*
X622867Y414471D02*
X622838D01*
X622823D01*
X622668Y414456D01*
X622527Y414427D01*
X622402Y414383D01*
X622291Y414323D01*
X622209Y414272D01*
X622143Y414227D01*
X622106Y414198D01*
X622091Y414183D01*
X621995Y414072D01*
X621921Y413946D01*
X621869Y413828D01*
X621832Y413710D01*
X621810Y413606D01*
X621803Y413525D01*
X621796Y413496D01*
Y413451D01*
X621810Y413289D01*
X621840Y413141D01*
X621892Y413008D01*
X621943Y412897D01*
X622002Y412808D01*
X622054Y412742D01*
X622084Y412705D01*
X622099Y412690D01*
X622217Y412586D01*
X622342Y412513D01*
X622468Y412461D01*
X622579Y412424D01*
X622690Y412402D01*
X622771Y412394D01*
X622801Y412387D01*
X622823D01*
X622838D01*
X622845D01*
X623000Y412402D01*
X623148Y412431D01*
X623274Y412483D01*
X623377Y412535D01*
X623459Y412586D01*
X623525Y412638D01*
X623562Y412668D01*
X623577Y412682D01*
X623673Y412801D01*
X623747Y412919D01*
X623791Y413045D01*
X623828Y413163D01*
X623850Y413266D01*
X623858Y413355D01*
X623865Y413385D01*
Y413429D01*
X623858Y413532D01*
X623843Y413636D01*
X623821Y413732D01*
X623798Y413813D01*
X623776Y413880D01*
X623754Y413932D01*
X623739Y413961D01*
X623732Y413976D01*
X623673Y414065D01*
X623614Y414139D01*
X623547Y414205D01*
X623481Y414257D01*
X623429Y414301D01*
X623385Y414331D01*
X623348Y414346D01*
X623340Y414353D01*
X623244Y414390D01*
X623156Y414420D01*
X623067Y414442D01*
X622985Y414456D01*
X622919Y414464D01*
X622867Y414471D01*
D02*
G37*
G36*
X620953Y329464D02*
X620931D01*
X620916D01*
X620909D01*
X620716Y329449D01*
X620539Y329420D01*
X620384Y329368D01*
X620258Y329309D01*
X620155Y329257D01*
X620081Y329205D01*
X620059Y329190D01*
X620036Y329176D01*
X620029Y329161D01*
X620022D01*
X619962Y329102D01*
X619903Y329043D01*
X619822Y328917D01*
X619755Y328791D01*
X619719Y328673D01*
X619689Y328577D01*
X619682Y328496D01*
X619674Y328466D01*
Y328348D01*
X619689Y328274D01*
X619726Y328141D01*
X619778Y328022D01*
X619829Y327919D01*
X619888Y327838D01*
X619940Y327779D01*
X619977Y327742D01*
X619985Y327727D01*
X619992D01*
X620118Y327631D01*
X620258Y327557D01*
X620406Y327505D01*
X620546Y327476D01*
X620665Y327453D01*
X620716Y327446D01*
X620768D01*
X620805Y327439D01*
X620835D01*
X620849D01*
X620857D01*
X621049Y327453D01*
X621219Y327483D01*
X621359Y327527D01*
X621478Y327579D01*
X621574Y327638D01*
X621640Y327682D01*
X621685Y327712D01*
X621699Y327727D01*
X621803Y327838D01*
X621877Y327956D01*
X621928Y328074D01*
X621965Y328192D01*
X621988Y328289D01*
X621995Y328370D01*
X622002Y328400D01*
Y328444D01*
X621988Y328599D01*
X621958Y328740D01*
X621906Y328865D01*
X621847Y328976D01*
X621796Y329057D01*
X621744Y329124D01*
X621714Y329161D01*
X621699Y329176D01*
X621581Y329272D01*
X621448Y329346D01*
X621315Y329390D01*
X621189Y329427D01*
X621078Y329449D01*
X621034Y329456D01*
X620990D01*
X620953Y329464D01*
D02*
G37*
G36*
X622392Y243487D02*
X622325D01*
X622288D01*
X622273D01*
X622044Y243480D01*
X621837Y243472D01*
X621645Y243458D01*
X621468Y243435D01*
X621312Y243413D01*
X621172Y243384D01*
X621046Y243354D01*
X620935Y243325D01*
X620839Y243295D01*
X620758Y243273D01*
X620691Y243243D01*
X620632Y243221D01*
X620595Y243199D01*
X620566Y243184D01*
X620551Y243169D01*
X620544D01*
X620477Y243118D01*
X620418Y243066D01*
X620374Y243007D01*
X620329Y242948D01*
X620263Y242829D01*
X620219Y242719D01*
X620196Y242623D01*
X620182Y242541D01*
X620174Y242512D01*
Y242467D01*
X620182Y242386D01*
X620189Y242305D01*
X620211Y242231D01*
X620241Y242164D01*
X620307Y242039D01*
X620381Y241928D01*
X620462Y241846D01*
X620529Y241780D01*
X620559Y241758D01*
X620581Y241743D01*
X620588Y241728D01*
X620595D01*
X620684Y241676D01*
X620788Y241632D01*
X620906Y241588D01*
X621031Y241558D01*
X621165Y241528D01*
X621305Y241506D01*
X621586Y241469D01*
X621726Y241455D01*
X621852Y241447D01*
X621970Y241440D01*
X622066D01*
X622155Y241432D01*
X622221D01*
X622258D01*
X622266D01*
X622273D01*
X622502D01*
X622709Y241447D01*
X622894Y241462D01*
X623072Y241477D01*
X623219Y241499D01*
X623360Y241528D01*
X623478Y241558D01*
X623589Y241580D01*
X623678Y241610D01*
X623752Y241639D01*
X623818Y241662D01*
X623870Y241691D01*
X623907Y241706D01*
X623929Y241721D01*
X623944Y241735D01*
X623951D01*
X624025Y241795D01*
X624084Y241854D01*
X624143Y241913D01*
X624188Y241972D01*
X624262Y242098D01*
X624313Y242209D01*
X624343Y242312D01*
X624358Y242386D01*
X624365Y242416D01*
Y242460D01*
X624358Y242541D01*
X624350Y242615D01*
X624299Y242756D01*
X624232Y242881D01*
X624158Y242992D01*
X624084Y243073D01*
X624018Y243140D01*
X623966Y243177D01*
X623959Y243192D01*
X623951D01*
X623862Y243243D01*
X623759Y243288D01*
X623641Y243332D01*
X623515Y243362D01*
X623382Y243391D01*
X623242Y243413D01*
X622953Y243450D01*
X622820Y243465D01*
X622695Y243472D01*
X622576Y243480D01*
X622480D01*
X622392Y243487D01*
D02*
G37*
G36*
X412690Y70436D02*
X412653D01*
X412638D01*
X412461Y70421D01*
X412305Y70391D01*
X412165Y70339D01*
X412054Y70288D01*
X411958Y70236D01*
X411892Y70184D01*
X411855Y70155D01*
X411840Y70140D01*
X411736Y70022D01*
X411662Y69903D01*
X411603Y69778D01*
X411566Y69667D01*
X411544Y69563D01*
X411537Y69489D01*
X411529Y69460D01*
Y69415D01*
X411544Y69260D01*
X411581Y69120D01*
X411625Y69002D01*
X411685Y68898D01*
X411744Y68817D01*
X411788Y68758D01*
X411825Y68721D01*
X411840Y68706D01*
X411965Y68610D01*
X412099Y68536D01*
X412239Y68484D01*
X412372Y68455D01*
X412490Y68432D01*
X412542Y68425D01*
X412586D01*
X412623Y68418D01*
X412653D01*
X412668D01*
X412675D01*
X412875Y68432D01*
X413045Y68462D01*
X413192Y68506D01*
X413318Y68558D01*
X413414Y68617D01*
X413488Y68662D01*
X413532Y68691D01*
X413540Y68706D01*
X413547D01*
X413606Y68758D01*
X413651Y68817D01*
X413732Y68935D01*
X413784Y69053D01*
X413828Y69157D01*
X413850Y69253D01*
X413858Y69327D01*
X413865Y69356D01*
Y69393D01*
X413858Y69497D01*
X413843Y69593D01*
X413813Y69682D01*
X413784Y69756D01*
X413762Y69822D01*
X413732Y69874D01*
X413717Y69903D01*
X413710Y69918D01*
X413643Y70007D01*
X413577Y70081D01*
X413495Y70147D01*
X413429Y70199D01*
X413362Y70243D01*
X413311Y70273D01*
X413274Y70295D01*
X413259Y70303D01*
X413148Y70347D01*
X413037Y70376D01*
X412934Y70406D01*
X412838Y70421D01*
X412756Y70428D01*
X412690Y70436D01*
D02*
G37*
G36*
X280480Y327788D02*
X280472D01*
X280465D01*
X280347Y327780D01*
X280243Y327751D01*
X280147Y327714D01*
X280066Y327669D01*
X279999Y327632D01*
X279948Y327595D01*
X279918Y327566D01*
X279911Y327559D01*
X279829Y327463D01*
X279770Y327366D01*
X279733Y327263D01*
X279704Y327167D01*
X279689Y327078D01*
X279674Y327012D01*
Y326953D01*
X279681Y326827D01*
X279711Y326709D01*
X279748Y326613D01*
X279792Y326524D01*
X279837Y326457D01*
X279874Y326405D01*
X279903Y326369D01*
X279911Y326361D01*
X280007Y326280D01*
X280103Y326221D01*
X280199Y326176D01*
X280288Y326147D01*
X280369Y326132D01*
X280435Y326117D01*
X280480D01*
X280487D01*
X280495D01*
X280613Y326125D01*
X280724Y326154D01*
X280820Y326191D01*
X280901Y326236D01*
X280968Y326280D01*
X281012Y326317D01*
X281049Y326346D01*
X281056Y326354D01*
X281130Y326442D01*
X281189Y326546D01*
X281226Y326642D01*
X281256Y326738D01*
X281271Y326827D01*
X281278Y326893D01*
X281285Y326938D01*
Y326953D01*
X281278Y327085D01*
X281248Y327204D01*
X281211Y327307D01*
X281167Y327396D01*
X281130Y327463D01*
X281093Y327514D01*
X281064Y327551D01*
X281056Y327559D01*
X280968Y327632D01*
X280864Y327692D01*
X280768Y327729D01*
X280672Y327758D01*
X280591Y327773D01*
X280524Y327780D01*
X280480Y327788D01*
D02*
G37*
G36*
X282867Y327995D02*
X282838D01*
X282823D01*
X282668Y327980D01*
X282527Y327950D01*
X282402Y327906D01*
X282291Y327847D01*
X282209Y327795D01*
X282143Y327751D01*
X282106Y327721D01*
X282091Y327706D01*
X281995Y327595D01*
X281921Y327470D01*
X281869Y327352D01*
X281832Y327233D01*
X281810Y327130D01*
X281803Y327049D01*
X281795Y327019D01*
Y326975D01*
X281810Y326812D01*
X281840Y326664D01*
X281891Y326531D01*
X281943Y326420D01*
X282002Y326332D01*
X282054Y326265D01*
X282084Y326228D01*
X282099Y326213D01*
X282217Y326110D01*
X282342Y326036D01*
X282468Y325984D01*
X282579Y325947D01*
X282690Y325925D01*
X282771Y325918D01*
X282801Y325910D01*
X282823D01*
X282838D01*
X282845D01*
X283000Y325925D01*
X283148Y325955D01*
X283274Y326006D01*
X283377Y326058D01*
X283458Y326110D01*
X283525Y326162D01*
X283562Y326191D01*
X283577Y326206D01*
X283673Y326324D01*
X283747Y326442D01*
X283791Y326568D01*
X283828Y326686D01*
X283850Y326790D01*
X283858Y326879D01*
X283865Y326908D01*
Y326953D01*
X283858Y327056D01*
X283843Y327159D01*
X283821Y327256D01*
X283799Y327337D01*
X283776Y327403D01*
X283754Y327455D01*
X283739Y327485D01*
X283732Y327499D01*
X283673Y327588D01*
X283614Y327662D01*
X283547Y327729D01*
X283481Y327780D01*
X283429Y327825D01*
X283385Y327854D01*
X283348Y327869D01*
X283340Y327876D01*
X283244Y327913D01*
X283155Y327943D01*
X283067Y327965D01*
X282985Y327980D01*
X282919Y327987D01*
X282867Y327995D01*
D02*
G37*
G36*
X281891Y242487D02*
X281825D01*
X281788D01*
X281773D01*
X281544Y242480D01*
X281337Y242472D01*
X281145Y242458D01*
X280968Y242435D01*
X280812Y242413D01*
X280672Y242384D01*
X280546Y242354D01*
X280435Y242325D01*
X280339Y242295D01*
X280258Y242273D01*
X280191Y242243D01*
X280132Y242221D01*
X280095Y242199D01*
X280066Y242184D01*
X280051Y242169D01*
X280044D01*
X279977Y242118D01*
X279918Y242066D01*
X279874Y242007D01*
X279829Y241948D01*
X279763Y241829D01*
X279718Y241719D01*
X279696Y241623D01*
X279681Y241541D01*
X279674Y241512D01*
Y241467D01*
X279681Y241386D01*
X279689Y241305D01*
X279711Y241231D01*
X279741Y241164D01*
X279807Y241039D01*
X279881Y240928D01*
X279962Y240846D01*
X280029Y240780D01*
X280058Y240758D01*
X280081Y240743D01*
X280088Y240728D01*
X280095D01*
X280184Y240676D01*
X280288Y240632D01*
X280406Y240588D01*
X280532Y240558D01*
X280665Y240529D01*
X280805Y240506D01*
X281086Y240469D01*
X281226Y240455D01*
X281352Y240447D01*
X281470Y240440D01*
X281566D01*
X281655Y240432D01*
X281721D01*
X281758D01*
X281766D01*
X281773D01*
X282002D01*
X282209Y240447D01*
X282394Y240462D01*
X282572Y240477D01*
X282719Y240499D01*
X282860Y240529D01*
X282978Y240558D01*
X283089Y240580D01*
X283178Y240610D01*
X283252Y240639D01*
X283318Y240662D01*
X283370Y240691D01*
X283407Y240706D01*
X283429Y240721D01*
X283444Y240735D01*
X283451D01*
X283525Y240795D01*
X283584Y240854D01*
X283643Y240913D01*
X283688Y240972D01*
X283762Y241098D01*
X283813Y241209D01*
X283843Y241312D01*
X283858Y241386D01*
X283865Y241416D01*
Y241460D01*
X283858Y241541D01*
X283850Y241615D01*
X283799Y241756D01*
X283732Y241881D01*
X283658Y241992D01*
X283584Y242073D01*
X283518Y242140D01*
X283466Y242177D01*
X283458Y242192D01*
X283451D01*
X283362Y242243D01*
X283259Y242288D01*
X283141Y242332D01*
X283015Y242362D01*
X282882Y242391D01*
X282742Y242413D01*
X282453Y242450D01*
X282320Y242465D01*
X282195Y242472D01*
X282076Y242480D01*
X281980D01*
X281891Y242487D01*
D02*
G37*
%LPD*%
D12*
X10000Y402500D02*
Y412500D01*
X20000D01*
Y402500D02*
Y412500D01*
X10000Y402500D02*
X20000D01*
X65450Y499900D02*
Y554700D01*
Y499900D02*
X583950D01*
Y554700D01*
X65450D02*
X583950D01*
X70500Y453500D02*
X104500D01*
X70500Y436500D02*
Y453500D01*
Y436500D02*
X104500D01*
Y453500D01*
X92250Y414500D02*
X127750D01*
Y375500D02*
Y414500D01*
X92250Y375500D02*
X127750D01*
X92250D02*
Y414500D01*
X487500Y410000D02*
Y420000D01*
X497500D01*
Y410000D02*
Y420000D01*
X487500Y410000D02*
X497500D01*
X487500Y425000D02*
Y435000D01*
X497500D01*
Y425000D02*
Y435000D01*
X487500Y425000D02*
X497500D01*
X487500Y325000D02*
X497500D01*
Y335000D01*
X487500D02*
X497500D01*
X487500Y325000D02*
Y335000D01*
Y340000D02*
Y350000D01*
X497500D01*
Y340000D02*
Y350000D01*
X487500Y340000D02*
X497500D01*
X487500Y240000D02*
Y250000D01*
X497500D01*
Y240000D02*
Y250000D01*
X487500Y240000D02*
X497500D01*
X487500Y254250D02*
Y264250D01*
X497500D01*
Y254250D02*
Y264250D01*
X487500Y254250D02*
X497500D01*
X492500Y157500D02*
Y167500D01*
X502500D01*
Y157500D02*
Y167500D01*
X492500Y157500D02*
X502500D01*
X492500Y172500D02*
Y182500D01*
X502500D01*
Y172500D02*
Y182500D01*
X492500Y172500D02*
X502500D01*
X487500Y77500D02*
Y87500D01*
X497500D01*
Y77500D02*
Y87500D01*
X487500Y77500D02*
X497500D01*
X487500Y92500D02*
Y102500D01*
X497500D01*
Y92500D02*
Y102500D01*
X487500Y92500D02*
X497500D01*
X317500Y407500D02*
Y417500D01*
X327500D01*
Y407500D02*
Y417500D01*
X317500Y407500D02*
X327500D01*
X317500Y422500D02*
Y432500D01*
X327500D01*
Y422500D02*
Y432500D01*
X317500Y422500D02*
X327500D01*
X320000Y325000D02*
Y335000D01*
X330000D01*
Y325000D02*
Y335000D01*
X320000Y325000D02*
X330000D01*
X320000Y340000D02*
Y350000D01*
X330000D01*
Y340000D02*
Y350000D01*
X320000Y340000D02*
X330000D01*
X317500Y240000D02*
X327500D01*
Y250000D01*
X317500D02*
X327500D01*
X317500Y240000D02*
Y250000D01*
Y255000D02*
Y265000D01*
X327500D01*
Y255000D02*
Y265000D01*
X317500Y255000D02*
X327500D01*
X280000Y150000D02*
Y160000D01*
X290000D01*
Y150000D02*
Y160000D01*
X280000Y150000D02*
X290000D01*
X280000Y165000D02*
Y175000D01*
X290000D01*
Y165000D02*
Y175000D01*
X280000Y165000D02*
X290000D01*
X280000Y70000D02*
Y80000D01*
X290000D01*
Y70000D02*
Y80000D01*
X280000Y70000D02*
X290000D01*
X280000Y85000D02*
X290000D01*
Y95000D01*
X280000D02*
X290000D01*
X280000Y85000D02*
Y95000D01*
X147500Y407500D02*
Y417500D01*
X157500D01*
Y407500D02*
Y417500D01*
X147500Y407500D02*
X157500D01*
X147500Y422500D02*
Y432500D01*
X157500D01*
Y422500D02*
Y432500D01*
X147500Y422500D02*
X157500D01*
X150000Y325000D02*
X160000D01*
Y335000D01*
X150000D02*
X160000D01*
X150000Y325000D02*
Y335000D01*
Y340000D02*
Y350000D01*
X160000D01*
Y340000D02*
Y350000D01*
X150000Y340000D02*
X160000D01*
X150000Y240000D02*
Y250000D01*
X160000D01*
Y240000D02*
Y250000D01*
X150000Y240000D02*
X160000D01*
X150000Y255000D02*
Y265000D01*
X160000D01*
Y255000D02*
Y265000D01*
X150000Y255000D02*
X160000D01*
X117500Y155000D02*
Y165000D01*
X127500D01*
Y155000D02*
Y165000D01*
X117500Y155000D02*
X127500D01*
X117500Y170000D02*
Y180000D01*
X127500D01*
Y170000D02*
Y180000D01*
X117500Y170000D02*
X127500D01*
X110000Y67500D02*
Y77500D01*
X120000D01*
Y67500D02*
Y77500D01*
X110000Y67500D02*
X120000D01*
X110000Y82500D02*
Y92500D01*
X120000D01*
Y82500D02*
Y92500D01*
X110000Y82500D02*
X120000D01*
X10000Y387500D02*
X20000D01*
Y397500D01*
X10000D02*
X20000D01*
X10000Y387500D02*
Y397500D01*
X558000Y468500D02*
X592000D01*
X558000Y451500D02*
Y468500D01*
Y451500D02*
X592000D01*
Y468500D01*
X550500Y386000D02*
X584500D01*
X550500Y369000D02*
Y386000D01*
Y369000D02*
X584500D01*
Y386000D01*
Y284000D02*
Y301000D01*
X550500Y284000D02*
X584500D01*
X550500D02*
Y301000D01*
X584500D01*
X550500Y218500D02*
X584500D01*
X550500Y201500D02*
Y218500D01*
Y201500D02*
X584500D01*
Y218500D01*
X550500Y136000D02*
X584500D01*
X550500Y119000D02*
Y136000D01*
Y119000D02*
X584500D01*
Y136000D01*
X414750Y446750D02*
Y463750D01*
X380750Y446750D02*
X414750D01*
X380750D02*
Y463750D01*
X414750D01*
X383000Y383500D02*
X417000D01*
X383000Y366500D02*
Y383500D01*
Y366500D02*
X417000D01*
Y383500D01*
X385500Y298500D02*
X419500D01*
X385500Y281500D02*
Y298500D01*
Y281500D02*
X419500D01*
Y298500D01*
X341500Y216000D02*
X375500D01*
X341500Y199000D02*
Y216000D01*
Y199000D02*
X375500D01*
Y216000D01*
X340500Y131000D02*
X374500D01*
X340500Y114000D02*
Y131000D01*
Y114000D02*
X374500D01*
Y131000D01*
X210500Y468500D02*
X244500D01*
X210500Y451500D02*
Y468500D01*
Y451500D02*
X244500D01*
Y468500D01*
X213000Y386000D02*
X247000D01*
X213000Y369000D02*
Y386000D01*
Y369000D02*
X247000D01*
Y386000D01*
X215500Y301000D02*
X249500D01*
X215500Y284000D02*
Y301000D01*
Y284000D02*
X249500D01*
Y301000D01*
X181000Y215500D02*
X215000D01*
X181000Y198500D02*
Y215500D01*
Y198500D02*
X215000D01*
Y215500D01*
X180500Y128500D02*
X214500D01*
X180500Y111500D02*
Y128500D01*
Y111500D02*
X214500D01*
Y128500D01*
X587750Y436500D02*
X587750Y419500D01*
X597250Y419500D02*
Y436500D01*
X587750D02*
X597250D01*
X587750Y419500D02*
X597250Y419500D01*
X599750Y353298D02*
X599750Y336298D01*
X590250D02*
Y353298D01*
Y336298D02*
X599750D01*
X590250Y353298D02*
X599750Y353298D01*
X596750Y266500D02*
X596750Y249500D01*
X587250D02*
Y266500D01*
Y249500D02*
X596750D01*
X587250Y266500D02*
X596750Y266500D01*
X599750Y188500D02*
X599750Y171500D01*
X590250D02*
Y188500D01*
Y171500D02*
X599750D01*
X590250Y188500D02*
X599750Y188500D01*
X592750Y103500D02*
X592750Y86500D01*
X602250Y86500D02*
Y103500D01*
X592750D02*
X602250D01*
X592750Y86500D02*
X602250Y86500D01*
X420250Y436000D02*
X420250Y419000D01*
X429750Y419000D02*
Y436000D01*
X420250D02*
X429750D01*
X420250Y419000D02*
X429750Y419000D01*
X422750Y353500D02*
X422750Y336500D01*
X432250Y336500D02*
Y353500D01*
X422750D02*
X432250D01*
X422750Y336500D02*
X432250Y336500D01*
X422750Y249000D02*
X432250Y249000D01*
X422750Y266000D02*
X432250D01*
Y249000D02*
Y266000D01*
X422750D02*
X422750Y249000D01*
X377250Y182500D02*
X377250Y165500D01*
X386750Y165500D02*
Y182500D01*
X377250D02*
X386750D01*
X377250Y165500D02*
X386750Y165500D01*
X380250Y96500D02*
X380250Y79500D01*
X389750Y79500D02*
Y96500D01*
X380250D02*
X389750D01*
X380250Y79500D02*
X389750Y79500D01*
X250250Y436000D02*
X250250Y419000D01*
X259750Y419000D02*
Y436000D01*
X250250D02*
X259750D01*
X250250Y419000D02*
X259750Y419000D01*
X250250Y334000D02*
X259750Y334000D01*
X250250Y351000D02*
X259750D01*
Y334000D02*
Y351000D01*
X250250D02*
X250250Y334000D01*
X250250Y263500D02*
X250250Y246500D01*
X259750Y246500D02*
Y263500D01*
X250250D02*
X259750D01*
X250250Y246500D02*
X259750Y246500D01*
X211250Y180500D02*
X211250Y163500D01*
X220750Y163500D02*
Y180500D01*
X211250D02*
X220750D01*
X211250Y163500D02*
X220750Y163500D01*
X212256Y92549D02*
X212256Y75548D01*
X221756Y75549D02*
Y92549D01*
X212256D02*
X221756D01*
X212256Y75548D02*
X221756Y75549D01*
X75250Y394000D02*
X84750Y394000D01*
X75250Y411000D02*
X84750D01*
Y394000D02*
Y411000D01*
X75250D02*
X75250Y394000D01*
X607250Y75000D02*
Y114000D01*
Y75000D02*
X642750D01*
Y114000D01*
X607250D02*
X642750D01*
X437250Y439500D02*
X472750D01*
Y400500D02*
Y439500D01*
X437250Y400500D02*
X472750D01*
X437250D02*
Y439500D01*
X604750Y400500D02*
Y439500D01*
Y400500D02*
X640250D01*
Y439500D01*
X604750D02*
X640250D01*
X604750Y354500D02*
X640250D01*
Y315500D02*
Y354500D01*
X604750Y315500D02*
X640250D01*
X604750D02*
Y354500D01*
X605250Y233500D02*
Y272500D01*
Y233500D02*
X640750D01*
Y272500D01*
X605250D02*
X640750D01*
X607517Y149406D02*
Y188406D01*
Y149406D02*
X643017D01*
Y188406D01*
X607517D02*
X643017D01*
X437250Y318000D02*
Y357000D01*
Y318000D02*
X472750D01*
Y357000D01*
X437250D02*
X472750D01*
X436750Y270000D02*
X472250D01*
Y231000D02*
Y270000D01*
X436750Y231000D02*
X472250D01*
X436750D02*
Y270000D01*
X394750Y184000D02*
X430250D01*
Y145000D02*
Y184000D01*
X394750Y145000D02*
X430250D01*
X394750D02*
Y184000D01*
Y60500D02*
Y99500D01*
Y60500D02*
X430250D01*
Y99500D01*
X394750D02*
X430250D01*
X264750Y439000D02*
X300250D01*
Y400000D02*
Y439000D01*
X264750Y400000D02*
X300250D01*
X264750D02*
Y439000D01*
Y357000D02*
X300250D01*
Y318000D02*
Y357000D01*
X264750Y318000D02*
X300250D01*
X264750D02*
Y357000D01*
Y271500D02*
X300250D01*
Y232500D02*
Y271500D01*
X264750Y232500D02*
X300250D01*
X264750D02*
Y271500D01*
X226750Y147500D02*
Y186500D01*
Y147500D02*
X262250D01*
Y186500D01*
X226750D02*
X262250D01*
X224750Y62500D02*
Y101500D01*
Y62500D02*
X260250D01*
Y101500D01*
X224750D02*
X260250D01*
M02*
