G04*
G04 #@! TF.GenerationSoftware,Altium Limited,Altium Designer,26.6.0 (10)*
G04*
G04 Layer_Color=0*
G04 Board_Origin=29350000|14702756*
%FSLAX44Y44*%
%MOMM*%
G71*
G04*
G04 #@! TF.SameCoordinates,4A6F4C04-391A-4FDC-A87F-652DF65B7CFD*
G04*
G04*
G04 #@! TF.FilePolarity,Positive*
G04*
G01*
G75*
%ADD12C,0.2000*%
D12*
X340000Y165000D02*
Y175000D01*
X335000Y170000D02*
X345000D01*
X136000Y172000D02*
X146000D01*
X141000Y167000D02*
Y177000D01*
X274000Y99500D02*
X284000D01*
X279000Y94500D02*
Y104500D01*
X220000Y342758D02*
X230000D01*
X225000Y337758D02*
Y347758D01*
X299000Y142000D02*
X309000D01*
X304000Y137000D02*
Y147000D01*
X810744Y278215D02*
Y288215D01*
X805744Y283215D02*
X815744D01*
X225000Y106270D02*
Y116270D01*
X220000Y111270D02*
X230000D01*
X274000Y147000D02*
X284000D01*
X279000Y142000D02*
Y152000D01*
X82500Y430000D02*
X92500D01*
X87500Y425000D02*
Y435000D01*
X358000Y96000D02*
Y106000D01*
X353000Y101000D02*
X363000D01*
X300000Y114000D02*
X310000D01*
X305000Y109000D02*
Y119000D01*
X377000Y166000D02*
Y176000D01*
X372000Y171000D02*
X382000D01*
X395000Y365000D02*
X405000D01*
X400000Y360000D02*
Y370000D01*
X210000Y177000D02*
X220000D01*
X215000Y172000D02*
Y182000D01*
X208000Y20000D02*
Y30000D01*
X203000Y25000D02*
X213000D01*
M02*
