G04*
G04 #@! TF.GenerationSoftware,Altium Limited,Altium Designer,26.6.0 (10)*
G04*
G04 Layer_Color=16711935*
G04 Board_Origin=29350000|14702756*
%FSLAX44Y44*%
%MOMM*%
G71*
G04*
G04 #@! TF.SameCoordinates,4A6F4C04-391A-4FDC-A87F-652DF65B7CFD*
G04*
G04*
G04 #@! TF.FilePolarity,Positive*
G04*
G01*
G75*
%ADD12C,0.2000*%
%ADD88R,3.9500X0.3750*%
G36*
X162725Y50839D02*
X162718Y50832D01*
X162703Y50817D01*
X162673Y50787D01*
X162644Y50743D01*
X162600Y50691D01*
X162540Y50632D01*
X162481Y50558D01*
X162415Y50470D01*
X162348Y50381D01*
X162267Y50277D01*
X162186Y50159D01*
X162104Y50041D01*
X162016Y49908D01*
X161927Y49767D01*
X161838Y49612D01*
X161749Y49457D01*
X161742Y49450D01*
X161727Y49420D01*
X161705Y49376D01*
X161668Y49309D01*
X161631Y49228D01*
X161587Y49139D01*
X161535Y49036D01*
X161483Y48917D01*
X161424Y48784D01*
X161358Y48651D01*
X161299Y48503D01*
X161239Y48348D01*
X161121Y48030D01*
X161010Y47690D01*
Y47683D01*
X161003Y47661D01*
X160996Y47624D01*
X160981Y47580D01*
X160966Y47520D01*
X160951Y47446D01*
X160929Y47365D01*
X160914Y47277D01*
X160892Y47173D01*
X160870Y47062D01*
X160833Y46826D01*
X160796Y46567D01*
X160774Y46286D01*
X160131D01*
Y46294D01*
Y46316D01*
Y46345D01*
X160138Y46389D01*
Y46449D01*
X160146Y46523D01*
X160153Y46604D01*
X160160Y46693D01*
X160175Y46796D01*
X160190Y46900D01*
X160212Y47025D01*
X160234Y47151D01*
X160256Y47284D01*
X160286Y47432D01*
X160360Y47735D01*
Y47742D01*
X160367Y47772D01*
X160382Y47816D01*
X160404Y47883D01*
X160427Y47957D01*
X160456Y48045D01*
X160486Y48149D01*
X160530Y48260D01*
X160574Y48385D01*
X160619Y48511D01*
X160730Y48792D01*
X160863Y49087D01*
X161010Y49383D01*
X161018Y49391D01*
X161033Y49420D01*
X161055Y49457D01*
X161084Y49516D01*
X161121Y49583D01*
X161173Y49664D01*
X161225Y49753D01*
X161284Y49849D01*
X161424Y50063D01*
X161572Y50285D01*
X161742Y50514D01*
X161919Y50728D01*
X159414D01*
Y51334D01*
X162725D01*
Y50839D01*
D02*
G37*
G36*
X157758Y46286D02*
X157130D01*
Y50285D01*
X157122Y50277D01*
X157086Y50248D01*
X157041Y50203D01*
X156967Y50152D01*
X156886Y50085D01*
X156783Y50011D01*
X156664Y49930D01*
X156531Y49849D01*
X156524D01*
X156516Y49841D01*
X156472Y49812D01*
X156398Y49775D01*
X156309Y49731D01*
X156206Y49679D01*
X156095Y49627D01*
X155984Y49575D01*
X155873Y49531D01*
Y50137D01*
X155881D01*
X155896Y50152D01*
X155925Y50159D01*
X155962Y50181D01*
X156006Y50203D01*
X156058Y50233D01*
X156184Y50307D01*
X156332Y50388D01*
X156479Y50492D01*
X156635Y50610D01*
X156790Y50736D01*
X156797Y50743D01*
X156805Y50750D01*
X156827Y50773D01*
X156856Y50795D01*
X156923Y50869D01*
X157012Y50957D01*
X157100Y51061D01*
X157196Y51179D01*
X157278Y51297D01*
X157352Y51423D01*
X157758D01*
Y46286D01*
D02*
G37*
G36*
X152932Y51393D02*
X152998D01*
X153153Y51386D01*
X153316Y51364D01*
X153493Y51342D01*
X153656Y51305D01*
X153737Y51283D01*
X153804Y51260D01*
X153811D01*
X153819Y51253D01*
X153863Y51231D01*
X153929Y51201D01*
X154011Y51150D01*
X154099Y51083D01*
X154195Y50994D01*
X154284Y50891D01*
X154373Y50773D01*
Y50765D01*
X154380Y50758D01*
X154410Y50714D01*
X154439Y50640D01*
X154484Y50543D01*
X154521Y50433D01*
X154558Y50300D01*
X154580Y50159D01*
X154587Y50004D01*
Y49997D01*
Y49982D01*
Y49952D01*
X154580Y49915D01*
Y49864D01*
X154572Y49812D01*
X154543Y49686D01*
X154499Y49538D01*
X154439Y49383D01*
X154351Y49228D01*
X154292Y49154D01*
X154233Y49080D01*
X154225Y49073D01*
X154218Y49065D01*
X154195Y49043D01*
X154166Y49021D01*
X154129Y48991D01*
X154085Y48962D01*
X154025Y48925D01*
X153966Y48880D01*
X153892Y48843D01*
X153811Y48807D01*
X153722Y48762D01*
X153626Y48725D01*
X153516Y48696D01*
X153405Y48659D01*
X153279Y48636D01*
X153146Y48614D01*
X153161Y48607D01*
X153190Y48592D01*
X153235Y48563D01*
X153294Y48533D01*
X153427Y48452D01*
X153493Y48400D01*
X153552Y48356D01*
X153567Y48341D01*
X153604Y48304D01*
X153663Y48245D01*
X153737Y48171D01*
X153819Y48067D01*
X153915Y47957D01*
X154011Y47824D01*
X154114Y47676D01*
X154994Y46286D01*
X154151D01*
X153478Y47350D01*
Y47358D01*
X153464Y47373D01*
X153449Y47395D01*
X153427Y47424D01*
X153375Y47506D01*
X153308Y47609D01*
X153227Y47720D01*
X153146Y47838D01*
X153065Y47949D01*
X152991Y48053D01*
X152983Y48060D01*
X152961Y48090D01*
X152924Y48134D01*
X152872Y48186D01*
X152762Y48296D01*
X152702Y48348D01*
X152643Y48393D01*
X152636Y48400D01*
X152621Y48407D01*
X152592Y48422D01*
X152547Y48444D01*
X152503Y48467D01*
X152451Y48489D01*
X152333Y48526D01*
X152325D01*
X152311Y48533D01*
X152281D01*
X152244Y48540D01*
X152192Y48548D01*
X152133D01*
X152052Y48555D01*
X151180D01*
Y46286D01*
X150500D01*
Y51401D01*
X152872D01*
X152932Y51393D01*
D02*
G37*
G36*
X141365Y112784D02*
X141357Y112651D01*
X141350Y112503D01*
X141335Y112355D01*
X141313Y112207D01*
X141291Y112082D01*
Y112074D01*
X141284Y112060D01*
Y112037D01*
X141269Y112008D01*
X141247Y111927D01*
X141210Y111823D01*
X141158Y111705D01*
X141091Y111579D01*
X141017Y111454D01*
X140921Y111335D01*
X140914Y111328D01*
X140907Y111320D01*
X140884Y111298D01*
X140862Y111269D01*
X140788Y111195D01*
X140685Y111106D01*
X140559Y111010D01*
X140411Y110907D01*
X140241Y110810D01*
X140049Y110729D01*
X140042D01*
X140027Y110722D01*
X139997Y110707D01*
X139953Y110700D01*
X139901Y110677D01*
X139842Y110663D01*
X139776Y110648D01*
X139694Y110626D01*
X139613Y110604D01*
X139517Y110589D01*
X139310Y110552D01*
X139081Y110530D01*
X138830Y110522D01*
X138822D01*
X138807D01*
X138771D01*
X138734D01*
X138682Y110530D01*
X138623D01*
X138482Y110537D01*
X138320Y110559D01*
X138150Y110581D01*
X137972Y110618D01*
X137795Y110663D01*
X137787D01*
X137773Y110670D01*
X137750Y110677D01*
X137721Y110685D01*
X137640Y110714D01*
X137536Y110759D01*
X137418Y110803D01*
X137300Y110862D01*
X137174Y110936D01*
X137056Y111010D01*
X137041Y111018D01*
X137004Y111047D01*
X136952Y111091D01*
X136886Y111151D01*
X136812Y111217D01*
X136738Y111298D01*
X136657Y111380D01*
X136590Y111476D01*
X136583Y111490D01*
X136560Y111520D01*
X136531Y111572D01*
X136494Y111646D01*
X136450Y111734D01*
X136413Y111838D01*
X136368Y111956D01*
X136331Y112089D01*
Y112104D01*
X136324Y112126D01*
X136316Y112148D01*
X136309Y112222D01*
X136294Y112326D01*
X136280Y112444D01*
X136265Y112584D01*
X136257Y112740D01*
X136250Y112910D01*
Y114750D01*
X141365D01*
Y112784D01*
D02*
G37*
G36*
X140101Y109362D02*
X140116Y109347D01*
X140123Y109317D01*
X140145Y109281D01*
X140167Y109236D01*
X140197Y109184D01*
X140271Y109059D01*
X140352Y108911D01*
X140456Y108763D01*
X140574Y108608D01*
X140700Y108453D01*
X140707Y108445D01*
X140714Y108438D01*
X140737Y108416D01*
X140759Y108386D01*
X140833Y108320D01*
X140921Y108231D01*
X141025Y108142D01*
X141143Y108046D01*
X141261Y107965D01*
X141387Y107891D01*
Y107484D01*
X136250D01*
Y108113D01*
X140249D01*
X140241Y108120D01*
X140212Y108157D01*
X140167Y108201D01*
X140116Y108275D01*
X140049Y108357D01*
X139975Y108460D01*
X139894Y108578D01*
X139813Y108711D01*
Y108719D01*
X139805Y108726D01*
X139776Y108771D01*
X139739Y108844D01*
X139694Y108933D01*
X139643Y109037D01*
X139591Y109147D01*
X139539Y109258D01*
X139495Y109369D01*
X140101D01*
Y109362D01*
D02*
G37*
G36*
X141298Y102517D02*
X140803D01*
X140796Y102525D01*
X140781Y102540D01*
X140751Y102569D01*
X140707Y102599D01*
X140655Y102643D01*
X140596Y102702D01*
X140522Y102761D01*
X140434Y102828D01*
X140345Y102894D01*
X140241Y102976D01*
X140123Y103057D01*
X140005Y103138D01*
X139872Y103227D01*
X139731Y103316D01*
X139576Y103404D01*
X139421Y103493D01*
X139413Y103500D01*
X139384Y103515D01*
X139340Y103537D01*
X139273Y103574D01*
X139192Y103611D01*
X139103Y103656D01*
X139000Y103707D01*
X138881Y103759D01*
X138748Y103818D01*
X138615Y103885D01*
X138467Y103944D01*
X138312Y104003D01*
X137994Y104121D01*
X137654Y104232D01*
X137647D01*
X137625Y104240D01*
X137588Y104247D01*
X137543Y104262D01*
X137484Y104277D01*
X137410Y104291D01*
X137329Y104313D01*
X137240Y104328D01*
X137137Y104350D01*
X137026Y104373D01*
X136790Y104410D01*
X136531Y104446D01*
X136250Y104469D01*
Y105112D01*
X136257D01*
X136280D01*
X136309D01*
X136354Y105104D01*
X136413D01*
X136487Y105097D01*
X136568Y105090D01*
X136657Y105082D01*
X136760Y105067D01*
X136863Y105053D01*
X136989Y105030D01*
X137115Y105008D01*
X137248Y104986D01*
X137396Y104957D01*
X137699Y104883D01*
X137706D01*
X137736Y104875D01*
X137780Y104860D01*
X137846Y104838D01*
X137921Y104816D01*
X138009Y104787D01*
X138113Y104757D01*
X138223Y104713D01*
X138349Y104668D01*
X138475Y104624D01*
X138756Y104513D01*
X139051Y104380D01*
X139347Y104232D01*
X139354Y104225D01*
X139384Y104210D01*
X139421Y104188D01*
X139480Y104158D01*
X139547Y104121D01*
X139628Y104069D01*
X139717Y104018D01*
X139813Y103959D01*
X140027Y103818D01*
X140249Y103670D01*
X140478Y103500D01*
X140692Y103323D01*
Y105829D01*
X141298D01*
Y102517D01*
D02*
G37*
G36*
X48217Y131481D02*
X48209D01*
X48194D01*
X48165D01*
X48120Y131474D01*
X48076Y131466D01*
X48024D01*
X47899Y131444D01*
X47766Y131422D01*
X47633Y131378D01*
X47514Y131333D01*
X47463Y131304D01*
X47418Y131267D01*
X47411Y131259D01*
X47389Y131230D01*
X47352Y131185D01*
X47315Y131126D01*
X47270Y131045D01*
X47241Y130956D01*
X47211Y130845D01*
X47204Y130727D01*
Y130683D01*
X47211Y130638D01*
X47219Y130572D01*
X47233Y130505D01*
X47248Y130431D01*
X47278Y130358D01*
X47315Y130284D01*
X47322Y130276D01*
X47337Y130254D01*
X47366Y130225D01*
X47396Y130180D01*
X47448Y130143D01*
X47499Y130099D01*
X47559Y130062D01*
X47633Y130032D01*
X47640D01*
X47670Y130018D01*
X47721Y130010D01*
X47788Y129995D01*
X47877Y129981D01*
X47987Y129973D01*
X48120Y129958D01*
X48276D01*
X51801D01*
Y129278D01*
X48313D01*
X48305D01*
X48283D01*
X48253D01*
X48209D01*
X48150Y129286D01*
X48091D01*
X47950Y129301D01*
X47788Y129315D01*
X47618Y129345D01*
X47463Y129389D01*
X47315Y129441D01*
X47307D01*
X47300Y129448D01*
X47256Y129471D01*
X47196Y129508D01*
X47115Y129559D01*
X47034Y129633D01*
X46945Y129714D01*
X46856Y129818D01*
X46783Y129936D01*
X46775Y129951D01*
X46753Y129995D01*
X46723Y130062D01*
X46694Y130158D01*
X46657Y130276D01*
X46627Y130409D01*
X46605Y130557D01*
X46598Y130720D01*
Y130786D01*
X46605Y130831D01*
X46613Y130890D01*
X46620Y130949D01*
X46649Y131104D01*
X46694Y131267D01*
X46760Y131437D01*
X46805Y131525D01*
X46856Y131607D01*
X46916Y131681D01*
X46982Y131755D01*
X46989Y131762D01*
X46997Y131769D01*
X47027Y131784D01*
X47056Y131806D01*
X47093Y131836D01*
X47145Y131865D01*
X47204Y131895D01*
X47270Y131932D01*
X47344Y131961D01*
X47433Y131991D01*
X47522Y132021D01*
X47625Y132050D01*
X47736Y132065D01*
X47862Y132087D01*
X47987Y132095D01*
X48128D01*
X48217Y131481D01*
D02*
G37*
G36*
X48120Y127793D02*
X48113D01*
X48098Y127785D01*
X48069Y127778D01*
X48032Y127771D01*
X47987Y127763D01*
X47936Y127748D01*
X47825Y127711D01*
X47692Y127660D01*
X47566Y127593D01*
X47448Y127519D01*
X47344Y127431D01*
X47337Y127416D01*
X47307Y127386D01*
X47270Y127327D01*
X47233Y127253D01*
X47189Y127164D01*
X47152Y127054D01*
X47123Y126928D01*
X47115Y126795D01*
Y126751D01*
X47123Y126721D01*
X47130Y126640D01*
X47152Y126536D01*
X47189Y126418D01*
X47241Y126292D01*
X47315Y126167D01*
X47418Y126048D01*
X47433Y126034D01*
X47477Y125997D01*
X47544Y125952D01*
X47633Y125893D01*
X47743Y125834D01*
X47869Y125790D01*
X48017Y125753D01*
X48179Y125738D01*
X48187D01*
X48202D01*
X48224D01*
X48253Y125745D01*
X48335Y125753D01*
X48431Y125775D01*
X48549Y125805D01*
X48667Y125856D01*
X48786Y125930D01*
X48896Y126026D01*
X48911Y126041D01*
X48941Y126078D01*
X48985Y126137D01*
X49037Y126218D01*
X49089Y126322D01*
X49133Y126447D01*
X49163Y126588D01*
X49177Y126743D01*
Y126810D01*
X49170Y126861D01*
X49163Y126928D01*
X49148Y127002D01*
X49133Y127091D01*
X49111Y127187D01*
X49665Y127113D01*
Y127076D01*
X49658Y127046D01*
Y126950D01*
X49673Y126869D01*
X49687Y126773D01*
X49710Y126662D01*
X49746Y126536D01*
X49798Y126418D01*
X49865Y126292D01*
Y126285D01*
X49872Y126278D01*
X49902Y126241D01*
X49953Y126189D01*
X50020Y126130D01*
X50116Y126071D01*
X50227Y126019D01*
X50353Y125982D01*
X50427Y125967D01*
X50508D01*
X50515D01*
X50523D01*
X50567D01*
X50626Y125982D01*
X50707Y125997D01*
X50796Y126026D01*
X50892Y126063D01*
X50988Y126122D01*
X51077Y126204D01*
X51084Y126211D01*
X51114Y126248D01*
X51151Y126300D01*
X51195Y126366D01*
X51232Y126455D01*
X51269Y126558D01*
X51299Y126677D01*
X51306Y126810D01*
Y126869D01*
X51291Y126935D01*
X51276Y127024D01*
X51247Y127120D01*
X51210Y127216D01*
X51151Y127320D01*
X51077Y127416D01*
X51070Y127423D01*
X51033Y127453D01*
X50981Y127497D01*
X50907Y127549D01*
X50811Y127601D01*
X50693Y127652D01*
X50552Y127697D01*
X50390Y127726D01*
X50500Y128355D01*
X50508D01*
X50530Y128347D01*
X50560Y128340D01*
X50604Y128332D01*
X50656Y128317D01*
X50715Y128295D01*
X50855Y128251D01*
X51018Y128177D01*
X51180Y128088D01*
X51336Y127978D01*
X51476Y127837D01*
X51483Y127830D01*
X51491Y127815D01*
X51506Y127793D01*
X51528Y127763D01*
X51557Y127726D01*
X51587Y127675D01*
X51617Y127623D01*
X51653Y127556D01*
X51713Y127408D01*
X51772Y127238D01*
X51809Y127039D01*
X51824Y126935D01*
Y126751D01*
X51816Y126669D01*
X51801Y126573D01*
X51779Y126455D01*
X51742Y126322D01*
X51698Y126189D01*
X51639Y126056D01*
Y126048D01*
X51631Y126041D01*
X51609Y125997D01*
X51565Y125930D01*
X51513Y125856D01*
X51439Y125767D01*
X51358Y125679D01*
X51262Y125590D01*
X51151Y125516D01*
X51136Y125509D01*
X51099Y125487D01*
X51033Y125457D01*
X50951Y125420D01*
X50855Y125383D01*
X50744Y125354D01*
X50619Y125331D01*
X50493Y125324D01*
X50478D01*
X50434D01*
X50375Y125331D01*
X50293Y125346D01*
X50197Y125368D01*
X50094Y125405D01*
X49990Y125450D01*
X49887Y125509D01*
X49872Y125516D01*
X49843Y125538D01*
X49791Y125583D01*
X49732Y125642D01*
X49665Y125716D01*
X49591Y125805D01*
X49525Y125908D01*
X49458Y126034D01*
Y126026D01*
X49451Y126011D01*
X49443Y125989D01*
X49436Y125960D01*
X49406Y125878D01*
X49362Y125775D01*
X49303Y125657D01*
X49229Y125538D01*
X49133Y125428D01*
X49022Y125324D01*
X49007Y125317D01*
X48963Y125287D01*
X48889Y125243D01*
X48793Y125198D01*
X48675Y125154D01*
X48534Y125110D01*
X48372Y125080D01*
X48194Y125073D01*
X48187D01*
X48165D01*
X48128D01*
X48083Y125080D01*
X48024Y125087D01*
X47958Y125102D01*
X47884Y125117D01*
X47803Y125132D01*
X47625Y125191D01*
X47529Y125235D01*
X47440Y125280D01*
X47344Y125339D01*
X47248Y125405D01*
X47152Y125479D01*
X47063Y125568D01*
X47056Y125575D01*
X47041Y125590D01*
X47019Y125620D01*
X46989Y125657D01*
X46953Y125701D01*
X46916Y125760D01*
X46871Y125827D01*
X46834Y125908D01*
X46790Y125989D01*
X46746Y126085D01*
X46709Y126181D01*
X46672Y126292D01*
X46642Y126411D01*
X46620Y126536D01*
X46605Y126662D01*
X46598Y126802D01*
Y126869D01*
X46605Y126913D01*
X46613Y126972D01*
X46620Y127039D01*
X46635Y127113D01*
X46649Y127194D01*
X46694Y127371D01*
X46768Y127556D01*
X46812Y127652D01*
X46864Y127741D01*
X46930Y127830D01*
X46997Y127918D01*
X47004Y127926D01*
X47019Y127941D01*
X47041Y127963D01*
X47071Y127985D01*
X47108Y128022D01*
X47160Y128059D01*
X47211Y128103D01*
X47278Y128147D01*
X47352Y128192D01*
X47426Y128236D01*
X47603Y128317D01*
X47810Y128384D01*
X47921Y128406D01*
X48039Y128421D01*
X48120Y127793D01*
D02*
G37*
G36*
X-78783Y139231D02*
X-78791D01*
X-78806D01*
X-78835D01*
X-78880Y139224D01*
X-78924Y139216D01*
X-78976D01*
X-79101Y139194D01*
X-79234Y139172D01*
X-79367Y139128D01*
X-79486Y139083D01*
X-79538Y139054D01*
X-79582Y139017D01*
X-79589Y139009D01*
X-79611Y138980D01*
X-79648Y138935D01*
X-79685Y138876D01*
X-79730Y138795D01*
X-79759Y138706D01*
X-79789Y138595D01*
X-79796Y138477D01*
Y138433D01*
X-79789Y138388D01*
X-79781Y138322D01*
X-79767Y138255D01*
X-79752Y138181D01*
X-79722Y138108D01*
X-79685Y138034D01*
X-79678Y138026D01*
X-79663Y138004D01*
X-79633Y137975D01*
X-79604Y137930D01*
X-79552Y137893D01*
X-79500Y137849D01*
X-79441Y137812D01*
X-79367Y137782D01*
X-79360D01*
X-79331Y137768D01*
X-79279Y137760D01*
X-79212Y137745D01*
X-79124Y137731D01*
X-79013Y137723D01*
X-78880Y137708D01*
X-78724D01*
X-75199D01*
Y137028D01*
X-78687D01*
X-78695D01*
X-78717D01*
X-78747D01*
X-78791D01*
X-78850Y137036D01*
X-78909D01*
X-79050Y137051D01*
X-79212Y137065D01*
X-79382Y137095D01*
X-79538Y137139D01*
X-79685Y137191D01*
X-79693D01*
X-79700Y137198D01*
X-79744Y137221D01*
X-79804Y137258D01*
X-79885Y137309D01*
X-79966Y137383D01*
X-80055Y137465D01*
X-80144Y137568D01*
X-80218Y137686D01*
X-80225Y137701D01*
X-80247Y137745D01*
X-80277Y137812D01*
X-80306Y137908D01*
X-80343Y138026D01*
X-80373Y138159D01*
X-80395Y138307D01*
X-80402Y138470D01*
Y138536D01*
X-80395Y138581D01*
X-80387Y138640D01*
X-80380Y138699D01*
X-80351Y138854D01*
X-80306Y139017D01*
X-80240Y139187D01*
X-80195Y139275D01*
X-80144Y139357D01*
X-80084Y139431D01*
X-80018Y139504D01*
X-80010Y139512D01*
X-80003Y139519D01*
X-79974Y139534D01*
X-79944Y139556D01*
X-79907Y139586D01*
X-79855Y139615D01*
X-79796Y139645D01*
X-79730Y139682D01*
X-79656Y139712D01*
X-79567Y139741D01*
X-79478Y139771D01*
X-79375Y139800D01*
X-79264Y139815D01*
X-79138Y139837D01*
X-79013Y139845D01*
X-78872D01*
X-78783Y139231D01*
D02*
G37*
G36*
X-80173Y136260D02*
X-80107Y136252D01*
X-80033Y136237D01*
X-79959Y136223D01*
X-79878Y136193D01*
X-79870D01*
X-79863Y136186D01*
X-79818Y136171D01*
X-79752Y136142D01*
X-79663Y136097D01*
X-79560Y136038D01*
X-79441Y135964D01*
X-79323Y135883D01*
X-79198Y135779D01*
X-79190D01*
X-79183Y135765D01*
X-79138Y135728D01*
X-79072Y135661D01*
X-78976Y135565D01*
X-78865Y135454D01*
X-78732Y135314D01*
X-78584Y135144D01*
X-78429Y134959D01*
X-78421Y134951D01*
X-78399Y134922D01*
X-78362Y134878D01*
X-78318Y134826D01*
X-78259Y134759D01*
X-78192Y134678D01*
X-78118Y134597D01*
X-78037Y134501D01*
X-77860Y134316D01*
X-77682Y134131D01*
X-77593Y134042D01*
X-77505Y133961D01*
X-77424Y133887D01*
X-77342Y133828D01*
X-77335D01*
X-77327Y133813D01*
X-77305Y133798D01*
X-77276Y133784D01*
X-77194Y133732D01*
X-77098Y133673D01*
X-76980Y133621D01*
X-76854Y133569D01*
X-76714Y133540D01*
X-76581Y133525D01*
X-76574D01*
X-76566D01*
X-76522Y133532D01*
X-76448Y133540D01*
X-76367Y133562D01*
X-76263Y133591D01*
X-76160Y133643D01*
X-76056Y133710D01*
X-75953Y133798D01*
X-75938Y133813D01*
X-75908Y133850D01*
X-75871Y133902D01*
X-75820Y133983D01*
X-75775Y134087D01*
X-75731Y134205D01*
X-75701Y134345D01*
X-75694Y134501D01*
Y134545D01*
X-75701Y134574D01*
X-75709Y134663D01*
X-75731Y134767D01*
X-75760Y134878D01*
X-75812Y135003D01*
X-75879Y135121D01*
X-75967Y135232D01*
X-75982Y135247D01*
X-76019Y135277D01*
X-76078Y135321D01*
X-76167Y135365D01*
X-76270Y135417D01*
X-76403Y135462D01*
X-76551Y135491D01*
X-76721Y135506D01*
X-76655Y136149D01*
X-76647D01*
X-76625Y136142D01*
X-76588D01*
X-76537Y136134D01*
X-76477Y136119D01*
X-76411Y136104D01*
X-76330Y136082D01*
X-76248Y136060D01*
X-76071Y136001D01*
X-75894Y135912D01*
X-75805Y135861D01*
X-75716Y135794D01*
X-75635Y135728D01*
X-75561Y135654D01*
X-75553Y135646D01*
X-75546Y135632D01*
X-75524Y135609D01*
X-75502Y135572D01*
X-75472Y135528D01*
X-75443Y135476D01*
X-75406Y135417D01*
X-75369Y135343D01*
X-75332Y135262D01*
X-75295Y135173D01*
X-75265Y135077D01*
X-75236Y134974D01*
X-75213Y134863D01*
X-75191Y134745D01*
X-75184Y134619D01*
X-75177Y134486D01*
Y134412D01*
X-75184Y134360D01*
X-75191Y134301D01*
X-75199Y134227D01*
X-75213Y134146D01*
X-75228Y134065D01*
X-75280Y133872D01*
X-75354Y133680D01*
X-75398Y133584D01*
X-75450Y133488D01*
X-75517Y133399D01*
X-75591Y133318D01*
X-75598Y133311D01*
X-75605Y133296D01*
X-75635Y133281D01*
X-75664Y133251D01*
X-75701Y133215D01*
X-75753Y133177D01*
X-75805Y133141D01*
X-75871Y133096D01*
X-76012Y133022D01*
X-76189Y132948D01*
X-76278Y132919D01*
X-76381Y132904D01*
X-76485Y132889D01*
X-76596Y132882D01*
X-76610D01*
X-76647D01*
X-76707Y132889D01*
X-76788Y132897D01*
X-76877Y132911D01*
X-76980Y132941D01*
X-77091Y132971D01*
X-77202Y133015D01*
X-77217Y133022D01*
X-77253Y133037D01*
X-77313Y133067D01*
X-77394Y133111D01*
X-77483Y133170D01*
X-77593Y133244D01*
X-77704Y133333D01*
X-77830Y133436D01*
X-77845Y133451D01*
X-77889Y133488D01*
X-77926Y133525D01*
X-77963Y133562D01*
X-78007Y133606D01*
X-78067Y133665D01*
X-78126Y133724D01*
X-78192Y133798D01*
X-78266Y133872D01*
X-78347Y133961D01*
X-78429Y134057D01*
X-78525Y134161D01*
X-78621Y134279D01*
X-78724Y134397D01*
X-78732Y134404D01*
X-78747Y134419D01*
X-78769Y134449D01*
X-78798Y134486D01*
X-78843Y134530D01*
X-78887Y134582D01*
X-78983Y134700D01*
X-79094Y134826D01*
X-79205Y134944D01*
X-79301Y135048D01*
X-79338Y135092D01*
X-79375Y135129D01*
X-79382Y135136D01*
X-79404Y135158D01*
X-79434Y135188D01*
X-79478Y135225D01*
X-79530Y135262D01*
X-79582Y135306D01*
X-79707Y135395D01*
Y132874D01*
X-80314D01*
Y136267D01*
X-80306D01*
X-80277D01*
X-80232D01*
X-80173Y136260D01*
D02*
G37*
%LPC*%
G36*
X152791Y50832D02*
X151180D01*
Y49139D01*
X152702D01*
X152791Y49146D01*
X152895Y49154D01*
X153013Y49161D01*
X153131Y49176D01*
X153249Y49198D01*
X153353Y49228D01*
X153368Y49235D01*
X153397Y49250D01*
X153442Y49272D01*
X153501Y49302D01*
X153567Y49346D01*
X153634Y49398D01*
X153700Y49464D01*
X153752Y49538D01*
X153759Y49546D01*
X153774Y49575D01*
X153796Y49620D01*
X153826Y49679D01*
X153848Y49745D01*
X153870Y49819D01*
X153885Y49908D01*
X153892Y49997D01*
Y50004D01*
Y50011D01*
X153885Y50056D01*
X153878Y50122D01*
X153863Y50211D01*
X153826Y50300D01*
X153782Y50403D01*
X153715Y50499D01*
X153626Y50595D01*
X153612Y50603D01*
X153575Y50632D01*
X153516Y50669D01*
X153419Y50714D01*
X153308Y50758D01*
X153161Y50795D01*
X152991Y50824D01*
X152791Y50832D01*
D02*
G37*
G36*
X140759Y114070D02*
X136856D01*
Y112858D01*
X136863Y112806D01*
X136871Y112695D01*
X136878Y112570D01*
X136893Y112437D01*
X136915Y112304D01*
X136945Y112193D01*
X136952Y112178D01*
X136960Y112141D01*
X136982Y112089D01*
X137011Y112023D01*
X137056Y111949D01*
X137100Y111875D01*
X137152Y111801D01*
X137211Y111727D01*
X137226Y111720D01*
X137255Y111690D01*
X137307Y111646D01*
X137381Y111594D01*
X137477Y111535D01*
X137588Y111468D01*
X137713Y111409D01*
X137854Y111357D01*
X137861D01*
X137876Y111350D01*
X137898Y111343D01*
X137928Y111335D01*
X137965Y111328D01*
X138017Y111313D01*
X138068Y111298D01*
X138127Y111284D01*
X138275Y111261D01*
X138445Y111239D01*
X138637Y111224D01*
X138844Y111217D01*
X138852D01*
X138881D01*
X138918D01*
X138977Y111224D01*
X139044D01*
X139118Y111232D01*
X139207Y111239D01*
X139295Y111247D01*
X139495Y111284D01*
X139702Y111328D01*
X139894Y111394D01*
X139990Y111439D01*
X140071Y111483D01*
X140079D01*
X140093Y111498D01*
X140116Y111513D01*
X140145Y111528D01*
X140219Y111587D01*
X140308Y111660D01*
X140404Y111757D01*
X140500Y111868D01*
X140581Y111993D01*
X140648Y112126D01*
X140655Y112141D01*
X140663Y112178D01*
X140685Y112244D01*
X140707Y112340D01*
X140722Y112459D01*
X140744Y112607D01*
X140751Y112695D01*
Y112791D01*
X140759Y112887D01*
Y114070D01*
D02*
G37*
%LPD*%
D12*
X179000Y41110D02*
Y58890D01*
X143000D02*
X179000D01*
X143000Y41110D02*
X179000D01*
X143000D02*
Y58890D01*
X120250Y77000D02*
Y133000D01*
Y77000D02*
X159750D01*
Y133000D01*
X120250D02*
X159750D01*
X10000Y85900D02*
X104000D01*
X10000D02*
Y176000D01*
X104000Y85900D02*
Y176000D01*
X10000D02*
X104000D01*
X-200000Y170000D02*
X-39000D01*
X-200000Y86000D02*
Y170000D01*
Y86000D02*
X-39000D01*
Y170000D01*
D88*
X140001Y126868D02*
D03*
M02*
