G04*
G04 #@! TF.GenerationSoftware,Altium Limited,Altium Designer,26.6.0 (10)*
G04*
G04 Layer_Color=255*
G04 Board_Origin=29350000|14702756*
%FSLAX44Y44*%
%MOMM*%
G71*
G04*
G04 #@! TF.SameCoordinates,4A6F4C04-391A-4FDC-A87F-652DF65B7CFD*
G04*
G04*
G04 #@! TF.FilePolarity,Positive*
G04*
G01*
G75*
G04:AMPARAMS|DCode=23|XSize=0.76mm|YSize=0.6604mm|CornerRadius=0.0825mm|HoleSize=0mm|Usage=FLASHONLY|Rotation=180.000|XOffset=0mm|YOffset=0mm|HoleType=Round|Shape=RoundedRectangle|*
%AMROUNDEDRECTD23*
21,1,0.7600,0.4953,0,0,180.0*
21,1,0.5949,0.6604,0,0,180.0*
1,1,0.1651,-0.2975,0.2477*
1,1,0.1651,0.2975,0.2477*
1,1,0.1651,0.2975,-0.2477*
1,1,0.1651,-0.2975,-0.2477*
%
%ADD23ROUNDEDRECTD23*%
%ADD41R,0.9500X1.0000*%
%ADD61C,1.5700*%
%ADD62R,1.5700X1.5700*%
%ADD69C,2.2000*%
%ADD70R,2.2000X2.2000*%
%ADD71C,6.2000*%
%ADD74C,0.6000*%
%ADD75R,0.5500X0.5000*%
%ADD76R,1.0000X1.5000*%
G04:AMPARAMS|DCode=77|XSize=1.1mm|YSize=0.6mm|CornerRadius=0.051mm|HoleSize=0mm|Usage=FLASHONLY|Rotation=270.000|XOffset=0mm|YOffset=0mm|HoleType=Round|Shape=RoundedRectangle|*
%AMROUNDEDRECTD77*
21,1,1.1000,0.4980,0,0,270.0*
21,1,0.9980,0.6000,0,0,270.0*
1,1,0.1020,-0.2490,-0.4990*
1,1,0.1020,-0.2490,0.4990*
1,1,0.1020,0.2490,0.4990*
1,1,0.1020,0.2490,-0.4990*
%
%ADD77ROUNDEDRECTD77*%
%ADD78R,1.2700X2.1000*%
D23*
X592500Y435000D02*
D03*
Y421000D02*
D03*
X595000Y337798D02*
D03*
Y351798D02*
D03*
X592000Y251000D02*
D03*
Y265000D02*
D03*
X595000Y173000D02*
D03*
Y187000D02*
D03*
X597500Y102000D02*
D03*
Y88000D02*
D03*
X425000Y434500D02*
D03*
Y420500D02*
D03*
X427500Y352000D02*
D03*
Y338000D02*
D03*
Y264500D02*
D03*
Y250500D02*
D03*
X382000Y181000D02*
D03*
Y167000D02*
D03*
X385000Y95000D02*
D03*
Y81000D02*
D03*
X255000Y434500D02*
D03*
Y420500D02*
D03*
Y335500D02*
D03*
Y349500D02*
D03*
Y262000D02*
D03*
Y248000D02*
D03*
X216000Y179000D02*
D03*
Y165000D02*
D03*
X217006Y91048D02*
D03*
Y77048D02*
D03*
X80000Y395500D02*
D03*
Y409500D02*
D03*
D41*
X591500Y405000D02*
D03*
X578500D02*
D03*
X581000Y322500D02*
D03*
X594000D02*
D03*
X581000Y237500D02*
D03*
X594000D02*
D03*
X581000Y155000D02*
D03*
X594000D02*
D03*
X571000Y80000D02*
D03*
X584000D02*
D03*
X411000Y405000D02*
D03*
X424000D02*
D03*
X413500Y322500D02*
D03*
X426500D02*
D03*
X401000Y237500D02*
D03*
X414000D02*
D03*
X371000Y152500D02*
D03*
X384000D02*
D03*
X372000Y67500D02*
D03*
X385000D02*
D03*
X241000Y405000D02*
D03*
X254000D02*
D03*
X238500Y322500D02*
D03*
X251500D02*
D03*
X228000Y237000D02*
D03*
X241000D02*
D03*
X203500Y152000D02*
D03*
X216500D02*
D03*
X191000Y67500D02*
D03*
X204000D02*
D03*
X67500Y380000D02*
D03*
X80500D02*
D03*
D61*
X566000Y514600D02*
D03*
X489800Y540000D02*
D03*
X439000D02*
D03*
X388200Y514600D02*
D03*
X312000Y540000D02*
D03*
X235800D02*
D03*
X134200D02*
D03*
X337400Y514600D02*
D03*
X362800Y540000D02*
D03*
X261200D02*
D03*
X312000Y514600D02*
D03*
X337400Y540000D02*
D03*
X286600D02*
D03*
X362800Y514600D02*
D03*
X261200D02*
D03*
X566000Y540000D02*
D03*
X540600D02*
D03*
X515200D02*
D03*
X464400D02*
D03*
X413600D02*
D03*
X388200D02*
D03*
X210400D02*
D03*
X185000D02*
D03*
X159600D02*
D03*
X108800D02*
D03*
X83400D02*
D03*
X540600Y514600D02*
D03*
X515200D02*
D03*
X489800D02*
D03*
X464400D02*
D03*
X439000D02*
D03*
X413600D02*
D03*
X286600D02*
D03*
X235800D02*
D03*
X210400D02*
D03*
X185000D02*
D03*
X159600D02*
D03*
X134200D02*
D03*
X108800D02*
D03*
D62*
X83400D02*
D03*
D69*
X90000Y111900D02*
D03*
D70*
Y150000D02*
D03*
D71*
X35000Y525000D02*
D03*
X615000D02*
D03*
Y35000D02*
D03*
X35000D02*
D03*
D74*
X15000Y407500D02*
D03*
X492500Y415000D02*
D03*
Y430000D02*
D03*
Y330000D02*
D03*
Y345000D02*
D03*
Y245000D02*
D03*
Y259250D02*
D03*
X497500Y162500D02*
D03*
Y177500D02*
D03*
X492500Y82500D02*
D03*
Y97500D02*
D03*
X322500Y412500D02*
D03*
Y427500D02*
D03*
X325000Y330000D02*
D03*
Y345000D02*
D03*
X322500Y245000D02*
D03*
Y260000D02*
D03*
X285000Y155000D02*
D03*
Y170000D02*
D03*
Y75000D02*
D03*
Y90000D02*
D03*
X152500Y412500D02*
D03*
Y427500D02*
D03*
X155000Y330000D02*
D03*
Y345000D02*
D03*
Y245000D02*
D03*
Y260000D02*
D03*
X122500Y160000D02*
D03*
Y175000D02*
D03*
X115000Y72500D02*
D03*
Y87500D02*
D03*
X15000Y392500D02*
D03*
D75*
X100000Y462500D02*
D03*
X92500D02*
D03*
X625000D02*
D03*
X617500D02*
D03*
X613750Y380000D02*
D03*
X621250D02*
D03*
X611250Y295000D02*
D03*
X618750D02*
D03*
X613750Y212500D02*
D03*
X621250D02*
D03*
X618750Y130000D02*
D03*
X611250D02*
D03*
X447750Y466000D02*
D03*
X440250D02*
D03*
X450000Y380000D02*
D03*
X442500D02*
D03*
X452500Y295000D02*
D03*
X445000D02*
D03*
X405000Y210000D02*
D03*
X412500D02*
D03*
X423750Y130000D02*
D03*
X416250D02*
D03*
X280000Y462500D02*
D03*
X272500D02*
D03*
X272500Y380000D02*
D03*
X265000D02*
D03*
X267250Y295000D02*
D03*
X274750D02*
D03*
X232500Y211000D02*
D03*
X225000D02*
D03*
X231250Y125000D02*
D03*
X223750D02*
D03*
D76*
X76500Y445000D02*
D03*
X98500D02*
D03*
X564000Y460000D02*
D03*
X586000D02*
D03*
X556500Y377500D02*
D03*
X578500D02*
D03*
Y292500D02*
D03*
X556500D02*
D03*
Y210000D02*
D03*
X578500D02*
D03*
X556500Y127500D02*
D03*
X578500D02*
D03*
X386750Y455250D02*
D03*
X408750D02*
D03*
X389000Y375000D02*
D03*
X411000D02*
D03*
X391500Y290000D02*
D03*
X413500D02*
D03*
X347500Y207500D02*
D03*
X369500D02*
D03*
X346500Y122500D02*
D03*
X368500D02*
D03*
X216500Y460000D02*
D03*
X238500D02*
D03*
X219000Y377500D02*
D03*
X241000D02*
D03*
X221500Y292500D02*
D03*
X243500D02*
D03*
X187000Y207000D02*
D03*
X209000D02*
D03*
X186500Y120000D02*
D03*
X208500D02*
D03*
D77*
X110000Y408000D02*
D03*
X100500Y382000D02*
D03*
X119500Y408000D02*
D03*
Y382000D02*
D03*
X100500Y408000D02*
D03*
X625000Y107500D02*
D03*
X615500Y81500D02*
D03*
X634500Y107500D02*
D03*
X615500D02*
D03*
X634500Y81500D02*
D03*
X455000Y433000D02*
D03*
X445500Y407000D02*
D03*
X464500D02*
D03*
X445500Y433000D02*
D03*
X464500D02*
D03*
X622500D02*
D03*
X632000D02*
D03*
X613000Y407000D02*
D03*
Y433000D02*
D03*
X632000Y407000D02*
D03*
X622500Y348000D02*
D03*
X613000Y322000D02*
D03*
X632000D02*
D03*
X613000Y348000D02*
D03*
X632000D02*
D03*
X623000Y266000D02*
D03*
X632500D02*
D03*
X613500Y240000D02*
D03*
Y266000D02*
D03*
X632500Y240000D02*
D03*
X625267Y181906D02*
D03*
X634767D02*
D03*
X615767Y155906D02*
D03*
Y181906D02*
D03*
X634767Y155906D02*
D03*
X455000Y350500D02*
D03*
X445500Y324500D02*
D03*
Y350500D02*
D03*
X464500Y324500D02*
D03*
Y350500D02*
D03*
X454500Y263500D02*
D03*
X445000Y237500D02*
D03*
X464000Y263500D02*
D03*
X445000D02*
D03*
X464000Y237500D02*
D03*
X412500Y177500D02*
D03*
X403000Y151500D02*
D03*
X422000Y177500D02*
D03*
Y151500D02*
D03*
X403000Y177500D02*
D03*
X412500Y93000D02*
D03*
X403000Y67000D02*
D03*
Y93000D02*
D03*
X422000Y67000D02*
D03*
Y93000D02*
D03*
X282500Y432500D02*
D03*
X273000Y406500D02*
D03*
X292000Y432500D02*
D03*
Y406500D02*
D03*
X273000Y432500D02*
D03*
X282500Y350500D02*
D03*
X273000Y324500D02*
D03*
X292000Y350500D02*
D03*
Y324500D02*
D03*
X273000Y350500D02*
D03*
X282500Y265000D02*
D03*
X273000Y239000D02*
D03*
X292000D02*
D03*
X273000Y265000D02*
D03*
X292000D02*
D03*
X244500Y180000D02*
D03*
X235000Y154000D02*
D03*
X254000Y180000D02*
D03*
X235000D02*
D03*
X254000Y154000D02*
D03*
X242500Y95000D02*
D03*
X233000Y69000D02*
D03*
Y95000D02*
D03*
X252000Y69000D02*
D03*
Y95000D02*
D03*
D78*
X12650Y455000D02*
D03*
X52350D02*
D03*
X495150D02*
D03*
X534850D02*
D03*
X492650Y372500D02*
D03*
X532350D02*
D03*
X492650Y287500D02*
D03*
X532350D02*
D03*
X495150Y202500D02*
D03*
X534850D02*
D03*
X495150Y122500D02*
D03*
X534850D02*
D03*
X325150Y452500D02*
D03*
X364850D02*
D03*
X325000Y370000D02*
D03*
X364700D02*
D03*
X325150Y285000D02*
D03*
X364850D02*
D03*
X282650Y200000D02*
D03*
X322350D02*
D03*
X285150Y117500D02*
D03*
X324850D02*
D03*
X155150Y454750D02*
D03*
X194850D02*
D03*
X156400Y372500D02*
D03*
X196100D02*
D03*
X155150Y286000D02*
D03*
X194850D02*
D03*
X120150Y202500D02*
D03*
X159850D02*
D03*
X120150Y115000D02*
D03*
X159850D02*
D03*
M02*
