G04*
G04 #@! TF.GenerationSoftware,Altium Limited,Altium Designer,26.6.0 (10)*
G04*
G04 Layer_Color=16711935*
G04 Board_Origin=29350000|14702756*
%FSLAX44Y44*%
%MOMM*%
G71*
G04*
G04 #@! TF.SameCoordinates,4A6F4C04-391A-4FDC-A87F-652DF65B7CFD*
G04*
G04*
G04 #@! TF.FilePolarity,Positive*
G04*
G01*
G75*
%ADD12C,0.2000*%
%ADD68C,0.1500*%
%ADD82C,0.1270*%
D12*
X850000Y530250D02*
X850000Y29829D01*
X30000Y560000D02*
X820000Y560000D01*
X30000Y0D02*
X820000D01*
X10000Y360000D02*
X40000D01*
X0Y370000D02*
Y530000D01*
X10000Y190000D02*
X40000D01*
X50000Y200000D02*
Y350000D01*
X0Y30000D02*
Y180000D01*
X320000Y520000D02*
X330000Y530000D01*
X320000D02*
X330000Y520000D01*
X78700Y507300D02*
X88700Y517300D01*
X78700D02*
X88700Y507300D01*
D68*
X490750Y303897D02*
Y297233D01*
X492083Y295900D01*
X494749D01*
X496082Y297233D01*
Y303897D01*
X498747Y295900D02*
X501413D01*
X500080D01*
Y303897D01*
X498747Y302565D01*
X505412Y297233D02*
X506745Y295900D01*
X509411D01*
X510744Y297233D01*
Y302565D01*
X509411Y303897D01*
X506745D01*
X505412Y302565D01*
Y301232D01*
X506745Y299899D01*
X510744D01*
X329250Y442497D02*
Y435833D01*
X330583Y434500D01*
X333249D01*
X334582Y435833D01*
Y442497D01*
X337247Y434500D02*
X339913D01*
X338580D01*
Y442497D01*
X337247Y441165D01*
X492250Y445497D02*
Y438833D01*
X493583Y437500D01*
X496249D01*
X497582Y438833D01*
Y445497D01*
X500247Y444165D02*
X501580Y445497D01*
X504246D01*
X505579Y444165D01*
Y442832D01*
X504246Y441499D01*
X502913D01*
X504246D01*
X505579Y440166D01*
Y438833D01*
X504246Y437500D01*
X501580D01*
X500247Y438833D01*
X337250Y297497D02*
Y290833D01*
X338583Y289500D01*
X341249D01*
X342582Y290833D01*
Y297497D01*
X345247Y289500D02*
X347913D01*
X346580D01*
Y297497D01*
X345247Y296164D01*
X355911Y289500D02*
Y297497D01*
X351912Y293499D01*
X357244D01*
D82*
X820000Y-171D02*
G03*
X850000Y29829I0J30000D01*
G01*
X850000Y530421D02*
G03*
X820000Y560421I-30000J0D01*
G01*
X50000Y350000D02*
G03*
X40000Y360000I-10000J0D01*
G01*
X30000Y560000D02*
G03*
X0Y530000I0J-30000D01*
G01*
X-0Y370000D02*
G03*
X10000Y360000I10000J0D01*
G01*
X0Y30000D02*
G03*
X30000Y0I30000J0D01*
G01*
X40000Y190000D02*
G03*
X50000Y200000I0J10000D01*
G01*
X10000Y190000D02*
G03*
X0Y180000I0J-10000D01*
G01*
M02*
