G04*
G04 #@! TF.GenerationSoftware,Altium Limited,Altium Designer,26.6.0 (10)*
G04*
G04 Layer_Color=128*
G04 Board_Origin=29350000|14702756*
%FSLAX44Y44*%
%MOMM*%
G71*
G04*
G04 #@! TF.SameCoordinates,4A6F4C04-391A-4FDC-A87F-652DF65B7CFD*
G04*
G04*
G04 #@! TF.FilePolarity,Positive*
G04*
G01*
G75*
%ADD82C,0.1270*%
D82*
X560900Y514600D02*
X571100D01*
X566000Y509500D02*
Y519700D01*
X484700Y540000D02*
X494900D01*
X489800Y534900D02*
Y545100D01*
X433900Y540000D02*
X444100D01*
X439000Y534900D02*
Y545100D01*
X383100Y514600D02*
X393300D01*
X388200Y509500D02*
Y519700D01*
X306900Y540000D02*
X317100D01*
X312000Y534900D02*
Y545100D01*
X230700Y540000D02*
X240900D01*
X235800Y534900D02*
Y545100D01*
X129100Y540000D02*
X139300D01*
X134200Y534900D02*
Y545100D01*
X332300Y514600D02*
X342500D01*
X337400Y509500D02*
Y519700D01*
X357700Y540000D02*
X367900D01*
X362800Y534900D02*
Y545100D01*
X256100Y540000D02*
X266300D01*
X261200Y534900D02*
Y545100D01*
X306900Y514600D02*
X317100D01*
X312000Y509500D02*
Y519700D01*
X332300Y540000D02*
X342500D01*
X337400Y534900D02*
Y545100D01*
X281500Y540000D02*
X291700D01*
X286600Y534900D02*
Y545100D01*
X357700Y514600D02*
X367900D01*
X362800Y509500D02*
Y519700D01*
X256100Y514600D02*
X266300D01*
X261200Y509500D02*
Y519700D01*
X560900Y540000D02*
X571100D01*
X566000Y534900D02*
Y545100D01*
X535500Y540000D02*
X545700D01*
X540600Y534900D02*
Y545100D01*
X510100Y540000D02*
X520300D01*
X515200Y534900D02*
Y545100D01*
X459300Y540000D02*
X469500D01*
X464400Y534900D02*
Y545100D01*
X408500Y540000D02*
X418700D01*
X413600Y534900D02*
Y545100D01*
X383100Y540000D02*
X393300D01*
X388200Y534900D02*
Y545100D01*
X205300Y540000D02*
X215500D01*
X210400Y534900D02*
Y545100D01*
X179900Y540000D02*
X190100D01*
X185000Y534900D02*
Y545100D01*
X154500Y540000D02*
X164700D01*
X159600Y534900D02*
Y545100D01*
X103700Y540000D02*
X113900D01*
X108800Y534900D02*
Y545100D01*
X78300Y540000D02*
X88500D01*
X83400Y534900D02*
Y545100D01*
X535500Y514600D02*
X545700D01*
X540600Y509500D02*
Y519700D01*
X510100Y514600D02*
X520300D01*
X515200Y509500D02*
Y519700D01*
X484700Y514600D02*
X494900D01*
X489800Y509500D02*
Y519700D01*
X459300Y514600D02*
X469500D01*
X464400Y509500D02*
Y519700D01*
X433900Y514600D02*
X444100D01*
X439000Y509500D02*
Y519700D01*
X408500Y514600D02*
X418700D01*
X413600Y509500D02*
Y519700D01*
X281500Y514600D02*
X291700D01*
X286600Y509500D02*
Y519700D01*
X230700Y514600D02*
X240900D01*
X235800Y509500D02*
Y519700D01*
X205300Y514600D02*
X215500D01*
X210400Y509500D02*
Y519700D01*
X179900Y514600D02*
X190100D01*
X185000Y509500D02*
Y519700D01*
X154500Y514600D02*
X164700D01*
X159600Y509500D02*
Y519700D01*
X129100Y514600D02*
X139300D01*
X134200Y509500D02*
Y519700D01*
X103700Y514600D02*
X113900D01*
X108800Y509500D02*
Y519700D01*
X78300Y514600D02*
X88500D01*
X83400Y509500D02*
Y519700D01*
X83000Y111900D02*
X97000D01*
X90000Y104900D02*
Y118900D01*
X83000Y150000D02*
X97000D01*
X90000Y143000D02*
Y157000D01*
X21250Y525000D02*
X48750D01*
X35000Y511250D02*
Y538750D01*
X601250Y525000D02*
X628750D01*
X615000Y511250D02*
Y538750D01*
X601250Y35000D02*
X628750D01*
X615000Y21250D02*
Y48750D01*
X21250Y35000D02*
X48750D01*
X35000Y21250D02*
Y48750D01*
X613750Y473432D02*
X616750D01*
X615250Y471932D02*
Y474932D01*
X169435Y395693D02*
X172435D01*
X170935Y394193D02*
Y397193D01*
X176435Y395693D02*
X179435D01*
X177935Y394193D02*
Y397193D01*
X165750Y381469D02*
X168750D01*
X167250Y379969D02*
Y382969D01*
X129602Y323450D02*
X132602D01*
X131102Y321950D02*
Y324950D01*
X144243Y322993D02*
X147243D01*
X145743Y321493D02*
Y324493D01*
X238611Y195111D02*
X241611D01*
X240111Y193611D02*
Y196611D01*
X31361Y408808D02*
X34362D01*
X32861Y407308D02*
Y410308D01*
X56749Y374749D02*
X59749D01*
X58249Y373249D02*
Y376249D01*
X453000Y453500D02*
X456000D01*
X454500Y452000D02*
Y455000D01*
X134868Y342536D02*
X137868D01*
X136368Y341036D02*
Y344036D01*
X136189Y365561D02*
X139189D01*
X137689Y364061D02*
Y367061D01*
X83455Y314154D02*
X86455D01*
X84955Y312654D02*
Y315654D01*
X78139Y324257D02*
X81139D01*
X79639Y322757D02*
Y325757D01*
X656500Y223000D02*
X659500D01*
X658000Y221500D02*
Y224500D01*
X633823Y310000D02*
X636823D01*
X635323Y308500D02*
Y311500D01*
X653500Y304250D02*
X656500D01*
X655000Y302750D02*
Y305750D01*
X372616Y506156D02*
X375616D01*
X374116Y504656D02*
Y507656D01*
X612500Y254750D02*
X615500D01*
X614000Y253250D02*
Y256250D01*
X647146Y483392D02*
X650146D01*
X648646Y481892D02*
Y484892D01*
X746892Y369392D02*
X749892D01*
X748392Y367892D02*
Y370892D01*
X617488Y122495D02*
X620488D01*
X618988Y120995D02*
Y123995D01*
X812750Y451500D02*
X815750D01*
X814250Y450000D02*
Y453000D01*
X767892Y450892D02*
X770892D01*
X769392Y449392D02*
Y452392D01*
X626250Y451000D02*
X629250D01*
X627750Y449500D02*
Y452500D01*
X694892Y192392D02*
X697892D01*
X696392Y190892D02*
Y193892D01*
X672200Y192012D02*
X675200D01*
X673700Y190512D02*
Y193512D01*
X582142Y191892D02*
X585142D01*
X583642Y190392D02*
Y193392D01*
X789500Y473000D02*
X792500D01*
X791000Y471500D02*
Y474500D01*
X752750Y473250D02*
X755750D01*
X754250Y471750D02*
Y474750D01*
X575293Y42265D02*
X578293D01*
X576793Y40765D02*
Y43765D01*
X557500Y32250D02*
X560500D01*
X559000Y30750D02*
Y33750D01*
X576500Y93250D02*
X579500D01*
X578000Y91750D02*
Y94750D01*
X576642Y109642D02*
X579642D01*
X578142Y108142D02*
Y111142D01*
X605082Y253452D02*
X608082D01*
X606582Y251952D02*
Y254952D01*
X757750Y285500D02*
X760750D01*
X759250Y284000D02*
Y287000D01*
X719191Y308310D02*
X722190D01*
X720691Y306810D02*
Y309810D01*
X732000Y316500D02*
X735000D01*
X733500Y315000D02*
Y318000D01*
X754000Y326000D02*
X757000D01*
X755500Y324500D02*
Y327500D01*
X571500Y483500D02*
X574500D01*
X573000Y482000D02*
Y485000D01*
X554500Y400551D02*
X557500D01*
X556000Y399051D02*
Y402051D01*
X554500Y389551D02*
X557500D01*
X556000Y388051D02*
Y391051D01*
X717500Y378250D02*
X720500D01*
X719000Y376750D02*
Y379750D01*
X757250Y305250D02*
X760250D01*
X758750Y303750D02*
Y306750D01*
X733264Y354514D02*
X736264D01*
X734764Y353014D02*
Y356014D01*
X726250Y361250D02*
X729250D01*
X727750Y359750D02*
Y362750D01*
X754000Y336500D02*
X757000D01*
X755500Y335000D02*
Y338000D01*
X753000Y345000D02*
X756000D01*
X754500Y343500D02*
Y346500D01*
X570521Y365509D02*
X573521D01*
X572021Y364009D02*
Y367009D01*
X559000Y356250D02*
X562000D01*
X560500Y354750D02*
Y357750D01*
X558000Y365000D02*
X561000D01*
X559500Y363500D02*
Y366500D01*
X516325Y345000D02*
X519325D01*
X517825Y343500D02*
Y346500D01*
X567250Y373250D02*
X570250D01*
X568750Y371750D02*
Y374750D01*
X567474Y380924D02*
X570474D01*
X568974Y379424D02*
Y382424D01*
X538250Y359309D02*
X541250D01*
X539750Y357809D02*
Y360809D01*
X568508Y397500D02*
X571508D01*
X570008Y396000D02*
Y399000D01*
X573256Y446154D02*
X576256D01*
X574756Y444654D02*
Y447654D01*
X622000Y406000D02*
X625000D01*
X623500Y404500D02*
Y407500D01*
X545750Y435000D02*
X548750D01*
X547250Y433500D02*
Y436500D01*
X622770Y332758D02*
X625770D01*
X624270Y331258D02*
Y334258D01*
X618253Y248657D02*
X621253D01*
X619753Y247157D02*
Y250157D01*
X623500Y94809D02*
X626500D01*
X625000Y93308D02*
Y96308D01*
X637250Y496500D02*
X640250D01*
X638750Y495000D02*
Y498000D01*
X816494Y281715D02*
X819494D01*
X817994Y280215D02*
Y283215D01*
X86938Y7544D02*
X89938D01*
X88438Y6044D02*
Y9044D01*
X103500Y24750D02*
X106500D01*
X105000Y23250D02*
Y26250D01*
X93500Y25000D02*
X96500D01*
X95000Y23500D02*
Y26500D01*
X40000Y111250D02*
X43000D01*
X41500Y109750D02*
Y112750D01*
X75750Y224973D02*
X78750D01*
X77250Y223473D02*
Y226473D01*
X117000Y19250D02*
X120000D01*
X118500Y17750D02*
Y20750D01*
X426250Y459394D02*
X429250D01*
X427750Y457895D02*
Y460895D01*
X466250Y471000D02*
X469250D01*
X467750Y469500D02*
Y472500D01*
X309000Y323725D02*
X312000D01*
X310500Y322225D02*
Y325225D01*
X309000Y300176D02*
X312000D01*
X310500Y298676D02*
Y301676D01*
X276992Y78728D02*
X279992D01*
X278492Y77228D02*
Y80228D01*
X306957Y80250D02*
X309957D01*
X308457Y78750D02*
Y81750D01*
X313418Y81582D02*
X316418D01*
X314918Y80082D02*
Y83082D01*
X310250Y287031D02*
X313250D01*
X311750Y285531D02*
Y288531D01*
X310500Y251250D02*
X313500D01*
X312000Y249750D02*
Y252750D01*
X296323Y230270D02*
X299323D01*
X297823Y228769D02*
Y231770D01*
X366709Y176250D02*
X369709D01*
X368209Y174750D02*
Y177750D01*
X380500Y114250D02*
X383500D01*
X382000Y112750D02*
Y115750D01*
X508764Y459910D02*
X511764D01*
X510264Y458410D02*
Y461410D01*
X508750Y447750D02*
X511750D01*
X510250Y446250D02*
Y449250D01*
X518198Y400844D02*
X521198D01*
X519698Y399344D02*
Y402344D01*
X513574Y421074D02*
X516574D01*
X515074Y419574D02*
Y422574D01*
X503657Y358500D02*
X506657D01*
X505157Y357000D02*
Y360000D01*
X499728Y347754D02*
X502728D01*
X501227Y346254D02*
Y349254D01*
X512882Y331435D02*
X515882D01*
X514381Y329935D02*
Y332935D01*
X426950Y467450D02*
X429950D01*
X428451Y465951D02*
Y468950D01*
X428270Y443465D02*
X431270D01*
X429770Y441965D02*
Y444965D01*
X343372Y504706D02*
X346372D01*
X344872Y503206D02*
Y506206D01*
X336500Y448000D02*
X339500D01*
X338000Y446500D02*
Y449500D01*
X386500Y426262D02*
X389500D01*
X388000Y424762D02*
Y427762D01*
X429403Y386096D02*
X432402D01*
X430902Y384596D02*
Y387596D01*
X460480Y340500D02*
X463480D01*
X461980Y339000D02*
Y342000D01*
X422500Y365500D02*
X425500D01*
X424000Y364000D02*
Y367000D01*
X336500Y418000D02*
X339500D01*
X338000Y416500D02*
Y419500D01*
X346000Y360250D02*
X349000D01*
X347500Y358750D02*
Y361750D01*
X503717Y294980D02*
X506717D01*
X505218Y293480D02*
Y296480D01*
X543943Y233520D02*
X546943D01*
X545443Y232020D02*
Y235020D01*
X507750Y207250D02*
X510750D01*
X509250Y205750D02*
Y208750D01*
X461111Y253389D02*
X464111D01*
X462611Y251889D02*
Y254889D01*
X477000Y191604D02*
X480000D01*
X478500Y190104D02*
Y193104D01*
X505500Y161730D02*
X508500D01*
X507000Y160230D02*
Y163230D01*
X504291Y110875D02*
X507291D01*
X505791Y109375D02*
Y112375D01*
X505855Y84773D02*
X508855D01*
X507355Y83273D02*
Y86273D01*
X489250Y157750D02*
X492250D01*
X490750Y156250D02*
Y159250D01*
X434399Y297853D02*
X437399D01*
X435899Y296353D02*
Y299353D01*
X439500Y273000D02*
X442500D01*
X441000Y271500D02*
Y274500D01*
X430300Y285040D02*
X433300D01*
X431800Y283540D02*
Y286540D01*
X350000Y292000D02*
X353000D01*
X351500Y290500D02*
Y293500D01*
X345500Y271500D02*
X348500D01*
X347000Y270000D02*
Y273000D01*
X399000Y111750D02*
X402000D01*
X400500Y110250D02*
Y113250D01*
X337000Y234000D02*
X340000D01*
X338500Y232500D02*
Y235500D01*
X373500Y35000D02*
X376500D01*
X375000Y33500D02*
Y36500D01*
X244750Y440500D02*
X247750D01*
X246250Y439000D02*
Y442000D01*
X232155Y476723D02*
X235154D01*
X233654Y475223D02*
Y478223D01*
X208250Y475512D02*
X211250D01*
X209750Y474012D02*
Y477012D01*
X205488Y409772D02*
X208488D01*
X206988Y408273D02*
Y411273D01*
X183981Y384423D02*
X186981D01*
X185481Y382923D02*
Y385923D01*
X315500Y354000D02*
X318500D01*
X317000Y352500D02*
Y355500D01*
X216250Y366000D02*
X218750D01*
X217500Y364750D02*
Y367250D01*
X220250Y345742D02*
X222750D01*
X221500Y344492D02*
Y346992D01*
X182960Y325626D02*
X185960D01*
X184460Y324126D02*
Y327126D01*
X166750Y456500D02*
X169750D01*
X168250Y455000D02*
Y458000D01*
X115595Y495658D02*
X118595D01*
X117095Y494159D02*
Y497159D01*
X83250Y467190D02*
X86250D01*
X84750Y465690D02*
Y468690D01*
X74250Y479810D02*
X77250D01*
X75750Y478310D02*
Y481310D01*
X86250Y445250D02*
X89250D01*
X87750Y443750D02*
Y446750D01*
X21250Y448750D02*
X24250D01*
X22750Y447250D02*
Y450250D01*
X125500Y386000D02*
X128500D01*
X127000Y384500D02*
Y387500D01*
X136500Y381000D02*
X139500D01*
X138000Y379500D02*
Y382500D01*
X133026Y354937D02*
X136026D01*
X134526Y353437D02*
Y356437D01*
X109500Y397500D02*
X112500D01*
X111000Y396000D02*
Y399000D01*
X106500Y378569D02*
X109500D01*
X108000Y377069D02*
Y380069D01*
X285500Y285000D02*
X288500D01*
X287000Y283500D02*
Y286500D01*
X261278Y283222D02*
X264278D01*
X262778Y281722D02*
Y284722D01*
X296434Y127834D02*
X299434D01*
X297934Y126334D02*
Y129334D01*
X292947Y197671D02*
X295947D01*
X294447Y196171D02*
Y199171D01*
X288394Y51407D02*
X291394D01*
X289894Y49907D02*
Y52907D01*
X264737Y27750D02*
X267737D01*
X266237Y26250D02*
Y29250D01*
X207500Y292000D02*
X210500D01*
X209000Y290500D02*
Y293500D01*
X163019Y292277D02*
X166019D01*
X164519Y290777D02*
Y293777D01*
X128500Y289250D02*
X131500D01*
X130000Y287750D02*
Y290750D01*
X73500Y284000D02*
X76500D01*
X75000Y282500D02*
Y285500D01*
X244080Y215250D02*
X247080D01*
X245580Y213750D02*
Y216750D01*
X228500Y195000D02*
X231500D01*
X230000Y193500D02*
Y196500D01*
X205870Y254880D02*
X208870D01*
X207370Y253380D02*
Y256380D01*
X84555Y259166D02*
X87555D01*
X86055Y257666D02*
Y260666D01*
X127514Y62514D02*
X130514D01*
X129014Y61014D02*
Y64014D01*
X436030Y221215D02*
X439030D01*
X437529Y219715D02*
Y222715D01*
X332232Y95032D02*
X335232D01*
X333732Y93532D02*
Y96532D01*
X293900Y97793D02*
X296900D01*
X295400Y96293D02*
Y99293D01*
X261000Y90000D02*
X264000D01*
X262500Y88500D02*
Y91500D01*
X266955Y69581D02*
X269955D01*
X268455Y68081D02*
Y71081D01*
X304750Y62000D02*
X307750D01*
X306250Y60500D02*
Y63500D01*
X261816Y315045D02*
X264816D01*
X263316Y313545D02*
Y316545D01*
X375250Y139250D02*
X378250D01*
X376750Y137750D02*
Y140750D01*
X372534Y85210D02*
X375534D01*
X374034Y83709D02*
Y86709D01*
X403503Y349583D02*
X406503D01*
X405003Y348083D02*
Y351083D01*
X413750Y37750D02*
X416750D01*
X415250Y36250D02*
Y39250D01*
X241453Y267750D02*
X244452D01*
X242952Y266250D02*
Y269250D01*
X58293Y240707D02*
X61293D01*
X59793Y239207D02*
Y242207D01*
X77760Y240506D02*
X80760D01*
X79260Y239006D02*
Y242006D01*
X72500Y245125D02*
X75500D01*
X74000Y243625D02*
Y246625D01*
X68361Y350361D02*
X71361D01*
X69861Y348861D02*
Y351861D01*
X75250Y364500D02*
X78250D01*
X76750Y363000D02*
Y366000D01*
X207500Y433250D02*
X210500D01*
X209000Y431750D02*
Y434750D01*
X207750Y444250D02*
X210750D01*
X209250Y442750D02*
Y445750D01*
X507500Y415250D02*
X510500D01*
X509000Y413750D02*
Y416750D01*
X137041Y373430D02*
X140041D01*
X138541Y371930D02*
Y374930D01*
X134250Y332500D02*
X137250D01*
X135750Y331000D02*
Y334000D01*
X105000Y486000D02*
X108000D01*
X106500Y484500D02*
Y487500D01*
X466357Y462107D02*
X469356D01*
X467856Y460606D02*
Y463606D01*
X291500Y362500D02*
X294500D01*
X293000Y361000D02*
Y364000D01*
X502250Y272750D02*
X505250D01*
X503750Y271250D02*
Y274250D01*
X306750Y195250D02*
X309750D01*
X308250Y193750D02*
Y196750D01*
X346750Y282500D02*
X349750D01*
X348250Y281000D02*
Y284000D01*
X495750Y406500D02*
X498750D01*
X497250Y405000D02*
Y408000D01*
X443500Y370250D02*
X446500D01*
X445000Y368750D02*
Y371750D01*
X428685Y413734D02*
X431685D01*
X430185Y412234D02*
Y415234D01*
X277500Y175500D02*
X279500D01*
X278500Y174500D02*
Y176500D01*
X267500Y174000D02*
X269500D01*
X268500Y173000D02*
Y175000D01*
X282250Y252500D02*
X285250D01*
X283750Y251000D02*
Y254000D01*
X422500Y37500D02*
X425500D01*
X424000Y36000D02*
Y39000D01*
X383500Y35000D02*
X386500D01*
X385000Y33500D02*
Y36500D01*
X407250Y45000D02*
X410250D01*
X408750Y43500D02*
Y46500D01*
X459580Y418000D02*
X462580D01*
X461080Y416500D02*
Y419500D01*
X439000Y287521D02*
X442000D01*
X440500Y286021D02*
Y289021D01*
X379250Y349500D02*
X382250D01*
X380750Y348000D02*
Y351000D01*
X434000Y309000D02*
X437000D01*
X435500Y307500D02*
Y310500D01*
X403500Y309250D02*
X406500D01*
X405000Y307750D02*
Y310750D01*
X436000Y266562D02*
X439000D01*
X437500Y265062D02*
Y268062D01*
X434500Y255562D02*
X437500D01*
X436000Y254062D02*
Y257062D01*
X450500Y222500D02*
X453500D01*
X452000Y221000D02*
Y224000D01*
X538000Y50000D02*
X541000D01*
X539500Y48500D02*
Y51500D01*
X400730Y159475D02*
X403730D01*
X402230Y157975D02*
Y160975D01*
X285750Y423039D02*
X288750D01*
X287250Y421539D02*
Y424539D01*
X262250Y361387D02*
X265250D01*
X263750Y359887D02*
Y362887D01*
X246916Y388797D02*
X249916D01*
X248416Y387296D02*
Y390297D01*
X225000Y248250D02*
X228000D01*
X226500Y246750D02*
Y249750D01*
X230250Y165166D02*
X233250D01*
X231750Y163666D02*
Y166666D01*
X218500Y60000D02*
X221500D01*
X220000Y58500D02*
Y61500D01*
X493000Y309250D02*
X496000D01*
X494500Y307750D02*
Y310750D01*
X486500Y354000D02*
X489500D01*
X488000Y352500D02*
Y355500D01*
X35271Y419745D02*
X38271D01*
X36771Y418245D02*
Y421245D01*
X54750Y421250D02*
X57750D01*
X56250Y419750D02*
Y422750D01*
X46250Y422500D02*
X49250D01*
X47750Y421000D02*
Y424000D01*
X29528Y456028D02*
X32528D01*
X31028Y454528D02*
Y457528D01*
X137500Y392000D02*
X140500D01*
X139000Y390500D02*
Y393500D01*
X128750Y435750D02*
X131750D01*
X130250Y434250D02*
Y437250D01*
X282000Y237500D02*
X285000D01*
X283500Y236000D02*
Y239000D01*
X166750Y363500D02*
X169750D01*
X168250Y362000D02*
Y365000D01*
X175000Y334250D02*
X178000D01*
X176500Y332750D02*
Y335750D01*
X389250Y339250D02*
X392250D01*
X390750Y337750D02*
Y340750D01*
X347750Y319250D02*
X350750D01*
X349250Y317750D02*
Y320750D01*
X73750Y339000D02*
X76750D01*
X75250Y337500D02*
Y340500D01*
X137250Y283500D02*
X140250D01*
X138750Y282000D02*
Y285000D01*
X322688Y132500D02*
X325688D01*
X324188Y131000D02*
Y134000D01*
X260500Y130750D02*
X263500D01*
X262000Y129250D02*
Y132250D01*
X94107Y235607D02*
X97107D01*
X95607Y234107D02*
Y237107D01*
X114800Y342519D02*
X117800D01*
X116300Y341020D02*
Y344020D01*
X70750Y292000D02*
X73750D01*
X72250Y290500D02*
Y293500D01*
X117695Y354865D02*
X120695D01*
X119195Y353365D02*
Y356365D01*
X84066Y291017D02*
X87066D01*
X85566Y289517D02*
Y292517D01*
X233693Y303052D02*
X236693D01*
X235193Y301552D02*
Y304552D01*
X178750Y290750D02*
X181750D01*
X180250Y289250D02*
Y292250D01*
X355000Y404750D02*
X358000D01*
X356500Y403250D02*
Y406250D01*
X271347Y367847D02*
X274347D01*
X272847Y366347D02*
Y369347D01*
X395500Y469250D02*
X397500D01*
X396500Y468250D02*
Y470250D01*
X198500Y421000D02*
X201500D01*
X200000Y419500D02*
Y422500D01*
X89280Y411185D02*
X92280D01*
X90780Y409685D02*
Y412685D01*
X151500Y485900D02*
X154500D01*
X153000Y484400D02*
Y487400D01*
X175500Y460000D02*
X178500D01*
X177000Y458500D02*
Y461500D01*
X224500Y455803D02*
X227500D01*
X226000Y454303D02*
Y457303D01*
X227500Y466755D02*
X230500D01*
X229000Y465255D02*
Y468255D01*
X114230Y488793D02*
X117230D01*
X115730Y487293D02*
Y490293D01*
X232750Y416250D02*
X235750D01*
X234250Y414750D02*
Y417750D01*
X235250Y442000D02*
X238250D01*
X236750Y440500D02*
Y443500D01*
X106515Y362730D02*
X109515D01*
X108014Y361230D02*
Y364230D01*
X85500Y240250D02*
X88500D01*
X87000Y238750D02*
Y241750D01*
X249529Y464315D02*
X252529D01*
X251029Y462815D02*
Y465815D01*
X261105Y465000D02*
X264105D01*
X262605Y463500D02*
Y466500D01*
X514717Y295282D02*
X517718D01*
X516217Y293783D02*
Y296782D01*
X517100Y320310D02*
X520100D01*
X518600Y318810D02*
Y321810D01*
X517162Y272904D02*
X520162D01*
X518662Y271404D02*
Y274404D01*
X340250Y263250D02*
X343250D01*
X341750Y261750D02*
Y264750D01*
X393750D02*
X396750D01*
X395250Y263250D02*
Y266250D01*
X463750Y286000D02*
X466750D01*
X465250Y284500D02*
Y287500D01*
X468500Y205000D02*
X471500D01*
X470000Y203500D02*
Y206500D01*
X520500Y206750D02*
X523500D01*
X522000Y205250D02*
Y208250D01*
X504750Y246000D02*
X507750D01*
X506250Y244500D02*
Y247500D01*
X340000Y400750D02*
X343000D01*
X341500Y399250D02*
Y402250D01*
X148500Y223750D02*
X151500D01*
X150000Y222250D02*
Y225250D01*
X338500Y290500D02*
X341500D01*
X340000Y289000D02*
Y292000D01*
X358750Y320000D02*
X361750D01*
X360250Y318500D02*
Y321500D01*
X385000Y416000D02*
X388000D01*
X386500Y414500D02*
Y417500D01*
X88500Y220000D02*
X91500D01*
X90000Y218500D02*
Y221500D01*
X349000Y460750D02*
X352000D01*
X350500Y459250D02*
Y462250D01*
X349250Y451000D02*
X352250D01*
X350750Y449500D02*
Y452500D01*
X238250Y169941D02*
X241250D01*
X239750Y168441D02*
Y171441D01*
X542716Y37283D02*
X545717D01*
X544216Y35784D02*
Y38784D01*
X137500Y109610D02*
X140500D01*
X139000Y108110D02*
Y111110D01*
X514500Y124000D02*
X517500D01*
X516000Y122500D02*
Y125500D01*
X97531Y471158D02*
X100531D01*
X99031Y469658D02*
Y472658D01*
X70250Y395500D02*
X73250D01*
X71750Y394000D02*
Y397000D01*
M02*
